ply
format ascii 1.0
element vertex 1763
property uchar red
property uchar green
property uchar blue
end_header
55 78 91 
47 74 86 
52 75 88 
48 69 82 
51 80 88 
50 76 96 
33 64 76 
43 74 83 
46 79 85 
39 71 80 
57 83 93 
62 89 94 
78 100 105 
58 81 90 
68 97 97 
42 70 80 
49 76 87 
45 73 81 
46 66 80 
36 61 75 
110 118 122 
106 113 120 
142 132 126 
108 122 130 
58 76 87 
131 140 143 
86 97 108 
103 104 106 
101 125 122 
107 124 128 
128 137 139 
94 111 104 
95 106 112 
106 114 119 
105 112 117 
51 72 84 
113 123 125 
116 100 99 
93 104 107 
56 78 91 
68 82 92 
67 82 91 
93 111 113 
252 253 252 
200 203 195 
246 246 243 
229 232 229 
227 228 224 
240 239 234 
206 211 212 
212 217 216 
225 218 204 
244 246 243 
204 207 204 
241 242 238 
244 246 243 
242 242 235 
210 217 217 
229 229 225 
234 230 222 
217 221 220 
245 247 246 
240 242 237 
252 252 252 
192 193 186 
235 237 233 
224 225 220 
237 232 224 
233 236 235 
231 222 210 
199 207 208 
239 232 222 
248 245 237 
244 241 234 
233 230 222 
212 212 209 
241 233 223 
159 219 213 
243 243 239 
248 247 241 
210 190 174 
191 227 208 
197 207 209 
195 201 202 
249 243 194 
248 248 245 
220 224 227 
230 233 232 
205 204 197 
213 212 207 
210 208 199 
224 229 230 
178 189 191 
193 192 184 
249 249 249 
240 243 243 
246 246 244 
247 247 247 
213 222 224 
241 243 242 
246 247 242 
248 249 247 
246 247 245 
215 210 198 
230 232 232 
245 246 242 
226 229 230 
202 206 205 
225 230 230 
215 214 208 
230 230 235 
242 244 244 
224 224 218 
234 235 234 
231 233 233 
238 238 234 
237 240 239 
199 201 202 
177 190 195 
243 244 239 
227 229 231 
226 220 214 
211 217 218 
221 223 224 
173 186 189 
246 247 244 
197 199 192 
242 242 236 
245 245 241 
213 211 207 
245 246 245 
210 210 197 
221 227 227 
243 244 240 
229 231 231 
197 200 198 
243 244 239 
181 183 183 
200 212 215 
200 194 193 
215 212 207 
208 203 198 
195 198 190 
231 233 235 
207 208 205 
198 201 199 
215 218 218 
210 217 216 
231 233 234 
245 244 239 
246 247 245 
248 248 246 
252 252 251 
221 221 220 
245 246 247 
228 232 228 
241 243 240 
249 249 248 
238 241 240 
242 243 239 
248 250 246 
251 252 251 
192 192 182 
247 248 248 
228 230 231 
203 205 204 
210 214 213 
203 208 203 
248 248 248 
249 249 245 
202 206 206 
211 212 208 
246 247 243 
248 244 225 
241 242 239 
213 217 217 
220 220 222 
252 252 251 
247 248 246 
191 196 192 
243 245 243 
247 248 246 
245 246 244 
244 245 243 
205 203 196 
216 225 224 
238 234 223 
196 209 214 
212 215 215 
234 235 233 
140 150 156 
243 243 240 
244 245 244 
209 215 215 
244 246 245 
210 216 218 
236 239 235 
220 226 230 
197 201 201 
239 240 237 
209 207 199 
230 232 232 
231 231 228 
212 215 214 
225 221 218 
231 233 234 
231 232 233 
214 217 219 
206 213 212 
243 243 238 
29 59 73 
54 75 89 
80 95 107 
65 87 95 
60 88 108 
47 86 83 
61 73 90 
61 77 92 
67 80 93 
123 126 128 
109 127 131 
60 72 82 
58 73 82 
69 92 105 
118 125 126 
114 126 130 
100 123 123 
81 97 106 
114 124 127 
109 123 127 
104 110 110 
118 112 109 
92 101 108 
96 103 108 
98 110 115 
124 117 120 
54 78 89 
47 72 90 
94 109 115 
70 84 90 
87 92 101 
95 105 117 
72 85 93 
44 66 77 
101 113 114 
238 239 234 
250 250 245 
215 201 182 
217 213 206 
244 247 243 
228 221 156 
209 209 205 
243 244 240 
236 233 229 
237 236 232 
252 251 252 
241 239 235 
214 216 213 
182 190 191 
237 239 235 
239 239 235 
247 245 239 
192 198 195 
199 208 210 
168 161 148 
231 231 226 
222 226 224 
248 248 246 
195 199 198 
219 217 210 
215 219 216 
246 246 239 
169 182 185 
235 237 234 
246 247 246 
204 212 214 
251 249 245 
213 200 182 
183 195 198 
166 159 148 
238 234 228 
234 235 229 
173 182 182 
233 225 215 
197 199 200 
197 205 206 
252 250 245 
209 209 203 
241 238 235 
228 230 228 
249 249 248 
237 229 170 
227 223 221 
216 217 212 
220 237 240 
215 221 223 
226 229 228 
190 199 202 
176 182 183 
225 226 226 
191 192 187 
218 219 217 
224 227 228 
221 223 223 
227 225 218 
217 217 213 
241 243 242 
236 239 239 
220 220 214 
252 253 252 
244 239 232 
244 244 238 
161 173 174 
194 205 205 
246 247 245 
243 244 239 
245 244 239 
240 240 234 
230 228 223 
237 238 237 
183 192 193 
192 200 202 
227 226 219 
230 231 227 
229 231 230 
245 246 242 
235 233 229 
249 249 249 
247 247 245 
225 227 229 
241 242 242 
244 245 242 
171 184 188 
196 203 198 
223 221 217 
220 202 205 
205 206 195 
202 209 204 
169 178 183 
205 209 206 
232 227 223 
210 213 212 
220 225 225 
245 246 245 
177 180 182 
203 206 206 
180 190 193 
217 219 217 
245 245 245 
212 218 218 
240 241 236 
241 241 237 
237 238 237 
217 215 213 
211 212 209 
194 183 168 
220 220 214 
186 197 202 
226 232 233 
208 225 223 
245 246 239 
226 226 223 
224 233 234 
242 245 242 
246 246 243 
207 211 208 
232 227 220 
184 191 194 
174 183 185 
224 223 221 
218 220 221 
195 201 200 
242 243 243 
234 237 236 
242 244 242 
215 233 235 
244 245 242 
228 226 214 
239 241 238 
245 245 244 
247 248 245 
246 247 247 
246 246 245 
248 249 243 
246 244 237 
195 204 206 
245 247 246 
252 252 252 
198 207 207 
250 250 245 
248 249 245 
238 236 227 
198 202 196 
247 247 243 
233 229 223 
229 232 231 
233 234 231 
242 244 232 
244 242 239 
247 246 245 
246 242 212 
246 247 247 
245 244 240 
241 239 233 
231 236 238 
243 244 241 
204 205 200 
203 209 210 
188 195 196 
221 228 226 
243 243 239 
242 243 244 
245 246 246 
221 222 219 
225 225 224 
237 239 238 
239 241 240 
247 249 248 
240 240 237 
233 233 234 
242 249 249 
248 248 248 
241 240 236 
202 204 209 
179 189 191 
201 203 199 
202 209 209 
181 197 199 
240 241 242 
250 249 248 
239 238 234 
224 224 224 
231 232 232 
222 225 226 
211 208 203 
203 208 201 
249 249 243 
250 250 250 
227 234 216 
201 239 241 
246 247 244 
250 250 247 
250 251 250 
243 245 244 
245 246 238 
217 221 222 
217 220 221 
226 227 226 
248 248 248 
247 247 247 
252 252 251 
246 247 246 
243 246 244 
42 70 82 
76 92 102 
61 74 88 
82 96 97 
54 78 91 
88 98 107 
55 79 91 
25 57 73 
83 98 98 
36 66 80 
84 95 104 
83 97 101 
93 111 115 
50 71 83 
67 83 97 
95 107 113 
87 96 105 
84 91 99 
91 98 101 
40 64 76 
54 77 91 
94 97 100 
44 66 79 
249 249 245 
245 246 244 
246 247 242 
242 241 240 
240 240 235 
247 247 243 
230 230 226 
243 244 240 
253 253 253 
238 240 234 
218 222 222 
179 189 191 
232 232 226 
181 173 160 
235 231 222 
226 221 211 
238 232 222 
225 226 223 
240 239 235 
205 208 208 
196 201 201 
241 243 241 
192 199 199 
240 242 241 
243 244 243 
163 177 178 
243 243 236 
209 208 202 
250 251 250 
251 251 251 
237 238 235 
204 208 210 
205 211 211 
241 243 242 
175 178 177 
225 226 224 
242 243 243 
216 217 218 
218 217 210 
236 236 235 
192 196 195 
249 249 247 
205 212 213 
191 197 196 
233 236 237 
247 248 245 
245 245 245 
232 236 234 
226 228 225 
176 178 172 
233 235 235 
172 184 185 
245 246 241 
199 197 192 
249 249 247 
248 247 247 
243 243 239 
252 252 251 
231 228 225 
217 221 215 
248 247 243 
249 250 248 
222 222 218 
205 208 206 
223 225 223 
250 250 250 
248 248 248 
221 222 216 
253 253 251 
233 234 232 
245 247 244 
251 250 245 
183 186 183 
196 244 241 
212 213 215 
231 219 155 
202 206 205 
238 238 236 
157 173 175 
252 252 252 
242 234 204 
248 249 249 
200 198 186 
242 245 243 
239 239 239 
242 243 235 
252 253 252 
71 92 106 
142 128 116 
247 247 245 
244 245 243 
214 216 216 
202 207 209 
166 174 175 
108 112 115 
98 115 121 
112 126 132 
47 73 80 
38 71 75 
109 116 120 
107 119 122 
37 63 76 
65 80 92 
57 70 79 
99 112 118 
85 100 109 
70 89 101 
80 92 97 
96 97 100 
113 123 126 
97 112 124 
93 115 124 
116 125 127 
42 67 82 
109 120 124 
90 101 105 
52 75 86 
86 96 101 
89 115 100 
52 78 89 
74 92 97 
56 74 87 
49 74 89 
43 68 81 
60 88 98 
58 78 91 
26 61 72 
55 84 86 
75 93 107 
61 80 86 
39 68 82 
58 80 86 
45 72 83 
50 72 86 
60 80 97 
55 75 89 
53 74 88 
67 78 90 
50 74 85 
35 58 75 
63 82 95 
53 76 91 
61 84 96 
50 79 87 
32 65 74 
59 86 92 
37 73 77 
25 62 75 
65 92 98 
58 85 93 
48 78 82 
16 56 72 
48 79 84 
69 97 115 
38 69 81 
44 71 85 
35 63 79 
47 71 86 
49 71 81 
27 59 74 
104 116 120 
116 130 133 
63 79 92 
114 121 124 
71 88 98 
88 102 107 
97 102 104 
93 109 112 
96 103 107 
97 112 118 
33 67 72 
34 65 72 
95 102 107 
77 87 95 
101 111 119 
68 90 100 
57 74 85 
78 90 96 
73 84 94 
94 109 115 
80 92 97 
108 108 112 
103 103 110 
66 81 92 
111 121 122 
84 91 98 
85 96 108 
106 115 115 
104 119 121 
99 105 114 
74 86 95 
108 121 124 
114 125 131 
113 122 127 
89 94 97 
54 69 81 
85 106 117 
81 96 107 
62 80 90 
116 129 133 
82 83 91 
90 99 107 
58 70 81 
72 78 86 
88 105 112 
110 124 129 
106 121 129 
67 81 91 
86 95 101 
102 115 119 
85 107 123 
96 114 119 
116 114 116 
97 110 118 
74 94 99 
117 132 135 
131 139 140 
100 116 117 
109 116 119 
105 112 117 
119 122 126 
80 97 104 
71 88 97 
83 96 109 
72 88 98 
61 90 110 
32 68 76 
57 83 87 
221 219 217 
213 215 213 
228 227 222 
236 239 239 
228 230 230 
173 174 169 
220 225 221 
234 235 234 
191 199 205 
232 233 234 
226 229 230 
240 242 242 
243 245 244 
217 217 217 
241 243 243 
215 228 230 
234 235 234 
244 245 242 
176 186 194 
207 207 182 
182 187 187 
188 196 197 
97 129 92 
227 233 231 
210 213 215 
240 240 234 
179 184 181 
229 233 234 
243 243 238 
208 213 214 
252 252 250 
238 240 241 
222 224 222 
208 215 217 
199 205 209 
216 217 215 
234 237 232 
162 174 182 
248 247 246 
243 243 238 
179 186 183 
201 211 211 
242 243 241 
247 248 248 
229 234 238 
235 234 225 
214 217 216 
240 241 239 
205 207 207 
248 249 248 
228 229 226 
208 213 213 
246 247 244 
241 243 243 
189 194 191 
244 245 242 
248 248 245 
239 240 235 
161 176 182 
180 159 150 
236 213 159 
212 224 226 
225 227 227 
193 187 184 
206 209 210 
181 192 196 
228 233 234 
216 223 225 
227 229 226 
236 238 236 
198 209 213 
244 246 245 
190 187 178 
151 167 172 
232 234 235 
228 234 234 
232 236 239 
226 228 229 
214 220 224 
223 225 224 
183 189 190 
246 245 245 
247 248 248 
248 248 246 
215 212 180 
197 197 181 
231 230 230 
158 164 165 
244 245 243 
238 238 236 
235 238 238 
210 220 223 
208 216 200 
187 193 196 
213 219 222 
160 174 177 
216 219 211 
237 237 230 
191 196 193 
225 229 230 
190 195 194 
231 233 231 
231 232 231 
246 247 247 
196 214 211 
174 180 180 
222 225 224 
179 183 182 
142 136 118 
217 219 220 
218 215 208 
227 230 230 
156 150 134 
204 205 201 
212 217 218 
207 214 212 
235 237 237 
243 244 245 
212 213 214 
205 202 149 
190 195 186 
168 176 177 
179 185 185 
208 213 214 
167 158 146 
201 204 204 
201 199 194 
219 223 221 
151 148 141 
215 216 215 
235 236 232 
215 219 216 
192 201 204 
197 199 200 
197 207 208 
238 238 237 
182 192 194 
196 200 199 
177 183 184 
242 240 236 
206 211 212 
241 240 235 
250 250 250 
218 220 219 
232 230 223 
249 250 250 
246 247 243 
249 247 240 
169 181 182 
229 226 219 
250 248 239 
209 203 184 
209 203 186 
223 218 206 
222 218 209 
217 213 196 
242 242 235 
210 216 216 
219 211 193 
203 198 179 
215 216 211 
213 213 212 
239 239 236 
208 208 204 
229 229 224 
172 185 188 
152 166 173 
178 187 189 
177 181 181 
239 239 240 
212 213 212 
210 212 211 
245 246 241 
228 231 231 
246 246 244 
248 249 245 
251 252 251 
210 213 209 
248 248 246 
237 238 233 
212 214 213 
243 245 243 
221 213 198 
218 212 197 
238 240 239 
219 213 196 
241 242 238 
165 176 181 
183 222 204 
169 210 189 
242 235 202 
206 201 184 
222 216 200 
249 249 244 
144 142 122 
227 224 214 
242 243 241 
215 216 215 
203 183 183 
244 245 244 
246 247 244 
209 211 208 
244 245 241 
230 224 211 
208 202 184 
206 206 205 
236 235 229 
224 214 212 
216 211 196 
244 244 238 
214 216 216 
227 227 221 
240 243 243 
237 237 234 
216 217 214 
239 239 234 
250 252 250 
229 224 215 
236 240 241 
241 238 231 
243 241 233 
230 225 211 
171 178 179 
164 159 141 
245 234 215 
228 214 199 
237 238 236 
253 253 253 
220 213 195 
167 159 147 
222 215 199 
215 218 218 
200 187 173 
181 163 156 
190 200 202 
130 136 136 
210 209 200 
206 190 171 
207 204 191 
214 219 221 
204 204 200 
224 219 210 
200 197 185 
223 221 213 
169 180 184 
219 219 194 
221 217 207 
195 197 195 
231 231 230 
220 214 199 
233 234 231 
192 191 185 
187 178 165 
242 240 233 
186 175 164 
225 226 214 
202 209 212 
229 229 224 
234 235 230 
222 225 225 
238 238 236 
182 196 201 
236 224 157 
235 235 235 
197 192 185 
224 225 223 
235 236 232 
220 224 221 
161 172 177 
206 195 141 
218 221 221 
241 237 234 
229 230 230 
237 237 232 
221 214 159 
243 245 245 
244 246 246 
186 196 197 
172 182 184 
189 197 197 
241 245 245 
243 245 241 
203 194 179 
210 211 210 
211 196 177 
235 245 245 
239 239 236 
239 240 240 
246 248 245 
188 195 195 
231 239 238 
216 222 224 
242 243 243 
244 244 243 
249 240 216 
180 183 182 
250 251 250 
251 251 249 
210 214 215 
223 223 221 
197 199 194 
186 190 189 
214 216 214 
240 242 242 
238 237 232 
233 234 233 
217 218 215 
229 230 227 
187 190 190 
229 219 156 
222 225 229 
238 241 243 
180 189 192 
201 205 203 
195 196 190 
240 242 241 
242 245 243 
221 225 225 
227 230 230 
236 236 234 
198 206 212 
202 204 205 
250 251 252 
236 237 237 
148 144 139 
208 205 200 
193 196 196 
226 229 229 
227 226 211 
235 210 152 
238 215 161 
242 243 240 
245 223 134 
228 221 214 
230 234 236 
233 231 226 
168 172 89 
250 250 249 
238 240 238 
236 239 241 
165 180 183 
238 237 228 
240 238 230 
245 246 247 
217 224 226 
230 232 232 
245 247 246 
248 248 246 
204 210 210 
211 209 201 
249 250 249 
231 238 235 
241 244 241 
243 245 245 
238 240 232 
251 252 251 
233 233 229 
220 224 223 
181 181 173 
252 252 252 
181 178 170 
238 239 236 
227 224 216 
232 232 226 
222 219 212 
176 184 189 
223 229 230 
244 246 245 
226 228 228 
230 232 231 
235 235 233 
181 183 180 
220 225 227 
237 238 232 
247 246 245 
195 195 195 
211 211 210 
220 226 225 
234 231 220 
232 232 230 
135 130 131 
161 182 189 
240 240 239 
244 245 242 
240 240 240 
210 217 221 
238 241 241 
246 247 244 
244 245 246 
244 245 242 
194 201 202 
216 224 226 
220 222 219 
248 247 244 
243 242 238 
232 229 203 
244 243 242 
245 246 245 
251 251 249 
210 212 209 
232 232 229 
248 249 244 
239 233 221 
209 211 207 
243 245 244 
248 248 248 
247 247 246 
206 213 213 
219 219 211 
244 246 242 
225 222 214 
201 208 209 
191 196 197 
240 241 239 
232 236 235 
226 229 228 
202 210 210 
208 214 217 
217 204 147 
247 247 247 
232 230 224 
235 236 232 
230 231 230 
232 235 232 
231 233 230 
237 240 242 
241 244 242 
237 238 239 
222 218 214 
224 219 216 
181 189 192 
225 228 227 
220 219 212 
232 233 233 
246 247 244 
249 249 249 
189 197 198 
238 238 235 
245 246 246 
189 197 198 
178 191 193 
197 206 205 
241 242 241 
235 236 234 
169 162 152 
181 192 198 
215 234 237 
228 230 228 
159 169 174 
231 233 232 
207 211 204 
214 196 175 
229 235 234 
234 234 233 
210 212 212 
250 250 250 
221 223 223 
220 223 222 
192 200 204 
198 205 207 
246 248 248 
208 216 219 
191 198 183 
223 226 227 
187 193 190 
222 218 210 
219 227 228 
228 229 225 
155 154 147 
233 234 230 
198 198 194 
234 234 208 
165 165 161 
222 219 217 
188 196 198 
89 118 87 
250 251 251 
235 241 241 
230 229 226 
247 248 245 
151 168 175 
193 197 187 
237 239 238 
222 223 223 
170 181 189 
232 230 228 
207 214 217 
198 198 189 
187 190 187 
225 227 226 
240 240 240 
247 248 248 
247 246 240 
202 208 212 
245 246 246 
238 237 231 
198 207 208 
249 251 251 
233 235 237 
215 215 208 
222 225 226 
245 245 238 
217 224 223 
247 248 248 
247 249 249 
236 236 234 
213 219 218 
245 247 247 
202 201 203 
247 248 247 
238 241 227 
249 249 249 
216 221 220 
202 208 209 
242 243 242 
183 182 172 
212 213 213 
248 249 248 
172 182 189 
228 230 231 
252 253 251 
215 217 214 
251 251 248 
172 184 185 
209 213 210 
243 243 238 
205 209 207 
216 221 221 
224 219 203 
207 208 206 
210 203 188 
228 223 209 
208 212 211 
245 247 243 
203 191 174 
216 217 214 
229 232 231 
233 229 218 
159 142 140 
90 96 101 
43 67 80 
36 66 76 
35 63 76 
27 63 73 
52 87 98 
56 81 95 
196 197 196 
208 201 185 
135 142 138 
200 207 208 
151 150 143 
209 213 212 
250 250 249 
214 206 191 
212 213 211 
218 222 219 
241 243 242 
216 210 193 
217 215 207 
215 211 194 
226 221 206 
226 220 206 
142 132 108 
234 233 233 
219 220 218 
197 200 201 
169 168 152 
218 222 223 
206 201 183 
225 230 232 
216 210 202 
228 223 211 
102 109 114 
51 75 88 
109 126 137 
119 110 107 
58 80 92 
52 78 91 
63 90 85 
52 77 91 
47 74 87 
38 67 84 
126 155 146 
61 81 93 
101 110 114 
94 109 113 
71 86 95 
47 74 88 
243 243 241 
223 221 215 
235 231 221 
197 204 205 
218 218 212 
206 207 202 
249 249 248 
196 200 199 
229 231 226 
218 214 198 
174 217 195 
195 196 194 
177 217 196 
210 215 216 
211 214 213 
197 184 168 
170 167 157 
229 223 209 
192 191 183 
218 214 203 
120 127 128 
235 238 236 
241 241 241 
221 223 222 
216 218 218 
212 219 218 
197 199 196 
214 217 218 
250 242 196 
242 241 234 
246 247 241 
246 247 244 
242 243 243 
53 77 92 
37 68 80 
41 71 80 
53 78 92 
47 72 84 
69 80 93 
58 87 85 
34 63 78 
38 62 77 
35 70 78 
38 63 78 
34 62 77 
26 58 73 
110 119 119 
107 116 116 
69 80 91 
106 114 121 
83 94 100 
98 112 113 
93 99 100 
77 117 120 
95 122 120 
93 120 119 
67 82 88 
67 100 83 
97 112 114 
67 85 97 
66 80 89 
93 92 98 
114 123 128 
111 126 133 
106 115 114 
59 77 89 
62 81 88 
66 80 89 
69 81 92 
47 72 86 
84 99 106 
88 92 93 
106 102 109 
94 101 103 
125 127 131 
37 66 75 
85 114 113 
86 106 112 
87 99 102 
66 100 107 
113 124 128 
73 90 101 
71 89 96 
158 157 153 
38 66 79 
73 93 104 
124 135 135 
104 116 119 
95 110 113 
62 81 92 
98 111 109 
103 133 129 
67 87 98 
65 89 102 
34 68 70 
79 99 103 
115 130 132 
75 86 94 
85 102 116 
57 77 88 
44 70 84 
44 70 85 
246 246 244 
236 235 231 
185 177 163 
218 221 226 
176 170 163 
249 248 243 
242 234 216 
243 244 244 
218 213 198 
208 200 182 
213 214 211 
247 246 242 
249 250 249 
189 176 166 
221 218 210 
243 241 236 
220 209 210 
245 245 242 
238 240 235 
208 203 190 
199 194 181 
244 245 244 
214 197 144 
245 244 239 
245 246 245 
248 248 245 
209 206 202 
218 215 207 
204 191 176 
208 209 204 
204 190 175 
203 190 176 
222 216 200 
230 228 213 
189 177 163 
189 176 163 
249 249 244 
241 246 246 
174 201 183 
179 185 186 
237 237 233 
214 204 190 
185 213 203 
241 240 233 
176 187 191 
191 206 208 
169 179 183 
164 177 183 
186 191 191 
222 226 225 
225 226 225 
235 236 237 
197 200 200 
220 223 221 
185 194 195 
176 187 190 
212 217 217 
206 211 212 
190 200 202 
204 188 178 
221 222 221 
188 184 169 
251 251 250 
231 235 236 
194 205 218 
176 191 202 
212 215 217 
222 227 223 
240 238 232 
227 229 228 
213 216 216 
232 233 230 
244 245 244 
191 198 190 
245 246 243 
215 216 214 
237 237 235 
249 250 248 
251 251 251 
244 246 244 
217 221 221 
192 181 167 
199 186 172 
229 227 222 
200 197 179 
203 207 212 
216 211 198 
197 194 187 
201 196 189 
234 236 237 
237 234 228 
174 186 191 
219 213 210 
206 203 199 
206 217 223 
174 180 183 
203 205 204 
204 209 212 
171 183 184 
249 248 243 
235 236 232 
191 200 201 
210 213 213 
221 224 216 
227 231 231 
230 230 228 
182 217 207 
233 235 233 
236 233 224 
143 158 156 
225 226 221 
225 223 219 
249 251 251 
237 240 239 
187 188 183 
205 206 202 
203 190 176 
211 213 211 
252 252 250 
219 215 205 
246 242 236 
251 252 251 
193 182 164 
209 213 213 
177 173 151 
240 242 239 
244 245 242 
247 247 243 
244 242 236 
219 221 219 
222 226 228 
240 241 241 
190 194 197 
226 223 219 
177 185 189 
242 241 241 
219 220 218 
236 230 200 
220 210 158 
230 236 236 
225 222 219 
228 227 228 
244 245 242 
166 179 181 
239 237 228 
213 220 221 
240 240 239 
210 216 219 
249 244 207 
226 229 224 
246 247 246 
207 210 207 
231 231 227 
213 216 214 
215 217 213 
236 237 236 
243 244 244 
193 199 200 
224 207 181 
238 239 236 
239 239 237 
208 212 216 
236 236 234 
190 198 202 
203 206 205 
248 248 246 
245 234 180 
248 249 248 
248 248 247 
244 244 242 
249 249 245 
251 251 251 
241 218 193 
245 246 246 
248 248 247 
239 240 235 
209 215 213 
246 247 246 
238 238 237 
241 238 230 
196 206 213 
236 237 238 
197 202 204 
227 227 225 
203 195 185 
187 193 191 
184 194 195 
222 221 216 
249 249 247 
212 210 201 
230 230 228 
216 200 200 
162 176 177 
204 209 202 
219 223 220 
240 241 240 
236 234 233 
209 205 195 
250 250 250 
226 227 225 
184 188 186 
241 243 243 
231 227 219 
199 202 195 
238 235 227 
241 234 165 
216 206 191 
212 227 226 
200 197 181 
231 232 232 
218 202 147 
199 211 220 
218 222 223 
248 249 248 
211 211 207 
230 233 232 
231 232 229 
178 184 188 
233 235 234 
183 189 190 
244 245 241 
244 242 235 
203 199 197 
243 243 242 
250 251 248 
190 201 202 
170 160 142 
206 192 178 
225 240 246 
245 245 240 
222 203 144 
199 195 176 
210 217 219 
226 232 233 
229 235 211 
250 250 248 
242 226 191 
187 189 184 
249 249 247 
244 245 238 
69 93 98 
44 72 89 
34 63 78 
56 79 93 
58 86 87 
69 94 101 
38 65 80 
76 107 92 
39 71 85 
36 64 79 
45 74 90 
68 84 95 
83 93 97 
95 114 110 
59 101 111 
42 68 80 
133 140 141 
38 69 79 
101 114 117 
96 121 120 
50 80 86 
58 82 97 
245 246 243 
216 219 218 
252 252 252 
193 195 190 
207 212 212 
193 171 148 
243 240 233 
181 174 159 
213 201 186 
227 225 220 
224 214 200 
123 143 157 
148 162 166 
221 222 215 
241 244 242 
240 243 242 
227 229 230 
167 176 179 
214 220 217 
227 231 230 
245 247 248 
239 242 240 
213 206 195 
202 209 212 
235 236 236 
242 243 243 
244 247 243 
232 236 235 
220 224 223 
160 169 133 
187 194 194 
202 204 203 
241 240 240 
222 224 221 
239 243 243 
217 221 219 
201 206 203 
240 242 240 
207 210 212 
226 223 216 
231 234 236 
211 217 217 
251 252 250 
246 247 245 
133 145 145 
72 87 96 
66 81 83 
42 72 75 
67 82 91 
103 116 119 
81 94 103 
88 101 107 
62 82 94 
53 77 86 
106 111 94 
58 86 98 
118 133 133 
54 82 87 
53 78 93 
60 83 88 
223 215 202 
217 221 221 
222 222 220 
231 236 234 
224 227 223 
215 223 228 
212 216 216 
250 251 251 
239 241 240 
252 253 249 
250 250 250 
235 236 235 
213 215 209 
216 218 211 
191 192 189 
219 218 210 
194 191 173 
175 169 155 
214 220 220 
233 231 226 
204 209 211 
204 209 211 
251 251 250 
233 232 229 
247 248 249 
250 250 249 
247 235 201 
242 242 237 
251 252 252 
233 231 222 
233 237 234 
209 214 217 
237 239 235 
231 231 231 
235 237 232 
221 225 226 
247 248 248 
236 239 235 
207 208 206 
200 191 174 
237 238 233 
232 232 220 
238 240 237 
238 239 233 
181 188 188 
237 219 158 
249 250 248 
