ply
format ascii 1.0
element vertex 96
property char id
property float x
property float y
property float z
end_header
2 -0.214250 0.643050 -0.000980 
3 -0.071350 0.643120 -0.000210 
4 -0.356990 0.643130 -0.000830 
5 0.071370 0.643180 0.000810 
6 -0.499830 0.643100 -0.000890 
7 0.214070 0.643150 0.000280 
8 -0.642650 0.643060 -0.000560 
9 0.356980 0.643140 0.000210 
10 0.499790 0.643150 -0.001370 
11 0.642550 0.643210 -0.000520 
12 -0.214180 0.500080 -0.000230 
13 -0.071430 0.500130 0.000140 
14 -0.357040 0.500140 -0.000600 
15 0.071390 0.500140 0.001290 
16 0.214100 0.500150 0.000570 
17 -0.642640 0.500100 0.000430 
18 0.356980 0.500180 0.000400 
19 0.642560 0.500160 -0.001010 
20 -0.214060 0.357130 0.000150 
21 -0.356930 0.357170 0.000020 
22 -0.071340 0.357130 0.000350 
23 -0.499760 0.357200 0.000560 
24 0.071410 0.357150 0.002240 
25 -0.642500 0.357150 0.000460 
26 0.214180 0.357170 0.002310 
27 0.356900 0.357250 0.000620 
28 0.499770 0.357230 0.000010 
29 0.642530 0.357250 -0.000860 
30 -0.642510 0.214210 -0.000010 
31 -0.499720 0.214240 0.001020 
32 -0.356750 0.214210 0.000940 
33 -0.214020 0.214180 0.000330 
34 -0.071260 0.214200 0.000350 
35 0.356890 0.214280 0.000590 
36 0.071570 0.214190 0.003620 
37 0.214190 0.214220 0.002360 
38 0.499780 0.214260 -0.000630 
39 0.642620 0.214310 0.002370 
40 -0.356720 0.071340 0.000960 
41 -0.214000 0.071330 0.000920 
42 -0.642470 0.071300 0.004020 
43 -0.071090 0.071330 0.001260 
44 0.356850 0.071400 0.000680 
45 -0.499550 0.071340 0.003490 
46 0.499810 0.071350 0.000980 
47 0.214200 0.071340 0.002200 
48 0.642630 0.071340 0.002100 
49 0.071610 0.071300 0.003970 
50 -0.642340 -0.071510 0.000590 
51 -0.499540 -0.071470 0.000760 
52 0.642590 -0.071550 0.000390 
53 0.499790 -0.071550 0.000210 
54 -0.356640 -0.071510 0.001920 
55 -0.213970 -0.071490 0.000330 
56 -0.071250 -0.071440 0.000290 
57 0.356940 -0.071490 0.000050 
58 0.214190 -0.071510 0.001070 
59 0.071580 -0.071510 0.002780 
60 0.642560 -0.214310 -0.001030 
61 -0.642400 -0.214360 0.000810 
62 -0.499540 -0.214320 0.000490 
63 0.499780 -0.214340 -0.000540 
64 -0.356790 -0.214220 0.000530 
65 -0.214020 -0.214230 -0.000150 
66 0.356920 -0.214270 -0.000400 
67 -0.071270 -0.214180 0.000080 
68 0.214080 -0.214230 -0.000120 
69 0.071540 -0.214270 0.001550 
70 0.642600 -0.357250 -0.000940 
71 -0.642460 -0.357230 0.000360 
72 0.499810 -0.357270 -0.000050 
73 -0.499720 -0.357220 0.000320 
74 0.357010 -0.357190 -0.000580 
75 -0.356730 -0.357190 0.000740 
76 0.214100 -0.357130 -0.000360 
77 -0.213970 -0.357190 0.000350 
78 -0.071170 -0.357120 -0.000120 
79 0.071380 -0.357080 0.000320 
80 0.642540 -0.500100 -0.002030 
81 -0.642450 -0.500220 0.001930 
82 0.356970 -0.500080 -0.001670 
83 -0.356950 -0.500070 -0.000050 
84 -0.214200 -0.500030 -0.000660 
85 -0.071290 -0.500000 -0.000910 
86 0.214240 -0.500110 -0.000040 
87 0.071520 -0.500090 0.000540 
88 0.642600 -0.642950 -0.002750 
89 0.499810 -0.643000 -0.002550 
90 -0.642580 -0.643050 0.001580 
91 0.357060 -0.642950 -0.002180 
92 -0.499780 -0.643020 0.000430 
93 0.214230 -0.642950 -0.001910 
94 -0.356970 -0.642920 -0.000460 
95 -0.214230 -0.642890 -0.001540 
96 0.071390 -0.642850 -0.001780 
97 -0.071300 -0.642860 -0.001620 
