ply
format ascii 1.0
element vertex 96
property char id
property float x
property float y
property char size
end_header
5 1355.861084 1568.320435 4 
7 1180.847412 1568.056641 4 
3 1530.015137 1566.436523 4 
9 1006.125305 1566.323120 4 
2 1702.511841 1563.386719 4 
10 833.285889 1562.760376 4 
4 1873.508057 1560.114624 4 
11 662.685730 1558.350586 4 
6 2042.885010 1556.611816 4 
8 2212.189209 1554.076050 4 
15 1356.044434 1394.016968 4 
16 1181.121826 1394.009644 4 
13 1529.927856 1392.338501 4 
18 1006.528992 1392.711548 4 
12 1701.857910 1389.645264 4 
14 1871.586426 1386.374023 4 
19 663.899719 1386.013184 4 
17 2205.861572 1379.832520 4 
26 1181.320190 1219.465454 4 
24 1355.890381 1219.284912 4 
27 1007.281372 1218.577759 4 
22 1529.137939 1217.991089 4 
28 834.928772 1216.622314 4 
20 1700.352417 1215.912842 4 
21 1869.036011 1213.326904 4 
29 665.765930 1213.851074 4 
23 2035.241455 1210.479858 4 
25 2199.254150 1207.705322 4 
36 1355.193115 1044.775146 4 
37 1181.481567 1045.006714 4 
35 1008.292603 1044.714844 4 
34 1527.441650 1044.123169 4 
38 836.922607 1043.750977 4 
33 1697.751953 1042.851685 4 
39 667.661987 1042.137451 4 
32 1865.402344 1041.195435 4 
31 2030.092041 1039.412109 4 
30 2191.943115 1037.685181 4 
47 1181.561279 872.156982 4 
44 1009.661011 872.519104 4 
46 839.233521 872.299194 4 
48 671.625977 871.966187 4 
40 1860.163940 870.973694 4 
41 1693.989258 871.453674 4 
43 1525.015991 871.799988 4 
49 1353.956543 871.702209 4 
42 2185.591064 869.471191 4 
45 2024.357178 870.096130 4 
50 2174.241699 705.170471 4 
51 2015.076782 704.452393 4 
52 677.130188 704.996887 4 
53 842.844482 703.948730 4 
54 1853.763794 703.411621 4 
55 1688.719360 703.126221 4 
56 1521.400146 702.761414 4 
57 1011.373474 703.220825 4 
59 1352.130249 701.923401 4 
58 1181.553223 702.461670 4 
61 2163.749756 543.816528 4 
62 2005.595947 542.135803 4 
60 683.496887 542.290405 4 
64 1845.457642 540.373230 4 
63 847.052429 539.853088 4 
65 1682.424194 538.938477 4 
66 1013.487976 538.292908 4 
67 1517.073853 537.730286 4 
68 1181.517456 537.329224 4 
69 1349.792114 536.612427 4 
71 2152.087402 386.416992 4 
73 1995.207275 384.007599 4 
70 690.209106 383.835693 4 
75 1836.601440 381.202393 4 
72 851.594604 380.314392 4 
77 1675.490479 379.032593 4 
78 1512.014771 377.584290 4 
74 1015.740601 378.293701 4 
76 1181.330811 377.004486 4 
79 1347.188354 376.620911 4 
81 2140.727295 232.313797 4 
80 697.826477 231.226501 4 
83 1826.892212 227.576996 4 
84 1667.670044 225.247192 4 
82 1018.285583 224.479401 4 
85 1506.499146 223.359802 4 
86 1181.010742 222.201508 4 
87 1344.193604 221.658707 4 
88 705.520813 84.040604 4 
90 2128.726807 83.031601 4 
92 1973.167358 81.036400 4 
89 862.109802 79.531898 4 
94 1816.975586 78.821198 4 
95 1659.571899 76.721100 4 
91 1020.771118 76.288200 4 
97 1500.811157 74.782501 4 
93 1180.782104 74.354103 4 
96 1341.110840 73.945503 4 
