ply
format ascii 1.0
element vertex 96
property char id
property float x
property float y
property char size
end_header
96 1209.814087 1465.669556 4 
93 1423.560059 1464.376221 4 
97 995.484985 1464.785889 4 
95 782.503906 1461.708130 4 
91 1634.500244 1460.981323 4 
89 1841.325928 1456.238281 4 
94 572.960327 1456.330078 4 
88 2044.073853 1450.985352 4 
92 367.697205 1449.984131 4 
90 166.507797 1443.593018 4 
87 1207.739014 1262.854980 4 
85 1000.977417 1262.821411 4 
86 1413.844360 1262.230713 4 
84 795.630005 1260.558472 4 
82 1616.764160 1260.453247 4 
83 593.799377 1256.659302 4 
80 2010.240601 1253.136353 4 
81 203.807205 1246.522705 4 
76 1403.682617 1074.232178 4 
79 1205.364746 1074.276611 4 
74 1599.534546 1073.177490 4 
78 1006.515503 1073.967896 4 
77 808.810181 1072.437744 4 
72 1791.464844 1070.937500 4 
75 614.420593 1069.992432 4 
70 1978.276855 1069.090820 4 
73 424.606110 1067.616089 4 
71 239.704803 1064.518555 4 
60 1946.752686 898.815125 4 
63 1766.675903 899.093384 4 
66 1582.135010 899.358398 4 
68 1393.800171 899.352112 4 
67 1011.894897 898.825073 4 
69 1203.336792 898.233276 4 
65 821.915222 898.445984 4 
64 634.832703 897.142822 4 
62 452.160187 896.183777 4 
61 274.013306 894.956177 4 
52 1916.728638 740.184692 4 
53 1742.964355 739.346497 4 
57 1565.157471 738.495422 4 
50 307.285095 738.026428 4 
51 478.723785 737.428528 4 
58 1384.191040 737.083008 4 
56 1017.279724 737.028076 4 
55 834.727478 737.085083 4 
54 654.622009 736.171387 4 
59 1201.159058 735.421875 4 
48 1887.789673 593.065796 4 
46 1719.871094 591.728088 4 
45 503.896088 589.010620 4 
42 337.782013 590.601074 4 
44 1548.547729 590.007629 4 
40 674.224915 589.233887 4 
41 847.215576 588.172607 4 
47 1374.725830 587.487183 4 
43 1022.554688 587.231018 4 
49 1199.016113 585.481018 4 
30 369.624908 459.263000 4 
39 1859.402710 458.134613 4 
38 1697.054688 457.361115 4 
31 529.398010 455.803009 4 
35 1532.546631 453.889801 4 
32 692.887329 453.373413 4 
33 859.237976 452.242798 4 
37 1365.522583 450.685791 4 
34 1027.524414 451.268097 4 
36 1196.871460 448.784912 4 
29 1831.447754 336.235291 4 
25 398.881989 335.028015 4 
28 1675.787476 332.126892 4 
23 553.274475 331.633301 4 
21 710.786804 329.273010 4 
27 1517.268433 328.694885 4 
20 870.701416 327.078491 4 
26 1356.696899 325.314209 4 
22 1032.245117 325.846405 4 
24 1194.617432 324.349792 4 
19 1805.866943 221.711197 4 
17 426.474609 220.661407 4 
14 727.669922 214.781296 4 
18 1502.867188 213.773102 4 
12 881.483704 212.273102 4 
16 1348.227051 211.444901 4 
13 1036.617676 210.795807 4 
15 1192.657837 209.833694 4 
8 452.771790 115.702202 4 
11 1781.900269 115.307899 4 
10 1636.440063 112.113098 4 
6 597.158997 112.121300 4 
4 743.507324 108.940201 4 
9 1489.356079 107.790001 4 
2 891.621582 106.876297 4 
7 1340.471191 105.540199 4 
3 1040.936646 104.832703 4 
5 1190.846191 104.091103 4 
