ply
format ascii 1.0
element vertex 89
property char id
property float x
property float y
property char size
end_header
97 1283.580933 1652.603760 4 
96 1417.108154 1621.434448 4 
93 1539.762817 1592.002808 4 
81 615.146973 1591.150513 4 
91 1652.004150 1564.054443 4 
89 1755.050049 1538.009155 4 
83 979.357910 1533.913330 4 
88 1849.930054 1513.452881 4 
84 1139.418091 1507.065063 4 
85 1286.365356 1481.302856 4 
87 1422.054199 1457.351318 4 
86 1544.609741 1433.942261 4 
82 1655.913818 1411.624023 4 
71 611.953674 1382.477661 4 
80 1854.002808 1371.876343 4 
73 803.446228 1362.919434 4 
75 980.202576 1343.814697 4 
77 1141.599365 1324.952148 4 
78 1289.147461 1306.711060 4 
79 1424.412231 1289.339355 4 
76 1547.200439 1272.718018 4 
74 1659.899902 1257.179688 4 
72 1763.621582 1242.654907 4 
70 1857.793091 1228.879150 4 
61 610.964417 1170.794922 4 
62 803.317383 1160.255493 4 
64 980.454407 1149.604980 4 
65 1142.329834 1139.181152 4 
67 1290.975586 1128.839722 4 
69 1427.707397 1119.341187 4 
68 1549.620850 1109.659546 4 
66 1662.223755 1100.796753 4 
63 1765.401978 1092.353149 4 
60 1859.719849 1084.520630 4 
51 804.124512 954.986694 4 
50 611.210510 956.430725 4 
54 982.480286 953.454529 4 
55 1143.913452 951.486816 4 
56 1292.469116 949.524109 4 
59 1430.046021 947.525513 4 
58 1552.024414 945.505005 4 
57 1663.856445 943.424011 4 
53 1767.117554 941.595276 4 
52 1861.895508 939.827026 4 
48 1863.171997 794.734680 4 
46 1767.829346 790.495789 4 
44 1664.499390 785.820618 4 
47 1553.277100 780.821899 4 
49 1431.579102 775.342102 4 
43 1294.181396 769.600586 4 
41 1145.331543 763.193176 4 
40 983.138306 756.498718 4 
45 807.640686 749.131409 4 
42 615.330872 741.404297 4 
39 1862.140747 650.233704 4 
38 1765.363647 640.245605 4 
35 1663.475586 628.983215 4 
37 1552.707886 616.981018 4 
36 1430.946045 604.102905 4 
34 1293.503540 590.828430 4 
33 1145.865845 576.493713 4 
32 984.941406 561.163025 4 
31 808.835327 545.166992 4 
30 617.272522 528.851501 4 
29 1857.166016 507.314911 4 
28 1763.669800 491.270508 4 
27 1661.510742 473.847290 4 
26 1551.022705 455.179291 4 
24 1428.607544 435.433594 4 
22 1293.178711 414.817291 4 
20 1146.543945 392.768005 4 
19 1853.949463 366.115509 4 
21 986.362488 369.475006 4 
23 812.464172 345.048096 4 
18 1658.566772 321.321991 4 
25 623.223206 319.802002 4 
16 1547.167847 296.614410 4 
15 1426.158569 270.274292 4 
13 1292.313477 242.739395 4 
11 1850.426514 226.715195 4 
12 1146.964600 213.515106 4 
10 1755.780151 200.304306 4 
14 988.443726 182.760498 4 
9 1655.057739 171.588501 4 
7 1544.024048 141.162704 4 
17 629.916321 116.397797 4 
5 1423.675659 108.765800 4 
3 1291.300659 74.918503 4 
2 1147.101685 39.253300 4 
