ply
format ascii 1.0
element vertex 94
property char id
property float x
property float y
property char size
end_header
10 857.728821 1672.810913 4 
9 1016.370911 1640.603760 4 
7 1162.446045 1609.101929 4 
5 1297.458984 1579.134033 4 
3 1420.786499 1549.923218 4 
2 1535.253784 1522.337158 4 
19 681.778809 1521.275024 4 
4 1640.973755 1496.531738 4 
6 1738.780518 1471.955566 4 
18 1013.370483 1469.077026 4 
8 1829.592896 1448.994141 4 
16 1160.625000 1444.019043 4 
15 1296.869385 1419.984619 4 
13 1421.123291 1396.754761 4 
12 1535.904541 1374.632446 4 
14 1641.835449 1353.799072 4 
29 676.428772 1332.037964 4 
17 1831.200073 1315.658203 4 
28 849.827698 1312.825806 4 
27 1010.555481 1294.073730 4 
26 1159.561035 1275.890747 4 
24 1296.281616 1258.093384 4 
22 1420.527344 1240.808960 4 
20 1535.858643 1224.645752 4 
21 1642.237549 1209.346558 4 
23 1740.643555 1194.966553 4 
25 1831.169312 1181.364380 4 
39 673.448975 1139.958252 4 
38 845.755310 1127.527954 4 
35 1007.698486 1116.054688 4 
37 1157.422974 1104.801025 4 
36 1295.347778 1093.780884 4 
34 1419.321655 1082.932739 4 
33 1535.139038 1072.833984 4 
32 1641.895508 1063.480957 4 
31 1740.436646 1054.379150 4 
30 1830.059814 1045.782104 4 
48 670.021973 944.932617 4 
46 843.785400 940.524414 4 
44 1005.247192 936.303101 4 
47 1155.034302 932.120117 4 
49 1293.563232 927.912903 4 
43 1417.658813 923.911072 4 
41 1533.969360 919.997314 4 
40 1640.348022 916.512024 4 
45 1740.336670 913.296204 4 
42 1831.627197 909.894104 4 
50 1826.358887 773.752197 4 
51 1735.817261 771.873596 4 
54 1638.335815 769.435303 4 
55 1530.969360 767.186096 4 
56 1415.104858 764.713074 4 
59 1290.323364 761.754028 4 
58 1152.057129 758.952576 4 
57 1002.433472 756.086914 4 
53 841.266724 752.969177 4 
52 667.339417 749.697021 4 
61 1823.144043 638.140503 4 
62 1732.052246 630.845520 4 
64 1634.185181 623.619019 4 
65 1527.226562 615.171814 4 
67 1411.700073 606.399109 4 
69 1286.743164 596.799194 4 
68 1149.066895 587.455688 4 
66 1000.410278 577.418030 4 
63 839.713989 567.012878 4 
60 666.335388 556.474182 4 
71 1818.244019 504.086609 4 
73 1727.709229 491.865387 4 
75 1629.823975 478.289612 4 
77 1523.329956 464.351501 4 
78 1407.619751 449.766815 4 
79 1282.883301 434.336700 4 
76 1146.412964 418.186096 4 
74 998.721313 401.256409 4 
72 839.590881 383.663391 4 
81 1814.185425 370.630493 4 
70 667.237671 366.005493 4 
83 1624.456665 335.971100 4 
84 1518.050659 316.703705 4 
85 1402.964355 296.353912 4 
87 1279.423950 274.403198 4 
86 1144.063965 252.197205 4 
90 1808.113159 239.712708 4 
82 996.890930 229.365601 4 
92 1716.926147 218.416000 4 
94 1618.625488 195.716293 4 
80 668.652893 180.398804 4 
95 1512.312500 171.782394 4 
97 1398.013062 146.100403 4 
96 1274.301880 119.238998 4 
93 1140.433716 90.973900 4 
91 995.523926 61.655300 4 
89 839.190125 31.295601 4 
