ply
format ascii 1.0
element vertex 95
property char id
property float x
property float y
property char size
end_header
81 1137.319946 1560.194946 4 
92 1456.282837 1525.097290 4 
71 965.314514 1428.893555 4 
94 1580.060913 1362.975952 4 
61 805.494019 1303.408447 4 
73 1105.818848 1276.071045 4 
83 1403.744141 1245.246948 4 
95 1692.297485 1212.939697 4 
50 658.160522 1185.884888 4 
62 946.838806 1160.474609 4 
75 1236.493774 1132.350830 4 
84 1520.657959 1103.800781 4 
97 1794.224243 1073.573242 4 
42 521.890503 1073.500122 4 
51 799.064087 1051.694092 4 
64 1078.907104 1026.225220 4 
77 1357.020874 999.256592 4 
30 399.220306 974.303711 4 
85 1627.286621 972.646973 4 
45 662.117615 948.145996 4 
96 1886.241943 945.755981 4 
54 931.579407 924.824219 4 
65 1201.696655 901.498779 4 
25 285.530609 879.082886 4 
78 1467.437134 876.012207 4 
31 537.210205 855.721924 4 
87 1724.531738 850.567078 4 
40 795.000427 831.956604 4 
93 1969.721680 828.212402 4 
55 1055.902466 808.616272 4 
17 180.990005 791.433716 4 
67 1315.120239 785.064392 4 
23 421.935394 768.357117 4 
79 1568.442749 761.919800 4 
32 668.440430 744.708130 4 
86 1812.551025 740.060913 4 
41 919.380493 721.539673 4 
91 2045.523682 720.439087 4 
8 84.689102 710.973328 4 
56 1171.316406 699.386597 4 
69 1419.811157 676.444885 4 
21 551.924927 664.537720 4 
76 1660.703003 657.755127 4 
33 792.754028 641.458679 4 
82 1892.328735 639.379700 4 
89 2114.792725 621.508423 4 
43 1036.020630 618.269470 4 
6 217.967407 612.937317 4 
59 1278.417603 596.078308 4 
14 444.186493 589.963501 4 
68 1515.396851 579.232178 4 
20 675.039795 566.620605 4 
74 1745.076294 561.509094 4 
34 909.482483 544.523193 4 
88 2178.483154 530.228516 4 
49 1144.709106 520.773071 4 
4 344.467407 520.372009 4 
58 1377.144043 504.424988 4 
12 566.038513 497.424896 4 
66 1603.603516 488.467010 4 
22 791.457092 475.164093 4 
72 1822.767944 472.458191 4 
80 2033.239624 459.347504 4 
36 1018.862488 451.783813 4 
47 1245.600952 434.327698 4 
2 465.008514 433.370911 4 
57 1468.242676 419.342285 4 
13 681.597717 410.854706 4 
63 1684.764648 404.785797 4 
70 1893.843750 391.317993 4 
24 901.017517 388.555298 4 
37 1121.238647 369.653290 4 
44 1339.284668 354.375885 4 
3 579.287476 350.976288 4 
53 1552.691650 339.965698 4 
15 790.932617 329.304108 4 
60 1759.421143 327.751007 4 
26 1004.143494 309.531708 4 
35 1216.822388 294.066986 4 
46 1426.338501 278.857208 4 
5 687.903625 273.767700 4 
52 1630.697754 266.448914 4 
16 894.152893 254.945007 4 
27 1100.791138 237.719498 4 
38 1305.750610 223.648804 4 
48 1507.152344 208.326294 4 
7 790.949524 202.838699 4 
18 991.580627 185.285004 4 
28 1191.338257 170.195007 4 
39 1388.751343 154.906799 4 
9 888.514771 136.327698 4 
29 1275.881958 107.707001 4 
10 980.422485 75.552200 4 
19 1168.831909 61.147800 4 
11 1066.969360 17.141399 4 
