ply
format ascii 1.0
element vertex 96
property char id
property float x
property float y
property char size
end_header
88 927.486572 1529.943848 4 
80 1084.295776 1413.354248 4 
89 812.192810 1390.155518 4 
70 1233.102905 1301.404175 4 
91 706.562073 1259.574951 4 
60 1373.032715 1195.045044 4 
72 1112.553955 1177.048950 4 
82 856.816711 1158.723389 4 
93 609.878479 1138.372559 4 
52 1504.066772 1093.425171 4 
63 1251.276489 1078.499878 4 
74 1000.715881 1061.635742 4 
86 756.278992 1043.390259 4 
96 521.821411 1025.749023 4 
48 1626.350952 997.252625 4 
53 1381.727905 984.264221 4 
66 1137.489258 969.361328 4 
76 897.069580 953.364624 4 
87 664.328308 937.027100 4 
97 441.450409 922.176514 4 
39 1739.716919 907.777405 4 
46 1503.848999 895.150208 4 
57 1266.874634 881.695923 4 
68 1031.605957 867.323120 4 
79 801.690613 852.684570 4 
85 579.955627 839.400330 4 
29 1843.892578 826.597473 4 
95 367.840515 825.937073 4 
38 1617.340454 813.074890 4 
44 1388.397949 798.553406 4 
58 1159.487549 785.155029 4 
69 933.625427 771.888306 4 
78 714.296082 760.637878 4 
19 1941.428467 748.614502 4 
84 502.493408 748.212524 4 
94 300.274414 736.717590 4 
28 1723.351196 734.657410 4 
35 1502.380371 721.068298 4 
47 1280.397461 707.203979 4 
59 1059.316528 694.734009 4 
67 842.835693 684.914612 4 
11 2032.441040 675.338501 4 
77 633.422119 674.406982 4 
83 431.415588 664.049927 4 
92 238.180893 654.428406 4 
27 1608.941650 648.252014 4 
37 1394.047363 634.525208 4 
49 1178.799316 621.727478 4 
56 966.143311 613.269714 4 
65 759.041687 603.793396 4 
10 1913.938843 594.557495 4 
75 559.153320 594.713318 4 
18 1708.385254 580.266479 4 
90 179.728806 577.641785 4 
26 1500.669556 566.469421 4 
36 1291.781128 554.003479 4 
43 1084.165649 545.376282 4 
55 879.701416 536.447327 4 
64 681.421021 527.978088 4 
73 489.854187 520.937988 4 
9 1801.498657 516.572815 4 
81 305.019897 513.195374 4 
16 1600.344360 503.905212 4 
24 1397.975342 491.076599 4 
34 1195.525513 482.065308 4 
41 995.336487 472.448914 4 
54 799.635925 464.228394 4 
62 610.038574 458.330597 4 
71 426.343201 452.796906 4 
7 1694.118652 444.288300 4 
15 1498.035156 431.966003 4 
22 1301.146973 422.075287 4 
33 1105.611572 412.940186 4 
40 913.122009 404.972198 4 
51 725.136902 398.683990 4 
61 543.322388 393.113007 4 
5 1592.237305 376.060394 4 
13 1401.050293 365.908295 4 
20 1210.453247 356.680786 4 
32 1021.799072 348.464508 4 
45 836.097595 340.217896 4 
50 656.110901 337.114807 4 
3 1495.587646 313.280487 4 
12 1309.627319 303.797211 4 
21 1125.074219 295.608704 4 
31 942.903992 288.318909 4 
42 764.254272 281.212585 4 
2 1403.703369 254.344299 4 
14 1223.548218 245.771393 4 
23 1045.028809 238.233002 4 
30 869.476318 233.400406 4 
4 1317.490845 198.519104 4 
25 970.234680 185.070602 4 
6 1235.657837 146.553894 4 
17 1066.174072 139.688797 4 
8 1158.208008 97.628197 4 
