ply
format ascii 1.0
element vertex 96
property char id
property float x
property float y
property char size
end_header
71 1706.939087 1404.281494 4 
61 1482.449829 1403.642944 4 
90 2149.991943 1402.034302 4 
81 1929.713745 1402.470947 4 
50 1256.632080 1401.294922 4 
42 1031.733643 1394.680298 4 
30 811.676819 1389.952148 4 
25 596.938904 1380.901855 4 
17 389.577209 1371.196045 4 
8 189.758606 1361.990356 4 
73 1689.530762 1201.050415 4 
92 2109.571533 1199.838623 4 
62 1475.377930 1200.244873 4 
51 1259.811035 1198.220947 4 
45 1045.011719 1193.037720 4 
31 834.171814 1190.050659 4 
23 628.688293 1184.287354 4 
6 239.512695 1171.379395 4 
94 2072.210938 1015.872803 4 
83 1873.902832 1015.498718 4 
75 1672.585938 1014.424011 4 
64 1468.057983 1013.850403 4 
54 1262.492920 1011.159912 4 
40 1057.582642 1009.703918 4 
32 855.791992 1006.781799 4 
21 659.314880 1004.005188 4 
14 469.290802 1000.571594 4 
4 286.034088 996.510986 4 
95 2036.927734 848.571899 4 
84 1847.863525 846.893311 4 
77 1655.717407 844.781799 4 
65 1460.612061 844.076782 4 
55 1264.614014 842.401306 4 
41 1069.068359 840.687012 4 
33 876.482300 839.691772 4 
20 688.208374 838.395691 4 
12 505.907990 837.237976 4 
2 330.056885 836.292603 4 
97 2003.789307 695.130615 4 
85 1822.887329 692.812927 4 
78 1639.176514 690.413818 4 
3 371.177704 688.645325 4 
67 1453.099365 688.950195 4 
13 540.605713 687.870728 4 
56 1266.179443 687.733582 4 
22 715.456421 687.130981 4 
34 895.619080 686.880310 4 
43 1079.684448 686.151489 4 
96 1972.425903 555.619202 4 
5 410.178589 553.339172 4 
87 1799.582153 551.310608 4 
15 573.080688 550.614990 4 
79 1623.507812 549.603882 4 
24 740.843872 547.871704 4 
69 1445.967041 546.878723 4 
36 913.171326 545.138428 4 
59 1267.458252 545.015686 4 
49 1089.251343 543.990173 4 
7 447.240692 430.634094 4 
93 1942.823975 428.170685 4 
16 604.075073 426.896393 4 
86 1776.862549 424.106689 4 
76 1608.357422 422.366302 4 
26 764.968018 422.323303 4 
68 1438.609619 420.763306 4 
37 930.187073 419.955597 4 
58 1268.357666 419.058685 4 
47 1098.412598 418.599091 4 
9 482.022705 317.718414 4 
18 633.065918 313.285187 4 
91 1914.932617 312.006805 4 
27 787.730713 309.441803 4 
82 1755.263428 309.110199 4 
35 945.971375 306.510712 4 
74 1594.235352 306.174286 4 
66 1431.761841 304.808685 4 
57 1269.037720 304.156006 4 
44 1106.669189 304.489197 4 
10 514.850830 215.485504 4 
89 1888.925049 205.893005 4 
28 808.836914 205.428604 4 
38 960.533020 202.568893 4 
72 1581.140381 199.681503 4 
63 1425.416016 199.059998 4 
53 1269.681274 198.446106 4 
46 1114.328613 198.923492 4 
11 544.839172 119.835297 4 
19 685.289001 115.030197 4 
29 828.246826 110.454102 4 
88 1864.623047 108.581902 4 
80 1716.955444 105.820999 4 
39 973.585327 104.133102 4 
70 1568.549194 103.315697 4 
60 1419.308350 102.693100 4 
52 1270.135010 101.782898 4 
48 1121.301758 101.750099 4 
