ply
format ascii 1.0
element vertex 91
property double x
property double y
property char size
property short id
end_header
2.49799365234375e+03 4.41287002563477e+01 4 85 
3.21473461914062e+03 1.48622604370117e+02 4 104 
2.31424853515625e+03 2.48759796142578e+02 4 74 
2.70923461914062e+03 2.93616088867188e+02 4 86 
3.06713623046875e+03 3.35424896240234e+02 4 96 
3.39195996093750e+03 3.74373687744141e+02 4 106 
2.11993383789062e+03 4.66024993896484e+02 4 59 
2.53573730468750e+03 5.00739196777344e+02 4 75 
2.91129370117188e+03 5.32520812988281e+02 4 87 
3.25214233398438e+03 5.62748596191406e+02 4 97 
3.56121484375000e+03 5.91011718750000e+02 4 107 
1.91406750488281e+03 6.96665222167969e+02 4 52 
2.35228051757812e+03 7.19605102539062e+02 4 60 
2.74717114257812e+03 7.41169494628906e+02 4 77 
3.10462451171875e+03 7.61649108886719e+02 4 88 
3.42872656250000e+03 7.80704223632812e+02 4 98 
3.72273217773438e+03 7.99119628906250e+02 4 137 
1.69638122558594e+03 9.42122009277344e+02 4 39 
2.15820532226562e+03 9.51985290527344e+02 4 51 
2.57406396484375e+03 9.61497497558594e+02 4 61 
2.94892749023438e+03 9.71308898925781e+02 4 78 
3.28902148437500e+03 9.80755920410156e+02 4 89 
3.59688305664062e+03 9.89861389160156e+02 4 99 
3.87666894531250e+03 9.98500183105469e+02 4 144 
2.39117236328125e+03 1.19484655761719e+03 4 50 
2.78552929687500e+03 1.19263195800781e+03 4 62 
3.14184716796875e+03 1.19130444335938e+03 4 79 
3.46436254882812e+03 1.19048327636719e+03 4 90 
1.95329028320312e+03 1.19840075683594e+03 4 37 
3.75691284179688e+03 1.18992932128906e+03 4 100 
4.02356909179688e+03 1.19002661132812e+03 4 151 
1.46640844726562e+03 1.20262304687500e+03 4 159 
4.16369921875000e+03 1.37321154785156e+03 4 158 
3.90941308593750e+03 1.38165380859375e+03 4 102 
3.63115136718750e+03 1.39080993652344e+03 4 91 
3.32503442382812e+03 1.40128186035156e+03 4 80 
2.98700048828125e+03 1.41310229492188e+03 4 63 
2.61299511718750e+03 1.42650122070312e+03 4 49 
2.19814160156250e+03 1.44186584472656e+03 4 35 
1.73674084472656e+03 1.45934301757812e+03 4 25 
1.22394665527344e+03 1.47919299316406e+03 4 17 
4.29750585937500e+03 1.54867602539062e+03 4 330 
3.78990502929688e+03 1.58262634277344e+03 4 92 
3.49902197265625e+03 1.60158374023438e+03 4 81 
3.17845458984375e+03 1.62300061035156e+03 4 64 
2.82382104492188e+03 1.64671740722656e+03 4 48 
2.43073510742188e+03 1.67337597656250e+03 4 33 
1.99422351074219e+03 1.70277148437500e+03 4 24 
4.19523046875000e+03 1.73997998046875e+03 4 105 
9.68738769531250e+02 1.77221215820312e+03 4 801 
3.94226440429688e+03 1.76511462402344e+03 4 93 
3.66528662109375e+03 1.79276672363281e+03 4 82 
3.36112841796875e+03 1.82264819335938e+03 4 65 
3.02480224609375e+03 1.85597424316406e+03 4 47 
2.65272900390625e+03 1.89277429199219e+03 4 32 
2.23932250976562e+03 1.93353161621094e+03 4 23 
4.08828710937500e+03 1.93959655761719e+03 4 95 
1.78052685546875e+03 1.97836364746094e+03 4 15 
3.82425122070312e+03 1.97472302246094e+03 4 83 
3.53492724609375e+03 2.01291064453125e+03 4 66 
1.27029125976562e+03 2.02771093750000e+03 4 8 
3.21632397460938e+03 2.05485693359375e+03 4 46 
2.86388720703125e+03 2.10086303710938e+03 4 31 
2.47272558593750e+03 2.15184277343750e+03 4 189 
3.97611621093750e+03 2.14808618164062e+03 4 84 
3.70053808593750e+03 2.19378613281250e+03 4 67 
2.03876660156250e+03 2.20772680664062e+03 4 14 
3.39811767578125e+03 2.24383471679688e+03 4 45 
1.55655395507812e+03 2.26914208984375e+03 4 6 
3.06389282226562e+03 2.29828613281250e+03 4 30 
2.69441845703125e+03 2.35855786132812e+03 4 21 
3.85835864257812e+03 2.36586010742188e+03 4 68 
2.28369311523438e+03 2.42464746093750e+03 4 13 
3.57065698242188e+03 2.42306127929688e+03 4 44 
3.25406518554688e+03 2.48547460937500e+03 4 29 
1.82810839843750e+03 2.49652734375000e+03 4 198 
2.90407202148438e+03 2.55376245117188e+03 4 20 
3.73471166992188e+03 2.59342797851562e+03 4 43 
2.51616528320312e+03 2.62878027343750e+03 4 12 
3.43409448242188e+03 2.66257421875000e+03 4 28 
2.08541455078125e+03 2.71077099609375e+03 4 3 
3.10256762695312e+03 2.73843237304688e+03 4 19 
2.73583691406250e+03 2.82125415039062e+03 4 11 
3.60503222656250e+03 2.83061035156250e+03 4 27 
2.32897241210938e+03 2.91207275390625e+03 4 2 
3.29064404296875e+03 2.91300927734375e+03 4 18 
2.94351391601562e+03 3.00301098632812e+03 4 9 
3.46871362304688e+03 3.07829272460938e+03 4 16 
2.55891772460938e+03 3.10136328125000e+03 4 221 
2.77644384765625e+03 3.27910961914062e+03 4 227 
3.32571752929688e+03 3.33665625000000e+03 4 4 
