ply
format ascii 1.0
element vertex 96
property double x
property double y
property char size
property char id
end_header
2.82474975585938e+03 3.30413232421875e+03 4 5 
2.29723291015625e+03 3.30245239257812e+03 4 6 
4.77934228515625e+03 2.79488623046875e+03 4 7 
1.24718688964844e+03 3.28892944335938e+03 4 8 
7.29501708984375e+02 3.27943676757812e+03 4 9 
3.80787939453125e+03 2.80107861328125e+03 4 10 
3.31315551757812e+03 2.80298583984375e+03 4 11 
2.81384008789062e+03 2.80341870117188e+03 4 12 
2.31315722656250e+03 2.80142333984375e+03 4 13 
1.81309570312500e+03 2.79680419921875e+03 4 14 
1.31710925292969e+03 2.79011157226562e+03 4 15 
4.67405468750000e+03 2.34710742187500e+03 4 16 
3.38259887695312e+02 2.77294653320312e+03 4 17 
4.21517236328125e+03 2.34870239257812e+03 4 18 
3.75012304687500e+03 2.34971093750000e+03 4 19 
3.27904052734375e+03 2.34950781250000e+03 4 20 
2.80425390625000e+03 2.34867529296875e+03 4 21 
1.85252172851562e+03 2.34359228515625e+03 4 22 
1.38076684570312e+03 2.33809082031250e+03 4 23 
9.13395324707031e+02 2.33096728515625e+03 4 24 
4.57718408203125e+03 1.94092138671875e+03 4 25 
4.13984130859375e+03 1.94053747558594e+03 4 26 
3.69643945312500e+03 1.93961193847656e+03 4 27 
3.24735986328125e+03 1.93839550781250e+03 4 28 
2.79508691406250e+03 1.93654431152344e+03 4 29 
2.34185961914062e+03 1.93417602539062e+03 4 30 
1.88895642089844e+03 1.93111938476562e+03 4 31 
1.43909179687500e+03 1.92611022949219e+03 4 32 
9.93577880859375e+02 1.92103332519531e+03 4 33 
5.51839782714844e+02 1.91507470703125e+03 4 34 
4.48779443359375e+03 1.57144555664062e+03 4 35 
4.06964331054688e+03 1.56955957031250e+03 4 36 
3.64598999023438e+03 1.56701745605469e+03 4 37 
3.21777539062500e+03 1.56445654296875e+03 4 38 
2.78677099609375e+03 1.56230664062500e+03 4 39 
2.35461450195312e+03 1.55915905761719e+03 4 40 
1.92285034179688e+03 1.55542163085938e+03 4 41 
1.49328405761719e+03 1.55161328125000e+03 4 42 
1.06794299316406e+03 1.54798510742188e+03 4 43 
6.45996215820312e+02 1.54375488281250e+03 4 44 
7.33025878906250e+02 1.20523461914062e+03 4 45 
1.13696777343750e+03 1.20816857910156e+03 4 46 
1.54379260253906e+03 1.21066796875000e+03 4 47 
1.95424621582031e+03 1.21355175781250e+03 4 48 
2.36627612304688e+03 1.21674340820312e+03 4 49 
2.77881689453125e+03 1.22066174316406e+03 4 50 
3.19018774414062e+03 1.22403625488281e+03 4 51 
3.59930688476562e+03 1.22799365234375e+03 4 52 
4.00398608398438e+03 1.23146789550781e+03 4 53 
4.40448144531250e+03 1.23448706054688e+03 4 54 
8.14065002441406e+02 8.95844604492188e+02 4 55 
1.20075793457031e+03 8.98071289062500e+02 4 56 
1.59072277832031e+03 8.99805114746094e+02 4 57 
1.98294982910156e+03 9.02373474121094e+02 4 58 
2.37709692382812e+03 9.04687316894531e+02 4 59 
2.77146118164062e+03 9.08525878906250e+02 4 60 
3.16443017578125e+03 9.13505310058594e+02 4 61 
3.55576000976562e+03 9.18494201660156e+02 4 62 
3.94343286132812e+03 9.22801391601562e+02 4 63 
4.32704443359375e+03 9.26600097656250e+02 4 64 
8.88721130371094e+02 6.12857421875000e+02 4 65 
1.26022131347656e+03 6.14070617675781e+02 4 66 
1.63371142578125e+03 6.15223510742188e+02 4 67 
2.00940771484375e+03 6.16711303710938e+02 4 68 
2.38690869140625e+03 6.19065795898438e+02 4 69 
2.76442773437500e+03 6.22938110351562e+02 4 70 
3.14094335937500e+03 6.28238403320312e+02 4 71 
3.51535351562500e+03 6.34603881835938e+02 4 72 
3.88703710937500e+03 6.40029907226562e+02 4 73 
9.57752075195312e+02 3.53048095703125e+02 4 74 
4.25543212890625e+03 6.44627502441406e+02 4 75 
1.67361633300781e+03 3.53852600097656e+02 4 76 
2.03429138183594e+03 3.55016693115234e+02 4 77 
2.39617260742188e+03 3.57292785644531e+02 4 78 
2.75816088867188e+03 3.61218994140625e+02 4 79 
3.11890307617188e+03 3.66419189453125e+02 4 80 
3.47826904296875e+03 3.73021606445312e+02 4 81 
1.36562390136719e+03 1.13573303222656e+02 4 82 
1.71059069824219e+03 1.13657897949219e+02 4 83 
4.18840820312500e+03 3.85497497558594e+02 4 84 
2.05720996093750e+03 1.14777496337891e+02 4 85 
2.40461523437500e+03 1.17078399658203e+02 4 86 
2.75228540039062e+03 1.20867599487305e+02 4 87 
3.09834960937500e+03 1.25661102294922e+02 4 88 
3.44362231445312e+03 1.31929794311523e+02 4 89 
3.78672119140625e+03 1.39070098876953e+02 4 90 
4.49321899414062e+02 2.32320434570312e+03 4 91 
2.32780004882812e+03 2.34685351562500e+03 4 92 
1.77044372558594e+03 3.29679614257812e+03 4 93 
3.34988159179688e+03 3.30328808593750e+03 4 94 
3.87045971679688e+03 3.29957812500000e+03 4 95 
4.38572949218750e+03 3.29470703125000e+03 4 96 
4.12681152343750e+03 1.46631896972656e+02 4 97 
4.89501708984375e+03 3.28977441406250e+03 4 98 
1.02243090820312e+03 1.13815902709961e+02 4 99 
2.15911499023438e+02 3.26953369140625e+03 4 100 
