ply
format ascii 1.0
element vertex 92
property double x
property double y
property char size
property char id
end_header
1.91752624511719e+03 7.83281677246094e+02 4 5 
2.11542065429688e+03 5.66114013671875e+02 4 6 
1.27409680175781e+03 2.06934814453125e+03 4 7 
2.47672998046875e+03 1.72853607177734e+02 4 8 
1.73379895019531e+03 1.51936193847656e+03 4 10 
1.94396972656250e+03 1.26920532226562e+03 4 11 
2.14144580078125e+03 1.03506396484375e+03 4 12 
2.32723754882812e+03 8.15595214843750e+02 4 13 
2.50225122070312e+03 6.09897827148438e+02 4 14 
2.66719775390625e+03 4.16889892578125e+02 4 15 
1.54098413085938e+03 2.31059545898438e+03 4 16 
2.97038671875000e+03 6.44359970092773e+01 4 17 
1.76219421386719e+03 2.02786535644531e+03 4 18 
1.97134277343750e+03 1.76131982421875e+03 4 19 
2.16878808593750e+03 1.51066174316406e+03 4 20 
2.35435302734375e+03 1.27509509277344e+03 4 21 
2.69372509765625e+03 8.45923706054688e+02 4 22 
2.84965673828125e+03 6.50175720214844e+02 4 23 
2.99719458007812e+03 4.66136810302734e+02 4 24 
1.79340625000000e+03 2.53741699218750e+03 4 25 
2.00054138183594e+03 2.25591870117188e+03 4 26 
2.19677294921875e+03 1.99009863281250e+03 4 27 
2.38179370117188e+03 1.73949121093750e+03 4 28 
2.55660205078125e+03 1.50316186523438e+03 4 29 
2.72131591796875e+03 1.28075305175781e+03 4 30 
2.87703637695312e+03 1.07104333496094e+03 4 31 
3.02503369140625e+03 8.73348510742188e+02 4 32 
3.16442407226562e+03 6.87047424316406e+02 4 33 
3.29690991210938e+03 5.10515991210938e+02 4 34 
2.03200732421875e+03 2.74975561523438e+03 4 35 
2.22605004882812e+03 2.47050488281250e+03 4 36 
2.41022021484375e+03 2.20603271484375e+03 4 37 
2.58444848632812e+03 1.95586877441406e+03 4 38 
2.74861840820312e+03 1.71971203613281e+03 4 39 
2.90448144531250e+03 1.49661132812500e+03 4 40 
3.05225634765625e+03 1.28578735351562e+03 4 41 
3.19198388671875e+03 1.08663061523438e+03 4 42 
3.32403735351562e+03 8.98821289062500e+02 4 43 
3.44938720703125e+03 7.20182678222656e+02 4 44 
3.59515454101562e+03 9.21460205078125e+02 4 45 
3.47609643554688e+03 1.10115356445312e+03 4 46 
3.35117260742188e+03 1.29047814941406e+03 4 47 
3.21904125976562e+03 1.49064331054688e+03 4 48 
3.07945214843750e+03 1.70192822265625e+03 4 49 
2.93191137695312e+03 1.92500402832031e+03 4 50 
2.77662866210938e+03 2.16081860351562e+03 4 51 
2.61237084960938e+03 2.40968432617188e+03 4 52 
2.43926416015625e+03 2.67246435546875e+03 4 53 
2.25731420898438e+03 2.94936230468750e+03 4 54 
3.73424731445312e+03 1.11410595703125e+03 4 55 
3.62126098632812e+03 1.29490515136719e+03 4 56 
3.50275610351562e+03 1.48504772949219e+03 4 57 
3.37757299804688e+03 1.68566210937500e+03 4 58 
3.24596752929688e+03 1.89695300292969e+03 4 59 
3.10657275390625e+03 2.11988281250000e+03 4 60 
2.95908520507812e+03 2.35429443359375e+03 4 61 
2.80390258789062e+03 2.60187451171875e+03 4 62 
2.64097094726562e+03 2.86231738281250e+03 4 63 
2.47002294921875e+03 3.13642065429688e+03 4 64 
3.86699853515625e+03 1.29871997070312e+03 4 65 
3.75981347656250e+03 1.48040075683594e+03 4 66 
3.64748901367188e+03 1.67086535644531e+03 4 67 
3.52929150390625e+03 1.87147277832031e+03 4 68 
3.40457080078125e+03 2.08264526367188e+03 4 69 
3.27270361328125e+03 2.30454980468750e+03 4 70 
3.13320263671875e+03 2.53778442382812e+03 4 71 
2.98592993164062e+03 2.78321972656250e+03 4 72 
2.83199755859375e+03 3.04139868164062e+03 4 73 
3.99369531250000e+03 1.47566833496094e+03 4 74 
2.67096191406250e+03 3.31232348632812e+03 4 75 
3.78567822265625e+03 1.84833349609375e+03 4 76 
3.67356860351562e+03 2.04869091796875e+03 4 77 
3.55529907226562e+03 2.25923510742188e+03 4 78 
3.43036108398438e+03 2.47981201171875e+03 4 79 
3.29851611328125e+03 2.71158789062500e+03 4 80 
3.15930224609375e+03 2.95486010742188e+03 4 81 
4.01825854492188e+03 1.82695605468750e+03 4 82 
3.91723071289062e+03 2.01770178222656e+03 4 83 
3.81072827148438e+03 2.21747070312500e+03 4 85 
3.69847143554688e+03 2.42697485351562e+03 4 86 
3.58006494140625e+03 2.64646826171875e+03 4 87 
3.45555053710938e+03 2.87620849609375e+03 4 88 
3.32401684570312e+03 3.11712622070312e+03 4 89 
3.18559887695312e+03 3.36979394531250e+03 4 90 
3.13731005859375e+03 2.92115814208984e+02 4 91 
2.52900292968750e+03 1.05378100585938e+03 4 92 
2.30168310546875e+03 3.62866912841797e+02 4 93 
1.70719787597656e+03 1.01545947265625e+03 4 94 
1.48329431152344e+03 1.26395837402344e+03 4 95 
1.24508813476562e+03 1.52969995117188e+03 4 96 
9.91981018066406e+02 1.81317504882812e+03 4 98 
4.11450244140625e+03 1.64508264160156e+03 4 99 
