ply
format ascii 1.0
element vertex 90
property double x
property double y
property char size
property char id
end_header
3.52138818359375e+03 7.20943298339844e+02 4 5 
3.66794897460938e+03 9.32991882324219e+02 4 6 
3.94096313476562e+03 1.33085009765625e+03 4 8 
4.06758813476562e+03 1.51690100097656e+03 4 9 
3.05798168945312e+03 4.43480010986328e+02 4 10 
3.22744091796875e+03 6.77297485351562e+02 4 11 
3.38834399414062e+03 9.00884704589844e+02 4 12 
3.54146997070312e+03 1.11461437988281e+03 4 13 
3.68734912109375e+03 1.31904406738281e+03 4 14 
3.82630297851562e+03 1.51418249511719e+03 4 15 
2.51865454101562e+03 1.24356903076172e+02 4 16 
4.08603149414062e+03 1.87844384765625e+03 4 17 
2.71402124023438e+03 3.82382293701172e+02 4 18 
2.90064453125000e+03 6.29614196777344e+02 4 19 
3.07841040039062e+03 8.65766906738281e+02 4 20 
3.24746777343750e+03 1.09118505859375e+03 4 21 
3.56043530273438e+03 1.51145605468750e+03 4 22 
3.70613647460938e+03 1.70692639160156e+03 4 23 
3.84517846679688e+03 1.89316394042969e+03 4 24 
2.33178369140625e+03 3.15763610839844e+02 4 25 
2.53748754882812e+03 5.77190795898438e+02 4 26 
2.73376635742188e+03 8.27004699707031e+02 4 27 
2.92048681640625e+03 1.06540246582031e+03 4 28 
3.09814575195312e+03 1.29219116210938e+03 4 29 
3.26681152343750e+03 1.50836584472656e+03 4 30 
3.42729931640625e+03 1.71394750976562e+03 4 31 
3.58074243164062e+03 1.90955273437500e+03 4 32 
3.72615673828125e+03 2.09571850585938e+03 4 33 
3.86527856445312e+03 2.27290136718750e+03 4 34 
2.13322900390625e+03 5.20179199218750e+02 4 35 
2.35007788085938e+03 7.84718811035156e+02 4 36 
2.55707080078125e+03 1.03704833984375e+03 4 37 
2.75373217773438e+03 1.27701416015625e+03 4 38 
2.94040454101562e+03 1.50524011230469e+03 4 39 
3.11818579101562e+03 1.72179504394531e+03 4 40 
3.28752783203125e+03 1.92740722656250e+03 4 41 
3.44821728515625e+03 2.12288354492188e+03 4 42 
3.60053588867188e+03 2.30818872070312e+03 4 43 
3.74595458984375e+03 2.48453588867188e+03 4 44 
3.62027612304688e+03 2.70628417968750e+03 4 45 
3.46807861328125e+03 2.53136938476562e+03 4 46 
3.30832177734375e+03 2.34730688476562e+03 4 47 
3.13977221679688e+03 2.15263891601562e+03 4 48 
2.96201928710938e+03 1.94722973632812e+03 4 49 
2.77434741210938e+03 1.73050476074219e+03 4 50 
2.57747802734375e+03 1.50181542968750e+03 4 51 
2.36956127929688e+03 1.26022375488281e+03 4 52 
2.15116210937500e+03 1.00597570800781e+03 4 53 
1.92233203125000e+03 7.38780395507812e+02 4 54 
3.48817456054688e+03 2.93859838867188e+03 4 55 
3.32861572265625e+03 2.76537597656250e+03 4 56 
3.16092578125000e+03 2.58291748046875e+03 4 57 
2.98376318359375e+03 2.38973950195312e+03 4 58 
2.79708422851562e+03 2.18521826171875e+03 4 59 
2.59970654296875e+03 1.96866711425781e+03 4 60 
2.39114697265625e+03 1.73986975097656e+03 4 61 
2.17139550781250e+03 1.49775219726562e+03 4 62 
1.94058496093750e+03 1.24202905273438e+03 4 63 
1.69841015625000e+03 9.72359924316406e+02 4 64 
3.34884106445312e+03 3.18183862304688e+03 4 65 
3.18162011718750e+03 3.01118920898438e+03 4 66 
3.00557421875000e+03 2.83086669921875e+03 4 67 
2.81981054687500e+03 2.63965991210938e+03 4 68 
2.62302856445312e+03 2.43660668945312e+03 4 69 
2.41489990234375e+03 2.22092724609375e+03 4 70 
2.19475952148438e+03 1.99241833496094e+03 4 71 
1.96187182617188e+03 1.75012976074219e+03 4 72 
1.71708471679688e+03 1.49363305664062e+03 4 73 
1.46056811523438e+03 1.22238085937500e+03 4 75 
2.84218969726562e+03 3.09139208984375e+03 4 76 
2.64663696289062e+03 2.90233886718750e+03 4 77 
2.43924804687500e+03 2.70159741210938e+03 4 78 
2.21953686523438e+03 2.48778393554688e+03 4 79 
1.98695886230469e+03 2.26022949218750e+03 4 80 
1.74061486816406e+03 2.01842687988281e+03 4 81 
2.67018505859375e+03 3.36476855468750e+03 4 83 
1.20771569824219e+03 1.48961474609375e+03 4 84 
2.46392919921875e+03 3.17889868164062e+03 4 85 
2.24511352539062e+03 2.98089794921875e+03 4 86 
2.01326843261719e+03 2.76910693359375e+03 4 87 
1.76764697265625e+03 2.54403906250000e+03 4 88 
1.50699450683594e+03 2.30325073242188e+03 4 89 
1.23100524902344e+03 2.04700695800781e+03 4 90 
3.97850341796875e+03 2.07098559570312e+03 4 91 
3.40781469726562e+03 1.30623815917969e+03 4 92 
3.80781591796875e+03 1.13635144042969e+03 4 93 
3.36758789062500e+03 4.99726898193359e+02 4 94 
3.20613061523438e+03 2.68753112792969e+02 4 95 
9.40103027343750e+02 1.77468273925781e+03 4 97 
4.18868945312500e+03 1.69464331054688e+03 4 100 
