ply
format ascii 1.0
element vertex 96
property double x
property double y
property char size
property char id
end_header
1.89639428710938e+03 3.34927758789062e+03 4 5 
1.53745971679688e+03 3.34125610351562e+03 4 6 
3.37422509765625e+03 3.00188232421875e+03 4 7 
8.36124694824219e+02 3.32271264648438e+03 4 8 
4.94033111572266e+02 3.31319506835938e+03 4 9 
2.62639355468750e+03 2.99793212890625e+03 4 10 
2.25704418945312e+03 2.99394409179688e+03 4 11 
1.89252575683594e+03 2.98896557617188e+03 4 12 
1.53311938476562e+03 2.98284082031250e+03 4 13 
1.17978601074219e+03 2.97577441406250e+03 4 14 
8.32239196777344e+02 2.96846704101562e+03 4 15 
3.37394897460938e+03 2.63227807617188e+03 4 16 
1.52375503540039e+02 2.95481079101562e+03 4 17 
2.99850390625000e+03 2.63216748046875e+03 4 18 
2.62484619140625e+03 2.63097387695312e+03 4 19 
2.25445776367188e+03 2.62884863281250e+03 4 20 
1.88933166503906e+03 2.62590380859375e+03 4 21 
1.17624914550781e+03 2.61753515625000e+03 4 22 
8.28516479492188e+02 2.61297045898438e+03 4 23 
4.86717193603516e+02 2.60843457031250e+03 4 24 
3.37294628906250e+03 2.26091528320312e+03 4 25 
2.99700659179688e+03 2.26191210937500e+03 4 26 
2.62291430664062e+03 2.26211230468750e+03 4 27 
2.25239916992188e+03 2.26190893554688e+03 4 28 
1.88676245117188e+03 2.26147436523438e+03 4 29 
1.52687915039062e+03 2.25996264648438e+03 4 30 
1.17313281250000e+03 2.25845678710938e+03 4 31 
8.25056579589844e+02 2.25671411132812e+03 4 32 
4.83477691650391e+02 2.25489086914062e+03 4 33 
1.46017700195312e+02 2.25336889648438e+03 4 34 
3.37095507812500e+03 1.88874951171875e+03 4 35 
2.99501440429688e+03 1.89069299316406e+03 4 36 
2.62097631835938e+03 1.89267016601562e+03 4 37 
2.25043041992188e+03 1.89432214355469e+03 4 38 
1.88493286132812e+03 1.89584558105469e+03 4 39 
1.52483642578125e+03 1.89725097656250e+03 4 40 
1.17075463867188e+03 1.89854431152344e+03 4 41 
8.22757507324219e+02 1.89968688964844e+03 4 42 
4.81332305908203e+02 1.90073583984375e+03 4 43 
1.44270202636719e+02 1.90201464843750e+03 4 44 
1.43793899536133e+02 1.55085644531250e+03 4 45 
4.80602600097656e+02 1.54679321289062e+03 4 46 
8.21938415527344e+02 1.54276635742188e+03 4 47 
1.16964172363281e+03 1.53880957031250e+03 4 48 
1.52346105957031e+03 1.53465625000000e+03 4 49 
1.88330859375000e+03 1.53086621093750e+03 4 50 
2.24871948242188e+03 1.52711059570312e+03 4 51 
2.61896386718750e+03 1.52356762695312e+03 4 52 
2.99237988281250e+03 1.51997045898438e+03 4 53 
3.36779663085938e+03 1.51651135253906e+03 4 54 
1.44309295654297e+02 1.20054052734375e+03 4 55 
4.81043914794922e+02 1.19400244140625e+03 4 56 
8.22232788085938e+02 1.18706811523438e+03 4 57 
1.16966345214844e+03 1.18030639648438e+03 4 58 
1.52272595214844e+03 1.17322241210938e+03 4 59 
1.88217126464844e+03 1.16701525878906e+03 4 60 
2.24700585937500e+03 1.16125598144531e+03 4 61 
2.61660253906250e+03 1.15594641113281e+03 4 62 
2.98916528320312e+03 1.15079943847656e+03 4 63 
3.36387817382812e+03 1.14630957031250e+03 4 64 
1.45952697753906e+02 8.51606384277344e+02 4 65 
4.82737609863281e+02 8.42440185546875e+02 4 66 
8.23559875488281e+02 8.32877929687500e+02 4 67 
1.17014855957031e+03 8.23176696777344e+02 4 68 
1.52300976562500e+03 8.13783081054688e+02 4 69 
1.88160791015625e+03 8.05235107421875e+02 4 70 
2.24547290039062e+03 7.97580993652344e+02 4 71 
2.61397070312500e+03 7.90635070800781e+02 4 72 
2.98564038085938e+03 7.83960876464844e+02 4 73 
1.48573196411133e+02 5.04239990234375e+02 4 74 
3.35895849609375e+03 7.78166015625000e+02 4 75 
8.25742614746094e+02 4.80696411132812e+02 4 76 
1.17186279296875e+03 4.68683197021484e+02 4 77 
1.52385461425781e+03 4.56889099121094e+02 4 78 
1.88165209960938e+03 4.46236297607422e+02 4 79 
2.24413793945312e+03 4.36611114501953e+02 4 80 
2.61135229492188e+03 4.28106597900391e+02 4 81 
4.87970703125000e+02 1.45494796752930e+02 4 82 
8.28437194824219e+02 1.31359100341797e+02 4 83 
3.35364233398438e+03 4.13747802734375e+02 4 84 
1.17420434570312e+03 1.17487701416016e+02 4 85 
1.52555883789062e+03 1.03794296264648e+02 4 86 
1.88200549316406e+03 9.11109008789062e+01 4 87 
2.24295996093750e+03 7.95353012084961e+01 4 88 
2.60862719726562e+03 6.93290023803711e+01 4 89 
2.97717993164062e+03 6.04206008911133e+01 4 90 
1.48827102661133e+02 2.60437158203125e+03 4 91 
1.52961889648438e+03 2.62212451171875e+03 4 92 
1.18392114257812e+03 3.33217480468750e+03 4 93 
2.26006250000000e+03 3.35617651367188e+03 4 94 
2.62830346679688e+03 3.36160375976562e+03 4 95 
3.00017700195312e+03 3.36596313476562e+03 4 96 
3.34777661132812e+03 5.29891014099121e+01 4 97 
3.37416040039062e+03 3.36893139648438e+03 4 98 
1.51663101196289e+02 1.59146804809570e+02 4 99 
1.56124404907227e+02 3.30433032226562e+03 4 100 
