ply
format ascii 1.0
element vertex 96
property double x
property double y
property char size
property char id
end_header
2.38712524414062e+03 1.82727401733398e+02 4 5 
2.73137109375000e+03 1.85191406250000e+02 4 6 
9.46232116699219e+02 4.11845794677734e+02 4 7 
3.41360522460938e+03 1.93341003417969e+02 4 8 
3.75035937500000e+03 1.99187301635742e+02 4 9 
1.66341357421875e+03 4.08901489257812e+02 4 10 
2.02369726562500e+03 4.08875091552734e+02 4 11 
2.38416699218750e+03 4.10115600585938e+02 4 12 
2.74338818359375e+03 4.12449401855469e+02 4 13 
3.10057055664062e+03 4.16049011230469e+02 4 14 
3.45504760742188e+03 4.20412292480469e+02 4 15 
8.77178405761719e+02 6.60858215332031e+02 4 16 
4.15285351562500e+03 4.29038085937500e+02 4 17 
1.25112829589844e+03 6.59501770019531e+02 4 18 
1.62652941894531e+03 6.58693969726562e+02 4 19 
2.00352355957031e+03 6.58311523437500e+02 4 20 
2.38016210937500e+03 6.59158691406250e+02 4 21 
3.12980566406250e+03 6.64661193847656e+02 4 22 
3.50025708007812e+03 6.67671020507812e+02 4 23 
3.86645703125000e+03 6.70750305175781e+02 4 24 
8.02568176269531e+02 9.33970703125000e+02 4 25 
1.19324206542969e+03 9.33085327148438e+02 4 26 
1.58655834960938e+03 9.32300109863281e+02 4 27 
1.98167028808594e+03 9.32681701660156e+02 4 28 
2.37653881835938e+03 9.32909729003906e+02 4 29 
2.77011572265625e+03 9.34218383789062e+02 4 30 
3.16184252929688e+03 9.36126525878906e+02 4 31 
3.54986840820312e+03 9.37110595703125e+02 4 32 
3.93284643554688e+03 9.39153503417969e+02 4 33 
4.31152539062500e+03 9.40567382812500e+02 4 34 
7.21111877441406e+02 1.23419177246094e+03 4 35 
1.13098010253906e+03 1.23409594726562e+03 4 36 
1.54302050781250e+03 1.23382629394531e+03 4 37 
1.95766760253906e+03 1.23361364746094e+03 4 38 
2.37222900390625e+03 1.23414331054688e+03 4 39 
2.78561987304688e+03 1.23405334472656e+03 4 40 
3.19651855468750e+03 1.23379614257812e+03 4 41 
3.60366748046875e+03 1.23388708496094e+03 4 42 
4.00473022460938e+03 1.23440161132812e+03 4 43 
4.40102783203125e+03 1.23417211914062e+03 4 44 
4.49809521484375e+03 1.55746374511719e+03 4 45 
4.08316503906250e+03 1.55989453125000e+03 4 46 
3.66223950195312e+03 1.56138049316406e+03 4 47 
3.23500805664062e+03 1.56289965820312e+03 4 48 
2.80290136718750e+03 1.56442382812500e+03 4 49 
2.36798632812500e+03 1.56567761230469e+03 4 50 
1.93183911132812e+03 1.56626147460938e+03 4 51 
1.49644860839844e+03 1.56642700195312e+03 4 52 
1.06334838867188e+03 1.56619885253906e+03 4 53 
6.33149780273438e+02 1.56521325683594e+03 4 54 
4.60461669921875e+03 1.91442358398438e+03 4 55 
4.16848388671875e+03 1.91954858398438e+03 4 56 
3.72634179687500e+03 1.92370593261719e+03 4 57 
3.27680737304688e+03 1.92724328613281e+03 4 58 
2.82176196289062e+03 1.92968066406250e+03 4 59 
2.36345581054688e+03 1.93176647949219e+03 4 60 
1.90410009765625e+03 1.93364245605469e+03 4 61 
1.44576123046875e+03 1.93413293457031e+03 4 62 
9.90006591796875e+02 1.93305065917969e+03 4 63 
5.37498596191406e+02 1.93094165039062e+03 4 64 
4.72110302734375e+03 2.31020605468750e+03 4 65 
4.26216845703125e+03 2.31829174804688e+03 4 66 
3.79639868164062e+03 2.32536010742188e+03 4 67 
3.32278906250000e+03 2.33099853515625e+03 4 68 
2.84255517578125e+03 2.33560595703125e+03 4 69 
2.35889306640625e+03 2.33849291992188e+03 4 70 
1.87425927734375e+03 2.34056762695312e+03 4 71 
1.39070385742188e+03 2.34153906250000e+03 4 72 
9.10051818847656e+02 2.34007812500000e+03 4 73 
4.84918847656250e+03 2.74993457031250e+03 4 74 
4.32301696777344e+02 2.33692553710938e+03 4 75 
3.87302441406250e+03 2.77152587890625e+03 4 76 
3.37275830078125e+03 2.77993701171875e+03 4 77 
2.86560864257812e+03 2.78713793945312e+03 4 78 
2.35407006835938e+03 2.79154199218750e+03 4 79 
1.84180224609375e+03 2.79343286132812e+03 4 80 
1.33019934082031e+03 2.79381713867188e+03 4 81 
4.47830126953125e+03 3.25510351562500e+03 4 82 
3.95758886718750e+03 3.26859033203125e+03 4 83 
3.17306701660156e+02 2.78909350585938e+03 4 84 
3.42804760742188e+03 3.28094409179688e+03 4 85 
2.89077368164062e+03 3.29011840820312e+03 4 86 
2.34891528320312e+03 3.29591699218750e+03 4 87 
1.80662170410156e+03 3.29847778320312e+03 4 88 
1.26392114257812e+03 3.29875390625000e+03 4 89 
7.25021911621094e+02 3.29742700195312e+03 4 90 
4.22913330078125e+03 6.73192871093750e+02 4 91 
2.75630322265625e+03 6.61596374511719e+02 4 92 
3.07379223632812e+03 1.88697097778320e+02 4 93 
2.04290686035156e+03 1.81607803344727e+02 4 94 
1.69760864257812e+03 1.81589996337891e+02 4 95 
1.35293969726562e+03 1.82206298828125e+02 4 96 
1.88178298950195e+02 3.29515087890625e+03 4 97 
1.01020910644531e+03 1.83412704467773e+02 4 98 
4.99176074218750e+03 3.24103759765625e+03 4 99 
4.08331860351562e+03 2.04957000732422e+02 4 100 
