ply
format ascii 1.0
element vertex 96
property double x
property double y
property char size
property short id
end_header
4.00419555664062e+03 2.53584793090820e+02 4 800 
3.67771557617188e+03 2.54869201660156e+02 4 94 
3.34877099609375e+03 2.56812286376953e+02 4 85 
3.01829711914062e+03 2.59684387207031e+02 4 74 
2.68685375976562e+03 2.63651214599609e+02 4 59 
2.35520458984375e+03 2.68565002441406e+02 4 52 
2.02415124511719e+03 2.74510406494141e+02 4 39 
1.69440124511719e+03 2.81327209472656e+02 4 159 
1.36669494628906e+03 2.88915191650391e+02 4 17 
1.04147827148438e+03 2.96351806640625e+02 4 801 
4.07099926757812e+03 4.68460906982422e+02 4 103 
3.38651782226562e+03 4.73390808105469e+02 4 86 
3.04100219726562e+03 4.76842407226562e+02 4 75 
2.69465307617188e+03 4.80882690429688e+02 4 60 
2.34765283203125e+03 4.85917999267578e+02 4 51 
2.00180969238281e+03 4.91788696289062e+02 4 37 
1.65753393554688e+03 4.98882110595703e+02 4 25 
9.75521484375000e+02 5.11635894775391e+02 4 8 
4.14349511718750e+03 7.03359375000000e+02 4 104 
3.78705322265625e+03 7.06325622558594e+02 4 96 
3.42769409179688e+03 7.09862426757812e+02 4 87 
3.06580102539062e+03 7.13550720214844e+02 4 77 
2.70309228515625e+03 7.17754882812500e+02 4 61 
2.33975146484375e+03 7.22958190917969e+02 4 50 
1.97730004882812e+03 7.28826110839844e+02 4 35 
1.61683264160156e+03 7.35741821289062e+02 4 24 
1.25868884277344e+03 7.41615600585938e+02 4 15 
9.03505126953125e+02 7.46832092285156e+02 4 6 
4.22227685546875e+03 9.61572998046875e+02 4 106 
3.84873852539062e+03 9.65103393554688e+02 4 97 
3.47223730468750e+03 9.69512573242188e+02 4 88 
3.09287280273438e+03 9.74401977539062e+02 4 78 
2.71219091796875e+03 9.78828491210938e+02 4 62 
2.33093066406250e+03 9.84021911621094e+02 4 49 
1.95066674804688e+03 9.90145812988281e+02 4 33 
1.57267687988281e+03 9.95671325683594e+02 4 23 
1.19720788574219e+03 1.00053918457031e+03 4 14 
8.25235595703125e+02 1.00541247558594e+03 4 198 
4.30815087890625e+03 1.24630944824219e+03 4 107 
3.91662866210938e+03 1.25091638183594e+03 4 98 
3.52120678710938e+03 1.25614099121094e+03 4 89 
3.12262036132812e+03 1.26149804687500e+03 4 79 
2.72234887695312e+03 1.26687487792969e+03 4 63 
2.32147485351562e+03 1.27241308593750e+03 4 48 
1.92172045898438e+03 1.27710205078125e+03 4 32 
1.52419116210938e+03 1.28161254882812e+03 4 189 
1.13023522949219e+03 1.28590209960938e+03 4 13 
7.40030883789062e+02 1.29062048339844e+03 4 3 
4.40175146484375e+03 1.56130554199219e+03 4 137 
3.99018359375000e+03 1.56747961425781e+03 4 99 
3.57433056640625e+03 1.57380847167969e+03 4 90 
3.15477587890625e+03 1.58015832519531e+03 4 80 
2.73311791992188e+03 1.58611560058594e+03 4 64 
2.31097802734375e+03 1.59104565429688e+03 4 47 
1.88962414550781e+03 1.59473706054688e+03 4 31 
1.47117138671875e+03 1.59834790039062e+03 4 21 
1.05679638671875e+03 1.60184765625000e+03 4 12 
6.47248596191406e+02 1.60586730957031e+03 4 2 
4.50390136718750e+03 1.91022607421875e+03 4 144 
4.07044726562500e+03 1.91904895019531e+03 4 100 
3.63222167968750e+03 1.92706970214844e+03 4 91 
3.18979443359375e+03 1.93449682617188e+03 4 81 
2.74513818359375e+03 1.94033435058594e+03 4 65 
2.29955541992188e+03 1.94466003417969e+03 4 46 
1.85497998046875e+03 1.94827282714844e+03 4 30 
1.41370556640625e+03 1.95043750000000e+03 4 20 
9.76731018066406e+02 1.95277453613281e+03 4 11 
5.45685791015625e+02 1.95529248046875e+03 4 221 
4.61642285156250e+03 2.29966308593750e+03 4 151 
4.15840820312500e+03 2.31098510742188e+03 4 102 
3.69571459960938e+03 2.32102832031250e+03 4 92 
3.22844458007812e+03 2.32936401367188e+03 4 82 
2.75810229492188e+03 2.33541748046875e+03 4 66 
2.28675097656250e+03 2.33963745117188e+03 4 45 
1.81694287109375e+03 2.34227783203125e+03 4 29 
8.89231079101562e+02 2.34429223632812e+03 4 9 
1.35045605468750e+03 2.34397900390625e+03 4 19 
4.33876800537109e+02 2.34496240234375e+03 4 227 
4.74075781250000e+03 2.73512939453125e+03 4 158 
3.76596850585938e+03 2.75981811523438e+03 4 93 
3.27110351562500e+03 2.76952270507812e+03 4 83 
2.77278710937500e+03 2.77652563476562e+03 4 67 
3.09385894775391e+02 2.78096826171875e+03 4 231 
2.27306420898438e+03 2.78105346679688e+03 4 44 
1.77500866699219e+03 2.78309399414062e+03 4 28 
1.28103820800781e+03 2.78340185546875e+03 4 18 
4.87964697265625e+03 3.22361499023438e+03 4 330 
4.36433154296875e+03 3.23737084960938e+03 4 105 
3.84380737304688e+03 3.25055273437500e+03 4 95 
3.31811523437500e+03 3.26162207031250e+03 4 84 
2.78879418945312e+03 3.27030810546875e+03 4 68 
1.69819503784180e+02 3.27120458984375e+03 4 335 
6.85007812500000e+02 3.27370043945312e+03 4 4 
2.25815698242188e+03 3.27523120117188e+03 4 43 
1.20430114746094e+03 3.27614648437500e+03 4 16 
1.72906933593750e+03 3.27696362304688e+03 4 27 
