ply
format ascii 1.0
element vertex 86
property double x
property double y
property char size
property char id
end_header
3.27523266601562e+03 5.14816017150879e+01 4 5 
3.56551440429688e+03 1.16291000366211e+02 4 6 
1.84297387695312e+03 1.75864105224609e+02 4 7 
4.08173461914062e+03 2.33865600585938e+02 4 8 
4.31179003906250e+03 2.87401000976562e+02 4 9 
2.62649926757812e+03 3.04658599853516e+02 4 10 
2.97113378906250e+03 3.63289398193359e+02 4 11 
3.28716333007812e+03 4.18175109863281e+02 4 12 
3.57814379882812e+03 4.69626007080078e+02 4 13 
3.84659033203125e+03 5.17731201171875e+02 4 14 
4.09508740234375e+03 5.62869506835938e+02 4 15 
1.84594165039062e+03 6.15382080078125e+02 4 16 
4.54153417968750e+03 6.43231079101562e+02 4 17 
2.25694335937500e+03 6.63606384277344e+02 4 18 
2.63436669921875e+03 7.08906188964844e+02 4 19 
2.98093408203125e+03 7.51432373046875e+02 4 20 
3.29848046875000e+03 7.91018798828125e+02 4 21 
3.85931250000000e+03 8.63070007324219e+02 4 22 
4.10869677734375e+03 8.95462219238281e+02 4 23 
4.34032226562500e+03 9.25227722167969e+02 4 24 
1.85008435058594e+03 1.06289953613281e+03 4 25 
2.26325268554688e+03 1.09199560546875e+03 4 26 
2.64244555664062e+03 1.11923315429688e+03 4 27 
2.99009814453125e+03 1.14492712402344e+03 4 28 
3.30931958007812e+03 1.16872265625000e+03 4 29 
3.60235595703125e+03 1.19120898437500e+03 4 30 
3.87242700195312e+03 1.21171594238281e+03 4 31 
4.12321923828125e+03 1.23098608398438e+03 4 32 
4.35506982421875e+03 1.24896154785156e+03 4 33 
4.57157861328125e+03 1.26531726074219e+03 4 34 
1.85515686035156e+03 1.51665039062500e+03 4 35 
2.27015844726562e+03 1.52596655273438e+03 4 36 
2.65086938476562e+03 1.53476135253906e+03 4 37 
2.99974389648438e+03 1.54283886718750e+03 4 38 
3.31947387695312e+03 1.55020678710938e+03 4 39 
3.61382006835938e+03 1.55727722167969e+03 4 40 
3.88561596679688e+03 1.56376110839844e+03 4 41 
4.13646875000000e+03 1.56941015625000e+03 4 42 
4.36869433593750e+03 1.57520764160156e+03 4 43 
4.58530175781250e+03 1.58014404296875e+03 4 44 
4.59801513671875e+03 1.89670495605469e+03 4 45 
4.38136914062500e+03 1.90374755859375e+03 4 46 
4.14875976562500e+03 1.91055578613281e+03 4 47 
3.89768652343750e+03 1.91792810058594e+03 4 48 
3.62568359375000e+03 1.92619384765625e+03 4 49 
3.33030297851562e+03 1.93451770019531e+03 4 50 
3.00946948242188e+03 1.94367224121094e+03 4 51 
2.65943481445312e+03 1.95348522949219e+03 4 52 
2.27791699218750e+03 1.96367883300781e+03 4 53 
1.86222814941406e+03 1.97470996093750e+03 4 54 
4.60993945312500e+03 2.21471899414062e+03 4 55 
4.39280517578125e+03 2.23308447265625e+03 4 56 
4.16012500000000e+03 2.25273315429688e+03 4 57 
3.90863818359375e+03 2.27377709960938e+03 4 58 
3.63696362304688e+03 2.29668774414062e+03 4 59 
3.34129516601562e+03 2.32064599609375e+03 4 60 
3.01927880859375e+03 2.34615649414062e+03 4 61 
2.66845141601562e+03 2.37377978515625e+03 4 62 
2.28677978515625e+03 2.40314038085938e+03 4 63 
1.87099877929688e+03 2.43443359375000e+03 4 64 
4.62087255859375e+03 2.53369702148438e+03 4 65 
4.40359960937500e+03 2.56374536132812e+03 4 66 
4.17093652343750e+03 2.59586694335938e+03 4 67 
3.91968530273438e+03 2.63042407226562e+03 4 68 
3.64770849609375e+03 2.66784692382812e+03 4 69 
3.35193603515625e+03 2.70726098632812e+03 4 70 
3.02988403320312e+03 2.74940087890625e+03 4 71 
2.67841137695312e+03 2.79438720703125e+03 4 72 
2.29652661132812e+03 2.84284765625000e+03 4 73 
4.63081738281250e+03 2.85318115234375e+03 4 74 
1.88077111816406e+03 2.89444799804688e+03 4 75 
4.18110156250000e+03 2.93927148437500e+03 4 76 
3.92992797851562e+03 2.98705590820312e+03 4 77 
3.65777246093750e+03 3.03868823242188e+03 4 78 
3.36216357421875e+03 3.09350903320312e+03 4 79 
3.04052465820312e+03 3.15204541015625e+03 4 80 
2.68949267578125e+03 3.21430859375000e+03 4 81 
4.42362695312500e+03 3.22549340820312e+03 4 82 
4.19084033203125e+03 3.28256738281250e+03 4 83 
1.89141284179688e+03 3.35301586914062e+03 4 84 
3.93945385742188e+03 3.34317700195312e+03 4 85 
4.55700097656250e+03 9.52893798828125e+02 4 91 
3.59039477539062e+03 8.28213073730469e+02 4 92 
3.83370336914062e+03 1.77303207397461e+02 4 93 
4.64031152343750e+03 3.17238720703125e+03 4 99 
4.52615136718750e+03 3.36897003173828e+02 4 100 
