ply
format ascii 1.0
element vertex 86
property double x
property double y
property char size
property short id
end_header
3.39213989257812e+03 7.48014984130859e+01 4 137 
3.68064794921875e+03 1.26547203063965e+02 4 144 
3.94903881835938e+03 1.75497695922852e+02 4 151 
1.57220190429688e+03 2.08620498657227e+02 4 94 
4.19886621093750e+03 2.21463592529297e+02 4 158 
4.43213623046875e+03 2.64758209228516e+02 4 330 
2.38880468750000e+03 3.06755706787109e+02 4 96 
2.75243530273438e+03 3.52555999755859e+02 4 97 
3.08898828125000e+03 3.96044891357422e+02 4 98 
3.40067138671875e+03 4.37715209960938e+02 4 99 
3.68942114257812e+03 4.77094787597656e+02 4 100 
3.95742700195312e+03 5.14450622558594e+02 4 102 
4.44150537109375e+03 5.81224426269531e+02 4 105 
1.57806616210938e+03 6.51720397949219e+02 4 85 
2.00266528320312e+03 6.84826293945312e+02 4 86 
2.39558251953125e+03 7.16318969726562e+02 4 87 
2.75988989257812e+03 7.46894104003906e+02 4 88 
3.09703759765625e+03 7.75703918457031e+02 4 89 
3.40901220703125e+03 8.03669982910156e+02 4 90 
3.69760278320312e+03 8.29992980957031e+02 4 91 
3.96565747070312e+03 8.55154174804688e+02 4 92 
4.21619140625000e+03 8.77965515136719e+02 4 93 
4.45091259765625e+03 8.99572082519531e+02 4 95 
1.58437658691406e+03 1.09833764648438e+03 4 74 
2.00979064941406e+03 1.11411804199219e+03 4 75 
2.40313159179688e+03 1.12933569335938e+03 4 77 
2.76736572265625e+03 1.14395031738281e+03 4 78 
3.10480810546875e+03 1.15774133300781e+03 4 79 
3.41680639648438e+03 1.17162109375000e+03 4 80 
3.70529443359375e+03 1.18456054687500e+03 4 81 
3.97401831054688e+03 1.19679064941406e+03 4 82 
4.22480224609375e+03 1.20831665039062e+03 4 83 
4.45935839843750e+03 1.21885156250000e+03 4 84 
1.59250903320312e+03 1.54754785156250e+03 4 59 
2.01771655273438e+03 1.54540771484375e+03 4 60 
2.41107250976562e+03 1.54372583007812e+03 4 61 
2.77515942382812e+03 1.54242321777344e+03 4 62 
3.11214819335938e+03 1.54127233886719e+03 4 63 
3.42387988281250e+03 1.54044384765625e+03 4 64 
3.71329248046875e+03 1.54003881835938e+03 4 65 
3.98221752929688e+03 1.53939392089844e+03 4 66 
4.23263916015625e+03 1.53905383300781e+03 4 67 
4.46677294921875e+03 1.53869604492188e+03 4 68 
4.47326611328125e+03 1.85880285644531e+03 4 43 
4.23959423828125e+03 1.87025427246094e+03 4 44 
3.98966479492188e+03 1.88264489746094e+03 4 45 
3.72077832031250e+03 1.89566223144531e+03 4 46 
3.43109448242188e+03 1.90996545410156e+03 4 47 
3.11923364257812e+03 1.92526293945312e+03 4 48 
2.78281298828125e+03 1.94140759277344e+03 4 49 
2.41926831054688e+03 1.95889135742188e+03 4 50 
2.02631494140625e+03 1.97722912597656e+03 4 51 
1.60185791015625e+03 1.99703894042969e+03 4 52 
4.47839257812500e+03 2.17860815429688e+03 4 27 
4.24556201171875e+03 2.20121240234375e+03 4 28 
3.99590722656250e+03 2.22533593750000e+03 4 29 
3.72716210937500e+03 2.25083837890625e+03 4 30 
3.43836767578125e+03 2.27876684570312e+03 4 31 
3.12657470703125e+03 2.30787377929688e+03 4 32 
2.79010058593750e+03 2.33930346679688e+03 4 33 
2.42759277343750e+03 2.37234106445312e+03 4 35 
2.03592810058594e+03 2.40764331054688e+03 4 37 
1.61287841796875e+03 2.44450537109375e+03 4 39 
4.48259472656250e+03 2.49765478515625e+03 4 16 
4.25023095703125e+03 2.53117211914062e+03 4 18 
4.00099877929688e+03 2.56681762695312e+03 4 19 
3.73337768554688e+03 2.60489233398438e+03 4 20 
4.48584863281250e+03 2.81530249023438e+03 4 4 
4.48867871093750e+03 3.13140551757812e+03 4 335 
4.25709472656250e+03 3.18538281250000e+03 4 231 
3.13356689453125e+03 2.68873901367188e+03 4 189 
2.79770629882812e+03 2.73441625976562e+03 4 23 
2.43601879882812e+03 2.78306713867188e+03 4 24 
2.04581384277344e+03 2.83392114257812e+03 4 25 
1.62454125976562e+03 2.88886816406250e+03 4 159 
4.00549218750000e+03 2.90634570312500e+03 4 9 
3.73840502929688e+03 2.95676635742188e+03 4 11 
3.45082983398438e+03 3.01005957031250e+03 4 12 
3.14066186523438e+03 3.06669238281250e+03 4 13 
2.80624877929688e+03 3.12622680664062e+03 4 14 
2.44552050781250e+03 3.18982055664062e+03 4 15 
4.00873291015625e+03 3.24337475585938e+03 4 227 
3.74244335937500e+03 3.30515795898438e+03 4 221 
1.63719934082031e+03 3.32823706054688e+03 4 17 
3.44494140625000e+03 2.64578149414062e+03 4 21 
3.45627880859375e+03 3.37071484375000e+03 4 2 
