ply
format ascii 1.0
element vertex 92
property double x
property double y
property char size
property short id
end_header
2.67209375000000e+03 9.19027023315430e+01 4 231 
2.25375292968750e+03 9.90307998657227e+01 4 4 
2.89989599609375e+03 2.13066192626953e+02 4 227 
2.03913354492188e+03 2.28012100219727e+02 4 16 
3.14002807617188e+03 3.41310485839844e+02 4 221 
2.70026684570312e+03 3.47684112548828e+02 4 9 
2.25647167968750e+03 3.56110107421875e+02 4 18 
1.81197583007812e+03 3.65542907714844e+02 4 27 
3.39279809570312e+03 4.77307098388672e+02 4 2 
2.94277807617188e+03 4.83607696533203e+02 4 11 
2.48723242187500e+03 4.92168090820312e+02 4 19 
2.02961425781250e+03 5.01666900634766e+02 4 28 
1.57106555175781e+03 5.12313781738281e+02 4 43 
3.65926831054688e+03 6.21679809570312e+02 4 3 
3.19877050781250e+03 6.28416381835938e+02 4 12 
2.73172558593750e+03 6.36560913085938e+02 4 20 
2.26061596679688e+03 6.46381103515625e+02 4 29 
1.78786279296875e+03 6.57435607910156e+02 4 44 
1.31578405761719e+03 6.68825317382812e+02 4 68 
3.93974340820312e+03 7.74623718261719e+02 4 198 
3.46925561523438e+03 7.82189575195312e+02 4 13 
2.99062060546875e+03 7.90387207031250e+02 4 21 
2.50647583007812e+03 8.00747802734375e+02 4 30 
2.01913439941406e+03 8.11438415527344e+02 4 45 
1.53146020507812e+03 8.23778320312500e+02 4 67 
1.04521081542969e+03 8.35548889160156e+02 4 84 
4.23464013671875e+03 9.36639709472656e+02 4 6 
3.75428881835938e+03 9.45299682617188e+02 4 14 
3.26466113281250e+03 9.54544921875000e+02 4 189 
2.76743286132812e+03 9.64452697753906e+02 4 31 
2.26541430664062e+03 9.75939025878906e+02 4 46 
1.76162768554688e+03 9.88400207519531e+02 4 66 
1.25883435058594e+03 1.00117138671875e+03 4 83 
7.58220092773438e+02 1.01343231201172e+03 4 95 
4.54504101562500e+03 1.10808142089844e+03 4 8 
4.05460693359375e+03 1.11798107910156e+03 4 15 
3.55429882812500e+03 1.12884033203125e+03 4 23 
3.04465039062500e+03 1.13922302246094e+03 4 32 
2.52801391601562e+03 1.15138684082031e+03 4 47 
2.00789465332031e+03 1.16384045410156e+03 4 65 
1.48726794433594e+03 1.17723474121094e+03 4 82 
9.68812194824219e+02 1.19062536621094e+03 4 93 
4.52748596191406e+02 1.20350085449219e+03 4 105 
4.87215966796875e+03 1.28881176757812e+03 4 801 
3.86062622070312e+03 1.31276635742188e+03 4 24 
3.33876635742188e+03 1.32496972656250e+03 4 33 
2.80771533203125e+03 1.33781347656250e+03 4 48 
2.27097119140625e+03 1.35126135253906e+03 4 64 
1.73222229003906e+03 1.36492614746094e+03 4 81 
1.19488415527344e+03 1.37881652832031e+03 4 92 
1.27939102172852e+02 1.40527648925781e+03 4 330 
4.70699609375000e+03 1.49295166015625e+03 4 17 
4.18435986328125e+03 1.50731921386719e+03 4 25 
3.65116210937500e+03 1.52137304687500e+03 4 35 
3.10600659179688e+03 1.53599340820312e+03 4 49 
2.55283178710938e+03 1.55096875000000e+03 4 63 
1.99519055175781e+03 1.56512023925781e+03 4 80 
1.43773693847656e+03 1.57949597167969e+03 4 91 
8.82039184570312e+02 1.59379345703125e+03 4 102 
3.30126312255859e+02 1.60685253906250e+03 4 158 
4.52753125000000e+03 1.71280395507812e+03 4 159 
3.98165747070312e+03 1.73033215332031e+03 4 37 
3.42362426757812e+03 1.74724768066406e+03 4 50 
2.85419287109375e+03 1.76421691894531e+03 4 62 
2.27790185546875e+03 1.78029064941406e+03 4 79 
1.69915625000000e+03 1.79518359375000e+03 4 90 
1.12187097167969e+03 1.80970239257812e+03 4 100 
5.48521606445312e+02 1.82323425292969e+03 4 151 
4.33250732421875e+03 1.95156958007812e+03 4 39 
3.76061083984375e+03 1.97208886718750e+03 4 51 
3.17631469726562e+03 1.99205798339844e+03 4 61 
2.58174438476562e+03 2.01075524902344e+03 4 78 
1.98144921875000e+03 2.02761059570312e+03 4 89 
1.38117175292969e+03 2.04262329101562e+03 4 99 
7.84368530273438e+02 2.05677880859375e+03 4 144 
4.11955322265625e+03 2.21099731445312e+03 4 52 
3.51996240234375e+03 2.23499877929688e+03 4 60 
2.90772509765625e+03 2.25709545898438e+03 4 77 
2.28686621093750e+03 2.27677514648438e+03 4 88 
1.66222058105469e+03 2.29383178710938e+03 4 98 
1.03974597167969e+03 2.30851220703125e+03 4 137 
3.88634252929688e+03 2.49331176757812e+03 4 59 
3.25674951171875e+03 2.52021240234375e+03 4 75 
2.61512329101562e+03 2.54444213867188e+03 4 87 
1.96707434082031e+03 2.56390625000000e+03 4 97 
1.31800463867188e+03 2.58086914062500e+03 4 107 
3.63081762695312e+03 2.80071240234375e+03 4 74 
2.96893286132812e+03 2.82989672851562e+03 4 86 
2.29727709960938e+03 2.85496484375000e+03 4 96 
1.62161035156250e+03 2.87429711914062e+03 4 106 
3.34970703125000e+03 3.13585668945312e+03 4 85 
1.95179064941406e+03 3.19100512695312e+03 4 104 
