ply
format ascii 1.0
element vertex 96
property double x
property double y
property char size
property short id
end_header
1.63072799682617e+02 9.12685012817383e+01 4 800 
5.38742309570312e+02 9.35307998657227e+01 4 103 
9.07329772949219e+02 9.54217987060547e+01 4 104 
1.27025952148438e+03 9.74384994506836e+01 4 106 
1.62761975097656e+03 1.00180801391602e+02 4 107 
1.97892895507812e+03 1.04075302124023e+02 4 137 
2.32390600585938e+03 1.09071502685547e+02 4 144 
2.66244604492188e+03 1.15367500305176e+02 4 151 
2.99333447265625e+03 1.22351196289062e+02 4 158 
3.31659179687500e+03 1.30649093627930e+02 4 330 
1.27940649414062e+03 4.46181396484375e+02 4 97 
1.63637976074219e+03 4.45368988037109e+02 4 98 
9.17123596191406e+02 4.47519714355469e+02 4 96 
1.98775427246094e+03 4.46031494140625e+02 4 99 
1.75299606323242e+02 4.50662506103516e+02 4 94 
2.33298266601562e+03 4.47550109863281e+02 4 100 
2.67159790039062e+03 4.50055206298828e+02 4 102 
3.32626098632812e+03 4.57515808105469e+02 4 105 
3.01236767578125e+03 7.85624084472656e+02 4 93 
2.34219995117188e+03 7.87191284179688e+02 4 91 
2.68095507812500e+03 7.86097412109375e+02 4 92 
3.33585205078125e+03 7.85624572753906e+02 4 95 
1.99706860351562e+03 7.89126586914062e+02 4 90 
1.64564965820312e+03 7.91884704589844e+02 4 89 
1.28906982421875e+03 7.96000793457031e+02 4 88 
9.27540893554688e+02 8.00415100097656e+02 4 87 
5.60872619628906e+02 8.05083923339844e+02 4 86 
1.87694396972656e+02 8.09808227539062e+02 4 85 
3.34540258789062e+03 1.11461193847656e+03 4 84 
3.02176245117188e+03 1.11823632812500e+03 4 83 
2.69038061523438e+03 1.12262316894531e+03 4 82 
2.35163281250000e+03 1.12766247558594e+03 4 81 
2.00678381347656e+03 1.13294250488281e+03 4 80 
1.65595996093750e+03 1.13915100097656e+03 4 79 
1.29981933593750e+03 1.14602966308594e+03 4 78 
9.38732116699219e+02 1.15313244628906e+03 4 77 
5.73141479492188e+02 1.16090002441406e+03 4 75 
2.01137603759766e+02 1.16854223632812e+03 4 74 
3.35398730468750e+03 1.44343115234375e+03 4 68 
3.03075927734375e+03 1.45112561035156e+03 4 67 
2.69992041015625e+03 1.45908264160156e+03 4 66 
2.36152832031250e+03 1.46775476074219e+03 4 65 
2.01707434082031e+03 1.47646960449219e+03 4 64 
1.66670544433594e+03 1.48581042480469e+03 4 63 
1.31120874023438e+03 1.49556884765625e+03 4 62 
9.51155212402344e+02 1.50558496093750e+03 4 61 
5.86258605957031e+02 1.51584521484375e+03 4 60 
2.15416503906250e+02 1.52636157226562e+03 4 59 
3.36185668945312e+03 1.77180541992188e+03 4 43 
3.03956225585938e+03 1.78348474121094e+03 4 44 
2.70920141601562e+03 1.79519885253906e+03 4 45 
2.37170019531250e+03 1.80712536621094e+03 4 46 
2.02784313964844e+03 1.81930395507812e+03 4 47 
1.67838854980469e+03 1.83168957519531e+03 4 48 
1.32383239746094e+03 1.84433227539062e+03 4 49 
9.64479919433594e+02 1.85696936035156e+03 4 50 
6.00842895507812e+02 1.86975170898438e+03 4 51 
2.31145904541016e+02 1.88300329589844e+03 4 52 
3.36900585937500e+03 2.09884545898438e+03 4 27 
3.04780322265625e+03 2.11440380859375e+03 4 28 
2.71854443359375e+03 2.12972656250000e+03 4 29 
2.38203393554688e+03 2.14506518554688e+03 4 30 
2.03914135742188e+03 2.16057714843750e+03 4 31 
1.69067626953125e+03 2.17589770507812e+03 4 32 
1.33745922851562e+03 2.19118847656250e+03 4 33 
9.79217407226562e+02 2.20648291015625e+03 4 35 
6.16650512695312e+02 2.22174218750000e+03 4 37 
2.47874694824219e+02 2.23770166015625e+03 4 39 
3.37559106445312e+03 2.42366162109375e+03 4 16 
3.05565771484375e+03 2.44281396484375e+03 4 18 
2.72749804687500e+03 2.46187573242188e+03 4 19 
2.39248291015625e+03 2.48096044921875e+03 4 20 
2.05103979492188e+03 2.49946411132812e+03 4 21 
1.70384851074219e+03 2.51767041015625e+03 4 189 
1.35175207519531e+03 2.53539379882812e+03 4 23 
9.94967407226562e+02 2.55327001953125e+03 4 24 
6.33627929687500e+02 2.57113500976562e+03 4 25 
2.65813690185547e+02 2.58985571289062e+03 4 159 
3.38135693359375e+03 2.74551733398438e+03 4 4 
2.73650097656250e+03 2.79100219726562e+03 4 9 
2.40297412109375e+03 2.81320727539062e+03 4 11 
2.06326538085938e+03 2.83502026367188e+03 4 12 
1.71764709472656e+03 2.85610180664062e+03 4 13 
1.36700891113281e+03 2.87662231445312e+03 4 14 
1.01152819824219e+03 2.89715136718750e+03 4 15 
2.84688598632812e+02 2.93890014648438e+03 4 17 
3.38684179687500e+03 3.06383789062500e+03 4 335 
3.06990942382812e+03 3.08985180664062e+03 4 231 
2.74516088867188e+03 3.11578588867188e+03 4 227 
2.41374291992188e+03 3.14133666992188e+03 4 221 
2.07605175781250e+03 3.16637377929688e+03 4 2 
1.73202404785156e+03 3.19061669921875e+03 4 3 
1.38288269042969e+03 3.21415405273438e+03 4 198 
1.02854272460938e+03 3.23759008789062e+03 4 6 
6.69242492675781e+02 3.26058740234375e+03 4 8 
3.03984191894531e+02 3.28494775390625e+03 4 801 
