ply
format ascii 1.0
element vertex 93
property double x
property double y
property char size
property short id
end_header
2.48888476562500e+03 6.90540008544922e+01 4 103 
2.08161547851562e+03 8.61649017333984e+01 4 94 
2.71082177734375e+03 1.76535903930664e+02 4 104 
1.87325988769531e+03 2.12899093627930e+02 4 85 
2.94485131835938e+03 2.90610107421875e+02 4 106 
2.51685253906250e+03 3.08695800781250e+02 4 96 
2.08565698242188e+03 3.28360290527344e+02 4 86 
1.65254406738281e+03 3.48099090576172e+02 4 74 
3.19195141601562e+03 4.11768005371094e+02 4 107 
2.75303662109375e+03 4.29825714111328e+02 4 97 
2.30995214843750e+03 4.50044708251953e+02 4 87 
1.86489794921875e+03 4.70881988525391e+02 4 75 
1.41864123535156e+03 4.92186096191406e+02 4 59 
3.45182641601562e+03 5.40503417968750e+02 4 137 
3.00288696289062e+03 5.58738220214844e+02 4 98 
2.54811303710938e+03 5.79054870605469e+02 4 88 
2.08995043945312e+03 6.00662414550781e+02 4 77 
1.63025415039062e+03 6.23189025878906e+02 4 60 
1.17002685546875e+03 6.46138000488281e+02 4 52 
3.72548315429688e+03 6.76761779785156e+02 4 144 
3.26644702148438e+03 6.95868530273438e+02 4 99 
2.80031469726562e+03 7.16340026855469e+02 4 89 
2.32906103515625e+03 7.38901611328125e+02 4 78 
1.85507495117188e+03 7.61672790527344e+02 4 61 
1.38069384765625e+03 7.85914611816406e+02 4 51 
9.06392211914062e+02 8.10323791503906e+02 4 39 
4.01373242187500e+03 8.21726989746094e+02 4 151 
3.54493920898438e+03 8.41652709960938e+02 4 100 
3.06755346679688e+03 8.62874572753906e+02 4 90 
2.58354541015625e+03 8.85517822265625e+02 4 79 
2.09480078125000e+03 9.09343078613281e+02 4 62 
1.60453259277344e+03 9.34043518066406e+02 4 50 
1.11525610351562e+03 9.59875122070312e+02 4 37 
4.31752880859375e+03 9.75232604980469e+02 4 158 
6.26590087890625e+02 9.85427917480469e+02 4 159 
3.83892187500000e+03 9.97056884765625e+02 4 102 
3.35055444335938e+03 1.01897198486328e+03 4 91 
2.85376196289062e+03 1.04220104980469e+03 4 80 
2.35080639648438e+03 1.06687353515625e+03 4 63 
1.84426684570312e+03 1.09241735839844e+03 4 49 
1.33757788085938e+03 1.11869445800781e+03 4 35 
4.63729541015625e+03 1.13740307617188e+03 4 330 
8.32667724609375e+02 1.14617687988281e+03 4 25 
3.28916687011719e+02 1.17232165527344e+03 4 17 
3.65031250000000e+03 1.18538378906250e+03 4 92 
3.14091113281250e+03 1.20967089843750e+03 4 81 
2.62355297851562e+03 1.23520385742188e+03 4 64 
2.10098242187500e+03 1.26169799804688e+03 4 48 
1.57628906250000e+03 1.28906225585938e+03 4 33 
1.05278161621094e+03 1.31685144042969e+03 4 24 
4.47655468750000e+03 1.33323596191406e+03 4 105 
3.96733007812500e+03 1.36042602539062e+03 4 93 
3.44626855468750e+03 1.38743383789062e+03 4 82 
2.91462646484375e+03 1.41421325683594e+03 4 65 
2.37555932617188e+03 1.44221545410156e+03 4 47 
1.83279687500000e+03 1.47009680175781e+03 4 32 
1.28939746093750e+03 1.49936206054688e+03 4 23 
7.48521789550781e+02 1.52746997070312e+03 4 15 
4.30285498046875e+03 1.54485424804688e+03 4 95 
2.09902496337891e+02 1.55495654296875e+03 4 8 
3.77024658203125e+03 1.57565527343750e+03 4 83 
3.22506030273438e+03 1.60509265136719e+03 4 66 
2.66969458007812e+03 1.63450048828125e+03 4 46 
2.10809082031250e+03 1.66432568359375e+03 4 31 
1.54448742675781e+03 1.69434680175781e+03 4 189 
9.82315124511719e+02 1.72390405273438e+03 4 14 
4.22983795166016e+02 1.75217565917969e+03 4 6 
4.11360253906250e+03 1.77445263671875e+03 4 84 
3.55571435546875e+03 1.80839196777344e+03 4 67 
2.98460888671875e+03 1.84070043945312e+03 4 45 
2.40432958984375e+03 1.87270617675781e+03 4 30 
1.81952233886719e+03 1.90394409179688e+03 4 21 
1.23490478515625e+03 1.93532153320312e+03 4 13 
6.53147888183594e+02 1.96488549804688e+03 4 198 
3.90683422851562e+03 2.02376794433594e+03 4 68 
3.32132299804688e+03 2.06100781250000e+03 4 44 
2.72282714843750e+03 2.09598486328125e+03 4 29 
2.11682202148438e+03 2.12981298828125e+03 4 20 
1.50837060546875e+03 2.16287939453125e+03 4 12 
9.02629821777344e+02 2.19442749023438e+03 4 3 
3.68021215820312e+03 2.29542871093750e+03 4 43 
3.06477294921875e+03 2.33553393554688e+03 4 28 
2.43819750976562e+03 2.37317236328125e+03 4 19 
1.80562902832031e+03 2.40821850585938e+03 4 11 
1.17437634277344e+03 2.44212426757812e+03 4 2 
3.43118261718750e+03 2.59107690429688e+03 4 27 
2.78440722656250e+03 2.63429077148438e+03 4 18 
2.12810058593750e+03 2.67346679687500e+03 4 9 
1.46952600097656e+03 2.71004296875000e+03 4 221 
3.15700341796875e+03 2.91364599609375e+03 4 16 
1.79166857910156e+03 2.99934545898438e+03 4 227 
2.85599121093750e+03 3.26562622070312e+03 4 4 
2.14340478515625e+03 3.31170898437500e+03 4 231 
