ply
format ascii 1.0
element vertex 85
property double x
property double y
property char size
property char id
end_header
1.61935595703125e+03 1.94793005371094e+03 4 0 
1.62073937988281e+03 1.50821752929688e+03 4 1 
1.62807568359375e+03 6.37392700195312e+02 4 3 
1.63371606445312e+03 2.10305099487305e+02 4 4 
2.03669335937500e+03 2.79140869140625e+03 4 5 
2.03585791015625e+03 2.36773364257812e+03 4 6 
2.03552624511719e+03 1.94288232421875e+03 4 7 
2.03558752441406e+03 1.51841174316406e+03 4 8 
2.03690844726562e+03 1.09607849121094e+03 4 9 
2.03949353027344e+03 6.77914428710938e+02 4 10 
2.42551318359375e+03 3.16466210937500e+03 4 13 
2.42493188476562e+03 2.75800756835938e+03 4 14 
2.42442919921875e+03 2.34883398437500e+03 4 15 
2.42397363281250e+03 1.93839038085938e+03 4 16 
2.42383593750000e+03 1.12059155273438e+03 4 17 
2.42501342773438e+03 7.16339172363281e+02 4 18 
2.42677050781250e+03 3.16715301513672e+02 4 19 
2.78704760742188e+03 3.11865942382812e+03 4 21 
2.78709179687500e+03 2.72568334960938e+03 4 22 
2.78669482421875e+03 2.33010351562500e+03 4 23 
2.78646777343750e+03 1.93381005859375e+03 4 24 
2.78594580078125e+03 1.53804235839844e+03 4 25 
2.78556689453125e+03 1.14390808105469e+03 4 26 
2.78599926757812e+03 7.52855773925781e+02 4 27 
2.78616040039062e+03 3.66273498535156e+02 4 28 
3.12427880859375e+03 3.07461450195312e+03 4 31 
3.12483789062500e+03 2.69456323242188e+03 4 32 
3.12498315429688e+03 2.31235961914062e+03 4 33 
3.12444702148438e+03 1.92947338867188e+03 4 34 
3.12411010742188e+03 1.54694213867188e+03 4 35 
3.12375170898438e+03 1.16593945312500e+03 4 36 
3.12315795898438e+03 7.87836181640625e+02 4 37 
3.12202490234375e+03 4.13864013671875e+02 4 38 
3.43352905273438e+03 9.95988006591797e+01 4 40 
3.43561303710938e+03 4.58799102783203e+02 4 41 
3.43776147460938e+03 8.21096984863281e+02 4 42 
3.43942187500000e+03 1.18718994140625e+03 4 43 
3.44050805664062e+03 1.55556738281250e+03 4 44 
3.44051928710938e+03 1.92508227539062e+03 4 45 
3.44057739257812e+03 2.29499951171875e+03 4 46 
3.43979272460938e+03 2.66448071289062e+03 4 47 
3.43895166015625e+03 3.03218627929688e+03 4 48 
3.72594018554688e+03 1.53402496337891e+02 4 50 
3.72874853515625e+03 5.01739898681641e+02 4 51 
3.73169824218750e+03 8.52831115722656e+02 4 52 
3.73377001953125e+03 1.20683264160156e+03 4 53 
3.73571704101562e+03 1.56337182617188e+03 4 54 
3.73607910156250e+03 1.92095043945312e+03 4 55 
3.73513598632812e+03 2.27860327148438e+03 4 56 
3.73403833007812e+03 2.63580541992188e+03 4 57 
3.73305908203125e+03 2.99175097656250e+03 4 58 
3.73240893554688e+03 3.34593798828125e+03 4 59 
3.99957641601562e+03 2.04200805664062e+02 4 60 
4.00319897460938e+03 5.42264770507812e+02 4 61 
4.00679394531250e+03 8.82739379882812e+02 4 62 
4.00983227539062e+03 1.22558605957031e+03 4 63 
4.01194531250000e+03 1.57073937988281e+03 4 64 
4.01250390625000e+03 1.91673840332031e+03 4 65 
4.01173754882812e+03 2.26270434570312e+03 4 66 
4.00979858398438e+03 2.60870874023438e+03 4 67 
4.00848803710938e+03 2.95338867187500e+03 4 68 
4.25638671875000e+03 2.52389999389648e+02 4 69 
4.00769458007812e+03 3.29685766601562e+03 4 70 
4.26487158203125e+03 9.10650390625000e+02 4 71 
4.26833398437500e+03 1.24330334472656e+03 4 72 
4.27064208984375e+03 1.57756054687500e+03 4 73 
4.27149853515625e+03 1.91277062988281e+03 4 74 
4.27102343750000e+03 2.24797753906250e+03 4 75 
4.26904345703125e+03 2.58330322265625e+03 4 76 
4.50248535156250e+03 6.16503906250000e+02 4 77 
4.50709521484375e+03 9.36961303710938e+02 4 78 
4.26564208984375e+03 3.25043481445312e+03 4 79 
4.51076562500000e+03 1.26003125000000e+03 4 80 
4.51316943359375e+03 1.58392871093750e+03 4 81 
4.51436083984375e+03 1.90939074707031e+03 4 82 
4.51427294921875e+03 2.23394311523438e+03 4 83 
4.51302050781250e+03 2.55917993164062e+03 4 84 
4.51094433593750e+03 2.88376782226562e+03 4 85 
2.42358642578125e+03 1.52848645019531e+03 4 87 
1.62379296875000e+03 1.07074536132812e+03 4 88 
1.61979931640625e+03 2.38767480468750e+03 4 89 
1.62152954101562e+03 2.82577001953125e+03 4 90 
1.62389453125000e+03 3.26160864257812e+03 4 91 
4.50834863281250e+03 3.20673193359375e+03 4 92 
4.49751806640625e+03 2.98083709716797e+02 4 94 
