ply
format ascii 1.0
element vertex 90
property double x
property double y
property char size
property short id
end_header
2.95580981445312e+03 1.24498901367188e+02 4 95 
2.08147167968750e+03 1.45226898193359e+02 4 151 
3.19835302734375e+03 2.53012405395508e+02 4 84 
2.75190478515625e+03 2.64717193603516e+02 4 93 
2.30156884765625e+03 2.75495910644531e+02 4 102 
1.84867407226562e+03 2.86321197509766e+02 4 144 
3.45387036132812e+03 3.89122711181641e+02 4 68 
2.99686523437500e+03 4.01059997558594e+02 4 83 
2.53453149414062e+03 4.13337402343750e+02 4 92 
2.06899145507812e+03 4.24143890380859e+02 4 100 
1.60238146972656e+03 4.37137084960938e+02 4 137 
3.72316162109375e+03 5.33446411132812e+02 4 43 
3.25541918945312e+03 5.45538879394531e+02 4 67 
2.78140209960938e+03 5.58707214355469e+02 4 82 
2.30272607421875e+03 5.70677307128906e+02 4 91 
1.82183972167969e+03 5.83409484863281e+02 4 99 
1.34058544921875e+03 5.98244079589844e+02 4 107 
4.00668627929688e+03 6.86697326660156e+02 4 27 
3.52867529296875e+03 6.98755371093750e+02 4 44 
3.04275268554688e+03 7.12427307128906e+02 4 66 
2.55094921875000e+03 7.26440429687500e+02 4 81 
2.05581762695312e+03 7.39422729492188e+02 4 90 
1.55883471679688e+03 7.54174682617188e+02 4 98 
1.06323315429688e+03 7.70641113281250e+02 4 106 
4.30503515625000e+03 8.48872375488281e+02 4 16 
3.81704541015625e+03 8.61583312988281e+02 4 28 
3.31970434570312e+03 8.75662109375000e+02 4 45 
2.81449438476562e+03 8.91192626953125e+02 4 65 
2.30453100585938e+03 9.05658203125000e+02 4 80 
1.79163818359375e+03 9.20641174316406e+02 4 89 
1.27951025390625e+03 9.36849487304688e+02 4 97 
7.69267395019531e+02 9.54458984375000e+02 4 104 
4.61934082031250e+03 1.02092401123047e+03 4 4 
4.12107080078125e+03 1.03451513671875e+03 4 18 
3.61280053710938e+03 1.04961364746094e+03 4 29 
3.09455688476562e+03 1.06605078125000e+03 4 46 
2.56964868164062e+03 1.08283410644531e+03 4 64 
2.04072973632812e+03 1.09843615722656e+03 4 79 
1.51078088378906e+03 1.11517407226562e+03 4 88 
9.82333801269531e+02 1.13261083984375e+03 4 96 
4.56623291015625e+02 1.15080041503906e+03 4 103 
4.95099902343750e+03 1.20236975097656e+03 4 335 
3.92257421875000e+03 1.23463012695312e+03 4 19 
3.39194042968750e+03 1.25268225097656e+03 4 30 
2.85237133789062e+03 1.27129772949219e+03 4 47 
2.30686987304688e+03 1.28841503906250e+03 4 63 
1.75867871093750e+03 1.30602526855469e+03 4 78 
1.21084545898438e+03 1.32361462402344e+03 4 87 
1.23528701782227e+02 1.36018139648438e+03 4 800 
4.78057666015625e+03 1.41247680664062e+03 4 231 
4.25033691406250e+03 1.43119348144531e+03 4 9 
3.70771044921875e+03 1.45068994140625e+03 4 20 
3.15378930664062e+03 1.47120092773438e+03 4 31 
2.59151147460938e+03 1.49147888183594e+03 4 48 
2.02452233886719e+03 1.50959008789062e+03 4 62 
1.45679040527344e+03 1.52813317871094e+03 4 77 
8.91414001464844e+02 1.54637731933594e+03 4 86 
3.29100585937500e+02 1.56456335449219e+03 4 94 
4.59636083984375e+03 1.64010815429688e+03 4 227 
4.04190307617188e+03 1.66185021972656e+03 4 11 
3.47470678710938e+03 1.68477355957031e+03 4 21 
2.89591308593750e+03 1.70769824218750e+03 4 32 
2.31031542968750e+03 1.72816528320312e+03 4 49 
1.72137634277344e+03 1.74760461425781e+03 4 61 
1.13441564941406e+03 1.76627246093750e+03 4 75 
5.50119384765625e+02 1.78452893066406e+03 4 85 
4.39615820312500e+03 1.88678381347656e+03 4 221 
3.81569360351562e+03 1.91216406250000e+03 4 12 
3.22132080078125e+03 1.93849365234375e+03 4 189 
2.61675390625000e+03 1.96273706054688e+03 4 33 
2.00668225097656e+03 1.98339221191406e+03 4 50 
1.39627014160156e+03 2.00315783691406e+03 4 60 
7.88664611816406e+02 2.02173205566406e+03 4 74 
4.17762744140625e+03 2.15446118164062e+03 4 2 
3.56840795898438e+03 2.18448046875000e+03 4 13 
2.94548486328125e+03 2.21293676757812e+03 4 23 
2.31482910156250e+03 2.23692089843750e+03 4 35 
1.68017614746094e+03 2.25819848632812e+03 4 51 
1.04737145996094e+03 2.27761401367188e+03 4 59 
3.93813403320312e+03 2.44616357421875e+03 4 3 
3.29816894531250e+03 2.47921655273438e+03 4 14 
2.64583740234375e+03 2.50916259765625e+03 4 24 
1.98780249023438e+03 2.53287353515625e+03 4 37 
1.32826684570312e+03 2.55409960937500e+03 4 52 
3.67491601562500e+03 2.76324169921875e+03 4 198 
3.00266992187500e+03 2.79889428710938e+03 4 15 
2.32051660156250e+03 2.82874536132812e+03 4 25 
1.63403320312500e+03 2.85229101562500e+03 4 39 
3.38566381835938e+03 3.10800170898438e+03 4 6 
1.96693334960938e+03 3.17371289062500e+03 4 159 
