ply
format ascii 1.0
element vertex 89
property float x
property float y
property char size
property char id
end_header
1283.580933 1652.603760 4 97 
1417.108154 1621.434448 4 96 
1539.762817 1592.002808 4 93 
615.146973 1591.150513 4 81 
1652.004150 1564.054443 4 91 
1755.050049 1538.009155 4 89 
979.357910 1533.913330 4 83 
1849.930054 1513.452881 4 88 
1139.418091 1507.065063 4 84 
1286.365356 1481.302856 4 85 
1422.054199 1457.351318 4 87 
1544.609741 1433.942261 4 86 
1655.913818 1411.624023 4 82 
611.953674 1382.477661 4 71 
1854.002808 1371.876343 4 80 
803.446228 1362.919434 4 73 
980.202576 1343.814697 4 75 
1141.599365 1324.952148 4 77 
1289.147461 1306.711060 4 78 
1424.412231 1289.339355 4 79 
1547.200439 1272.718018 4 76 
1659.899902 1257.179688 4 74 
1763.621582 1242.654907 4 72 
1857.793091 1228.879150 4 70 
610.964417 1170.794922 4 61 
803.317383 1160.255493 4 62 
980.454407 1149.604980 4 64 
1142.329834 1139.181152 4 65 
1290.975586 1128.839722 4 67 
1427.707397 1119.341187 4 69 
1549.620850 1109.659546 4 68 
1662.223755 1100.796753 4 66 
1765.401978 1092.353149 4 63 
1859.719849 1084.520630 4 60 
804.124512 954.986694 4 51 
611.210510 956.430725 4 50 
982.480286 953.454529 4 54 
1143.913452 951.486816 4 55 
1292.469116 949.524109 4 56 
1430.046021 947.525513 4 59 
1552.024414 945.505005 4 58 
1663.856445 943.424011 4 57 
1767.117554 941.595276 4 53 
1861.895508 939.827026 4 52 
1863.171997 794.734680 4 48 
1767.829346 790.495789 4 46 
1664.499390 785.820618 4 44 
1553.277100 780.821899 4 47 
1431.579102 775.342102 4 49 
1294.181396 769.600586 4 43 
1145.331543 763.193176 4 41 
983.138306 756.498718 4 40 
807.640686 749.131409 4 45 
615.330872 741.404297 4 42 
1862.140747 650.233704 4 39 
1765.363647 640.245605 4 38 
1663.475586 628.983215 4 35 
1552.707886 616.981018 4 37 
1430.946045 604.102905 4 36 
1293.503540 590.828430 4 34 
1145.865845 576.493713 4 33 
984.941406 561.163025 4 32 
808.835327 545.166992 4 31 
617.272522 528.851501 4 30 
1857.166016 507.314911 4 29 
1763.669800 491.270508 4 28 
1661.510742 473.847290 4 27 
1551.022705 455.179291 4 26 
1428.607544 435.433594 4 24 
1293.178711 414.817291 4 22 
1146.543945 392.768005 4 20 
1853.949463 366.115509 4 19 
986.362488 369.475006 4 21 
812.464172 345.048096 4 23 
1658.566772 321.321991 4 18 
623.223206 319.802002 4 25 
1547.167847 296.614410 4 16 
1426.158569 270.274292 4 15 
1292.313477 242.739395 4 13 
1850.426514 226.715195 4 11 
1146.964600 213.515106 4 12 
1755.780151 200.304306 4 10 
988.443726 182.760498 4 14 
1655.057739 171.588501 4 9 
1544.024048 141.162704 4 7 
629.916321 116.397797 4 17 
1423.675659 108.765800 4 5 
1291.300659 74.918503 4 3 
1147.101685 39.253300 4 2 
