ply
format ascii 1.0
element vertex 96
property char id
property float x
property float y
property char size
end_header
2 1429.187134 1456.427856 4 
3 1217.855713 1456.179810 4 
4 1638.514771 1454.081055 4 
5 1006.236206 1453.781982 4 
6 1844.464355 1450.382324 4 
7 797.028870 1449.838745 4 
8 2047.139526 1446.266235 4 
9 591.414429 1443.869751 4 
10 391.612793 1437.682983 4 
11 195.661499 1429.849121 4 
12 1418.139160 1270.016357 4 
13 1216.827271 1269.937744 4 
14 1617.493896 1268.760254 4 
15 1015.135803 1267.702637 4 
16 815.691223 1265.042114 4 
17 2005.894775 1262.244507 4 
18 619.749512 1260.900391 4 
19 243.437195 1250.794556 4 
20 1407.520752 1099.988159 4 
21 1597.573120 1099.404663 4 
22 1215.660278 1099.773682 4 
23 1784.541138 1097.554810 4 
24 1023.472473 1097.308594 4 
25 1967.432495 1095.675293 4 
26 833.021973 1095.161377 4 
27 646.437683 1093.725220 4 
28 464.194305 1090.711182 4 
29 287.219086 1087.544800 4 
30 1931.434326 944.362915 4 
31 1757.062500 944.233826 4 
32 1578.647339 944.529602 4 
33 1397.348633 945.071594 4 
34 1214.470947 944.758423 4 
35 671.610107 941.270508 4 
36 1031.201416 941.465210 4 
37 849.780823 941.225098 4 
38 497.625702 940.446106 4 
39 326.861389 936.235474 4 
40 1560.590576 804.248474 4 
41 1387.701660 803.828674 4 
42 1898.998779 803.051086 4 
43 1213.241943 802.861023 4 
44 695.385681 802.247192 4 
45 1731.489624 802.870483 4 
46 528.413391 801.638977 4 
47 865.558228 801.268799 4 
48 365.390991 800.190308 4 
49 1038.519775 800.330383 4 
50 1866.174683 679.497803 4 
51 1706.291260 678.078125 4 
52 402.036896 677.315918 4 
53 558.069824 676.664978 4 
54 1543.588745 675.828796 4 
55 1378.425659 676.262573 4 
56 1212.095337 675.704773 4 
57 717.764526 676.145325 4 
58 880.501404 674.786316 4 
59 1045.563843 673.314880 4 
60 436.243988 565.022583 4 
61 1836.664551 564.304382 4 
62 1683.226807 562.577881 4 
63 585.816101 562.802429 4 
64 1527.484741 561.043579 4 
65 1369.733154 560.287903 4 
66 738.723389 561.265381 4 
67 1210.997803 559.469971 4 
68 894.548523 560.012817 4 
69 1052.104492 558.208923 4 
70 467.812012 460.882294 4 
71 1808.757568 459.492401 4 
72 611.471680 457.787903 4 
73 1661.753540 457.216705 4 
74 758.217773 456.272400 4 
75 1512.419434 454.859497 4 
76 907.396729 454.632294 4 
77 1361.603271 453.781189 4 
78 1209.875854 453.515686 4 
79 1058.208862 453.343994 4 
80 497.541504 366.549713 4 
81 1783.106445 362.064911 4 
82 776.570190 361.072296 4 
83 1498.456421 359.071411 4 
84 1354.069458 358.159912 4 
85 1208.752563 357.690186 4 
86 919.219299 358.004303 4 
87 1063.626221 356.584503 4 
88 525.224976 279.766388 4 
89 658.303528 276.372192 4 
90 1758.855103 274.333893 4 
91 793.372986 273.542511 4 
92 1622.827148 272.457092 4 
93 930.524170 271.494904 4 
94 1485.420898 271.081909 4 
95 1346.930542 270.511200 4 
96 1068.829346 270.344391 4 
97 1207.810669 269.931610 4 
