ply
format ascii 1.0
element vertex 96
property float x
property float y
property char size
property char id
end_header
65.310600 1604.464844 4 11 
235.683395 1599.060547 4 10 
405.302002 1595.379395 4 9 
577.360229 1591.448242 4 7 
751.152527 1586.946045 4 5 
927.422485 1580.600342 4 3 
1104.525391 1572.683350 4 2 
1281.451050 1563.514648 4 4 
1457.198242 1552.593506 4 6 
1630.639160 1540.317383 4 8 
66.132202 1427.554565 4 19 
400.195892 1419.406494 4 18 
570.734924 1415.217651 4 16 
743.648926 1410.349487 4 15 
919.340576 1404.010254 4 13 
1096.028076 1396.250854 4 12 
1272.656250 1387.223022 4 14 
1620.920654 1365.358521 4 17 
66.441597 1254.017700 4 29 
230.035599 1249.237305 4 28 
395.942688 1244.696045 4 27 
564.464722 1239.745361 4 26 
736.692627 1234.074951 4 24 
911.650085 1227.393799 4 22 
1087.587158 1219.656250 4 20 
1263.615601 1210.949829 4 21 
1438.329590 1201.213257 4 23 
1610.226685 1190.646362 4 25 
65.655602 1082.803101 4 39 
229.109604 1077.209961 4 38 
392.994110 1071.424927 4 35 
560.043030 1065.182739 4 37 
730.558228 1058.547729 4 36 
904.652100 1051.671143 4 34 
1079.458252 1043.873657 4 33 
1254.392456 1035.386719 4 32 
1428.083252 1026.475952 4 31 
1598.610718 1017.181396 4 30 
68.025101 914.280884 4 48 
228.698807 907.527283 4 46 
391.618805 900.518677 4 44 
557.089172 892.929077 4 47 
725.848206 885.140381 4 49 
898.240601 877.861511 4 43 
1071.653442 870.070007 4 41 
1245.027832 862.043274 4 40 
1417.452026 853.496094 4 45 
1587.203613 845.353516 4 42 
72.499901 749.504089 4 52 
231.030197 741.310486 4 53 
392.081207 733.019470 4 57 
555.869507 724.292786 4 58 
722.710510 715.460022 4 59 
893.027588 707.949097 4 56 
1064.198853 699.920715 4 55 
1235.541992 691.858215 4 54 
1405.571045 685.002380 4 51 
1573.020386 678.185913 4 50 
78.129898 588.834717 4 60 
234.790894 579.380310 4 63 
393.977692 569.901917 4 66 
556.088074 560.424194 4 68 
720.625122 550.661926 4 69 
888.424316 542.590393 4 67 
1057.197021 534.631775 4 65 
1226.074951 527.186890 4 64 
1393.785889 520.683899 4 62 
1559.222168 514.899780 4 61 
84.021301 431.875000 4 70 
239.210495 421.527191 4 72 
396.942291 411.536987 4 74 
557.094788 401.389191 4 76 
719.630981 391.445801 4 79 
884.425110 382.683014 4 78 
1050.503418 374.436798 4 77 
1216.687378 367.414215 4 75 
1381.875610 361.869202 4 73 
1544.807617 357.042603 4 71 
91.161903 279.882812 4 80 
401.151215 258.836304 4 82 
558.676880 247.606400 4 86 
718.822815 237.438095 4 87 
881.163025 229.227097 4 85 
1044.383789 221.294403 4 84 
1207.588379 214.403198 4 83 
1530.574951 204.056107 4 81 
98.188301 132.129501 4 88 
251.409393 121.901299 4 89 
405.505707 111.303101 4 91 
561.387573 100.707001 4 93 
719.148499 90.889503 4 96 
878.286682 81.928703 4 97 
1038.515259 74.288498 4 95 
1198.672729 67.434700 4 94 
1358.196167 61.892502 4 92 
1516.131226 57.901798 4 90 
