ply
format ascii 1.0
element vertex 96
property char id
property float x
property float y
property char size
end_header
8 1088.367554 1570.944824 4 
6 954.582520 1438.488770 4 
17 1231.881104 1437.911011 4 
4 830.522705 1313.610107 4 
25 1367.138672 1311.311646 4 
14 970.869080 1197.310059 4 
2 716.264709 1196.788940 4 
23 1231.508789 1195.053223 4 
30 1493.749756 1191.462280 4 
12 854.021912 1087.203735 4 
3 610.806580 1087.075195 4 
21 1104.426025 1085.644653 4 
31 1358.433960 1081.937622 4 
42 1612.117188 1075.394043 4 
5 513.994324 984.970093 4 
13 746.002380 984.370483 4 
20 985.852783 982.391113 4 
32 1230.893921 978.958984 4 
45 1477.357178 973.493713 4 
50 1720.945557 970.984924 4 
7 425.578400 891.158813 4 
15 646.210876 888.076721 4 
22 875.732605 885.940918 4 
33 1111.335327 882.787720 4 
40 1349.910767 878.828613 4 
51 1587.792847 875.153809 4 
61 1822.140381 871.033325 4 
9 344.118011 803.610413 4 
16 554.846130 799.820312 4 
24 773.442322 794.835205 4 
34 999.732788 792.299500 4 
41 1230.056641 788.205200 4 
54 1461.403564 783.692688 4 
62 1690.533936 781.340698 4 
71 1915.881958 778.076782 4 
10 269.648193 723.523499 4 
18 470.428101 717.520325 4 
26 679.204773 711.287292 4 
36 895.435730 705.524719 4 
43 1117.456055 702.788025 4 
55 1341.726440 699.835510 4 
64 1565.354492 696.458984 4 
73 1786.134155 693.656921 4 
81 2003.319458 689.804199 4 
11 199.948898 647.577271 4 
27 592.415894 635.093689 4 
37 799.262817 628.020386 4 
49 1012.047791 621.590027 4 
56 1228.990845 620.112122 4 
65 1446.476807 616.933716 4 
75 1662.460449 613.316284 4 
90 2084.403564 608.863708 4 
19 320.799286 570.896179 4 
28 511.921906 563.431396 4 
35 710.064697 556.511475 4 
47 914.275085 549.186279 4 
59 1123.020020 543.609802 4 
67 1334.000244 541.733521 4 
77 1544.629761 538.357910 4 
83 1752.845215 536.640930 4 
92 1957.932739 534.729187 4 
29 437.371094 497.098999 4 
38 627.287720 489.549805 4 
44 823.071106 481.794403 4 
58 1024.002197 475.443787 4 
69 1227.911133 470.436188 4 
78 1432.734741 468.030090 4 
84 1636.355957 466.205505 4 
94 1837.278442 464.521088 4 
39 549.414978 424.216309 4 
46 737.871399 417.632294 4 
57 931.314697 411.556305 4 
68 1128.246582 406.184906 4 
79 1326.963501 401.659088 4 
85 1525.361816 399.604614 4 
95 1722.154297 398.369812 4 
48 658.418823 357.221100 4 
53 844.581909 351.138489 4 
66 1034.475586 345.240601 4 
76 1226.950684 340.248810 4 
87 1420.197144 335.863708 4 
97 1612.318970 335.241089 4 
52 763.510925 294.724213 4 
63 946.566101 288.347504 4 
74 1132.666870 282.529297 4 
86 1320.352051 277.714600 4 
96 1507.864380 276.221100 4 
60 864.117920 235.460403 4 
72 1043.951904 228.098404 4 
82 1225.891357 224.162094 4 
93 1408.530762 220.658401 4 
70 960.491882 178.315506 4 
91 1314.207275 168.731094 4 
80 1052.578857 125.177101 4 
89 1224.939941 120.154198 4 
88 1140.468140 74.781700 4 
