ply
format ascii 1.0
element vertex 96
property char id
property float x
property float y
property char size
end_header
8 674.875305 1655.941650 4 
17 826.284912 1623.784424 4 
25 964.956604 1593.064331 4 
30 1092.096191 1563.883911 4 
42 1212.120728 1537.283813 4 
50 1317.690063 1510.373169 4 
61 1417.190308 1485.920410 4 
6 671.474670 1482.348267 4 
71 1508.536743 1462.728882 4 
81 1594.280396 1441.220703 4 
23 963.580627 1433.810059 4 
90 1672.129150 1420.703247 4 
31 1092.178955 1411.194214 4 
45 1211.939209 1389.972046 4 
51 1318.440918 1369.112793 4 
62 1418.060547 1349.774658 4 
73 1509.830200 1331.701172 4 
4 668.614624 1305.892090 4 
92 1672.975464 1298.588013 4 
14 821.266418 1288.356445 4 
21 961.953308 1271.613403 4 
32 1091.763550 1255.618042 4 
40 1210.250732 1240.291748 4 
54 1319.844238 1225.786133 4 
64 1418.711426 1211.963379 4 
75 1511.165161 1199.030762 4 
83 1595.323120 1186.845093 4 
94 1673.370239 1175.419189 4 
2 666.583496 1126.807129 4 
12 820.113892 1116.893677 4 
20 961.276184 1107.265869 4 
33 1090.838989 1098.041626 4 
41 1210.111328 1089.276855 4 
55 1318.797729 1080.764404 4 
65 1418.607788 1072.824707 4 
77 1511.315674 1065.289795 4 
84 1595.340454 1058.185547 4 
95 1673.084229 1051.510742 4 
3 666.277893 946.199707 4 
13 819.633911 943.953125 4 
22 960.861328 941.671509 4 
34 1090.500244 939.367798 4 
43 1210.295654 937.063293 4 
56 1318.583374 934.934021 4 
67 1418.648193 932.888184 4 
78 1510.838745 930.811829 4 
85 1595.029541 928.883789 4 
97 1672.896240 927.071716 4 
96 1671.899292 802.815186 4 
87 1595.359741 799.661926 4 
79 1510.253174 796.424500 4 
69 1419.066528 792.803772 4 
59 1319.962158 788.865295 4 
49 1211.729858 784.664185 4 
36 1092.580933 780.300293 4 
24 962.010193 775.713196 4 
15 820.493530 770.656372 4 
5 667.174927 765.194397 4 
93 1670.313843 678.917603 4 
86 1593.452637 670.895325 4 
76 1508.448853 662.597473 4 
68 1416.706177 653.586975 4 
58 1317.802979 643.774902 4 
47 1209.879150 633.353027 4 
37 1091.531250 622.413025 4 
26 962.481384 610.740479 4 
16 821.083984 598.699280 4 
7 668.601074 585.692627 4 
91 1667.880859 555.854980 4 
82 1590.126343 543.402222 4 
74 1506.402954 529.804504 4 
66 1414.835449 515.562317 4 
57 1315.711182 500.227112 4 
44 1207.824951 483.855499 4 
35 1090.017578 466.586609 4 
27 961.894592 448.321411 4 
89 1664.856934 434.246185 4 
18 822.580017 428.942596 4 
9 671.357605 408.533600 4 
72 1504.387695 398.756897 4 
63 1412.676636 379.426788 4 
53 1314.207886 358.666687 4 
46 1207.108643 336.550690 4 
88 1661.262451 314.335114 4 
38 1089.076660 313.596710 4 
80 1584.076294 292.914703 4 
28 962.520203 288.880005 4 
70 1500.965210 270.043304 4 
60 1409.854126 245.851898 4 
10 674.065491 235.650208 4 
52 1312.530151 219.837494 4 
48 1206.965332 192.064896 4 
39 1091.151611 163.025604 4 
29 963.226685 133.414795 4 
19 826.670593 100.915802 4 
11 678.767578 66.395103 4 
