ply
format ascii 1.0
element vertex 96
property float x
property float y
property char size
property char id
end_header
1355.861084 1568.320435 4 5 
1180.847412 1568.056641 4 7 
1530.015137 1566.436523 4 3 
1006.125305 1566.323120 4 9 
1702.511841 1563.386719 4 2 
833.285889 1562.760376 4 10 
1873.508057 1560.114624 4 4 
662.685730 1558.350586 4 11 
2042.885010 1556.611816 4 6 
2212.189209 1554.076050 4 8 
1356.044434 1394.016968 4 15 
1181.121826 1394.009644 4 16 
1529.927856 1392.338501 4 13 
1006.528992 1392.711548 4 18 
1701.857910 1389.645264 4 12 
1871.586426 1386.374023 4 14 
663.899719 1386.013184 4 19 
2205.861572 1379.832520 4 17 
1181.320190 1219.465454 4 26 
1355.890381 1219.284912 4 24 
1007.281372 1218.577759 4 27 
1529.137939 1217.991089 4 22 
834.928772 1216.622314 4 28 
1700.352417 1215.912842 4 20 
1869.036011 1213.326904 4 21 
665.765930 1213.851074 4 29 
2035.241455 1210.479858 4 23 
2199.254150 1207.705322 4 25 
1355.193115 1044.775146 4 36 
1181.481567 1045.006714 4 37 
1008.292603 1044.714844 4 35 
1527.441650 1044.123169 4 34 
836.922607 1043.750977 4 38 
1697.751953 1042.851685 4 33 
667.661987 1042.137451 4 39 
1865.402344 1041.195435 4 32 
2030.092041 1039.412109 4 31 
2191.943115 1037.685181 4 30 
1181.561279 872.156982 4 47 
1009.661011 872.519104 4 44 
839.233521 872.299194 4 46 
671.625977 871.966187 4 48 
1860.163940 870.973694 4 40 
1693.989258 871.453674 4 41 
1525.015991 871.799988 4 43 
1353.956543 871.702209 4 49 
2185.591064 869.471191 4 42 
2024.357178 870.096130 4 45 
2174.241699 705.170471 4 50 
2015.076782 704.452393 4 51 
677.130188 704.996887 4 52 
842.844482 703.948730 4 53 
1853.763794 703.411621 4 54 
1688.719360 703.126221 4 55 
1521.400146 702.761414 4 56 
1011.373474 703.220825 4 57 
1352.130249 701.923401 4 59 
1181.553223 702.461670 4 58 
2163.749756 543.816528 4 61 
2005.595947 542.135803 4 62 
683.496887 542.290405 4 60 
1845.457642 540.373230 4 64 
847.052429 539.853088 4 63 
1682.424194 538.938477 4 65 
1013.487976 538.292908 4 66 
1517.073853 537.730286 4 67 
1181.517456 537.329224 4 68 
1349.792114 536.612427 4 69 
2152.087402 386.416992 4 71 
1995.207275 384.007599 4 73 
690.209106 383.835693 4 70 
1836.601440 381.202393 4 75 
851.594604 380.314392 4 72 
1675.490479 379.032593 4 77 
1512.014771 377.584290 4 78 
1015.740601 378.293701 4 74 
1181.330811 377.004486 4 76 
1347.188354 376.620911 4 79 
2140.727295 232.313797 4 81 
697.826477 231.226501 4 80 
1826.892212 227.576996 4 83 
1667.670044 225.247192 4 84 
1018.285583 224.479401 4 82 
1506.499146 223.359802 4 85 
1181.010742 222.201508 4 86 
1344.193604 221.658707 4 87 
705.520813 84.040604 4 88 
2128.726807 83.031601 4 90 
1973.167358 81.036400 4 92 
862.109802 79.531898 4 89 
1816.975586 78.821198 4 94 
1659.571899 76.721100 4 95 
1020.771118 76.288200 4 91 
1500.811157 74.782501 4 97 
1180.782104 74.354103 4 93 
1341.110840 73.945503 4 96 
