ply
format ascii 1.0
element vertex 94
property char id
property float x
property float y
property char size
end_header
89 1299.654541 1666.280396 4 
91 1214.426025 1604.919189 4 
80 1439.619141 1602.240845 4 
93 1122.923706 1538.630981 4 
70 1497.907959 1484.992188 4 
82 1281.782959 1478.015259 4 
96 1024.651489 1466.788086 4 
72 1425.456909 1422.557617 4 
86 1195.298950 1409.032227 4 
97 919.464294 1389.163086 4 
60 1552.751343 1371.109497 4 
74 1346.998291 1355.243652 4 
87 1101.834961 1334.191650 4 
63 1483.273071 1306.095825 4 
95 806.611816 1304.813843 4 
76 1263.386353 1282.976685 4 
52 1606.139160 1261.291016 4 
85 1000.291870 1253.090454 4 
66 1408.712891 1236.331543 4 
94 687.017822 1213.790283 4 
79 1174.291016 1205.373657 4 
53 1539.204712 1193.851685 4 
84 892.841125 1165.740356 4 
68 1328.982544 1161.524536 4 
48 1657.167847 1155.110962 4 
57 1467.738159 1121.767334 4 
78 1078.261963 1121.782593 4 
92 559.366821 1115.385498 4 
46 1592.423340 1085.698730 4 
69 1244.829468 1081.651123 4 
83 778.624878 1071.682617 4 
39 1704.668091 1052.691162 4 
58 1392.132080 1044.987671 4 
77 976.040527 1031.980591 4 
44 1523.829590 1011.648376 4 
90 424.116302 1009.541077 4 
67 1152.321045 995.569824 4 
38 1641.200439 981.601318 4 
59 1311.836792 962.890503 4 
29 1747.293213 954.297791 4 
47 1452.017090 933.088928 4 
75 867.183472 935.499084 4 
35 1576.556152 906.154907 4 
65 1054.571411 903.674805 4 
28 1688.827393 882.018127 4 
56 1222.900635 875.104004 4 
19 1789.565186 860.103882 4 
81 528.961487 862.572815 4 
49 1375.463135 849.387878 4 
73 751.009094 832.411499 4 
37 1508.049194 826.147217 4 
27 1626.466309 805.359985 4 
64 951.212280 805.508179 4 
55 1130.048340 781.696106 4 
11 1829.949951 769.877197 4 
43 1290.567993 760.306213 4 
36 1434.615356 741.204712 4 
26 1560.779175 724.301025 4 
71 628.684814 722.799316 4 
18 1673.421997 709.349182 4 
10 1774.804077 695.926208 4 
62 841.178772 701.240723 4 
54 1032.421875 682.264526 4 
41 1201.730835 665.792175 4 
34 1352.988647 651.489990 4 
24 1489.535767 638.656189 4 
16 1609.332153 627.638611 4 
9 1717.826538 617.916199 4 
61 725.160217 590.727783 4 
51 927.054199 577.214905 4 
40 1107.859375 565.918579 4 
33 1268.644165 556.543274 4 
22 1412.541992 548.544800 4 
15 1541.704712 541.633972 4 
7 1656.204468 535.849915 4 
50 816.706787 466.476898 4 
45 1010.072083 460.290192 4 
32 1179.750488 456.394714 4 
20 1332.066162 453.473907 4 
5 1591.172852 449.795105 4 
13 1468.451294 451.291595 4 
3 1521.279907 359.744598 4 
12 1391.537354 356.584503 4 
21 1246.817505 353.684814 4 
31 1085.203613 351.324799 4 
42 905.557922 349.476715 4 
2 1447.332642 265.483612 4 
14 1310.145020 257.307404 4 
23 1157.308594 249.019897 4 
30 985.096619 241.570404 4 
4 1370.013794 166.776398 4 
25 1062.696045 139.938904 4 
6 1288.394653 63.928600 4 
17 1135.231079 45.113400 4 
