ply
format ascii 1.0
element vertex 96
property double x
property double y
property char size
property char id
end_header
7.16264709472656e+02 1.19678894042969e+03 4 0 
6.10806579589844e+02 1.08707519531250e+03 4 1 
8.30522705078125e+02 1.31361010742188e+03 4 2 
5.13994323730469e+02 9.84970092773438e+02 4 3 
9.54582519531250e+02 1.43848876953125e+03 4 4 
4.25578399658203e+02 8.91158813476562e+02 4 5 
1.08836755371094e+03 1.57094482421875e+03 4 6 
3.44118011474609e+02 8.03610412597656e+02 4 7 
2.69648193359375e+02 7.23523498535156e+02 4 8 
1.99948898315430e+02 6.47577270507812e+02 4 9 
8.54021911621094e+02 1.08720373535156e+03 4 10 
7.46002380371094e+02 9.84370483398438e+02 4 11 
9.70869079589844e+02 1.19731005859375e+03 4 12 
6.46210876464844e+02 8.88076721191406e+02 4 13 
5.54846130371094e+02 7.99820312500000e+02 4 14 
1.23188110351562e+03 1.43791101074219e+03 4 15 
4.70428100585938e+02 7.17520324707031e+02 4 16 
3.20799285888672e+02 5.70896179199219e+02 4 17 
9.85852783203125e+02 9.82391113281250e+02 4 18 
1.10442602539062e+03 1.08564465332031e+03 4 19 
8.75732604980469e+02 8.85940917968750e+02 4 20 
1.23150878906250e+03 1.19505322265625e+03 4 21 
7.73442321777344e+02 7.94835205078125e+02 4 22 
1.36713867187500e+03 1.31131164550781e+03 4 23 
6.79204772949219e+02 7.11287292480469e+02 4 24 
5.92415893554688e+02 6.35093688964844e+02 4 25 
5.11921905517578e+02 5.63431396484375e+02 4 26 
4.37371093750000e+02 4.97098999023438e+02 4 27 
1.49374975585938e+03 1.19146228027344e+03 4 28 
1.35843395996094e+03 1.08193762207031e+03 4 29 
1.23089392089844e+03 9.78958984375000e+02 4 30 
1.11133532714844e+03 8.82787719726562e+02 4 31 
9.99732788085938e+02 7.92299499511719e+02 4 32 
7.10064697265625e+02 5.56511474609375e+02 4 33 
8.95435729980469e+02 7.05524719238281e+02 4 34 
7.99262817382812e+02 6.28020385742188e+02 4 35 
6.27287719726562e+02 4.89549804687500e+02 4 36 
5.49414978027344e+02 4.24216308593750e+02 4 37 
1.34991076660156e+03 8.78828613281250e+02 4 38 
1.23005664062500e+03 7.88205200195312e+02 4 39 
1.61211718750000e+03 1.07539404296875e+03 4 40 
1.11745605468750e+03 7.02788024902344e+02 4 41 
8.23071105957031e+02 4.81794403076172e+02 4 42 
1.47735717773438e+03 9.73493713378906e+02 4 43 
7.37871398925781e+02 4.17632293701172e+02 4 44 
9.14275085449219e+02 5.49186279296875e+02 4 45 
6.58418823242188e+02 3.57221099853516e+02 4 46 
1.01204779052734e+03 6.21590026855469e+02 4 47 
1.72094555664062e+03 9.70984924316406e+02 4 48 
1.58779284667969e+03 8.75153808593750e+02 4 49 
7.63510925292969e+02 2.94724212646484e+02 4 50 
8.44581909179688e+02 3.51138488769531e+02 4 51 
1.46140356445312e+03 7.83692687988281e+02 4 52 
1.34172644042969e+03 6.99835510253906e+02 4 53 
1.22899084472656e+03 6.20112121582031e+02 4 54 
9.31314697265625e+02 4.11556304931641e+02 4 55 
1.02400219726562e+03 4.75443786621094e+02 4 56 
1.12302001953125e+03 5.43609802246094e+02 4 57 
8.64117919921875e+02 2.35460403442383e+02 4 58 
1.82214038085938e+03 8.71033325195312e+02 4 59 
1.69053393554688e+03 7.81340698242188e+02 4 60 
9.46566101074219e+02 2.88347503662109e+02 4 61 
1.56535449218750e+03 6.96458984375000e+02 4 62 
1.44647680664062e+03 6.16933715820312e+02 4 63 
1.03447558593750e+03 3.45240600585938e+02 4 64 
1.33400024414062e+03 5.41733520507812e+02 4 65 
1.12824658203125e+03 4.06184906005859e+02 4 66 
1.22791113281250e+03 4.70436187744141e+02 4 67 
9.60491882324219e+02 1.78315505981445e+02 4 68 
1.91588195800781e+03 7.78076782226562e+02 4 69 
1.04395190429688e+03 2.28098403930664e+02 4 70 
1.78613415527344e+03 6.93656921386719e+02 4 71 
1.13266687011719e+03 2.82529296875000e+02 4 72 
1.66246044921875e+03 6.13316284179688e+02 4 73 
1.22695068359375e+03 3.40248809814453e+02 4 74 
1.54462976074219e+03 5.38357910156250e+02 4 75 
1.43273474121094e+03 4.68030090332031e+02 4 76 
1.32696350097656e+03 4.01659088134766e+02 4 77 
1.05257885742188e+03 1.25177101135254e+02 4 78 
2.00331945800781e+03 6.89804199218750e+02 4 79 
1.22589135742188e+03 2.24162094116211e+02 4 80 
1.75284521484375e+03 5.36640930175781e+02 4 81 
1.63635595703125e+03 4.66205505371094e+02 4 82 
1.52536181640625e+03 3.99604614257812e+02 4 83 
1.32035205078125e+03 2.77714599609375e+02 4 84 
1.42019714355469e+03 3.35863708496094e+02 4 85 
1.14046813964844e+03 7.47817001342773e+01 4 86 
1.22493994140625e+03 1.20154197692871e+02 4 87 
2.08440356445312e+03 6.08863708496094e+02 4 88 
1.31420727539062e+03 1.68731094360352e+02 4 89 
1.95793273925781e+03 5.34729187011719e+02 4 90 
1.40853076171875e+03 2.20658401489258e+02 4 91 
1.83727844238281e+03 4.64521087646484e+02 4 92 
1.72215429687500e+03 3.98369812011719e+02 4 93 
1.50786437988281e+03 2.76221099853516e+02 4 94 
1.61231896972656e+03 3.35241088867188e+02 4 95 
