ply
format ascii 1.0
element vertex 96
property float x
property float y
property char size
property char id
end_header
1429.187134 1456.427856 4 2 
1217.855713 1456.179810 4 3 
1638.514771 1454.081055 4 4 
1006.236206 1453.781982 4 5 
1844.464355 1450.382324 4 6 
797.028870 1449.838745 4 7 
2047.139526 1446.266235 4 8 
591.414429 1443.869751 4 9 
391.612793 1437.682983 4 10 
195.661499 1429.849121 4 11 
1418.139160 1270.016357 4 12 
1216.827271 1269.937744 4 13 
1617.493896 1268.760254 4 14 
1015.135803 1267.702637 4 15 
815.691223 1265.042114 4 16 
2005.894775 1262.244507 4 17 
619.749512 1260.900391 4 18 
243.437195 1250.794556 4 19 
1407.520752 1099.988159 4 20 
1597.573120 1099.404663 4 21 
1215.660278 1099.773682 4 22 
1784.541138 1097.554810 4 23 
1023.472473 1097.308594 4 24 
1967.432495 1095.675293 4 25 
833.021973 1095.161377 4 26 
646.437683 1093.725220 4 27 
464.194305 1090.711182 4 28 
287.219086 1087.544800 4 29 
1931.434326 944.362915 4 30 
1757.062500 944.233826 4 31 
1578.647339 944.529602 4 32 
1397.348633 945.071594 4 33 
1214.470947 944.758423 4 34 
671.610107 941.270508 4 35 
1031.201416 941.465210 4 36 
849.780823 941.225098 4 37 
497.625702 940.446106 4 38 
326.861389 936.235474 4 39 
1560.590576 804.248474 4 40 
1387.701660 803.828674 4 41 
1898.998779 803.051086 4 42 
1213.241943 802.861023 4 43 
695.385681 802.247192 4 44 
1731.489624 802.870483 4 45 
528.413391 801.638977 4 46 
865.558228 801.268799 4 47 
365.390991 800.190308 4 48 
1038.519775 800.330383 4 49 
1866.174683 679.497803 4 50 
1706.291260 678.078125 4 51 
402.036896 677.315918 4 52 
558.069824 676.664978 4 53 
1543.588745 675.828796 4 54 
1378.425659 676.262573 4 55 
1212.095337 675.704773 4 56 
717.764526 676.145325 4 57 
880.501404 674.786316 4 58 
1045.563843 673.314880 4 59 
436.243988 565.022583 4 60 
1836.664551 564.304382 4 61 
1683.226807 562.577881 4 62 
585.816101 562.802429 4 63 
1527.484741 561.043579 4 64 
1369.733154 560.287903 4 65 
738.723389 561.265381 4 66 
1210.997803 559.469971 4 67 
894.548523 560.012817 4 68 
1052.104492 558.208923 4 69 
467.812012 460.882294 4 70 
1808.757568 459.492401 4 71 
611.471680 457.787903 4 72 
1661.753540 457.216705 4 73 
758.217773 456.272400 4 74 
1512.419434 454.859497 4 75 
907.396729 454.632294 4 76 
1361.603271 453.781189 4 77 
1209.875854 453.515686 4 78 
1058.208862 453.343994 4 79 
497.541504 366.549713 4 80 
1783.106445 362.064911 4 81 
776.570190 361.072296 4 82 
1498.456421 359.071411 4 83 
1354.069458 358.159912 4 84 
1208.752563 357.690186 4 85 
919.219299 358.004303 4 86 
1063.626221 356.584503 4 87 
525.224976 279.766388 4 88 
658.303528 276.372192 4 89 
1758.855103 274.333893 4 90 
793.372986 273.542511 4 91 
1622.827148 272.457092 4 92 
930.524170 271.494904 4 93 
1485.420898 271.081909 4 94 
1346.930542 270.511200 4 95 
1068.829346 270.344391 4 96 
1207.810669 269.931610 4 97 
