ply
format ascii 1.0
element vertex 93
property char id
property float x
property float y
property char size
end_header
92 1268.242920 1678.982422 4 
71 1030.301147 1628.214111 4 
94 1342.584351 1564.224365 4 
61 942.867493 1533.072144 4 
73 1118.757446 1505.239746 4 
83 1274.914795 1479.146240 4 
95 1412.799072 1454.640869 4 
50 849.151978 1430.369873 4 
62 1036.591675 1408.544678 4 
75 1203.124023 1387.970215 4 
84 1349.423340 1368.334717 4 
97 1479.904663 1350.032715 4 
42 751.550720 1320.297852 4 
51 948.876892 1304.676514 4 
64 1125.422363 1290.012939 4 
77 1282.091431 1276.177490 4 
85 1420.012695 1262.754761 4 
96 1542.981201 1250.411255 4 
30 643.262878 1200.393677 4 
45 857.277405 1193.244751 4 
54 1044.160278 1185.419067 4 
65 1208.919800 1177.459473 4 
78 1356.460449 1169.885132 4 
87 1487.723267 1162.646973 4 
93 1602.427368 1155.579102 4 
55 1131.947998 1072.163696 4 
40 955.779785 1073.058105 4 
79 1426.804443 1069.200317 4 
67 1288.079712 1070.753052 4 
31 756.435181 1073.243042 4 
86 1549.830444 1067.415039 4 
91 1658.121460 1065.365234 4 
25 531.799194 1072.482056 4 
89 1710.327148 979.880981 4 
82 1607.273926 977.162170 4 
76 1492.170532 973.981812 4 
69 1363.352661 970.056396 4 
56 1215.592773 965.421814 4 
41 1050.164185 960.040894 4 
32 863.022827 953.323792 4 
23 651.623413 945.260315 4 
17 414.257202 935.700317 4 
88 1759.262573 899.025024 4 
74 1553.783325 883.954895 4 
68 1431.435303 875.126892 4 
59 1295.934814 865.023499 4 
43 1139.343994 853.601685 4 
33 962.829285 840.699890 4 
21 764.439514 825.996399 4 
80 1713.432739 811.289429 4 
72 1611.808716 799.210327 4 
66 1496.214844 785.759583 4 
8 290.641907 790.473999 4 
58 1367.954346 770.875427 4 
49 1224.277832 753.866028 4 
34 1056.890259 735.322510 4 
70 1665.165527 719.331787 4 
20 871.080078 714.560608 4 
63 1556.860718 701.850403 4 
14 661.466309 691.444519 4 
57 1435.594849 682.571411 4 
47 1300.422119 660.950806 4 
6 426.508911 665.689880 4 
36 1147.271118 636.852295 4 
60 1613.191528 623.078491 4 
22 970.926575 610.765625 4 
53 1499.612549 599.900574 4 
12 774.744873 581.848572 4 
44 1371.449219 574.170105 4 
37 1228.322021 545.684998 4 
4 554.399780 549.867004 4 
52 1559.387329 522.523376 4 
24 1065.421753 514.317993 4 
46 1439.093872 493.122589 4 
13 880.744507 480.319214 4 
35 1303.331421 460.965515 4 
2 674.145630 442.969391 4 
26 1152.309448 425.197510 4 
48 1502.737549 417.520599 4 
15 980.198486 386.367615 4 
38 1373.647705 382.321198 4 
27 1231.775635 342.962097 4 
3 786.727112 344.151215 4 
39 1442.026245 308.458313 4 
16 1071.534180 300.191193 4 
28 1306.566162 266.723114 4 
5 891.705811 253.264206 4 
18 1156.840576 220.492798 4 
29 1375.829468 196.070297 4 
7 988.401001 170.231003 4 
9 1078.653687 93.578300 4 
19 1309.032837 79.207298 4 
10 1161.323242 23.528000 4 
