ply
format ascii 1.0
element vertex 96
property float x
property float y
property char size
property char id
end_header
1706.939087 1404.281494 4 71 
1482.449829 1403.642944 4 61 
2149.991943 1402.034302 4 90 
1929.713745 1402.470947 4 81 
1256.632080 1401.294922 4 50 
1031.733643 1394.680298 4 42 
811.676819 1389.952148 4 30 
596.938904 1380.901855 4 25 
389.577209 1371.196045 4 17 
189.758606 1361.990356 4 8 
1689.530762 1201.050415 4 73 
2109.571533 1199.838623 4 92 
1475.377930 1200.244873 4 62 
1259.811035 1198.220947 4 51 
1045.011719 1193.037720 4 45 
834.171814 1190.050659 4 31 
628.688293 1184.287354 4 23 
239.512695 1171.379395 4 6 
2072.210938 1015.872803 4 94 
1873.902832 1015.498718 4 83 
1672.585938 1014.424011 4 75 
1468.057983 1013.850403 4 64 
1262.492920 1011.159912 4 54 
1057.582642 1009.703918 4 40 
855.791992 1006.781799 4 32 
659.314880 1004.005188 4 21 
469.290802 1000.571594 4 14 
286.034088 996.510986 4 4 
2036.927734 848.571899 4 95 
1847.863525 846.893311 4 84 
1655.717407 844.781799 4 77 
1460.612061 844.076782 4 65 
1264.614014 842.401306 4 55 
1069.068359 840.687012 4 41 
876.482300 839.691772 4 33 
688.208374 838.395691 4 20 
505.907990 837.237976 4 12 
330.056885 836.292603 4 2 
2003.789307 695.130615 4 97 
1822.887329 692.812927 4 85 
1639.176514 690.413818 4 78 
371.177704 688.645325 4 3 
1453.099365 688.950195 4 67 
540.605713 687.870728 4 13 
1266.179443 687.733582 4 56 
715.456421 687.130981 4 22 
895.619080 686.880310 4 34 
1079.684448 686.151489 4 43 
1972.425903 555.619202 4 96 
410.178589 553.339172 4 5 
1799.582153 551.310608 4 87 
573.080688 550.614990 4 15 
1623.507812 549.603882 4 79 
740.843872 547.871704 4 24 
1445.967041 546.878723 4 69 
913.171326 545.138428 4 36 
1267.458252 545.015686 4 59 
1089.251343 543.990173 4 49 
447.240692 430.634094 4 7 
1942.823975 428.170685 4 93 
604.075073 426.896393 4 16 
1776.862549 424.106689 4 86 
1608.357422 422.366302 4 76 
764.968018 422.323303 4 26 
1438.609619 420.763306 4 68 
930.187073 419.955597 4 37 
1268.357666 419.058685 4 58 
1098.412598 418.599091 4 47 
482.022705 317.718414 4 9 
633.065918 313.285187 4 18 
1914.932617 312.006805 4 91 
787.730713 309.441803 4 27 
1755.263428 309.110199 4 82 
945.971375 306.510712 4 35 
1594.235352 306.174286 4 74 
1431.761841 304.808685 4 66 
1269.037720 304.156006 4 57 
1106.669189 304.489197 4 44 
514.850830 215.485504 4 10 
1888.925049 205.893005 4 89 
808.836914 205.428604 4 28 
960.533020 202.568893 4 38 
1581.140381 199.681503 4 72 
1425.416016 199.059998 4 63 
1269.681274 198.446106 4 53 
1114.328613 198.923492 4 46 
544.839172 119.835297 4 11 
685.289001 115.030197 4 19 
828.246826 110.454102 4 29 
1864.623047 108.581902 4 88 
1716.955444 105.820999 4 80 
973.585327 104.133102 4 39 
1568.549194 103.315697 4 70 
1419.308350 102.693100 4 60 
1270.135010 101.782898 4 52 
1121.301758 101.750099 4 48 
