ply
format ascii 1.0
element vertex 96
property double x
property double y
property char size
property char id
end_header
1.42918713378906e+03 1.45642785644531e+03 4 0 
1.21785571289062e+03 1.45617980957031e+03 4 1 
1.63851477050781e+03 1.45408105468750e+03 4 2 
1.00623620605469e+03 1.45378198242188e+03 4 3 
1.84446435546875e+03 1.45038232421875e+03 4 4 
7.97028869628906e+02 1.44983874511719e+03 4 5 
2.04713952636719e+03 1.44626623535156e+03 4 6 
5.91414428710938e+02 1.44386975097656e+03 4 7 
3.91612792968750e+02 1.43768298339844e+03 4 8 
1.95661499023438e+02 1.42984912109375e+03 4 9 
1.41813916015625e+03 1.27001635742188e+03 4 10 
1.21682727050781e+03 1.26993774414062e+03 4 11 
1.61749389648438e+03 1.26876025390625e+03 4 12 
1.01513580322266e+03 1.26770263671875e+03 4 13 
8.15691223144531e+02 1.26504211425781e+03 4 14 
2.00589477539062e+03 1.26224450683594e+03 4 15 
6.19749511718750e+02 1.26090039062500e+03 4 16 
2.43437194824219e+02 1.25079455566406e+03 4 17 
1.40752075195312e+03 1.09998815917969e+03 4 18 
1.59757312011719e+03 1.09940466308594e+03 4 19 
1.21566027832031e+03 1.09977368164062e+03 4 20 
1.78454113769531e+03 1.09755480957031e+03 4 21 
1.02347247314453e+03 1.09730859375000e+03 4 22 
1.96743249511719e+03 1.09567529296875e+03 4 23 
8.33021972656250e+02 1.09516137695312e+03 4 24 
6.46437683105469e+02 1.09372521972656e+03 4 25 
4.64194305419922e+02 1.09071118164062e+03 4 26 
2.87219085693359e+02 1.08754479980469e+03 4 27 
1.93143432617188e+03 9.44362915039062e+02 4 28 
1.75706250000000e+03 9.44233825683594e+02 4 29 
1.57864733886719e+03 9.44529602050781e+02 4 30 
1.39734863281250e+03 9.45071594238281e+02 4 31 
1.21447094726562e+03 9.44758422851562e+02 4 32 
6.71610107421875e+02 9.41270507812500e+02 4 33 
1.03120141601562e+03 9.41465209960938e+02 4 34 
8.49780822753906e+02 9.41225097656250e+02 4 35 
4.97625701904297e+02 9.40446105957031e+02 4 36 
3.26861389160156e+02 9.36235473632812e+02 4 37 
1.56059057617188e+03 8.04248474121094e+02 4 38 
1.38770166015625e+03 8.03828674316406e+02 4 39 
1.89899877929688e+03 8.03051086425781e+02 4 40 
1.21324194335938e+03 8.02861022949219e+02 4 41 
6.95385681152344e+02 8.02247192382812e+02 4 42 
1.73148962402344e+03 8.02870483398438e+02 4 43 
5.28413391113281e+02 8.01638977050781e+02 4 44 
8.65558227539062e+02 8.01268798828125e+02 4 45 
3.65390991210938e+02 8.00190307617188e+02 4 46 
1.03851977539062e+03 8.00330383300781e+02 4 47 
1.86617468261719e+03 6.79497802734375e+02 4 48 
1.70629125976562e+03 6.78078125000000e+02 4 49 
4.02036895751953e+02 6.77315917968750e+02 4 50 
5.58069824218750e+02 6.76664978027344e+02 4 51 
1.54358874511719e+03 6.75828796386719e+02 4 52 
1.37842565917969e+03 6.76262573242188e+02 4 53 
1.21209533691406e+03 6.75704772949219e+02 4 54 
7.17764526367188e+02 6.76145324707031e+02 4 55 
8.80501403808594e+02 6.74786315917969e+02 4 56 
1.04556384277344e+03 6.73314880371094e+02 4 57 
4.36243988037109e+02 5.65022583007812e+02 4 58 
1.83666455078125e+03 5.64304382324219e+02 4 59 
1.68322680664062e+03 5.62577880859375e+02 4 60 
5.85816101074219e+02 5.62802429199219e+02 4 61 
1.52748474121094e+03 5.61043579101562e+02 4 62 
1.36973315429688e+03 5.60287902832031e+02 4 63 
7.38723388671875e+02 5.61265380859375e+02 4 64 
1.21099780273438e+03 5.59469970703125e+02 4 65 
8.94548522949219e+02 5.60012817382812e+02 4 66 
1.05210449218750e+03 5.58208923339844e+02 4 67 
4.67812011718750e+02 4.60882293701172e+02 4 68 
1.80875756835938e+03 4.59492401123047e+02 4 69 
6.11471679687500e+02 4.57787902832031e+02 4 70 
1.66175354003906e+03 4.57216705322266e+02 4 71 
7.58217773437500e+02 4.56272399902344e+02 4 72 
1.51241943359375e+03 4.54859497070312e+02 4 73 
9.07396728515625e+02 4.54632293701172e+02 4 74 
1.36160327148438e+03 4.53781188964844e+02 4 75 
1.20987585449219e+03 4.53515686035156e+02 4 76 
1.05820886230469e+03 4.53343994140625e+02 4 77 
4.97541503906250e+02 3.66549713134766e+02 4 78 
1.78310644531250e+03 3.62064910888672e+02 4 79 
7.76570190429688e+02 3.61072296142578e+02 4 80 
1.49845642089844e+03 3.59071411132812e+02 4 81 
1.35406945800781e+03 3.58159912109375e+02 4 82 
1.20875256347656e+03 3.57690185546875e+02 4 83 
9.19219299316406e+02 3.58004302978516e+02 4 84 
1.06362622070312e+03 3.56584503173828e+02 4 85 
5.25224975585938e+02 2.79766387939453e+02 4 86 
6.58303527832031e+02 2.76372192382812e+02 4 87 
1.75885510253906e+03 2.74333892822266e+02 4 88 
7.93372985839844e+02 2.73542510986328e+02 4 89 
1.62282714843750e+03 2.72457092285156e+02 4 90 
9.30524169921875e+02 2.71494903564453e+02 4 91 
1.48542089843750e+03 2.71081909179688e+02 4 92 
1.34693054199219e+03 2.70511199951172e+02 4 93 
1.06882934570312e+03 2.70344390869141e+02 4 94 
1.20781066894531e+03 2.69931610107422e+02 4 95 
