ply
format ascii 1.0
element vertex 96
property float x
property float y
property char size
property char id
end_header
1151.004272 1621.590088 4 52 
1323.565430 1620.896851 4 48 
980.779114 1620.825928 4 60 
813.053894 1619.216187 4 70 
1497.354248 1617.938599 4 39 
649.463318 1615.718872 4 80 
490.009308 1611.666382 4 88 
1670.572144 1612.141602 4 29 
1843.652466 1606.893799 4 19 
2016.868896 1601.630615 4 11 
973.736023 1456.343628 4 63 
1145.748047 1455.808716 4 53 
804.493896 1455.930786 4 72 
1320.068481 1453.796875 4 46 
479.826813 1450.751709 4 89 
1495.076538 1449.393555 4 38 
1669.994019 1444.506348 4 28 
2016.438354 1431.727051 4 10 
796.774597 1288.491943 4 74 
631.127930 1287.943848 4 82 
967.059021 1287.676636 4 66 
470.276794 1287.021362 4 91 
1140.515747 1285.939697 4 57 
1316.280884 1282.832031 4 44 
1492.803955 1278.417847 4 35 
1668.854004 1272.978027 4 27 
1843.454102 1266.802979 4 18 
2016.570312 1260.134033 4 9 
461.643585 1120.520020 4 93 
622.393616 1119.669678 4 86 
789.350403 1117.857788 4 76 
960.554504 1115.563721 4 68 
1135.004395 1112.712036 4 58 
1311.998901 1108.911743 4 47 
1489.774048 1104.067017 4 37 
1666.828857 1098.475830 4 26 
1841.843384 1092.121460 4 16 
2015.192261 1085.773926 4 7 
454.399811 951.991211 4 96 
615.214600 948.890930 4 87 
782.575195 945.080994 4 79 
954.115784 941.272583 4 69 
1129.408936 936.943726 4 59 
1307.211914 932.223206 4 49 
1485.784058 926.973572 4 36 
1663.317261 921.298279 4 24 
1838.993896 915.636414 4 15 
2012.753296 909.927795 4 5 
448.597687 782.666077 4 97 
610.107483 776.927185 4 85 
777.032776 771.137085 4 78 
948.933411 765.227722 4 67 
1124.330566 759.496521 4 56 
1302.018921 753.899719 4 43 
1480.399048 748.352600 4 34 
1658.038330 743.026611 4 22 
1833.865967 737.886414 4 13 
2007.606079 732.970520 4 3 
444.268890 613.183594 4 95 
605.575378 605.092773 4 84 
772.153198 597.223694 4 77 
943.968323 589.724304 4 65 
1118.929688 582.623108 4 55 
1296.271729 576.110779 4 41 
1474.295166 570.389404 4 33 
1651.671143 565.267883 4 20 
1827.286987 560.641602 4 12 
2000.811157 556.383911 4 2 
440.947906 444.927612 4 94 
602.185181 434.740997 4 83 
768.323914 424.904510 4 75 
939.428711 415.772003 4 64 
1113.508179 407.301208 4 54 
1290.173828 400.222290 4 40 
1467.473511 394.061096 4 32 
1644.201050 389.035400 4 21 
1819.504272 384.753906 4 14 
1993.361572 380.881500 4 4 
438.707092 278.436890 4 92 
765.602600 255.242096 4 73 
935.474121 244.808807 4 62 
1108.537109 235.379196 4 51 
1283.746948 226.514603 4 45 
1459.992432 220.535599 4 31 
1635.948853 215.277206 4 23 
1984.572021 207.130096 4 6 
437.467010 114.253502 4 90 
597.844421 100.969704 4 81 
763.246582 88.791702 4 71 
931.846313 77.109901 4 61 
1103.556763 66.953102 4 50 
1277.235962 56.679298 4 42 
1452.047729 50.950001 4 30 
1627.028442 44.831200 4 25 
1801.531860 39.691700 4 17 
1975.430420 35.256199 4 8 
