ply
format ascii 1.0
element vertex 96
property float x
property float y
property char size
property char id
end_header
802.572998 1429.206299 4 60 
587.883118 1429.064331 4 70 
378.190308 1427.992065 4 80 
172.693298 1426.767334 4 88 
1020.130310 1426.810059 4 52 
1239.328491 1421.901001 4 48 
1457.468506 1415.289429 4 39 
1670.845581 1408.399780 4 29 
1880.049805 1398.997925 4 19 
2084.984131 1389.042847 4 11 
209.617096 1230.094360 4 89 
606.096680 1229.448975 4 72 
811.973877 1228.821045 4 63 
1020.718506 1226.135498 4 53 
1230.855591 1221.811768 4 46 
1439.496338 1217.212769 4 38 
1645.003174 1210.116943 4 28 
2040.397949 1195.433594 4 10 
244.453094 1049.290527 4 91 
432.156494 1047.871948 4 82 
624.618774 1045.845703 4 74 
821.720093 1043.637451 4 66 
1021.733521 1040.605103 4 57 
1223.025757 1036.381348 4 44 
1423.147949 1032.051147 4 35 
1620.084839 1026.896729 4 27 
1812.374634 1021.561829 4 18 
1999.674072 1015.884521 4 9 
277.741211 882.800171 4 93 
457.448212 878.918884 4 86 
642.523621 876.266174 4 76 
831.445923 873.078003 4 68 
1022.816528 869.247009 4 58 
1215.604614 865.107727 4 47 
1407.317871 861.334106 4 37 
1596.184326 857.645386 4 26 
1780.396729 854.896973 4 16 
1960.251953 851.307373 4 7 
309.932190 729.877197 4 96 
482.276611 724.336121 4 87 
659.959229 720.474121 4 79 
840.663513 715.967285 4 69 
1024.031250 711.657715 4 59 
1208.519043 707.528503 4 49 
1392.089355 704.867371 4 36 
1573.001953 703.059326 4 24 
1749.999390 701.481323 4 15 
1922.808594 699.782227 4 5 
340.595398 589.440430 4 97 
506.971985 584.066101 4 85 
676.872803 578.902893 4 78 
850.396790 574.249878 4 67 
1025.825562 570.275330 4 56 
1201.955688 567.091614 4 43 
1377.224731 564.935730 4 34 
1550.476440 563.177917 4 22 
1720.618042 562.158325 4 13 
1886.817749 562.060181 4 3 
369.861694 460.521393 4 95 
529.879089 454.294403 4 84 
692.887390 448.528015 4 77 
859.427185 444.144196 4 65 
1027.202026 439.927399 4 55 
1195.611938 436.557587 4 41 
1852.713989 434.892487 4 2 
1363.536743 435.190399 4 33 
1692.877686 434.216095 4 12 
1529.702881 434.332489 4 20 
397.221191 341.420898 4 94 
551.555176 335.217010 4 83 
708.271729 329.325714 4 75 
868.190430 324.627502 4 64 
1028.539307 320.142303 4 54 
1820.983032 318.062500 4 4 
1190.087158 317.997192 4 40 
1666.865356 317.003998 4 14 
1510.089355 316.338898 4 21 
1350.973267 316.429291 4 32 
423.010498 232.040207 4 92 
723.202087 220.630203 4 73 
875.764404 216.009506 4 62 
1030.251221 212.173401 4 51 
1791.100952 210.718201 4 6 
1491.892212 207.864197 4 23 
1339.022949 207.766006 4 31 
1184.948853 207.383606 4 45 
447.272614 131.147995 4 90 
590.709229 124.903000 4 81 
736.751892 120.770103 4 71 
883.439880 115.760300 4 61 
1031.567261 112.436798 4 50 
1763.305542 111.646103 4 8 
1619.989380 109.303299 4 17 
1327.858521 109.295197 4 30 
1474.758545 108.659698 4 25 
1180.012939 107.180298 4 42 
