ply
format ascii 1.0
element vertex 96
property char id
property float x
property float y
property char size
end_header
11 1269.928101 1502.900513 4 
19 1114.255859 1383.566528 4 
10 1396.972778 1361.356445 4 
29 969.045410 1270.243042 4 
9 1514.455688 1227.148926 4 
39 833.592590 1161.573120 4 
28 1098.171753 1145.100708 4 
18 1362.454590 1124.614258 4 
7 1622.247681 1102.809570 4 
48 708.879272 1061.985107 4 
38 963.019287 1046.812744 4 
27 1219.053955 1027.369141 4 
16 1472.993774 1007.641479 4 
5 1720.963989 987.126282 4 
52 594.598572 970.114929 4 
46 837.216980 953.068176 4 
35 1084.275269 935.807373 4 
26 1331.392212 916.297974 4 
15 1574.753174 898.444824 4 
60 489.561707 884.683594 4 
3 1810.613647 881.224487 4 
53 721.101624 867.243530 4 
44 958.488770 849.860779 4 
37 1197.682007 831.219910 4 
24 1435.572388 814.052673 4 
70 392.342194 804.277893 4 
13 1668.170532 798.525330 4 
63 614.079773 787.439026 4 
2 1893.354004 782.610718 4 
57 841.394714 770.092712 4 
47 1072.128296 751.542114 4 
36 1303.408447 733.960999 4 
80 303.234406 730.570679 4 
22 1531.688477 720.484680 4 
72 514.848328 712.360718 4 
12 1753.839233 705.469727 4 
66 733.026428 695.751526 4 
4 1969.106567 691.432800 4 
58 954.891785 677.833191 4 
88 220.539902 661.921082 4 
49 1178.796143 659.439270 4 
34 1401.725952 646.942688 4 
20 1620.383911 632.642212 4 
74 632.298523 626.349915 4 
14 1832.914307 619.378784 4 
68 845.818970 609.303406 4 
6 2038.995728 606.678528 4 
59 1061.750122 590.896912 4 
89 339.062805 580.197693 4 
43 1278.561157 576.978699 4 
33 1492.902954 563.781372 4 
82 539.257324 562.480896 4 
21 1702.418945 550.919189 4 
76 744.073425 544.706421 4 
8 2103.779297 527.768799 4 
69 952.298096 527.056274 4 
56 1162.532104 513.052612 4 
91 452.624115 502.664398 4 
41 1371.516724 498.727692 4 
32 1577.018799 486.115601 4 
86 649.102722 484.141388 4 
23 1778.190430 474.807709 4 
79 850.069092 467.643188 4 
17 1973.636597 464.143311 4 
67 1053.232788 452.623505 4 
55 1256.583374 438.483887 4 
93 561.254883 429.348389 4 
40 1457.965088 425.511108 4 
31 1655.906494 414.213196 4 
87 754.147522 411.080505 4 
25 1848.224365 404.453888 4 
78 950.465027 396.175995 4 
65 1147.987061 382.135590 4 
54 1344.464233 367.895294 4 
96 665.166809 360.336700 4 
45 1538.640991 355.491302 4 
30 1728.537598 348.235199 4 
85 854.295715 344.100189 4 
77 1045.393555 328.644196 4 
64 1237.013062 315.745514 4 
51 1426.832031 304.164703 4 
97 764.152405 295.293213 4 
42 1613.820557 291.630798 4 
84 949.187073 279.920105 4 
75 1134.942139 265.584015 4 
62 1320.462158 254.223099 4 
50 1503.566528 243.958893 4 
95 858.521301 234.246399 4 
83 1038.812866 219.539200 4 
73 1219.468018 207.208206 4 
61 1398.873047 196.442993 4 
94 948.004211 176.139496 4 
71 1298.864502 152.238907 4 
92 1032.770386 121.728996 4 
81 1203.596924 109.372803 4 
90 1113.292725 70.623596 4 
