ply
format ascii 1.0
element vertex 93
property char id
property float x
property float y
property char size
end_header
19 1340.897339 1625.449341 4 
10 1486.216553 1601.530151 4 
29 1267.370728 1530.732422 4 
9 1559.327393 1494.169434 4 
39 1191.250977 1430.145996 4 
28 1352.903442 1416.405151 4 
18 1498.161987 1403.687744 4 
7 1627.124512 1391.490845 4 
48 1107.646118 1321.621582 4 
38 1278.861084 1314.498901 4 
27 1433.298950 1307.572510 4 
16 1569.507568 1300.537109 4 
5 1691.088135 1293.806152 4 
26 1509.415771 1204.506592 4 
35 1364.154419 1205.421509 4 
15 1636.701050 1202.699951 4 
46 1201.800659 1206.101929 4 
3 1750.010132 1201.015869 4 
52 1018.044800 1205.509155 4 
2 1805.299805 1112.571289 4 
13 1698.448242 1109.779785 4 
24 1579.528198 1106.486694 4 
37 1444.286011 1102.519165 4 
44 1290.856323 1096.865601 4 
53 1118.332886 1090.323242 4 
60 923.598328 1081.850586 4 
4 1857.920532 1029.334717 4 
12 1756.567749 1021.910583 4 
22 1643.703125 1013.868591 4 
36 1518.926880 1004.993774 4 
47 1375.156982 994.443115 4 
57 1212.412842 981.867493 4 
63 1030.162476 967.404602 4 
6 1906.952148 950.176392 4 
70 825.010620 950.565674 4 
14 1811.033081 938.847595 4 
20 1704.757935 926.671509 4 
34 1585.574951 912.902405 4 
49 1453.997559 897.614197 4 
8 1953.208008 875.028198 4 
58 1301.073242 879.961487 4 
66 1129.918823 859.966675 4 
21 1761.837891 844.361694 4 
72 938.116272 837.337524 4 
33 1649.822754 826.628723 4 
43 1524.438477 806.986511 4 
80 721.257996 811.720581 4 
17 1910.960083 786.325623 4 
59 1384.152466 784.589905 4 
23 1815.633057 767.000610 4 
68 1223.201660 759.556213 4 
32 1709.905884 745.840393 4 
74 1043.127197 731.802307 4 
41 1591.915649 721.747009 4 
25 1865.527222 694.221985 4 
56 1459.044556 695.351379 4 
31 1766.097656 669.306091 4 
69 1310.557495 666.140015 4 
88 613.527100 666.245483 4 
40 1654.560059 642.350525 4 
76 1141.704956 633.346130 4 
55 1529.902344 612.234985 4 
30 1817.493774 597.984314 4 
82 951.905579 597.472778 4 
67 1390.237915 579.174500 4 
45 1714.893799 567.634583 4 
89 739.392883 557.774292 4 
79 1233.498413 542.327209 4 
54 1596.779175 534.799500 4 
42 1769.987671 497.684814 4 
86 1056.570557 501.873199 4 
65 1464.729858 498.350189 4 
51 1657.489136 462.451385 4 
78 1317.550537 458.362396 4 
91 857.217590 457.787994 4 
64 1534.593750 423.095093 4 
87 1153.163818 413.869110 4 
50 1714.734741 394.990112 4 
77 1396.551758 380.272705 4 
93 966.763916 365.778992 4 
62 1598.987549 353.666107 4 
85 1242.009521 332.700714 4 
75 1469.838501 308.197388 4 
61 1659.579956 288.195892 4 
96 1068.747314 281.243805 4 
84 1325.241089 257.492889 4 
73 1537.821533 240.153595 4 
97 1162.812622 203.516907 4 
83 1402.388184 188.129395 4 
71 1600.907471 177.833694 4 
95 1250.475830 131.728607 4 
81 1541.482788 63.514599 4 
94 1331.991089 65.588799 4 
