ply
format ascii 1.0
element vertex 91
property char id
property float x
property float y
property char size
end_header
70 877.084778 1650.507935 4 
60 1039.272339 1621.493164 4 
52 1190.676392 1593.764160 4 
48 1331.511719 1566.968628 4 
39 1461.102905 1540.636353 4 
29 1578.463501 1514.636597 4 
89 509.269104 1516.197876 4 
19 1688.991455 1490.635010 4 
11 1791.957642 1468.104248 4 
72 874.278687 1470.848022 4 
63 1037.516968 1448.249023 4 
53 1189.762817 1426.398804 4 
46 1330.874268 1405.106934 4 
38 1459.705933 1384.057617 4 
28 1580.193237 1364.324585 4 
10 1792.774536 1327.507446 4 
91 504.543396 1318.853149 4 
82 693.810730 1302.898315 4 
74 871.078003 1287.250854 4 
66 1035.826416 1271.426147 4 
57 1188.816895 1255.901855 4 
44 1330.507446 1240.593628 4 
35 1460.862427 1225.907959 4 
27 1581.268677 1211.749634 4 
18 1692.111328 1198.271118 4 
9 1794.628174 1185.546143 4 
93 500.985809 1118.446167 4 
86 691.400391 1109.840332 4 
76 868.839417 1100.784058 4 
68 1034.343750 1091.871704 4 
58 1188.399780 1083.159058 4 
47 1330.961060 1074.395752 4 
37 1461.810547 1065.884399 4 
26 1582.256348 1057.665039 4 
16 1692.071045 1049.804321 4 
7 1794.504150 1042.395630 4 
87 689.923706 914.739075 4 
96 499.208893 916.291992 4 
79 867.554016 912.767090 4 
69 1033.894043 910.964294 4 
59 1188.242798 908.962402 4 
49 1330.930054 906.932312 4 
36 1461.585205 904.787415 4 
24 1581.101929 902.631897 4 
15 1691.453003 900.664917 4 
5 1793.707031 898.737488 4 
3 1790.852417 755.286621 4 
13 1688.415649 751.562683 4 
22 1577.600098 747.660217 4 
34 1457.267212 743.595703 4 
43 1327.456543 739.210571 4 
56 1185.016479 734.581177 4 
67 1031.776245 729.750305 4 
78 866.516113 724.851013 4 
85 688.801392 719.661377 4 
97 499.301910 714.374207 4 
2 1786.830933 612.590210 4 
12 1684.949463 603.414673 4 
20 1574.483643 593.786194 4 
33 1454.500854 583.584473 4 
41 1324.764771 572.784973 4 
55 1183.274902 561.659485 4 
65 1030.593140 550.198730 4 
77 866.577576 538.269775 4 
84 689.747925 526.240173 4 
95 501.178101 514.128479 4 
4 1782.801880 471.163300 4 
14 1680.631104 456.866089 4 
21 1570.532837 441.686615 4 
32 1451.604492 425.622192 4 
40 1322.049561 408.916290 4 
54 1182.502319 391.333313 4 
64 1030.237305 373.567413 4 
75 867.434998 355.130188 4 
6 1777.739258 331.724396 4 
83 692.186279 336.501007 4 
94 505.210785 317.441803 4 
23 1566.488525 292.063110 4 
31 1447.605347 270.524109 4 
45 1320.589478 247.624695 4 
51 1179.749634 225.139404 4 
62 1029.644897 201.219498 4 
8 1772.253052 194.523102 4 
73 868.236206 176.484299 4 
17 1671.178223 170.531296 4 
25 1561.447144 145.594696 4 
92 510.151398 125.070000 4 
30 1442.658325 119.273697 4 
42 1317.476929 90.528099 4 
50 1177.614746 63.155499 4 
61 1029.350952 33.314899 4 
