ply
format ascii 1.0
element vertex 96
property double x
property double y
property char size
property char id
end_header
6.66583496093750e+02 1.12680712890625e+03 4 0 
6.66277893066406e+02 9.46199707031250e+02 4 1 
6.68614624023438e+02 1.30589208984375e+03 4 2 
6.67174926757812e+02 7.65194396972656e+02 4 3 
6.71474670410156e+02 1.48234826660156e+03 4 4 
6.68601074218750e+02 5.85692626953125e+02 4 5 
6.74875305175781e+02 1.65594165039062e+03 4 6 
6.71357604980469e+02 4.08533599853516e+02 4 7 
6.74065490722656e+02 2.35650207519531e+02 4 8 
6.78767578125000e+02 6.63951034545898e+01 4 9 
8.20113891601562e+02 1.11689367675781e+03 4 10 
8.19633911132812e+02 9.43953125000000e+02 4 11 
8.21266418457031e+02 1.28835644531250e+03 4 12 
8.20493530273438e+02 7.70656372070312e+02 4 13 
8.21083984375000e+02 5.98699279785156e+02 4 14 
8.26284912109375e+02 1.62378442382812e+03 4 15 
8.22580017089844e+02 4.28942596435547e+02 4 16 
8.26670593261719e+02 1.00915802001953e+02 4 17 
9.61276184082031e+02 1.10726586914062e+03 4 18 
9.61953308105469e+02 1.27161340332031e+03 4 19 
9.60861328125000e+02 9.41671508789062e+02 4 20 
9.63580627441406e+02 1.43381005859375e+03 4 21 
9.62010192871094e+02 7.75713195800781e+02 4 22 
9.64956604003906e+02 1.59306433105469e+03 4 23 
9.62481384277344e+02 6.10740478515625e+02 4 24 
9.61894592285156e+02 4.48321411132812e+02 4 25 
9.62520202636719e+02 2.88880004882812e+02 4 26 
9.63226684570312e+02 1.33414794921875e+02 4 27 
1.09209619140625e+03 1.56388391113281e+03 4 28 
1.09217895507812e+03 1.41119421386719e+03 4 29 
1.09176354980469e+03 1.25561804199219e+03 4 30 
1.09083898925781e+03 1.09804162597656e+03 4 31 
1.09050024414062e+03 9.39367797851562e+02 4 32 
1.09001757812500e+03 4.66586608886719e+02 4 33 
1.09258093261719e+03 7.80300292968750e+02 4 34 
1.09153125000000e+03 6.22413024902344e+02 4 35 
1.08907666015625e+03 3.13596710205078e+02 4 36 
1.09115161132812e+03 1.63025604248047e+02 4 37 
1.21025073242188e+03 1.24029174804688e+03 4 38 
1.21011132812500e+03 1.08927685546875e+03 4 39 
1.21212072753906e+03 1.53728381347656e+03 4 40 
1.21029565429688e+03 9.37063293457031e+02 4 41 
1.20782495117188e+03 4.83855499267578e+02 4 42 
1.21193920898438e+03 1.38997204589844e+03 4 43 
1.20710864257812e+03 3.36550689697266e+02 4 44 
1.20987915039062e+03 6.33353027343750e+02 4 45 
1.20696533203125e+03 1.92064895629883e+02 4 46 
1.21172985839844e+03 7.84664184570312e+02 4 47 
1.31769006347656e+03 1.51037316894531e+03 4 48 
1.31844091796875e+03 1.36911279296875e+03 4 49 
1.31253015136719e+03 2.19837493896484e+02 4 50 
1.31420788574219e+03 3.58666687011719e+02 4 51 
1.31984423828125e+03 1.22578613281250e+03 4 52 
1.31879772949219e+03 1.08076440429688e+03 4 53 
1.31858337402344e+03 9.34934020996094e+02 4 54 
1.31571118164062e+03 5.00227111816406e+02 4 55 
1.31780297851562e+03 6.43774902343750e+02 4 56 
1.31996215820312e+03 7.88865295410156e+02 4 57 
1.40985412597656e+03 2.45851898193359e+02 4 58 
1.41719030761719e+03 1.48592041015625e+03 4 59 
1.41806054687500e+03 1.34977465820312e+03 4 60 
1.41267663574219e+03 3.79426788330078e+02 4 61 
1.41871142578125e+03 1.21196337890625e+03 4 62 
1.41860778808594e+03 1.07282470703125e+03 4 63 
1.41483544921875e+03 5.15562316894531e+02 4 64 
1.41864819335938e+03 9.32888183593750e+02 4 65 
1.41670617675781e+03 6.53586975097656e+02 4 66 
1.41906652832031e+03 7.92803771972656e+02 4 67 
1.50096520996094e+03 2.70043304443359e+02 4 68 
1.50853674316406e+03 1.46272888183594e+03 4 69 
1.50438769531250e+03 3.98756896972656e+02 4 70 
1.50983020019531e+03 1.33170117187500e+03 4 71 
1.50640295410156e+03 5.29804504394531e+02 4 72 
1.51116516113281e+03 1.19903076171875e+03 4 73 
1.50844885253906e+03 6.62597473144531e+02 4 74 
1.51131567382812e+03 1.06528979492188e+03 4 75 
1.51083874511719e+03 9.30811828613281e+02 4 76 
1.51025317382812e+03 7.96424499511719e+02 4 77 
1.58407629394531e+03 2.92914703369141e+02 4 78 
1.59428039550781e+03 1.44122070312500e+03 4 79 
1.59012634277344e+03 5.43402221679688e+02 4 80 
1.59532312011719e+03 1.18684509277344e+03 4 81 
1.59534045410156e+03 1.05818554687500e+03 4 82 
1.59502954101562e+03 9.28883789062500e+02 4 83 
1.59345263671875e+03 6.70895324707031e+02 4 84 
1.59535974121094e+03 7.99661926269531e+02 4 85 
1.66126245117188e+03 3.14335113525391e+02 4 86 
1.66485693359375e+03 4.34246185302734e+02 4 87 
1.67212915039062e+03 1.42070324707031e+03 4 88 
1.66788085937500e+03 5.55854980468750e+02 4 89 
1.67297546386719e+03 1.29858801269531e+03 4 90 
1.67031384277344e+03 6.78917602539062e+02 4 91 
1.67337023925781e+03 1.17541918945312e+03 4 92 
1.67308422851562e+03 1.05151074218750e+03 4 93 
1.67189929199219e+03 8.02815185546875e+02 4 94 
1.67289624023438e+03 9.27071716308594e+02 4 95 
