ply
format ascii 1.0
element vertex 96
property char id
property float x
property float y
property char size
end_header
11 65.310600 1604.464844 4 
10 235.683395 1599.060547 4 
9 405.302002 1595.379395 4 
7 577.360229 1591.448242 4 
5 751.152527 1586.946045 4 
3 927.422485 1580.600342 4 
2 1104.525391 1572.683350 4 
4 1281.451050 1563.514648 4 
6 1457.198242 1552.593506 4 
8 1630.639160 1540.317383 4 
19 66.132202 1427.554565 4 
18 400.195892 1419.406494 4 
16 570.734924 1415.217651 4 
15 743.648926 1410.349487 4 
13 919.340576 1404.010254 4 
12 1096.028076 1396.250854 4 
14 1272.656250 1387.223022 4 
17 1620.920654 1365.358521 4 
29 66.441597 1254.017700 4 
28 230.035599 1249.237305 4 
27 395.942688 1244.696045 4 
26 564.464722 1239.745361 4 
24 736.692627 1234.074951 4 
22 911.650085 1227.393799 4 
20 1087.587158 1219.656250 4 
21 1263.615601 1210.949829 4 
23 1438.329590 1201.213257 4 
25 1610.226685 1190.646362 4 
39 65.655602 1082.803101 4 
38 229.109604 1077.209961 4 
35 392.994110 1071.424927 4 
37 560.043030 1065.182739 4 
36 730.558228 1058.547729 4 
34 904.652100 1051.671143 4 
33 1079.458252 1043.873657 4 
32 1254.392456 1035.386719 4 
31 1428.083252 1026.475952 4 
30 1598.610718 1017.181396 4 
48 68.025101 914.280884 4 
46 228.698807 907.527283 4 
44 391.618805 900.518677 4 
47 557.089172 892.929077 4 
49 725.848206 885.140381 4 
43 898.240601 877.861511 4 
41 1071.653442 870.070007 4 
40 1245.027832 862.043274 4 
45 1417.452026 853.496094 4 
42 1587.203613 845.353516 4 
52 72.499901 749.504089 4 
53 231.030197 741.310486 4 
57 392.081207 733.019470 4 
58 555.869507 724.292786 4 
59 722.710510 715.460022 4 
56 893.027588 707.949097 4 
55 1064.198853 699.920715 4 
54 1235.541992 691.858215 4 
51 1405.571045 685.002380 4 
50 1573.020386 678.185913 4 
60 78.129898 588.834717 4 
63 234.790894 579.380310 4 
66 393.977692 569.901917 4 
68 556.088074 560.424194 4 
69 720.625122 550.661926 4 
67 888.424316 542.590393 4 
65 1057.197021 534.631775 4 
64 1226.074951 527.186890 4 
62 1393.785889 520.683899 4 
61 1559.222168 514.899780 4 
70 84.021301 431.875000 4 
72 239.210495 421.527191 4 
74 396.942291 411.536987 4 
76 557.094788 401.389191 4 
79 719.630981 391.445801 4 
78 884.425110 382.683014 4 
77 1050.503418 374.436798 4 
75 1216.687378 367.414215 4 
73 1381.875610 361.869202 4 
71 1544.807617 357.042603 4 
80 91.161903 279.882812 4 
82 401.151215 258.836304 4 
86 558.676880 247.606400 4 
87 718.822815 237.438095 4 
85 881.163025 229.227097 4 
84 1044.383789 221.294403 4 
83 1207.588379 214.403198 4 
81 1530.574951 204.056107 4 
88 98.188301 132.129501 4 
89 251.409393 121.901299 4 
91 405.505707 111.303101 4 
93 561.387573 100.707001 4 
96 719.148499 90.889503 4 
97 878.286682 81.928703 4 
95 1038.515259 74.288498 4 
94 1198.672729 67.434700 4 
92 1358.196167 61.892502 4 
90 1516.131226 57.901798 4 
