ply
format ascii 1.0
element vertex 96
property double x
property double y
property char size
property char id
end_header
2.15093704223633e+02 1.84963061523438e+03 4 5 
2.16772994995117e+02 1.49161169433594e+03 4 6 
5.81708007812500e+02 3.29245288085938e+03 4 7 
2.24314804077148e+02 7.85301391601562e+02 4 8 
2.29804702758789e+02 4.38064910888672e+02 4 9 
5.73809082031250e+02 2.56581127929688e+03 4 10 
5.71440612792969e+02 2.20360766601562e+03 4 11 
5.70528686523438e+02 1.84356079101562e+03 4 12 
5.71011230468750e+02 1.48557214355469e+03 4 13 
5.73057128906250e+02 1.13086486816406e+03 4 14 
5.76285217285156e+02 7.80017395019531e+02 4 15 
9.42067321777344e+02 3.28536328125000e+03 4 16 
5.84129272460938e+02 9.01996002197266e+01 4 17 
9.36658630371094e+02 2.92244799804688e+03 4 18 
9.32101684570312e+02 2.55959643554688e+03 4 19 
9.28459777832031e+02 2.19758007812500e+03 4 20 
9.26191894531250e+02 1.83737292480469e+03 4 21 
9.26253784179688e+02 1.12507019042969e+03 4 22 
9.27744873046875e+02 7.74307128906250e+02 4 23 
9.30040405273438e+02 4.28013610839844e+02 4 24 
1.30210473632812e+03 3.27792846679688e+03 4 25 
1.29596447753906e+03 2.91566210937500e+03 4 26 
1.29050354003906e+03 2.55344921875000e+03 4 27 
1.28596655273438e+03 2.19148266601562e+03 4 28 
1.28251794433594e+03 1.83140734863281e+03 4 29 
1.28028625488281e+03 1.47351708984375e+03 4 30 
1.27930419921875e+03 1.11907067871094e+03 4 31 
1.27899316406250e+03 7.68406372070312e+02 4 32 
1.27957519531250e+03 4.22453186035156e+02 4 33 
1.28045532226562e+03 8.06082992553711e+01 4 34 
1.66164343261719e+03 3.26984619140625e+03 4 35 
1.65495727539062e+03 2.90831030273438e+03 4 36 
1.64879028320312e+03 2.54662719726562e+03 4 37 
1.64344665527344e+03 2.18515600585938e+03 4 38 
1.63904187011719e+03 1.82521594238281e+03 4 39 
1.63544262695312e+03 1.46770617675781e+03 4 40 
1.63246093750000e+03 1.11321972656250e+03 4 41 
1.63047998046875e+03 7.62873901367188e+02 4 42 
1.62935375976562e+03 4.17477294921875e+02 4 43 
1.62840026855469e+03 7.63785018920898e+01 4 44 
1.97577966308594e+03 7.29517974853516e+01 4 45 
1.97899804687500e+03 4.13334899902344e+02 4 46 
1.98221875000000e+03 7.57905029296875e+02 4 47 
1.98601074218750e+03 1.10784045410156e+03 4 48 
1.99046337890625e+03 1.46168713378906e+03 4 49 
1.99544128417969e+03 1.81874670410156e+03 4 50 
2.00081689453125e+03 2.17807006835938e+03 4 51 
2.00693359375000e+03 2.53898388671875e+03 4 52 
2.01364721679688e+03 2.90003564453125e+03 4 53 
2.02065625000000e+03 3.26063208007812e+03 4 54 
2.32212866210938e+03 7.06960983276367e+01 4 55 
2.32748876953125e+03 4.10010589599609e+02 4 56 
2.33287670898438e+03 7.53871704101562e+02 4 57 
2.33864013671875e+03 1.10297045898438e+03 4 58 
2.34464746093750e+03 1.45595715332031e+03 4 59 
2.35072729492188e+03 1.81235375976562e+03 4 60 
2.35716821289062e+03 2.17067602539062e+03 4 61 
2.36383935546875e+03 2.53065747070312e+03 4 62 
2.37082714843750e+03 2.89062475585938e+03 4 63 
2.37803515625000e+03 3.25002807617188e+03 4 64 
2.66681250000000e+03 6.95170974731445e+01 4 65 
2.67443896484375e+03 4.07723907470703e+02 4 66 
2.68208300781250e+03 7.50372497558594e+02 4 67 
2.68962524414062e+03 1.09813110351562e+03 4 68 
2.69739721679688e+03 1.45042138671875e+03 4 69 
2.70461767578125e+03 1.80560607910156e+03 4 70 
2.71179663085938e+03 2.16275195312500e+03 4 71 
2.71904467773438e+03 2.52152832031250e+03 4 72 
2.72637670898438e+03 2.88018286132812e+03 4 73 
3.00890454101562e+03 6.96722030639648e+01 4 74 
2.73352050781250e+03 3.23821997070312e+03 4 75 
3.02870629882812e+03 7.47914794921875e+02 4 76 
3.03812548828125e+03 1.09433349609375e+03 4 77 
3.04745068359375e+03 1.44493994140625e+03 4 78 
3.05584155273438e+03 1.79878857421875e+03 4 79 
3.06400634765625e+03 2.15464526367188e+03 4 80 
3.07168994140625e+03 2.51170507812500e+03 4 81 
3.35953222656250e+03 4.06073303222656e+02 4 82 
3.37146289062500e+03 7.45967102050781e+02 4 83 
3.08623999023438e+03 3.22525781250000e+03 4 84 
3.38298291015625e+03 1.09100451660156e+03 4 85 
3.39362890625000e+03 1.43992016601562e+03 4 86 
3.40337255859375e+03 1.79208496093750e+03 4 87 
3.41241064453125e+03 2.14579248046875e+03 4 88 
3.42053198242188e+03 2.50128247070312e+03 4 89 
3.42817285156250e+03 2.85673168945312e+03 4 90 
9.32336975097656e+02 8.51932983398438e+01 4 91 
9.25398071289062e+02 1.47946667480469e+03 4 92 
2.19983093261719e+02 1.13662390136719e+03 4 93 
2.14837295532227e+02 2.20967871093750e+03 4 94 
2.16039703369141e+02 2.57185156250000e+03 4 95 
2.17850906372070e+02 2.93553662109375e+03 4 96 
3.43497290039062e+03 3.21135278320312e+03 4 97 
2.20326004028320e+02 3.30013134765625e+03 4 98 
3.34752148437500e+03 7.09819030761719e+01 4 99 
2.35021499633789e+02 9.45111007690430e+01 4 100 
