ply
format ascii 1.0
element vertex 93
property float x
property float y
property char size
property char id
end_header
1268.242920 1678.982422 4 92 
1030.301147 1628.214111 4 71 
1342.584351 1564.224365 4 94 
942.867493 1533.072144 4 61 
1118.757446 1505.239746 4 73 
1274.914795 1479.146240 4 83 
1412.799072 1454.640869 4 95 
849.151978 1430.369873 4 50 
1036.591675 1408.544678 4 62 
1203.124023 1387.970215 4 75 
1349.423340 1368.334717 4 84 
1479.904663 1350.032715 4 97 
751.550720 1320.297852 4 42 
948.876892 1304.676514 4 51 
1125.422363 1290.012939 4 64 
1282.091431 1276.177490 4 77 
1420.012695 1262.754761 4 85 
1542.981201 1250.411255 4 96 
643.262878 1200.393677 4 30 
857.277405 1193.244751 4 45 
1044.160278 1185.419067 4 54 
1208.919800 1177.459473 4 65 
1356.460449 1169.885132 4 78 
1487.723267 1162.646973 4 87 
1602.427368 1155.579102 4 93 
1131.947998 1072.163696 4 55 
955.779785 1073.058105 4 40 
1426.804443 1069.200317 4 79 
1288.079712 1070.753052 4 67 
756.435181 1073.243042 4 31 
1549.830444 1067.415039 4 86 
1658.121460 1065.365234 4 91 
531.799194 1072.482056 4 25 
1710.327148 979.880981 4 89 
1607.273926 977.162170 4 82 
1492.170532 973.981812 4 76 
1363.352661 970.056396 4 69 
1215.592773 965.421814 4 56 
1050.164185 960.040894 4 41 
863.022827 953.323792 4 32 
651.623413 945.260315 4 23 
414.257202 935.700317 4 17 
1759.262573 899.025024 4 88 
1553.783325 883.954895 4 74 
1431.435303 875.126892 4 68 
1295.934814 865.023499 4 59 
1139.343994 853.601685 4 43 
962.829285 840.699890 4 33 
764.439514 825.996399 4 21 
1713.432739 811.289429 4 80 
1611.808716 799.210327 4 72 
1496.214844 785.759583 4 66 
290.641907 790.473999 4 8 
1367.954346 770.875427 4 58 
1224.277832 753.866028 4 49 
1056.890259 735.322510 4 34 
1665.165527 719.331787 4 70 
871.080078 714.560608 4 20 
1556.860718 701.850403 4 63 
661.466309 691.444519 4 14 
1435.594849 682.571411 4 57 
1300.422119 660.950806 4 47 
426.508911 665.689880 4 6 
1147.271118 636.852295 4 36 
1613.191528 623.078491 4 60 
970.926575 610.765625 4 22 
1499.612549 599.900574 4 53 
774.744873 581.848572 4 12 
1371.449219 574.170105 4 44 
1228.322021 545.684998 4 37 
554.399780 549.867004 4 4 
1559.387329 522.523376 4 52 
1065.421753 514.317993 4 24 
1439.093872 493.122589 4 46 
880.744507 480.319214 4 13 
1303.331421 460.965515 4 35 
674.145630 442.969391 4 2 
1152.309448 425.197510 4 26 
1502.737549 417.520599 4 48 
980.198486 386.367615 4 15 
1373.647705 382.321198 4 38 
1231.775635 342.962097 4 27 
786.727112 344.151215 4 3 
1442.026245 308.458313 4 39 
1071.534180 300.191193 4 16 
1306.566162 266.723114 4 28 
891.705811 253.264206 4 5 
1156.840576 220.492798 4 18 
1375.829468 196.070297 4 29 
988.401001 170.231003 4 7 
1078.653687 93.578300 4 9 
1309.032837 79.207298 4 19 
1161.323242 23.528000 4 10 
