ply
format ascii 1.0
element vertex 93
property double x
property double y
property char size
property char id
end_header
1.26824291992188e+03 1.67898242187500e+03 4 92 
1.03030114746094e+03 1.62821411132812e+03 4 71 
1.34258435058594e+03 1.56422436523438e+03 4 94 
9.42867492675781e+02 1.53307214355469e+03 4 61 
1.11875744628906e+03 1.50523974609375e+03 4 73 
1.27491479492188e+03 1.47914624023438e+03 4 83 
1.41279907226562e+03 1.45464086914062e+03 4 95 
8.49151977539062e+02 1.43036987304688e+03 4 50 
1.03659167480469e+03 1.40854467773438e+03 4 62 
1.20312402343750e+03 1.38797021484375e+03 4 75 
1.34942333984375e+03 1.36833471679688e+03 4 84 
1.47990466308594e+03 1.35003271484375e+03 4 97 
7.51550720214844e+02 1.32029785156250e+03 4 42 
9.48876892089844e+02 1.30467651367188e+03 4 51 
1.12542236328125e+03 1.29001293945312e+03 4 64 
1.28209143066406e+03 1.27617749023438e+03 4 77 
1.42001269531250e+03 1.26275476074219e+03 4 85 
1.54298120117188e+03 1.25041125488281e+03 4 96 
6.43262878417969e+02 1.20039367675781e+03 4 30 
8.57277404785156e+02 1.19324475097656e+03 4 45 
1.04416027832031e+03 1.18541906738281e+03 4 54 
1.20891979980469e+03 1.17745947265625e+03 4 65 
1.35646044921875e+03 1.16988513183594e+03 4 78 
1.48772326660156e+03 1.16264697265625e+03 4 87 
1.60242736816406e+03 1.15557910156250e+03 4 93 
1.13194799804688e+03 1.07216369628906e+03 4 55 
9.55779785156250e+02 1.07305810546875e+03 4 40 
1.42680444335938e+03 1.06920031738281e+03 4 79 
1.28807971191406e+03 1.07075305175781e+03 4 67 
7.56435180664062e+02 1.07324304199219e+03 4 31 
1.54983044433594e+03 1.06741503906250e+03 4 86 
1.65812145996094e+03 1.06536523437500e+03 4 91 
5.31799194335938e+02 1.07248205566406e+03 4 25 
1.71032714843750e+03 9.79880981445312e+02 4 89 
1.60727392578125e+03 9.77162170410156e+02 4 82 
1.49217053222656e+03 9.73981811523438e+02 4 76 
1.36335266113281e+03 9.70056396484375e+02 4 69 
1.21559277343750e+03 9.65421813964844e+02 4 56 
1.05016418457031e+03 9.60040893554688e+02 4 41 
8.63022827148438e+02 9.53323791503906e+02 4 32 
6.51623413085938e+02 9.45260314941406e+02 4 23 
4.14257202148438e+02 9.35700317382812e+02 4 17 
1.75926257324219e+03 8.99025024414062e+02 4 88 
1.55378332519531e+03 8.83954895019531e+02 4 74 
1.43143530273438e+03 8.75126892089844e+02 4 68 
1.29593481445312e+03 8.65023498535156e+02 4 59 
1.13934399414062e+03 8.53601684570312e+02 4 43 
9.62829284667969e+02 8.40699890136719e+02 4 33 
7.64439514160156e+02 8.25996398925781e+02 4 21 
1.71343273925781e+03 8.11289428710938e+02 4 80 
1.61180871582031e+03 7.99210327148438e+02 4 72 
1.49621484375000e+03 7.85759582519531e+02 4 66 
2.90641906738281e+02 7.90473999023438e+02 4 8 
1.36795434570312e+03 7.70875427246094e+02 4 58 
1.22427783203125e+03 7.53866027832031e+02 4 49 
1.05689025878906e+03 7.35322509765625e+02 4 34 
1.66516552734375e+03 7.19331787109375e+02 4 70 
8.71080078125000e+02 7.14560607910156e+02 4 20 
1.55686071777344e+03 7.01850402832031e+02 4 63 
6.61466308593750e+02 6.91444519042969e+02 4 14 
1.43559484863281e+03 6.82571411132812e+02 4 57 
1.30042211914062e+03 6.60950805664062e+02 4 47 
4.26508911132812e+02 6.65689880371094e+02 4 6 
1.14727111816406e+03 6.36852294921875e+02 4 36 
1.61319152832031e+03 6.23078491210938e+02 4 60 
9.70926574707031e+02 6.10765625000000e+02 4 22 
1.49961254882812e+03 5.99900573730469e+02 4 53 
7.74744873046875e+02 5.81848571777344e+02 4 12 
1.37144921875000e+03 5.74170104980469e+02 4 44 
1.22832202148438e+03 5.45684997558594e+02 4 37 
5.54399780273438e+02 5.49867004394531e+02 4 4 
1.55938732910156e+03 5.22523376464844e+02 4 52 
1.06542175292969e+03 5.14317993164062e+02 4 24 
1.43909387207031e+03 4.93122589111328e+02 4 46 
8.80744506835938e+02 4.80319213867188e+02 4 13 
1.30333142089844e+03 4.60965515136719e+02 4 35 
6.74145629882812e+02 4.42969390869141e+02 4 2 
1.15230944824219e+03 4.25197509765625e+02 4 26 
1.50273754882812e+03 4.17520599365234e+02 4 48 
9.80198486328125e+02 3.86367614746094e+02 4 15 
1.37364770507812e+03 3.82321197509766e+02 4 38 
1.23177563476562e+03 3.42962097167969e+02 4 27 
7.86727111816406e+02 3.44151214599609e+02 4 3 
1.44202624511719e+03 3.08458312988281e+02 4 39 
1.07153417968750e+03 3.00191192626953e+02 4 16 
1.30656616210938e+03 2.66723114013672e+02 4 28 
8.91705810546875e+02 2.53264205932617e+02 4 5 
1.15684057617188e+03 2.20492797851562e+02 4 18 
1.37582946777344e+03 1.96070297241211e+02 4 29 
9.88401000976562e+02 1.70231002807617e+02 4 7 
1.07865368652344e+03 9.35783004760742e+01 4 9 
1.30903283691406e+03 7.92072982788086e+01 4 19 
1.16132324218750e+03 2.35279998779297e+01 4 10 
