ply
format ascii 1.0
element vertex 96
property float x
property float y
property char size
property char id
end_header
1209.814087 1465.669556 4 96 
1423.560059 1464.376221 4 93 
995.484985 1464.785889 4 97 
782.503906 1461.708130 4 95 
1634.500244 1460.981323 4 91 
1841.325928 1456.238281 4 89 
572.960327 1456.330078 4 94 
2044.073853 1450.985352 4 88 
367.697205 1449.984131 4 92 
166.507797 1443.593018 4 90 
1207.739014 1262.854980 4 87 
1000.977417 1262.821411 4 85 
1413.844360 1262.230713 4 86 
795.630005 1260.558472 4 84 
1616.764160 1260.453247 4 82 
593.799377 1256.659302 4 83 
2010.240601 1253.136353 4 80 
203.807205 1246.522705 4 81 
1403.682617 1074.232178 4 76 
1205.364746 1074.276611 4 79 
1599.534546 1073.177490 4 74 
1006.515503 1073.967896 4 78 
808.810181 1072.437744 4 77 
1791.464844 1070.937500 4 72 
614.420593 1069.992432 4 75 
1978.276855 1069.090820 4 70 
424.606110 1067.616089 4 73 
239.704803 1064.518555 4 71 
1946.752686 898.815125 4 60 
1766.675903 899.093384 4 63 
1582.135010 899.358398 4 66 
1393.800171 899.352112 4 68 
1011.894897 898.825073 4 67 
1203.336792 898.233276 4 69 
821.915222 898.445984 4 65 
634.832703 897.142822 4 64 
452.160187 896.183777 4 62 
274.013306 894.956177 4 61 
1916.728638 740.184692 4 52 
1742.964355 739.346497 4 53 
1565.157471 738.495422 4 57 
307.285095 738.026428 4 50 
478.723785 737.428528 4 51 
1384.191040 737.083008 4 58 
1017.279724 737.028076 4 56 
834.727478 737.085083 4 55 
654.622009 736.171387 4 54 
1201.159058 735.421875 4 59 
1887.789673 593.065796 4 48 
1719.871094 591.728088 4 46 
503.896088 589.010620 4 45 
337.782013 590.601074 4 42 
1548.547729 590.007629 4 44 
674.224915 589.233887 4 40 
847.215576 588.172607 4 41 
1374.725830 587.487183 4 47 
1022.554688 587.231018 4 43 
1199.016113 585.481018 4 49 
369.624908 459.263000 4 30 
1859.402710 458.134613 4 39 
1697.054688 457.361115 4 38 
529.398010 455.803009 4 31 
1532.546631 453.889801 4 35 
692.887329 453.373413 4 32 
859.237976 452.242798 4 33 
1365.522583 450.685791 4 37 
1027.524414 451.268097 4 34 
1196.871460 448.784912 4 36 
1831.447754 336.235291 4 29 
398.881989 335.028015 4 25 
1675.787476 332.126892 4 28 
553.274475 331.633301 4 23 
710.786804 329.273010 4 21 
1517.268433 328.694885 4 27 
870.701416 327.078491 4 20 
1356.696899 325.314209 4 26 
1032.245117 325.846405 4 22 
1194.617432 324.349792 4 24 
1805.866943 221.711197 4 19 
426.474609 220.661407 4 17 
727.669922 214.781296 4 14 
1502.867188 213.773102 4 18 
881.483704 212.273102 4 12 
1348.227051 211.444901 4 16 
1036.617676 210.795807 4 13 
1192.657837 209.833694 4 15 
452.771790 115.702202 4 8 
1781.900269 115.307899 4 11 
1636.440063 112.113098 4 10 
597.158997 112.121300 4 6 
743.507324 108.940201 4 4 
1489.356079 107.790001 4 9 
891.621582 106.876297 4 2 
1340.471191 105.540199 4 7 
1040.936646 104.832703 4 3 
1190.846191 104.091103 4 5 
