ply
format ascii 1.0
element vertex 93
property char id
property float x
property float y
property char size
end_header
6 1414.660034 1656.463867 4 
17 1550.509155 1592.328003 4 
4 1329.897095 1590.383545 4 
2 1239.005127 1519.029541 4 
25 1603.404297 1470.487427 4 
14 1393.783813 1458.888184 4 
3 1141.307983 1441.386108 4 
23 1531.728027 1404.102417 4 
12 1307.308594 1384.400879 4 
30 1653.298218 1354.240845 4 
5 1036.847046 1357.803345 4 
21 1454.391724 1332.392334 4 
13 1214.384521 1304.173950 4 
31 1585.399902 1285.166382 4 
7 923.420898 1266.589478 4 
20 1371.821655 1255.264160 4 
42 1703.612427 1242.309570 4 
15 1115.175659 1217.192749 4 
32 1511.892334 1210.726440 4 
45 1637.520630 1171.019897 4 
22 1283.458008 1172.282349 4 
9 802.102112 1167.668213 4 
50 1745.591675 1134.889160 4 
33 1432.831421 1131.739990 4 
16 1007.332214 1123.252441 4 
40 1565.551636 1095.028198 4 
24 1189.818237 1083.016357 4 
51 1682.873047 1062.207153 4 
10 671.945312 1060.761963 4 
34 1348.582275 1046.627319 4 
61 1787.770996 1032.554443 4 
18 892.418274 1021.967896 4 
41 1490.511108 1013.976318 4 
54 1616.634155 984.544678 4 
26 1088.073242 986.908508 4 
62 1727.191772 958.404602 4 
36 1260.715454 955.285400 4 
11 535.313477 945.910583 4 
71 1826.921997 934.713928 4 
43 1410.575439 927.275391 4 
55 1543.842407 902.242615 4 
64 1662.898560 879.829712 4 
27 978.131226 884.113098 4 
73 1768.884766 859.692383 4 
37 1163.283447 857.854919 4 
81 1864.990967 841.279907 4 
49 1326.736206 834.657898 4 
56 1467.287231 814.571228 4 
65 1593.868164 796.448914 4 
19 639.809875 797.039490 4 
75 1707.481689 780.115906 4 
28 862.103516 774.117493 4 
90 1899.372314 752.593079 4 
35 1058.977051 754.107178 4 
47 1233.755249 736.355591 4 
59 1387.451050 720.984802 4 
67 1520.972900 708.169373 4 
77 1641.517456 696.200317 4 
83 1748.435181 685.906006 4 
92 1844.863770 676.525330 4 
29 739.243103 657.432922 4 
38 948.742981 643.752808 4 
44 1135.021851 632.264221 4 
58 1299.128052 622.508972 4 
69 1444.238159 614.365601 4 
78 1571.220947 607.671570 4 
84 1684.908447 601.920227 4 
94 1787.074829 596.708984 4 
39 835.031128 526.393494 4 
46 1031.636353 521.730103 4 
57 1205.725464 518.427917 4 
68 1360.068237 516.210693 4 
95 1725.733521 512.847107 4 
85 1617.712769 513.408325 4 
79 1497.159546 514.467896 4 
97 1661.398560 424.695404 4 
87 1547.750977 420.178589 4 
76 1417.691650 416.489288 4 
66 1271.897461 412.543396 4 
53 1107.770630 408.690308 4 
48 923.043518 405.329193 4 
96 1593.217773 332.615997 4 
86 1471.942749 323.064789 4 
74 1333.894287 313.669403 4 
63 1178.812012 303.843811 4 
52 1004.460571 293.689911 4 
93 1521.226074 236.297806 4 
82 1391.146606 221.811005 4 
72 1245.953613 206.024094 4 
60 1080.472656 190.509903 4 
91 1444.997314 135.886200 4 
70 1152.396240 94.263901 4 
89 1364.786377 31.437599 4 
