ply
format ascii 1.0
element vertex 93
property float x
property float y
property char size
property char id
end_header
1340.897339 1625.449341 4 19 
1486.216553 1601.530151 4 10 
1267.370728 1530.732422 4 29 
1559.327393 1494.169434 4 9 
1191.250977 1430.145996 4 39 
1352.903442 1416.405151 4 28 
1498.161987 1403.687744 4 18 
1627.124512 1391.490845 4 7 
1107.646118 1321.621582 4 48 
1278.861084 1314.498901 4 38 
1433.298950 1307.572510 4 27 
1569.507568 1300.537109 4 16 
1691.088135 1293.806152 4 5 
1509.415771 1204.506592 4 26 
1364.154419 1205.421509 4 35 
1636.701050 1202.699951 4 15 
1201.800659 1206.101929 4 46 
1750.010132 1201.015869 4 3 
1018.044800 1205.509155 4 52 
1805.299805 1112.571289 4 2 
1698.448242 1109.779785 4 13 
1579.528198 1106.486694 4 24 
1444.286011 1102.519165 4 37 
1290.856323 1096.865601 4 44 
1118.332886 1090.323242 4 53 
923.598328 1081.850586 4 60 
1857.920532 1029.334717 4 4 
1756.567749 1021.910583 4 12 
1643.703125 1013.868591 4 22 
1518.926880 1004.993774 4 36 
1375.156982 994.443115 4 47 
1212.412842 981.867493 4 57 
1030.162476 967.404602 4 63 
1906.952148 950.176392 4 6 
825.010620 950.565674 4 70 
1811.033081 938.847595 4 14 
1704.757935 926.671509 4 20 
1585.574951 912.902405 4 34 
1453.997559 897.614197 4 49 
1953.208008 875.028198 4 8 
1301.073242 879.961487 4 58 
1129.918823 859.966675 4 66 
1761.837891 844.361694 4 21 
938.116272 837.337524 4 72 
1649.822754 826.628723 4 33 
1524.438477 806.986511 4 43 
721.257996 811.720581 4 80 
1910.960083 786.325623 4 17 
1384.152466 784.589905 4 59 
1815.633057 767.000610 4 23 
1223.201660 759.556213 4 68 
1709.905884 745.840393 4 32 
1043.127197 731.802307 4 74 
1591.915649 721.747009 4 41 
1865.527222 694.221985 4 25 
1459.044556 695.351379 4 56 
1766.097656 669.306091 4 31 
1310.557495 666.140015 4 69 
613.527100 666.245483 4 88 
1654.560059 642.350525 4 40 
1141.704956 633.346130 4 76 
1529.902344 612.234985 4 55 
1817.493774 597.984314 4 30 
951.905579 597.472778 4 82 
1390.237915 579.174500 4 67 
1714.893799 567.634583 4 45 
739.392883 557.774292 4 89 
1233.498413 542.327209 4 79 
1596.779175 534.799500 4 54 
1769.987671 497.684814 4 42 
1056.570557 501.873199 4 86 
1464.729858 498.350189 4 65 
1657.489136 462.451385 4 51 
1317.550537 458.362396 4 78 
857.217590 457.787994 4 91 
1534.593750 423.095093 4 64 
1153.163818 413.869110 4 87 
1714.734741 394.990112 4 50 
1396.551758 380.272705 4 77 
966.763916 365.778992 4 93 
1598.987549 353.666107 4 62 
1242.009521 332.700714 4 85 
1469.838501 308.197388 4 75 
1659.579956 288.195892 4 61 
1068.747314 281.243805 4 96 
1325.241089 257.492889 4 84 
1537.821533 240.153595 4 73 
1162.812622 203.516907 4 97 
1402.388184 188.129395 4 83 
1600.907471 177.833694 4 71 
1250.475830 131.728607 4 95 
1541.482788 63.514599 4 81 
1331.991089 65.588799 4 94 
