ply
format ascii 1.0
element vertex 96
property float x
property float y
property char size
property char id
end_header
1269.928101 1502.900513 4 11 
1114.255859 1383.566528 4 19 
1396.972778 1361.356445 4 10 
969.045410 1270.243042 4 29 
1514.455688 1227.148926 4 9 
833.592590 1161.573120 4 39 
1098.171753 1145.100708 4 28 
1362.454590 1124.614258 4 18 
1622.247681 1102.809570 4 7 
708.879272 1061.985107 4 48 
963.019287 1046.812744 4 38 
1219.053955 1027.369141 4 27 
1472.993774 1007.641479 4 16 
1720.963989 987.126282 4 5 
594.598572 970.114929 4 52 
837.216980 953.068176 4 46 
1084.275269 935.807373 4 35 
1331.392212 916.297974 4 26 
1574.753174 898.444824 4 15 
489.561707 884.683594 4 60 
1810.613647 881.224487 4 3 
721.101624 867.243530 4 53 
958.488770 849.860779 4 44 
1197.682007 831.219910 4 37 
1435.572388 814.052673 4 24 
392.342194 804.277893 4 70 
1668.170532 798.525330 4 13 
614.079773 787.439026 4 63 
1893.354004 782.610718 4 2 
841.394714 770.092712 4 57 
1072.128296 751.542114 4 47 
1303.408447 733.960999 4 36 
303.234406 730.570679 4 80 
1531.688477 720.484680 4 22 
514.848328 712.360718 4 72 
1753.839233 705.469727 4 12 
733.026428 695.751526 4 66 
1969.106567 691.432800 4 4 
954.891785 677.833191 4 58 
220.539902 661.921082 4 88 
1178.796143 659.439270 4 49 
1401.725952 646.942688 4 34 
1620.383911 632.642212 4 20 
632.298523 626.349915 4 74 
1832.914307 619.378784 4 14 
845.818970 609.303406 4 68 
2038.995728 606.678528 4 6 
1061.750122 590.896912 4 59 
339.062805 580.197693 4 89 
1278.561157 576.978699 4 43 
1492.902954 563.781372 4 33 
539.257324 562.480896 4 82 
1702.418945 550.919189 4 21 
744.073425 544.706421 4 76 
2103.779297 527.768799 4 8 
952.298096 527.056274 4 69 
1162.532104 513.052612 4 56 
452.624115 502.664398 4 91 
1371.516724 498.727692 4 41 
1577.018799 486.115601 4 32 
649.102722 484.141388 4 86 
1778.190430 474.807709 4 23 
850.069092 467.643188 4 79 
1973.636597 464.143311 4 17 
1053.232788 452.623505 4 67 
1256.583374 438.483887 4 55 
561.254883 429.348389 4 93 
1457.965088 425.511108 4 40 
1655.906494 414.213196 4 31 
754.147522 411.080505 4 87 
1848.224365 404.453888 4 25 
950.465027 396.175995 4 78 
1147.987061 382.135590 4 65 
1344.464233 367.895294 4 54 
665.166809 360.336700 4 96 
1538.640991 355.491302 4 45 
1728.537598 348.235199 4 30 
854.295715 344.100189 4 85 
1045.393555 328.644196 4 77 
1237.013062 315.745514 4 64 
1426.832031 304.164703 4 51 
764.152405 295.293213 4 97 
1613.820557 291.630798 4 42 
949.187073 279.920105 4 84 
1134.942139 265.584015 4 75 
1320.462158 254.223099 4 62 
1503.566528 243.958893 4 50 
858.521301 234.246399 4 95 
1038.812866 219.539200 4 83 
1219.468018 207.208206 4 73 
1398.873047 196.442993 4 61 
948.004211 176.139496 4 94 
1298.864502 152.238907 4 71 
1032.770386 121.728996 4 92 
1203.596924 109.372803 4 81 
1113.292725 70.623596 4 90 
