ply
format ascii 1.0
element vertex 96
property char id
property float x
property float y
property char size
end_header
52 1151.004272 1621.590088 4 
48 1323.565430 1620.896851 4 
60 980.779114 1620.825928 4 
70 813.053894 1619.216187 4 
39 1497.354248 1617.938599 4 
80 649.463318 1615.718872 4 
88 490.009308 1611.666382 4 
29 1670.572144 1612.141602 4 
19 1843.652466 1606.893799 4 
11 2016.868896 1601.630615 4 
63 973.736023 1456.343628 4 
53 1145.748047 1455.808716 4 
72 804.493896 1455.930786 4 
46 1320.068481 1453.796875 4 
89 479.826813 1450.751709 4 
38 1495.076538 1449.393555 4 
28 1669.994019 1444.506348 4 
10 2016.438354 1431.727051 4 
74 796.774597 1288.491943 4 
82 631.127930 1287.943848 4 
66 967.059021 1287.676636 4 
91 470.276794 1287.021362 4 
57 1140.515747 1285.939697 4 
44 1316.280884 1282.832031 4 
35 1492.803955 1278.417847 4 
27 1668.854004 1272.978027 4 
18 1843.454102 1266.802979 4 
9 2016.570312 1260.134033 4 
93 461.643585 1120.520020 4 
86 622.393616 1119.669678 4 
76 789.350403 1117.857788 4 
68 960.554504 1115.563721 4 
58 1135.004395 1112.712036 4 
47 1311.998901 1108.911743 4 
37 1489.774048 1104.067017 4 
26 1666.828857 1098.475830 4 
16 1841.843384 1092.121460 4 
7 2015.192261 1085.773926 4 
96 454.399811 951.991211 4 
87 615.214600 948.890930 4 
79 782.575195 945.080994 4 
69 954.115784 941.272583 4 
59 1129.408936 936.943726 4 
49 1307.211914 932.223206 4 
36 1485.784058 926.973572 4 
24 1663.317261 921.298279 4 
15 1838.993896 915.636414 4 
5 2012.753296 909.927795 4 
97 448.597687 782.666077 4 
85 610.107483 776.927185 4 
78 777.032776 771.137085 4 
67 948.933411 765.227722 4 
56 1124.330566 759.496521 4 
43 1302.018921 753.899719 4 
34 1480.399048 748.352600 4 
22 1658.038330 743.026611 4 
13 1833.865967 737.886414 4 
3 2007.606079 732.970520 4 
95 444.268890 613.183594 4 
84 605.575378 605.092773 4 
77 772.153198 597.223694 4 
65 943.968323 589.724304 4 
55 1118.929688 582.623108 4 
41 1296.271729 576.110779 4 
33 1474.295166 570.389404 4 
20 1651.671143 565.267883 4 
12 1827.286987 560.641602 4 
2 2000.811157 556.383911 4 
94 440.947906 444.927612 4 
83 602.185181 434.740997 4 
75 768.323914 424.904510 4 
64 939.428711 415.772003 4 
54 1113.508179 407.301208 4 
40 1290.173828 400.222290 4 
32 1467.473511 394.061096 4 
21 1644.201050 389.035400 4 
14 1819.504272 384.753906 4 
4 1993.361572 380.881500 4 
92 438.707092 278.436890 4 
73 765.602600 255.242096 4 
62 935.474121 244.808807 4 
51 1108.537109 235.379196 4 
45 1283.746948 226.514603 4 
31 1459.992432 220.535599 4 
23 1635.948853 215.277206 4 
6 1984.572021 207.130096 4 
90 437.467010 114.253502 4 
81 597.844421 100.969704 4 
71 763.246582 88.791702 4 
61 931.846313 77.109901 4 
50 1103.556763 66.953102 4 
42 1277.235962 56.679298 4 
30 1452.047729 50.950001 4 
25 1627.028442 44.831200 4 
17 1801.531860 39.691700 4 
8 1975.430420 35.256199 4 
