ply
format ascii 1.0
element vertex 96
property float x
property float y
property char size
property char id
end_header
985.403076 1548.750488 4 5 
1156.566772 1547.764648 4 3 
815.750977 1547.710693 4 7 
1327.663452 1545.172119 4 2 
647.928589 1545.533447 4 9 
483.306610 1542.225098 4 10 
1497.957397 1541.604004 4 4 
320.750702 1538.972168 4 11 
1666.437256 1536.626587 4 6 
1832.655273 1530.842529 4 8 
984.009583 1378.135498 4 15 
1154.904541 1377.048340 4 13 
814.789612 1377.628540 4 16 
647.615784 1376.077148 4 18 
1325.662354 1374.707275 4 12 
1495.477051 1371.221558 4 14 
323.218811 1370.746704 4 19 
1828.561157 1361.429443 4 17 
982.887512 1207.485474 4 24 
814.053406 1207.661499 4 26 
648.135681 1207.063843 4 27 
1153.142456 1206.282349 4 22 
485.264893 1205.702026 4 28 
1323.282715 1204.088379 4 20 
326.213989 1204.016724 4 29 
1492.424316 1201.020386 4 21 
1659.437134 1197.168457 4 23 
1823.363770 1192.710449 4 25 
649.658325 1038.965942 4 35 
488.174805 1038.969727 4 38 
328.941711 1038.472412 4 39 
814.424377 1038.438721 4 37 
981.978271 1037.461182 4 36 
1151.421753 1036.283203 4 34 
1320.593872 1034.243042 4 33 
1488.715942 1031.652100 4 32 
1654.596069 1028.690674 4 31 
1817.034790 1025.410034 4 30 
334.505890 875.217102 4 48 
491.652191 874.155579 4 46 
652.270508 872.914795 4 44 
815.639282 871.151489 4 47 
981.658875 869.283813 4 49 
1149.657349 868.027588 4 43 
1317.524658 866.265320 4 41 
1484.154541 864.312500 4 40 
1649.100098 861.899170 4 45 
1810.874878 859.750427 4 42 
342.002014 715.261780 4 52 
497.257507 712.597900 4 53 
656.053406 710.050415 4 57 
817.816284 707.296326 4 58 
982.034119 704.633911 4 59 
1148.074585 703.321228 4 56 
1313.983521 701.612183 4 55 
1641.405884 699.118530 4 51 
1478.914673 699.864807 4 54 
1801.033325 698.311279 4 50 
350.612793 559.440002 4 60 
503.942688 555.213623 4 63 
660.875305 551.411621 4 66 
820.805115 547.916321 4 68 
982.729614 544.487000 4 69 
1146.456055 542.860596 4 67 
1310.137451 541.395630 4 65 
1791.437622 540.170410 4 61 
1633.443604 540.082703 4 62 
1472.812866 540.375000 4 64 
359.602997 407.320312 4 70 
511.263092 401.907410 4 72 
666.362976 397.413910 4 74 
824.132812 393.265900 4 76 
983.873230 389.669006 4 79 
1144.800049 387.413696 4 78 
1780.826050 386.792297 4 71 
1624.859253 385.835388 4 73 
1466.373657 385.256714 4 75 
1306.075928 385.832306 4 77 
369.797485 260.398987 4 80 
672.656616 249.157806 4 82 
827.679199 243.788605 4 86 
984.919617 239.846497 4 87 
1770.163818 237.603806 4 81 
1143.314941 238.091400 4 85 
1301.914673 236.687302 4 84 
1459.629395 236.202301 4 83 
380.074188 118.198303 4 88 
528.403320 111.894302 4 89 
679.004089 106.087700 4 91 
831.872986 101.041801 4 93 
986.472107 97.237900 4 96 
1758.847412 94.424698 4 90 
1141.857300 94.557404 4 97 
1606.647949 92.999001 4 92 
1297.647217 93.247101 4 95 
1452.722290 92.612099 4 94 
