ply
format ascii 1.0
element vertex 96
property float x
property float y
property char size
property char id
end_header
1256.670410 1639.955200 4 29 
1084.444946 1640.391846 4 39 
1429.986694 1639.333862 4 19 
914.867676 1637.658936 4 48 
1603.949951 1637.412842 4 11 
749.106018 1632.937256 4 52 
587.600586 1627.266479 4 60 
429.516907 1621.740723 4 70 
275.908997 1615.632446 4 80 
125.025002 1610.481445 4 88 
1253.973145 1473.402222 4 28 
1080.667969 1473.212769 4 38 
909.521301 1472.298950 4 46 
742.457581 1469.171875 4 53 
1603.736450 1468.549805 4 10 
579.974426 1465.015259 4 63 
421.480499 1460.758667 4 72 
118.587097 1451.196289 4 89 
1076.407227 1303.806152 4 35 
904.364014 1303.589844 4 44 
1251.168945 1302.806763 4 27 
736.296082 1302.209961 4 57 
1427.188843 1300.554565 4 18 
573.071899 1299.894043 4 66 
414.613403 1297.100464 4 74 
1603.314453 1297.074951 4 9 
261.511810 1293.791748 4 82 
112.155800 1291.060303 4 91 
899.083679 1132.450928 4 47 
730.413391 1132.677979 4 58 
566.979126 1132.203369 4 68 
408.406403 1131.481445 4 76 
254.561493 1130.760010 4 86 
1072.100708 1131.272461 4 37 
106.477798 1129.654175 4 93 
1247.970581 1129.199097 4 26 
1425.004272 1125.954102 4 16 
1601.895508 1122.184814 4 7 
101.982803 967.423279 4 96 
249.460602 966.169189 4 87 
403.241791 964.504028 4 79 
561.427002 963.062378 4 69 
725.213989 961.265076 4 59 
894.368286 959.051208 4 49 
1068.063843 956.333130 4 36 
1244.569580 953.017029 4 24 
1422.118164 949.437988 4 15 
1599.519043 945.593018 4 5 
98.847801 804.926208 4 97 
247.143097 801.055115 4 85 
400.032990 797.058411 4 78 
558.704224 792.828186 4 67 
722.599609 788.645874 4 56 
891.396423 784.463074 4 43 
1064.897705 780.184998 4 34 
1240.983887 775.992493 4 22 
1418.344482 771.875793 4 13 
1595.556763 768.016724 4 3 
97.165604 642.586182 4 95 
245.394501 636.233826 4 84 
397.947510 629.773010 4 77 
556.681396 623.259094 4 65 
720.108398 616.833618 4 55 
888.602783 610.585999 4 41 
1061.425659 604.957703 4 33 
1236.979492 599.793518 4 20 
1413.811890 595.182007 4 12 
1590.356812 591.258423 4 2 
96.158997 481.173798 4 94 
244.806900 472.717010 4 83 
397.444611 463.965607 4 75 
555.682983 455.229706 4 64 
718.185425 446.613007 4 54 
886.393494 438.792389 4 40 
1058.173340 431.655304 4 32 
1232.810791 425.582001 4 21 
1408.642944 420.531311 4 14 
1584.469971 416.372009 4 4 
95.970299 320.925812 4 92 
398.490204 300.343109 4 73 
555.973328 289.833710 4 62 
718.088623 279.586212 4 51 
884.166321 269.346497 4 45 
1055.248291 261.571686 4 31 
1228.439453 254.572800 4 23 
1577.618286 244.570206 4 6 
96.521004 162.032104 4 90 
246.162399 150.717499 4 81 
400.018890 139.352798 4 71 
556.906189 127.357498 4 61 
718.270813 115.952400 4 50 
882.848694 103.869400 4 42 
1052.609741 95.863098 4 30 
1223.991577 87.676498 4 25 
1396.990234 81.052696 4 17 
1570.295654 76.317802 4 8 
