ply
format ascii 1.0
element vertex 1855
property uchar red
property uchar green
property uchar blue
end_header
176 211 193 
129 139 142 
171 172 170 
176 212 193 
167 173 177 
212 212 206 
166 162 156 
138 146 150 
150 146 141 
195 195 194 
146 148 151 
149 155 156 
144 135 134 
207 208 207 
181 185 184 
103 108 114 
137 144 146 
176 177 175 
165 167 168 
133 141 142 
99 109 114 
84 84 80 
135 137 140 
149 161 167 
164 172 173 
124 120 122 
168 158 151 
95 109 116 
117 116 117 
134 144 149 
150 150 148 
128 128 125 
145 152 155 
140 149 152 
186 177 161 
174 176 176 
168 177 179 
170 163 161 
182 181 177 
160 164 166 
182 218 200 
183 182 176 
154 162 161 
171 207 186 
211 210 204 
128 132 135 
114 126 128 
141 132 125 
110 107 98 
94 112 114 
58 76 87 
65 79 85 
111 108 99 
105 111 115 
93 100 105 
96 111 115 
182 186 184 
186 214 193 
162 171 174 
226 223 210 
157 163 164 
187 187 186 
181 183 180 
182 185 185 
143 158 162 
190 186 179 
177 181 180 
146 152 153 
176 180 176 
178 163 155 
159 166 169 
140 135 133 
134 137 135 
105 114 117 
155 149 148 
121 132 135 
91 100 96 
101 109 112 
108 115 119 
97 115 120 
62 78 90 
50 77 89 
72 92 102 
58 85 93 
48 69 82 
54 77 91 
73 90 100 
84 98 99 
66 91 95 
68 83 97 
25 59 75 
154 155 157 
167 159 131 
114 127 129 
90 101 105 
125 142 138 
156 167 170 
120 132 137 
139 141 142 
142 144 139 
112 120 127 
143 140 134 
141 148 150 
135 131 124 
159 147 143 
85 92 98 
146 147 149 
153 159 161 
125 130 137 
111 128 138 
148 147 147 
125 139 144 
94 112 124 
84 101 107 
147 160 162 
107 122 130 
183 184 177 
119 131 136 
174 171 168 
160 159 157 
171 170 165 
138 146 148 
149 159 161 
186 189 186 
127 127 128 
160 113 113 
116 141 128 
129 122 124 
134 113 118 
112 115 118 
119 132 135 
133 143 132 
158 159 162 
113 122 115 
157 157 156 
136 148 157 
128 141 146 
180 175 170 
164 155 156 
142 140 136 
117 125 130 
160 160 154 
197 196 189 
153 160 155 
205 202 198 
136 144 147 
196 201 199 
171 171 168 
179 186 189 
175 184 187 
156 165 168 
208 206 201 
202 200 195 
207 206 199 
170 171 169 
180 185 187 
175 171 170 
194 201 204 
180 180 177 
196 195 191 
156 158 159 
123 137 142 
165 173 175 
182 177 174 
135 149 155 
174 171 171 
208 207 199 
190 188 183 
192 190 186 
166 170 172 
187 186 183 
126 141 149 
208 211 208 
223 217 210 
160 168 169 
195 194 191 
159 159 160 
173 178 181 
183 184 183 
151 154 156 
186 185 180 
173 173 173 
164 167 167 
134 149 151 
147 159 164 
179 177 176 
175 172 170 
190 188 184 
167 163 162 
199 187 171 
162 165 162 
161 161 158 
113 125 132 
153 156 158 
144 149 141 
125 134 138 
162 162 161 
128 129 135 
155 158 160 
138 142 145 
152 145 137 
110 125 129 
176 175 170 
140 117 119 
130 139 143 
111 128 136 
165 177 177 
170 169 162 
138 146 150 
167 165 164 
171 180 179 
182 186 185 
103 110 115 
153 166 168 
129 123 127 
180 177 174 
145 142 146 
112 122 129 
148 128 130 
98 118 130 
101 111 120 
116 132 133 
154 167 165 
150 156 157 
170 158 136 
166 156 138 
140 147 149 
135 136 138 
219 217 210 
223 221 215 
202 200 195 
175 173 166 
192 191 182 
213 219 220 
236 236 235 
228 230 231 
203 202 195 
192 196 196 
183 181 179 
245 245 243 
238 241 237 
203 204 193 
214 215 211 
236 237 237 
194 193 184 
243 244 241 
206 211 213 
233 237 240 
183 194 198 
204 201 185 
213 213 212 
206 212 214 
204 211 215 
175 174 169 
95 111 121 
172 170 162 
131 138 142 
142 123 126 
125 114 121 
164 166 166 
129 121 123 
131 140 146 
119 132 138 
144 151 151 
163 141 141 
139 140 144 
179 175 171 
158 160 158 
137 149 155 
111 119 128 
145 148 145 
164 178 182 
170 168 160 
102 113 120 
111 110 114 
177 173 164 
88 110 122 
102 118 127 
167 149 147 
139 141 143 
168 168 169 
187 181 177 
164 165 165 
113 120 125 
147 152 153 
165 130 130 
128 133 137 
136 142 147 
171 172 172 
114 127 132 
137 146 152 
127 144 121 
135 139 142 
142 150 152 
167 140 141 
167 162 153 
139 148 151 
147 156 158 
169 170 169 
149 161 165 
177 185 186 
176 175 172 
179 183 185 
172 169 168 
147 149 154 
161 167 167 
175 179 180 
176 174 169 
186 186 181 
166 174 178 
156 154 150 
226 220 217 
228 227 223 
190 190 188 
173 178 178 
170 175 176 
179 184 184 
142 155 158 
209 208 203 
209 206 201 
156 150 154 
183 183 180 
178 166 141 
207 209 207 
248 243 223 
249 250 248 
202 205 204 
245 245 242 
192 194 187 
246 247 243 
229 232 229 
206 210 212 
212 217 216 
247 248 247 
249 249 245 
225 218 204 
214 200 181 
239 239 234 
210 218 217 
230 233 233 
216 221 220 
206 212 215 
248 245 237 
218 206 189 
243 243 239 
222 213 212 
191 183 178 
183 191 191 
170 180 183 
133 144 149 
151 151 146 
164 167 169 
175 176 177 
166 173 177 
194 192 188 
180 153 150 
187 193 195 
132 128 128 
176 175 171 
131 139 139 
165 165 161 
223 224 224 
215 217 212 
167 176 182 
197 194 189 
127 135 138 
171 182 183 
168 176 180 
132 142 148 
202 200 193 
141 146 149 
203 202 197 
192 187 184 
199 196 191 
156 163 168 
194 192 185 
176 182 180 
175 173 168 
168 173 172 
160 155 157 
184 178 174 
178 183 179 
199 198 193 
193 193 189 
183 152 149 
178 185 186 
186 185 180 
207 207 205 
153 159 160 
206 204 197 
131 132 133 
160 154 139 
179 180 180 
195 193 190 
172 167 160 
168 166 165 
147 154 154 
128 135 136 
157 161 163 
126 135 139 
149 149 147 
143 135 133 
146 144 143 
137 137 136 
112 114 118 
213 208 202 
129 129 131 
137 135 135 
118 120 120 
133 137 137 
136 138 139 
132 136 138 
179 167 161 
133 139 141 
115 124 127 
113 122 124 
150 152 150 
174 176 175 
163 167 168 
161 161 159 
150 159 161 
142 153 155 
147 152 155 
146 147 147 
124 123 126 
142 142 139 
161 161 151 
209 210 208 
147 153 157 
149 150 148 
143 147 146 
148 149 150 
146 149 149 
201 203 201 
162 165 163 
170 170 171 
202 193 153 
163 166 160 
107 120 124 
53 75 88 
118 125 126 
94 111 119 
94 110 117 
79 91 97 
87 92 101 
74 96 102 
54 79 91 
81 97 105 
173 179 181 
201 196 189 
160 161 156 
179 176 172 
138 142 146 
165 171 167 
130 132 133 
138 147 152 
145 143 140 
153 162 159 
98 109 117 
167 169 169 
111 120 125 
137 154 160 
116 122 126 
187 188 187 
156 161 162 
209 206 203 
214 209 201 
130 138 135 
109 124 132 
136 140 143 
163 161 158 
164 167 164 
128 123 119 
143 146 149 
116 129 136 
109 121 127 
168 177 178 
124 120 114 
144 143 135 
131 144 145 
81 96 106 
101 110 113 
46 81 84 
47 86 83 
136 135 120 
134 140 142 
131 141 141 
147 145 143 
134 130 131 
107 117 123 
103 111 109 
123 123 117 
119 131 132 
141 149 151 
161 161 156 
137 135 126 
172 174 173 
164 174 177 
160 165 167 
177 174 167 
151 150 146 
105 130 136 
153 138 139 
110 119 131 
124 136 143 
143 140 140 
153 135 137 
134 138 133 
146 149 152 
129 138 145 
130 133 131 
168 168 168 
110 126 128 
123 135 140 
130 140 146 
123 144 121 
139 146 150 
152 143 142 
163 167 166 
177 170 144 
148 153 154 
163 164 166 
132 128 132 
112 128 136 
125 134 138 
128 161 163 
109 121 130 
107 122 131 
119 127 133 
159 150 148 
154 169 174 
104 115 124 
164 162 158 
118 125 128 
130 134 129 
124 135 112 
138 139 139 
169 168 163 
147 151 150 
165 165 166 
122 122 126 
120 122 127 
91 119 92 
141 133 137 
98 112 121 
175 181 180 
122 123 119 
166 174 176 
143 140 134 
107 118 122 
122 126 129 
181 179 172 
161 158 153 
155 161 163 
191 185 180 
154 164 168 
135 140 141 
166 165 159 
175 176 165 
163 167 169 
189 188 184 
151 149 146 
187 186 182 
142 121 121 
138 144 144 
199 195 193 
147 148 152 
94 109 112 
161 155 136 
148 167 171 
215 219 218 
197 197 195 
175 173 170 
178 176 171 
180 178 173 
145 157 161 
132 146 154 
166 178 183 
141 146 145 
151 159 159 
96 108 118 
185 180 178 
185 186 183 
168 168 165 
190 188 186 
181 178 172 
112 127 136 
183 181 180 
163 168 166 
142 156 163 
192 195 194 
135 122 117 
123 130 136 
161 163 167 
154 153 139 
118 129 132 
124 136 142 
141 143 147 
164 141 143 
90 109 121 
126 140 147 
135 143 148 
164 174 178 
149 152 152 
143 120 123 
76 97 110 
171 168 160 
94 98 107 
144 114 116 
165 159 155 
133 142 149 
102 114 120 
161 157 151 
155 157 157 
176 159 158 
130 144 144 
120 130 132 
189 189 189 
162 156 124 
149 148 148 
163 169 172 
126 142 148 
193 140 135 
186 145 143 
113 126 132 
162 167 166 
102 116 125 
102 120 127 
157 155 150 
117 129 118 
154 153 154 
135 126 128 
156 161 162 
157 155 154 
117 121 127 
154 169 142 
96 108 118 
117 127 133 
153 145 139 
170 163 166 
158 163 163 
100 115 123 
123 137 144 
163 167 165 
174 172 174 
211 209 205 
222 224 223 
182 183 175 
207 208 204 
204 204 197 
221 224 222 
236 236 235 
224 233 234 
174 185 188 
206 197 184 
142 154 160 
203 208 199 
212 218 218 
214 219 224 
241 242 245 
187 196 200 
145 160 163 
202 206 205 
193 197 199 
227 230 231 
239 241 242 
190 196 197 
220 211 199 
240 240 237 
230 228 223 
216 234 236 
146 159 165 
227 223 221 
196 193 185 
237 237 235 
234 235 232 
236 239 239 
85 103 103 
149 153 154 
136 137 138 
137 155 153 
133 137 140 
84 97 110 
109 126 131 
157 148 136 
170 156 152 
170 123 124 
91 99 107 
146 148 155 
130 138 145 
150 164 165 
168 166 162 
124 140 144 
142 144 145 
130 143 149 
114 124 129 
143 120 123 
147 142 140 
119 130 135 
129 117 120 
145 145 146 
143 141 139 
116 120 130 
154 152 150 
139 148 138 
141 148 151 
164 164 156 
117 132 137 
146 153 156 
89 106 114 
136 142 149 
159 150 150 
99 114 120 
130 138 132 
143 145 147 
118 126 133 
153 149 148 
130 143 148 
126 130 132 
100 108 117 
95 106 116 
103 118 124 
148 163 164 
146 122 126 
140 136 136 
175 147 144 
102 114 122 
99 112 119 
194 152 147 
114 106 107 
140 148 145 
142 141 140 
94 106 115 
159 158 158 
84 100 112 
93 111 123 
152 159 160 
145 150 149 
167 164 170 
157 156 154 
155 153 156 
194 190 183 
172 176 177 
162 174 179 
170 169 165 
185 185 179 
149 151 154 
162 171 174 
179 178 177 
186 183 178 
162 176 182 
163 157 158 
182 184 186 
167 173 174 
202 205 205 
173 179 181 
183 181 177 
174 175 174 
158 164 166 
173 176 177 
135 141 146 
118 126 132 
126 132 132 
184 172 170 
189 187 180 
168 172 174 
171 178 181 
149 161 167 
248 248 245 
237 213 156 
148 171 175 
215 221 223 
214 206 194 
141 156 159 
185 193 194 
216 218 218 
226 227 226 
247 248 245 
183 193 185 
246 246 243 
184 196 200 
236 230 222 
189 200 201 
231 234 234 
237 239 236 
181 179 175 
204 200 196 
172 174 172 
165 163 155 
166 175 176 
97 117 125 
149 140 140 
127 138 147 
115 129 138 
161 175 174 
141 153 157 
194 189 184 
193 193 191 
179 183 184 
157 168 172 
160 163 165 
172 170 168 
175 179 180 
188 186 182 
145 150 150 
122 130 136 
141 152 160 
190 202 205 
145 157 160 
183 195 196 
167 179 182 
197 196 178 
200 204 203 
166 169 170 
194 190 183 
192 192 191 
158 157 153 
185 183 176 
187 186 184 
167 153 147 
182 191 194 
129 132 137 
179 180 176 
161 168 170 
156 141 139 
182 179 177 
162 166 168 
201 196 188 
137 145 148 
172 169 163 
184 189 188 
172 166 161 
143 134 129 
181 184 183 
102 107 106 
103 115 119 
191 184 180 
174 172 165 
108 119 125 
191 190 183 
176 179 179 
201 201 197 
92 106 112 
94 103 103 
116 126 133 
137 145 147 
122 137 142 
177 172 162 
178 177 172 
206 207 203 
191 181 142 
181 179 179 
101 107 111 
131 114 112 
36 66 80 
163 167 168 
129 128 129 
164 163 164 
128 125 123 
160 162 163 
126 128 133 
157 155 152 
124 131 134 
153 151 146 
175 177 176 
177 139 136 
118 106 111 
130 112 118 
131 139 143 
145 119 124 
165 167 163 
75 100 113 
155 161 164 
106 116 123 
154 147 137 
148 149 147 
140 150 156 
139 129 132 
94 109 121 
118 112 114 
189 188 182 
104 114 124 
156 123 124 
135 103 107 
212 213 212 
194 195 193 
193 192 188 
205 203 195 
178 178 175 
205 204 204 
110 120 117 
194 197 191 
162 164 164 
169 178 181 
113 125 132 
172 175 177 
177 174 176 
196 205 208 
137 145 146 
159 145 140 
125 126 132 
173 150 150 
117 122 124 
134 135 134 
121 121 127 
179 146 140 
130 123 127 
177 172 168 
152 159 161 
127 145 127 
153 148 151 
157 151 143 
126 131 133 
128 128 134 
136 136 138 
133 143 146 
201 184 174 
165 165 162 
208 212 213 
249 249 247 
125 129 131 
102 114 124 
152 126 126 
136 136 135 
130 139 144 
146 147 147 
176 173 165 
167 171 170 
112 124 130 
119 128 132 
142 136 139 
150 161 163 
133 138 140 
161 157 153 
146 142 145 
97 117 107 
86 96 105 
120 136 141 
156 157 155 
159 167 169 
193 191 187 
191 188 182 
174 176 176 
172 170 171 
113 123 130 
170 170 169 
87 105 114 
179 182 183 
171 177 175 
183 189 191 
222 225 226 
224 221 216 
196 196 192 
177 177 173 
171 173 171 
153 161 164 
158 166 159 
174 162 165 
188 185 180 
129 151 159 
221 221 220 
142 145 144 
171 180 183 
180 181 182 
161 172 179 
105 118 128 
147 144 131 
170 180 182 
162 171 175 
47 78 85 
146 148 147 
133 141 146 
139 149 156 
123 132 135 
194 214 223 
116 146 139 
204 190 169 
94 112 112 
83 95 102 
97 106 111 
179 176 168 
177 178 177 
226 225 220 
200 200 197 
202 189 173 
185 184 179 
134 144 149 
112 117 106 
154 140 135 
131 138 139 
157 168 173 
134 146 150 
175 184 187 
151 156 156 
165 173 174 
162 168 168 
186 175 159 
188 187 184 
119 114 116 
146 149 142 
152 156 154 
151 164 169 
142 137 129 
113 125 129 
102 113 121 
135 140 141 
151 148 147 
170 175 175 
166 166 163 
143 139 134 
125 124 129 
84 95 102 
171 181 182 
113 124 126 
173 163 151 
139 140 142 
198 205 208 
181 173 158 
159 157 151 
171 180 182 
187 187 180 
179 171 160 
129 137 137 
75 92 101 
146 150 149 
135 131 125 
138 134 128 
152 147 142 
145 142 135 
147 156 157 
100 107 112 
137 141 141 
115 112 114 
169 172 167 
128 128 126 
100 102 105 
84 107 116 
201 203 200 
147 156 159 
185 181 178 
181 182 180 
196 191 186 
165 167 160 
166 172 175 
164 169 167 
172 162 152 
178 184 168 
116 123 124 
152 141 135 
154 142 136 
195 190 179 
103 113 121 
139 151 156 
189 191 190 
163 169 170 
182 187 187 
158 160 157 
130 140 136 
189 193 191 
141 143 135 
175 182 187 
168 170 166 
138 135 135 
214 217 217 
153 150 146 
100 116 123 
79 84 87 
159 142 141 
37 74 77 
158 161 156 
118 123 129 
162 165 163 
158 159 157 
117 128 135 
185 135 128 
183 176 171 
128 135 137 
153 141 137 
166 162 156 
156 158 155 
157 162 161 
141 146 145 
137 111 114 
130 140 144 
169 167 156 
105 115 119 
115 122 125 
82 105 94 
101 110 119 
79 91 105 
141 140 138 
169 171 170 
96 106 113 
168 163 155 
155 162 163 
151 159 160 
144 149 150 
151 156 156 
154 159 159 
120 129 134 
147 133 129 
66 89 101 
121 132 137 
160 170 172 
147 147 141 
146 144 142 
120 129 131 
147 154 157 
149 152 153 
168 171 160 
153 156 146 
138 147 149 
166 168 166 
60 85 84 
166 169 169 
158 153 142 
89 103 112 
77 105 99 
134 145 124 
155 161 164 
141 144 144 
103 119 124 
97 112 118 
144 150 153 
160 166 170 
152 156 154 
156 155 149 
145 153 155 
82 104 117 
141 148 152 
87 102 110 
120 131 137 
160 162 162 
167 155 154 
173 173 169 
145 160 164 
174 180 180 
202 194 180 
199 200 193 
177 184 185 
219 222 221 
163 161 153 
171 177 177 
167 172 172 
181 177 180 
174 175 173 
170 172 171 
197 200 196 
181 182 178 
188 184 166 
186 178 166 
222 224 219 
183 185 183 
157 165 167 
177 177 175 
149 154 155 
178 184 187 
125 147 141 
196 196 191 
186 191 193 
182 181 177 
210 205 197 
188 185 180 
125 137 142 
144 132 137 
157 153 154 
168 171 170 
154 157 155 
141 148 148 
128 135 134 
83 97 107 
166 173 176 
150 148 147 
95 108 116 
85 100 106 
147 154 155 
128 130 121 
126 135 141 
48 81 81 
102 126 116 
84 97 103 
131 137 143 
66 90 92 
137 142 144 
176 183 184 
88 99 110 
76 98 110 
150 151 148 
142 148 149 
146 153 154 
169 171 164 
105 115 122 
136 139 142 
117 132 140 
127 137 144 
155 154 154 
129 144 117 
111 124 129 
124 135 141 
132 130 117 
112 124 132 
151 154 145 
152 160 161 
127 128 132 
133 136 137 
117 128 134 
79 102 87 
180 176 161 
185 182 177 
153 159 160 
89 104 111 
71 90 101 
112 127 131 
102 111 118 
121 132 138 
158 163 165 
137 145 151 
127 131 134 
145 151 145 
172 172 167 
116 130 136 
44 77 79 
128 132 132 
169 171 171 
124 140 144 
193 192 190 
97 119 118 
151 157 159 
147 153 157 
118 133 142 
204 208 208 
141 136 139 
173 179 182 
112 130 141 
173 171 171 
204 206 204 
168 170 169 
159 167 169 
193 196 194 
183 182 180 
117 131 138 
156 167 173 
155 162 150 
206 206 199 
215 214 208 
186 188 185 
130 145 152 
210 211 209 
167 160 160 
184 182 177 
169 173 170 
145 157 160 
165 166 157 
170 171 169 
195 194 188 
184 192 193 
173 176 168 
179 174 169 
115 130 123 
171 172 170 
148 161 169 
172 173 170 
247 247 247 
197 197 194 
204 194 179 
201 205 203 
151 152 149 
154 154 148 
156 159 159 
149 155 157 
121 135 146 
80 104 109 
99 118 93 
132 134 138 
139 144 147 
139 146 147 
121 138 117 
86 98 101 
148 156 158 
102 109 118 
112 123 131 
114 120 125 
80 103 118 
126 122 123 
97 103 108 
159 156 151 
139 137 126 
79 101 111 
196 194 187 
118 125 130 
177 181 177 
91 113 122 
90 110 118 
142 148 149 
144 151 155 
119 128 136 
108 115 117 
140 139 138 
112 124 130 
152 121 121 
160 169 171 
131 136 140 
78 94 101 
108 127 97 
111 116 118 
118 127 136 
138 144 147 
99 110 120 
127 135 138 
158 167 171 
145 152 154 
98 117 128 
163 154 155 
150 141 144 
165 167 165 
167 167 163 
123 123 137 
122 130 132 
134 130 132 
132 113 115 
133 132 132 
163 159 150 
59 85 88 
96 109 114 
36 69 80 
74 96 93 
119 125 128 
180 180 176 
162 166 165 
159 147 150 
85 108 122 
110 119 124 
93 112 121 
144 158 161 
141 155 162 
154 157 148 
121 130 134 
173 162 157 
178 182 183 
170 173 172 
90 106 111 
148 152 155 
151 163 166 
138 151 130 
156 155 153 
125 135 137 
161 169 168 
148 149 146 
127 111 115 
74 99 94 
124 134 138 
100 113 116 
121 121 127 
43 77 80 
110 117 123 
105 120 127 
91 107 117 
190 190 187 
126 138 142 
112 119 123 
159 155 157 
155 155 152 
134 151 126 
249 250 250 
246 247 244 
206 209 208 
215 218 216 
242 241 234 
138 144 143 
177 183 184 
227 223 216 
200 191 173 
214 216 216 
211 214 213 
215 218 218 
162 167 170 
136 136 133 
161 168 170 
51 73 83 
173 175 174 
196 194 188 
217 216 208 
130 142 117 
119 125 129 
211 218 219 
130 133 133 
148 132 133 
137 138 139 
162 170 168 
172 170 167 
138 142 142 
143 154 160 
204 201 197 
159 158 153 
177 174 173 
196 201 199 
171 176 176 
169 167 159 
120 123 128 
196 193 188 
158 161 160 
144 144 139 
68 80 88 
122 128 130 
163 170 169 
186 189 187 
162 168 163 
168 170 172 
125 129 134 
140 142 141 
87 110 102 
145 148 146 
105 117 120 
126 134 138 
176 175 153 
163 167 165 
115 131 136 
198 203 204 
161 166 165 
181 183 182 
116 129 133 
147 148 148 
135 139 139 
93 103 112 
165 164 157 
145 150 152 
112 121 128 
144 155 158 
187 189 189 
133 141 143 
157 164 166 
185 186 187 
184 182 182 
129 144 142 
192 192 185 
128 143 148 
153 159 145 
147 154 158 
153 153 147 
127 131 125 
73 94 107 
155 160 158 
147 153 155 
179 177 167 
115 127 125 
158 156 149 
125 136 141 
164 164 160 
131 136 130 
100 113 118 
176 176 171 
242 244 243 
172 178 180 
136 136 134 
89 96 100 
146 150 153 
168 167 163 
166 164 163 
175 179 181 
106 133 145 
167 170 166 
131 141 137 
170 205 191 
179 170 158 
149 175 164 
167 164 157 
129 155 149 
182 184 181 
147 155 157 
144 179 167 
151 157 158 
204 204 198 
189 191 187 
170 205 189 
148 153 154 
92 101 100 
98 107 115 
158 154 147 
159 163 165 
198 194 179 
99 135 82 
134 135 133 
187 188 184 
151 152 150 
112 137 137 
129 137 139 
125 122 109 
122 128 126 
64 86 95 
152 152 151 
122 149 148 
165 172 172 
164 195 178 
176 176 169 
190 177 131 
134 138 140 
134 139 142 
130 138 136 
200 202 199 
133 137 127 
190 187 180 
94 116 127 
147 147 145 
139 143 143 
174 172 170 
165 172 175 
172 169 163 
173 173 167 
170 171 170 
191 196 198 
199 198 192 
213 218 220 
170 168 162 
199 205 207 
139 147 153 
190 189 182 
183 190 192 
172 173 170 
193 187 175 
132 136 135 
86 99 106 
129 134 135 
164 162 153 
173 174 170 
169 170 166 
161 163 164 
144 146 143 
134 137 133 
140 140 138 
148 161 162 
158 158 158 
134 134 137 
123 129 134 
166 173 175 
93 113 121 
125 122 131 
148 108 116 
154 156 152 
97 113 124 
180 177 173 
124 137 143 
129 133 136 
128 130 130 
141 129 132 
121 124 123 
110 115 116 
162 162 159 
68 88 95 
132 136 137 
134 148 148 
154 158 159 
129 135 139 
103 127 122 
135 141 145 
83 105 106 
145 151 150 
146 148 146 
165 165 163 
164 163 158 
133 144 148 
123 136 137 
155 169 173 
122 125 125 
157 159 155 
144 148 148 
163 162 158 
122 127 128 
117 147 148 
208 208 204 
178 199 193 
196 193 186 
147 160 168 
108 121 126 
203 200 187 
238 185 172 
204 211 209 
244 245 242 
239 239 236 
229 228 227 
127 135 136 
189 192 191 
118 120 116 
153 148 143 
110 122 128 
140 145 147 
150 153 153 
134 143 143 
144 148 144 
148 158 148 
159 154 118 
150 151 150 
122 129 135 
137 138 136 
124 135 132 
163 158 154 
106 119 127 
146 149 149 
109 135 108 
148 153 155 
151 164 168 
116 127 132 
142 146 147 
163 159 129 
196 187 173 
204 195 185 
120 137 136 
170 171 171 
188 186 180 
168 172 171 
173 172 169 
186 176 179 
184 180 180 
154 159 161 
146 152 150 
204 205 203 
162 173 171 
227 228 228 
210 211 212 
231 232 231 
209 215 213 
245 245 242 
199 194 181 
136 140 142 
92 115 102 
123 132 116 
133 135 137 
128 134 136 
145 149 148 
153 149 139 
130 140 138 
83 101 107 
158 157 155 
152 130 132 
137 140 142 
146 144 145 
82 109 101 
177 167 156 
155 152 144 
117 127 131 
147 149 149 
153 154 153 
111 122 127 
153 148 136 
159 165 165 
124 122 118 
58 82 89 
152 161 161 
151 157 157 
158 163 163 
189 188 186 
195 195 188 
167 166 166 
161 170 172 
128 138 139 
148 155 157 
161 164 164 
139 149 149 
149 155 156 
120 131 135 
150 156 158 
86 93 97 
111 126 125 
139 145 144 
123 141 133 
128 134 121 
138 144 146 
136 140 144 
131 137 123 
114 115 116 
79 96 101 
52 77 89 
55 83 84 
157 162 161 
83 104 97 
178 183 184 
153 156 137 
167 189 171 
127 137 141 
117 127 128 
159 165 171 
132 147 145 
133 144 147 
170 169 165 
192 196 195 
130 155 178 
151 154 154 
105 116 120 
91 111 102 
161 167 168 
131 96 102 
155 161 165 
155 158 159 
138 112 115 
140 145 144 
146 146 142 
161 165 166 
163 164 162 
147 155 157 
122 132 120 
114 132 110 
169 167 163 
112 122 132 
117 120 124 
134 146 151 
145 152 154 
151 153 151 
141 150 152 
167 163 152 
163 162 160 
126 138 142 
186 139 135 
161 167 160 
164 161 159 
144 148 151 
124 126 110 
140 146 149 
125 135 140 
175 178 178 
148 153 153 
169 169 167 
236 202 205 
185 185 179 
238 241 239 
220 224 223 
192 194 195 
101 122 130 
152 149 150 
138 121 126 
171 121 134 
123 134 136 
143 148 150 
152 162 166 
142 124 129 
100 125 135 
129 134 140 
139 146 150 
113 129 138 
168 170 169 
164 164 163 
156 168 174 
179 181 181 
168 170 168 
163 162 157 
193 190 179 
169 164 159 
208 201 191 
226 223 216 
216 219 218 
231 231 221 
252 253 253 
233 225 217 
127 142 147 
141 147 152 
176 179 166 
156 156 153 
124 139 145 
161 170 172 
120 135 142 
151 164 163 
113 124 131 
151 149 148 
173 177 176 
132 134 135 
174 174 172 
151 152 149 
159 162 160 
157 166 167 
135 134 121 
151 153 151 
126 132 132 
175 212 193 
148 154 153 
121 122 105 
138 132 121 
190 194 190 
174 171 161 
167 168 168 
116 123 125 
145 148 150 
118 127 129 
134 129 117 
112 112 113 
38 72 78 
117 123 127 
101 106 109 
117 129 133 
92 107 107 
120 120 111 
146 154 153 
94 113 106 
129 126 115 
144 154 156 
143 145 122 
128 139 118 
141 143 140 
118 128 128 
113 122 127 
103 118 132 
156 162 149 
93 101 110 
118 121 125 
159 162 160 
153 156 153 
118 124 125 
164 159 150 
138 145 134 
129 138 115 
165 173 173 
132 134 133 
156 158 153 
102 112 111 
128 134 135 
139 151 133 
120 122 124 
163 162 157 
162 166 165 
158 155 145 
135 135 136 
131 135 139 
150 152 151 
185 192 194 
162 167 168 
169 172 173 
170 173 169 
184 181 177 
159 155 123 
186 183 181 
172 173 171 
174 180 184 
237 237 235 
215 223 228 
240 241 241 
139 141 138 
191 183 137 
221 225 226 
230 230 228 
132 142 148 
160 168 168 
186 183 176 
194 143 149 
139 148 150 
166 172 172 
106 114 120 
125 138 132 
139 141 142 
97 105 101 
157 158 156 
143 140 121 
160 155 147 
137 127 126 
164 172 173 
144 152 151 
163 146 146 
119 130 139 
91 114 125 
