ply
format ascii 1.0
element vertex 268
property float x
property float y
property float size
property short id
end_header
2788.681641 285.513855 15.774504 28 
2885.991455 285.827393 19.814352 31 
2852.489014 288.418884 7.950004 57 
2815.493164 408.062866 25.038679 69 
1496.809448 633.958374 10.802670 90 
2044.541138 760.034729 7.738399 101 
2797.807861 320.005493 12.282612 104 
1335.721436 1521.666626 7.927604 110 
1395.068359 1700.855713 6.848351 111 
3431.029541 701.927612 7.424275 112 
394.985352 2047.515381 11.207019 113 
212.073914 1846.801147 7.063622 114 
2322.029541 832.898499 9.497802 115 
2561.650635 478.624023 17.949553 116 
2091.876465 221.183701 13.628546 117 
3158.824219 1049.044678 29.848722 118 
2882.370850 321.102570 9.308150 119 
2847.459229 338.571655 7.637709 120 
2835.306152 307.394318 19.380835 121 
1578.178955 834.424377 79.240623 122 
2659.876465 1017.154541 54.666809 123 
847.924805 2163.021240 8.976361 178 
450.395569 238.729141 5.010392 393 
1438.974121 59.099857 3.601726 435 
363.775940 535.920898 5.044550 473 
615.854980 1205.266846 3.779927 474 
1259.863525 496.801117 5.133594 475 
3772.026611 775.231873 7.082526 476 
234.736328 872.919373 5.267157 477 
225.210098 894.898071 6.555880 478 
1476.551025 892.429626 6.243205 480 
282.467407 748.771729 5.246945 481 
352.733215 541.432312 4.132030 482 
3597.216309 844.007568 5.273537 483 
2871.667725 251.819366 7.948058 484 
2088.063232 1096.877319 8.904585 485 
2497.300781 2196.448242 11.133953 486 
815.597534 746.641724 8.751493 496 
3706.040283 502.168518 4.224011 640 
3790.435059 342.381805 5.706126 682 
3765.758301 621.455139 6.631956 735 
3693.906006 350.727661 4.574317 737 
3088.108398 1977.524048 34.039028 797 
3211.569092 2068.637451 28.038515 798 
2344.719727 1550.083252 8.529072 952 
409.100494 968.905518 11.763939 953 
930.093262 590.062988 13.115556 954 
2833.457764 468.952911 17.967169 955 
3277.442383 958.940063 8.870999 956 
997.422058 723.905457 13.250765 957 
2030.560059 965.898987 4.495288 958 
3629.877197 1397.857056 4.927745 959 
2643.146484 2260.224609 9.741364 960 
1577.488403 502.322723 6.569614 971 
403.747650 631.853882 5.586541 1211 
1170.513428 295.345734 12.122274 1212 
684.872803 1209.974487 11.625410 1213 
1392.975830 1250.454590 8.832270 1214 
2535.903320 997.473450 13.699299 1215 
1729.207275 2036.802124 5.579794 1216 
2335.201416 599.388306 9.383275 1217 
2492.556641 1341.609985 17.269753 1218 
2407.835693 1558.110229 16.264784 1219 
2959.061523 2352.130371 6.161658 1220 
2235.346436 103.230553 3.939661 1221 
812.002136 2062.158203 56.123516 1380 
42.623566 1155.989380 3.788555 1630 
2023.333252 1644.166260 12.946946 1706 
2602.372314 1204.832397 11.122083 1729 
567.495239 2115.660156 27.785677 1777 
412.239136 910.914978 6.586335 1797 
3029.558838 757.206604 7.804363 1798 
1485.148193 1134.941650 12.125586 1799 
546.225769 263.233582 10.411188 1800 
731.355286 355.030090 16.380791 1801 
2792.740234 352.620911 17.129055 1802 
1497.812012 1069.491455 14.110019 1803 
1757.013306 157.270309 15.192284 1804 
629.853699 324.561951 15.060070 1805 
1475.600830 835.529846 16.329897 1806 
1869.037964 470.131104 22.679529 1807 
2709.626465 244.224060 19.677620 1808 
887.785217 348.465271 19.103302 1809 
983.830933 344.556915 14.754160 1810 
1078.351685 341.132812 18.827997 1811 
3146.658447 263.246918 18.932528 1812 
935.096130 517.603699 17.743013 1813 
2658.262207 141.004440 14.553171 1815 
1024.614258 182.768433 15.352151 1816 
3100.676514 468.743591 17.581497 1817 
686.156494 2018.403442 34.806297 1818 
633.594788 281.865997 8.312720 1819 
3127.563477 552.181885 12.109756 1820 
584.807007 249.006683 9.970466 1821 
2822.297852 1150.151245 8.362767 1822 
1445.886963 1475.652100 8.943171 1823 
582.791382 173.916702 7.899521 1824 
1706.268677 1369.852661 4.820343 1825 
3294.431152 160.776062 6.939774 1826 
1775.917114 43.026894 3.844833 1827 
652.920654 249.560135 6.608500 1828 
340.724030 1713.376587 5.023999 1829 
1506.301392 1981.964478 5.325116 1830 
501.782593 114.189995 6.533459 1831 
1066.382568 374.138641 7.793719 1833 
718.757690 242.666656 11.950885 1834 
3240.306885 71.964691 7.456477 1835 
925.597961 395.217102 7.579730 1836 
2405.865479 726.107605 11.781840 1837 
1235.203491 1286.613892 9.727176 1838 
1863.571899 255.497498 17.585365 1839 
3210.456543 271.144562 17.780817 1840 
2962.610352 287.060364 30.625099 1841 
811.524597 349.776978 29.761917 1842 
2544.641602 387.198944 39.500095 1843 
1695.042358 1600.670166 66.534531 1844 
2059.212646 1595.738892 65.054054 1845 
1287.737305 830.777771 78.569206 1846 
655.772827 279.157837 9.275832 1847 
2222.222900 802.891296 7.426731 1848 
901.597778 315.849640 7.759278 1849 
992.569275 311.625031 11.640530 1850 
2890.920898 764.299988 12.277912 1851 
561.477173 287.169800 11.421341 1852 
1451.594604 614.690430 12.367630 1853 
595.052734 366.397736 8.270770 1854 
1474.310181 1447.655762 9.434786 1855 
1635.127686 2024.606445 8.472099 1856 
2742.856445 269.071503 14.181806 1857 
2243.405762 1545.438843 11.976673 1858 
3271.682861 71.355560 5.335036 1859 
488.428375 144.138931 4.903807 1860 
3306.443604 144.584549 5.067134 1861 
462.234070 588.192322 5.394380 1862 
656.406433 66.108498 6.762471 1863 
682.669556 65.830711 5.884993 1864 
790.163757 60.196045 5.821450 1865 
1038.109497 291.803772 6.593474 1866 
3353.373291 247.615601 4.505326 1867 
2759.297852 345.718201 6.650043 1868 
1610.500000 826.788269 6.626887 1869 
1233.489136 48.876095 4.746880 1870 
513.777039 94.208366 6.453553 1871 
3296.105225 124.440704 6.126244 1872 
452.985992 610.096741 5.166706 1873 
3287.778809 102.017532 5.778851 1874 
1090.447632 63.404285 4.067964 1875 
1125.468140 62.712887 4.191584 1876 
470.451813 47.267422 4.075516 1877 
2761.846924 215.386505 4.878378 1878 
3048.228516 336.140594 3.682599 1879 
1098.573608 51.508820 5.669387 1880 
1934.547852 1072.473511 13.203491 1881 
398.529724 591.113708 32.107002 1882 
1393.435791 2439.280029 5.228983 1883 
1188.109741 66.608871 4.395563 1884 
1292.352661 63.175640 4.038617 1885 
1065.610474 72.801666 4.006368 1886 
1028.352173 1340.401123 6.176423 1887 
3097.389404 1859.393433 8.889366 1888 
354.195740 445.896545 3.568044 1889 
1735.633667 239.020081 7.359000 1890 
2963.097412 2384.021484 9.626732 1891 
682.950562 961.092712 8.169637 1892 
1324.494141 991.904480 14.033262 1893 
3611.411133 877.221313 4.158161 1894 
2726.293945 1422.950073 24.457829 1895 
2059.294922 1752.308105 26.881893 1896 
599.830688 1214.707153 17.299417 1897 
2749.043701 1561.734253 8.762073 1898 
1353.970337 1611.412842 65.093224 1899 
1245.748657 1172.469238 68.252213 1900 
2206.516846 1301.025146 96.001968 1901 
2745.846680 1580.490845 65.746857 1902 
2224.541992 1598.052124 102.015442 1903 
2581.128418 1592.617676 101.045898 1904 
3048.758301 1304.487427 11.517595 1905 
3295.164551 876.101868 5.075154 1906 
2244.976562 1351.132080 4.974673 1907 
2377.757812 116.273590 11.919761 1908 
998.158142 1605.052002 23.188416 1909 
935.670105 2114.874268 28.641659 1910 
2854.970703 1724.105713 7.349323 1911 
2269.215332 347.330688 5.516605 1912 
3505.412842 622.968018 5.661700 1913 
1007.707642 234.814545 20.822908 1914 
2737.796143 2144.953613 14.453152 1915 
3608.393066 931.787842 4.100193 1916 
2114.962158 1474.426636 6.715526 1917 
1946.107178 1290.678711 6.254393 1918 
1930.506592 664.605408 10.709305 1919 
1145.322876 2142.635254 17.314140 1920 
3195.306396 553.599915 22.494865 1921 
2366.203857 1020.151672 18.569054 1922 
2147.874512 1478.526855 13.420095 1923 
2307.022705 436.789062 5.075212 1924 
1313.957275 1825.516846 4.863565 1925 
3093.365723 1336.392944 6.560630 1926 
167.624054 1682.008179 7.634722 1927 
2293.748535 615.607849 6.375620 1928 
3159.204834 1806.144775 5.984122 1929 
1926.057251 413.234192 6.465172 1930 
2175.570312 286.700897 9.285358 1931 
1673.693237 1880.861328 7.410075 1932 
3676.787598 1004.544189 6.524271 1933 
3697.358643 723.051575 3.751263 1934 
984.954956 220.937927 6.346265 1935 
1800.342651 2308.239258 10.026662 1936 
2279.505615 1056.840332 15.092976 1937 
277.555664 1464.661621 12.344921 1938 
3611.765137 392.985992 3.853508 1939 
169.474594 865.990967 4.945234 1940 
1194.773682 1876.458496 20.396725 1941 
2999.247314 1129.387817 22.566139 1942 
1428.528931 1732.552124 8.124621 1943 
297.868347 653.172974 4.185413 1944 
2501.589111 1857.518799 15.429380 1945 
2415.443359 1585.474854 65.571404 1946 
730.377930 968.772827 12.666627 1947 
1558.385986 336.569458 5.864161 1948 
2842.561279 1714.556396 3.991821 1949 
2985.037109 291.025085 4.587788 1950 
2647.221680 982.579407 8.990945 1951 
1197.504028 801.230957 13.305481 1952 
2822.864990 897.549622 18.050411 1953 
2008.399536 379.478729 8.208060 1954 
2718.444824 1064.304321 9.883451 1955 
2012.096191 395.820648 39.500198 1956 
3039.416016 867.093689 11.742748 1957 
1800.833618 871.226746 7.538609 1958 
2773.175781 2023.807129 5.399605 1959 
3803.413086 1400.813843 3.643302 1960 
200.675079 721.733521 3.907183 1961 
2680.124512 843.837280 4.079982 1962 
3044.487793 2428.856934 7.636837 1963 
496.537354 1451.348877 15.519971 1964 
705.802246 438.881592 14.535350 1965 
3478.174805 1506.315674 16.243011 1966 
560.783386 1703.194214 9.090458 1967 
501.170074 139.108734 4.088142 1968 
999.336731 504.031250 5.314633 1969 
2606.377197 727.942627 4.767456 1970 
360.780518 92.636879 6.885826 1971 
2408.528076 1337.354614 10.763163 1972 
138.316879 1019.654602 11.434266 1973 
3718.281982 134.544907 5.026795 1974 
3714.851318 1095.537720 10.251405 1975 
2560.133057 122.234764 6.721110 1976 
1599.735718 151.650406 6.757031 1977 
723.690430 1283.079956 12.311158 1978 
702.368774 158.191040 5.228858 1979 
826.648132 837.378418 17.089838 1980 
370.139862 1895.453613 10.210670 1981 
2149.942383 1168.989502 7.186897 1982 
3287.928467 2207.137451 14.859785 1983 
419.298828 293.137756 3.973024 1984 
3098.886719 1787.021729 5.609956 1985 
3668.403564 1156.780518 5.715795 1986 
261.761932 664.018982 4.791975 1987 
1083.655273 861.967163 11.977416 1988 
3245.328613 1608.389282 16.721924 1989 
2388.460449 1431.640015 24.720505 1990 
624.338135 930.975037 9.396535 1991 
778.453125 1402.343750 8.867514 1992 
907.801575 446.495972 3.624488 1993 
633.115784 1702.420654 5.147389 1994 
1708.970581 1751.979736 3.681202 1995 
1018.290222 2158.394531 6.585295 1996 
