ply
format ascii 1.0
element vertex 729
property float x
property float y
property float size
property short id
end_header
3504.468506 1039.669922 7.291112 12 
355.347168 592.978516 21.903326 23 
2902.022949 302.613495 28.532316 31 
231.221115 225.858582 5.486606 36 
3628.955078 1720.875366 5.829937 53 
2800.374756 2464.026123 11.539301 58 
2954.059326 2362.458008 20.718632 68 
2906.621582 394.362213 39.131748 69 
195.081940 1350.113281 4.765686 94 
120.138206 1276.727173 4.644657 147 
195.053818 1286.282959 4.683403 148 
235.127319 1401.358521 4.946243 168 
1663.454102 1039.547363 6.065621 173 
250.492661 1168.849243 4.221365 181 
217.318039 2404.473145 5.500525 182 
236.458862 1541.007935 6.134828 183 
262.685822 49.199459 4.141505 186 
270.235504 180.385010 4.336299 188 
232.576965 1822.003784 5.123067 196 
313.744965 1719.220825 17.933132 201 
243.403152 1140.368652 5.099202 203 
273.675262 61.803692 4.577959 229 
271.368652 439.755157 6.507445 234 
143.744675 1037.241089 7.337892 248 
263.008423 400.338806 4.842167 256 
2019.034058 834.349121 5.352927 262 
226.700714 1234.521484 5.352678 271 
258.608398 191.248154 6.360045 272 
157.857773 707.180603 6.178385 273 
227.336243 1198.854980 6.207655 274 
195.928604 1380.671631 4.477668 275 
2210.378662 1794.680664 5.786931 276 
1501.927124 1810.244019 21.473261 277 
190.923386 1313.867065 4.971314 278 
208.486710 1281.970947 5.218243 279 
254.302124 696.033203 4.200042 280 
272.654144 74.142990 4.325092 281 
71.855858 869.582397 7.649278 282 
2497.236084 987.094788 5.923317 283 
161.173813 724.329285 6.923276 284 
163.533249 365.847839 6.685260 285 
1183.696777 224.598236 16.918079 286 
782.434875 860.151733 4.101404 479 
1085.117188 1094.552612 3.884576 505 
2813.866699 2151.569336 10.309939 573 
2018.595459 1519.049194 15.731427 770 
3229.657227 1124.129639 25.076361 771 
1886.072998 1786.054443 7.333657 772 
571.898743 233.977631 10.406368 773 
2298.551270 380.224609 13.328765 774 
371.123596 706.148804 7.253215 775 
2286.148193 1048.073608 6.248433 776 
3507.304932 1020.318298 7.853596 777 
150.681168 1808.202393 5.321129 783 
793.475464 2253.527344 25.731033 797 
719.444641 2340.520508 22.884506 798 
175.964645 1732.536133 4.647942 802 
157.058640 2002.957031 4.447218 805 
151.706711 1714.182129 4.363828 823 
113.280655 1482.801636 4.102956 829 
112.769493 1808.949829 4.458389 831 
192.763763 1927.167236 4.907889 833 
177.535873 1606.811768 6.521904 842 
157.231094 1194.349731 6.822256 863 
183.982498 1912.462402 6.653690 872 
142.450623 1975.742920 10.476320 876 
182.503876 2153.524170 4.841671 893 
164.842239 1625.284546 7.051590 905 
3572.374756 1104.082153 5.462351 930 
158.231369 1424.649414 3.872032 940 
2050.457764 891.307800 14.755725 957 
165.873840 1410.857422 5.914758 968 
154.750732 984.627136 3.904583 974 
170.887512 1907.766113 4.211637 978 
168.625259 1527.494507 4.924885 986 
183.231888 1205.807739 8.004860 1019 
141.275970 1154.317017 4.222331 1037 
166.301193 1681.566772 4.974411 1045 
48.243176 1330.119263 3.634264 1081 
289.504761 2427.816650 15.237023 1115 
138.976547 1926.269897 4.658384 1200 
1218.974609 528.204041 16.246769 1201 
176.096802 2098.145508 4.206053 1202 
2297.238770 1685.411255 6.026816 1203 
477.992126 1046.391357 8.419910 1204 
539.110901 167.445633 9.294476 1205 
2321.634033 1399.923950 3.253136 1206 
1783.480469 2373.912842 8.386528 1207 
198.598297 1878.290161 4.053038 1208 
1724.232178 1723.769287 7.335171 1209 
162.482208 2012.450806 4.381812 1210 
139.206955 2382.456543 7.896815 1231 
203.543823 665.030640 6.314293 1238 
179.594406 876.759766 6.721355 1260 
166.821274 2262.915039 4.277426 1266 
196.651840 905.757141 7.049066 1294 
164.346939 1009.188110 6.412873 1313 
176.916229 976.569214 6.300315 1357 
97.010910 2344.016846 4.525516 1364 
165.932587 1067.416138 5.179111 1390 
45.203712 1937.310547 4.617431 1396 
160.911346 1116.320557 5.351681 1424 
131.771667 2023.477173 5.077178 1438 
165.984238 1090.646851 4.490208 1462 
148.565384 1828.616333 7.713211 1471 
147.682556 1498.457397 5.608154 1475 
191.374252 1628.752075 5.407236 1477 
192.751816 922.613098 4.167309 1487 
186.853607 1139.989014 5.220802 1489 
193.432129 1581.804932 5.874445 1493 
152.667252 2265.266357 4.949124 1499 
99.214836 2377.326172 4.060406 1500 
187.297195 709.725769 8.196996 1526 
180.048370 1118.641113 5.121131 1528 
767.611389 730.964966 7.779536 1534 
192.373962 1088.382935 4.203997 1557 
208.361023 800.621399 5.092613 1582 
176.865997 653.502441 4.831272 1603 
134.917709 1010.228882 4.734565 1606 
884.602173 362.309540 7.140436 1622 
169.897202 334.236267 6.976429 1626 
159.941177 2366.552246 9.098097 1630 
182.764526 671.099976 6.856750 1647 
145.371719 1624.318848 8.714386 1656 
3047.230957 865.926086 23.909426 1661 
217.520325 699.249634 6.544777 1692 
1576.288696 2091.077881 6.428558 1700 
3729.446289 466.106628 5.061666 1719 
1306.899414 331.503418 17.646318 1747 
202.431488 1404.187866 5.131673 1752 
2976.339355 1144.133179 4.363333 1776 
766.687805 220.200104 21.643290 1777 
3111.506104 1334.562012 8.714491 1778 
3744.033691 2189.319092 8.097061 1779 
91.237198 2240.937988 3.922924 1780 
106.014313 1855.323364 4.451484 1781 
171.716629 2226.207764 5.746153 1782 
136.948715 2269.418213 6.843171 1783 
159.328049 2407.255615 3.792850 1784 
92.464592 2362.884521 5.567780 1785 
119.072433 1428.049072 4.389224 1786 
150.355957 2501.624512 7.125255 1787 
3806.016846 1781.634277 7.521673 1788 
189.919617 2039.469238 4.818203 1789 
146.319427 2363.917969 4.632327 1790 
174.673325 2081.917236 5.155505 1791 
144.212585 2486.575928 5.211236 1792 
154.112000 2182.524170 5.567400 1793 
182.924606 2062.659912 4.566361 1794 
191.078949 1673.055298 4.540724 1795 
3554.416992 2159.820557 8.916510 1796 
657.050964 231.721695 24.996738 1814 
832.008362 306.564209 24.065727 1818 
776.654236 1783.875000 7.371570 1829 
956.502563 818.633728 8.397100 1837 
963.881653 1108.104736 5.266482 1905 
1972.401978 591.742126 8.582126 1929 
739.153809 116.917122 9.596423 1983 
1965.683228 700.162720 14.101298 1988 
624.835144 1759.943359 9.923779 1989 
1023.878662 1733.614014 23.949942 1990 
1426.198486 1809.683594 16.325382 1991 
2999.928467 346.626862 8.587391 1992 
1390.146484 972.198669 13.918284 1993 
3000.612793 831.126465 8.502149 1994 
2259.132080 1116.893921 3.775456 1995 
2791.301025 1410.762573 12.411653 1996 
125.192909 1181.096924 3.952328 2002 
143.280823 806.804810 3.668026 2005 
203.804581 680.376587 3.644458 2019 
166.073456 691.854492 5.982236 2024 
66.277939 414.058167 4.176813 2038 
169.119064 385.225433 4.349223 2050 
215.096725 599.297363 4.139316 2073 
75.158226 468.631042 5.129081 2180 
142.251221 741.145203 4.114698 2185 
61.187603 220.499374 4.441175 2219 
218.706360 225.421173 4.672948 2231 
168.496735 489.037872 4.023890 2233 
60.555115 352.586395 5.040612 2252 
87.050690 404.354248 4.500978 2253 
194.052155 853.650635 4.484388 2319 
110.061531 2401.356934 7.160969 2323 
186.151199 1358.637939 4.774066 2337 
680.430237 1544.573242 15.050134 2345 
227.070435 586.457275 3.701184 2397 
195.391144 1703.007080 3.679704 2398 
192.067551 732.823792 3.740674 2399 
142.899796 827.379700 3.864459 2400 
143.759140 1185.731934 4.498326 2401 
113.716286 1449.905273 4.524687 2402 
139.049698 1202.691772 5.491902 2403 
123.057281 1350.525391 4.483687 2404 
186.506485 2073.290039 4.036727 2405 
203.795288 487.365204 4.759163 2406 
144.730026 580.558228 3.942435 2407 
161.125793 1367.439209 3.662776 2408 
188.588455 1767.298340 4.437077 2409 
114.510422 2084.241943 4.194192 2410 
1785.812012 2396.597168 7.620161 2411 
166.360580 1608.313721 4.536690 2412 
139.535278 1634.647339 4.598782 2413 
134.182343 1458.578491 5.299552 2414 
176.980515 1093.403198 3.879369 2415 
119.942574 1586.903076 4.118194 2416 
148.349670 1844.665527 4.246187 2417 
104.608521 2274.861084 4.063335 2418 
200.112976 1140.880005 4.086594 2419 
203.710297 465.959045 6.004423 2420 
268.616333 2365.748779 9.323957 2421 
2706.414062 621.975525 27.623510 2422 
172.360992 1538.273071 3.807523 2423 
157.537933 1920.067871 4.842937 2424 
176.467117 2416.703369 4.697175 2425 
49.597092 339.863556 4.834775 2426 
165.782028 1847.364990 5.984809 2427 
144.230591 1661.968994 4.315145 2428 
147.083466 674.585999 6.054428 2429 
154.930710 2025.094727 6.210413 2430 
160.552124 1725.220093 4.185633 2431 
154.770142 2393.802734 4.829093 2432 
143.445694 1247.191162 4.465770 2433 
128.090500 1627.733887 5.270171 2434 
97.443192 2451.236816 3.780426 2435 
165.454483 1473.853638 5.158319 2436 
425.389923 2432.192139 7.711621 2437 
189.815308 488.286011 3.946563 2438 
177.904861 861.824951 4.614480 2439 
136.683929 1070.538940 4.015770 2440 
190.218460 1509.919556 4.758232 2441 
59.688282 383.532532 4.421788 2442 
204.965118 938.994080 4.317562 2443 
151.946960 1449.594116 4.615440 2444 
123.205009 2255.303955 3.945964 2445 
166.748901 2293.001709 3.587270 2446 
81.151070 292.250641 4.970413 2447 
147.622559 1212.763550 4.225073 2448 
193.823593 1822.583008 4.974946 2449 
164.030960 1711.042114 5.037999 2450 
42.009003 1630.971313 4.233479 2451 
102.646568 2239.745117 3.811334 2452 
150.586548 1857.237915 3.791734 2453 
165.676468 1860.996948 3.972514 2454 
113.668907 2144.222168 4.452377 2455 
189.098053 1110.161133 4.960922 2456 
234.662323 348.826996 4.738791 2457 
146.055008 566.882629 4.500268 2458 
144.479004 954.773010 4.029488 2459 
137.743729 1806.230713 4.154734 2460 
181.877975 1418.905640 7.329103 2461 
160.486893 1937.261108 7.658767 2462 
167.558243 816.217041 12.758945 2463 
1234.622681 1690.604126 13.861465 2772 
1720.074219 2473.991699 7.431675 2818 
1334.347900 1172.276001 3.788447 2819 
52.958443 999.538330 3.592260 2820 
2279.285156 1746.214233 3.865574 2821 
1024.257324 1662.747803 5.121285 2822 
872.456238 1573.794312 91.774979 2823 
1774.281128 1157.635132 3.954195 2824 
203.789795 1088.364136 4.240839 2825 
2347.074463 2111.587891 7.082938 2826 
2763.796631 2310.856689 5.530567 2828 
150.262497 209.958038 4.485105 3056 
201.121216 99.303749 5.278825 3057 
2029.817993 1813.183105 12.610934 3058 
218.306488 403.963654 3.993772 3059 
64.228256 112.831985 5.838269 3060 
70.120743 58.936260 5.786987 3061 
3613.646240 509.788208 5.035266 3062 
983.967224 2100.218506 6.107123 3063 
212.476227 130.504379 3.906169 3064 
73.720917 76.396637 4.248449 3065 
213.114792 114.110146 6.148039 3066 
67.809982 98.699402 4.983040 3067 
2749.285400 1282.756958 98.181252 3068 
157.450668 174.085251 3.739946 3069 
177.586899 2247.274902 7.431451 3133 
3518.760010 782.045898 7.682913 3178 
3682.799805 1692.079102 7.218101 3182 
3680.709229 1819.843018 5.872345 3185 
239.496964 1207.390015 4.584515 3186 
3536.476074 968.939331 6.454443 3188 
3740.359131 1279.829712 6.117130 3200 
3559.429932 1024.877197 6.624930 3201 
3760.344727 1383.839111 5.896143 3202 
3558.444580 712.563049 5.009863 3203 
3711.701172 1332.959717 7.995982 3205 
3700.908203 1369.921265 6.279827 3206 
3687.003662 1113.625000 5.738533 3209 
3554.276611 734.578125 5.827770 3210 
3777.720459 1266.426880 6.707992 3212 
2312.342773 722.054199 8.868640 3217 
3539.241699 566.069763 5.910578 3228 
3768.249756 1853.087402 6.359838 3236 
3550.413818 557.579712 4.506845 3240 
3727.183350 1528.822388 6.930443 3252 
3773.421387 1473.961792 5.457856 3255 
3526.190674 1664.404663 7.259097 3264 
3576.346436 2236.819580 5.712874 3267 
3786.801025 1486.024048 7.630414 3274 
3530.458496 2077.107422 5.870947 3281 
115.427895 2221.542480 6.681511 3294 
217.562546 941.555908 4.080845 3295 
230.695480 1075.486572 6.307062 3296 
3507.879150 1068.453979 7.575428 3297 
160.987747 1032.634399 4.994283 3298 
263.524902 722.995300 4.482408 3299 
3509.705078 738.075806 4.368107 3300 
3499.028076 474.651245 4.422154 3301 
3473.165283 620.207397 5.454107 3302 
3799.642334 1740.867188 6.579148 3303 
3528.134766 1201.975464 4.121078 3304 
276.639221 276.101166 4.607302 3305 
239.440002 823.457031 4.957627 3306 
3480.967529 855.379028 7.872823 3307 
3541.021240 843.132996 12.201104 3308 
313.319977 997.659302 9.721311 3309 
281.819794 138.130966 4.764246 3310 
203.383728 982.441772 3.989507 3311 
3563.368896 589.816345 5.703114 3312 
3499.934326 790.192078 6.150148 3313 
302.985016 1288.549194 12.121204 3314 
3794.145020 1435.348999 8.519278 3315 
2857.322998 2477.208008 3.420208 3316 
287.566864 1432.339355 6.378946 3317 
208.174438 1960.891846 6.451304 3318 
3793.478027 1712.482910 5.919243 3319 
3473.915527 837.061035 5.022430 3320 
3514.795410 545.680603 5.950892 3321 
254.533981 1020.404968 4.096933 3322 
179.100647 2121.137207 5.083106 3323 
3706.468018 2194.425293 7.899832 3324 
3707.641113 1723.736084 6.785069 3325 
248.615799 850.273193 4.179068 3326 
122.032974 2048.034180 7.002470 3327 
2902.673340 247.286301 19.816111 3328 
3478.415527 1100.892822 4.606004 3329 
75.907021 1362.000854 5.362806 3330 
3739.891602 1388.264648 8.979033 3331 
3468.523682 903.653992 6.429655 3332 
3523.939453 733.888184 6.635083 3333 
3766.750000 1836.722168 5.719591 3334 
3827.416992 1789.869873 5.941287 3335 
3719.911377 1511.513550 5.308352 3336 
147.688843 1088.225098 3.628741 3337 
234.553268 669.423828 3.762833 3338 
168.815353 1250.288330 6.208319 3339 
241.063950 1179.051025 4.363121 3340 
243.522995 1069.190796 4.705062 3341 
256.418579 667.860901 4.358784 3342 
201.413223 601.852173 7.766365 3343 
3737.280029 1651.486694 10.831419 3344 
3709.883301 1691.514893 6.788974 3345 
243.564392 1095.976318 4.732126 3346 
215.679840 983.372009 3.993212 3347 
3787.163818 1877.610962 10.125534 3348 
172.292923 2210.516113 5.440691 3349 
227.405930 1659.962524 4.744672 3350 
226.754807 555.299866 6.630693 3351 
3483.636719 1052.585449 8.327735 3352 
213.496857 767.898438 6.510662 3353 
201.171692 1048.428467 9.389424 3354 
3495.306885 602.489136 11.193776 3355 
3714.954346 1612.616089 6.137861 3356 
3825.897705 1361.756104 4.348218 3357 
3517.545654 701.005920 6.419969 3358 
179.716721 1229.711182 6.093190 3359 
178.517456 2134.121826 4.503846 3360 
3782.893311 2397.472900 7.235498 3361 
3555.281494 1612.675049 6.737001 3362 
191.389465 1328.470581 6.119308 3363 
3746.330811 1217.230591 4.988544 3364 
260.080261 520.173401 4.758348 3365 
3299.832764 2449.824707 7.829556 3555 
103.089882 616.792358 3.870190 3572 
2796.720947 131.770844 10.199811 3574 
2607.825439 1211.202148 8.024425 3592 
2883.787842 1212.688354 9.298060 3605 
1257.365845 2165.750488 18.641142 3606 
2881.357666 1528.589844 10.427429 3607 
1020.814819 2165.223145 17.172995 3608 
2416.832520 2522.252686 4.788336 3609 
1667.760376 1490.757935 5.047886 3610 
2017.036865 1661.953979 8.575709 3611 
3561.819092 1182.255005 5.685918 3639 
382.153137 688.325317 30.128176 3661 
484.035126 1259.516235 28.277657 3664 
238.331665 1650.086182 4.804657 3689 
3487.667236 1669.422485 7.430071 3732 
3807.125488 1099.984131 4.393594 3735 
3730.458740 1458.385376 4.702383 3849 
3521.197021 1681.003784 6.101097 3874 
3517.422363 1584.422974 6.831046 3876 
3687.709229 1459.778320 10.892036 3888 
3711.372559 1351.679565 4.519759 3920 
3679.267578 1284.698486 5.139696 3961 
263.439728 457.639404 4.907230 3982 
3820.155762 1112.389282 5.972992 4019 
3680.459717 1079.647339 7.003884 4037 
3656.733154 1416.430664 4.820300 4061 
3693.432617 1404.215332 4.905113 4072 
171.316010 902.280945 9.493153 4088 
3555.130615 786.795471 4.204991 4102 
3658.302979 1907.101929 6.521862 4150 
3524.370361 896.378845 5.280891 4173 
3486.485352 746.331787 4.727797 4175 
3525.772217 1924.271729 4.626027 4190 
3539.149902 1522.577759 5.471682 4197 
3526.381836 1903.743896 8.207027 4208 
3670.615967 1688.858521 4.994910 4231 
3645.958740 1388.385010 4.500285 4240 
3567.563965 751.760681 4.520087 4245 
2404.049561 295.683716 27.826084 4246 
3768.474854 1417.874878 5.382357 4247 
3671.781250 1708.567261 6.529055 4248 
3502.485352 843.557739 4.805073 4249 
3528.118652 998.108276 7.444378 4250 
3545.928467 1340.644287 5.159376 4251 
3732.121338 1738.133423 5.757119 4252 
3511.674316 906.653015 5.476920 4253 
253.142899 2457.658936 5.422343 4254 
3748.923584 1522.619141 5.001980 4255 
3561.113037 777.390198 4.747437 4256 
3501.654541 804.341125 4.752358 4257 
3484.767334 1599.234131 7.895805 4258 
3540.549561 1032.953735 7.516870 4259 
1468.556030 1144.526489 16.402435 4260 
271.023071 113.786049 4.458258 4261 
3816.967773 1080.043335 5.737525 4262 
3556.661621 799.374329 3.980437 4263 
3557.574219 831.789246 4.333176 4264 
3661.125000 731.137695 7.977849 4281 
3541.359375 547.673889 5.270492 4287 
3741.970947 687.795776 6.105394 4305 
3669.945557 466.858002 5.053675 4310 
3683.808350 742.251892 6.626844 4312 
3740.821533 565.417175 6.000772 4316 
3756.024170 479.489655 7.195139 4328 
3745.052246 340.202545 8.683587 4339 
3680.678223 423.144562 6.804983 4341 
3816.005127 352.525879 7.384036 4355 
3647.877686 760.787720 5.874332 4358 
3490.567139 199.663940 6.016965 4362 
3636.519043 274.842041 6.043526 4366 
3750.624756 614.147217 4.578187 4370 
3761.171631 356.538452 4.823073 4386 
2903.773926 653.255493 65.332253 4396 
3651.162109 295.536774 3.636780 4403 
3635.409912 772.262573 4.581604 4429 
3528.174072 605.123291 3.787217 4431 
3759.610107 173.276093 5.749024 4434 
3677.887695 453.132324 8.214880 4436 
260.926575 506.608398 4.980293 4445 
3637.630371 359.115906 4.673287 4451 
3508.691895 249.083969 4.745334 4452 
3683.310547 304.831085 5.620656 4457 
3743.369385 1344.917725 5.993652 4470 
3798.461914 1342.596313 5.364505 4475 
3637.465088 1156.983521 4.634341 4488 
3759.532959 592.173035 5.880591 4507 
3687.924805 257.336761 5.748085 4508 
3785.225098 113.569160 5.754758 4509 
3649.368896 188.466354 6.151999 4510 
3563.043457 248.551620 5.720447 4511 
3564.806152 60.947281 4.150855 4512 
3770.130859 625.161926 12.329208 4513 
3537.903809 712.261292 10.097059 4514 
2876.716553 1929.323975 24.204926 4515 
2502.762939 1690.304077 14.671493 4516 
1646.421631 803.948914 24.255619 4517 
1919.927490 325.734314 18.478718 4518 
3774.621826 1319.482910 9.417583 4519 
3792.692871 294.941467 6.028330 4520 
3829.226807 943.267273 4.950891 4521 
3518.113281 596.688843 4.479373 4522 
3475.548340 251.101471 4.748409 4523 
3683.293945 328.473846 7.386083 4524 
3514.626709 163.557663 8.184505 4525 
3757.035889 951.775208 6.395783 4526 
3800.084961 627.935547 4.105401 4527 
3540.610596 763.510010 5.122328 4528 
3798.261230 191.954590 4.179554 4529 
3649.793457 280.982330 4.930467 4530 
3809.125488 68.762535 5.131720 4531 
3667.991455 149.450668 6.750454 4532 
3794.053223 961.091003 6.325625 4533 
3488.132080 96.785881 5.179780 4534 
3550.870605 590.348816 4.577954 4535 
3535.165527 76.800934 4.971843 4536 
3503.469971 91.336823 6.057257 4537 
3821.086182 332.123596 5.815986 4538 
3777.370117 94.882111 6.001579 4539 
3747.210449 1302.545288 7.305576 4540 
3730.982422 1329.095581 6.972036 4541 
3781.222900 1011.099487 4.399997 4542 
3793.701172 125.132851 4.683075 4543 
3504.516113 408.963959 5.499615 4544 
3740.012939 942.234009 7.678453 4545 
3699.564941 731.496887 5.557059 4546 
3715.181152 571.092590 4.389997 4547 
3689.725586 609.875366 5.788291 4548 
3502.915283 151.773987 5.121916 4549 
3679.252930 138.808228 6.260982 4550 
3781.386963 561.682190 5.005165 4551 
3734.667969 90.850334 5.116586 4552 
3777.673584 954.488159 5.094484 4553 
3823.773926 467.515198 6.353280 4554 
3743.636230 587.927307 6.959276 4555 
3756.523438 197.895142 5.426008 4556 
3805.916016 977.457581 7.838168 4557 
3680.129639 104.426353 6.347214 4558 
3630.332520 111.339958 6.063602 4559 
3486.330078 473.963898 5.374126 4560 
3700.163574 80.005226 5.682464 4561 
3649.694336 91.788063 5.347174 4562 
3675.946045 219.054245 9.308279 4563 
1423.564819 1853.184570 17.302029 4564 
2848.075439 289.142792 10.085075 4565 
3809.603760 616.001038 5.006655 4566 
3775.465088 593.441833 7.369958 4567 
3510.411621 862.446289 7.840627 4568 
3711.361816 206.394836 6.067670 4569 
3760.280518 1334.679077 6.440730 4570 
3702.063721 548.971436 4.887507 4571 
3759.681885 268.499420 5.480999 4572 
3485.829590 263.412598 4.429121 4573 
1244.030884 1093.561646 8.461586 4621 
1688.857910 446.006989 3.894255 4630 
585.596130 1148.159058 9.374929 4633 
972.598572 1041.301025 12.375473 4646 
1058.295776 875.753052 4.941922 4647 
1868.056641 1796.729614 9.041811 4648 
877.563416 345.388306 4.560386 4649 
2800.432617 290.424286 6.659613 4650 
1808.888184 830.860352 21.577620 4651 
2334.125977 1195.884766 10.857299 4652 
3827.494385 1971.191040 4.648850 4671 
3548.134766 2142.677002 6.293611 4675 
3724.946777 1918.683960 4.261885 4677 
3701.553955 1867.209961 9.773959 4683 
3747.825439 1819.602539 11.513270 4686 
3699.311523 1814.686890 8.860042 4687 
3831.871094 1956.910767 5.802407 4693 
3697.779785 1467.419556 4.831599 4696 
3533.750000 2052.650635 4.570618 4697 
3826.235596 1883.775757 6.450305 4701 
3546.375488 1763.296387 4.768132 4706 
3724.863525 1868.365723 6.008281 4707 
3565.258057 2082.291260 4.825308 4712 
3779.813477 1971.665771 5.039349 4713 
3793.516357 1854.424438 7.925008 4721 
3751.768311 1932.361816 6.451985 4724 
3715.191895 1904.570923 8.783476 4732 
3723.943359 1765.381958 9.500502 4733 
3724.006592 1833.644287 11.267481 4739 
3779.847900 2271.160156 5.943762 4744 
3738.119873 2214.119873 5.262000 4745 
3709.381104 2285.758545 6.784338 4753 
3708.618164 2365.160400 6.604263 4757 
3767.487305 2448.052490 5.742878 4763 
3771.002686 2380.649658 5.975602 4764 
3538.413818 2365.844482 6.851214 4766 
3709.506836 2162.703125 6.852371 4769 
3511.516113 2515.605225 4.959285 4770 
3736.982910 2380.028564 5.149159 4774 
3707.234131 1765.636475 5.535399 4776 
3791.696045 2243.354980 5.953171 4781 
3710.258545 2513.698486 4.837767 4790 
3550.607910 2290.269775 6.292906 4795 
3775.312988 1793.682617 4.403664 4796 
3780.146973 2306.891357 10.565082 4799 
3700.678711 2413.099121 10.105210 4802 
3783.100586 2423.514160 9.883363 4809 
3742.140137 2262.815430 8.371940 4817 
3793.231934 2350.926025 9.594210 4820 
3743.227295 2232.443604 8.387759 4821 
3738.509521 2402.495605 5.878584 4827 
3739.083984 2304.836182 5.968441 4828 
3744.505859 2342.959961 9.355593 4848 
3744.044189 2151.557861 8.090962 4849 
3724.951172 2219.968506 6.238965 4863 
3803.785156 2481.106689 5.919101 4869 
3547.399414 2341.788818 5.224064 4870 
3841.635742 1764.339966 4.775136 4872 
3724.811035 2192.784180 6.307323 4875 
3514.744385 2231.978271 6.536273 4876 
3693.376953 2328.149414 6.399923 4888 
3768.220459 2429.499268 4.967103 4894 
3780.179199 2332.776367 6.056167 4898 
3771.647217 2238.267822 7.577588 4904 
3726.269775 2143.533691 7.628183 4910 
3724.662354 2360.227051 8.113737 4923 
3724.010742 2299.548340 8.380806 4925 
3722.239990 2405.467773 6.662507 4931 
3694.259033 2176.150635 6.386485 4934 
3823.635986 2485.002686 5.317638 4938 
3749.222412 2436.918945 6.739282 4940 
3754.195801 2390.115479 6.402141 4948 
3756.805176 2205.876465 5.880019 4958 
3830.538818 2214.225098 6.001109 4968 
3510.291748 1597.636719 4.171219 4969 
3568.279541 1070.398804 4.076160 4970 
3808.515381 270.833618 4.740128 4971 
3742.428711 510.250183 6.406431 4972 
3662.820801 438.968048 5.546090 4973 
3735.502686 165.686981 5.693746 4974 
3650.902344 157.252396 4.950003 4975 
3546.380127 1503.573975 4.332122 4976 
3520.870361 882.404541 5.616593 4977 
3488.382080 456.145111 5.376029 4978 
3739.218262 2423.721191 5.065790 4979 
3541.128174 805.878479 5.596577 4980 
3771.147461 2318.540283 5.060697 4981 
3766.724609 2253.892090 4.477023 4982 
220.863388 2346.057617 4.642025 4983 
3774.050293 1675.230957 4.138924 4984 
3517.400879 1308.825073 4.399753 4985 
3779.552490 2140.920654 4.715960 4986 
3494.042725 866.174194 5.440357 4987 
3636.119141 128.694519 4.641493 4988 
3539.958252 731.737915 5.521299 4989 
3511.387451 263.684753 5.183255 4990 
3539.084229 2436.318115 5.732366 4991 
3501.917969 2065.772949 3.925453 4992 
3549.949219 1989.720459 4.758633 4993 
3503.257080 1518.322754 4.092324 4994 
3748.047119 292.886597 11.318547 4995 
3659.941406 308.732208 8.045623 4996 
3767.985352 534.934753 7.008816 4997 
3722.537109 432.009613 6.360192 4998 
3740.156494 1785.166382 9.826845 4999 
3708.425781 2285.071533 7.208053 5000 
3562.902344 1911.176147 7.858636 5001 
3751.220215 1901.161865 13.412723 5002 
3725.639893 2169.186035 6.722325 5003 
3517.874512 453.275513 6.317368 5004 
3747.847412 241.937500 5.460313 5005 
3656.899170 2463.516357 4.879019 5006 
3809.305908 1760.852905 6.419692 5007 
3659.212646 268.576172 5.202468 5008 
3684.295898 1947.353760 4.357681 5009 
3560.650391 1301.277222 4.341941 5010 
3515.085693 2064.164062 6.475408 5011 
3530.221191 589.611450 4.165352 5012 
3787.726318 1755.992798 5.146268 5013 
3548.724854 507.749573 3.810548 5014 
3714.001221 151.298004 3.898194 5015 
3726.294189 557.342651 5.318019 5016 
3813.996826 2142.867188 4.620756 5017 
3641.029541 1423.390625 4.124821 5018 
206.573944 2414.251221 4.526679 5019 
3699.572510 1663.780884 4.623621 5020 
3744.468994 2392.114502 3.977945 5021 
3507.909668 2030.526367 4.601937 5022 
223.916840 1807.128418 4.780379 5023 
3825.533691 2230.221191 6.548248 5024 
1037.030518 1546.946045 14.477937 5025 
3665.668457 194.665894 4.696413 5026 
3827.301758 370.830109 5.826091 5027 
3781.270752 2259.486816 3.838447 5028 
3546.730225 1672.589600 5.488101 5029 
3531.063965 1503.493652 5.613090 5030 
3528.503174 816.585266 5.790823 5031 
426.502380 1843.105469 12.715689 5032 
3636.746338 1101.601562 9.068858 5033 
3791.443604 1806.896484 4.859332 5043 
3816.518066 1691.712524 4.253055 5083 
3682.953369 1672.121826 7.868163 5099 
3736.070312 1860.605957 3.965720 5103 
3540.149170 2020.833130 6.274714 5123 
3673.601318 1937.269409 7.446313 5125 
3672.077881 1618.127930 6.271341 5163 
3570.446045 2099.173828 4.157524 5205 
3769.482422 1639.857788 5.293717 5238 
3830.529297 1692.831909 5.273352 5239 
3550.442871 2085.040039 6.118489 5406 
1948.121094 1033.604614 9.130992 5407 
3806.093994 1653.324707 5.936685 5408 
3545.459229 1557.860840 6.428453 5409 
3496.482666 1699.625244 4.071923 5410 
3808.856445 1638.135620 4.908579 5411 
3771.345459 1374.419434 4.746722 5412 
3755.039551 1797.914062 6.345956 5413 
194.399643 1956.988159 4.671414 5414 
3485.513184 666.859192 12.858320 5415 
3756.998535 1590.044067 5.457385 5416 
3664.427002 2153.944336 5.477211 5424 
3507.352539 1419.222778 6.455041 5425 
3762.476562 1711.658081 6.800114 5426 
3702.581543 1950.996704 4.721738 5427 
3805.172852 2496.879395 5.995768 5428 
3565.500000 1689.107788 5.871586 5429 
3714.504639 2233.395996 5.407917 5430 
3512.507568 2368.002930 4.948550 5431 
3816.546143 2419.194092 5.125800 5432 
3757.750000 1574.315552 5.507354 5433 
3554.852295 2415.322266 4.622757 5434 
3814.026367 1367.960571 4.877400 5435 
3685.159424 2474.013428 7.566832 5436 
3698.937256 2310.274170 10.242809 5437 
3722.957275 2516.985840 6.118830 5438 
3546.628418 2424.687012 4.971803 5439 
3754.210693 2173.905273 5.613824 5440 
3521.544189 1776.431274 5.370085 5441 
3695.226562 2224.366455 6.528944 5442 
3804.525635 2427.663086 4.351864 5443 
3823.038330 1471.021606 6.543529 5444 
3694.921143 2524.136230 6.103310 5445 
3750.701660 2249.227295 4.588150 5446 
3685.800049 2250.388184 9.125869 5447 
3722.155762 2252.439941 6.249860 5448 
1893.357910 1122.362305 4.608512 5449 
1967.292358 970.534119 9.813680 5450 
1955.970337 1112.634033 24.892626 5451 
2032.395020 1614.497070 27.686239 5452 
439.421997 958.254822 27.812216 5453 
1648.073853 1231.925049 5.778587 5454 
1800.867798 1534.590332 5.293652 5455 
2217.786377 875.712402 9.480227 5456 
1757.395508 1282.438843 9.189813 5457 
1949.525024 948.532959 10.949133 5458 
795.591675 324.649628 9.651527 5459 
2840.094238 185.464172 19.829329 5460 
1272.646606 1550.272705 14.567491 5461 
2033.202759 1558.748169 16.047770 5462 
2113.734863 1770.975098 65.582054 5463 
2957.648926 289.129181 10.060960 5464 
1984.647339 1836.934692 11.237064 5465 
