ply
format ascii 1.0
element vertex 238
property double x
property double y
property double size
property short id
end_header
3.27298022460938e+03 1.59863842773438e+03 2.87376098632812e+01 22 
3.91051696777344e+02 1.96560827636719e+03 3.00163955688477e+01 28 
3.21986108398438e+03 1.96856396484375e+03 3.72894706726074e+01 31 
4.35024108886719e+02 1.82350939941406e+03 3.69415779113770e+01 32 
5.24617370605469e+02 2.01210485839844e+03 1.27508850097656e+01 58 
3.93482727050781e+02 2.10474438476562e+03 1.31739864349365e+01 63 
3.08368774414062e+02 1.97246374511719e+03 2.52917633056641e+01 67 
4.32716278076172e+02 2.02158251953125e+03 2.46558666229248e+01 68 
2.38207983398438e+03 7.42763854980469e+02 7.06038475036621e+00 83 
1.83233666992188e+03 9.01785339355469e+02 1.96420383453369e+01 91 
4.24415710449219e+02 1.89022741699219e+03 2.49928989410400e+01 104 
1.35201675415039e+02 8.57167358398438e+02 3.71224832534790e+00 112 
3.29812133789062e+03 1.90871179199219e+03 3.79658126831055e+01 121 
4.03756896972656e+02 3.11896301269531e+02 8.91470336914062e+00 142 
9.31144653320312e+02 1.04402917480469e+03 1.44823780059814e+01 154 
2.63561645507812e+03 2.55434097290039e+02 5.84638547897339e+00 166 
2.46710791015625e+03 1.21658435058594e+03 8.81499385833740e+00 173 
2.37112304687500e+02 2.03463452148438e+03 1.55782022476196e+01 204 
8.01462951660156e+02 3.04349670410156e+02 9.21706295013428e+00 210 
1.97364709472656e+03 4.11893310546875e+02 5.65079307556152e+00 211 
1.53796520996094e+03 1.94768603515625e+03 1.30972747802734e+01 212 
3.00672912597656e+02 2.24209765625000e+03 1.65014610290527e+01 213 
3.03892895507812e+03 2.40848657226562e+03 4.74176788330078e+00 214 
3.73029467773438e+03 6.96478149414062e+02 4.34188652038574e+00 215 
2.07188818359375e+03 9.64980957031250e+02 4.94375419616699e+00 216 
1.19593811035156e+03 4.82771072387695e+01 3.95374584197998e+00 226 
3.69421240234375e+03 4.20369445800781e+02 4.02450037002563e+00 256 
3.16693798828125e+03 5.75010925292969e+02 7.94290447235107e+00 286 
3.56510766601562e+03 3.95488067626953e+02 3.26019930839539e+00 435 
3.60264038085938e+03 5.99689819335938e+02 1.11782875061035e+01 477 
2.09439306640625e+03 2.45422180175781e+02 3.99084305763245e+00 479 
3.09879516601562e+03 1.90528942871094e+03 1.17855129241943e+01 508 
1.40152832031250e+02 7.53529235839844e+02 5.70006513595581e+00 523 
5.57268798828125e+02 1.23609155273438e+03 1.27738628387451e+01 555 
2.47531112670898e+02 2.14403259277344e+02 3.75487422943115e+00 556 
1.77071557617188e+03 1.55701586914062e+03 8.59113121032715e+00 557 
8.75968444824219e+02 1.77869677734375e+03 1.25555191040039e+01 574 
1.87764099121094e+03 6.83796539306641e+01 5.74880981445312e+00 575 
1.70614965820312e+03 1.30876599121094e+03 2.57290267944336e+01 576 
2.25133984375000e+03 1.16282348632812e+03 1.47430887222290e+01 577 
1.68072351074219e+03 1.49318249511719e+03 1.67329769134521e+01 578 
3.64546606445312e+03 6.58204284667969e+02 4.99345064163208e+00 579 
3.71388793945312e+03 8.05274169921875e+02 3.59225678443909e+00 580 
2.26183520507812e+03 5.94006835937500e+02 5.94735383987427e+00 581 
8.91475677490234e+01 8.61483642578125e+02 5.07031774520874e+00 582 
2.28558642578125e+03 1.02080456542969e+03 1.27742843627930e+01 583 
1.05464099121094e+03 3.15480926513672e+02 1.52110147476196e+01 797 
2.01054580688477e+02 1.37567797851562e+03 9.38136482238770e+00 1144 
2.77405273437500e+03 1.25751440429688e+03 3.64219045639038e+00 1145 
7.49630310058594e+02 1.44657067871094e+03 1.43062992095947e+01 1146 
1.22663000488281e+03 1.52391772460938e+03 1.75345020294189e+01 1147 
3.66185333251953e+02 8.49179199218750e+02 4.58200502395630e+00 1148 
8.58480163574219e+02 1.01193341064453e+03 1.42369451522827e+01 1149 
2.33287231445312e+03 1.00018444824219e+03 8.03115749359131e+00 1150 
5.12893066406250e+02 5.96914916992188e+02 3.73317575454712e+00 1151 
2.42126342773438e+03 1.24394824218750e+03 4.35516595840454e+00 1152 
3.30851831054688e+03 2.00046899414062e+03 5.56706094741821e+00 1153 
6.23580566406250e+02 1.03491015625000e+03 5.62357282638550e+00 1154 
9.49816955566406e+02 2.32365020751953e+02 1.29749279022217e+01 1696 
1.13316833496094e+03 1.27084643554688e+03 1.86463661193848e+01 1724 
1.16402905273438e+03 4.11914123535156e+02 4.42986774444580e+00 1725 
1.37163159179688e+03 2.10735668945312e+03 6.24360227584839e+00 1726 
3.65846289062500e+03 6.77676635742188e+02 4.55695247650146e+00 1727 
4.94976104736328e+02 1.93610424804688e+03 4.85907478332520e+01 1728 
2.00691845703125e+03 1.40656518554688e+03 1.35832252502441e+01 1729 
2.04535314941406e+03 1.50399230957031e+03 6.50361871719360e+00 1730 
1.66798291015625e+03 2.20347631835938e+03 7.06462049484253e+00 1731 
1.40633651733398e+02 1.72002917480469e+03 1.24187898635864e+01 1732 
1.91117272949219e+03 8.33823425292969e+02 2.90228691101074e+01 1744 
1.65091528320312e+03 2.05368383789062e+03 6.03706169128418e+00 1912 
1.69141815185547e+02 7.22759826660156e+02 4.42223119735718e+00 1940 
2.46916430664062e+03 1.06305252075195e+02 7.01266336441040e+00 1941 
2.88198803710938e+03 1.60409851074219e+03 2.86726722717285e+01 1942 
2.84351269531250e+03 3.90480468750000e+02 4.38010120391846e+00 1943 
3.78818383789062e+03 8.11593627929688e+02 5.74870777130127e+00 1944 
1.49137133789062e+03 7.38319519042969e+02 1.05880403518677e+01 1945 
3.05563696289062e+03 9.19073547363281e+02 5.19537200927734e+01 1946 
3.24751220703125e+03 7.42413146972656e+02 1.04886140823364e+01 1947 
1.79295495605469e+03 1.68530505371094e+03 1.23341445922852e+01 1948 
3.41905175781250e+03 9.61832153320312e+02 6.21105766296387e+00 1949 
3.05605053710938e+03 2.29916894531250e+03 7.67682552337646e+00 1950 
3.04100000000000e+03 5.99812133789062e+02 1.23956069946289e+01 2123 
5.30084350585938e+02 7.74553985595703e+01 3.77924013137817e+00 2347 
8.31446777343750e+02 8.45622253417969e+02 5.25567245483398e+00 2362 
1.62756591796875e+03 2.04373937988281e+03 4.08210802078247e+00 2363 
2.05270492553711e+02 2.31550003051758e+02 3.97380089759827e+00 2364 
1.48953906250000e+03 6.57163330078125e+02 6.27006721496582e+00 2365 
9.09002532958984e+01 1.74495434570312e+03 1.02483043670654e+01 2366 
5.14433471679688e+02 1.61133349609375e+03 2.79434185028076e+01 2367 
3.76413403320312e+03 4.61522796630859e+02 4.00126218795776e+00 2368 
2.93758544921875e+03 1.18502795410156e+03 1.43368043899536e+01 2369 
1.70108413696289e+02 2.66251068115234e+02 4.74635457992554e+00 2370 
3.22129101562500e+03 7.11058425903320e+01 7.69667387008667e+00 2388 
9.38239440917969e+01 9.49213378906250e+02 6.02607297897339e+00 2534 
9.29373229980469e+02 4.39663848876953e+02 1.68504314422607e+01 2575 
3.22967211914062e+03 6.99157775878906e+02 1.79661922454834e+01 2580 
4.27608703613281e+02 3.50944946289062e+02 2.22988796234131e+01 2682 
9.36123535156250e+02 2.90425659179688e+02 1.85178298950195e+01 2683 
2.28116882324219e+02 7.07981811523438e+02 6.53552675247192e+00 2731 
3.73492553710938e+03 8.44829528808594e+02 3.89984750747681e+00 2815 
3.45291259765625e+03 2.29056472778320e+02 6.40732145309448e+00 2816 
1.74094641113281e+03 2.39844750976562e+03 4.82704114913940e+00 2818 
2.56708398437500e+03 2.40860180664062e+03 5.11625719070435e+00 2821 
2.24697607421875e+03 2.47201269531250e+03 6.30130720138550e+00 3011 
3.04774316406250e+03 2.26146636962891e+02 7.47449493408203e+00 3012 
2.07634326171875e+03 1.30702001953125e+03 2.58006000518799e+01 3013 
3.22347094726562e+03 1.89579492187500e+03 1.51506385803223e+01 3014 
2.00904541015625e+03 1.41012426757812e+03 1.52171649932861e+01 3015 
1.24873547363281e+03 3.33982971191406e+02 4.52580928802490e+00 3016 
3.71952490234375e+03 8.13522644042969e+02 3.57001876831055e+00 3017 
1.80696765136719e+03 3.70173400878906e+02 8.88798904418945e+00 3217 
2.34899121093750e+03 1.27662060546875e+03 1.16417016983032e+01 3218 
9.09743957519531e+02 1.43203540039062e+03 1.46630144119263e+01 3219 
1.49513256835938e+03 1.77372937011719e+03 4.85444679260254e+01 3220 
3.74591992187500e+03 8.35081665039062e+02 6.38538932800293e+00 3221 
3.10741943359375e+03 1.39421057128906e+03 5.37926912307739e+00 3222 
1.43065563964844e+03 1.32136291503906e+03 7.08413696289062e+00 3223 
1.34286877441406e+03 1.79345260620117e+02 8.51221561431885e+00 3224 
3.41281567382812e+03 1.82978100585938e+03 1.23409528732300e+01 3225 
3.12779370117188e+03 7.40890441894531e+02 1.32569208145142e+01 3226 
6.25698181152344e+02 2.36289282226562e+03 4.97989654541016e+00 3243 
3.75356506347656e+02 3.64799041748047e+02 9.61704921722412e+00 3369 
2.39844635009766e+02 6.85255920410156e+02 7.58210134506226e+00 3393 
5.46440917968750e+02 6.36154022216797e+01 5.95589399337769e+00 3553 
1.74109771728516e+02 7.86088256835938e+02 4.04029035568237e+00 3554 
2.67469262695312e+03 7.51697631835938e+02 5.34639310836792e+00 3555 
6.59200927734375e+02 7.08700378417969e+02 4.28019618988037e+00 3556 
1.84829370117188e+03 1.01031396484375e+03 1.09167690277100e+01 3557 
3.28738555908203e+02 5.78341613769531e+02 3.31234893798828e+01 3558 
5.07233520507812e+02 1.02078643798828e+02 6.14220380783081e+00 3559 
4.81525665283203e+02 1.41801559448242e+02 5.87873744964600e+00 3560 
3.38016674804688e+03 1.29408312988281e+03 4.61484003067017e+00 3561 
4.71038055419922e+02 2.15281323242188e+03 3.78881907463074e+00 3562 
4.00079986572266e+02 2.80097930908203e+02 6.31886243820190e+00 3563 
2.65429321289062e+03 7.15588378906250e+01 7.67685174942017e+00 3567 
1.00845404052734e+03 1.77865951538086e+02 5.01027488708496e+00 3580 
1.25382397460938e+03 8.78348312377930e+01 9.55677032470703e+00 3781 
6.38025207519531e+02 5.81900756835938e+02 6.30199527740479e+00 3833 
4.26027557373047e+02 3.35610351562500e+02 5.87683343887329e+00 4092 
3.35564300537109e+02 6.41781677246094e+02 1.59445552825928e+01 4093 
2.88278735351562e+03 4.96162017822266e+02 9.44148635864258e+00 4094 
5.69345275878906e+02 6.81935668945312e+02 1.01979408264160e+01 4095 
1.41057693481445e+02 3.44483154296875e+02 7.92827653884888e+00 4096 
3.27950195312500e+02 5.24974426269531e+02 5.85532617568970e+00 4097 
3.35089892578125e+03 5.87325866699219e+02 1.07956972122192e+01 4098 
2.08948706054688e+03 8.43247619628906e+02 3.63214921951294e+00 4099 
1.76847686767578e+02 6.81100341796875e+02 7.29955339431763e+00 4100 
2.42356030273438e+03 2.30738378906250e+03 6.22592973709106e+00 4101 
3.16927905273438e+03 6.00109024047852e+01 4.06488990783691e+00 4140 
2.35429882812500e+03 2.20630569458008e+02 6.05046749114990e+00 4265 
2.84475610351562e+03 1.96466821289062e+03 9.60670757293701e+00 4266 
1.50957836914062e+03 7.68917175292969e+02 1.26101875305176e+01 4267 
3.42304956054688e+03 2.11824902343750e+03 3.89895973205566e+01 4268 
3.68184619140625e+03 1.42661169433594e+03 1.47994623184204e+01 4269 
1.98911010742188e+02 6.23575500488281e+02 4.87595510482788e+00 4270 
1.24401855468750e+03 5.75907592773438e+02 8.87444496154785e+00 4271 
2.24809057617188e+03 2.49294726562500e+03 7.27768850326538e+00 4272 
8.46235351562500e+02 1.31712939453125e+03 1.25322341918945e+01 4273 
1.52847119140625e+03 7.68688201904297e+01 4.73893928527832e+00 4492 
2.78983081054688e+03 1.25758422851562e+02 1.38787660598755e+01 4574 
3.32160034179688e+03 2.35991683959961e+02 1.14553937911987e+01 4575 
7.09619506835938e+02 5.32125396728516e+01 5.63304853439331e+00 4576 
3.27749877929688e+03 1.60062744140625e+02 1.21985092163086e+01 4577 
1.70281018066406e+03 8.87795593261719e+02 9.34651374816895e+00 4578 
2.30656567382812e+03 1.04606689453125e+03 1.16473693847656e+01 4579 
1.55614880371094e+03 8.81959533691406e+02 2.15080394744873e+01 4580 
1.95860852050781e+03 7.17745117187500e+02 1.39546928405762e+01 4581 
8.86968505859375e+02 2.97976013183594e+02 2.53454895019531e+01 4582 
2.26262158203125e+03 5.10121948242188e+02 1.84582118988037e+01 4583 
2.76925683593750e+03 3.01830657958984e+02 1.59251861572266e+01 4584 
6.26131469726562e+02 5.59880905151367e+01 4.91131353378296e+00 4585 
3.98560913085938e+02 4.00640747070312e+02 6.92444229125977e+00 4586 
2.53350402832031e+02 5.44197387695312e+02 7.61402368545532e+00 4587 
1.40602526855469e+03 1.76246627807617e+02 7.50503253936768e+00 4588 
2.46702685546875e+03 1.44808361816406e+03 1.40775537490845e+01 4589 
1.54271704101562e+03 5.28318481445312e+02 7.47182607650757e+00 4590 
2.38577368164062e+03 6.76083435058594e+02 8.69803237915039e+00 4591 
2.51227221679688e+03 7.36981933593750e+02 8.47007465362549e+00 4592 
2.56096411132812e+03 7.36291748046875e+02 8.08015060424805e+00 4593 
2.53628860473633e+02 1.18695922851562e+03 8.57406234741211e+00 4594 
2.74011889648438e+03 2.46800830078125e+03 8.26821613311768e+00 4595 
2.17760131835938e+03 7.04776000976562e+02 1.95997848510742e+01 4596 
2.78600341796875e+03 2.57689666748047e+02 2.08678627014160e+01 4597 
3.49640136718750e+03 2.09407128906250e+03 1.57103519439697e+01 4598 
1.49812072753906e+03 3.52105377197266e+02 3.38229026794434e+01 4599 
1.76775891113281e+03 3.47878936767578e+02 3.36806945800781e+01 4600 
2.59648022460938e+03 3.42783355712891e+02 3.37922325134277e+01 4601 
8.81682006835938e+02 5.22610046386719e+02 4.08534202575684e+01 4602 
2.73600292968750e+03 9.15512084960938e+02 5.09482688903809e+01 4603 
3.58564117431641e+02 3.51005371093750e+02 5.52414464950562e+00 4604 
3.59988403320312e+03 8.07146728515625e+02 8.15298748016357e+00 4605 
1.76689184570312e+03 7.33255767822266e+01 6.94218397140503e+00 4606 
1.40231054687500e+03 7.64835815429688e+01 6.07131671905518e+00 4607 
1.55149475097656e+03 2.24310302734375e+02 5.61655426025391e+00 4608 
1.05415502929688e+03 4.91699333190918e+01 4.57571125030518e+00 4609 
1.11198107910156e+03 4.97699584960938e+01 3.65290617942810e+00 4610 
1.79533142089844e+03 4.01562080383301e+01 4.13742542266846e+00 4611 
1.21071398925781e+03 8.26321945190430e+01 8.07725906372070e+00 4612 
1.29236315917969e+03 4.60489387512207e+01 4.69255399703979e+00 4613 
1.31354577636719e+03 4.60006904602051e+01 4.70171833038330e+00 4614 
1.39255566406250e+03 4.51628379821777e+01 4.65663337707520e+00 4615 
1.41191662597656e+03 4.51188316345215e+01 4.47578430175781e+00 4616 
1.45443383789062e+03 6.10142395019531e+02 1.84282112121582e+01 4617 
3.51382495117188e+03 4.14552795410156e+02 4.52926063537598e+00 4618 
2.42709472656250e+03 1.99420666503906e+03 6.54962205886841e+00 4619 
7.78102844238281e+02 3.84526023864746e+01 3.69594812393188e+00 4620 
2.40356616210938e+03 1.39101806640625e+03 1.01092672348022e+01 4621 
1.58070205688477e+02 7.30456665039062e+02 5.18580389022827e+00 4622 
1.27227636718750e+03 1.25802685546875e+03 9.05273342132568e+00 4623 
3.54635327148438e+03 6.91863159179688e+02 1.34462661743164e+01 4624 
1.98846618652344e+03 1.45041809082031e+02 4.97447586059570e+00 4625 
1.24327502441406e+03 7.60286178588867e+01 5.62091350555420e+00 4626 
3.80775488281250e+03 4.29270141601562e+02 7.02975225448608e+00 4627 
8.71227493286133e+01 8.44037048339844e+02 6.98112297058105e+00 4628 
2.35445968627930e+02 2.39673559570312e+03 4.44614744186401e+00 4629 
3.19063623046875e+03 1.59358398437500e+03 4.98223257064819e+00 4630 
3.71314135742188e+03 2.91821380615234e+02 5.68669843673706e+00 4631 
3.49704272460938e+03 6.95048645019531e+02 6.53670310974121e+00 4632 
1.50914196777344e+03 1.93940405273438e+03 1.02191085815430e+01 4633 
1.66141882324219e+03 1.71680358886719e+03 1.11349868774414e+01 4634 
3.64535449218750e+03 6.33540161132812e+02 6.67131853103638e+00 4635 
1.25812768554688e+03 5.35747802734375e+02 5.09618330001831e+00 4636 
1.70795867919922e+02 1.31664965820312e+03 8.80411243438721e+00 4637 
1.38147253417969e+03 5.58069396972656e+02 1.22466831207275e+01 4638 
3.78912695312500e+03 5.02531158447266e+02 4.35408687591553e+00 4639 
3.58048608398438e+03 4.03364990234375e+02 6.18372821807861e+00 4640 
3.50074853515625e+03 5.18030700683594e+02 6.32961273193359e+00 4641 
6.92362854003906e+02 8.08245483398438e+02 9.42019939422607e+00 4642 
6.51602355957031e+02 1.39113220214844e+02 5.83993721008301e+00 4643 
1.27848779296875e+03 9.41773742675781e+02 4.79153060913086e+00 4644 
3.38579565429688e+03 2.32746240234375e+03 1.23550548553467e+01 4645 
3.29960498046875e+03 6.40112670898438e+02 7.73404502868652e+00 4646 
2.66331909179688e+03 6.48357360839844e+02 4.92051219940186e+00 4647 
2.02438977050781e+03 2.00901208496094e+03 3.79756355285645e+00 4648 
3.12433227539062e+03 9.90796691894531e+02 3.80692577362061e+00 4649 
2.06514575195312e+03 7.36605468750000e+02 4.96922922134399e+00 4650 
1.20828820800781e+03 1.06779687500000e+03 1.89100608825684e+01 4651 
2.50715136718750e+03 2.43600158691406e+02 6.63263893127441e+00 4652 
