ply
format ascii 1.0
element vertex 238
property float x
property float y
property float size
property short id
end_header
3272.980225 1598.638428 28.737610 22 
391.051697 1965.608276 30.016396 28 
3219.861084 1968.563965 37.289471 31 
435.024109 1823.509399 36.941578 32 
524.617371 2012.104858 12.750885 58 
393.482727 2104.744385 13.173986 63 
308.368774 1972.463745 25.291763 67 
432.716278 2021.582520 24.655867 68 
2382.079834 742.763855 7.060385 83 
1832.336670 901.785339 19.642038 91 
424.415710 1890.227417 24.992899 104 
135.201675 857.167358 3.712248 112 
3298.121338 1908.711792 37.965813 121 
403.756897 311.896301 8.914703 142 
931.144653 1044.029175 14.482378 154 
2635.616455 255.434097 5.846385 166 
2467.107910 1216.584351 8.814994 173 
237.112305 2034.634521 15.578202 204 
801.462952 304.349670 9.217063 210 
1973.647095 411.893311 5.650793 211 
1537.965210 1947.686035 13.097275 212 
300.672913 2242.097656 16.501461 213 
3038.928955 2408.486572 4.741768 214 
3730.294678 696.478149 4.341887 215 
2071.888184 964.980957 4.943754 216 
1195.938110 48.277107 3.953746 226 
3694.212402 420.369446 4.024500 256 
3166.937988 575.010925 7.942904 286 
3565.107666 395.488068 3.260199 435 
3602.640381 599.689819 11.178288 477 
2094.393066 245.422180 3.990843 479 
3098.795166 1905.289429 11.785513 508 
140.152832 753.529236 5.700065 523 
557.268799 1236.091553 12.773863 555 
247.531113 214.403259 3.754874 556 
1770.715576 1557.015869 8.591131 557 
875.968445 1778.696777 12.555519 574 
1877.640991 68.379654 5.748810 575 
1706.149658 1308.765991 25.729027 576 
2251.339844 1162.823486 14.743089 577 
1680.723511 1493.182495 16.732977 578 
3645.466064 658.204285 4.993451 579 
3713.887939 805.274170 3.592257 580 
2261.835205 594.006836 5.947354 581 
89.147568 861.483643 5.070318 582 
2285.586426 1020.804565 12.774284 583 
1054.640991 315.480927 15.211015 797 
201.054581 1375.677979 9.381365 1144 
2774.052734 1257.514404 3.642190 1145 
749.630310 1446.570679 14.306299 1146 
1226.630005 1523.917725 17.534502 1147 
366.185333 849.179199 4.582005 1148 
858.480164 1011.933411 14.236945 1149 
2332.872314 1000.184448 8.031157 1150 
512.893066 596.914917 3.733176 1151 
2421.263428 1243.948242 4.355166 1152 
3308.518311 2000.468994 5.567061 1153 
623.580566 1034.910156 5.623573 1154 
949.816956 232.365021 12.974928 1696 
1133.168335 1270.846436 18.646366 1724 
1164.029053 411.914124 4.429868 1725 
1371.631592 2107.356689 6.243602 1726 
3658.462891 677.676636 4.556952 1727 
494.976105 1936.104248 48.590748 1728 
2006.918457 1406.565186 13.583225 1729 
2045.353149 1503.992310 6.503619 1730 
1667.982910 2203.476318 7.064620 1731 
140.633652 1720.029175 12.418790 1732 
1911.172729 833.823425 29.022869 1744 
1650.915283 2053.683838 6.037062 1912 
169.141815 722.759827 4.422231 1940 
2469.164307 106.305252 7.012663 1941 
2881.988037 1604.098511 28.672672 1942 
2843.512695 390.480469 4.380101 1943 
3788.183838 811.593628 5.748708 1944 
1491.371338 738.319519 10.588040 1945 
3055.636963 919.073547 51.953720 1946 
3247.512207 742.413147 10.488614 1947 
1792.954956 1685.305054 12.334145 1948 
3419.051758 961.832153 6.211058 1949 
3056.050537 2299.168945 7.676826 1950 
3041.000000 599.812134 12.395607 2123 
530.084351 77.455399 3.779240 2347 
831.446777 845.622253 5.255672 2362 
1627.565918 2043.739380 4.082108 2363 
205.270493 231.550003 3.973801 2364 
1489.539062 657.163330 6.270067 2365 
90.900253 1744.954346 10.248304 2366 
514.433472 1611.333496 27.943419 2367 
3764.134033 461.522797 4.001262 2368 
2937.585449 1185.027954 14.336804 2369 
170.108414 266.251068 4.746355 2370 
3221.291016 71.105843 7.696674 2388 
93.823944 949.213379 6.026073 2534 
929.373230 439.663849 16.850431 2575 
3229.672119 699.157776 17.966192 2580 
427.608704 350.944946 22.298880 2682 
936.123535 290.425659 18.517830 2683 
228.116882 707.981812 6.535527 2731 
3734.925537 844.829529 3.899848 2815 
3452.912598 229.056473 6.407321 2816 
1740.946411 2398.447510 4.827041 2818 
2567.083984 2408.601807 5.116257 2821 
2246.976074 2472.012695 6.301307 3011 
3047.743164 226.146637 7.474495 3012 
2076.343262 1307.020020 25.800600 3013 
3223.470947 1895.794922 15.150639 3014 
2009.045410 1410.124268 15.217165 3015 
1248.735474 333.982971 4.525809 3016 
3719.524902 813.522644 3.570019 3017 
1806.967651 370.173401 8.887989 3217 
2348.991211 1276.620605 11.641702 3218 
909.743958 1432.035400 14.663014 3219 
1495.132568 1773.729370 48.544468 3220 
3745.919922 835.081665 6.385389 3221 
3107.419434 1394.210571 5.379269 3222 
1430.655640 1321.362915 7.084137 3223 
1342.868774 179.345261 8.512216 3224 
3412.815674 1829.781006 12.340953 3225 
3127.793701 740.890442 13.256921 3226 
625.698181 2362.892822 4.979897 3243 
375.356506 364.799042 9.617049 3369 
239.844635 685.255920 7.582101 3393 
546.440918 63.615402 5.955894 3553 
174.109772 786.088257 4.040290 3554 
2674.692627 751.697632 5.346393 3555 
659.200928 708.700378 4.280196 3556 
1848.293701 1010.313965 10.916769 3557 
328.738556 578.341614 33.123489 3558 
507.233521 102.078644 6.142204 3559 
481.525665 141.801559 5.878737 3560 
3380.166748 1294.083130 4.614840 3561 
471.038055 2152.813232 3.788819 3562 
400.079987 280.097931 6.318862 3563 
2654.293213 71.558838 7.676852 3567 
1008.454041 177.865952 5.010275 3580 
1253.823975 87.834831 9.556770 3781 
638.025208 581.900757 6.301995 3833 
426.027557 335.610352 5.876833 4092 
335.564301 641.781677 15.944555 4093 
2882.787354 496.162018 9.441486 4094 
569.345276 681.935669 10.197941 4095 
141.057693 344.483154 7.928277 4096 
327.950195 524.974426 5.855326 4097 
3350.898926 587.325867 10.795697 4098 
2089.487061 843.247620 3.632149 4099 
176.847687 681.100342 7.299553 4100 
2423.560303 2307.383789 6.225930 4101 
3169.279053 60.010902 4.064890 4140 
2354.298828 220.630569 6.050467 4265 
2844.756104 1964.668213 9.606708 4266 
1509.578369 768.917175 12.610188 4267 
3423.049561 2118.249023 38.989597 4268 
3681.846191 1426.611694 14.799462 4269 
198.911011 623.575500 4.875955 4270 
1244.018555 575.907593 8.874445 4271 
2248.090576 2492.947266 7.277689 4272 
846.235352 1317.129395 12.532234 4273 
1528.471191 76.868820 4.738939 4492 
2789.830811 125.758423 13.878766 4574 
3321.600342 235.991684 11.455394 4575 
709.619507 53.212540 5.633049 4576 
3277.498779 160.062744 12.198509 4577 
1702.810181 887.795593 9.346514 4578 
2306.565674 1046.066895 11.647369 4579 
1556.148804 881.959534 21.508039 4580 
1958.608521 717.745117 13.954693 4581 
886.968506 297.976013 25.345490 4582 
2262.621582 510.121948 18.458212 4583 
2769.256836 301.830658 15.925186 4584 
626.131470 55.988091 4.911314 4585 
398.560913 400.640747 6.924442 4586 
253.350403 544.197388 7.614024 4587 
1406.025269 176.246628 7.505033 4588 
2467.026855 1448.083618 14.077554 4589 
1542.717041 528.318481 7.471826 4590 
2385.773682 676.083435 8.698032 4591 
2512.272217 736.981934 8.470075 4592 
2560.964111 736.291748 8.080151 4593 
253.628860 1186.959229 8.574062 4594 
2740.118896 2468.008301 8.268216 4595 
2177.601318 704.776001 19.599785 4596 
2786.003418 257.689667 20.867863 4597 
3496.401367 2094.071289 15.710352 4598 
1498.120728 352.105377 33.822903 4599 
1767.758911 347.878937 33.680695 4600 
2596.480225 342.783356 33.792233 4601 
881.682007 522.610046 40.853420 4602 
2736.002930 915.512085 50.948269 4603 
358.564117 351.005371 5.524145 4604 
3599.884033 807.146729 8.152987 4605 
1766.891846 73.325577 6.942184 4606 
1402.310547 76.483582 6.071317 4607 
1551.494751 224.310303 5.616554 4608 
1054.155029 49.169933 4.575711 4609 
1111.981079 49.769958 3.652906 4610 
1795.331421 40.156208 4.137425 4611 
1210.713989 82.632195 8.077259 4612 
1292.363159 46.048939 4.692554 4613 
1313.545776 46.000690 4.701718 4614 
1392.555664 45.162838 4.656633 4615 
1411.916626 45.118832 4.475784 4616 
1454.433838 610.142395 18.428211 4617 
3513.824951 414.552795 4.529261 4618 
2427.094727 1994.206665 6.549622 4619 
778.102844 38.452602 3.695948 4620 
2403.566162 1391.018066 10.109267 4621 
158.070206 730.456665 5.185804 4622 
1272.276367 1258.026855 9.052733 4623 
3546.353271 691.863159 13.446266 4624 
1988.466187 145.041809 4.974476 4625 
1243.275024 76.028618 5.620914 4626 
3807.754883 429.270142 7.029752 4627 
87.122749 844.037048 6.981123 4628 
235.445969 2396.735596 4.446147 4629 
3190.636230 1593.583984 4.982233 4630 
3713.141357 291.821381 5.686698 4631 
3497.042725 695.048645 6.536703 4632 
1509.141968 1939.404053 10.219109 4633 
1661.418823 1716.803589 11.134987 4634 
3645.354492 633.540161 6.671319 4635 
1258.127686 535.747803 5.096183 4636 
170.795868 1316.649658 8.804112 4637 
1381.472534 558.069397 12.246683 4638 
3789.126953 502.531158 4.354087 4639 
3580.486084 403.364990 6.183728 4640 
3500.748535 518.030701 6.329613 4641 
692.362854 808.245483 9.420199 4642 
651.602356 139.113220 5.839937 4643 
1278.487793 941.773743 4.791531 4644 
3385.795654 2327.462402 12.355055 4645 
3299.604980 640.112671 7.734045 4646 
2663.319092 648.357361 4.920512 4647 
2024.389771 2009.012085 3.797564 4648 
3124.332275 990.796692 3.806926 4649 
2065.145752 736.605469 4.969229 4650 
1208.288208 1067.796875 18.910061 4651 
2507.151367 243.600159 6.632639 4652 
