ply
format ascii 1.0
element vertex 556
property float x
property float y
property float size
property short id
end_header
245.637634 1212.279175 6.690936 12 
1309.503540 314.442200 13.282641 20 
651.343323 2077.659912 26.542850 21 
998.686584 242.415588 16.330122 28 
675.292297 1943.846680 31.377026 31 
1256.179443 628.546692 4.122715 48 
892.197510 2075.697754 46.248787 69 
508.756104 416.796814 7.963682 88 
3554.058594 853.825745 4.950331 94 
3611.562744 770.295227 3.537239 112 
239.178146 1439.228882 22.281731 127 
326.113220 1088.994629 4.134657 151 
1432.384399 1191.172974 5.788087 152 
274.913879 912.024658 4.234856 153 
1640.123169 1451.801270 16.264217 154 
1908.186157 1088.448730 6.677344 155 
332.202301 1010.610840 4.795625 156 
1993.242554 1653.515991 17.284510 157 
1766.840698 170.183655 6.793602 158 
1817.604126 1280.933594 21.221149 159 
538.130127 394.059845 15.923371 160 
523.856201 384.480438 4.780804 161 
421.365906 717.853271 7.887893 162 
380.378937 859.685669 6.960179 163 
456.960938 577.072754 9.402192 164 
3572.659424 1914.014282 9.728577 165 
2980.025146 1027.904541 8.566751 166 
305.358154 1088.080566 11.921086 167 
3780.126221 1730.039795 5.288238 168 
3648.676758 1645.893433 22.921352 201 
3781.532227 1760.497803 8.286402 234 
3802.773682 1793.984131 5.278149 256 
3545.873535 796.609802 9.818299 268 
3810.442627 1449.356445 6.867359 273 
3564.866455 984.831726 5.502261 274 
3560.323242 910.612671 5.526920 279 
3799.694824 1431.349731 7.878721 284 
3660.136475 155.663376 5.025082 301 
2122.984619 393.111694 10.326637 506 
2342.118896 1685.137939 13.864779 508 
297.560120 831.745728 4.803570 524 
1735.913452 545.155823 8.760710 525 
3675.469727 660.668945 17.240248 526 
1827.863892 1436.145264 7.698856 527 
3130.508789 497.541595 21.508331 528 
2193.564209 2072.985596 7.248444 529 
1565.725098 1470.568604 6.532626 530 
2362.036865 221.180145 4.524137 531 
182.655533 1203.501221 3.863082 532 
2309.764160 548.331665 8.101337 533 
3699.979736 385.751709 4.270785 534 
3246.335449 547.414124 5.488912 604 
3472.876709 502.520386 4.835432 783 
3661.279053 614.684937 7.863145 790 
2792.490479 249.319580 16.675055 797 
2839.648438 189.598740 16.160646 798 
3704.645996 825.521179 4.498849 801 
3598.722168 744.650146 4.310650 829 
3719.019287 612.592346 6.155042 840 
3652.271240 535.236206 3.212806 892 
3659.365967 637.522156 5.089239 897 
3400.035400 307.495911 5.365201 910 
3527.931885 769.834656 7.211083 911 
3720.514160 691.607178 5.489964 916 
3685.825439 558.826904 3.948362 920 
3568.219482 802.579102 5.272181 968 
3716.252197 1173.753052 3.877475 974 
3695.873779 803.975220 6.088015 1016 
3727.640869 705.683350 5.958658 1022 
3720.066650 680.690002 4.059083 1033 
3509.915527 686.356323 3.771906 1078 
1242.088623 541.852966 17.724766 1093 
3683.448730 636.199341 10.078228 1094 
999.523254 665.936279 13.566137 1095 
1582.305420 111.704422 8.481603 1096 
3073.201904 61.106060 4.776657 1097 
3654.844482 913.126465 4.097175 1098 
3372.045410 444.947937 3.965274 1099 
3568.838135 836.895996 3.655633 1100 
3532.791992 692.265137 4.378042 1101 
931.639099 2012.959961 9.831795 1102 
2819.798096 1980.590454 3.946855 1103 
1350.359253 563.821106 8.225908 1104 
1575.093140 556.860352 17.633951 1105 
758.477112 1313.061157 10.218164 1106 
1216.976318 2172.230469 7.506823 1107 
765.503052 563.567383 7.976805 1108 
1031.219849 1862.632690 17.085604 1109 
3611.534912 584.289124 4.961144 1110 
3218.516357 115.748596 10.269714 1115 
3703.308350 528.289429 12.795699 1227 
3817.480225 568.628601 6.250153 1228 
3749.692627 543.670227 8.510489 1230 
3770.845215 1492.274902 7.414732 1238 
3659.403564 574.536560 9.641996 1247 
3711.674316 371.430756 8.632849 1249 
3722.842041 1277.750488 7.929203 1260 
3555.735596 703.398254 4.322309 1263 
3739.463379 396.449371 4.529102 1269 
3798.158936 514.342285 3.763219 1276 
3680.586914 503.233185 6.199582 1291 
3711.987549 503.315216 4.898777 1297 
3692.614014 1097.717529 6.859392 1307 
3714.003906 1228.528198 7.333953 1312 
3694.620605 1151.890137 6.906092 1313 
3594.273926 944.808533 5.131108 1315 
3744.739502 1232.871460 5.586184 1325 
3658.773193 443.297516 4.920765 1333 
3830.985107 540.704285 6.185968 1350 
3549.111084 263.686005 6.226113 1374 
3133.251465 1814.130005 53.677181 1380 
3674.705322 1098.290405 5.107570 1390 
3796.097656 295.867188 7.696539 1409 
3686.884766 579.308105 10.381078 1415 
3735.160400 512.137268 7.975109 1419 
3754.483154 403.350922 5.121649 1454 
3597.568359 294.024261 5.930164 1457 
3808.066650 461.733978 4.760733 1468 
3691.556152 1234.088989 5.045450 1487 
3775.293701 1446.497925 8.344440 1526 
3736.707275 1316.229980 5.251592 1527 
3641.641113 1051.736450 4.935446 1528 
3810.793701 1137.029053 5.547957 1538 
3784.339111 1327.189087 4.930194 1548 
3638.550293 1080.067139 5.371988 1557 
3812.381592 1123.684814 5.172813 1579 
3715.826172 1354.087280 5.732097 1582 
3821.936279 1015.340088 6.006954 1583 
3809.917236 1505.674561 5.199274 1603 
3724.713379 1147.228638 5.752203 1606 
3587.510986 764.641113 5.846384 1612 
3804.989990 980.564453 6.403774 1639 
3830.832031 1071.264160 6.291648 1643 
3527.799805 637.808777 9.151057 1656 
492.035828 529.052917 22.878363 1657 
3460.836914 121.191315 5.223019 1658 
177.344849 1040.763794 6.361552 1659 
3613.166260 91.345909 5.720273 1660 
1286.250977 153.610229 14.577308 1661 
3824.873291 749.803528 5.307158 1662 
3805.016602 700.997559 5.395768 1663 
3698.835693 720.152405 5.603981 1664 
235.631470 1087.275146 9.586148 1665 
3543.171631 823.377991 6.794245 1666 
3744.800781 499.341522 5.713139 1667 
3651.163818 415.449921 6.128666 1668 
3537.322021 293.427094 7.381413 1669 
3777.004150 832.259399 9.002249 1670 
3804.303223 803.790710 5.296870 1671 
3780.338867 659.453369 6.177642 1672 
3773.956787 865.923523 9.016885 1673 
3556.900391 357.215546 6.221982 1674 
1691.388428 455.055023 10.493424 1675 
3823.745361 850.190063 4.632284 1676 
3520.929443 717.163330 7.762889 1677 
3756.294189 1252.495483 6.016271 1678 
3746.773193 854.597534 5.080673 1679 
3622.260010 619.710327 3.709805 1680 
3696.277832 1205.001099 8.222364 1681 
3571.523682 291.712280 5.478313 1682 
3622.588135 863.781738 5.995247 1683 
3754.195557 803.375854 6.431456 1684 
3665.847412 598.389954 5.006751 1685 
3484.019287 563.087463 4.329023 1686 
3588.042969 275.295471 4.334639 1687 
208.036560 2110.597900 8.577975 1688 
3542.531738 741.223755 5.111714 1689 
3468.376953 110.783028 4.089125 1690 
3765.354004 374.386383 4.921889 1691 
3743.557861 1457.073730 8.756893 1692 
3710.638672 354.999084 4.564085 1693 
3622.346924 374.081665 6.253307 1694 
3597.527100 88.069939 4.419903 1695 
218.052612 826.218201 11.936640 1703 
94.422600 605.971924 6.535608 1742 
3226.258545 2036.197510 27.836401 1777 
3112.047607 1937.863647 33.235245 1818 
1061.091431 237.641983 8.635448 1832 
1053.514771 186.775360 7.472946 1836 
1007.678467 205.922180 12.195598 1850 
3043.486328 1877.586182 9.078279 1888 
2760.667725 1382.180420 24.667332 1895 
2098.720947 1714.146606 26.555183 1896 
2323.256104 1317.768433 16.234131 1897 
3485.402100 1495.897217 9.844100 1898 
1410.273560 1570.519287 65.692924 1899 
1291.260620 1121.039062 66.729874 1900 
2246.349854 1241.181030 96.506493 1901 
2783.748047 1540.908081 65.977272 1902 
2263.101807 1550.727173 103.712463 1903 
2606.201416 1540.254883 101.693359 1904 
3068.031494 1268.259888 9.433729 1905 
2877.974121 328.624664 5.036939 1906 
1569.148560 1244.628906 4.739204 1907 
798.777161 779.199463 16.029861 1966 
3826.663818 1403.660400 3.711346 2004 
3706.124756 1341.463379 5.169092 2011 
3807.175537 1467.344238 6.865974 2024 
3818.442627 1412.139771 4.818670 2185 
3653.960693 1007.572510 6.371547 2317 
3805.483643 1416.051392 4.768564 2318 
3714.281982 1299.936523 3.814242 2319 
3582.624023 694.334229 4.448946 2320 
3823.050293 638.404297 7.074247 2321 
1380.904785 1608.004150 14.468175 2322 
3365.569580 114.360497 5.166828 2323 
2883.011719 382.307343 18.367168 2324 
3628.650879 1094.754150 5.339393 2325 
3610.668945 789.515869 4.094654 2326 
3812.259033 1484.810059 5.144632 2327 
3639.898438 252.275925 7.803151 2328 
2268.049072 398.166382 4.060133 2329 
3697.240967 483.894287 4.337536 2330 
3625.993164 1081.103027 4.192889 2331 
3649.236572 1027.019287 5.496640 2332 
953.684448 321.440613 8.138839 2333 
3823.770020 1588.379639 5.346110 2334 
3787.544922 1455.616211 4.346115 2335 
3721.774902 1311.641846 4.330423 2336 
3561.544189 844.421631 4.438337 2337 
3715.481934 190.333389 4.903997 2338 
994.619995 176.218140 14.233968 2339 
3263.434814 936.322754 19.882557 2353 
3760.705811 1421.458130 5.171760 2399 
3730.593262 1293.824585 4.701572 2439 
3570.475098 770.918030 4.246341 2444 
3843.430176 1153.962280 4.255414 2588 
3806.265869 1149.884644 4.008807 2621 
3823.848877 1166.381714 4.911234 2671 
2787.290283 183.294937 19.831018 2683 
3418.061035 446.464294 5.366152 2712 
3816.917236 799.785156 4.002067 2713 
3799.029541 815.929138 4.851798 2714 
343.076141 493.524811 7.340798 2715 
3765.031982 699.539734 4.046187 2716 
3803.820068 1180.280273 3.622596 2717 
488.011414 2464.283447 7.693928 2718 
2991.182617 1515.434326 13.512365 2719 
3506.967773 673.838867 5.472757 2720 
3498.566406 650.676270 6.916479 2721 
2448.068848 1974.364746 6.704344 2722 
3790.261963 761.577148 5.225476 2723 
308.732910 663.382874 4.521614 2724 
3668.982666 741.954773 4.030497 2725 
3411.531006 430.262573 5.692484 2726 
2393.012207 257.080750 14.541773 2772 
3285.366943 2077.643066 3.675118 2826 
1304.695923 1597.453979 11.995772 2827 
1982.919678 2141.291748 14.869776 2828 
1359.430420 677.680115 20.039110 2829 
3818.360596 1155.730347 4.722124 2830 
638.380249 179.125565 4.239709 2831 
121.749367 1866.543457 4.419706 2832 
1385.083008 1575.067749 11.584265 2833 
1001.234070 1791.759399 6.313297 2834 
283.728333 252.934250 6.203236 2835 
1858.272217 1977.103149 14.750102 2836 
3576.654053 864.574951 11.017627 2837 
2927.441406 166.239822 8.001245 2838 
3584.379883 782.540405 9.280258 2839 
524.697632 2142.023193 12.530477 2920 
511.375824 155.467590 5.957733 3070 
499.255707 287.256256 4.813794 3071 
422.023468 476.555603 4.442728 3072 
445.110382 509.219055 4.263125 3073 
380.232086 241.905685 5.037260 3074 
1001.760559 374.080597 11.955956 3075 
1518.676270 227.463272 17.446602 3076 
1095.943481 238.815918 20.537064 3077 
1021.868652 174.548828 16.844158 3078 
893.974426 550.754517 15.554233 3079 
920.010742 299.316956 20.887131 3080 
2052.237061 403.259918 18.520748 3081 
1764.370239 860.239868 21.537310 3082 
1372.129517 341.025055 29.161295 3083 
782.479675 2075.596191 32.302654 3084 
1035.449219 757.511719 37.004013 3085 
1915.296753 1010.452087 37.152615 3086 
3410.891357 403.776001 5.422043 3087 
405.257965 727.062317 4.663533 3088 
3340.205322 821.994080 3.663600 3089 
3374.320312 265.369049 5.837074 3090 
3461.314941 714.039673 6.140450 3091 
391.754395 208.994308 6.278598 3092 
1656.017822 891.507019 10.576585 3093 
3374.463623 195.707596 5.587213 3094 
384.723145 228.206589 5.370850 3095 
1995.018677 421.263397 3.779763 3096 
3433.494141 316.967896 5.963480 3097 
563.041016 138.273361 4.998744 3098 
584.459412 233.732559 14.066985 3099 
480.239349 343.814484 8.165169 3100 
3418.002441 349.225677 8.660476 3101 
3437.755127 269.417084 4.666255 3102 
462.154449 305.389771 4.908875 3103 
3444.365723 367.167084 4.847012 3104 
526.683960 226.047531 6.449623 3105 
475.740112 475.509583 5.847509 3106 
385.701782 572.298767 6.504899 3107 
3306.345215 57.644272 5.264081 3108 
498.298676 88.740768 5.678296 3109 
416.798920 353.446320 6.153253 3110 
534.509399 193.110184 4.347074 3111 
464.521179 523.477295 7.151928 3112 
3372.241211 178.728683 5.307074 3113 
533.685364 239.852295 5.200644 3114 
3414.181396 467.326385 4.521759 3115 
597.523071 101.661072 7.927313 3116 
583.312561 149.950638 9.496266 3117 
2344.082520 736.592346 7.874542 3118 
612.510498 1955.691040 11.356918 3119 
1663.431030 563.799438 12.922948 3120 
1045.755981 218.045914 19.609146 3121 
1605.714600 1218.160767 26.620434 3122 
3152.164795 2009.952515 27.071472 3123 
938.307434 549.898621 43.936531 3124 
2079.480713 975.921570 53.523861 3125 
2385.454102 975.296509 53.115974 3126 
1605.377319 1000.348450 86.457611 3127 
1913.118164 828.845886 67.709404 3128 
1599.983154 1127.657959 67.601440 3129 
906.852539 567.560425 5.924940 3130 
403.993042 212.707245 4.426855 3131 
438.966644 328.129272 6.838277 3132 
3339.696777 209.025284 6.108730 3133 
2507.549805 106.337105 8.516548 3134 
519.413818 382.016205 7.463383 3135 
3340.213135 86.264442 7.508476 3136 
1090.191772 202.973694 8.809249 3137 
461.901611 267.411499 8.602718 3138 
902.114990 264.792175 9.491617 3139 
513.849609 271.074341 8.508737 3140 
1082.780273 276.118103 8.698359 3141 
498.989502 336.348053 7.198471 3142 
488.081909 456.920929 11.162370 3143 
913.641846 522.713379 11.258938 3144 
3388.802979 197.449127 4.989841 3145 
564.011353 229.791046 5.394925 3146 
433.829742 137.991745 5.479415 3147 
450.379669 522.144104 5.193040 3148 
455.800629 494.642487 7.985044 3149 
3493.165771 682.809387 7.415946 3150 
2823.758789 258.540680 7.575618 3151 
475.383148 230.079834 11.320975 3152 
774.304077 2012.384033 12.381225 3153 
759.686523 2139.661377 11.686959 3154 
693.039307 2204.456543 12.211009 3155 
495.227783 160.722031 9.987656 3156 
1608.952393 175.001663 5.124286 3157 
419.908875 568.525757 5.140463 3158 
416.272247 644.009521 4.231920 3159 
3384.560547 84.018547 6.822644 3160 
550.776733 277.057190 5.644751 3161 
3450.468750 276.548706 6.636103 3162 
2411.100098 75.430420 6.936985 3163 
205.631470 802.359192 6.063639 3164 
272.045593 999.143616 6.283772 3165 
3213.800049 763.766724 13.066541 3166 
2144.971924 1317.786987 13.758068 3167 
2383.061523 466.197266 6.503622 3168 
1960.118286 649.780884 11.912560 3169 
3610.744141 976.069763 6.955295 3170 
62.709816 1132.453979 5.306302 3171 
280.191559 1029.174194 3.735363 3172 
2138.374756 1093.090942 4.423209 3173 
68.061394 1590.491333 4.604574 3174 
84.139198 1154.966675 4.184151 3175 
288.636932 996.896790 5.813439 3176 
266.161194 1031.581177 6.774191 3177 
160.850281 1440.547485 7.686422 3178 
1293.362061 1941.794312 18.830631 3179 
260.121704 1000.568970 3.709499 3180 
109.775711 1512.918457 3.786609 3181 
248.218048 757.301819 4.779979 3182 
160.325409 1529.886108 4.594594 3183 
257.623169 915.337830 8.323045 3184 
281.052582 665.010559 4.836846 3185 
3551.430908 982.841553 4.520695 3186 
119.114487 1179.389771 5.374291 3187 
194.836777 1272.962036 6.121878 3188 
266.966217 1097.248047 6.827948 3189 
200.556442 1326.435181 6.055757 3190 
250.475601 1027.432495 5.588106 3191 
3822.623535 1892.365234 5.544070 3192 
3832.310303 1926.355591 5.254592 3193 
2373.532471 845.320618 21.399078 3194 
1132.337524 817.727173 6.903261 3195 
213.427795 1269.291260 6.940854 3196 
2271.917480 518.692322 8.430638 3197 
1784.705078 2008.510376 6.411376 3198 
2346.539307 1006.120361 10.351469 3199 
95.543228 1064.977783 6.034997 3200 
187.903656 1226.646362 6.372793 3201 
105.657562 987.017578 5.712730 3202 
100.835587 1509.285156 3.770973 3203 
137.668747 995.053223 5.832902 3204 
134.943848 1024.635132 6.838156 3205 
155.788177 997.780701 6.897548 3206 
1556.729614 1419.431152 15.611184 3207 
2979.605469 2017.523682 49.377880 3208 
99.676086 1199.326416 5.824788 3209 
111.440575 1487.514282 6.157279 3210 
3472.168701 726.503723 4.102396 3211 
56.349514 1078.714355 4.953894 3212 
3488.253906 775.452637 3.903312 3213 
1728.620483 564.273926 7.292179 3214 
3759.597900 1337.054199 11.953352 3215 
3613.348145 2259.486328 9.149617 3216 
1755.834106 482.376404 9.553302 3217 
3308.469238 622.456421 11.142274 3218 
1425.819336 1849.419678 15.056063 3219 
1921.033813 1887.387329 47.209347 3220 
1981.963989 1002.464783 9.890314 3222 
2752.327148 1180.073608 7.355796 3223 
604.735352 1124.606323 6.616820 3224 
543.113159 2016.044678 10.939397 3225 
1622.306152 165.145370 13.439245 3226 
518.305847 2078.610596 32.404781 3227 
75.008247 1649.096069 5.501797 3228 
112.552544 1649.901733 4.146538 3229 
1529.921997 904.931152 6.349374 3230 
75.130638 1722.789551 5.099940 3231 
1785.860718 167.952988 5.377520 3232 
1015.745483 1516.302490 12.031137 3233 
1345.340576 2158.160400 9.697674 3234 
1816.096802 366.577515 3.744997 3235 
212.703262 647.380432 4.973294 3236 
229.268234 433.911285 5.595953 3237 
3809.465576 688.811890 5.141395 3238 
603.057251 2015.284424 34.092392 3239 
61.925293 1657.995972 3.862598 3240 
289.944153 328.899994 3.988432 3241 
2279.148438 1192.192139 6.195393 3242 
1820.344604 356.255615 5.740553 3243 
64.535980 769.643188 4.075410 3244 
148.999527 656.135376 3.725334 3245 
2254.190186 567.487976 15.762034 3246 
1348.746948 1774.276855 3.847295 3247 
48.548847 693.161255 5.258637 3248 
151.340256 682.082947 4.834593 3249 
2683.467529 227.537811 7.694059 3250 
630.882996 207.448898 4.482409 3251 
171.958618 877.022827 4.912738 3252 
3542.074951 953.698242 4.834415 3253 
1965.658936 1134.313721 10.963675 3254 
118.813072 918.669861 4.683183 3255 
214.426178 1111.630127 3.756290 3256 
190.454102 855.966553 7.896733 3257 
2155.240967 1012.869446 18.988844 3258 
122.978966 533.239075 3.999385 3259 
52.010612 790.926758 3.905088 3260 
140.842010 722.318970 7.878769 3261 
437.312653 455.316772 4.022820 3262 
324.044678 762.936157 4.793363 3263 
371.173676 730.940674 6.482635 3264 
136.278152 328.025146 5.260757 3265 
267.850067 231.978302 10.389101 3266 
444.397339 363.627808 3.898513 3267 
256.408875 381.688660 6.397072 3268 
129.990143 671.318420 6.657315 3269 
131.766815 344.714966 4.727695 3270 
43.955143 772.056885 3.844235 3271 
110.514389 610.661743 4.181145 3272 
92.723007 925.457031 3.622014 3273 
108.479095 910.510193 5.749323 3274 
163.308136 637.669373 12.899604 3275 
234.144867 403.968964 6.497600 3276 
508.870941 278.763336 4.448866 3277 
319.407959 888.788391 4.430188 3278 
2308.228760 1156.651855 12.114515 3279 
422.065369 488.104919 3.821461 3280 
450.273895 460.623688 3.979289 3281 
240.654053 867.985657 4.360894 3282 
1393.704590 1725.767090 26.474665 3283 
1582.965088 2423.269287 7.081529 3284 
1354.332397 1160.121216 11.515605 3285 
1897.212158 2295.885498 10.305843 3286 
3615.721924 1656.953247 8.704180 3287 
1719.650391 1356.116821 4.619781 3288 
2792.437988 50.792004 4.249169 3289 
1152.598877 938.063416 4.528489 3290 
2562.590820 426.335632 4.088424 3291 
2436.256836 2155.528564 10.576156 3292 
3424.250244 1669.368042 6.391172 3293 
3404.224854 223.373932 5.348572 3294 
3658.045410 1215.796265 4.007141 3295 
3598.609619 1092.105713 6.942516 3296 
250.013229 1186.941528 7.313099 3297 
3692.474121 1130.900635 5.116612 3298 
3686.642578 1449.199585 4.787681 3299 
155.142715 1482.837158 4.060412 3300 
88.509552 1740.631836 3.917542 3301 
157.119125 1594.573486 6.158681 3302 
164.992523 728.132385 4.399951 3303 
264.067017 1079.028320 3.934096 3304 
3618.922852 1228.961060 4.825582 3305 
3672.608398 1331.937134 5.905477 3306 
216.480164 1373.536377 8.317167 3307 
163.077454 1387.079712 12.141944 3308 
3625.999023 1471.006958 11.151655 3309 
3431.121338 633.881104 4.748635 3310 
3660.978516 1176.997437 3.523568 3311 
58.090397 1631.247925 4.674798 3312 
181.395721 1433.604492 5.802330 3313 
3459.655029 924.250000 12.059000 3314 
91.294891 946.947998 7.749825 3315 
1295.266113 2373.998047 10.165843 3316 
3263.718506 204.592697 4.078854 3317 
3378.823730 397.024170 5.486239 3318 
156.068329 751.013062 5.132116 3319 
220.631012 1389.183228 4.280225 3320 
93.691925 1670.086060 5.562576 3321 
3594.705078 1155.833984 4.360708 3322 
3367.935547 289.893585 4.132996 3323 
339.228729 427.556824 5.766704 3324 
240.496536 737.846741 4.374235 3325 
3655.073486 1312.567505 4.611518 3326 
3709.329102 1127.020508 6.587908 3327 
720.219177 2073.480225 22.323528 3328 
282.667419 1161.412720 4.443333 3329 
3695.260010 884.984375 6.103653 3330 
125.142120 981.546875 6.912857 3331 
244.065384 1328.415894 5.951733 3332 
141.693298 1484.141846 5.994187 3333 
213.989456 660.418213 3.830846 3334 
149.478714 695.167969 5.281039 3335 
174.886337 888.706238 3.842311 3336 
3688.079346 1079.546265 4.529125 3337 
3731.565918 1488.929688 3.974958 3338 
3613.968018 936.442444 6.212825 3339 
3557.993896 1008.662476 4.019087 3340 
3589.316895 1105.122925 4.452829 3341 
3710.133545 1496.687012 4.414833 3342 
3799.895264 1563.023926 8.882278 3343 
190.289886 789.666199 8.481977 3344 
227.884048 760.115784 4.916669 3345 
3581.365723 1081.568726 4.379468 3346 
3646.406250 1176.478638 4.734993 3347 
202.915100 633.472168 6.477365 3348 
3351.627686 233.368301 3.876314 3349 
3437.739014 618.438293 3.999785 3350 
3789.336914 1614.549683 8.093837 3351 
267.829254 1199.333496 8.063883 3352 
3722.606934 1386.893555 7.210803 3353 
3640.516113 1116.420410 10.097898 3354 
131.134750 1615.010620 12.055051 3355 
206.904343 814.893555 4.565042 3356 
42.487419 1005.358582 3.640751 3357 
136.580856 1518.535278 5.462466 3358 
3607.115234 955.749939 6.001304 3359 
3368.002441 279.783356 4.205831 3360 
323.438293 312.748840 3.869003 3361 
337.838531 769.726257 5.683207 3362 
3564.790039 870.050659 6.429915 3363 
72.178894 1116.255859 4.560871 3364 
3759.256348 1654.520020 5.000478 3365 
