ply
format ascii 1.0
element vertex 576
property float x
property float y
property float size
property short id
end_header
2857.246826 106.338531 3.970885 0 
2755.140869 2425.502441 4.444330 1 
2566.250977 2488.875732 4.090891 2 
2423.845459 2522.946045 3.695555 3 
2690.987305 2542.276367 4.706403 4 
2435.092041 2540.647949 5.112437 5 
2813.403809 105.057007 3.902784 6 
2384.926025 2521.319336 3.638642 7 
2883.388184 1639.923950 6.154677 8 
2882.396729 2379.804688 5.424178 9 
532.313904 723.466309 6.789420 10 
2827.386719 472.475525 11.340300 11 
2400.411133 2512.082275 4.810322 12 
2824.497559 122.719345 4.146571 13 
2698.413818 2405.794922 3.852151 14 
2866.004639 1991.471191 11.490503 15 
2640.193848 1425.506592 10.266614 16 
2584.956055 1039.390991 8.418549 17 
2724.062744 83.175842 6.581046 18 
2450.405762 1110.950317 6.379792 19 
1771.865234 1299.779175 13.934345 20 
2814.167236 1987.828613 12.347511 21 
2615.634277 167.701477 14.770639 23 
2786.483154 506.320679 12.248699 24 
2785.616699 584.860046 17.413439 25 
2447.281006 142.562103 12.550457 26 
2439.644043 1263.921143 12.649328 27 
1460.701660 2266.044434 20.553736 28 
2492.523682 1200.090576 10.784191 29 
2818.922363 1776.731812 14.090202 30 
1459.685547 2156.447021 25.641571 32 
1529.056030 2330.229736 24.427999 33 
1431.502808 229.840958 20.396967 34 
1354.844849 2284.127441 26.675591 35 
2789.817627 124.240738 3.487193 36 
2738.225098 52.800335 3.795331 37 
2565.828369 42.502251 4.155249 38 
2897.560791 2424.245605 6.968873 39 
2916.653564 162.409073 4.193345 40 
2777.352295 124.005692 3.722734 41 
2561.035156 2500.595947 3.866849 42 
2736.907227 2425.632568 4.458101 43 
2682.655029 2463.755859 3.619388 44 
2654.994141 2471.240234 3.706261 45 
2768.694580 1961.935059 5.187771 46 
2735.254395 520.795898 5.512095 47 
2353.292969 948.245117 7.298469 48 
2712.663574 2409.033203 4.863245 49 
2682.594971 2414.665039 4.393376 50 
2570.788330 64.915627 4.355359 51 
2551.437744 50.975933 4.523301 52 
2910.545654 2440.142334 5.191215 53 
2902.910645 1313.665649 4.574762 54 
2763.723389 2398.884766 5.314090 55 
2817.692139 2352.924805 5.755465 56 
2813.133545 2040.068115 5.917183 57 
1551.500488 2280.306885 8.753651 58 
2811.234375 2395.019043 7.591219 60 
2644.248291 2449.137939 6.464764 61 
2792.243164 1690.666260 9.210935 62 
1489.294922 2361.436279 9.291745 63 
2484.490479 2514.249756 6.495208 64 
1808.416992 1406.217896 16.475096 65 
1403.650757 118.945930 10.100634 66 
1406.420410 2277.326904 18.397686 67 
1496.074097 2299.879395 16.434557 68 
2717.448975 2006.456421 19.635765 69 
2791.709473 1953.261597 17.185719 70 
2408.495117 545.878845 16.512686 71 
2214.217041 381.606018 41.314156 72 
2216.061035 626.462585 40.912914 73 
2558.276611 458.259949 33.826576 74 
1409.072021 2226.996826 28.653503 75 
2576.535889 1133.127563 33.477898 76 
2597.729248 1816.989014 33.780174 77 
523.146484 453.885498 5.036539 78 
2735.895996 64.570045 4.216954 79 
2859.303955 2012.376953 5.138014 80 
2720.483398 55.517361 4.912980 81 
2449.658936 1450.377319 14.168054 91 
2795.439941 2026.545654 15.932678 121 
1979.770142 1879.106079 3.973201 173 
2485.813721 63.724136 3.775813 179 
1813.471191 2378.150391 5.762465 261 
2596.076904 1354.716675 7.468898 262 
1853.035767 522.091187 9.707280 286 
533.888733 949.420532 5.722609 287 
550.678223 646.424377 4.645622 288 
792.619202 742.184509 4.999412 289 
465.937073 934.416077 4.616199 290 
344.650604 812.688721 4.204251 291 
462.728882 1194.006104 5.103845 292 
559.875488 1440.885376 5.079805 293 
463.444946 1525.517090 8.119017 294 
539.396362 1235.816162 8.130584 295 
927.725281 2168.999268 12.470885 296 
1470.305298 719.190918 9.701049 297 
441.620728 776.447937 7.384526 298 
2747.969482 1161.176392 10.307563 299 
452.207031 1149.324097 5.513433 300 
386.218536 891.173401 6.019156 301 
526.181091 1081.355103 5.676780 302 
573.444641 769.181580 6.486282 303 
565.534790 597.181030 5.330999 304 
472.975586 786.999512 5.340726 305 
418.017517 940.148743 7.550232 306 
468.321960 814.665100 4.941656 307 
393.787079 795.190796 5.670321 308 
3809.155273 1678.120605 4.081575 309 
774.077087 583.926636 4.034817 310 
2563.235596 2241.669434 5.809409 311 
467.442230 1213.292725 7.715992 312 
2769.305908 1281.396973 7.725043 313 
458.313232 979.535095 7.200269 314 
3511.471680 2165.075684 4.368183 315 
309.617950 296.488434 6.170403 316 
325.555542 680.998962 6.218840 317 
225.462494 225.438599 11.015289 318 
325.559845 328.796814 8.069264 319 
404.706512 391.320740 9.418867 320 
179.132950 457.677307 7.650506 321 
158.696228 304.439117 4.200056 322 
464.833618 496.433289 4.969628 323 
357.573273 531.533020 5.722628 324 
197.759735 308.284943 6.270012 325 
394.204865 437.621277 6.600025 326 
539.948120 359.398987 5.192960 327 
797.313049 355.664185 4.860404 328 
485.919861 720.255005 12.615952 329 
162.955948 115.904160 7.909722 330 
237.920181 313.335571 8.059482 331 
712.786438 1002.502502 9.877163 332 
486.547882 438.895233 13.117460 333 
211.359177 121.779922 6.943633 334 
377.934479 252.631668 7.443235 335 
270.909332 361.635193 8.960572 336 
290.964539 425.166168 8.229716 337 
362.599213 556.602356 8.388622 338 
444.714508 858.205811 7.315958 339 
787.782410 2083.166016 12.475349 340 
472.784790 362.211487 26.160992 341 
248.434479 300.957733 16.975155 342 
196.844193 166.965622 15.750654 343 
312.959198 412.455414 16.330854 344 
816.489990 2362.862793 4.859832 345 
199.993835 91.957016 6.272180 346 
362.671082 98.068039 4.424562 347 
534.033447 99.361671 4.707634 348 
406.321381 355.242401 5.430418 349 
552.310669 480.192383 4.674239 350 
557.601257 104.196754 4.441589 351 
251.604553 205.572235 5.248856 352 
97.000938 399.189178 5.500212 353 
358.640747 422.532776 6.091972 354 
795.291260 677.898987 5.994309 355 
395.496918 836.938538 5.904293 356 
48.995335 183.342621 4.810281 357 
388.854492 408.414551 5.015101 358 
573.737122 460.863892 6.372165 359 
363.322388 169.442368 5.237708 360 
432.900391 171.045929 5.024652 361 
570.837769 489.947266 5.353243 362 
120.872726 65.456787 5.798803 363 
230.062729 258.932373 6.721416 364 
261.562714 319.792847 6.568585 365 
358.325165 354.644592 6.713634 366 
220.056396 344.586029 7.941768 367 
187.498444 411.468689 7.521093 368 
1847.573242 1084.069458 9.724318 369 
281.538849 205.227997 9.734525 370 
326.893829 283.353271 9.557173 371 
870.549988 728.816101 7.219317 372 
773.465027 1172.416748 10.833006 373 
150.487274 245.477753 12.618893 374 
402.511658 713.204895 13.637122 375 
319.363800 384.891815 12.917798 376 
815.992004 636.176941 14.582371 377 
371.987488 208.037552 9.480126 378 
186.081650 340.454865 8.791619 379 
879.927673 599.109009 9.045272 380 
316.302795 500.983795 13.292577 381 
437.304138 511.328552 8.304451 382 
354.530548 704.039856 8.510596 383 
239.714905 53.126122 5.465155 384 
574.298584 370.952301 5.767269 385 
285.942017 465.433228 6.042356 386 
311.807007 466.726257 5.858812 387 
285.182404 635.103149 4.582023 388 
439.590240 888.546570 6.324563 389 
206.982544 546.426575 6.102764 390 
364.608795 435.455627 4.765517 391 
3148.012207 534.889587 5.294650 392 
809.870850 2028.532959 5.532732 393 
549.316895 167.671631 5.887755 394 
63.525497 331.700470 5.583593 395 
93.544411 360.489685 6.294934 396 
313.303070 521.120850 5.601977 397 
784.957458 1189.748901 5.616609 398 
812.777954 1849.025757 5.929290 399 
324.527710 105.631180 7.284091 400 
468.242981 276.602936 7.469789 401 
346.316895 397.979950 8.741243 402 
407.887909 460.161987 8.260627 403 
440.349243 800.950745 10.237193 404 
372.456696 307.127441 5.622227 405 
2346.606445 369.683594 5.009483 406 
426.381042 496.002197 5.415948 407 
464.294037 918.795105 6.222610 408 
782.350891 391.215637 4.708969 409 
547.905762 419.846710 4.624258 410 
109.731972 116.054001 7.205074 411 
167.909241 318.162231 9.593556 412 
346.178528 442.474396 10.533959 413 
300.625061 623.627930 8.705235 414 
451.758759 626.774475 7.927214 415 
417.878876 131.743698 12.412309 416 
203.490082 429.096069 8.218503 417 
527.315002 375.215515 24.347601 418 
189.254059 208.261566 15.518538 419 
432.241364 338.475494 14.936110 420 
184.140533 380.379944 15.808464 421 
1155.375366 625.696350 63.671368 422 
1299.914673 946.035889 89.369743 423 
75.405701 95.079704 5.944321 424 
245.555283 189.413544 6.921571 425 
430.171082 736.742371 5.363073 426 
781.300049 1151.764404 4.776639 427 
545.203857 105.736053 4.618943 428 
174.764755 358.234283 5.817024 429 
411.228271 518.915833 6.348059 430 
538.001221 741.468201 6.874897 431 
799.350159 1003.469788 5.632512 432 
432.877747 59.188599 5.539858 433 
415.057465 151.621994 5.294529 434 
812.915039 1393.047241 4.514005 435 
426.560486 206.647232 5.961565 436 
61.008022 364.779449 6.197532 437 
382.503845 846.903870 5.801958 438 
471.579651 362.523041 4.671731 439 
799.998779 714.907715 5.001799 440 
348.121613 288.856720 6.013258 441 
79.489471 406.968323 7.840426 442 
277.525208 407.846008 7.968480 443 
342.457855 684.383179 7.252433 444 
367.620819 764.361694 8.290509 445 
1410.972656 1780.116333 9.738064 446 
136.412628 174.059143 13.165371 447 
104.369202 82.033821 7.799726 448 
300.773132 139.009552 9.185651 449 
402.216858 416.648560 8.803718 450 
286.697235 485.673553 7.442464 451 
341.411957 544.364136 8.523179 452 
148.458786 610.784485 7.115285 453 
352.239502 154.662674 7.381786 454 
384.936707 373.266937 7.787480 455 
1364.397217 2231.602051 9.502479 456 
93.485329 263.671112 10.058146 457 
456.205475 659.233337 7.914780 458 
370.591309 724.239197 7.610445 459 
421.195221 755.373901 13.919521 460 
188.867599 128.513657 9.573863 461 
300.412079 192.508850 7.615252 462 
448.741821 384.700104 7.527489 463 
447.625916 837.157227 7.369570 464 
225.879028 150.401428 6.907903 465 
390.006439 689.780945 6.541727 466 
797.143555 1767.691650 6.917728 467 
2546.708008 1333.825928 4.808447 468 
818.576599 2231.299316 5.340187 469 
546.669800 89.597328 6.744230 470 
801.801819 443.467346 5.839198 471 
807.135437 664.895203 6.376151 472 
3098.777100 1736.594238 4.847007 473 
3141.395020 176.824829 10.490428 474 
1237.204102 971.168030 18.244284 475 
476.281830 2066.410400 44.023499 476 
3093.498779 1415.689697 4.363833 477 
3093.522461 1395.079834 4.249296 478 
1106.733521 702.135925 9.308965 479 
1211.441284 724.479248 9.461339 480 
3095.118652 1526.712524 4.507893 481 
3105.944824 1725.379272 4.010067 482 
792.228882 2013.520142 3.962883 483 
2789.738770 1917.700684 6.485691 484 
1205.434082 1495.203003 11.799360 485 
2234.627686 2119.064697 9.564496 486 
3106.336182 1346.201050 3.727071 487 
3339.415771 132.669067 3.738140 488 
559.719421 114.975967 10.349858 489 
2281.245850 727.342957 12.454693 490 
1442.076782 1094.390991 21.854538 491 
2144.507812 1876.881470 17.891001 492 
2192.224121 2388.140625 5.052417 493 
2339.905762 2245.699707 6.747282 494 
867.555237 507.546783 5.189612 495 
2646.444092 1080.233032 5.050207 496 
2463.961182 2184.102295 10.220183 497 
1812.830078 1657.687012 48.878769 498 
1458.395996 1828.181519 61.481400 499 
1285.583496 1233.232544 92.043068 500 
262.777832 846.823181 6.965857 501 
2137.685547 279.367706 10.111922 502 
2986.684570 2358.618164 5.403715 503 
2914.421143 1313.664062 4.154415 504 
1141.387573 1342.666016 3.664748 505 
2942.838867 2013.653931 7.847044 506 
2328.134033 1055.345337 6.854698 507 
1884.956909 773.688843 8.694655 508 
2201.475342 1662.651001 8.351023 509 
1829.811157 1735.843872 15.304145 510 
2832.140381 1948.624390 15.912625 511 
122.976105 1041.991821 7.672138 512 
2159.676270 117.731735 4.551863 513 
3604.366211 1447.057739 23.979414 514 
2822.260254 1651.226440 15.459699 515 
2680.536621 666.396545 4.036573 516 
2700.757568 2447.574463 6.736258 517 
2769.389160 193.037857 6.346727 518 
2867.046387 1965.103027 12.614005 519 
2008.265259 579.495911 10.136986 520 
1904.641357 1752.170898 7.775422 521 
2230.910156 1370.159424 40.644447 522 
818.216248 2504.816895 5.585008 523 
544.941040 1995.929443 4.853022 524 
2609.141357 1558.236450 5.949598 525 
453.000427 592.485657 9.953161 526 
2610.788818 1625.302002 8.768613 527 
1094.829224 1881.440552 26.026199 528 
2735.092529 320.714752 5.943626 529 
440.743378 2044.220215 5.454593 530 
2355.333496 2255.624023 7.499887 531 
568.685425 2245.102783 8.729190 532 
1255.191772 1769.944214 13.638057 533 
231.187881 432.344940 5.951575 534 
765.947205 569.433044 6.994776 535 
1452.193359 937.941833 22.453302 536 
2320.366699 881.242737 16.102289 537 
2261.645752 1022.309937 19.757456 538 
2122.500244 539.838196 5.886470 539 
1128.322510 548.767578 6.186684 540 
3096.573730 219.375427 5.475297 541 
1949.074341 2087.626465 7.430013 542 
1694.321045 1459.472046 8.794844 543 
2632.192871 1276.889282 13.571032 544 
1018.731567 1382.096924 16.954529 545 
1565.318481 1099.484985 52.487072 546 
2693.155029 1178.351807 6.058384 547 
2703.263184 1611.651855 5.163706 548 
2509.204590 1292.865479 6.855647 549 
1025.953979 686.878662 21.535858 550 
2674.395020 494.673462 3.917750 551 
2076.327637 1114.809204 5.242579 552 
2677.342285 1733.866699 6.239753 553 
2023.448853 2381.145996 10.444877 554 
2570.691895 1596.062256 8.285463 555 
3219.685547 323.450348 7.974018 556 
3221.504639 504.803162 5.666886 558 
2739.677734 96.360207 8.128901 559 
3210.665771 409.671692 7.217317 560 
670.278625 883.312195 3.730115 561 
2094.463379 68.070618 5.352519 562 
1909.668091 900.122070 3.734731 563 
3251.804443 656.565796 13.324350 564 
1882.452393 2201.346191 7.643258 565 
806.572754 1825.050659 5.242224 566 
799.143616 1230.938965 7.015110 567 
1601.456665 1375.003540 13.422703 568 
1921.598145 984.969788 56.450657 569 
3026.616699 651.866028 5.802202 570 
3198.113525 2277.233887 5.366695 571 
805.413696 2248.005859 4.939766 572 
2062.806641 1638.752686 6.815878 573 
1809.994995 2426.074951 3.695742 574 
3153.207031 294.439941 3.390103 575 
1703.140381 1939.295044 20.178940 576 
3359.461670 1834.638428 9.169036 577 
1780.892456 2180.146484 8.066786 578 
2912.066406 151.344009 6.056362 579 
595.035522 738.711243 6.595338 580 
332.948090 1063.695435 6.028083 581 
477.841553 1535.193359 6.401348 582 
2207.219727 1556.833130 9.386499 583 
1789.832886 2312.635742 6.168676 584 
1252.009766 2073.431152 14.142748 585 
3073.284180 493.496124 9.385160 586 
2146.764893 2375.182129 17.348780 587 
1686.048096 825.828918 20.180416 588 
2034.380615 1061.446533 18.149286 589 
2896.470215 2452.148682 6.135482 590 
2376.431885 1096.596802 5.188516 591 
2221.197998 873.104370 40.905579 592 
1797.859253 564.399963 48.642704 593 
2300.719971 574.308838 6.373862 594 
777.555542 462.825714 4.063553 595 
1370.561768 2335.928467 10.214349 596 
2894.365234 2409.584961 6.312931 597 
832.232666 2230.681396 4.535189 598 
2454.133789 2298.689209 7.006516 599 
1672.871460 1193.286377 9.677881 600 
2707.870361 1325.637817 7.870288 601 
592.261169 1648.162598 5.243735 602 
539.893738 1515.295410 6.168370 603 
1733.864624 283.493591 3.835726 604 
3816.455078 138.537949 4.299898 605 
828.109680 1656.719849 10.241134 606 
579.384399 1809.252319 6.344421 607 
3090.971191 1300.603271 4.494707 608 
544.889526 1814.582153 4.083766 609 
1856.776489 858.970642 6.114032 610 
561.987976 1847.002808 6.720226 611 
481.220398 1375.687256 5.829643 612 
516.705627 1253.208984 11.094470 613 
607.282593 1552.201782 4.862250 614 
549.883240 1688.990234 5.763079 615 
571.185242 1828.488159 6.049540 616 
3230.881836 1221.503418 4.170901 617 
563.196411 1861.910278 5.496221 618 
405.304016 1783.607422 7.065408 619 
442.959808 1900.715210 4.612442 620 
404.259827 1850.853638 6.197856 621 
375.616943 1944.554443 6.107580 622 
379.434204 1975.544434 6.989190 623 
820.130127 2523.293701 5.154634 624 
443.754730 1782.507446 6.606722 625 
357.320831 1984.062256 6.344860 626 
195.133881 2396.926514 6.677069 627 
3442.234863 803.749573 4.761604 628 
792.811646 867.915039 4.642428 629 
298.695709 2148.604248 7.501975 630 
346.572632 2148.366699 10.678377 631 
566.011902 2278.684814 9.191864 632 
249.993454 2344.616943 7.798839 633 
500.211487 1812.360962 13.420210 634 
3062.393799 242.688782 6.914140 635 
404.458649 1885.207520 7.451117 636 
356.539642 2193.086670 7.771971 637 
323.183044 2450.064453 7.486516 638 
191.064148 2009.057739 8.527323 639 
391.822693 2074.619385 7.721767 640 
439.265594 2139.673584 9.845462 641 
411.343262 1955.174805 13.401636 642 
1003.631592 846.182312 26.858597 643 
1027.459961 1250.936279 36.441689 644 
564.727234 1554.700684 5.238291 645 
805.147583 2042.954956 5.093565 646 
326.687775 1982.416138 5.862166 647 
377.092865 2170.992676 6.265279 648 
398.433289 2204.372559 7.060731 649 
575.363831 1658.380737 4.089147 650 
308.078491 1753.837646 4.645049 651 
282.629669 2031.769165 5.587487 652 
1320.198486 358.252533 6.437731 653 
332.908020 2150.633789 5.362095 654 
323.309204 2405.470947 7.038161 655 
465.855927 2495.724121 6.386647 656 
223.378494 2344.667480 4.708934 657 
475.495239 2257.272461 6.168952 658 
488.807312 2287.796631 6.417622 659 
371.428833 1667.315308 4.173855 660 
304.898926 1952.815186 4.352714 661 
179.140335 2080.652588 5.150608 662 
361.183014 2403.844238 8.600426 663 
335.422363 1903.123291 7.709663 664 
467.363678 2223.288574 9.417032 665 
328.471680 2358.393555 9.840715 666 
351.562134 1777.387207 13.392766 667 
335.509552 1932.205811 9.349447 668 
441.935516 1930.836060 8.070992 669 
153.708282 1994.106201 7.887746 670 
380.778839 2125.981689 9.205096 671 
204.760345 2316.562500 8.796050 672 
326.281708 2316.562256 8.094519 673 
3654.859131 300.920319 7.356752 674 
566.946594 1328.588379 8.172679 675 
331.200134 1851.210327 7.505944 676 
200.633331 2051.324707 7.218089 677 
337.086823 2118.174805 9.301888 678 
456.430298 2176.325928 9.855879 679 
592.253540 2435.579102 8.805190 680 
291.647400 2303.159424 9.069233 681 
150.442383 2422.734375 7.852527 682 
561.366577 1745.821045 8.023306 683 
455.638428 1331.802368 7.216574 684 
459.041229 1972.495117 5.821709 685 
316.355103 1834.448975 6.712101 686 
315.053070 1963.039551 6.718175 687 
371.180389 1959.999512 5.718103 688 
373.178589 1994.246826 6.582364 689 
3459.511963 108.735817 8.392610 690 
3410.229980 401.180389 5.185392 691 
3110.861816 1138.204224 5.288068 692 
784.257385 1376.418945 5.075612 693 
358.955994 2173.838867 5.568932 694 
142.986267 2366.042480 4.273822 695 
3084.733398 276.962158 5.708759 696 
314.282471 2081.664062 6.925600 697 
438.115814 1871.646729 7.912141 698 
479.392548 1877.653687 7.558744 699 
448.164886 1953.458984 8.823752 700 
455.152832 2285.604004 7.314398 701 
90.035591 2348.255127 9.810237 702 
471.817230 2142.559082 12.809932 703 
443.580933 1563.871216 8.763481 704 
281.322266 2130.268066 7.543828 705 
405.246185 1921.644409 13.441402 706 
387.347168 1766.427490 9.750023 707 
316.266449 1893.261475 7.469663 708 
275.778503 2075.961914 7.967393 709 
376.977844 2199.273926 7.749069 710 
306.986084 2325.918945 10.373525 711 
435.124573 1763.283447 11.571970 712 
465.714630 1995.796509 14.280712 713 
406.973816 2103.197021 15.360035 714 
784.659729 1553.384277 4.898628 715 
371.427521 2266.318848 4.801942 716 
397.985199 2296.574219 4.774672 717 
546.352295 1500.001587 6.241230 718 
373.440186 2045.810303 5.516431 719 
92.550171 2392.701660 5.873624 720 
3227.263428 1244.763428 5.636292 721 
453.454895 1905.321655 4.810438 722 
358.525757 1938.104370 5.357806 723 
792.959595 1864.381836 5.468253 724 
439.293579 1987.851807 6.479546 725 
831.453979 2442.217773 4.346888 726 
193.002686 2032.073364 6.628417 727 
308.843384 2351.788330 6.518176 728 
3072.246094 906.746643 4.568888 729 
568.946594 1537.301636 5.299986 730 
794.791321 1793.044800 3.861923 731 
385.646057 1827.104126 5.296269 732 
376.133575 2421.763916 10.477645 733 
445.024872 1683.994385 10.794368 734 
384.620544 1865.588379 10.071372 735 
181.607986 2061.259766 7.371795 736 
308.909790 2377.748047 7.203257 737 
346.438324 2374.333984 7.612462 738 
2393.031250 435.279968 8.412202 739 
409.658844 1988.106689 9.927791 740 
275.273682 2362.169434 8.132048 741 
180.470627 2432.322510 9.311427 742 
430.064545 1725.044800 13.320705 743 
573.034424 1975.259277 8.876609 744 
565.488098 2304.818604 7.649665 745 
1143.064209 1261.391357 14.115598 746 
475.393799 1540.329224 7.489655 747 
404.831207 1867.999512 5.777066 748 
423.634766 2125.438232 6.593363 749 
348.855347 2316.336182 6.685270 750 
191.300400 2379.863525 6.236486 751 
817.649048 1431.447021 4.462909 752 
789.564026 2039.270630 3.688054 753 
576.239441 2132.477295 5.652631 754 
2859.486816 121.844055 6.824448 755 
3669.750000 314.702423 6.007112 756 
141.328751 1818.328857 6.124677 757 
280.693756 2323.958252 6.369074 758 
613.510681 2450.379639 6.047261 759 
2599.910645 1024.201172 22.923059 760 
798.072754 386.624298 4.719822 761 
3016.546875 481.446198 6.884048 762 
815.408630 1172.740234 3.958316 763 
813.455811 1043.027344 4.428675 764 
2312.770752 1969.681030 15.339463 765 
819.074829 1647.703003 4.146270 766 
814.424011 491.389771 3.861126 767 
816.659180 1066.091675 3.960440 768 
3245.423584 1984.540649 7.321312 769 
2990.884033 701.680969 11.852347 770 
2336.263916 2325.860107 16.211445 771 
2081.035889 1368.162598 6.237331 772 
2717.607178 2021.380615 4.461694 773 
2780.499512 1610.955200 6.806311 774 
3655.553955 1704.270752 6.704457 775 
2964.311768 563.161438 5.446221 776 
2413.038818 2514.837402 4.659717 777 
