ply
format ascii 1.0
element vertex 283
property double x
property double y
property double size
property short id
end_header
4.19277343750000e+02 1.22777374267578e+02 5.29604148864746e+00 0 
3.30470483398438e+03 2.51062622070312e+02 5.49158143997192e+00 1 
3.41056762695312e+03 4.72024719238281e+02 5.03883218765259e+00 2 
3.47082495117188e+03 6.35475891113281e+02 4.65458965301514e+00 3 
3.44933715820312e+03 3.35723419189453e+02 4.34009408950806e+00 4 
3.49014404296875e+03 6.24990844726562e+02 6.28089046478271e+00 5 
4.12138366699219e+02 1.74272476196289e+02 4.41658830642700e+00 6 
3.47694262695312e+03 6.89432373046875e+02 4.49914455413818e+00 7 
2.33534570312500e+03 1.05024009704590e+02 5.95633602142334e+00 8 
3.23660351562500e+03 1.06641525268555e+02 7.08751201629639e+00 9 
3.25600512695312e+03 2.29947082519531e+02 6.21374368667603e+00 10 
9.59198730468750e+02 2.62564453125000e+02 1.40014629364014e+01 11 
3.46069531250000e+03 6.67895324707031e+02 5.83836078643799e+00 12 
4.36061126708984e+02 1.60762985229492e+02 4.87162303924561e+00 13 
3.28916430664062e+03 3.16213134765625e+02 3.69703197479248e+00 14 
2.76451953125000e+03 1.26518341064453e+02 1.28239507675171e+01 15 
2.06664624023438e+03 3.79918945312500e+02 1.30340232849121e+01 16 
1.58571997070312e+03 4.44609222412109e+02 1.28765439987183e+01 17 
3.73357543945312e+02 2.79242218017578e+02 9.08941650390625e+00 18 
1.67833544921875e+03 6.10441284179688e+02 8.41740226745605e+00 19 
4.28835296630859e+02 1.64032873535156e+03 1.37626457214355e+01 20 
2.76203442382812e+03 1.85659622192383e+02 1.43607683181763e+01 21 
4.74989715576172e+02 4.10093872070312e+02 1.87676982879639e+01 23 
9.20389709472656e+02 2.11897933959961e+02 1.44257698059082e+01 24 
1.01810021972656e+03 2.12868484497070e+02 2.12062759399414e+01 25 
4.31141418457031e+02 6.13849182128906e+02 1.64474010467529e+01 26 
1.86761914062500e+03 6.19073730468750e+02 1.57122011184692e+01 27 
3.26349877929688e+03 1.89257885742188e+03 2.85941200256348e+01 28 
1.80211181640625e+03 5.60700866699219e+02 1.58330974578857e+01 29 
2.50282617187500e+03 1.76500457763672e+02 1.70420265197754e+01 30 
2.86024194335938e+03 1.87426895141602e+02 1.88247356414795e+01 31 
3.11289868164062e+03 1.89012402343750e+03 3.67944335937500e+01 32 
3.33920019531250e+03 1.79488366699219e+03 3.27403602600098e+01 33 
4.40504577636719e+02 1.95385852050781e+03 2.87459182739258e+01 34 
3.30059619140625e+03 2.03935559082031e+03 3.70777206420898e+01 35 
4.34615417480469e+02 2.01166015625000e+02 5.02400684356689e+00 36 
3.36941894531250e+02 2.64218933105469e+02 4.80931186676025e+00 37 
3.05698272705078e+02 4.67793914794922e+02 6.06356191635132e+00 38 
3.28874658203125e+03 9.49651260375977e+01 5.12170648574829e+00 39 
4.95023406982422e+02 5.62632637023926e+01 5.24689102172852e+00 40 
4.33474639892578e+02 2.16763488769531e+02 5.06055879592896e+00 41 
3.42332910156250e+03 4.72765289306641e+02 4.30328559875488e+00 42 
3.30982202148438e+03 2.72282928466797e+02 5.36986160278320e+00 43 
3.36405908203125e+03 3.35399932861328e+02 4.64147090911865e+00 44 
3.37612817382812e+03 3.67711242675781e+02 4.31657695770264e+00 45 
2.73453466796875e+03 2.37111022949219e+02 5.96258068084717e+00 46 
9.35469665527344e+02 2.70641784667969e+02 6.21699333190918e+00 47 
1.43391491699219e+03 7.16530517578125e+02 7.22410583496094e+00 48 
3.29278491210938e+03 3.01260345458984e+02 5.29376792907715e+00 49 
3.30213354492188e+03 3.35263580322266e+02 4.58363199234009e+00 50 
3.35452087402344e+02 4.55930725097656e+02 5.69594192504883e+00 51 
3.15228698730469e+02 4.85155181884766e+02 5.41652584075928e+00 52 
3.29394018554688e+03 8.52738723754883e+01 3.67387962341309e+00 53 
1.92232873535156e+03 8.25596313476562e+01 6.14484691619873e+00 54 
3.27126220703125e+03 2.39561798095703e+02 5.80856657028198e+00 55 
3.21312231445312e+03 1.80299438476562e+02 8.76557540893555e+00 56 
2.82757812500000e+03 1.87659652709961e+02 6.50830793380737e+00 57 
3.26801782226562e+03 1.76585998535156e+03 1.19490470886230e+01 58 
3.14319384765625e+03 1.96282873535156e+03 1.24272794723511e+01 59 
3.26326416015625e+03 1.87696609497070e+02 8.86255264282227e+00 60 
3.35024853515625e+03 3.78549438476562e+02 7.83651161193848e+00 61 
2.39971240234375e+03 2.07955642700195e+02 1.08597965240479e+01 62 
3.38510205078125e+03 1.84786254882812e+03 1.20717630386353e+01 63 
3.45094140625000e+03 5.67903442382812e+02 8.91075611114502e+00 64 
2.07144189453125e+03 1.42122937011719e+03 2.05587234497070e+01 65 
2.76703674316406e+02 1.99289929199219e+03 1.59306287765503e+01 66 
3.28713110351562e+03 1.96687121582031e+03 2.52901802062988e+01 67 
3.30201220703125e+03 1.84004760742188e+03 2.20859508514404e+01 68 
2.72089843750000e+03 2.12516311645508e+02 2.06420879364014e+01 70 
1.85256787109375e+03 1.12653356933594e+03 2.46853828430176e+01 71 
7.18096313476562e+02 9.03675903320312e+02 5.33394851684570e+01 72 
1.03787524414062e+03 8.98853271484375e+02 5.15309448242188e+01 73 
8.40106994628906e+02 4.77450622558594e+02 4.10572547912598e+01 74 
3.21311621093750e+03 1.96432360839844e+03 3.90944747924805e+01 75 
1.69905395507812e+03 4.56174560546875e+02 3.99045028686523e+01 76 
2.57748779296875e+03 4.29566986083984e+02 4.10817184448242e+01 77 
3.08240332031250e+03 6.94973022460938e+02 7.56220626831055e+01 78 
3.53171905517578e+02 2.66912780761719e+02 5.05092000961304e+00 79 
2.78858666992188e+03 1.34722671508789e+02 6.08314609527588e+00 80 
3.40632049560547e+02 2.81470764160156e+02 5.70867919921875e+00 81 
2.26621704101562e+03 5.50486793518066e+01 5.92761182785034e+00 82 
1.46717504882812e+03 1.47107208251953e+02 6.42870569229126e+00 83 
1.99469677734375e+03 7.12403869628906e+02 3.68251276016235e+00 84 
1.53843383789062e+03 1.59007156372070e+02 1.14999198913574e+01 85 
3.46304199218750e+03 1.45801733398438e+03 1.10912675857544e+01 86 
1.67692675781250e+03 6.05750770568848e+01 4.60522508621216e+00 87 
3.68040454101562e+03 1.27198168945312e+03 7.81975412368774e+00 88 
3.42323046875000e+03 4.34526519775391e+02 1.20692939758301e+01 89 
2.02448962402344e+03 2.35733139038086e+02 8.09444141387939e+00 90 
1.46301525878906e+03 1.06675915527344e+03 1.75363559722900e+01 91 
2.33334985351562e+03 8.73832275390625e+02 5.13075294494629e+01 92 
3.62721142578125e+03 1.18649528503418e+02 6.65789318084717e+00 93 
1.09294723510742e+02 9.61781860351562e+02 5.06336784362793e+00 94 
1.40283386230469e+02 1.14853247070312e+03 7.14608526229858e+00 95 
2.70837646484375e+03 1.54803125000000e+03 5.38138437271118e+00 96 
3.53974462890625e+03 3.01440917968750e+02 7.85393667221069e+00 97 
3.63845117187500e+03 5.64545349121094e+02 8.13107490539551e+00 98 
3.51525634765625e+03 1.92624435424805e+02 1.03303318023682e+01 99 
3.65659838867188e+03 1.20987207031250e+03 8.76854896545410e+00 100 
1.22616137695312e+03 2.23992187500000e+03 1.11005058288574e+01 101 
3.64454418945312e+03 1.05679150390625e+03 7.20137739181519e+00 102 
3.58642919921875e+03 3.37522308349609e+02 1.24328193664551e+01 103 
3.18523925781250e+03 1.89085131835938e+03 2.48626823425293e+01 104 
1.99879968261719e+03 6.50188171386719e+02 4.46910285949707e+01 105 
3.26613549804688e+03 6.15556579589844e+02 6.23394432067871e+01 106 
3.58486035156250e+03 3.47103485107422e+02 6.68302774429321e+00 107 
3.50250244140625e+03 3.72989044189453e+02 6.24068737030029e+00 108 
2.05027783203125e+03 1.90120147705078e+02 4.65012216567993e+00 109 
1.95054370117188e+03 1.27094738769531e+03 6.31673526763916e+00 110 
2.33636523437500e+03 1.55377355957031e+03 6.06067895889282e+00 111 
3.35426757812500e+03 4.86537872314453e+02 3.61089491844177e+00 112 
1.43496166992188e+03 2.35671850585938e+03 3.81979060173035e+00 113 
2.31674609375000e+03 1.89803344726562e+03 9.57770442962646e+00 114 
2.59294873046875e+03 6.56683837890625e+02 1.18219442367554e+01 115 
2.34768872070312e+03 9.92253723144531e+02 2.25293388366699e+01 116 
2.07929614257812e+03 4.46878845214844e+02 1.51459693908691e+01 117 
2.92124023437500e+03 1.13550854492188e+03 3.58468132019043e+01 118 
2.85737255859375e+03 2.19572525024414e+02 9.85179042816162e+00 119 
2.82049291992188e+03 2.31935089111328e+02 7.63168287277222e+00 120 
2.81587036132812e+03 2.04048095703125e+02 1.96353988647461e+01 121 
1.84979687500000e+03 1.13581457519531e+03 9.60394439697266e+01 122 
2.40284790039062e+03 1.41920959472656e+03 6.51509399414062e+01 123 
6.75196228027344e+02 1.67047317504883e+02 6.26959466934204e+00 124 
2.39789550781250e+03 9.62688476562500e+02 4.47772645950317e+00 125 
1.50861587524414e+02 5.46277954101562e+02 6.74385786056519e+00 126 
3.56890820312500e+03 1.05896643066406e+03 2.15860576629639e+01 127 
9.49590988159180e+01 6.94818054199219e+02 4.78299474716187e+00 128 
3.38976516723633e+01 2.39313858032227e+02 3.70737051963806e+00 129 
2.92763275146484e+02 3.38256652832031e+02 8.89145374298096e+00 130 
2.94561920166016e+02 1.75974227905273e+02 1.49836215972900e+01 131 
2.88281909179688e+03 1.18086784362793e+02 9.52841472625732e+00 132 
7.16351074218750e+02 5.73961303710938e+02 9.82569503784180e+00 133 
2.89265722656250e+03 1.46467382812500e+03 1.87948741912842e+01 134 
3.09076245117188e+03 1.53341186523438e+03 5.72503042221069e+00 135 
3.56235034179688e+03 7.53382690429688e+02 4.95426321029663e+00 136 
2.13813134765625e+03 2.28360961914062e+03 4.51090192794800e+00 137 
2.53285742187500e+03 2.00561547851562e+03 1.10143442153931e+01 138 
3.55690161132812e+03 2.00059692382812e+03 1.03492727279663e+01 139 
2.67669140625000e+03 2.13219543457031e+02 8.04824066162109e+00 140 
2.83094677734375e+03 4.47124114990234e+02 4.06530151367188e+01 141 
3.41682543945312e+03 6.90588623046875e+02 4.39682197570801e+00 142 
5.44681457519531e+02 4.20193359375000e+02 4.67297077178955e+00 143 
3.17494018554688e+03 8.07428405761719e+02 1.17321996688843e+01 144 
2.75833227539062e+03 2.42702758789062e+02 1.26659154891968e+01 145 
3.18473217773438e+03 1.41748693847656e+03 1.76622676849365e+01 146 
4.67797126770020e+01 9.08186340332031e+02 4.76051092147827e+00 147 
1.27754562377930e+02 9.10386474609375e+02 5.16435289382935e+00 148 
2.75179296875000e+03 1.53795440673828e+02 1.16141462326050e+01 149 
1.75826281738281e+03 2.09902783203125e+03 1.19597082138062e+01 150 
3.64801416015625e+03 1.22105310058594e+03 4.20964097976685e+00 151 
2.25848925781250e+03 1.40704101562500e+02 4.98551034927368e+00 152 
3.73377319335938e+03 1.13001171875000e+03 3.92187809944153e+00 153 
2.08555859375000e+03 5.14527343750000e+02 1.37417459487915e+01 154 
1.25717700195312e+03 2.25045971679688e+03 4.73847723007202e+00 155 
3.65307470703125e+03 1.18449829101562e+03 6.14651823043823e+00 156 
1.78802734375000e+03 7.66279907226562e+02 1.34851369857788e+01 157 
1.42298059082031e+03 1.53726623535156e+02 6.74988746643066e+00 158 
1.94608837890625e+03 2.62315307617188e+02 1.36645994186401e+01 159 
3.63723364257812e+03 1.22746179199219e+03 1.97794666290283e+01 160 
3.60776367187500e+03 1.10383032226562e+03 6.17648172378540e+00 161 
3.64836840820312e+03 1.16359265136719e+03 1.19650459289551e+01 162 
3.56536621093750e+03 9.85894897460938e+02 8.68721103668213e+00 163 
3.71313256835938e+03 1.32609008789062e+03 1.10261354446411e+01 164 
1.21966804504395e+02 1.71207104492188e+03 1.08738527297974e+01 165 
3.43773132324219e+02 9.38523071289062e+02 1.27148017883301e+01 166 
3.48140869140625e+03 7.69013244628906e+02 1.49727706909180e+01 167 
7.31387634277344e+01 1.16145202636719e+03 5.75510931015015e+00 168 
5.42837341308594e+02 4.93235565185547e+02 5.61512088775635e+00 169 
1.22847680664062e+03 1.42319311523438e+03 2.10136756896973e+01 170 
3.71630517578125e+03 1.60441577148438e+03 4.02060651779175e+00 171 
3.17818206787109e+02 2.05675842285156e+02 4.50498008728027e+00 172 
6.25465148925781e+02 2.69687622070312e+02 5.09070348739624e+00 173 
1.77112106323242e+02 5.27219787597656e+02 4.27064132690430e+00 174 
3.69803906250000e+03 9.46750671386719e+02 4.07303380966187e+00 175 
3.60160620117188e+03 7.22281372070312e+02 4.96131277084351e+00 176 
1.22636657714844e+03 3.53540954589844e+02 9.13295555114746e+00 177 
2.28912402343750e+03 1.16753112792969e+03 1.37875843048096e+01 178 
3.02116760253906e+02 6.31673278808594e+02 6.48709344863892e+00 179 
1.92847335815430e+02 9.02820495605469e+02 5.89080810546875e+00 180 
2.22731002807617e+02 8.33636840820312e+02 4.73286581039429e+00 181 
9.20051498413086e+01 1.13935644531250e+03 7.45320320129395e+00 183 
2.30691940307617e+02 9.62729919433594e+02 1.15375242233276e+01 184 
1.53094445800781e+03 9.42732849121094e+02 2.37997570037842e+01 185 
4.20896850585938e+02 2.95844085693359e+02 4.54573631286621e+00 186 
2.83791748046875e+02 6.21166442871094e+02 6.04342031478882e+00 187 
4.92997741699219e+02 1.46574981689453e+02 4.79279041290283e+00 188 
2.34513763427734e+02 7.75832031250000e+02 6.01140165328979e+00 189 
2.91162377929688e+03 3.98934722900391e+02 1.46196441650391e+01 190 
1.64113928222656e+03 2.06259277343750e+03 1.04915523529053e+01 191 
2.43127343750000e+03 6.26010253906250e+02 6.80667781829834e+00 192 
6.00245544433594e+02 7.69238891601562e+02 2.39540119171143e+01 193 
2.78507397460938e+03 6.77181091308594e+02 7.33297119140625e+01 194 
3.41817749023438e+02 6.38532897949219e+02 5.54525375366211e+00 195 
2.35966552734375e+02 8.01700378417969e+02 5.53644943237305e+00 196 
2.07127243041992e+02 1.23892749023438e+03 8.71788692474365e+00 197 
1.11865380859375e+03 1.99941574096680e+02 7.67305803298950e+00 198 
3.70316802978516e+02 3.93027526855469e+02 2.65420932769775e+01 199 
1.62150939941406e+03 1.12873376464844e+03 2.03234634399414e+01 200 
5.64676513671875e+02 1.80241470336914e+02 1.42857494354248e+01 201 
3.80300463867188e+03 9.08695556640625e+02 5.35119724273682e+00 202 
2.19838638305664e+02 8.14162780761719e+02 6.44637250900269e+00 203 
1.01547729492188e+03 1.76383407592773e+02 9.52487182617188e+00 204 
3.20688232421875e+03 2.07253198242188e+03 5.15909767150879e+00 205 
1.55827819824219e+02 4.73239227294922e+02 1.28970165252686e+01 206 
2.20106250000000e+03 1.49451904296875e+03 1.97420558929443e+01 207 
9.39248291015625e+02 1.44523718261719e+03 6.51919326782227e+01 208 
2.76576318359375e+03 1.40963830566406e+03 6.45554656982422e+01 209 
2.86968090820312e+03 6.42338928222656e+02 1.35697164535522e+01 210 
1.64046411132812e+03 1.59499420166016e+02 6.34136629104614e+00 211 
2.93571313476562e+03 8.30847351074219e+02 9.99389553070068e+00 212 
2.78642602539062e+03 2.28992602539062e+03 1.84197463989258e+01 213 
8.91356506347656e+02 1.59805554199219e+03 3.62016487121582e+00 214 
1.23411941528320e+02 6.15827636718750e+02 5.93341779708862e+00 215 
1.39059252929688e+03 9.22601684570312e+02 8.50855064392090e+00 216 
1.85284561157227e+02 1.03441455078125e+03 6.76368999481201e+00 217 
1.80342193603516e+02 8.69941040039062e+02 5.29336929321289e+00 218 
2.35374160766602e+02 3.89586059570312e+02 3.87619400024414e+00 219 
1.92354516601562e+03 5.22593505859375e+02 7.87206220626831e+00 220 
1.98830346679688e+03 4.86152587890625e+02 8.25064468383789e+00 221 
8.96584167480469e+02 2.39891259765625e+03 1.53207511901855e+01 222 
3.07781158447266e+02 6.21889648437500e+02 4.85946702957153e+00 223 
1.05525123596191e+02 6.68621093750000e+02 4.94869899749756e+00 224 
7.99351577758789e+01 1.17917016601562e+03 5.98110008239746e+00 225 
1.09563926696777e+02 1.10623840332031e+03 5.29219150543213e+00 226 
1.36945068359375e+02 1.01216363525391e+03 6.43922996520996e+00 227 
4.39864044189453e+02 2.74795349121094e+02 5.05549287796021e+00 228 
5.33591186523438e+02 5.10358695983887e+01 4.66469621658325e+00 229 
2.97676666259766e+02 6.16045043945312e+02 4.65203428268433e+00 230 
1.00882257080078e+03 2.48821826171875e+03 9.44750118255615e+00 231 
2.06604705810547e+02 7.20046508789062e+02 1.05713701248169e+01 232 
2.04536462402344e+03 1.07114270019531e+03 8.01573276519775e+00 233 
4.23988769531250e+02 3.39746490478516e+02 5.19573831558228e+00 234 
1.73945117187500e+03 5.11387603759766e+02 4.22331380844116e+00 235 
1.85492477416992e+02 9.25227722167969e+02 5.35528802871704e+00 236 
4.81246612548828e+02 3.01913452148438e+02 6.25406455993652e+00 237 
2.48919097900391e+02 7.69525329589844e+02 5.01269960403442e+00 238 
3.79468383789062e+03 1.41915417480469e+03 7.72382831573486e+00 239 
8.17032226562500e+02 5.71633666992188e+02 1.90073127746582e+01 240 
2.02197070312500e+03 2.11701812744141e+02 4.19569635391235e+00 241 
2.81287292480469e+02 6.56792419433594e+02 5.00620317459106e+00 242 
4.54206207275391e+02 2.42219284057617e+02 4.23995351791382e+00 243 
2.89160400390625e+02 6.36913696289062e+02 3.82555913925171e+00 244 
2.42823837280273e+02 7.53141357421875e+02 5.50289964675903e+00 245 
1.88895227050781e+03 1.39134658813477e+02 1.06025896072388e+01 246 
2.77559350585938e+03 1.38146936035156e+03 1.31007814407349e+01 247 
2.33437011718750e+02 5.66471191406250e+02 9.24998283386230e+00 248 
2.95650122070312e+03 1.36153173828125e+03 2.23941020965576e+01 249 
3.18059204101562e+02 5.32885986328125e+02 6.48002243041992e+00 250 
2.06835205078125e+03 2.04596289062500e+03 9.80288600921631e+00 251 
1.35377941894531e+03 1.56754211425781e+03 6.23961448669434e+00 252 
1.49431961059570e+02 1.12806896972656e+03 7.64425086975098e+00 253 
1.16462867736816e+02 1.01354382324219e+03 8.75191593170166e+00 254 
4.68153778076172e+02 8.92581848144531e+02 1.02208557128906e+01 255 
4.25402221679688e+02 3.09178771972656e+02 5.03755474090576e+00 256 
2.82698193359375e+03 4.98505889892578e+02 3.85617661476135e+00 257 
1.65063476562500e+03 2.24199511718750e+03 4.37166357040405e+00 258 
1.75715539550781e+03 1.66029064941406e+03 7.80828905105591e+00 259 
2.26677597045898e+02 5.08485443115234e+02 1.71490879058838e+01 260 
1.53932592773438e+03 2.45176220703125e+03 4.70830154418945e+00 261 
2.08326269531250e+03 1.32267065429688e+03 6.53719854354858e+00 262 
1.25024902343750e+03 1.95232641601562e+03 3.98539948463440e+00 263 
1.17753247070312e+03 8.19791564941406e+02 1.51905927658081e+01 264 
1.96162145996094e+03 2.35470336914062e+03 4.34279394149780e+00 265 
2.13518569946289e+02 4.03668914794922e+02 4.87348270416260e+00 266 
2.96054760742188e+03 2.32746508789062e+03 4.33487224578857e+00 267 
2.38445434570312e+02 6.46461425781250e+02 8.05212974548340e+00 268 
1.52708996582031e+03 1.89056713867188e+03 1.21303234100342e+01 269 
3.00644653320312e+03 2.44509350585938e+03 1.42938470840454e+01 270 
3.97809478759766e+02 3.43755920410156e+02 6.56853389739990e+00 271 
4.67836395263672e+02 1.81826354980469e+02 5.33000183105469e+00 272 
2.53932556152344e+02 4.94550262451172e+02 4.81488609313965e+00 273 
1.92172058105469e+02 8.41264648437500e+02 5.78443670272827e+00 274 
1.00167076110840e+02 9.89269592285156e+02 4.98656892776489e+00 275 
1.98667468261719e+03 1.87865856933594e+03 7.31485843658447e+00 276 
1.55447570800781e+03 8.32803649902344e+02 2.50944194793701e+01 277 
1.14720100402832e+02 9.31616760253906e+02 4.79573345184326e+00 278 
1.44688583374023e+02 9.05270690917969e+02 6.00429296493530e+00 279 
6.01120414733887e+01 1.19091992187500e+03 6.29913806915283e+00 280 
3.09255767822266e+02 5.92616088867188e+02 5.27562952041626e+00 281 
1.06813102722168e+02 6.50786926269531e+02 5.80227565765381e+00 282 
2.56445166015625e+03 1.27150207519531e+03 9.66892719268799e+00 283 
2.48338104248047e+02 5.07804718017578e+02 5.68985939025879e+00 284 
1.23377967834473e+02 7.61034301757812e+02 4.96150493621826e+00 285 
