ply
format ascii 1.0
element vertex 998
property float x
property float y
property float size
property short id
end_header
427.174225 1066.510986 17.165802 28 
1681.548706 2278.708740 32.983738 31 
485.923462 1029.692749 8.210168 57 
1806.447266 229.275345 5.247756 58 
398.164154 1041.103027 12.666805 67 
447.397125 1015.279907 21.881691 75 
478.840027 1254.320557 9.857366 82 
1389.642822 1099.799683 8.281634 83 
1397.595703 56.800896 5.290108 142 
3752.733643 821.084412 5.916543 168 
2866.969238 420.087769 5.346915 179 
2624.150391 308.450409 4.828777 180 
2681.303711 336.679047 3.856412 181 
2450.150146 225.799820 5.376064 183 
3309.063477 672.857483 8.089342 184 
2114.843262 996.796021 18.737257 185 
3526.052979 702.250305 5.142622 186 
2869.685303 399.123688 4.966072 187 
2123.541260 68.940041 4.481879 188 
2725.872559 346.125153 5.678218 189 
1319.760010 909.026550 10.281077 190 
2657.891602 1831.516968 7.776677 191 
1594.867188 826.857849 4.003200 192 
2168.573730 207.910767 14.029441 193 
1608.801147 585.063293 6.192317 194 
2771.775391 412.855194 4.968334 195 
346.344330 1053.301392 7.976529 204 
2456.635498 206.439301 4.646668 218 
2422.322998 215.897141 4.337670 225 
2569.858887 284.584595 4.076247 226 
2536.718506 260.423492 4.749698 227 
3288.743652 604.594666 5.082214 228 
3203.422363 577.249878 6.653872 234 
3698.435547 794.327515 5.519933 256 
2546.183594 230.665665 6.037193 268 
3042.773438 428.998169 4.093513 273 
3653.123535 1610.516357 11.430640 332 
146.593613 799.399658 6.577893 377 
626.858093 1182.303345 4.396601 479 
482.858337 985.216858 8.442969 484 
897.279602 1197.527100 5.485764 485 
240.316849 980.228760 5.884448 507 
1038.440186 984.920959 12.539689 508 
3011.576416 1351.102661 15.025886 550 
1992.926514 680.956116 3.665703 551 
1737.875000 1541.097290 5.897763 552 
1196.751709 546.050293 7.000106 553 
592.885803 1822.053955 6.998114 554 
1568.695557 437.154694 9.587466 555 
765.460510 236.207489 8.193354 556 
1496.775391 2041.244263 7.697669 557 
823.488037 183.724258 12.264589 558 
2601.248779 250.535141 6.425777 559 
312.914764 534.038940 4.407701 560 
2073.544434 1049.608154 55.260757 569 
538.713867 2312.209229 7.989640 595 
2528.207764 182.611328 7.002471 597 
2730.069336 303.002960 5.927185 755 
1787.420044 239.033218 11.269810 797 
2235.885986 77.610802 5.571477 876 
524.665161 2183.172607 5.799301 930 
648.754211 2361.413818 3.697239 949 
2754.286133 1264.122681 12.318466 1122 
1209.527954 1432.836670 20.244013 1123 
1951.216675 794.646362 5.825089 1124 
2873.729736 2286.895264 5.300702 1125 
1459.976318 2512.628662 7.189064 1126 
2736.130859 848.187317 11.977495 1127 
2281.396973 293.032257 7.540160 1128 
1626.658569 647.996948 13.124348 1129 
251.761765 1012.377441 9.169702 1130 
1760.684814 816.797729 9.423281 1131 
2029.691772 1396.310669 12.243697 1132 
1805.168579 148.906784 5.355645 1133 
1378.816284 739.543091 15.147693 1134 
1785.441895 142.474274 11.042684 1696 
2147.320801 1694.225830 12.977046 1698 
637.323853 573.149292 7.695535 1704 
1712.109497 475.996979 5.257630 1705 
2323.772461 1774.665527 11.341807 1706 
2606.769043 566.864746 55.739025 1707 
1808.555786 729.001770 58.463173 1708 
706.767761 1084.856567 5.105910 1709 
3177.860840 523.106628 5.832164 1710 
2944.819580 2409.389160 7.643679 1711 
2778.011719 1272.478638 6.384644 1712 
3703.869385 1385.190552 4.292811 1771 
3148.880859 904.300476 17.291517 1777 
3112.296387 971.917725 17.506241 1814 
2607.737793 182.637375 4.963806 1827 
2085.862549 1191.807861 57.808426 1844 
422.141418 999.477478 6.569281 1868 
1568.756104 2084.848633 4.053716 1912 
2585.876953 1260.414795 8.612333 1918 
2201.838867 220.307434 5.479042 1919 
1880.293579 59.566410 5.220359 1920 
1844.667236 950.127563 22.861111 1921 
1670.331421 1087.104492 18.596079 1922 
2419.662598 1394.412964 18.502518 1923 
2712.676270 1383.376221 5.065588 1924 
1911.589478 135.522873 4.653830 1925 
1297.366333 1454.083374 3.837185 1926 
3369.978516 1537.972900 3.468186 1927 
2367.256836 1024.004150 6.752141 1928 
1195.447632 1904.340210 8.091164 1929 
2901.001221 2489.828613 3.947704 1930 
1737.089966 2242.729980 11.948053 2031 
3326.705078 414.146088 4.031910 2226 
2029.512939 678.960510 9.476763 2322 
1736.965698 407.244324 3.922427 2350 
2315.890869 2527.041748 4.206933 2351 
1622.295166 1997.513062 8.583698 2352 
1857.190430 577.385559 14.254084 2353 
852.959167 980.735718 9.435205 2354 
1442.798340 1961.002930 6.491737 2355 
2573.965820 1603.473755 10.611399 2356 
2948.355957 1093.772827 4.973081 2357 
1252.007080 2095.486816 19.415636 2358 
1237.909668 2501.123779 7.628691 2359 
2250.278564 895.007141 55.304588 2360 
488.541595 628.735779 5.505796 2530 
733.576599 478.073822 5.379159 2533 
871.203613 395.716370 5.086643 2534 
1449.415405 52.937492 4.570200 2553 
3658.595947 1862.425903 7.740001 2561 
1660.850708 427.749512 11.502167 2603 
3614.669678 1896.719604 6.595438 2613 
557.365601 573.773682 7.784066 2652 
1105.968262 244.259430 6.422978 2653 
635.850830 544.855469 17.146858 2682 
1728.563843 196.046692 15.594485 2683 
412.286163 676.735962 4.220715 2729 
1244.986206 176.392441 4.966776 2733 
3586.614990 1920.563477 4.853343 2735 
391.534943 672.172668 8.425200 2742 
1221.667603 1898.454712 5.438675 2746 
508.508698 616.748779 4.287420 2747 
820.209167 427.333710 5.011648 2748 
1327.477173 125.947960 4.098202 2749 
1153.232300 230.443939 3.758301 2750 
1168.508179 221.506210 4.704124 2751 
3411.236816 1751.243164 4.946493 2752 
2753.504883 1453.298218 10.501370 2753 
970.693542 331.016052 4.394152 2754 
1024.331787 306.596497 4.970138 2755 
1132.392090 244.517471 4.357093 2756 
1409.921875 2497.404785 9.787323 2757 
1845.944824 547.133972 12.850019 2758 
510.804352 1484.079102 6.252952 2759 
1134.233032 254.592499 3.842738 2760 
3598.081055 1914.907471 5.300325 2761 
576.035461 594.471375 22.536135 2762 
1917.684082 2406.924072 12.985426 2763 
1646.435669 2337.491699 12.416861 2764 
2062.111816 2357.203369 5.533362 2765 
943.986816 338.218445 4.782251 2766 
1510.005737 813.122009 24.048527 2771 
1902.477051 661.927246 8.803919 2772 
2092.181396 753.374329 11.258447 2786 
350.066040 1801.582642 5.381406 2788 
3594.728271 1958.223999 7.719258 2840 
3633.195068 1449.774536 3.984269 2850 
3773.896973 1716.041992 5.456792 2852 
3732.000977 1750.963867 6.885317 2868 
1044.986328 292.811554 4.670815 2876 
3844.310547 1525.202393 4.372808 2880 
545.185486 593.158386 5.352644 2881 
3143.872559 2111.986084 5.188895 2891 
896.844421 384.649414 4.554477 2898 
3773.267334 1242.696777 4.937005 2902 
3555.141113 1515.314575 4.760097 2917 
308.704102 722.576599 7.562648 2918 
3283.615234 1997.755371 9.077483 2937 
746.689453 457.507721 6.942717 2940 
3428.696045 1795.024170 4.487503 2941 
3751.815430 1645.053223 6.056168 2943 
3716.822266 1769.565552 9.199580 2955 
3663.649170 1408.097900 7.435284 2956 
432.193573 681.227051 8.043715 2962 
721.583313 471.305725 5.072670 2966 
3533.167969 2012.347046 6.715343 2967 
3623.774414 1460.469482 5.750309 2968 
3632.075684 1901.572021 5.197056 2974 
3655.140381 1422.694946 5.139987 2975 
3630.966064 1421.486938 4.879459 2976 
2444.750000 2071.354492 10.238429 2977 
3528.508545 1596.732544 6.794805 2978 
3617.375000 1861.277954 5.609506 2979 
3546.515137 1989.002197 4.899728 2980 
3513.693359 2044.899170 9.254673 2981 
642.598755 337.583405 3.846260 2982 
3741.637695 1693.720337 6.239297 2983 
357.186218 726.583374 6.441527 2984 
3771.300781 1654.772583 4.061524 2985 
3594.338867 1517.328613 4.213470 2986 
3442.567871 652.159607 4.116660 2987 
3560.093018 1989.417725 4.584375 2988 
1248.626099 158.770660 5.354249 2989 
3670.543945 1888.694458 6.223814 2990 
227.921402 581.086487 4.428555 2991 
3456.416016 2105.403564 7.630647 2992 
114.116562 636.829956 5.303270 2993 
3693.778076 1808.614014 7.823915 2994 
3479.760010 1690.406982 7.378739 2995 
3537.372070 1979.215088 4.976165 2996 
3508.306152 2017.149170 6.921163 2997 
526.485840 606.828491 5.178177 3005 
64.637291 1579.014160 6.478140 3072 
514.933289 1161.137695 7.480082 3096 
532.083374 1041.814575 9.671670 3139 
451.507172 1139.495483 8.204090 3151 
113.017952 1995.736450 6.771075 3164 
437.621063 2023.897705 8.828997 3165 
2363.779053 326.393829 8.689605 3166 
2165.687988 1043.296509 10.878886 3167 
1688.814575 508.880402 5.250548 3168 
1555.261475 788.494324 8.790391 3169 
2682.410645 288.274445 3.960586 3170 
304.488922 2321.999023 7.386508 3171 
475.144989 2033.823120 5.030949 3172 
2204.177246 823.684814 3.633146 3173 
3130.812012 576.635071 3.985999 3174 
349.214294 2315.504883 6.048735 3175 
448.517090 2005.607056 6.819370 3176 
462.645569 2046.664551 9.114148 3177 
772.358215 2387.918213 8.886905 3178 
2232.993408 1745.677246 12.225847 3179 
423.756165 2032.545044 4.764801 3180 
789.225891 2473.620117 4.534634 3181 
117.668381 1928.183350 6.044538 3182 
858.772949 2439.580566 5.668423 3183 
333.287598 1980.553223 12.107890 3184 
61.011158 1844.654175 6.048607 3185 
2658.912598 313.404449 4.630515 3186 
416.722504 2297.786133 6.530390 3187 
632.597778 2256.371338 8.808022 3188 
530.363281 2087.773926 9.299433 3189 
440.252045 2057.071289 6.111073 3191 
269.567413 2252.307861 5.777995 3200 
243.247406 2161.572754 8.842117 3204 
2601.784180 805.449097 6.953895 3207 
3032.800049 994.370239 29.973125 3208 
414.084747 2333.028564 5.195827 3209 
767.754639 2460.304443 7.398361 3210 
2676.547607 47.793503 3.991639 3238 
157.961426 2065.226562 6.320069 3252 
487.726654 2137.116943 6.834533 3256 
266.504486 1780.520142 6.689239 3264 
81.009537 1549.018311 4.995530 3281 
2870.995850 1633.181763 6.106669 3291 
782.319153 2365.638428 6.252120 3313 
215.636230 2174.317139 11.223290 3331 
794.809143 2432.014648 8.682189 3333 
172.877853 2070.258057 6.328271 3336 
3128.669434 505.061249 5.054879 3351 
295.114014 2303.556396 4.470679 3364 
3141.774170 536.028992 4.946543 3365 
3352.679199 2344.054688 6.809489 3366 
3422.601807 2258.552246 7.215569 3367 
3296.519775 1902.101685 6.294271 3368 
1260.755859 136.519989 5.632169 3369 
3341.906006 2317.449463 6.950246 3370 
300.874939 945.698547 16.789032 3371 
3279.053955 2466.471924 8.665199 3372 
1094.629395 351.618408 15.078097 3373 
1443.394897 401.203064 14.443135 3374 
2088.096191 111.027351 10.470449 3375 
3253.762451 901.205750 21.995443 3376 
3596.706299 1934.222168 5.338937 3377 
181.690475 813.920715 5.888828 3378 
580.286255 573.129700 5.772813 3379 
91.651230 864.700806 5.421229 3380 
3236.782227 2493.993652 6.538937 3381 
3274.345215 2432.721436 4.450320 3382 
402.230377 393.758698 4.736705 3383 
3748.420410 1306.898071 4.030290 3384 
3218.096924 2528.691162 6.794306 3385 
3329.209717 2370.674316 9.453337 3386 
1502.213013 1603.802368 9.547824 3387 
1778.656738 1570.261597 10.124918 3388 
114.795265 852.418091 5.590514 3389 
415.871552 374.854126 5.450203 3390 
3497.723389 2177.813965 4.322294 3391 
3520.404297 2006.663208 3.923429 3392 
1096.337769 262.820099 5.902889 3393 
3657.044189 1894.836548 5.333835 3394 
336.501678 722.104553 5.591674 3395 
957.027100 684.139343 5.484884 3396 
458.554138 407.187439 6.379244 3397 
428.608582 352.577087 5.164417 3398 
941.669495 92.999840 5.223159 3399 
3017.941406 2320.156738 7.562852 3400 
3290.677734 2364.780029 6.057426 3401 
3468.566650 2120.781006 6.240205 3402 
1304.232788 220.551819 6.602314 3403 
416.252380 392.088440 5.617784 3404 
878.212952 381.270325 6.843559 3405 
3768.283691 1699.225952 4.707405 3406 
436.018677 644.722717 7.589966 3407 
1330.400024 852.356812 6.413805 3408 
478.777313 711.232361 42.823193 3409 
910.324402 391.160492 6.220127 3410 
3606.562988 1945.845581 4.517692 3411 
3441.428223 1719.217041 5.496368 3412 
1151.934692 216.947144 5.975809 3413 
467.113342 693.805908 6.929274 3414 
3078.894775 2259.678955 6.164614 3415 
3061.726318 2243.939941 4.784029 3416 
675.023254 500.489136 6.703807 3417 
453.726501 278.145081 5.363369 3418 
3510.634033 1645.455811 6.849551 3419 
3350.736816 2360.213379 5.419586 3420 
3343.510986 1822.540894 4.861822 3421 
3399.659424 2213.622314 6.460952 3422 
3356.104492 1823.599243 9.126181 3423 
3047.332520 2244.984375 9.569601 3424 
43.535294 849.484192 4.025474 3425 
637.125610 522.132446 5.473752 3426 
1031.647949 288.117523 5.219719 3427 
3474.638184 2140.090820 6.942464 3428 
840.406738 402.085144 6.677322 3429 
892.097412 143.122284 5.405024 3430 
3811.862793 1627.397949 6.346695 3431 
493.517914 609.777893 6.546899 3432 
528.063538 590.931702 6.356772 3433 
1050.185547 275.090027 4.812331 3434 
580.610046 227.204727 5.808033 3435 
2999.839111 2308.755371 5.471701 3436 
633.803406 351.768616 3.468905 3437 
746.939697 489.565552 7.394993 3438 
3816.536377 1165.218872 6.452800 3439 
348.077301 698.281189 6.708789 3440 
583.426514 554.868225 6.702952 3441 
3406.259277 2249.256104 4.983740 3442 
3415.498779 2182.911621 4.979594 3443 
3416.409180 2308.394287 5.618082 3466 
3250.800049 2421.421387 6.422810 3470 
368.944824 204.258011 8.486437 3491 
592.050537 973.513794 34.208233 3510 
980.764099 318.935272 6.361508 3515 
581.902649 135.874664 5.784204 3520 
252.491974 225.050354 6.129528 3523 
1122.171631 234.583359 6.292870 3524 
3105.510010 355.064758 13.092535 3572 
1420.664429 931.872192 4.685105 3611 
2974.758301 87.953896 6.465435 3612 
1330.045654 155.228638 5.846895 3613 
2764.536377 153.048721 6.573013 3614 
390.528259 217.100296 6.044936 3615 
2855.272705 216.698898 5.970051 3616 
723.844604 250.263412 5.990898 3617 
2767.067871 247.324997 5.817283 3618 
3028.999756 439.831512 6.042231 3619 
572.737610 2476.111572 5.762990 3620 
3086.316162 58.888466 5.116056 3621 
2457.253662 91.400070 3.811048 3622 
2812.859131 88.255859 4.669353 3623 
3181.460693 89.299179 4.685550 3624 
751.285339 120.969170 3.897874 3625 
2718.425049 154.309357 4.608025 3626 
225.248077 189.680466 5.132602 3627 
455.657379 188.370667 5.564443 3628 
2780.168457 188.226013 4.154207 3629 
2978.374268 220.411469 4.726889 3630 
2910.015381 383.570923 5.550513 3631 
3242.457764 512.047485 4.589784 3632 
3476.787109 2203.227539 5.300412 3633 
2912.997070 226.557220 6.429972 3634 
3161.541504 353.148743 5.781681 3635 
472.229523 383.259430 6.736357 3636 
2714.743408 385.449188 5.607244 3637 
3123.019287 541.546204 5.632020 3638 
490.025024 2118.445801 6.463744 3639 
568.873596 2212.262695 6.055380 3640 
508.572662 2527.343750 7.076096 3641 
882.885925 2525.113037 7.304603 3642 
2056.828613 712.757690 8.086578 3643 
438.578430 1961.962524 9.817385 3644 
2864.768555 2365.611328 7.055110 3645 
3166.419189 261.008881 11.449141 3646 
1295.848999 311.874908 13.236053 3647 
2992.513428 539.364441 12.929144 3648 
2685.215088 105.301491 9.227151 3649 
636.187317 176.345551 10.362035 3650 
497.546021 226.755478 9.054103 3651 
389.824738 363.849823 10.260123 3652 
2967.125732 361.945190 7.734912 3653 
390.811707 2331.916260 7.990304 3654 
1612.097412 294.773743 13.671135 3655 
1742.608276 690.258667 12.287264 3656 
1332.539185 1048.012085 12.037220 3657 
1878.729980 397.547272 18.256330 3658 
1588.648682 726.851013 16.546206 3659 
490.774628 2225.042236 15.559652 3660 
2942.916260 549.840088 23.237753 3661 
1369.285278 347.773773 14.575748 3662 
2032.057739 280.093170 19.226587 3663 
2518.097900 406.156891 21.944113 3664 
2478.132080 552.151672 16.328592 3665 
1713.898804 1041.308105 19.881264 3666 
2553.407959 653.183044 22.977013 3667 
362.298309 1026.788940 16.015234 3668 
2099.960205 358.876190 14.302051 3669 
2310.064453 1063.598755 15.699064 3670 
2607.804688 1318.718628 20.000282 3671 
2167.805908 1949.214844 20.532948 3672 
1411.167114 296.982788 24.478313 3673 
1825.342163 518.215088 15.062820 3674 
1426.150269 960.347534 15.309846 3675 
2329.637695 308.878296 19.145458 3676 
393.535553 1007.346130 14.969329 3677 
515.240234 1007.930359 21.676983 3678 
1888.900146 1395.126221 20.032797 3679 
2008.717163 1786.833984 19.775023 3680 
2466.973145 68.255760 5.171615 3681 
2489.625977 68.731407 4.818612 3682 
2626.414307 71.257423 4.134528 3683 
2775.003418 133.161575 5.150157 3684 
548.810547 167.223404 5.103220 3685 
1264.195068 164.814957 4.507602 3686 
2782.433594 166.636658 4.507752 3687 
827.180542 201.806198 5.269288 3688 
2383.986328 199.937134 4.105298 3689 
2938.394043 201.761124 4.812113 3690 
3374.805420 2370.887939 5.267178 3691 
2523.329590 116.549011 5.892191 3692 
1130.846680 723.061890 6.111019 3693 
625.029602 2501.026611 6.695604 3694 
2606.786133 121.988701 10.204773 3695 
2722.624512 122.430923 7.769245 3696 
3163.380615 121.159286 7.525612 3697 
642.237549 258.890656 6.955959 3698 
2793.088623 436.648193 9.496529 3699 
1559.952759 599.329529 11.179359 3700 
382.975128 2385.363281 7.463651 3701 
373.159454 2476.736572 10.417570 3702 
413.372101 2478.410645 8.772457 3703 
319.965515 2449.448730 11.429223 3704 
615.710754 98.836357 8.020124 3705 
2119.914307 270.988373 11.066248 3706 
576.747498 60.492306 4.434028 3707 
753.769531 59.812717 5.092515 3708 
1052.993652 62.652130 5.086478 3709 
2639.795166 60.379494 5.090119 3710 
3082.515137 92.890068 5.217920 3711 
2569.912842 157.946640 4.497955 3712 
2640.500244 155.689713 5.408071 3713 
3088.805664 159.141586 5.422810 3714 
2889.844482 184.156067 5.145230 3715 
3158.728516 186.629913 4.966061 3716 
3080.027832 264.917450 4.569290 3717 
3156.953857 330.846466 4.032290 3718 
2882.289062 381.151825 4.885713 3719 
3119.504639 474.550171 4.870102 3720 
692.234070 506.079346 5.081639 3721 
3216.159180 505.524994 4.919109 3722 
3457.469482 1725.301392 5.633381 3723 
314.819092 1915.843628 5.471076 3724 
319.904297 2045.927368 5.205823 3725 
682.961365 2397.402100 5.095011 3726 
718.835083 126.357185 6.124516 3727 
2874.600830 123.475044 5.921896 3728 
760.390747 157.908600 6.393094 3729 
756.518982 188.672592 6.814388 3730 
881.586182 477.562012 5.811743 3731 
301.670746 1748.380737 6.130594 3732 
648.995361 2166.909180 6.471272 3733 
3393.291992 2263.357422 6.399270 3734 
304.262695 2452.127197 6.126024 3735 
311.408936 2487.171143 6.186204 3736 
800.470703 47.121269 4.487936 3737 
2190.203857 45.822136 3.707099 3738 
2832.563477 47.582577 5.019748 3739 
2193.642578 111.201271 4.572432 3740 
2261.757812 142.197037 4.750814 3741 
247.695770 207.845490 5.022183 3742 
707.885010 207.728790 5.154589 3743 
2889.062012 210.755447 4.595942 3744 
359.151215 240.506668 4.052052 3745 
2615.473877 281.366852 4.912548 3746 
3112.343994 280.301941 4.969512 3747 
484.533325 169.367126 6.147077 3748 
2730.047607 170.899979 6.171069 3749 
2534.480469 242.131592 6.420821 3750 
3172.178955 305.818085 6.130124 3751 
167.171738 1709.453125 6.279765 3752 
3449.837402 2188.201416 6.082339 3753 
3001.218262 2355.074219 6.340657 3754 
2204.465332 64.151001 5.092983 3755 
2777.285400 64.654045 4.672091 3756 
2663.040039 98.384781 4.811456 3757 
2559.416260 225.921234 4.335850 3758 
241.647629 2101.976807 5.409288 3759 
617.834778 133.212967 6.687239 3760 
2440.125244 165.581284 6.101909 3761 
3117.450928 230.642075 6.136503 3762 
312.612701 292.792328 6.531038 3763 
3046.888428 324.639221 5.750483 3764 
533.896973 2043.633911 7.023069 3765 
774.465515 2305.417969 5.913768 3766 
904.103821 83.499619 4.208748 3767 
2607.816406 82.264015 5.246416 3768 
2936.260254 81.011078 5.020925 3769 
1344.583130 114.323708 4.927694 3770 
3108.209961 114.889122 5.165248 3771 
2808.470703 146.815536 4.861651 3772 
2671.859375 172.669617 4.609858 3773 
3235.604248 207.166122 5.719787 3774 
2476.740234 268.915405 4.423052 3775 
2915.659668 268.491394 4.636561 3776 
2590.160645 293.569122 4.955546 3777 
404.446930 2453.602539 7.136449 3778 
3462.238037 2452.559570 7.264770 3779 
1314.810181 450.355133 11.210226 3780 
3041.860840 560.226562 12.518170 3781 
3038.929688 81.139832 7.822274 3782 
894.494202 506.721405 7.634625 3783 
1533.772339 1062.228516 7.548708 3784 
276.624847 2014.280884 8.019674 3785 
264.925873 2075.593506 9.347232 3786 
553.119202 2075.796631 8.258128 3787 
511.224243 2402.274170 8.718695 3788 
1929.645508 271.755371 13.546501 3789 
3040.184326 2356.043701 12.450523 3790 
1296.855347 371.837189 10.837657 3791 
237.147537 1974.208740 9.369819 3792 
374.769012 2165.136475 7.817585 3793 
610.664734 2263.657959 8.610853 3794 
3411.352051 2372.013916 10.120109 3795 
3304.430664 2424.935791 10.769389 3796 
784.484009 131.745865 7.304707 3797 
810.255554 132.060318 7.816768 3798 
238.139420 338.749725 10.581135 3799 
478.558350 334.505951 11.035204 3800 
3087.520996 335.177063 7.815125 3801 
3132.994385 338.514526 7.668672 3802 
1267.491089 801.954102 10.094619 3803 
836.785522 87.591873 8.016878 3804 
2876.969238 93.438927 9.288934 3805 
2700.658447 143.535553 8.551288 3806 
299.848724 2119.486084 8.187566 3807 
549.352112 2188.191895 8.117470 3808 
436.591339 2298.057861 8.975706 3809 
1770.072998 191.999710 11.675270 3810 
1978.116699 870.320801 11.538236 3811 
212.413544 113.430077 7.251487 3812 
651.549072 117.927643 7.835271 3813 
367.626495 300.139832 7.290957 3814 
321.804901 2125.344482 4.136847 3815 
2874.271729 233.390564 5.880646 3816 
300.317566 743.385437 6.022364 3817 
310.252289 149.003906 4.758072 3818 
3061.760986 148.753235 5.436361 3819 
322.935730 182.041016 4.470020 3820 
3240.984131 182.120193 5.482507 3821 
335.872101 213.374069 4.620764 3822 
2779.141846 214.425507 5.290122 3823 
2957.337402 211.923477 4.933852 3824 
2676.802734 364.474121 4.538749 3825 
2877.093018 365.768158 4.729173 3826 
488.532562 2290.114746 5.199335 3827 
358.514313 2353.070557 5.356902 3828 
654.207581 84.931709 6.573275 3829 
957.978027 112.883728 5.788929 3830 
3108.515381 143.461182 6.123643 3831 
858.936523 178.998749 5.954112 3832 
1364.183960 302.962128 7.243333 3833 
506.266754 332.314972 6.538998 3834 
3291.200928 589.939758 6.800806 3835 
449.602173 1929.123779 6.170580 3836 
625.152344 2120.819580 6.013157 3837 
585.634766 2505.420166 6.809519 3838 
780.294739 74.855774 5.185971 3839 
2706.840088 106.449348 4.607603 3840 
1309.174683 138.964813 4.801885 3841 
2966.189209 137.811966 5.561404 3842 
441.023651 229.665131 4.836290 3843 
3047.740723 228.324738 4.918141 3844 
2938.753906 278.963440 4.864399 3845 
2991.414062 277.350159 4.921425 3846 
3259.475342 317.153839 5.510616 3847 
1521.465088 429.277069 5.370686 3848 
191.657227 2115.494385 5.105042 3849 
487.466217 2245.027832 4.705696 3850 
609.805603 119.844337 6.461388 3851 
1313.489136 121.962982 6.461384 3852 
291.803009 218.496597 6.777250 3853 
495.412811 315.637207 5.807744 3854 
3024.754395 345.428436 6.238286 3855 
372.630066 442.713348 6.788679 3856 
517.246216 2034.251831 6.983115 3857 
3151.986084 2095.991211 7.060875 3858 
1066.174683 57.705456 4.116487 3859 
2873.429932 56.395641 4.817522 3860 
2248.832764 89.128532 5.072946 3861 
773.321716 121.369293 4.905178 3862 
2550.814453 190.077621 5.492917 3863 
2882.836182 221.503372 5.008435 3864 
2748.651855 355.694214 4.796822 3865 
414.694427 1880.706299 4.824483 3866 
383.938690 1976.523926 5.194486 3867 
353.387756 2169.684326 5.137688 3868 
2530.695557 64.495316 6.450027 3869 
3222.586426 195.182938 5.965214 3870 
487.991364 289.836212 6.400758 3871 
1705.099731 448.342926 6.032670 3872 
3104.240967 479.629547 5.891229 3873 
265.264038 1763.343384 5.798298 3874 
3429.315186 1762.507080 6.096829 3875 
318.793640 1824.342896 6.238545 3876 
372.425049 1862.950317 6.929567 3877 
241.388260 2365.094971 7.241385 3878 
574.976135 2493.720703 6.032723 3879 
618.507751 2526.323242 5.875115 3880 
2750.456543 439.448425 8.635494 3881 
3252.925293 939.164551 9.941442 3882 
317.842255 1895.611938 8.203199 3883 
3273.480713 2415.247314 9.556796 3884 
1287.512207 826.363098 11.509262 3885 
415.503998 2281.166992 12.367155 3886 
1156.322021 811.080994 8.959460 3887 
231.546448 2080.993164 10.022501 3888 
2952.275635 2222.339600 7.520328 3889 
3111.177002 2219.016846 7.675327 3890 
328.446075 2276.968018 8.187190 3891 
3411.576660 2331.509766 9.520350 3892 
2966.671387 2381.010010 7.382811 3893 
340.825531 981.924683 21.853703 3894 
477.155426 1042.551880 17.260014 3895 
593.402405 2298.927490 16.521000 3896 
512.583618 633.311096 21.702387 3897 
370.672150 1091.964478 25.716257 3898 
298.598053 1927.686768 16.724417 3899 
1469.647217 511.757324 50.940922 3900 
1733.676147 493.030212 52.241791 3901 
1520.360474 650.991150 41.800659 3902 
2398.240479 467.029388 51.954185 3903 
2205.043945 955.014832 66.377892 3904 
2648.602295 68.051880 4.894090 3905 
2720.851807 101.072670 5.868554 3906 
2685.581299 134.072189 5.339835 3907 
221.743317 200.458252 4.348701 3908 
2788.829102 201.606415 5.046657 3909 
3013.108887 203.258591 4.221854 3910 
390.380737 233.687988 5.049589 3911 
629.126465 231.537704 4.747774 3912 
2912.778076 253.754852 4.200916 3913 
3078.989990 252.260971 5.700883 3914 
3252.091553 271.713226 5.215778 3915 
3158.119385 314.768829 4.439390 3916 
3096.102295 390.501740 4.426514 3917 
3021.598877 452.654266 5.079223 3918 
3277.114502 485.593323 4.288445 3919 
260.971222 2176.149170 5.265761 3920 
777.091675 149.914139 6.491226 3921 
1269.022339 147.746231 6.349953 3922 
2958.281494 150.917603 7.073677 3923 
3008.785156 148.060791 6.314394 3924 
547.095703 247.212570 6.325715 3925 
219.542755 2040.257812 6.447274 3926 
531.833984 2144.397705 6.895824 3927 
3368.995117 2235.569580 6.121816 3928 
253.764084 2469.937012 6.135895 3929 
545.977966 197.278473 8.090393 3930 
2690.110840 258.874939 10.003540 3931 
698.217346 488.068695 7.457629 3932 
3551.809814 2112.812988 10.416575 3933 
660.488037 2283.122070 7.708192 3934 
293.950958 2337.599121 7.470762 3935 
244.161194 2386.964111 7.954208 3936 
663.193054 2394.181885 13.507487 3937 
3144.516113 98.368927 7.442496 3938 
440.044708 212.756729 7.152948 3939 
2235.945801 349.177826 11.017322 3940 
474.649170 63.026653 4.877662 3941 
535.035950 62.176582 4.733709 3942 
722.701294 62.143715 4.219525 3943 
535.619873 158.967819 4.928000 3944 
2313.274658 155.686722 4.622131 3945 
201.795624 184.334808 4.013356 3946 
484.952148 183.951096 4.071114 3947 
2741.012207 186.398224 4.835746 3948 
369.091217 246.009781 4.114431 3949 
656.752075 246.126770 4.686980 3950 
2932.466797 265.218445 4.650350 3951 
358.879547 311.453949 5.256331 3952 
2918.102783 309.659424 4.969803 3953 
2984.608643 410.610870 4.353204 3954 
3003.844238 474.053101 4.861009 3955 
286.235291 1724.788574 5.301948 3956 
2963.050537 2334.475098 4.673440 3957 
1411.163452 62.967560 5.864285 3958 
918.060913 92.534103 5.932586 3959 
3230.502197 577.243896 5.819028 3960 
329.061188 2198.717773 5.766648 3961 
2663.668457 78.856483 4.650717 3962 
3168.466797 78.815536 3.984982 3963 
2745.374268 110.624359 4.954134 3964 
491.177765 143.189865 5.452281 3965 
2573.906494 141.392120 4.738886 3966 
2636.486084 141.593307 4.470932 3967 
2903.452881 178.500931 5.516321 3968 
427.985687 240.803177 4.781315 3969 
3050.498047 240.134995 4.424632 3970 
2876.391602 262.145264 4.816722 3971 
2584.107178 280.024231 4.981859 3972 
2699.976562 280.635864 4.955448 3973 
3151.595215 282.472351 4.081242 3974 
406.649048 350.197693 5.479478 3975 
1388.991211 76.458633 6.047122 3976 
280.707611 169.746796 6.110229 3977 
3155.985840 242.990250 5.939052 3978 
313.346649 275.322937 6.491282 3979 
897.006409 368.547363 6.667282 3980 
3164.012207 368.815491 5.715579 3981 
3188.169678 560.858154 5.940126 3982 
1990.777588 814.883362 6.523947 3983 
287.896759 65.264153 5.439014 3984 
603.094177 66.129791 4.801922 3985 
2553.319824 64.719940 4.591957 3986 
2608.316895 67.318062 3.912965 3987 
955.533142 96.464142 4.702347 3988 
1350.304443 99.255623 4.847321 3989 
211.443588 131.028503 4.624115 3990 
269.270721 193.176788 4.537821 3991 
334.067261 226.457092 4.829451 3992 
191.712601 1683.909912 4.788720 3993 
447.989624 1942.461792 4.519720 3994 
554.797424 2102.185791 5.382713 3995 
572.356323 2198.093018 4.975076 3996 
544.256653 2357.771484 5.399104 3997 
3064.270020 133.702026 6.007113 3998 
683.718933 166.596878 6.081561 3999 
1075.564941 261.729828 6.497736 4000 
270.155884 325.462067 6.471326 4001 
300.332977 2178.490723 6.119829 4002 
3129.211426 2175.639160 5.918701 4003 
3467.983398 2304.294434 5.981641 4004 
736.294556 2369.701660 7.126972 4005 
305.159088 51.805096 3.336315 4006 
2758.395752 48.579098 5.300721 4007 
2626.798584 82.332123 4.516787 4008 
1329.468506 111.673439 5.193433 4009 
3124.290039 113.433510 4.547427 4010 
2825.778564 143.477859 4.808816 4011 
3157.874023 267.833832 3.635786 4012 
558.459656 293.118591 3.942137 4013 
2991.670410 292.239471 4.671866 4014 
3106.027344 292.800232 4.852367 4015 
372.558502 319.695892 5.262152 4016 
3045.877930 871.273987 9.576982 4017 
483.813324 2346.020508 7.950669 4018 
280.577271 2449.217529 7.444258 4019 
3067.563721 84.354744 7.565998 4020 
2743.903564 150.890350 9.214267 4021 
694.886658 785.339172 9.522830 4022 
3497.681152 2455.385498 8.777137 4023 
3233.739746 2515.695312 7.657991 4024 
2049.330811 795.956726 7.833457 4025 
337.640167 2093.190918 8.512302 4026 
187.838287 2265.856201 8.369706 4027 
241.269958 1864.182129 13.128034 4028 
1773.995728 513.445862 8.748774 4029 
2307.144775 87.940125 9.203403 4030 
637.326660 145.633408 10.047487 4031 
2604.473633 149.781326 9.732946 4032 
743.838196 230.851318 8.063301 4033 
274.540100 2055.033203 9.618400 4034 
471.223877 2295.969971 9.350136 4035 
378.748413 2357.098877 9.331734 4036 
439.216888 2356.278076 7.561399 4037 
435.870697 2407.182861 7.588543 4038 
833.640869 2412.223145 7.713942 4039 
343.295319 2469.352539 10.159479 4040 
733.032166 111.139771 7.376268 4041 
661.356995 2156.216309 5.493238 4042 
1042.638428 75.006256 6.015748 4043 
3087.896484 143.496536 6.326909 4044 
3100.965820 264.873169 6.418710 4045 
1942.638794 869.365356 6.133993 4046 
584.447144 2168.307861 5.986818 4047 
229.017822 2330.771973 6.253521 4048 
507.694946 2361.940674 6.867020 4049 
577.279358 2456.860352 5.749281 4050 
630.916809 86.478729 3.977427 4051 
2163.158447 87.451431 4.607757 4052 
2687.888916 83.699394 5.323277 4053 
3127.124268 84.028755 5.015729 4054 
883.920471 118.728851 4.578242 4055 
2766.591064 117.943481 3.801982 4056 
2373.666504 150.321671 5.292907 4057 
2698.633789 180.288162 4.188037 4058 
3035.181396 182.892258 5.556257 4059 
1594.958252 781.656494 4.474954 4060 
278.332489 2089.356201 5.206347 4061 
3015.924805 2282.961426 5.396463 4062 
3352.611572 2283.357666 4.760580 4063 
2744.565186 322.453278 4.551105 4064 
2998.731934 425.410339 5.009609 4065 
3029.722656 423.660828 4.853322 4066 
1755.429810 457.572784 5.155077 4067 
3222.038574 520.466492 5.011246 4068 
317.440369 2096.671631 4.965689 4069 
2539.540771 144.666534 5.930619 4070 
450.053711 332.180176 6.003684 4071 
251.068558 2121.075439 6.596476 4072 
656.794250 2217.850586 6.214097 4073 
684.173645 2248.244629 6.603467 4074 
527.954346 2507.445801 6.799230 4075 
767.077087 39.781754 4.258049 4076 
2066.775635 43.548046 4.610075 4077 
2721.268311 42.781128 4.098500 4078 
2939.579346 40.859932 4.356778 4079 
3007.248047 41.037682 3.783015 4080 
2766.179199 74.098274 5.510789 4081 
2978.092773 72.879601 4.058494 4082 
3079.281250 107.368576 4.988040 4083 
2277.842773 139.365692 4.773027 4084 
2884.140869 170.708908 4.169111 4085 
3020.438721 229.615067 4.792773 4086 
3122.451904 319.285400 4.835864 4087 
2895.747803 370.967743 4.974807 4088 
507.833435 398.010834 5.046299 4089 
474.080994 618.928345 5.204203 4090 
1595.503174 650.165894 5.260330 4091 
1423.036865 68.084808 4.671871 4092 
507.956482 660.757019 7.778947 4093 
1989.335571 1044.082886 9.117219 4094 
1150.945312 463.523193 7.461558 4095 
1013.878296 106.031898 6.894849 4096 
355.789978 710.800537 4.871078 4097 
1853.600952 1774.523682 12.917091 4098 
1224.244141 1917.590942 4.702078 4099 
994.498718 282.571533 3.689763 4100 
2440.738770 2376.849121 6.471326 4101 
734.586304 2415.791992 5.439926 4102 
3477.572998 315.074677 6.032407 4103 
2965.025391 505.458618 6.282437 4104 
3791.992188 852.312500 6.553345 4105 
96.066750 1584.564453 5.949436 4106 
136.760147 1872.338379 5.782153 4107 
3488.744385 416.211151 5.303389 4108 
3560.797119 496.995880 7.834350 4109 
3807.971924 827.578979 7.232619 4110 
2914.837646 484.203918 7.033255 4111 
3335.310547 696.302734 10.626967 4112 
593.024658 2444.106934 8.036400 4113 
3733.875244 357.082825 13.849134 4114 
1897.412354 2030.432129 15.446265 4115 
3072.228516 770.205261 24.403408 4116 
2950.882812 431.875977 19.505684 4117 
1776.842041 1883.780762 25.769291 4118 
3006.253418 487.297058 4.840565 4119 
3332.308105 638.431458 5.150180 4120 
3540.116943 737.555359 5.262583 4121 
592.175354 2465.322754 4.771004 4122 
2474.005127 214.150803 6.263155 4123 
3633.936523 720.390564 5.822123 4124 
2901.839355 196.141388 7.603953 4125 
3728.221436 257.215973 8.657885 4126 
3272.144043 275.408600 7.987967 4127 
1353.569092 60.441837 5.367140 4128 
3501.015625 221.722046 6.706542 4129 
3219.111328 444.108337 6.273142 4130 
3267.396973 608.881409 5.689115 4131 
3013.120605 463.618256 5.649131 4132 
3709.043945 783.200928 7.045231 4133 
2490.034668 129.318893 5.059520 4134 
2370.737061 193.343765 4.610240 4135 
759.700745 2422.762207 4.980953 4136 
2853.732910 389.294708 6.520173 4137 
2326.812744 171.725998 5.299653 4138 
3665.646484 784.130554 11.739190 4139 
3784.478271 898.422913 7.338680 4140 
210.637482 2064.942871 10.736348 4141 
416.453857 2121.214355 9.843858 4142 
3364.322998 654.234863 5.577182 4143 
3501.334229 718.528931 5.064840 4144 
3453.028564 426.885345 6.592844 4145 
67.869453 1797.165405 7.171425 4146 
3754.205322 118.160187 5.669683 4147 
2832.418701 405.178711 4.704374 4148 
2739.098145 363.592377 4.537721 4149 
45.733398 1776.079224 4.965574 4150 
3771.850830 842.664490 6.958944 4151 
2816.874268 398.081451 4.698287 4152 
3627.163818 776.689514 5.212649 4153 
3356.060059 411.039825 5.790878 4154 
3447.122803 407.923218 6.001740 4155 
158.380646 1872.433228 6.668309 4156 
360.735260 2095.997803 6.138244 4157 
2241.822021 122.398941 4.731396 4158 
3462.970703 416.386566 4.721604 4159 
3569.996582 738.637268 6.135264 4160 
506.487335 2116.281738 5.939790 4161 
614.322937 2430.791504 7.070440 4162 
146.589920 1831.764648 8.490071 4163 
2954.285889 873.096008 42.902317 4164 
2960.306641 452.845490 4.563793 4165 
3688.771973 518.001709 5.069221 4166 
3508.614502 373.049103 6.345766 4167 
57.244080 1784.632568 5.872731 4168 
3455.492676 541.636719 8.849127 4169 
2807.772461 381.763184 4.999368 4170 
3400.367676 659.535339 5.205298 4171 
311.985565 2108.581543 4.636523 4172 
695.251770 2299.965332 4.899473 4173 
108.946617 1594.642090 6.483244 4174 
823.733887 2388.541992 5.877623 4175 
2636.874512 304.950409 4.705877 4176 
2465.258789 224.616211 4.795840 4177 
3246.608887 196.545990 5.860729 4178 
3538.525879 635.605713 7.479292 4179 
2647.378418 237.166275 8.669291 4180 
3745.071533 243.328201 8.460793 4181 
2788.092773 374.466339 4.719436 4182 
3424.511230 497.209412 5.280564 4183 
906.397705 593.752014 5.523664 4184 
101.985161 1769.701782 4.438928 4185 
3374.930420 582.906494 5.265215 4186 
3514.890625 711.167175 5.324885 4187 
799.820679 2447.342041 4.768981 4188 
3044.643066 492.879822 4.822563 4189 
151.197205 1627.899780 4.403171 4190 
2667.154785 305.622131 4.355564 4191 
3051.083008 508.370819 5.219628 4192 
159.080002 1667.089111 12.060119 4193 
130.794754 1646.885010 7.681443 4194 
147.346115 1906.279541 8.218676 4195 
267.769653 1855.872681 5.882332 4196 
329.642700 1873.183350 5.151301 4197 
2752.490723 369.616669 4.226887 4198 
2762.947021 1904.440796 6.684120 4199 
2970.869873 1536.559937 6.163124 4200 
485.138641 1962.065674 7.410678 4201 
2194.471680 1299.441772 21.321489 4202 
2680.786865 1935.292480 17.478466 4203 
2563.603271 272.610779 4.214636 4204 
2118.878174 2374.760254 5.976382 4205 
114.664017 1651.921143 4.729346 4206 
275.384552 2103.740967 12.637631 4207 
155.434219 1640.809204 5.619551 4208 
110.001808 1575.257812 4.786867 4209 
392.474518 1987.780884 4.771122 4210 
2361.111816 188.792114 4.609413 4211 
1552.074463 480.380676 4.790743 4212 
2366.810303 950.977478 18.657351 4213 
2111.638916 1287.841797 18.008879 4214 
3669.948242 774.820984 19.002781 4215 
123.519562 1603.077637 3.931457 4216 
1832.987061 2432.864014 3.735255 4217 
210.654831 2007.698120 5.893826 4218 
2972.083740 446.720520 6.637483 4219 
114.164467 1780.071777 6.204419 4220 
2663.178955 327.480530 4.866857 4221 
3158.718994 531.449463 6.388512 4222 
351.708313 1966.870117 5.916031 4223 
287.127014 1813.591797 5.309738 4224 
3092.138916 562.012207 4.604114 4225 
107.183647 1672.238770 3.975960 4226 
174.090775 1860.449707 6.424938 4227 
1727.413940 2324.406494 23.879297 4228 
2458.746094 103.254013 5.524503 4229 
273.882416 1826.272217 5.626446 4230 
132.002853 1921.254883 4.806048 4231 
112.497032 1860.627686 10.327252 4232 
345.878510 1879.011230 4.874043 4233 
365.455750 1948.992676 7.630760 4234 
735.113586 2369.777832 7.001616 4235 
446.870270 2312.921875 5.286666 4236 
327.220673 2031.139038 4.622635 4237 
514.649719 1160.979492 6.976145 4238 
3593.510986 865.096375 5.327448 4239 
304.782501 2099.623535 3.972321 4240 
2634.636719 2163.175781 7.140910 4241 
1335.078735 870.578796 6.714773 4242 
962.791565 2222.568848 7.080571 4243 
680.084534 1669.510010 6.452266 4244 
740.436340 2455.588867 5.498437 4245 
2082.071777 1875.283569 29.089935 4246 
174.525543 2173.940186 5.676510 4247 
122.522682 1911.126343 4.940863 4248 
747.009949 2325.361572 5.500384 4249 
628.372009 2228.771973 9.518997 4250 
415.858978 1996.320435 5.103864 4251 
53.945049 1930.481323 5.267617 4252 
695.268982 2283.375732 6.257349 4253 
1974.432007 41.697285 4.245967 4254 
137.027222 2084.003662 6.661747 4255 
732.879028 2430.641846 6.491314 4256 
772.088013 2353.822754 5.785781 4257 
341.529236 1787.836182 6.489896 4258 
595.680664 2209.389160 9.329586 4259 
2057.028076 870.590271 12.567114 4260 
3469.263916 688.643921 5.533956 4261 
304.804138 2469.161377 5.467692 4262 
721.895691 2408.066162 4.794478 4263 
702.619385 2382.130859 5.396253 4264 
