ply
format ascii 1.0
element vertex 987
property float x
property float y
property float size
property short id
end_header
934.078308 2165.013916 4.535565 10 
2443.061768 1047.556885 10.563552 16 
2122.731445 2295.565918 13.462487 28 
2074.488281 2252.960693 16.526497 32 
2077.065674 2360.535889 17.713821 35 
1168.419556 1212.490356 8.408017 58 
2103.282471 2226.753418 6.510037 63 
2101.183105 2330.420898 13.144364 67 
2154.401611 2286.050293 11.353877 68 
2078.811279 2305.974854 18.776403 75 
2348.364502 328.129578 7.339073 87 
3103.328857 1603.094971 5.090663 93 
1324.223633 388.790436 4.115982 94 
1293.536987 514.567749 7.911776 95 
1706.772339 2178.352295 3.737473 96 
2971.537598 1663.810425 4.416691 97 
2850.945557 1839.875000 4.627998 98 
3026.217041 1596.542236 6.497032 99 
2530.409180 2156.639160 4.653465 100 
2259.413330 308.287109 4.677157 101 
2597.636230 2089.433105 4.099105 102 
2964.604248 1702.269287 7.418964 103 
2099.659668 2270.733154 11.574682 104 
1512.924316 2008.472168 44.294670 105 
2701.005127 1733.248291 40.517929 106 
2958.382080 1706.495972 4.108102 107 
2919.202881 1686.214722 4.326509 108 
3073.887451 275.144806 7.303864 109 
1223.573486 383.045258 3.549708 112 
2794.179443 1222.234253 12.907505 121 
1317.801758 303.376953 3.974948 147 
1356.409302 358.142975 3.814124 148 
1183.628662 1771.267944 10.640949 154 
2172.740234 2247.251465 6.393961 204 
1616.638672 65.411980 4.654104 273 
1920.871826 1240.486572 7.183042 286 
1007.108215 2288.403809 3.634064 290 
1210.022949 2388.401611 4.814204 295 
911.492554 2230.427490 5.655423 298 
948.403442 2316.323486 4.510183 301 
929.668518 2218.328369 5.119486 305 
902.631897 2265.368408 4.059853 308 
1155.581543 2405.618164 4.935684 312 
1030.801636 2310.239990 4.811762 314 
572.056641 2089.105225 4.603422 316 
804.628723 2260.376465 5.292305 317 
492.240784 2108.230225 8.761948 318 
600.672852 2095.375244 6.083917 319 
671.579468 2073.249268 6.773317 320 
611.067810 2248.063965 6.223379 321 
510.198364 2190.759521 3.812245 322 
761.168701 2087.201660 4.517490 323 
734.337463 2172.777588 4.391637 324 
530.272827 2165.939453 5.620046 325 
696.403931 2102.281982 5.339375 326 
725.928223 1984.110596 3.968513 327 
852.028503 1821.970093 4.190454 328 
900.378235 2180.948242 10.519048 329 
398.696808 2094.266602 7.161867 330 
552.790344 2143.755615 6.180602 331 
984.250671 2063.791992 9.343546 332 
738.114197 2045.603882 10.068633 333 
422.097778 2065.780518 5.996102 334 
574.023254 2024.074097 5.869146 335 
595.598328 2143.995605 7.112376 336 
641.417603 2160.789062 5.935873 337 
750.569763 2180.738037 6.571341 338 
958.148071 2264.704346 5.705798 339 
1424.480835 2349.300293 9.791057 340 
685.681763 2014.511719 19.543789 341 
550.593445 2131.231445 13.251156 342 
448.075500 2095.415283 13.315817 343 
644.186707 2142.692871 12.532961 344 
429.482483 1443.643799 4.413449 345 
398.491882 2058.894043 4.813058 346 
473.037659 1952.532715 3.946853 347 
558.296936 1852.351440 3.791842 348 
649.775085 2057.241211 4.826924 349 
801.734924 2035.703247 3.998823 350 
575.288269 1839.244507 4.184032 351 
493.415771 2077.832031 3.625002 352 
539.082397 2270.448242 3.720530 353 
669.734558 2117.909424 5.014403 354 
1040.674072 1987.881348 5.326974 355 
923.087708 2285.905029 4.191691 356 
393.651581 2200.771240 3.701680 357 
674.412476 2092.423828 3.903600 358 
801.882751 2012.762085 4.534575 359 
518.703735 1987.883667 4.864038 360 
550.105225 1943.783447 4.708565 361 
816.918457 2028.109863 4.548890 362 
346.403503 2097.877686 4.557168 363 
515.760437 2122.252686 5.085874 364 
566.619385 2130.136963 5.649567 365 
629.262939 2085.887939 5.529992 366 
562.589844 2168.164551 5.148561 367 
589.090637 2219.183594 5.448002 368 
1573.571411 1167.027832 7.907543 369 
505.016693 2061.877441 7.823370 370 
572.296631 2072.138428 7.742496 371 
1128.473145 1961.008911 10.141512 372 
1245.747925 2198.181641 9.704062 373 
475.562897 2161.842773 10.216018 374 
859.679504 2226.649170 10.438552 375 
629.518616 2123.778564 9.166714 376 
885.048767 1829.726074 11.758766 377 
545.199890 2003.336914 7.457305 378 
545.217285 2188.412354 6.401687 379 
728.310669 1628.166626 7.014731 380 
699.250916 2180.875977 9.145432 381 
758.156494 2111.171631 6.531937 382 
832.877014 2252.012695 6.306883 383 
390.002716 2011.598755 4.907990 384 
744.766663 1966.494263 4.390548 385 
663.138062 2182.773193 4.227286 386 
677.189148 2168.510254 4.893887 387 
763.064209 2262.782959 4.036847 388 
972.018616 2281.740723 4.579594 389 
676.429810 2267.802490 4.787894 390 
680.996948 2120.385742 3.876442 391 
2789.662354 1765.810059 5.049950 392 
1468.279175 2365.630371 4.892895 393 
610.744873 1879.026123 4.711374 394 
489.349701 2260.059570 4.040501 395 
516.847839 2254.398926 4.190286 396 
707.283081 2193.181152 4.164929 397 
1306.608521 2235.605713 4.329308 398 
348.879303 1368.286499 4.052316 399 
459.497375 1982.845947 5.948838 400 
630.774780 1975.660034 6.076952 401 
648.821960 2112.577148 7.362512 402 
714.173096 2104.816895 6.480636 403 
923.779419 2243.058838 7.577960 404 
608.104187 2054.143555 4.900545 405 
2382.393066 1946.590942 4.373544 406 
744.403198 2107.992920 4.376699 407 
998.366638 2281.198242 4.961420 408 
866.267090 1854.275513 4.047605 409 
765.252380 2008.297485 4.075561 410 
374.736084 2129.293701 6.076330 411 
524.001892 2190.989502 8.007684 412 
675.243286 2135.619141 8.379229 413 
761.704224 2247.040527 6.643313 414 
832.405884 2153.928711 6.392258 415 
518.529419 1934.485229 10.638868 416 
606.330566 2216.579834 6.772775 417 
727.193237 1997.224609 18.169537 418 
464.953796 2122.198486 11.967299 419 
651.584045 2028.606689 11.930334 420 
567.687378 2208.198975 12.157894 421 
1175.844116 1706.683472 50.498314 422 
1423.929321 1770.854126 70.679688 423 
348.538361 2139.895020 4.619507 424 
479.631348 2076.767334 5.979475 425 
883.395142 2219.252686 4.078237 426 
1286.013794 2219.961182 3.995440 427 
569.696167 1848.974976 3.920786 428 
551.776367 2203.120605 4.863656 429 
751.595520 2129.187744 5.229589 430 
948.025146 2166.684814 5.424676 431 
859.241821 1831.104614 5.122608 432 
478.200287 1886.771851 5.516889 433 
530.307251 1945.885254 4.905442 434 
1101.475708 2033.658447 4.585132 435 
568.295227 1964.972900 5.166695 436 
507.414093 2276.503662 4.525916 437 
922.358704 2297.482910 4.280238 438 
685.621582 2013.953979 3.729617 439 
1063.557861 2005.685913 4.200674 440 
583.392578 2059.578125 5.471182 441 
540.473755 2283.941895 6.331768 442 
625.323425 2164.917236 5.569790 443 
815.429932 2251.467041 6.262784 444 
871.843262 2269.632812 6.277949 445 
1760.342529 1956.832520 6.154460 446 
422.817932 2139.869873 10.559460 447 
350.025238 2115.254883 6.353356 448 
469.482574 2017.242310 7.429718 449 
686.479065 2087.166748 7.503770 450 
672.989929 2193.729248 6.840259 451 
733.754883 2186.683105 6.442898 452 
687.009277 2334.055420 4.738644 453 
503.854309 1990.529053 6.723885 454 
652.695862 2076.228027 6.218810 455 
2058.575439 2333.481201 6.796863 456 
460.018707 2208.546631 7.992884 457 
853.026672 2167.684326 6.020313 458 
850.905640 2250.799316 5.757028 459 
889.908264 2233.507324 10.264306 460 
415.735809 2084.285156 6.948575 461 
501.314392 2042.376709 6.640580 462 
688.865723 2043.474609 6.439166 463 
948.399353 2253.557617 4.929819 464 
445.137329 2071.010742 5.092199 465 
840.043396 2223.149170 5.425433 466 
1340.552979 2257.522705 5.338957 467 
2260.083252 1101.920898 8.032513 468 
619.938843 1625.875977 4.704159 469 
559.424988 1838.708252 4.928280 470 
907.287781 1865.886597 4.527183 471 
1037.881836 1973.826416 4.689503 472 
2209.202637 769.030701 11.079098 475 
2406.381836 932.855042 6.772204 485 
2640.631348 199.643311 8.901729 560 
1719.573486 1581.528564 16.198977 576 
1142.782715 2080.519043 3.617558 629 
1269.418457 2410.250732 5.404325 675 
1210.656128 2457.014160 4.073754 684 
1398.217407 2316.179932 3.824561 693 
1117.157104 2491.064453 4.929290 778 
1074.238525 2398.293945 5.414987 779 
992.334106 2331.900635 4.557210 780 
925.236511 2028.385742 6.229571 781 
1324.482422 2232.819824 5.097956 782 
1049.777954 595.688171 4.694721 783 
999.677551 2359.162842 5.877503 784 
964.792969 2366.269531 4.827879 785 
874.574768 428.897430 3.802382 786 
875.887878 545.621948 4.894400 787 
879.049500 2117.186035 4.538414 788 
1032.899170 2216.732178 7.335701 789 
959.229187 423.175720 8.314646 790 
934.068665 2204.405518 9.951243 791 
937.379578 2414.877197 9.571525 792 
1033.546021 2408.529785 10.872473 793 
1997.217407 2171.310303 14.474213 794 
1400.717285 2416.946045 9.158780 795 
2458.876709 627.274231 8.216005 796 
1178.865723 1249.032104 20.495436 797 
1086.454224 1256.504639 18.439518 798 
1189.110352 334.798126 3.716357 799 
1153.938477 458.496490 4.136451 800 
1138.156616 311.420563 4.644622 801 
1108.586548 571.193665 3.886715 802 
1053.903076 579.306091 4.310163 803 
2966.088379 1481.625366 4.228805 804 
941.466248 706.824707 3.497983 805 
1364.415161 310.859131 5.232424 806 
1166.051636 364.596497 5.422247 807 
1015.630981 2437.914551 5.940008 808 
929.131165 410.852112 4.375707 809 
1317.989380 2257.123779 5.667591 810 
1024.383911 396.717834 5.822227 811 
998.572388 2396.671387 3.917461 812 
943.725647 400.401245 3.713141 813 
920.716003 2447.608398 4.742892 814 
950.284851 759.390808 8.149073 815 
1077.756714 551.057739 4.518170 816 
1104.120972 2254.302490 3.816249 817 
923.909058 687.058044 5.716270 818 
939.154297 2152.042480 4.276851 819 
945.971985 2296.913574 5.784408 820 
1288.523438 2331.055664 6.554816 821 
1182.794312 2490.222656 4.989695 822 
1103.307983 545.599976 4.679034 823 
890.897705 531.189758 5.738316 824 
875.607544 767.029480 5.225090 825 
891.047607 2083.588867 5.099634 826 
901.260498 2421.843506 4.589331 827 
1297.653687 2417.791016 4.749888 828 
1205.933472 400.478516 3.884742 829 
1185.522705 2128.339600 3.699588 830 
1026.530273 569.730530 4.075570 831 
1055.535156 2404.196777 3.778383 832 
1008.888367 688.312683 4.466662 833 
990.911255 635.498779 3.660973 834 
880.645325 2376.993896 3.978712 835 
1063.958252 2474.229492 4.357710 836 
1008.719116 379.594147 6.606044 837 
967.940552 1933.147827 4.182580 838 
981.130554 2306.835938 4.951437 839 
929.674011 381.218903 6.017978 840 
890.077393 414.411255 5.375232 841 
1178.176147 508.181366 5.115540 842 
1134.096436 2506.607910 4.850357 843 
1089.390625 2469.373779 4.835126 844 
936.981995 2044.144043 4.206250 845 
919.070190 2114.909912 4.262570 846 
893.868225 2337.914062 6.085227 847 
994.076172 2198.025879 3.660736 848 
1346.440430 2501.560059 4.396059 849 
1258.628174 2424.982666 4.360180 850 
1035.092285 2324.701172 3.903769 851 
1487.299438 218.798431 3.732075 852 
1283.304199 354.957825 3.914959 853 
1016.202759 2383.174805 4.367875 854 
915.348022 2351.731445 3.583505 855 
2353.992188 308.700470 4.452122 856 
1299.394897 331.607666 4.031152 857 
1312.958618 2467.820557 3.736702 858 
1114.507935 294.351898 4.106663 859 
2672.273438 2468.339600 4.043896 860 
1373.223389 2275.631348 3.360556 861 
1126.148438 548.310303 3.646076 862 
1380.458496 289.958069 6.236940 863 
1155.675415 2498.994873 4.806468 864 
1116.629150 2504.767090 5.433275 865 
1032.075928 2435.052246 5.486914 866 
984.715881 2185.785400 6.605784 867 
950.584290 2368.065918 5.255147 868 
1105.423462 370.631195 5.189851 869 
1094.407715 535.180054 5.041932 870 
1114.202881 2264.056396 4.387881 871 
1014.547424 675.445984 5.772281 872 
1025.653809 1995.426270 4.260337 873 
873.844727 505.721497 4.583664 874 
862.448120 736.131958 4.226949 875 
948.158325 682.688110 10.362348 876 
1140.144897 366.292603 9.570846 877 
1190.395020 2137.587402 3.919823 878 
1142.731689 2279.139160 3.864627 879 
1049.846802 2395.946045 3.863318 880 
961.694641 740.833862 3.632303 881 
2849.224365 1681.933228 5.169468 882 
2142.413818 991.606018 5.687755 883 
1184.925781 2328.550293 3.817940 884 
1064.277710 552.695557 4.429589 885 
1367.302856 361.968323 4.347489 886 
1205.000854 277.873047 4.906703 887 
1096.889038 2450.933350 5.214485 888 
1014.806458 2365.486572 6.677036 889 
975.180664 2294.739746 5.339854 890 
940.628967 2283.038574 5.887447 891 
879.368225 466.697479 4.275411 892 
869.210876 809.198059 4.845158 893 
881.743408 2074.304199 5.392205 894 
1209.100098 2474.306396 4.467560 895 
1079.288574 2382.000488 5.034234 896 
984.060669 416.383698 5.343078 897 
986.151611 480.608948 5.957700 898 
945.495178 384.680939 6.302270 899 
909.823975 2124.906494 4.366572 900 
1000.859436 1956.368652 6.375688 901 
908.928040 734.433716 6.569856 902 
1290.115845 388.420807 5.013797 903 
1176.864502 336.907471 5.215535 904 
1160.268311 508.410828 6.491457 905 
1195.322266 2490.790527 4.855293 906 
1132.544189 362.291626 4.462874 907 
986.625854 2264.632812 4.953380 908 
985.488403 2433.723389 5.272598 909 
886.039978 753.901306 6.127643 910 
1269.112427 436.656708 6.936630 911 
1306.169678 2456.947754 5.045466 912 
1301.795044 2478.351074 6.468221 913 
1223.360474 2456.335693 4.751607 914 
1095.347290 2486.941162 6.131464 915 
998.767151 347.459412 6.561216 916 
981.327759 671.649109 6.517272 917 
967.971436 2410.964111 5.667299 918 
922.644226 518.054871 3.712057 919 
886.494446 430.923340 4.726339 920 
896.755127 2322.526611 6.760863 921 
1007.325317 2457.243652 6.670961 922 
2640.695801 1062.684570 7.342197 923 
1042.169556 585.619385 4.347052 924 
951.368652 658.060791 3.664528 925 
1022.516479 978.223267 9.834027 926 
980.731384 2396.072998 5.739116 927 
893.947632 399.905457 3.787278 928 
1123.588013 2069.949707 5.676189 929 
1164.148071 2340.576660 5.608689 930 
968.426147 2381.417236 5.107383 931 
926.200562 2348.389404 5.334029 932 
927.602112 2456.528809 5.151941 933 
1281.149414 2505.973389 6.150597 934 
918.058350 2103.175537 3.900785 935 
1157.522217 2290.189697 3.776838 936 
970.891052 708.240723 3.568868 937 
2680.653076 2309.487549 5.503812 938 
1286.245728 366.953918 4.078100 939 
1262.482544 401.973389 4.411279 940 
968.138611 721.060913 3.605851 941 
900.969482 1890.754272 3.659701 942 
1200.025391 334.744202 3.916596 943 
1117.031616 526.621338 3.799362 944 
1133.978638 2428.406494 3.724269 945 
1198.737915 2455.974365 4.011440 946 
1066.358887 2362.232178 3.760685 947 
1019.903625 622.097168 4.112191 948 
1003.054932 584.409607 3.983653 949 
1003.407349 2192.887451 3.739596 950 
941.175415 455.251678 3.891535 951 
1275.046265 398.460510 4.597270 968 
974.095947 468.409058 5.389413 973 
1018.508057 590.278809 6.146225 977 
1124.267456 324.113831 5.571997 1016 
1391.367920 309.363739 6.333190 1019 
1013.426697 340.847870 6.507260 1022 
1154.194092 337.170929 8.834808 1025 
1261.890381 252.826523 4.034413 1029 
1395.708862 274.205444 4.307250 1038 
1205.903442 440.402100 4.942099 1041 
1043.037109 397.640747 6.981410 1062 
1128.420288 337.702179 4.597939 1079 
1442.072632 268.916992 4.284758 1080 
1391.760986 293.443604 3.958233 1084 
2074.529297 1061.010498 4.934487 1112 
3672.528564 2414.078857 5.221104 1115 
2602.197021 1807.116699 4.028573 1172 
1236.544067 2159.670654 4.615287 1187 
2928.729736 1072.098022 7.957749 1211 
2113.386963 710.967773 14.762352 1212 
1786.237427 1555.767822 10.047788 1213 
1318.663208 1442.053711 6.152426 1214 
1578.581787 374.692963 4.755872 1215 
2385.910156 2009.682617 6.634435 1216 
1819.008667 106.900955 8.180336 1217 
1219.076782 980.799988 14.071039 1218 
1741.433228 1036.136475 12.537434 1219 
1677.944946 2408.396973 7.579540 1220 
1451.997559 208.265305 5.997221 1221 
2520.113037 2005.958008 11.920941 1222 
791.918213 364.234985 7.482428 1223 
422.876190 427.299133 7.839711 1224 
598.502869 548.938904 12.065145 1225 
739.242554 432.503845 7.805543 1226 
842.202087 433.182678 12.461939 1227 
817.635681 325.473022 7.274231 1228 
715.046509 383.551361 7.724001 1229 
830.339905 389.174561 9.248433 1230 
699.387939 917.065674 7.491332 1231 
2723.691406 2198.487061 10.359043 1232 
2795.407715 2144.891846 3.702008 1233 
655.018188 212.695267 5.786714 1234 
742.968933 471.360657 5.820199 1235 
1197.312622 469.477081 5.730989 1236 
2634.474365 2395.910645 6.537936 1237 
1659.834595 77.558609 3.907594 1238 
585.164917 232.955063 4.637855 1239 
1204.391235 425.819000 4.576365 1240 
496.340363 456.091492 4.455070 1241 
689.154907 490.709808 4.305514 1242 
933.020813 519.523438 4.424159 1243 
817.209534 580.063354 4.863535 1244 
744.224243 612.219604 4.897770 1245 
482.993866 440.667023 7.026213 1246 
919.335876 443.286163 9.618727 1247 
992.978943 439.205933 7.070916 1248 
650.484924 503.111298 10.077003 1249 
608.838684 632.319519 9.231730 1250 
530.250122 340.008301 7.956578 1251 
1202.228394 524.891968 10.024046 1252 
740.514832 292.341949 9.651523 1253 
949.930664 357.072632 9.666234 1254 
402.647949 406.884216 7.245755 1255 
803.985474 475.167603 8.048075 1256 
490.767242 663.231750 8.568579 1257 
630.589661 663.314453 8.741284 1258 
566.589294 798.732605 6.996990 1259 
1548.598877 157.388916 4.813045 1260 
575.589966 319.346161 4.433641 1261 
1257.399902 412.423859 3.682737 1262 
1195.737671 445.647552 4.353539 1263 
847.648499 478.270813 4.645417 1264 
811.437805 509.174530 5.814791 1265 
793.321106 862.387146 4.091280 1266 
716.990295 894.070007 4.090456 1267 
2732.722900 1855.021606 3.734797 1268 
666.899414 464.101654 6.138566 1269 
865.941772 465.277435 6.238845 1270 
677.875977 531.205444 7.050220 1271 
401.290161 560.402893 5.872068 1272 
697.239990 683.268555 6.675907 1273 
2638.272217 2317.613525 7.011241 1274 
1425.744629 241.116470 4.366918 1275 
767.626038 367.632416 4.139254 1276 
542.689331 463.557709 3.818991 1277 
598.347229 465.232056 3.597326 1278 
401.417725 497.562897 5.077312 1279 
521.170715 497.383057 4.076606 1280 
591.031311 561.101440 4.197233 1281 
975.022156 651.762756 3.865421 1282 
2869.595703 2341.727539 6.039012 1283 
856.859131 290.715515 5.290654 1284 
1356.469238 288.260803 3.909165 1285 
596.582947 447.716492 3.798339 1286 
541.747131 514.251282 4.306982 1287 
666.183350 762.527283 4.583220 1288 
793.150879 827.045959 4.049181 1289 
499.012512 392.840576 5.912804 1290 
830.481506 458.724152 6.158644 1291 
760.341248 589.257507 5.774900 1292 
1371.273315 84.814148 5.257002 1293 
1544.376587 181.235535 4.706332 1294 
550.349487 308.906799 5.388969 1295 
852.383972 342.882721 5.628253 1296 
810.631287 435.747284 5.533635 1297 
738.070740 534.843872 3.574831 1298 
774.558105 533.242554 3.898722 1299 
761.092468 566.168701 4.289927 1300 
460.121246 625.692383 4.792106 1301 
679.949036 657.977722 5.324130 1302 
698.499817 721.774414 3.998009 1303 
957.444092 722.761902 4.098916 1304 
886.625427 786.885986 4.295804 1305 
2628.946533 2295.739258 5.148209 1306 
1441.024902 220.936005 6.006379 1307 
861.082581 253.319992 6.003608 1308 
677.104309 731.445862 5.686326 1309 
857.540283 797.781006 5.865972 1310 
1457.280762 110.151398 5.163329 1311 
1520.753540 174.872803 5.600251 1312 
1476.556885 205.848541 4.442496 1313 
650.163452 236.284363 4.360080 1314 
1375.571655 331.922943 3.677600 1315 
693.216797 461.365753 5.426517 1316 
726.716736 460.817596 4.907643 1317 
2763.183594 2110.037842 4.626497 1318 
627.917542 224.088501 6.372625 1319 
818.773987 292.265503 5.790690 1320 
1221.316895 447.490845 6.165455 1321 
477.707672 483.092010 6.760989 1322 
515.815491 642.612549 5.773790 1323 
800.192871 642.047058 5.781547 1324 
1508.336426 155.215530 3.945015 1325 
610.610657 281.040771 4.735972 1326 
803.257568 312.630066 4.962507 1327 
571.212952 345.696014 5.494604 1328 
762.282776 347.114014 3.934570 1329 
525.507568 408.574310 5.710588 1330 
452.425537 504.169403 5.221002 1331 
752.054810 504.803772 3.724747 1332 
774.805603 505.463165 4.888890 1333 
707.672058 536.711060 5.421022 1334 
816.796753 535.431946 4.339232 1335 
503.921082 628.838684 4.146466 1336 
617.906372 660.911194 3.752589 1337 
544.402344 692.920959 4.505522 1338 
888.147095 693.602112 4.420102 1339 
2810.368164 1840.772705 4.333058 1340 
446.176422 396.816742 6.031864 1341 
458.380737 460.164246 5.832102 1342 
547.339417 492.940155 6.366696 1343 
838.482117 495.342255 5.880934 1344 
632.257019 526.069946 5.840779 1345 
2629.729248 2263.196533 4.385089 1346 
2669.574951 2265.052490 3.929407 1347 
3144.299072 2360.633545 4.447313 1348 
2527.964355 2456.667480 3.716640 1349 
778.264221 326.201263 6.810715 1350 
460.671997 422.964813 6.001179 1351 
604.456909 485.919891 6.392044 1352 
777.082336 644.487000 6.307279 1353 
597.232605 772.378174 5.815724 1354 
616.757568 804.205383 6.067412 1355 
1675.216919 68.135246 5.083901 1356 
1500.491333 198.986053 4.811173 1357 
504.637421 357.536285 5.106472 1358 
602.980042 356.756042 4.375885 1359 
869.881226 358.902832 4.578164 1360 
424.754517 388.976715 4.816621 1361 
474.735870 516.947083 5.600469 1362 
634.118042 704.644470 4.930583 1363 
694.620117 864.523132 4.164673 1364 
2998.387451 2382.120605 4.643455 1365 
2630.365967 2412.676514 5.267479 1366 
600.360718 378.559570 6.348063 1367 
579.106140 505.620514 5.707575 1368 
658.187378 792.270630 6.175607 1369 
819.145203 488.587524 8.832438 1370 
2672.634521 2485.199219 9.251465 1371 
909.126038 502.413086 11.922082 1372 
789.032288 627.407898 7.863246 1373 
626.020996 687.650024 8.038229 1374 
692.157227 891.660278 9.756480 1375 
2789.199951 2360.437500 7.990761 1376 
860.459839 384.289185 9.490328 1377 
1028.094971 447.577209 8.105863 1378 
630.493591 577.083801 8.090564 1379 
2021.578003 337.112579 26.804319 1380 
1339.014160 822.076111 52.327038 1381 
2882.134277 2431.737549 3.905673 1382 
734.300476 315.184509 7.014026 1383 
840.814941 405.053864 6.117226 1384 
545.867065 532.882629 6.621140 1385 
757.433350 534.379578 6.141811 1386 
867.752808 531.378845 6.995265 1387 
660.835083 726.474365 6.639308 1388 
1569.864624 105.190414 3.441081 1389 
1448.398926 233.511520 4.164781 1390 
806.625427 298.585175 4.161527 1391 
408.668488 425.277832 4.632816 1392 
960.861328 458.742035 4.088253 1393 
819.887451 522.568787 4.819778 1394 
519.143066 581.748596 5.198281 1395 
845.249634 579.811218 4.838094 1396 
1000.325623 611.881226 4.833415 1397 
966.252075 644.491760 4.761745 1398 
992.471741 707.842773 4.262712 1399 
828.447998 835.550720 5.082839 1400 
542.000427 712.906250 6.271576 1401 
3007.212891 2409.372559 6.331431 1402 
621.137573 376.312256 7.866267 1403 
808.772522 378.425354 7.961111 1404 
760.555115 445.552673 9.400238 1405 
874.089600 444.077850 8.867579 1406 
678.919983 503.483429 8.762465 1407 
697.568176 631.439819 8.410932 1408 
491.022461 470.362976 7.498982 1409 
785.325500 661.580750 8.403079 1410 
3059.599609 1355.923828 8.408989 1411 
543.908752 358.210724 7.870259 1412 
444.592041 417.297485 8.532983 1413 
718.222046 416.384033 9.075717 1414 
909.234314 419.892853 9.675128 1415 
925.596802 543.282349 7.589448 1416 
2610.563477 2399.546143 10.811665 1417 
837.684814 285.419525 9.398117 1418 
805.492188 414.017181 8.410107 1419 
653.854126 728.156677 10.444653 1420 
1477.569092 94.109879 3.645689 1421 
1472.247925 189.321793 5.081511 1422 
882.054932 254.770233 5.498778 1423 
1421.910400 253.631866 4.273744 1424 
526.212402 285.169403 3.860014 1425 
1377.098755 318.553375 5.179062 1426 
774.130981 349.787750 5.496024 1427 
764.400757 411.722137 5.103272 1428 
947.634827 412.241821 4.775366 1429 
497.815308 444.498932 4.413529 1430 
723.218262 447.254181 4.214663 1431 
551.404236 478.058807 5.298701 1432 
649.479675 478.746094 4.926995 1433 
624.734070 542.280579 5.600839 1434 
691.849976 542.933044 4.737938 1435 
409.402039 573.580200 4.763606 1436 
751.763794 575.228210 4.893160 1437 
912.474915 700.446289 4.544388 1438 
709.814575 861.667542 5.053612 1439 
753.443115 368.243042 6.439160 1440 
421.045715 401.964478 6.315186 1441 
848.438538 463.592285 6.369349 1442 
439.736725 594.031372 5.971489 1443 
860.003967 781.652161 5.939962 1444 
1476.278076 115.643341 3.533475 1445 
599.300415 433.380829 5.700877 1446 
473.670959 622.477600 4.762814 1447 
755.737427 623.043579 5.535350 1448 
523.853943 781.491394 4.998417 1449 
692.620911 876.180481 4.006415 1450 
1552.396118 194.181152 3.859239 1451 
645.119202 224.197845 4.721729 1452 
466.671906 449.973358 5.304230 1453 
662.607300 448.876984 5.334987 1454 
731.119995 480.666809 5.423527 1455 
591.697083 633.036438 4.917447 1456 
630.388123 632.533875 5.258420 1457 
2779.029785 2308.182373 4.040741 1458 
2916.524170 2311.086426 3.805950 1459 
1489.900513 66.144142 6.989295 1460 
540.586060 747.839905 6.448651 1461 
1437.781006 246.352814 4.037365 1462 
715.930237 468.511841 5.029502 1463 
466.900970 499.812592 5.304406 1464 
601.911438 534.775757 4.268734 1465 
726.761230 534.482727 4.713500 1466 
1071.585571 535.271301 3.660367 1467 
697.067322 380.136780 6.248648 1468 
842.567505 510.231750 5.757143 1469 
1121.888794 574.357971 5.937856 1470 
1036.327271 606.517761 6.916867 1471 
1553.850708 174.152084 3.755489 1472 
668.413940 205.126236 4.987208 1473 
748.291199 270.848572 4.647583 1474 
1217.304810 431.212128 4.945771 1475 
580.922424 524.127747 4.827073 1476 
1174.177979 526.391785 4.185061 1477 
647.078674 711.778381 5.453351 1478 
842.105286 744.191833 3.943719 1479 
699.286072 974.007019 4.491475 1480 
2658.913818 2268.769287 4.119310 1481 
817.673096 448.324066 5.876014 1482 
826.835510 544.489441 6.031743 1483 
611.790283 607.269958 6.855241 1484 
888.875793 706.610718 6.006814 1485 
758.049683 832.218567 6.308863 1486 
1534.534912 186.953171 3.992065 1487 
575.293213 250.633652 5.121497 1488 
1424.107666 281.815613 4.195423 1489 
813.529663 344.439575 5.068449 1490 
510.814270 376.776978 4.898737 1491 
955.309692 441.110321 4.132968 1492 
1200.289429 504.653931 5.282333 1493 
1131.420898 538.644653 5.234276 1494 
456.309631 599.152039 5.571126 1495 
524.507324 630.374084 4.367388 1496 
631.791138 757.254272 4.842467 1497 
679.099670 756.949158 4.246719 1498 
782.657593 855.013245 4.269979 1499 
674.473145 885.905334 4.157313 1500 
727.026062 884.604858 5.069069 1501 
3092.137451 2280.873535 5.163559 1502 
2948.673828 2499.800537 5.266320 1503 
506.086548 491.508636 6.564617 1504 
488.453644 526.078552 6.093734 1505 
471.228485 585.187439 5.987977 1506 
997.647278 647.571045 6.297931 1507 
2991.561035 2235.284668 3.883769 1508 
1342.439331 74.253418 5.837394 1509 
662.218201 227.801941 5.800250 1510 
715.256897 326.261902 6.303791 1511 
580.815125 357.989929 6.485462 1512 
478.047424 419.744171 6.040185 1513 
970.369446 452.756958 6.483590 1514 
889.473022 549.593689 5.974113 1515 
869.557007 294.143799 5.181357 1516 
857.722290 356.834961 4.105095 1517 
734.381470 388.354065 4.045899 1518 
863.382446 483.757843 5.364403 1519 
457.490936 515.993652 4.192798 1520 
499.624390 641.134460 5.290079 1521 
528.219238 672.589600 5.221613 1522 
581.566528 801.428406 4.775669 1523 
637.327881 210.712784 5.687357 1524 
786.882324 473.004791 5.920857 1525 
1631.333130 89.212166 7.152784 1526 
1566.129272 138.583954 4.076638 1527 
1430.880005 266.652344 4.622435 1528 
1138.085205 552.644836 4.699199 1529 
668.890381 905.329651 7.600967 1530 
1077.842529 266.438843 9.147814 1531 
1264.800781 262.539642 8.475362 1532 
1392.186401 269.779694 8.011655 1533 
1911.814819 1898.626343 8.493876 1534 
1315.827393 158.198883 7.649516 1535 
1115.071533 189.157227 3.692249 1536 
1213.525635 286.226959 3.807383 1537 
1341.208740 145.518555 4.503186 1538 
1565.122559 178.099182 4.113050 1539 
1114.499268 210.079712 5.300475 1540 
848.046204 716.176697 3.641896 1541 
1394.202881 161.957733 3.816879 1542 
1152.782837 195.129227 4.313367 1543 
1295.537842 191.921555 4.850063 1544 
1072.827026 289.840271 4.076750 1545 
1454.880005 85.786476 3.677293 1546 
1043.468018 277.508575 4.551386 1547 
1552.550415 108.417587 3.878198 1548 
1252.284546 140.608047 3.667000 1549 
1284.853638 135.367004 6.293944 1550 
1121.871460 353.993683 6.487930 1551 
1364.026123 123.616013 3.913093 1552 
1390.205078 185.327545 3.872255 1553 
1411.342651 106.276619 6.562334 1554 
1286.144287 164.139313 4.436540 1555 
1138.902832 231.404602 5.167539 1556 
1453.304565 262.387665 3.664246 1557 
1155.592163 154.832077 5.681397 1558 
1589.850830 104.889359 4.600706 1559 
1053.002441 265.228363 5.053877 1560 
1161.302979 264.652466 4.270572 1561 
1196.639282 297.539093 3.930120 1562 
1110.142944 426.389252 5.001682 1563 
1511.996582 1128.034912 7.065921 1564 
1098.004883 393.015564 8.081125 1565 
2447.425049 2322.437012 8.183739 1566 
1407.547974 253.247299 3.467001 1567 
1181.389648 125.836670 6.455657 1568 
1164.401855 184.887619 5.943808 1569 
1373.312866 72.224182 4.720080 1570 
1419.711914 74.912376 4.144269 1571 
1367.742432 144.133499 3.626290 1572 
1368.944458 178.637741 4.182798 1573 
1396.092407 176.685318 4.348882 1574 
1245.693726 240.008942 4.331285 1575 
1380.406128 159.937302 5.210223 1576 
1445.903198 98.887161 6.761209 1577 
1268.573975 86.550499 5.138352 1578 
1330.302124 148.160080 4.214594 1579 
1555.924072 148.009003 3.890831 1580 
1218.706055 276.707306 4.447598 1581 
1599.560791 142.713516 3.818755 1582 
1240.380493 172.332748 5.025356 1583 
1409.051025 271.205750 4.544374 1584 
1226.983643 288.605591 6.517022 1585 
1284.987183 66.364601 4.711290 1586 
1375.421143 122.815491 4.849639 1587 
1176.194702 155.283524 3.756145 1588 
1134.550781 217.911301 4.215637 1589 
1542.864502 132.777222 4.283188 1590 
1568.642700 166.661652 3.888904 1591 
991.557190 263.544525 3.747105 1592 
1042.541382 294.119354 4.466885 1593 
1631.864502 89.438942 7.441039 1594 
627.517883 1169.371826 19.580372 1595 
687.773743 982.291443 19.172495 1596 
2984.750732 1108.389404 6.897882 1597 
1593.796997 123.976448 8.672488 1598 
1273.969727 134.327911 7.941637 1599 
2515.820557 2152.368896 10.401861 1600 
1354.781982 163.798615 9.815668 1601 
1617.771240 150.773544 10.846244 1602 
1651.451538 55.892933 3.354272 1603 
1258.390259 93.793968 4.692725 1604 
1244.972656 157.740646 4.966744 1605 
1460.067017 188.150375 4.028067 1606 
1370.995605 59.781498 3.964326 1607 
1389.833862 73.903061 4.641922 1608 
1270.803711 115.075012 3.959769 1609 
1216.812988 177.811813 5.680587 1610 
1224.457397 207.620636 4.628698 1611 
1230.391602 400.466766 5.101775 1612 
1198.652344 98.453804 4.276079 1613 
1423.380249 130.892639 4.217283 1614 
1699.933105 40.484230 3.720292 1615 
1332.055420 82.815140 3.643142 1616 
1247.923096 182.951233 4.461946 1617 
1487.000977 83.443703 6.258214 1618 
1273.421143 190.226898 5.987126 1619 
1231.038208 111.219627 3.652145 1620 
1268.569092 64.798485 5.698609 1621 
1194.858521 756.232910 5.468486 1622 
1203.250610 201.899445 7.218490 1623 
1300.613281 71.381752 5.051364 1624 
1232.211548 101.409386 4.871688 1625 
1327.913330 314.524658 6.581047 1626 
2100.502441 1228.205688 12.807922 1627 
1348.438232 113.707535 8.366621 1628 
1378.970337 155.886154 7.494565 1629 
725.740234 921.013611 8.974221 1630 
1258.108032 125.336639 4.592330 1631 
1199.461548 411.676147 5.728399 1632 
1230.029663 61.013046 3.896040 1633 
1203.790405 146.397964 4.680815 1634 
1270.456787 243.378098 5.383865 1635 
1218.329102 498.550537 4.584497 1636 
1371.854492 38.765831 4.078555 1637 
1617.815918 130.520050 5.014174 1638 
1219.153198 193.953781 5.492790 1639 
1339.917725 225.501709 4.057800 1640 
1306.018921 131.554855 6.722893 1641 
1321.751709 85.530273 4.204325 1642 
1279.332031 150.536880 4.855290 1643 
1279.864746 276.404602 4.352958 1644 
1242.471558 109.853119 4.862783 1645 
1201.836548 237.585159 5.271516 1646 
1646.445312 68.391289 6.306976 1647 
1185.685425 197.590775 6.099031 1648 
1422.620361 90.717766 4.300261 1649 
1677.320557 90.640015 3.650803 1650 
509.669098 1141.613403 5.003717 1651 
415.412140 1359.638062 5.166381 1652 
1257.307617 71.401115 4.927064 1653 
1523.488403 69.476410 3.753277 1654 
1267.486694 103.322594 3.682644 1655 
1150.260498 490.913635 7.811743 1656 
2575.624023 2058.812012 11.986237 1657 
500.429626 853.776245 6.099782 1658 
2840.951416 1802.927246 5.854204 1659 
338.587402 744.496399 7.700403 1660 
2655.988525 1583.225220 10.716736 1661 
1000.317383 255.379913 5.292586 1662 
965.080627 286.926971 5.634256 1663 
1042.517700 354.441040 5.610187 1664 
2746.948975 1875.359375 3.690305 1665 
1306.979004 407.208008 5.303504 1666 
783.863220 413.108368 7.050045 1667 
747.293335 523.408752 6.303048 1668 
675.587524 681.344299 9.527087 1669 
1105.403931 260.706696 7.821679 1670 
1063.886719 246.821411 5.642694 1671 
938.058838 314.380524 6.379310 1672 
1135.697998 249.593903 7.733168 1673 
738.128052 631.123840 7.369203 1674 
1610.767822 1855.459106 11.902842 1675 
1096.374512 223.183685 3.996601 1676 
1228.552856 464.911224 6.146080 1677 
1516.219360 144.652115 4.523902 1678 
1142.288574 273.865662 4.062053 1679 
989.109131 450.618530 4.068513 1680 
1514.059082 192.813782 6.064195 1681 
648.505676 653.645142 5.891367 1682 
1295.868408 343.218567 5.073437 1683 
1091.621338 286.188080 5.963628 1684 
940.883667 427.650238 4.749372 1685 
1109.227295 555.356018 3.651010 1686 
618.996887 649.463501 5.120519 1687 
2047.600342 2141.973389 5.676771 1688 
1238.526978 439.780731 4.992912 1689 
482.945984 853.432922 4.803960 1690 
617.228516 455.337585 6.141902 1691 
1652.811523 102.176559 5.378113 1692 
632.178955 506.981262 6.041458 1693 
712.553772 568.845581 6.910443 1694 
343.387054 761.364990 6.133533 1695 
991.703979 1247.708618 21.330778 1696 
1300.792725 782.876770 7.575972 1697 
1473.602783 455.655212 7.458449 1698 
2068.341309 1837.368896 13.658636 1699 
1681.271606 1553.932617 5.039092 1700 
1905.255737 1185.514404 43.572781 1701 
2696.148438 268.696442 11.381108 1702 
981.488708 549.605957 3.856406 1703 
3736.225586 625.336792 7.479796 1704 
3170.807861 298.664246 7.200403 1705 
2285.620361 709.018311 10.029752 1706 
2616.788818 1619.568115 43.187355 1707 
2218.593506 1676.184448 52.405678 1708 
3740.250244 970.654968 5.899682 1709 
1568.511597 189.238571 3.631532 1710 
2791.979248 694.229187 3.858921 1711 
1741.640625 895.635864 4.687338 1712 
267.817871 1334.913940 8.553225 1713 
1773.597778 2140.974854 11.073071 1714 
2709.417480 592.254578 8.990724 1715 
1641.563232 1608.816284 13.897169 1716 
989.259216 1639.669067 10.500785 1717 
528.674500 464.852051 12.612221 1718 
405.899841 997.497131 3.549443 1719 
443.700897 1761.274292 16.099218 1720 
325.775696 1736.323242 7.835367 1721 
1328.186035 873.347168 10.270675 1722 
443.477539 1189.276001 9.196705 1723 
2557.070068 1329.430054 8.610806 1724 
1456.912720 1226.012939 4.313430 1725 
2555.290283 1767.733154 6.933321 1726 
2817.539795 505.628601 5.279564 1727 
2135.834961 2247.492432 22.371429 1728 
1897.799072 1482.078369 9.157639 1729 
74.938919 2373.639648 4.530522 1730 
2527.523926 1753.567139 6.385839 1731 
2667.672119 1791.669189 4.135968 1732 
1692.059937 1502.320557 7.464213 1733 
2184.048340 2278.652832 16.133051 1734 
2229.365723 188.583710 9.477727 1735 
1085.176270 1146.882080 66.468315 1736 
539.017883 2146.612061 3.865441 1737 
2609.010986 2297.041504 5.767453 1738 
2551.723389 2363.576416 6.756355 1739 
2658.628662 478.778442 5.304640 1740 
186.321671 1142.978271 3.943585 1741 
2595.801270 2395.025879 3.579072 1742 
2249.722900 729.053223 6.884724 1743 
2761.098389 1069.181152 12.680885 1744 
1228.402588 796.477051 5.767213 1745 
348.761230 1463.705566 6.186250 1746 
2327.094971 506.954834 6.481604 1747 
2269.048584 602.547119 6.328511 1748 
2101.271484 1229.736694 13.945918 1749 
287.793365 1428.015747 9.125840 1750 
2136.558838 2195.898926 6.132688 1751 
1299.467163 420.935516 4.459208 1752 
729.651367 1934.508423 21.277479 1753 
489.229797 1476.033325 7.814396 1754 
668.608032 1573.991821 7.296445 1755 
1740.954102 1960.956299 5.751010 1756 
2990.115234 894.259460 6.361878 1757 
1335.655151 2156.935791 6.592142 1758 
590.714905 1880.647217 3.975919 1759 
1913.015259 1333.523560 41.930054 1760 
1303.661987 2210.771240 5.007966 1761 
2091.783447 1955.027710 3.779569 1762 
1141.321655 2187.459229 9.102419 1763 
640.699280 1936.177124 8.785207 1764 
490.744629 1497.661011 5.062945 1765 
3829.356934 773.365479 6.278093 1766 
1802.488770 423.744659 8.202937 1767 
2313.929443 1051.089844 8.954687 1768 
2977.841309 1235.247681 3.731693 1769 
3283.710938 822.429138 3.836287 1770 
799.632874 527.526428 40.296394 1771 
2459.534668 264.867035 3.588171 1772 
2532.382080 801.150879 8.783279 1773 
2377.255615 1824.076050 9.585241 1774 
1970.442505 2383.596924 6.678733 1775 
2576.935791 1665.928589 4.064444 1776 
2081.204834 239.180618 13.453478 1777 
3275.625977 2141.129150 12.986547 1778 
2461.156250 2466.863770 4.227767 1779 
753.091675 799.231567 3.912114 1780 
991.586731 589.842896 3.483271 1781 
819.705933 846.119446 5.338231 1782 
768.627014 848.256042 6.631785 1783 
699.243042 945.201538 4.096292 1784 
678.785217 873.481689 5.277779 1785 
1238.391357 376.062195 4.046659 1786 
633.540649 996.909546 6.696609 1787 
2598.644775 2286.784180 3.722762 1788 
945.803589 748.659851 4.029948 1789 
715.646667 909.296387 4.806632 1790 
906.364807 762.963501 4.608594 1791 
639.357483 984.398987 4.740952 1792 
832.568726 809.403198 4.925078 1793 
924.513428 759.306213 3.917833 1794 
1150.503540 549.583862 4.024144 1795 
2435.607666 2381.226074 3.927813 1796 
