ply
format ascii 1.0
element vertex 1015
property float x
property float y
property float size
property short id
end_header
2889.361084 2054.418213 13.620577 28 
2889.340088 2138.167236 17.108431 31 
3199.856934 1560.564575 4.178491 53 
2887.919678 2109.901123 6.508468 57 
874.601501 1346.336304 5.542335 94 
2858.733398 2060.568604 10.996038 104 
2781.853516 947.011353 31.685373 105 
2858.020752 2134.106445 8.202080 119 
2842.476318 2101.331055 6.516162 120 
2869.267578 2093.743164 17.049582 121 
2424.342041 1032.427490 65.563873 122 
1708.462402 774.640564 7.743918 124 
1994.955078 2220.108398 4.789956 125 
702.039429 1916.006226 10.324146 126 
3104.049805 1327.624390 10.279731 127 
715.859131 2184.540771 6.393720 128 
538.590698 1707.572021 11.949533 129 
778.037720 1033.631958 18.286108 130 
876.498718 1023.657715 9.991379 131 
784.388977 1268.142456 5.912449 147 
1688.765259 237.161316 4.851835 173 
2897.174316 1973.664673 8.208249 204 
2502.754150 1694.048584 6.627184 251 
814.863220 646.600037 7.359726 273 
819.022888 666.288879 7.885296 284 
2920.287354 2127.031006 7.598669 484 
3200.087402 1439.044678 4.233140 487 
3283.939453 1369.159790 4.032856 488 
789.917969 814.358093 4.196002 489 
2353.978027 1231.216187 10.000683 490 
1417.548096 821.709839 21.508488 491 
2160.807617 1924.743408 18.282412 492 
2190.346924 1094.429688 6.406078 493 
2353.805420 2064.497314 8.104530 494 
964.499451 682.384644 7.852964 495 
2617.143799 2334.479248 6.516418 496 
2531.106689 1790.433228 7.251762 497 
1810.907837 1689.968628 51.224144 498 
1430.697754 1858.431763 62.989677 499 
1273.887939 1414.183716 61.435883 500 
369.240204 1237.427490 4.840197 501 
2229.994873 1650.897461 8.616850 502 
3170.697021 2061.843506 4.362150 503 
2686.997559 2347.103760 6.636151 601 
1443.806763 1051.750977 6.592775 604 
839.153992 1846.006348 6.109671 783 
633.007263 1946.249390 6.566574 787 
582.558594 1751.176636 11.778164 790 
1986.658813 1177.798950 10.440326 796 
1501.474854 2213.839111 25.706507 797 
1431.299316 2307.925293 21.172153 798 
863.305054 1760.117798 5.418959 802 
855.296387 2056.087402 4.645780 805 
834.221313 1221.558350 6.552243 806 
546.908752 1750.715698 4.870086 813 
820.692078 1778.185669 5.650319 816 
821.540833 2056.713867 6.577402 818 
836.703247 1744.274658 5.902867 823 
632.284851 1923.503418 6.272037 824 
855.692932 2174.562500 6.220985 825 
782.634583 1494.215454 5.487657 829 
793.037720 1852.025024 4.861308 831 
516.257874 1746.269653 7.712586 840 
515.676270 1818.965698 6.881403 841 
806.034058 1359.790161 5.943123 853 
859.904602 1720.453979 5.748010 862 
826.325317 1177.744873 7.960508 863 
654.344666 1540.551147 6.837128 869 
886.398987 1953.575317 7.155059 872 
592.630249 1917.085938 6.016969 874 
818.120239 2162.426270 5.439425 875 
837.063049 2031.468994 11.866146 876 
674.422180 1490.563232 15.386956 877 
902.308899 2064.326904 4.227055 881 
558.126892 1877.613770 5.489548 892 
890.172302 2214.149170 5.662952 893 
595.992126 1716.274292 6.556743 897 
532.111511 1732.457764 7.775743 899 
854.827576 2115.333252 8.110983 902 
849.371338 1647.715698 8.806903 905 
645.395813 1875.434937 5.323896 919 
528.938965 1839.442139 6.420250 920 
819.335815 2005.885498 5.407435 925 
502.807495 1804.704834 5.988114 928 
821.813538 1371.288330 6.060161 939 
834.690063 1430.028687 5.106688 940 
789.887756 1886.993164 5.220907 949 
600.856323 1798.267456 4.459124 951 
2625.051514 489.998871 11.445021 954 
1085.355469 1144.707031 4.159710 958 
840.770020 2004.505005 6.273205 961 
615.026733 1797.843628 5.898416 962 
1871.792358 1275.985962 24.103582 963 
844.939636 1045.479858 4.553398 964 
3176.113281 2192.089844 5.548316 965 
787.763184 1777.026489 5.297530 966 
3128.276611 1842.780151 4.209443 967 
842.207092 1413.938599 6.024468 968 
789.192322 1934.004150 4.931282 969 
684.064697 1920.828613 4.559547 970 
677.078796 1983.710083 6.147423 971 
804.767944 1584.894043 7.543586 972 
636.864014 1776.132446 7.014397 973 
816.664673 950.086731 4.808064 974 
651.024719 1798.079956 5.204675 975 
687.104248 1529.621094 8.473166 976 
807.146790 1875.901489 7.624534 977 
866.876160 1952.383789 4.839023 978 
786.792053 1989.100464 5.022122 979 
666.292664 1956.222290 4.101321 980 
599.377625 1932.228027 5.456551 981 
3144.148682 1713.795654 4.321138 982 
880.905762 2105.548096 4.657148 983 
724.489563 1838.239502 5.789125 984 
2531.238037 2287.154541 8.482843 985 
850.973755 1538.732422 6.125664 986 
2980.218750 2522.253418 3.709051 987 
3168.199707 551.325439 3.890282 988 
898.436035 2137.514404 4.127168 989 
684.544434 1933.299927 4.927374 990 
1672.692505 1182.259521 3.635215 991 
617.410645 1930.594727 6.358754 992 
3100.562256 642.033020 7.193018 993 
633.933411 1824.735474 6.839628 994 
668.854797 1855.562988 6.660171 995 
871.721619 2092.268799 5.512115 996 
704.607300 1952.135620 6.599727 997 
1536.686523 2140.896973 6.499845 998 
646.208130 1937.736572 6.162498 999 
843.671265 2026.477783 4.550969 1000 
574.146057 1775.195068 4.983555 1001 
889.386719 951.356506 4.693870 1002 
715.573425 1245.339478 4.642180 1003 
881.790894 2066.892578 3.776765 1004 
3130.655273 2165.448486 4.107816 1005 
820.580200 1673.811401 4.671801 1006 
3136.485596 1863.264893 4.366574 1007 
857.123047 1190.968506 8.486651 1019 
669.016724 1452.709351 12.206497 1025 
807.649963 1132.095703 5.471272 1037 
883.090942 1493.554443 6.037396 1063 
725.244263 1636.336182 6.342758 1070 
654.532471 1727.625244 4.945874 1071 
958.403564 2187.136230 6.350536 1086 
2545.097900 1712.661743 6.177270 1106 
3031.595703 1466.342529 11.803380 1222 
381.791016 1884.548096 9.453555 1223 
136.561981 2345.486328 9.983950 1224 
406.647491 2251.825195 15.848701 1225 
404.652771 2004.525757 10.823743 1226 
493.918823 1892.274292 16.991987 1227 
361.293121 1825.822998 9.727849 1228 
339.540985 1993.606567 12.787057 1229 
438.458679 1867.029541 12.327802 1230 
850.778198 2468.424561 8.804606 1231 
3287.717529 1411.029053 10.811307 1232 
3318.654297 1302.389282 4.313193 1233 
101.278854 1909.167358 7.964690 1234 
449.731567 2031.265381 8.171143 1235 
844.036926 1569.173950 7.734838 1236 
3312.764404 1642.503906 6.578026 1237 
864.796814 606.424255 6.392583 1238 
62.749638 2007.832153 6.715573 1239 
805.655823 1518.244995 6.559153 1240 
225.623337 2288.787354 5.389756 1241 
423.822937 2107.621582 5.100967 1242 
654.485474 1863.691040 6.306704 1243 
618.092590 2044.397949 4.951972 1244 
589.496216 2143.878906 5.540976 1245 
199.776428 2289.516846 9.242870 1246 
568.629517 1812.235229 12.701252 1247 
627.565247 1727.822144 9.621634 1248 
403.265991 2158.196045 12.828174 1249 
499.783173 2305.533447 10.875605 1250 
132.129684 2157.093018 9.650958 1251 
900.892639 1613.317139 12.104063 1252 
261.349091 1879.123169 12.994676 1253 
509.448914 1703.820312 13.335404 1254 
98.350014 2349.981201 8.741632 1255 
503.741577 1970.538818 10.724778 1256 
430.434967 2453.611572 10.503400 1257 
548.855103 2303.811523 10.784936 1258 
622.614502 2472.016113 8.730195 1259 
844.103699 833.941589 7.776327 1260 
148.429688 2090.361328 5.875319 1261 
839.253540 1446.762329 5.785510 1262 
818.325134 1548.029541 5.942734 1263 
542.698425 1920.793945 5.976075 1264 
544.455017 1987.976196 8.041791 1265 
876.184204 2332.880127 4.984910 1266 
842.622437 2433.554688 4.790961 1267 
3132.357910 1150.043213 4.012252 1268 
377.588379 2110.497559 7.974342 1269 
547.072754 1891.627197 8.350262 1270 
454.004791 2151.146484 8.140541 1271 
256.086090 2472.038818 7.692428 1272 
618.684937 2250.274414 8.646569 1273 
3279.797363 1580.987305 9.768528 1274 
818.575562 1074.010132 5.884635 1275 
361.162567 1915.656982 5.971419 1276 
275.975555 2242.603027 4.677550 1277 
322.339020 2184.682861 5.075005 1278 
191.804642 2422.895264 6.983695 1279 
289.984680 2293.330811 6.076218 1280 
415.471405 2267.474854 6.742473 1281 
830.671204 1976.376831 5.733893 1282 
3467.604980 1386.949463 5.980509 1283 
358.871094 1749.560181 7.336822 1284 
804.681030 1204.945923 5.636451 1285 
303.806458 2173.187500 4.739811 1286 
324.956360 2283.674805 6.282145 1287 
666.303101 2343.588379 6.672385 1288 
845.749817 2306.426514 5.200477 1289 
163.747238 2235.270752 8.410586 1290 
509.849213 1927.306519 8.184587 1291 
580.624634 2109.379883 7.819456 1292 
593.662659 935.523682 8.654922 1293 
864.634766 867.096130 7.752868 1294 
115.765167 2109.952148 8.052242 1295 
410.682404 1802.295166 6.829996 1296 
469.474060 1928.272827 7.553830 1297 
507.732025 2086.943115 5.656843 1298 
536.543762 2045.004150 5.401531 1299 
558.700256 2090.587891 4.967967 1300 
368.722168 2456.141357 6.745562 1301 
579.384338 2246.733643 7.353813 1302 
657.681091 2277.578857 5.020104 1303 
881.516968 2052.006836 5.241300 1304 
884.022156 2180.030762 4.844427 1305 
3257.798096 1572.034790 6.614328 1306 
813.628540 1033.455933 8.648304 1307 
321.873962 1708.720093 8.860695 1308 
648.894104 2311.036377 7.127154 1309 
871.760559 2217.156982 6.490765 1310 
699.580139 858.432434 7.588871 1311 
837.261841 887.367615 7.547720 1312 
827.451172 975.812317 6.433863 1313 
122.558670 1936.761963 6.926672 1314 
864.600220 1230.206299 5.261220 1315 
397.649384 2078.148682 7.455004 1316 
425.308441 2041.902100 5.943281 1317 
3274.564209 1306.321777 4.447764 1318 
91.391922 1949.072144 8.714664 1319 
326.499176 1794.988770 8.168434 1320 
842.274902 1522.558716 8.962326 1321 
240.695877 2330.351074 8.638851 1322 
432.753540 2413.789551 7.558700 1323 
663.479431 2109.866211 7.106750 1324 
803.488586 880.567261 6.081131 1325 
136.307999 2017.438843 6.838851 1326 
335.391815 1829.877563 5.290749 1327 
174.255585 2116.550293 7.969928 1328 
336.442383 1903.136230 5.867150 1329 
201.600189 2217.752686 7.357726 1330 
241.089249 2373.578125 6.526114 1331 
491.993988 2046.279297 4.869224 1332 
509.531433 2025.690674 6.439608 1333 
486.199799 2122.068604 7.279015 1334 
573.855835 2002.731079 4.975798 1335 
406.121368 2416.479248 5.210314 1336 
533.192932 2316.791748 5.486887 1337 
506.882721 2417.562256 5.244296 1338 
798.683289 2101.939941 5.962900 1339 
3188.425293 988.363342 4.670524 1340 
122.044708 2294.956055 8.048332 1341 
198.027435 2332.254639 6.459515 1342 
307.299622 2262.154297 7.720240 1343 
551.877380 1948.453735 7.807965 1344 
412.282562 2195.126465 7.854728 1345 
3246.187012 1547.531860 4.846899 1346 
3275.521973 1512.828735 4.545302 1347 
3688.843506 1142.275635 4.212092 1348 
3262.219238 1781.217285 3.545175 1349 
330.406128 1870.673950 9.471065 1350 
164.205902 2303.099854 7.633589 1351 
347.837128 2193.979248 7.630879 1352 
646.408020 2137.259521 7.876634 1353 
629.558472 2422.077637 7.060955 1354 
670.170593 2430.218994 7.197015 1355 
869.357483 571.747742 7.533246 1356 
845.413452 941.210449 7.921586 1357 
129.478683 2202.020264 6.994185 1358 
212.621582 2088.963135 5.739520 1359 
440.468964 1792.731445 7.347134 1360 
94.371979 2317.483887 6.248138 1361 
271.445862 2358.936523 7.822119 1362 
588.274902 2334.256104 6.949136 1363 
800.542419 2435.899170 5.348744 1364 
3583.498535 1296.326416 4.539221 1365 
3320.163574 1658.508179 5.849340 1366 
229.346436 2112.648926 7.543489 1367 
347.054993 2237.647705 7.835149 1368 
689.157837 2375.941895 7.431273 1369 
530.868347 1967.200195 10.169182 1370 
3387.643555 1668.528320 7.026790 1371 
616.816711 1876.447876 15.646177 1372 
638.811218 2107.836670 11.034277 1373 
565.164551 2328.052246 10.177532 1374 
821.839417 2459.776123 12.184014 1375 
3416.077148 1472.004883 7.501852 1376 
458.356812 1827.461548 11.488949 1377 
663.807983 1697.834595 10.212045 1378 
460.229095 2238.154785 10.115579 1379 
1455.480469 438.220062 44.051754 1380 
1277.785889 1716.320679 61.267555 1381 
3517.716797 1441.216919 3.720755 1382 
277.785278 1913.139893 8.982011 1383 
465.511230 1870.841187 8.880372 1384 
347.878357 2296.582275 8.198812 1385 
524.016174 2061.833740 7.002970 1386 
608.708862 1948.409058 9.183425 1387 
632.611206 2320.344482 7.187937 1388 
812.169373 750.479370 5.996845 1389 
833.307129 1037.475220 5.706969 1390 
325.631653 1815.147583 6.044623 1391 
121.555237 2361.125977 6.337731 1392 
618.906433 1781.857666 5.091601 1393 
564.003784 1990.552124 6.115081 1394 
373.241455 2360.967041 6.477847 1395 
640.726196 2011.006226 6.122350 1396 
810.872070 1915.065918 6.206520 1397 
814.810120 1980.210205 6.446495 1398 
898.726440 2000.572510 4.690063 1399 
882.119080 2277.270020 5.864945 1400 
521.364868 2435.990723 7.856609 1401 
3603.629395 1306.245239 6.066166 1402 
248.485565 2089.790039 11.140204 1403 
410.193542 1884.363403 10.037595 1404 
436.766083 1988.958374 12.449212 1405 
533.364319 1862.356689 12.680242 1406 
427.514771 2129.882568 11.386626 1407 
570.998169 2209.969971 10.523616 1408 
237.057434 2306.310059 10.799442 1409 
669.633545 2141.638672 10.658759 1410 
3123.855469 208.061096 8.987367 1411 
165.897202 2155.163818 9.761247 1412 
143.108826 2314.702393 12.141011 1413 
372.038757 2013.432739 12.266680 1414 
537.656128 1803.216797 12.927402 1415 
677.259216 1895.360352 10.027395 1416 
3298.697266 1666.419556 10.157787 1417 
334.843567 1765.829224 13.428795 1418 
442.546570 1915.928101 11.539314 1419 
628.432617 2330.262207 12.864417 1420 
703.401428 813.221375 5.782421 1421 
807.209595 964.741089 7.600316 1422 
344.488525 1685.757080 6.375835 1423 
830.142273 1092.684570 5.794716 1424 
69.669411 2115.678711 5.733303 1425 
853.945740 1215.868042 6.834507 1426 
348.892822 1892.574097 6.866402 1427 
405.325500 1961.710571 6.220405 1428 
560.675659 1754.530396 5.419077 1429 
214.763443 2278.146484 6.082839 1430 
406.180786 2034.108398 4.965968 1431 
294.529205 2247.531006 6.842312 1432 
380.233490 2139.484131 7.147348 1433 
422.501495 2216.963135 7.242376 1434 
477.433289 2146.600586 7.187197 1435 
276.816589 2472.863037 5.335827 1436 
559.629883 2108.655518 6.322898 1437 
826.930237 2081.523926 5.527345 1438 
808.476746 2419.701172 6.230189 1439 
352.966156 1934.726807 9.687500 1440 
106.894989 2328.985596 8.423200 1441 
529.971252 1908.466431 7.795739 1442 
321.624908 2456.227051 8.297402 1443 
723.883301 841.078125 6.339956 1445 
288.287109 2156.925049 6.572061 1446 
379.400024 2440.853516 6.757868 1447 
605.914001 2142.515137 6.512681 1448 
571.195862 2503.591797 6.198479 1449 
810.644470 2447.989014 5.232512 1450 
884.952148 870.285400 5.982608 1451 
103.343575 1929.832031 6.870580 1452 
198.428406 2316.738037 6.343810 1453 
358.992493 2100.928467 6.590817 1454 
446.609253 2052.026367 5.708345 1455 
486.313202 2324.028320 6.146961 1456 
516.305115 2281.979248 6.611818 1457 
3383.337158 1442.211914 3.701702 1458 
3489.297119 1317.933472 3.710696 1459 
683.837708 770.102478 11.522491 1460 
556.788757 2465.949951 7.774276 1461 
833.215210 1066.426270 5.555001 1462 
423.652679 2057.847900 6.083871 1463 
247.943039 2354.614990 6.825457 1464 
393.682831 2236.114990 5.344527 1465 
500.464722 2101.356689 4.958199 1466 
800.989502 1770.637085 5.162382 1467 
316.730927 2006.592407 7.315878 1468 
572.415344 1956.765381 8.539872 1469 
878.678406 1746.344360 7.892449 1470 
838.904175 1871.283936 8.621500 1471 
865.745972 845.399109 5.196238 1472 
103.759148 1886.230225 6.779838 1473 
244.614410 1853.871094 6.747265 1474 
824.542236 1507.616577 6.276433 1475 
368.437347 2249.853271 5.962455 1476 
880.358582 1648.773071 5.791179 1477 
605.188721 2326.309326 6.076382 1478 
807.613770 2191.892822 4.920060 1479 
898.175842 2511.088135 5.502690 1480 
3271.132080 1525.301636 4.083106 1481 
489.315979 1929.910400 7.057771 1482 
591.188293 2004.931396 8.114122 1483 
476.431854 2284.203369 8.591326 1484 
814.309021 2112.041016 8.002701 1485 
821.444580 2345.139404 7.877297 1486 
861.376221 884.378662 5.612638 1487 
73.495659 2031.793335 7.515492 1488 
859.769043 1120.557739 6.018696 1489 
379.052948 1846.869019 7.940818 1490 
155.001495 2209.250000 6.492506 1491 
597.613281 1771.741211 5.445835 1492 
881.519531 1597.271973 6.734256 1493 
853.555969 1705.888794 6.097999 1494 
341.706818 2439.248047 8.012324 1495 
427.798279 2393.708496 6.058406 1496 
634.617676 2375.313477 5.912667 1497 
674.182434 2327.318848 4.804397 1498 
860.753296 2339.039551 5.400799 1499 
802.084839 2472.398926 5.589897 1500 
844.020081 2418.407471 5.565318 1501 
3613.537598 1128.580933 4.641187 1502 
3597.189209 1430.104736 4.144435 1503 
271.871674 2307.421875 9.425709 1504 
291.845520 2352.324219 7.537134 1505 
339.087860 2415.255859 7.067605 1506 
847.299500 1948.040894 7.316584 1507 
3511.810303 1186.855225 4.128698 1508 
557.874268 959.726868 8.301020 1509 
127.220444 1913.114868 8.869554 1510 
275.177582 1941.716431 7.642502 1511 
192.764725 2117.711426 7.456869 1512 
173.326752 2279.923096 9.140179 1513 
619.425598 1765.814819 8.648340 1514 
647.106567 1937.802734 6.953816 1515 
371.452820 1738.840210 5.611784 1516 
427.248962 1806.874634 5.580127 1517 
358.698059 1977.286255 6.153254 1518 
561.924622 1909.869507 6.923109 1519 
256.491241 2377.666992 5.207174 1520 
417.941772 2427.777588 6.309216 1521 
471.992859 2420.354492 6.959143 1522 
637.803772 2461.744141 6.223215 1523 
83.292068 1928.253906 9.101763 1524 
487.706268 1987.368408 8.465520 1525 
849.406189 655.728882 8.939391 1526 
850.404724 1095.360107 6.056874 1528 
601.160828 1123.881348 6.554540 1555 
864.945068 1063.285645 5.201108 1557 
902.905334 889.032043 11.150369 1602 
833.963257 591.194946 5.198084 1603 
794.258972 975.447266 5.488150 1606 
908.953064 43.660831 3.600190 1630 
843.739807 609.653625 8.322578 1647 
718.848633 730.187561 5.531871 1654 
823.521179 1644.769043 10.509463 1656 
2705.262695 1745.428345 17.767244 1744 
1776.595581 312.265564 12.318613 1747 
888.057922 1404.992065 5.007309 1752 
2951.072266 2032.159302 3.592686 1770 
1418.358765 249.554230 20.459692 1777 
884.467590 2293.609131 6.884102 1782 
795.732910 2457.615479 5.971268 1785 
3235.984619 1592.104248 3.944870 1788 
895.511658 2089.075439 5.126554 1789 
858.551880 2444.677734 5.049920 1790 
877.301208 2142.925049 5.266873 1791 
2359.674316 78.480263 5.455477 1797 
2478.660400 2239.773193 8.661828 1798 
2175.172852 955.341370 9.312181 1799 
2910.285400 157.302872 10.710675 1800 
2830.220459 318.428650 13.707858 1801 
2830.292480 2051.427490 13.760931 1802 
2229.931885 965.583984 11.741530 1803 
3004.091553 1179.724487 13.200738 1804 
2855.299072 231.607025 12.755211 1805 
2421.473877 946.647644 13.432645 1806 
2723.673828 1281.523315 19.542332 1807 
2926.350098 1988.994385 17.011484 1808 
2835.856689 448.781403 16.154917 1809 
2839.266113 529.128967 12.551537 1810 
2842.156738 608.423218 16.047428 1811 
2905.249023 2362.046631 15.250998 1812 
2689.466064 494.367065 14.563523 1813 
3029.672363 1948.854736 11.720465 1815 
2981.943848 558.880371 12.970449 1816 
2728.613281 2311.914062 14.835851 1817 
1489.137207 338.733246 25.484726 1818 
2892.510010 231.102707 8.120917 1819 
2645.956299 2329.497559 10.701773 1820 
2921.301514 189.593063 9.117552 1821 
2148.677490 2037.875244 8.308388 1822 
1895.757324 924.555237 7.869018 1823 
2989.342041 186.594498 6.146210 1824 
1988.557617 1132.133179 3.917646 1825 
3000.543701 2497.522217 6.246700 1826 
3206.882568 1161.950562 8.684688 1827 
2923.687744 248.941635 5.664776 1828 
2126.185303 1705.675293 4.251667 1829 
3630.970703 2461.186279 9.031982 1830 
3041.775635 117.996323 5.378566 1831 
2843.391846 581.737671 6.207765 1832 
2813.821777 599.113098 6.620663 1833 
2927.694336 302.470764 9.949170 1834 
3080.802979 2458.274414 6.368733 1835 
2794.835693 482.493896 6.483463 1836 
2515.599121 1711.269409 9.572886 1837 
2054.940918 760.856201 8.792308 1838 
2912.958740 1268.720825 11.713415 1839 
2904.758789 2415.937744 15.186152 1840 
2888.358398 2203.627441 26.823084 1841 
2834.198242 385.824677 25.627218 1842 
2800.171387 1843.359375 33.833630 1843 
1804.531372 1120.451172 52.729412 1844 
1805.667847 1412.008911 51.390472 1845 
2435.384521 797.724121 64.887650 1846 
2896.361816 251.501831 7.490612 1847 
245.559433 353.366028 3.920206 1848 
2863.800293 459.863586 6.468350 1849 
2868.204834 536.103271 10.166652 1850 
2474.784668 2115.746582 9.955277 1851 
2886.813965 171.069855 9.519639 1852 
2608.135498 926.776733 10.139653 1853 
2822.821777 204.692444 7.418435 1854 
1925.213013 952.028870 8.500023 1855 
1489.064575 1075.933350 7.118017 1856 
2904.129395 2016.564697 12.346179 1857 
1864.089355 1561.515869 10.227173 1858 
3082.256104 2485.565430 5.167154 1859 
3016.065674 108.138763 3.928750 1860 
3014.758789 2509.359863 4.292646 1861 
2634.476807 106.225143 4.607280 1862 
3083.962402 244.117233 5.822955 1863 
3084.163330 266.836151 5.217623 1864 
3090.007324 358.427795 5.063370 1865 
2885.442139 573.868103 6.167185 1866 
2921.088379 2541.288574 3.942733 1867 
2836.521729 2025.997192 6.167044 1868 
2437.048096 1053.067871 6.075028 1869 
3100.215332 736.400330 3.973905 1870 
3057.899414 126.427284 5.116205 1871 
3033.732910 2501.635010 5.011876 1872 
2612.783447 97.974884 4.759151 1873 
3054.979980 2495.784668 5.205931 1874 
3097.925049 837.004395 4.047999 1876 
3184.593750 522.268066 8.622117 1939 
791.798279 663.140137 4.687468 1997 
811.884583 734.550537 5.824883 1998 
714.587708 1778.503906 6.905930 1999 
834.204651 553.580750 4.961658 2000 
782.955017 1005.690918 4.955755 2001 
787.199402 1162.591919 4.746800 2002 
799.477234 582.102356 6.113701 2003 
785.001648 689.991089 3.940470 2004 
799.053894 754.979004 4.123803 2005 
728.667664 943.802307 4.180299 2006 
3114.625000 545.348389 5.744855 2007 
872.211670 641.129150 4.317110 2008 
3166.461914 2076.304688 5.440490 2009 
650.796204 1959.384644 7.048775 2010 
882.389221 769.656311 5.403180 2011 
3165.338379 1792.316162 4.102821 2012 
908.003296 721.925476 8.750303 2013 
525.150879 945.790344 11.993374 2014 
611.684692 802.030334 6.921645 2015 
790.210022 2179.174072 6.475650 2016 
697.961731 750.742065 4.087038 2017 
3134.244873 2391.202148 3.608300 2018 
868.750366 625.307434 4.506931 2019 
673.277466 1224.376099 6.025795 2020 
888.775330 675.590149 5.164581 2021 
732.624329 771.946960 5.176196 2022 
899.283203 1888.952759 4.246006 2023 
824.130127 628.426636 6.743964 2024 
2025.376221 854.385559 13.033570 2025 
2490.318359 2151.692871 9.250023 2026 
2942.950195 2209.154541 38.687286 2027 
3078.355957 2192.449219 29.458637 2028 
723.461853 820.275146 4.948594 2029 
860.838928 1049.120239 4.769368 2030 
1448.168823 357.627472 9.824542 2031 
3109.908203 740.022949 10.133442 2032 
2444.845215 971.254089 7.429314 2033 
633.986511 1799.194946 7.300231 2034 
347.532379 72.711998 5.064633 2035 
678.812744 75.289406 5.144350 2036 
833.490112 241.386292 5.337204 2037 
629.522278 304.481079 5.046578 2038 
178.158905 368.474792 4.732363 2039 
609.669617 371.759674 4.534365 2040 
292.481354 226.411453 6.525187 2041 
663.482056 225.454163 6.861149 2042 
800.465942 290.052094 5.945119 2043 
345.378143 383.506653 6.965078 2044 
215.378448 502.275879 5.927375 2045 
42.940166 68.371101 4.292366 2046 
161.362106 206.032547 4.587561 2047 
436.909821 269.582642 4.681602 2048 
825.232361 268.353119 4.889728 2049 
822.321472 301.048218 5.126986 2050 
426.379303 367.070648 5.208090 2051 
811.539307 424.865967 4.927601 2052 
482.915253 157.870026 4.796295 2053 
896.000366 220.707489 4.872614 2054 
83.953453 286.193817 3.839023 2055 
231.995621 351.326263 4.457587 2056 
664.116455 378.855286 5.011858 2057 
421.628754 475.659241 5.354422 2058 
883.320618 506.829865 5.139657 2059 
816.820984 76.230896 6.160141 2060 
89.407845 108.758965 6.506080 2061 
891.982605 143.104843 6.487023 2062 
259.156067 443.490723 6.764436 2063 
383.518982 445.878845 5.783681 2064 
156.393433 526.094604 6.065518 2065 
575.139465 582.127869 6.306451 2066 
374.559814 617.407593 6.494637 2067 
693.893372 682.043640 6.044901 2068 
2832.183838 1125.026245 6.808612 2069 
532.161133 292.660889 3.950240 2070 
78.455795 356.471832 5.015656 2071 
513.108643 356.773468 4.218190 2072 
880.113525 540.077393 5.342459 2073 
456.959320 293.420898 6.087297 2074 
364.840210 417.453064 6.447382 2075 
550.215881 417.822327 6.002313 2076 
396.733337 475.639496 5.812959 2077 
772.113464 231.861130 4.077090 2078 
260.764435 299.204407 4.109574 2079 
478.888184 550.250000 5.140289 2080 
169.581879 53.225704 5.654457 2081 
266.166595 150.845428 6.868189 2082 
651.826965 534.820557 6.396111 2083 
249.796387 48.191017 5.260758 2084 
879.637878 201.760773 4.837912 2085 
704.144714 258.769501 5.355901 2086 
690.607422 319.959320 4.954928 2087 
222.751953 176.238892 7.151023 2088 
799.367798 240.539993 6.523371 2089 
245.391541 274.448364 7.228621 2090 
441.819733 454.910400 5.866268 2091 
259.125275 481.300690 6.152062 2092 
631.371155 508.595917 5.726872 2093 
365.101654 536.761902 6.404492 2094 
170.724091 627.958252 6.035769 2095 
596.246399 57.460426 5.072670 2096 
379.380219 186.177399 4.845148 2097 
643.577026 184.947952 5.362865 2098 
460.150970 372.108826 5.082067 2099 
521.632690 437.292511 4.699795 2100 
593.408447 767.561401 5.278946 2101 
3449.570068 1058.647095 5.032413 2102 
398.230286 202.153229 5.951774 2103 
72.242599 329.629089 6.061312 2104 
658.152710 359.704712 6.151746 2105 
719.407288 441.869415 5.769372 2106 
571.517639 523.080017 5.576500 2107 
370.409302 677.983887 6.121350 2108 
594.972717 675.273926 5.629302 2109 
110.309280 204.141998 7.956588 2110 
971.871094 394.652985 9.944249 2111 
375.126038 587.544067 7.914545 2112 
665.231750 141.743591 12.507844 2113 
674.780701 173.917358 8.225358 2114 
232.686996 298.312439 7.392095 2115 
163.093857 366.039276 8.266156 2116 
1186.354858 1961.088623 8.631232 2117 
321.363068 255.719971 8.239381 2118 
354.173157 258.756042 8.265018 2119 
103.790863 320.172882 8.085563 2120 
587.170349 320.706329 7.755666 2121 
94.408478 389.264648 7.469907 2122 
2309.358643 2423.063721 8.318630 2123 
893.870056 371.816833 28.348234 2124 
3186.134521 1035.388306 19.355883 2125 
1274.118896 2132.705566 17.399639 2126 
663.574097 94.278503 6.290346 2127 
267.377075 131.116379 6.976324 2128 
585.498352 161.900040 5.485124 2129 
450.808014 248.171570 6.112219 2130 
122.059875 314.946503 6.606469 2131 
298.789734 697.155151 6.088642 2132 
793.133728 621.453247 4.659274 2133 
221.957184 693.143921 5.514742 2134 
215.102417 254.265427 6.585550 2135 
198.191330 378.967987 6.476220 2136 
439.764832 511.723572 6.438684 2137 
671.843384 512.437622 6.650314 2138 
352.663452 641.605042 5.978382 2139 
240.244629 235.150024 9.031485 2140 
715.362793 237.662643 7.423590 2141 
409.866638 672.359497 9.081393 2142 
543.394287 671.276978 7.496382 2143 
356.532532 125.814308 7.342940 2144 
519.213623 121.868683 7.272649 2145 
459.116821 183.543930 9.660431 2146 
498.369263 185.047028 7.838226 2147 
597.262390 186.714600 9.515330 2148 
485.773102 253.513184 7.579689 2149 
611.710999 249.358765 7.486222 2150 
445.479401 150.658417 9.540298 2151 
104.278130 275.604004 11.037183 2152 
258.218170 400.551697 8.083480 2153 
815.162903 399.553925 7.356694 2154 
691.756897 469.558167 7.829856 2155 
949.516785 1751.224487 6.423152 2156 
233.909637 498.436829 7.297291 2157 
406.308411 564.481873 7.350436 2158 
574.318481 81.949883 7.513331 2159 
215.320251 144.648727 8.937497 2160 
80.395203 274.141052 5.313323 2161 
665.896973 274.202179 4.944448 2162 
673.365662 368.818054 5.522032 2163 
661.877197 525.643494 4.462931 2164 
695.057129 665.881592 5.483277 2165 
3304.317627 1086.471802 4.211948 2166 
57.662655 61.289524 6.255157 2167 
577.532654 61.644108 6.128694 2168 
285.048981 90.024170 6.640356 2169 
638.047424 122.646126 6.357972 2170 
65.078560 159.039154 6.294732 2171 
431.377319 289.174286 7.087657 2172 
693.190002 503.356354 5.937018 2173 
365.788910 631.587219 6.605590 2174 
380.280670 702.025452 6.666208 2175 
582.466309 111.961281 5.383910 2176 
593.146545 238.734421 4.577584 2177 
739.742310 237.081665 3.882798 2178 
249.696686 300.476990 4.338033 2179 
643.961182 365.699371 5.482132 2180 
338.337708 456.490906 5.410057 2181 
432.872437 489.642487 5.500771 2182 
587.442932 491.310333 4.931459 2183 
532.968201 682.611145 5.492019 2184 
794.855835 681.068237 4.684758 2185 
3303.498047 1033.425537 3.751697 2186 
670.144897 126.883507 5.287471 2187 
82.146019 253.934097 4.297179 2188 
721.145752 252.806686 4.769101 2189 
321.026398 316.239532 4.936540 2190 
423.506409 142.447540 6.606265 2191 
308.784088 235.746231 6.258270 2192 
350.629181 302.220612 5.842867 2193 
462.050446 395.816986 6.945077 2194 
454.804779 470.237457 6.483205 2195 
661.461670 76.789948 4.820194 2196 
64.811409 196.672913 4.765083 2197 
370.912811 197.207138 4.981923 2198 
671.771057 196.059967 4.915812 2199 
641.099243 262.085327 5.459699 2200 
604.294373 324.785004 5.373624 2201 
884.559570 419.059998 4.504456 2202 
709.892517 479.462646 4.847644 2203 
560.991272 510.829346 3.833053 2204 
2575.136475 914.471069 3.570549 2205 
244.367966 63.820068 6.602737 2206 
459.011383 63.775200 5.983595 2207 
508.086670 325.650574 6.500216 2208 
295.952606 416.625549 5.710284 2209 
538.257935 447.403259 6.285481 2210 
171.010483 503.373505 5.632100 2211 
651.081726 504.669739 6.843688 2212 
556.762573 590.570557 6.497177 2213 
581.169373 622.469543 6.225923 2214 
646.985291 65.705170 4.825375 2215 
102.206535 232.094193 4.816495 2216 
414.029572 327.731842 5.332932 2217 
357.193268 363.620941 5.503852 2218 
619.932251 87.054573 5.507955 2219 
280.308411 116.574844 6.583655 2220 
734.780457 117.529030 5.770741 2221 
395.173523 182.957825 6.212367 2222 
74.533195 243.817474 5.754991 2223 
166.690353 277.049866 6.150757 2224 
720.682617 309.144775 6.042027 2225 
412.204559 375.326752 6.651714 2226 
264.018555 658.654114 6.379984 2227 
592.180603 658.813904 5.790435 2228 
793.656738 1623.952271 5.876849 2229 
644.853638 141.864151 4.628877 2230 
872.593933 140.649612 5.364316 2231 
437.996857 412.135345 4.975992 2232 
820.183655 413.253876 4.708802 2233 
243.022156 514.629822 5.468775 2234 
842.525879 673.793030 4.678521 2235 
896.795227 1796.320679 3.796480 2236 
283.408875 146.783524 6.226995 2237 
590.427795 209.388580 5.970600 2238 
343.646759 90.461243 4.674808 2239 
589.865234 87.520027 5.148227 2240 
901.257935 87.966965 4.076220 2241 
553.439514 403.636536 4.763786 2242 
443.846985 436.303528 4.829822 2243 
660.789185 471.140472 5.473401 2244 
336.009338 532.194092 5.103909 2245 
662.150146 575.244446 4.907519 2246 
203.224426 170.415573 6.984497 2247 
609.517822 167.941589 5.673969 2248 
732.091675 170.833694 6.570023 2249 
158.512558 234.994995 5.897953 2250 
445.635437 231.886215 6.796607 2251 
620.361389 234.282288 6.474397 2252 
656.856384 296.497009 6.570592 2253 
675.450806 394.051300 7.006080 2254 
613.404663 615.270386 6.093519 2255 
436.192108 708.657837 7.065799 2256 
278.274323 198.683502 7.183939 2257 
700.651733 205.469055 9.756717 2258 
575.147095 263.525757 7.637132 2259 
3116.063232 886.015503 9.188751 2260 
568.288086 171.887711 8.620862 2261 
103.546463 91.457779 8.614754 2262 
411.703308 91.838158 7.285441 2263 
556.771912 90.898323 7.338980 2264 
117.068588 179.419586 7.620616 2265 
187.804260 429.124054 8.736896 2266 
885.197266 489.068024 8.085132 2267 
686.812073 558.282715 7.893211 2268 
596.734985 749.577148 7.616831 2269 
3117.075195 1064.423218 7.595651 2270 
401.651672 446.279327 7.433717 2271 
3096.627930 512.328735 7.692264 2272 
401.738556 639.577148 7.497864 2273 
563.057861 708.936035 8.904330 2274 
777.855957 1304.447144 19.457973 2275 
560.393982 151.891983 16.888117 2276 
196.912491 130.148026 6.218812 2277 
391.868469 344.395905 6.259389 2278 
819.914185 381.558868 6.109716 2279 
600.050415 456.196289 5.888654 2280 
894.176025 458.134796 5.969000 2281 
223.973190 515.625732 6.262860 2282 
645.914856 668.919556 6.279458 2283 
403.500763 695.896790 5.921548 2284 
464.725250 697.658508 5.716562 2285 
430.316315 116.728302 4.690127 2286 
171.013519 213.071350 4.239336 2287 
452.004364 277.452057 5.238876 2288 
355.411835 434.549713 5.191146 2289 
169.804840 466.363251 5.187509 2290 
409.223816 464.781799 5.190089 2291 
639.328674 466.706360 5.060224 2292 
335.542694 67.254471 5.228869 2293 
537.820374 125.517509 6.003912 2294 
461.070648 316.189331 6.214311 2295 
586.402832 513.196106 6.534366 2296 
576.649109 541.552673 6.068890 2297 
637.314697 543.353088 5.612375 2298 
183.279419 350.666992 8.285183 2299 
149.010681 121.193893 7.217730 2300 
683.121704 246.086685 9.719551 2301 
225.372681 317.581573 7.984490 2302 
271.599182 508.788361 7.597957 2303 
384.997467 781.478394 9.798818 2304 
498.914276 208.349625 8.265839 2305 
75.279549 398.660736 7.392902 2306 
539.872070 789.847473 10.497116 2307 
3796.152100 982.082764 7.982182 2308 
499.688965 161.699631 7.709960 2309 
185.858826 308.627777 7.396967 2310 
192.521881 80.257973 7.839348 2311 
579.565979 146.421768 6.921345 2312 
564.896179 227.314774 7.436607 2313 
714.735840 348.246704 7.613656 2314 
105.707153 407.284882 8.128679 2315 
2273.481689 476.459778 10.620233 2316 
824.019592 1146.410034 6.917711 2317 
807.776245 682.182739 4.895746 2318 
860.224854 810.917053 4.579035 2319 
786.055420 1561.440674 5.967983 2320 
393.613892 1716.978516 10.129608 2321 
2554.369873 781.334656 11.740308 2322 
813.651794 2492.375244 8.779538 2323 
1138.588989 2354.760254 24.092916 2324 
878.120972 1048.149170 4.974402 2325 
788.339111 1435.095093 4.785562 2326 
824.431946 610.293274 5.865160 2327 
436.125458 2360.680664 12.540214 2328 
2202.170654 1729.527954 8.214887 2329 
479.592377 1952.814575 6.482757 2330 
878.095459 1064.592896 4.600079 2331 
833.482300 1126.129150 5.742930 2332 
2918.785400 2126.645264 6.875247 2333 
847.805969 508.727203 4.863131 2334 
839.945190 639.949585 4.893745 2335 
856.907959 798.060791 4.471309 2336 
865.870667 1357.108521 5.007717 2337 
293.044525 2494.139160 9.642254 2338 
2785.993896 530.886230 12.263426 2339 
2634.757812 702.835266 8.935763 2340 
1852.363647 1636.493652 10.948076 2341 
1678.706421 568.521606 20.220350 2342 
1680.128418 845.286255 20.567642 2343 
2598.956787 391.038269 6.243328 2344 
2594.793701 964.305176 9.178773 2345 
2771.843994 724.886597 32.268578 2346 
3117.129639 990.947083 9.467561 2347 
879.174683 2079.407227 10.557591 2348 
708.910461 2125.645996 8.348772 2349 
2647.753174 493.401245 4.951361 2350 
985.421997 2379.939941 6.174779 2351 
675.191528 1102.126099 5.803080 2352 
2665.627930 809.007874 17.173298 2353 
1783.587769 558.832581 13.055178 2354 
2036.279419 2114.353516 9.875255 2355 
2396.463379 2212.767822 7.691246 2356 
2179.820312 832.974060 5.566610 2357 
2240.508057 2421.697266 5.603657 2358 
1667.355469 2357.511719 8.001583 2359 
2319.503906 784.200745 53.803776 2360 
2101.442627 178.385330 4.235560 2362 
2181.806152 849.402405 4.972393 2363 
3636.069580 1863.820679 5.283764 2364 
2169.757080 347.003174 5.196773 2365 
3009.191650 2379.637695 11.438580 2366 
1677.187500 298.334106 19.759935 2367 
883.054443 966.442505 31.630692 2368 
471.728210 1455.277710 34.934608 2369 
3381.052490 1554.144653 4.606807 2370 
2226.651611 2107.286133 9.181646 2371 
2370.102295 2395.686768 17.076908 2372 
2630.345703 753.702026 11.625501 2373 
1781.618286 2304.763916 8.260188 2374 
964.575928 2449.602539 7.234866 2375 
2113.744629 761.613403 15.633940 2376 
2451.383057 1643.376099 39.168404 2377 
2125.963867 219.388565 8.854204 2378 
956.789551 144.410522 5.226888 2379 
3220.148682 1753.627563 6.853652 2380 
766.036682 2313.289307 3.577255 2381 
2859.778076 567.708313 16.211424 2382 
2739.161865 506.919647 20.215298 2383 
2235.662598 650.832336 42.564804 2384 
2076.316162 1694.950073 10.201193 2385 
1224.023682 2074.209717 10.804185 2386 
1683.368286 363.948425 4.373286 2387 
3076.638184 2418.256592 4.996109 2388 
3000.928955 2207.057861 4.179862 2389 
667.055542 1137.677612 19.532841 2390 
2579.259277 1199.869751 5.099397 2391 
2305.172363 1544.892822 6.192901 2392 
946.317261 1223.025024 4.388338 2393 
2230.169922 2184.594971 6.259703 2394 
2131.897949 50.875286 5.565437 2395 
1575.077515 2489.548584 5.139805 2396 
894.317993 526.308960 3.936810 2397 
888.418152 1727.576904 4.360412 2398 
854.641602 681.562805 4.635235 2399 
799.996826 777.675781 4.810924 2400 
810.827515 1168.000977 4.755896 2401 
780.934937 1457.393799 5.240691 2402 
804.572327 1186.927612 6.248150 2403 
789.684082 1347.536255 5.357800 2404 
890.302307 2130.242920 4.446687 2405 
861.331299 420.974091 6.092272 2406 
795.749268 509.579681 4.627714 2407 
836.453186 1365.945801 4.724446 2408 
881.219055 1802.944458 4.512960 2409 
809.233887 2149.368164 4.814130 2410 
1782.475586 2361.846436 6.859618 2411 
852.626160 1626.209839 4.882532 2412 
817.878784 1659.674438 4.787173 2413 
805.299072 1466.771973 5.676986 2414 
846.775513 1069.668457 4.115323 2415 
795.044556 1607.386963 5.272664 2416 
838.932861 1886.636597 4.578921 2417 
805.155823 2360.439209 5.706199 2418 
876.305176 1121.898315 4.652984 2419 
863.190369 394.774445 6.091881 2420 
955.234619 2434.098877 6.108231 2421 
1519.513550 677.394775 24.928944 2422 
859.731567 1549.024902 4.813411 2423 
851.183289 1966.114624 4.843684 2424 
892.453735 2495.464111 5.315749 2425 
604.754089 216.752548 5.851403 2426 
857.508728 1888.182129 6.355609 2427 
825.857788 1686.620117 4.813354 2428 
802.281067 609.184509 7.994493 2429 
851.561829 2082.733398 7.583243 2430 
846.780396 1756.725586 5.064422 2431 
866.421631 2479.196045 5.721678 2432 
811.564453 1234.355347 5.458357 2433 
804.976868 1650.801147 5.526545 2434 
804.638428 2550.878174 4.432830 2435 
844.217102 1480.131958 5.833271 2436 
1984.305786 2287.595215 5.771393 2437 
846.126648 417.765472 4.909533 2438 
842.153992 816.375000 5.493089 2439 
797.455383 1041.286865 4.707983 2440 
875.746521 1520.068115 5.525450 2441 
620.999817 266.557892 5.392784 2442 
875.216187 902.718567 4.173190 2443 
828.986023 1455.549927 4.790858 2444 
824.793701 2331.878174 4.941360 2445 
877.219299 2365.494141 4.096291 2446 
644.996216 169.709122 5.171529 2447 
814.910095 1196.495117 4.430435 2448 
890.804871 1859.510254 5.287891 2449 
851.364197 1741.194946 6.285258 2450 
623.567810 1665.778198 5.316078 2451 
799.468140 2323.899414 5.011646 2452 
840.915405 1900.342407 4.319092 2453 
859.856323 1900.847046 4.690200 2454 
809.126648 2216.615723 5.330113 2455 
862.130981 1085.476318 6.328025 2456 
896.606445 276.749359 5.043970 2457 
797.192322 496.267181 5.002058 2458 
803.191772 916.861633 4.434742 2459 
823.863708 1844.219727 5.138096 2460 
859.891418 1423.185547 7.823075 2461 
856.167725 1985.518799 8.580956 2462 
822.422424 764.711853 14.508501 2463 
