ply
format ascii 1.0
element vertex 211
property float x
property float y
property float size
property short id
end_header
3469.976807 1020.211426 28.732969 23 
680.378601 2330.736084 11.679317 58 
996.013245 682.114929 18.844568 134 
338.199982 1937.567993 28.260778 185 
1358.649902 712.615051 8.869259 197 
507.599030 809.848083 7.798399 221 
419.606293 1884.071899 10.340975 222 
3548.545654 446.827606 6.819645 231 
2668.895508 536.582642 4.254209 251 
1927.878418 2421.938232 4.389507 261 
1819.909668 502.643951 9.665607 262 
2396.564697 1426.229736 3.885535 263 
2605.045166 1784.528320 15.871845 264 
1595.984009 2392.353027 4.273007 265 
3719.104248 1078.576172 4.856575 266 
726.614441 2444.317139 3.652291 267 
3739.827881 773.396973 6.235314 268 
2142.924561 1685.963745 9.749821 269 
641.057556 426.740479 14.788834 270 
1669.192871 557.318237 12.306572 286 
2883.845459 1136.155396 20.142738 299 
3757.341553 970.998169 5.168488 435 
2317.186768 1440.648926 8.686290 480 
367.776306 1190.881104 9.427992 485 
1813.216919 1862.011230 15.214293 496 
1406.371582 414.976501 3.644456 505 
2591.805176 942.468140 34.695759 760 
56.010628 438.578003 4.261688 761 
3633.660889 889.183960 6.051139 762 
43.896652 1212.354248 3.619913 763 
47.433216 1085.231201 4.610775 764 
1241.543579 1464.739380 20.433798 765 
33.570694 1688.176880 3.225911 766 
66.062378 540.897095 3.994450 767 
51.445953 1107.767822 3.951021 768 
39.574692 85.772736 3.399304 769 
869.448120 240.610794 26.353834 797 
1705.612305 1174.260864 6.366539 1112 
3039.718506 1741.240234 25.404543 1191 
2696.221191 1829.554077 7.850198 1192 
3767.752197 1325.146362 6.231704 1193 
3702.309570 1081.514648 3.893321 1194 
2210.661621 2520.071533 3.849338 1195 
2451.708008 1585.084229 6.916467 1196 
3717.050049 469.980408 8.146655 1197 
1598.862793 2104.731934 12.801341 1198 
1150.302856 423.983276 6.023766 1199 
2512.119141 781.845947 15.398595 1218 
3473.822021 769.537415 24.503899 1595 
3774.420654 1129.589966 3.824462 1630 
2115.367432 1382.723633 6.297498 1700 
1077.203003 1529.466797 8.518919 1743 
2707.025391 943.243958 66.923576 1760 
3287.194092 1318.956299 13.730143 1767 
2308.309326 1365.471924 13.920342 1768 
1449.807251 1053.212402 6.020691 1769 
1782.198120 1070.541138 4.009331 1770 
3715.017822 252.338272 4.846953 1771 
3699.094971 2384.633057 7.544594 1772 
3144.089355 2208.599121 10.226163 1773 
1528.040649 1687.579590 20.282654 1774 
1565.740967 2384.123779 12.029450 1775 
375.491852 493.662262 5.472100 1776 
1475.649780 1381.602173 11.339491 1799 
140.047134 1078.169678 11.724473 1800 
2990.709717 287.213684 26.158062 1814 
2887.271973 241.775391 24.615274 1818 
2444.581543 1469.361328 4.776483 1878 
2464.040527 2110.467041 4.612587 1912 
727.551392 2195.041260 7.754871 1929 
1105.185547 1376.774658 4.029232 1958 
701.981384 1015.147583 9.159134 1966 
1466.481567 430.252716 4.670578 1970 
2354.631836 956.793213 24.110893 1980 
3519.763184 1833.996704 7.516283 1981 
1688.180542 1227.943970 7.829593 1982 
3081.077393 142.700851 9.866584 1983 
3697.566650 195.987167 6.685985 1984 
811.023254 1797.363037 4.688254 1985 
75.129547 1059.001953 6.116601 1986 
3718.334717 638.149048 6.284603 1987 
1501.897461 1047.109131 14.301274 1991 
1772.929565 729.052612 3.912725 2329 
414.724762 1049.894531 6.524576 2350 
1121.810059 731.780090 4.335567 2361 
2122.141113 501.503571 5.789098 2387 
3698.993896 66.546570 4.543812 2390 
1321.721558 1018.570923 12.141452 2391 
1560.527222 1015.915833 3.947263 2392 
370.732056 1708.702026 6.140667 2393 
1760.499512 259.875214 11.448785 2394 
1489.432495 1707.106812 5.024822 2395 
1956.334717 2343.492920 9.562641 2396 
1661.787231 404.133240 12.980448 2807 
3639.873047 742.487305 5.156374 2808 
624.384277 2073.751953 14.953796 2809 
3093.265869 512.452209 14.251388 2810 
3691.947754 1048.683838 9.791274 2811 
1346.614258 628.843628 27.755499 2812 
2414.659424 1366.466187 4.728192 2813 
3743.773682 1182.904297 3.896556 2814 
3663.249023 469.234100 3.798602 2815 
3705.195801 131.806976 4.466450 2816 
2615.729248 417.886139 8.963891 2817 
3719.499268 534.353027 4.862683 2850 
2340.937012 1488.573120 6.274001 2919 
3746.822510 869.099670 6.422852 2995 
1780.879150 362.369537 15.136029 3047 
3782.242432 1445.552734 4.665223 3048 
1597.644531 1706.155273 4.502687 3049 
3596.511230 949.037231 11.275491 3050 
1828.528442 753.105408 12.601018 3051 
3689.434082 873.954468 18.210253 3052 
3768.566650 1251.780640 4.393773 3053 
3748.023193 1332.608887 7.309474 3054 
3746.744141 1035.359009 5.314239 3055 
3723.931885 1405.319946 5.364720 3221 
2560.233643 1887.238647 4.599478 3245 
2721.589600 1747.813843 25.607080 3283 
1605.223999 2460.739746 11.093160 3284 
655.933655 1466.638794 13.157643 3285 
1930.483154 2317.550537 14.635386 3286 
2494.769287 1730.444580 6.970729 3287 
2008.282593 1434.352051 4.685173 3288 
684.950623 1101.139038 4.742719 3289 
1980.234131 780.875793 5.093699 3290 
3188.040771 243.142624 11.819637 3291 
2416.021729 2176.165039 8.003565 3292 
462.020813 1828.937500 6.494353 3293 
3738.159424 918.948914 5.176580 3412 
3783.131348 1583.193115 4.888416 3415 
3690.422363 294.128021 11.158636 3528 
3108.115967 2283.237305 10.943604 3574 
3751.569092 1093.902954 4.195240 3595 
1472.398193 2072.113281 5.512709 3596 
1876.651855 479.624207 23.528088 3597 
1683.884644 1682.973877 8.511164 3598 
3616.428955 361.851501 5.536166 3599 
3757.354492 1111.443237 4.387663 3600 
103.913460 1394.833618 4.181575 3601 
3050.366699 2174.633545 40.738224 3602 
1394.301025 1441.810547 4.439490 3603 
986.110840 428.882294 13.499486 3604 
2131.406982 1404.184570 5.156075 3605 
374.054962 758.961060 7.908734 4095 
2666.614990 2113.759033 4.757505 4238 
1669.752563 215.442398 7.598760 4239 
1947.015503 1014.362000 10.931690 4240 
1537.840454 2388.578369 3.659908 4241 
412.729950 1341.512573 13.489729 4242 
2446.273682 728.253296 6.641394 4243 
2741.457520 1503.046997 7.600883 4244 
1262.568604 403.590424 8.236483 4495 
2444.780762 1147.736328 7.539680 4496 
2305.782715 1237.240356 3.930223 4497 
2866.841553 1341.308838 29.446732 4498 
3155.068604 949.098083 31.218832 4499 
248.203094 777.182983 6.146126 4500 
1486.799683 1261.099731 4.985774 4501 
1503.054077 2203.302490 14.733696 4502 
3271.882080 2373.807861 8.088839 4503 
2995.826904 2285.751709 10.566524 4504 
3156.339600 2332.164062 10.823328 4505 
1466.998535 1032.893433 11.117271 4506 
1856.020508 1156.567383 3.904376 4560 
2943.629150 2339.770508 10.508162 4565 
382.301117 1224.999512 13.082063 4637 
1447.689331 377.398346 13.448872 4638 
3837.571045 1018.140686 4.558079 4639 
3743.993164 486.192993 11.998146 4640 
3591.866943 209.945816 6.171073 4641 
436.899628 571.588745 8.620471 4642 
526.648071 677.353149 9.093418 4643 
1327.459106 544.593811 4.825313 4644 
3240.540283 1392.868286 10.445455 4645 
3746.865967 2316.471680 5.390817 4962 
3739.777588 1676.303711 5.408702 4963 
2109.501709 1550.014404 13.555227 4964 
1370.948975 334.088013 7.694802 4965 
3736.032715 2464.811768 8.688102 4966 
1729.008667 623.314636 66.727028 4967 
1089.182861 1248.754883 4.459691 5401 
133.320236 1885.729126 14.448982 5402 
1344.846558 542.788391 8.765766 5403 
2027.434937 2311.111572 9.344204 5404 
3136.081055 1424.908813 9.139553 5405 
2153.413818 1423.006958 10.145652 5407 
2311.709229 716.744690 6.649347 5417 
2939.503418 337.734406 4.100992 5418 
1947.030640 735.849670 5.382669 5419 
659.685059 1607.886230 11.178536 5420 
3107.569092 1155.529541 13.078561 5421 
1400.906738 627.955322 65.559753 5422 
2375.700439 619.065857 66.084167 5423 
2142.854980 2044.098389 6.410337 5449 
2223.948242 1436.900513 8.422960 5450 
2065.461914 1098.937744 25.225105 5451 
1549.595947 1505.633667 27.642710 5452 
2111.915771 1265.162476 35.653957 5453 
1941.636108 1109.903809 6.228514 5454 
1629.093872 1274.522949 5.422068 5455 
1495.183472 1509.820068 13.588383 5456 
1892.419067 1225.016479 9.248764 5457 
2241.655762 1418.531006 10.205238 5458 
2868.640625 204.532089 10.116121 5459 
3053.290771 2329.581787 20.513767 5460 
1602.091797 727.512268 15.359639 5461 
1607.226440 1519.282959 17.150038 5462 
1394.274048 1608.832764 67.534096 5463 
2947.179932 2454.406006 10.709344 5464 
1316.440796 1475.283936 11.595094 5465 
