ply
format ascii 1.0
element vertex 211
property double x
property double y
property double size
property short id
end_header
3.46997680664062e+03 1.02021142578125e+03 2.87329692840576e+01 23 
6.80378601074219e+02 2.33073608398438e+03 1.16793174743652e+01 58 
9.96013244628906e+02 6.82114929199219e+02 1.88445682525635e+01 134 
3.38199981689453e+02 1.93756799316406e+03 2.82607784271240e+01 185 
1.35864990234375e+03 7.12615051269531e+02 8.86925888061523e+00 197 
5.07599029541016e+02 8.09848083496094e+02 7.79839944839478e+00 221 
4.19606292724609e+02 1.88407189941406e+03 1.03409748077393e+01 222 
3.54854565429688e+03 4.46827606201172e+02 6.81964492797852e+00 231 
2.66889550781250e+03 5.36582641601562e+02 4.25420856475830e+00 251 
1.92787841796875e+03 2.42193823242188e+03 4.38950729370117e+00 261 
1.81990966796875e+03 5.02643951416016e+02 9.66560745239258e+00 262 
2.39656469726562e+03 1.42622973632812e+03 3.88553452491760e+00 263 
2.60504516601562e+03 1.78452832031250e+03 1.58718452453613e+01 264 
1.59598400878906e+03 2.39235302734375e+03 4.27300691604614e+00 265 
3.71910424804688e+03 1.07857617187500e+03 4.85657501220703e+00 266 
7.26614440917969e+02 2.44431713867188e+03 3.65229058265686e+00 267 
3.73982788085938e+03 7.73396972656250e+02 6.23531389236450e+00 268 
2.14292456054688e+03 1.68596374511719e+03 9.74982070922852e+00 269 
6.41057556152344e+02 4.26740478515625e+02 1.47888336181641e+01 270 
1.66919287109375e+03 5.57318237304688e+02 1.23065719604492e+01 286 
2.88384545898438e+03 1.13615539550781e+03 2.01427383422852e+01 299 
3.75734155273438e+03 9.70998168945312e+02 5.16848754882812e+00 435 
2.31718676757812e+03 1.44064892578125e+03 8.68628978729248e+00 480 
3.67776306152344e+02 1.19088110351562e+03 9.42799186706543e+00 485 
1.81321691894531e+03 1.86201123046875e+03 1.52142925262451e+01 496 
1.40637158203125e+03 4.14976501464844e+02 3.64445567131042e+00 505 
2.59180517578125e+03 9.42468139648438e+02 3.46957588195801e+01 760 
5.60106277465820e+01 4.38578002929688e+02 4.26168775558472e+00 761 
3.63366088867188e+03 8.89183959960938e+02 6.05113887786865e+00 762 
4.38966522216797e+01 1.21235424804688e+03 3.61991286277771e+00 763 
4.74332160949707e+01 1.08523120117188e+03 4.61077451705933e+00 764 
1.24154357910156e+03 1.46473937988281e+03 2.04337978363037e+01 765 
3.35706939697266e+01 1.68817687988281e+03 3.22591090202332e+00 766 
6.60623779296875e+01 5.40897094726562e+02 3.99444961547852e+00 767 
5.14459533691406e+01 1.10776782226562e+03 3.95102143287659e+00 768 
3.95746917724609e+01 8.57727355957031e+01 3.39930438995361e+00 769 
8.69448120117188e+02 2.40610794067383e+02 2.63538341522217e+01 797 
1.70561230468750e+03 1.17426086425781e+03 6.36653947830200e+00 1112 
3.03971850585938e+03 1.74124023437500e+03 2.54045429229736e+01 1191 
2.69622119140625e+03 1.82955407714844e+03 7.85019826889038e+00 1192 
3.76775219726562e+03 1.32514636230469e+03 6.23170423507690e+00 1193 
3.70230957031250e+03 1.08151464843750e+03 3.89332056045532e+00 1194 
2.21066162109375e+03 2.52007153320312e+03 3.84933757781982e+00 1195 
2.45170800781250e+03 1.58508422851562e+03 6.91646671295166e+00 1196 
3.71705004882812e+03 4.69980407714844e+02 8.14665508270264e+00 1197 
1.59886279296875e+03 2.10473193359375e+03 1.28013410568237e+01 1198 
1.15030285644531e+03 4.23983276367188e+02 6.02376556396484e+00 1199 
2.51211914062500e+03 7.81845947265625e+02 1.53985948562622e+01 1218 
3.47382202148438e+03 7.69537414550781e+02 2.45038986206055e+01 1595 
3.77442065429688e+03 1.12958996582031e+03 3.82446193695068e+00 1630 
2.11536743164062e+03 1.38272363281250e+03 6.29749774932861e+00 1700 
1.07720300292969e+03 1.52946679687500e+03 8.51891899108887e+00 1743 
2.70702539062500e+03 9.43243957519531e+02 6.69235763549805e+01 1760 
3.28719409179688e+03 1.31895629882812e+03 1.37301425933838e+01 1767 
2.30830932617188e+03 1.36547192382812e+03 1.39203424453735e+01 1768 
1.44980725097656e+03 1.05321240234375e+03 6.02069139480591e+00 1769 
1.78219812011719e+03 1.07054113769531e+03 4.00933074951172e+00 1770 
3.71501782226562e+03 2.52338272094727e+02 4.84695339202881e+00 1771 
3.69909497070312e+03 2.38463305664062e+03 7.54459428787231e+00 1772 
3.14408935546875e+03 2.20859912109375e+03 1.02261629104614e+01 1773 
1.52804064941406e+03 1.68757958984375e+03 2.02826538085938e+01 1774 
1.56574096679688e+03 2.38412377929688e+03 1.20294504165649e+01 1775 
3.75491851806641e+02 4.93662261962891e+02 5.47209978103638e+00 1776 
1.47564978027344e+03 1.38160217285156e+03 1.13394908905029e+01 1799 
1.40047134399414e+02 1.07816967773438e+03 1.17244729995728e+01 1800 
2.99070971679688e+03 2.87213684082031e+02 2.61580619812012e+01 1814 
2.88727197265625e+03 2.41775390625000e+02 2.46152744293213e+01 1818 
2.44458154296875e+03 1.46936132812500e+03 4.77648305892944e+00 1878 
2.46404052734375e+03 2.11046704101562e+03 4.61258745193481e+00 1912 
7.27551391601562e+02 2.19504125976562e+03 7.75487136840820e+00 1929 
1.10518554687500e+03 1.37677465820312e+03 4.02923202514648e+00 1958 
7.01981384277344e+02 1.01514758300781e+03 9.15913391113281e+00 1966 
1.46648156738281e+03 4.30252716064453e+02 4.67057847976685e+00 1970 
2.35463183593750e+03 9.56793212890625e+02 2.41108932495117e+01 1980 
3.51976318359375e+03 1.83399670410156e+03 7.51628303527832e+00 1981 
1.68818054199219e+03 1.22794396972656e+03 7.82959270477295e+00 1982 
3.08107739257812e+03 1.42700851440430e+02 9.86658382415771e+00 1983 
3.69756665039062e+03 1.95987167358398e+02 6.68598508834839e+00 1984 
8.11023254394531e+02 1.79736303710938e+03 4.68825435638428e+00 1985 
7.51295471191406e+01 1.05900195312500e+03 6.11660099029541e+00 1986 
3.71833471679688e+03 6.38149047851562e+02 6.28460311889648e+00 1987 
1.50189746093750e+03 1.04710913085938e+03 1.43012742996216e+01 1991 
1.77292956542969e+03 7.29052612304688e+02 3.91272497177124e+00 2329 
4.14724761962891e+02 1.04989453125000e+03 6.52457618713379e+00 2350 
1.12181005859375e+03 7.31780090332031e+02 4.33556747436523e+00 2361 
2.12214111328125e+03 5.01503570556641e+02 5.78909778594971e+00 2387 
3.69899389648438e+03 6.65465698242188e+01 4.54381179809570e+00 2390 
1.32172155761719e+03 1.01857092285156e+03 1.21414518356323e+01 2391 
1.56052722167969e+03 1.01591583251953e+03 3.94726252555847e+00 2392 
3.70732055664062e+02 1.70870202636719e+03 6.14066696166992e+00 2393 
1.76049951171875e+03 2.59875213623047e+02 1.14487848281860e+01 2394 
1.48943249511719e+03 1.70710681152344e+03 5.02482223510742e+00 2395 
1.95633471679688e+03 2.34349291992188e+03 9.56264114379883e+00 2396 
1.66178723144531e+03 4.04133239746094e+02 1.29804477691650e+01 2807 
3.63987304687500e+03 7.42487304687500e+02 5.15637350082397e+00 2808 
6.24384277343750e+02 2.07375195312500e+03 1.49537963867188e+01 2809 
3.09326586914062e+03 5.12452209472656e+02 1.42513875961304e+01 2810 
3.69194775390625e+03 1.04868383789062e+03 9.79127407073975e+00 2811 
1.34661425781250e+03 6.28843627929688e+02 2.77554988861084e+01 2812 
2.41465942382812e+03 1.36646618652344e+03 4.72819185256958e+00 2813 
3.74377368164062e+03 1.18290429687500e+03 3.89655613899231e+00 2814 
3.66324902343750e+03 4.69234100341797e+02 3.79860162734985e+00 2815 
3.70519580078125e+03 1.31806976318359e+02 4.46645021438599e+00 2816 
2.61572924804688e+03 4.17886138916016e+02 8.96389102935791e+00 2817 
3.71949926757812e+03 5.34353027343750e+02 4.86268281936646e+00 2850 
2.34093701171875e+03 1.48857312011719e+03 6.27400064468384e+00 2919 
3.74682250976562e+03 8.69099670410156e+02 6.42285156250000e+00 2995 
1.78087915039062e+03 3.62369537353516e+02 1.51360292434692e+01 3047 
3.78224243164062e+03 1.44555273437500e+03 4.66522312164307e+00 3048 
1.59764453125000e+03 1.70615527343750e+03 4.50268650054932e+00 3049 
3.59651123046875e+03 9.49037231445312e+02 1.12754907608032e+01 3050 
1.82852844238281e+03 7.53105407714844e+02 1.26010179519653e+01 3051 
3.68943408203125e+03 8.73954467773438e+02 1.82102527618408e+01 3052 
3.76856665039062e+03 1.25178063964844e+03 4.39377307891846e+00 3053 
3.74802319335938e+03 1.33260888671875e+03 7.30947351455688e+00 3054 
3.74674414062500e+03 1.03535900878906e+03 5.31423902511597e+00 3055 
3.72393188476562e+03 1.40531994628906e+03 5.36471986770630e+00 3221 
2.56023364257812e+03 1.88723864746094e+03 4.59947776794434e+00 3245 
2.72158959960938e+03 1.74781384277344e+03 2.56070804595947e+01 3283 
1.60522399902344e+03 2.46073974609375e+03 1.10931596755981e+01 3284 
6.55933654785156e+02 1.46663879394531e+03 1.31576433181763e+01 3285 
1.93048315429688e+03 2.31755053710938e+03 1.46353855133057e+01 3286 
2.49476928710938e+03 1.73044458007812e+03 6.97072935104370e+00 3287 
2.00828259277344e+03 1.43435205078125e+03 4.68517303466797e+00 3288 
6.84950622558594e+02 1.10113903808594e+03 4.74271869659424e+00 3289 
1.98023413085938e+03 7.80875793457031e+02 5.09369850158691e+00 3290 
3.18804077148438e+03 2.43142623901367e+02 1.18196372985840e+01 3291 
2.41602172851562e+03 2.17616503906250e+03 8.00356483459473e+00 3292 
4.62020812988281e+02 1.82893750000000e+03 6.49435281753540e+00 3293 
3.73815942382812e+03 9.18948913574219e+02 5.17658042907715e+00 3412 
3.78313134765625e+03 1.58319311523438e+03 4.88841581344604e+00 3415 
3.69042236328125e+03 2.94128021240234e+02 1.11586360931396e+01 3528 
3.10811596679688e+03 2.28323730468750e+03 1.09436044692993e+01 3574 
3.75156909179688e+03 1.09390295410156e+03 4.19524049758911e+00 3595 
1.47239819335938e+03 2.07211328125000e+03 5.51270866394043e+00 3596 
1.87665185546875e+03 4.79624206542969e+02 2.35280876159668e+01 3597 
1.68388464355469e+03 1.68297387695312e+03 8.51116371154785e+00 3598 
3.61642895507812e+03 3.61851501464844e+02 5.53616619110107e+00 3599 
3.75735449218750e+03 1.11144323730469e+03 4.38766336441040e+00 3600 
1.03913459777832e+02 1.39483361816406e+03 4.18157482147217e+00 3601 
3.05036669921875e+03 2.17463354492188e+03 4.07382240295410e+01 3602 
1.39430102539062e+03 1.44181054687500e+03 4.43949031829834e+00 3603 
9.86110839843750e+02 4.28882293701172e+02 1.34994859695435e+01 3604 
2.13140698242188e+03 1.40418457031250e+03 5.15607547760010e+00 3605 
3.74054962158203e+02 7.58961059570312e+02 7.90873432159424e+00 4095 
2.66661499023438e+03 2.11375903320312e+03 4.75750541687012e+00 4238 
1.66975256347656e+03 2.15442398071289e+02 7.59876012802124e+00 4239 
1.94701550292969e+03 1.01436199951172e+03 1.09316902160645e+01 4240 
1.53784045410156e+03 2.38857836914062e+03 3.65990781784058e+00 4241 
4.12729949951172e+02 1.34151257324219e+03 1.34897289276123e+01 4242 
2.44627368164062e+03 7.28253295898438e+02 6.64139413833618e+00 4243 
2.74145751953125e+03 1.50304699707031e+03 7.60088253021240e+00 4244 
1.26256860351562e+03 4.03590423583984e+02 8.23648262023926e+00 4495 
2.44478076171875e+03 1.14773632812500e+03 7.53968048095703e+00 4496 
2.30578271484375e+03 1.23724035644531e+03 3.93022251129150e+00 4497 
2.86684155273438e+03 1.34130883789062e+03 2.94467315673828e+01 4498 
3.15506860351562e+03 9.49098083496094e+02 3.12188320159912e+01 4499 
2.48203094482422e+02 7.77182983398438e+02 6.14612579345703e+00 4500 
1.48679968261719e+03 1.26109973144531e+03 4.98577356338501e+00 4501 
1.50305407714844e+03 2.20330249023438e+03 1.47336959838867e+01 4502 
3.27188208007812e+03 2.37380786132812e+03 8.08883857727051e+00 4503 
2.99582690429688e+03 2.28575170898438e+03 1.05665235519409e+01 4504 
3.15633959960938e+03 2.33216406250000e+03 1.08233280181885e+01 4505 
1.46699853515625e+03 1.03289343261719e+03 1.11172714233398e+01 4506 
1.85602050781250e+03 1.15656738281250e+03 3.90437626838684e+00 4560 
2.94362915039062e+03 2.33977050781250e+03 1.05081615447998e+01 4565 
3.82301116943359e+02 1.22499951171875e+03 1.30820627212524e+01 4637 
1.44768933105469e+03 3.77398345947266e+02 1.34488716125488e+01 4638 
3.83757104492188e+03 1.01814068603516e+03 4.55807924270630e+00 4639 
3.74399316406250e+03 4.86192993164062e+02 1.19981460571289e+01 4640 
3.59186694335938e+03 2.09945816040039e+02 6.17107295989990e+00 4641 
4.36899627685547e+02 5.71588745117188e+02 8.62047100067139e+00 4642 
5.26648071289062e+02 6.77353149414062e+02 9.09341812133789e+00 4643 
1.32745910644531e+03 5.44593811035156e+02 4.82531309127808e+00 4644 
3.24054028320312e+03 1.39286828613281e+03 1.04454545974731e+01 4645 
3.74686596679688e+03 2.31647167968750e+03 5.39081716537476e+00 4962 
3.73977758789062e+03 1.67630371093750e+03 5.40870189666748e+00 4963 
2.10950170898438e+03 1.55001440429688e+03 1.35552272796631e+01 4964 
1.37094897460938e+03 3.34088012695312e+02 7.69480228424072e+00 4965 
3.73603271484375e+03 2.46481176757812e+03 8.68810176849365e+00 4966 
1.72900866699219e+03 6.23314636230469e+02 6.67270278930664e+01 4967 
1.08918286132812e+03 1.24875488281250e+03 4.45969057083130e+00 5401 
1.33320236206055e+02 1.88572912597656e+03 1.44489822387695e+01 5402 
1.34484655761719e+03 5.42788391113281e+02 8.76576614379883e+00 5403 
2.02743493652344e+03 2.31111157226562e+03 9.34420394897461e+00 5404 
3.13608105468750e+03 1.42490881347656e+03 9.13955307006836e+00 5405 
2.15341381835938e+03 1.42300695800781e+03 1.01456518173218e+01 5407 
2.31170922851562e+03 7.16744689941406e+02 6.64934682846069e+00 5417 
2.93950341796875e+03 3.37734405517578e+02 4.10099220275879e+00 5418 
1.94703063964844e+03 7.35849670410156e+02 5.38266944885254e+00 5419 
6.59685058593750e+02 1.60788623046875e+03 1.11785364151001e+01 5420 
3.10756909179688e+03 1.15552954101562e+03 1.30785608291626e+01 5421 
1.40090673828125e+03 6.27955322265625e+02 6.55597534179688e+01 5422 
2.37570043945312e+03 6.19065856933594e+02 6.60841674804688e+01 5423 
2.14285498046875e+03 2.04409838867188e+03 6.41033697128296e+00 5449 
2.22394824218750e+03 1.43690051269531e+03 8.42296028137207e+00 5450 
2.06546191406250e+03 1.09893774414062e+03 2.52251052856445e+01 5451 
1.54959594726562e+03 1.50563366699219e+03 2.76427097320557e+01 5452 
2.11191577148438e+03 1.26516247558594e+03 3.56539573669434e+01 5453 
1.94163610839844e+03 1.10990380859375e+03 6.22851371765137e+00 5454 
1.62909387207031e+03 1.27452294921875e+03 5.42206811904907e+00 5455 
1.49518347167969e+03 1.50982006835938e+03 1.35883827209473e+01 5456 
1.89241906738281e+03 1.22501647949219e+03 9.24876403808594e+00 5457 
2.24165576171875e+03 1.41853100585938e+03 1.02052383422852e+01 5458 
2.86864062500000e+03 2.04532089233398e+02 1.01161212921143e+01 5459 
3.05329077148438e+03 2.32958178710938e+03 2.05137672424316e+01 5460 
1.60209179687500e+03 7.27512268066406e+02 1.53596391677856e+01 5461 
1.60722644042969e+03 1.51928295898438e+03 1.71500377655029e+01 5462 
1.39427404785156e+03 1.60883276367188e+03 6.75340957641602e+01 5463 
2.94717993164062e+03 2.45440600585938e+03 1.07093439102173e+01 5464 
1.31644079589844e+03 1.47528393554688e+03 1.15950937271118e+01 5465 
