ply
format ascii 1.0
element vertex 497
property float x
property float y
property float size
property short id
end_header
2016.691162 1901.092896 28.623293 22 
3153.515869 811.541199 15.620946 25 
3202.550049 871.777344 15.205070 28 
1645.747803 2031.282104 12.174562 58 
801.823730 846.717590 3.973069 82 
1790.407227 927.852051 9.716077 83 
2636.346191 1041.364014 3.604473 84 
1430.016357 976.892700 10.774195 85 
1405.560181 1504.054321 7.810524 86 
657.263428 1068.119995 10.070724 87 
3745.056641 837.574585 3.363788 88 
2343.749512 192.291977 4.076950 89 
799.634888 1044.841187 12.597912 90 
2505.559326 1599.227051 19.831589 91 
881.872437 1382.299072 54.413582 92 
302.182922 1774.137573 6.353822 94 
251.599365 1921.399170 6.030600 112 
486.662872 2415.533203 11.673258 126 
2326.686035 882.945740 6.370147 286 
3432.657959 2204.317139 6.203446 287 
3230.929932 2468.656494 6.840311 288 
3028.876221 2172.160889 7.286162 289 
3475.175293 2298.385010 4.894458 290 
3553.450195 2497.650635 6.021690 291 
3620.755859 2091.848389 6.135370 292 
3660.856689 1828.555420 5.520904 293 
3769.599365 1859.050537 7.436626 294 
3583.346191 1983.601929 9.021849 295 
3239.400146 1736.107422 8.985096 296 
2184.883789 1615.145996 12.066146 297 
3412.945801 2459.581055 9.238556 298 
665.915894 771.744385 7.557170 299 
3599.450684 2131.487549 4.480669 300 
3546.290771 2398.160400 6.227499 301 
3517.867188 2111.541748 5.069865 302 
3281.697266 2336.402100 7.778577 303 
3178.187012 2504.471436 7.268695 304 
3381.706299 2425.564453 7.217447 305 
3532.342529 2328.359619 8.590848 306 
3400.266113 2404.753418 6.088218 307 
3476.839111 2476.503662 7.635933 308 
368.119568 117.308647 8.074314 309 
2937.908203 2329.748535 6.647067 310 
1819.440552 1047.432373 6.478336 311 
3620.263916 2072.881104 7.901789 312 
777.152466 787.772339 9.401754 313 
3508.361572 2265.199463 7.918461 314 
1113.925903 513.315796 3.935726 315 
3449.083252 2375.925293 9.722377 339 
2977.385986 2224.804443 8.789825 355 
3502.737305 2439.185791 7.630527 356 
3274.612305 1917.554932 15.364601 373 
3468.201172 2316.318848 7.568693 408 
3401.825195 2506.381836 7.006985 426 
3299.830566 1859.807129 6.309479 427 
3041.495117 2129.597900 7.281962 435 
3432.117188 1643.867676 6.744888 471 
2952.195557 2230.416992 8.204209 472 
2846.806885 1605.184692 6.184959 479 
1641.355347 583.264526 9.716674 485 
3175.623779 1184.771729 12.550968 583 
3837.842773 1610.109863 4.025860 609 
3839.895508 1570.107666 4.967018 618 
3696.008301 1760.907104 6.256118 730 
3776.567383 2140.959717 8.206074 778 
3639.510254 2202.131836 7.722950 779 
3556.673340 2327.957764 7.817352 780 
3097.525879 2396.195068 8.404272 781 
3308.087891 1805.988281 7.361128 782 
552.791138 2189.531250 7.868861 783 
3603.092773 2318.134521 9.382284 784 
3628.640625 2374.778564 7.540153 785 
202.864380 2504.013672 7.727437 786 
417.644379 2503.170410 8.584189 787 
3238.779541 2502.609863 8.149825 788 
3360.271729 2248.840576 12.036418 789 
232.031509 2362.712158 14.420924 790 
3361.680664 2418.015625 16.199709 791 
3721.094971 2421.553955 15.016198 792 
3675.388184 2266.001465 17.034588 793 
3056.477783 998.131531 18.246298 794 
3593.886475 1671.885376 14.624667 795 
1142.673584 1789.686768 14.059924 796 
1701.458862 2016.244507 30.992125 797 
1712.368286 2157.339111 30.060595 798 
174.676682 1997.425293 5.860032 799 
353.759705 2025.034790 6.450647 800 
114.924553 2073.692627 7.023729 801 
524.866516 2099.855225 6.442338 802 
524.054565 2185.788818 6.735259 803 
2079.044922 105.089989 3.622448 804 
715.691711 2367.548096 5.497912 805 
190.885712 1715.865845 6.871793 806 
220.967606 2033.030029 9.445179 807 
3726.740234 2290.381348 9.802732 808 
192.993500 2416.622314 7.291378 809 
3350.727295 1813.784424 8.506810 810 
213.922058 2256.779297 8.999825 811 
3665.321533 2320.609375 7.912219 812 
183.934967 2387.828613 8.863353 813 
3786.914062 2451.435791 8.131022 814 
811.478882 2355.764160 12.309449 815 
484.616974 2144.390137 7.617391 816 
3402.710938 2145.969971 7.814843 817 
673.624390 2399.923096 8.947569 818 
3278.570557 2398.876465 8.431904 819 
3516.201660 2404.803955 9.852056 820 
3337.585449 2044.876831 11.140894 821 
3751.217041 2039.213867 7.580131 822 
484.811127 2105.142334 7.863716 823 
399.924255 2480.032227 9.704789 824 
803.318726 2484.246826 8.275787 825 
3171.718018 2480.976807 8.890604 826 
3751.701416 2481.117676 7.944619 827 
3599.194580 1857.819580 6.281573 828 
273.961853 1947.997070 5.928522 829 
3179.905762 2006.795532 5.925802 830 
499.174469 2230.191650 7.114666 831 
3658.690918 2231.131592 6.087886 832 
704.107117 2256.658203 6.641701 833 
602.858704 2287.027588 6.378601 834 
3675.889648 2508.259766 6.596817 835 
3770.109375 2215.089600 7.429719 836 
177.855194 2281.271484 10.178956 837 
2900.033936 2342.270020 7.003576 838 
3522.220947 2348.145020 7.983420 839 
145.122864 2412.529785 10.845126 840 
184.680222 2477.432373 9.524109 841 
452.574371 1984.538086 8.565069 842 
3797.251709 2110.773193 7.800988 843 
3752.408691 2180.154785 7.989539 844 
3115.928467 2370.576904 8.048649 845 
3220.736816 2436.003906 7.303471 846 
3601.736816 2488.291260 9.598830 847 
3338.351074 2311.528076 6.007576 848 
3716.141113 1792.250610 6.399119 849 
3629.357178 1917.752930 6.923124 850 
3528.825928 2261.330322 5.863863 851 
92.860420 1547.849243 6.394331 852 
230.850998 1830.540161 6.023296 853 
3636.085938 2291.417969 7.036671 854 
3616.724365 2453.736084 5.919468 855 
504.164612 610.928711 5.149911 856 
195.537079 1809.857910 6.475673 857 
3675.060791 1836.737427 6.244286 858 
73.058640 2110.517090 6.870302 859 
3301.364014 394.251831 3.601729 860 
3362.047852 1740.283325 6.065127 861 
498.206085 2070.318848 5.773875 862 
160.394821 1693.554321 8.779465 863 
3770.774658 2078.581299 7.453999 864 
3800.824707 2136.000000 8.773156 865 
3717.503418 2266.150391 8.483504 866 
3322.416992 2326.971436 10.274033 867 
3634.751465 2396.974609 8.285807 868 
203.763809 2125.787109 7.939092 869 
470.142426 2121.284912 8.624917 870 
3413.710693 2124.879883 7.546005 871 
680.993225 2248.060547 9.731513 872 
2994.338379 2249.351562 6.949329 873 
344.312592 2507.677979 7.895376 874 
743.555603 2506.311035 8.520964 875 
672.532593 2360.958008 17.256268 876 
208.233307 2068.675049 16.181532 877 
3190.284912 1995.826782 6.148398 878 
3429.781494 2079.915283 6.206049 879 
3648.569580 2243.090088 6.129609 880 
781.248047 2336.103027 6.183570 881 
2327.771240 200.927673 3.877544 882 
1409.195923 820.416443 6.687043 883 
3496.762207 2019.746460 5.862621 884 
481.893005 2166.672607 6.602911 885 
277.383972 1714.694458 7.376467 886 
85.410767 1972.032471 7.886872 887 
3718.204590 2165.748535 8.833077 888 
3610.371094 2294.173584 9.743803 889 
3500.876953 2355.578369 8.196316 890 
3495.631104 2416.770508 7.946496 891 
275.890717 2497.191650 7.317725 892 
875.946411 2496.778320 8.796118 893 
3156.655273 2496.675293 8.477413 894 
3714.775879 1998.907959 7.937561 895 
3612.066650 2191.539307 7.743814 896 
230.808197 2320.622803 8.265433 897 
347.320892 2319.182861 9.860144 898 
155.474808 2387.021973 10.717540 899 
3236.616699 2448.234863 7.304464 900 
2932.297607 2286.803467 11.558179 901 
751.978760 2425.714600 12.444990 902 
291.190002 1825.378662 7.846713 903 
174.025864 2015.555664 7.947747 904 
441.485504 2018.833618 10.116728 905 
3743.395508 2017.733032 8.473977 906 
199.630661 2085.495117 6.913531 907 
3445.305420 2334.931396 9.214746 908 
3734.664551 2339.630371 8.379482 909 
782.388794 2464.692627 11.041348 910 
363.333466 1853.856812 9.555449 911 
3659.926758 1848.048218 7.630848 912 
3696.210938 1854.257935 10.442607 913 
3676.220703 1975.193115 7.945500 914 
3779.529785 2168.493164 9.529552 915 
108.159409 2301.092041 9.667549 916 
665.838867 2301.645264 10.182062 917 
3696.153076 2364.700684 7.888825 918 
386.845978 2424.982178 7.115539 919 
211.884537 2485.922852 7.610310 920 
3577.710449 2484.876709 11.001322 921 
3767.635498 2306.477051 11.526914 922 
1545.309570 363.498962 7.747914 923 
534.420593 2201.749756 6.847572 924 
629.279663 2351.434082 5.656239 925 
1065.701660 707.749695 7.933970 926 
3670.019043 2347.321777 8.524035 927 
160.614700 2470.669922 7.071396 928 
3116.866943 2049.410645 8.376924 929 
3522.377197 2049.698242 8.833745 930 
3650.944580 2369.069580 7.760308 931 
3610.941162 2435.796143 8.297793 932 
3796.085938 2435.020752 7.574427 933 
3739.926514 1899.456177 11.321198 934 
3198.418945 2437.829346 6.689947 935 
3443.119385 2058.189209 6.303345 936 
726.940002 2322.782959 7.256177 937 
3105.365479 382.589600 5.207523 938 
254.045471 1829.118042 6.515361 939 
300.845825 1862.278320 5.751989 940 
749.710388 2326.044922 6.326300 941 
2837.165527 2454.763916 6.300058 942 
180.405991 1981.921753 5.905367 943 
456.893677 2084.485596 6.549683 944 
3669.626953 2111.100586 6.208431 945 
3687.361816 2013.127197 5.975291 946 
3582.608398 2210.663330 6.351190 947 
588.436584 2238.535645 6.422412 948 
516.583801 2266.053711 6.712581 949 
3332.295654 2296.787354 6.133301 950 
285.033173 2391.651611 6.477286 951 
2426.928467 1815.336182 9.764584 952 
434.185608 1159.788086 9.945046 953 
1537.420166 955.327148 16.677168 954 
475.983368 996.359314 18.316652 955 
3199.577148 1375.438232 9.118487 956 
2286.817627 1056.223877 11.827756 957 
1726.642944 1254.294434 3.973108 958 
351.820648 1402.384766 7.655494 959 
922.276672 1989.135742 7.449742 960 
663.078308 2332.577148 8.152664 961 
300.396667 2379.265137 7.514226 962 
2207.516113 1815.362793 28.912354 963 
113.650635 1595.711426 4.343485 964 
3675.940186 746.620850 5.874727 965 
444.849670 2170.279053 6.672657 966 
3213.167480 601.128479 5.039150 967 
302.624329 1843.970459 6.605594 968 
545.782776 2306.189697 6.305678 969 
466.415833 2433.376709 5.977345 970 
500.469025 2499.098633 8.265120 971 
351.336121 2000.572021 9.115680 972 
317.477081 2339.624023 9.178149 973 
42.892937 1555.555908 4.596175 974 
347.840607 2348.892334 7.032514 975 
239.307190 2092.168701 9.530321 976 
529.770691 2243.427734 9.502865 977 
658.158875 2263.646240 5.739883 978 
576.696716 2357.592529 5.755512 979 
468.097565 2485.838867 7.013689 980 
361.201019 2516.819336 6.515215 981 
3088.668213 524.901428 4.862649 982 
784.448853 2394.832520 6.775758 983 
465.738922 2327.580078 7.676410 984 
3110.787598 1361.906860 13.865523 985 
379.830566 1933.395630 7.173923 986 
3479.358887 724.363831 4.008507 987 
3653.419189 1394.845703 5.585400 988 
832.113708 2409.938477 5.627193 989 
478.613037 2441.481445 6.281631 990 
1056.362061 1194.537720 4.461252 991 
389.558594 2500.336426 7.885581 992 
2038.942627 105.816307 8.468320 993 
343.858429 2386.834229 8.074280 994 
405.154327 2386.515381 8.241873 995 
764.096497 2390.050537 7.388583 996 
512.327393 2449.056885 9.478059 997 
1234.366699 1590.625854 8.610490 998 
427.334808 2482.713379 9.155586 999 
677.639465 2348.845947 6.787991 1000 
233.307144 2392.903320 5.264509 1001 
123.671204 1516.574341 5.931496 1002 
118.698708 1862.978638 5.885900 1003 
757.619934 2356.168213 5.742214 1004 
3598.946533 771.471741 5.712601 1005 
421.950012 2061.044922 5.993639 1006 
3243.580078 605.072388 4.797351 1007 
672.930237 2461.063477 7.646474 1008 
2519.837891 2055.887451 13.802757 1009 
210.921570 2316.988525 8.298153 1010 
3560.131104 761.363098 18.140598 1011 
3324.052490 662.381897 16.387178 1012 
3389.276367 689.660706 15.707325 1013 
329.105713 2042.267090 4.332481 1014 
129.630890 1650.136475 5.002056 1015 
131.124954 2095.903564 10.099206 1016 
281.796448 2226.695068 10.825513 1017 
699.284851 2291.253418 8.587612 1018 
200.629456 1679.907837 9.182789 1019 
113.155655 2132.089844 8.018366 1020 
200.417114 2148.573975 7.757889 1021 
110.005966 2273.880371 9.956487 1022 
393.243835 2405.878906 8.499902 1023 
711.609497 2428.944336 9.512940 1024 
167.137405 2048.777832 14.012868 1025 
153.804306 2303.772705 12.078282 1026 
161.309448 1654.467041 5.188398 1027 
3522.595703 692.500427 5.786146 1028 
68.817307 1889.547485 5.804315 1029 
629.373657 2255.961426 6.115656 1030 
794.137939 2220.470703 9.894106 1031 
279.696808 2158.228027 11.556490 1032 
126.576309 2309.805908 6.336911 1033 
230.852341 2053.466553 5.614361 1034 
429.866364 2003.143799 6.087949 1035 
3271.791260 627.880249 5.183695 1036 
116.958778 1675.277588 5.992217 1037 
143.514832 1673.778564 6.898090 1038 
3341.526123 655.610535 4.570376 1039 
478.906097 2078.976318 5.098217 1040 
345.480469 1945.478394 7.359127 1041 
225.402084 2071.029297 7.970446 1042 
165.732117 2141.403320 10.935345 1043 
147.252518 2192.755615 12.862499 1044 
483.637726 2060.993896 7.387569 1045 
284.826111 2188.215820 12.806768 1046 
3337.119141 718.131104 22.307661 1047 
3639.669434 1160.035400 20.667078 1048 
3408.680908 694.821655 4.144317 1049 
53.470669 1849.677124 4.872659 1050 
294.862640 2314.220215 6.395509 1051 
66.113899 1904.140015 5.086540 1052 
354.173309 1906.915405 4.640557 1053 
512.573364 1999.863770 5.481209 1054 
319.788391 1784.238892 5.790112 1055 
79.482231 2130.010498 6.726451 1056 
264.103912 2369.059326 6.428903 1057 
692.447571 2465.575684 6.992205 1058 
200.947220 2021.691772 6.037436 1059 
392.039093 2053.236572 6.782367 1060 
504.589233 2100.910645 7.270401 1061 
228.286423 2223.580566 10.973244 1062 
394.958862 1875.842163 7.398896 1063 
2737.924072 388.043610 8.024530 1064 
272.683777 1890.747070 9.548915 1065 
244.551819 2018.721436 8.335461 1066 
78.096931 2272.661621 7.443073 1067 
623.403625 2274.946777 9.538777 1068 
309.233917 2169.604004 10.612098 1069 
344.296082 2143.750244 6.662491 1070 
311.864532 2286.749023 6.717773 1071 
363.383087 2235.212158 12.324758 1072 
3037.762695 514.425232 7.204667 1073 
147.828461 1984.587646 10.842266 1074 
389.122437 1989.482056 8.875981 1075 
178.587311 1667.141846 5.511002 1076 
56.294361 2112.699707 5.387242 1077 
412.735992 1947.508667 5.877910 1078 
154.882324 2090.906982 6.888445 1079 
154.795044 1610.324585 5.775627 1080 
57.427071 1984.238403 5.288305 1081 
211.946350 2188.924316 6.657446 1082 
338.382812 1203.182251 12.416150 1083 
169.107681 1677.813721 5.393703 1084 
442.468811 1785.122559 7.374003 1085 
605.291199 1976.030151 10.718059 1086 
2625.643066 1977.253418 9.562164 1087 
2485.983643 603.761108 10.032338 1088 
1742.357422 464.866150 9.525303 1089 
1863.181885 216.841492 11.530657 1090 
1850.710327 242.219925 11.962288 1091 
191.043457 2062.373291 6.219400 1092 
2599.371338 1354.174805 19.977261 1093 
195.226883 2352.426270 18.576990 1094 
2801.565186 1556.456543 17.162367 1095 
2451.940186 1263.020142 15.462656 1096 
914.687805 675.864624 6.369941 1097 
159.607117 1783.368286 7.062188 1098 
519.180542 515.977356 4.170494 1099 
292.407623 1804.008423 4.679912 1100 
384.767090 1960.618042 6.120638 1101 
2299.292236 1592.749023 7.984437 1102 
619.747192 1604.158813 6.535232 1103 
2420.605469 1230.066406 6.383881 1104 
2524.918213 2106.699951 26.507832 1105 
2450.136475 845.674622 4.777735 1106 
1685.145264 540.051758 5.055489 1107 
3168.445801 1771.795288 5.374060 1108 
2116.274658 1040.131836 10.684620 1109 
323.718597 2362.380859 7.702156 1110 
2038.319092 1689.894165 9.426350 1111 
738.529175 1676.729980 8.205648 1112 
1555.082275 1352.217041 20.123968 1113 
944.294189 1150.865479 20.588297 1114 
3207.817871 1774.309937 10.462643 1115 
2766.081055 934.196716 9.171467 1116 
1685.490356 632.796143 9.205783 1117 
422.884949 985.663330 4.322537 1118 
1560.409180 73.187042 4.310175 1119 
1653.827271 871.367798 10.193064 1120 
1426.261841 1504.276611 4.094945 1121 
1607.584839 1464.185669 16.548473 1122 
1144.815552 1231.673340 21.435043 1123 
3813.798828 724.382202 4.722934 1124 
2634.846924 2468.167969 4.589506 1125 
2260.719727 2417.429932 7.671907 1126 
2401.830566 1061.935913 12.852938 1127 
2264.678467 421.955811 9.725591 1128 
2552.662842 514.362183 8.915853 1129 
2366.878418 450.166748 5.111114 1130 
479.506195 892.880798 11.059705 1131 
487.498077 1390.583618 7.003509 1132 
1839.120728 203.918640 4.491168 1133 
2663.360352 826.454712 19.071989 1134 
861.096130 2272.558594 16.584269 1135 
339.018433 2170.355469 6.660200 1136 
1156.439331 2059.351562 4.016823 1137 
2822.945068 1094.839233 12.106438 1138 
2899.905518 380.011169 4.322146 1139 
357.724670 916.228638 6.988864 1140 
1837.835205 952.948914 6.924535 1141 
2345.930664 467.412781 4.948060 1142 
57.339733 1776.968994 5.888313 1143 
716.479065 1845.284058 16.345615 1144 
634.335571 789.999268 4.911802 1145 
1885.146484 1765.320801 7.956893 1146 
3083.598633 1414.165649 13.674221 1147 
2378.136719 1114.298096 3.667463 1148 
2532.999023 1200.090088 9.314676 1149 
1939.140503 1553.046753 10.467102 1150 
946.261292 709.100403 3.737945 1151 
2180.313965 813.784729 6.215347 1152 
3081.673584 942.746338 6.679559 1153 
2599.072266 1197.378418 5.355208 1154 
1947.151855 384.815460 14.570128 1155 
1993.136597 409.335297 7.394150 1156 
817.014465 2110.018066 9.000484 1157 
2056.460938 703.540649 10.540495 1158 
1245.322876 687.468140 5.521160 1159 
1174.904297 1218.857788 52.860367 1160 
687.755005 918.732910 7.685516 1161 
312.885773 768.204712 9.540932 1162 
1515.658081 295.073151 6.254935 1163 
3766.462402 1692.246094 8.057127 1164 
2966.771729 2305.172607 19.460989 1165 
3476.298828 2107.770264 4.339797 1166 
3736.567383 1995.753784 6.155535 1167 
3483.175537 666.112732 3.694661 1168 
3800.560303 1655.102173 5.818076 1169 
3635.970215 1846.105347 8.600520 1170 
3742.556396 1718.338135 4.320135 1171 
1768.974854 351.661560 4.602163 1172 
1037.504639 272.131836 5.554880 1173 
1057.344360 265.636047 4.679958 1174 
2388.936279 545.951111 47.132145 1175 
2140.401367 437.832825 5.585063 1176 
3570.284424 2116.958008 4.293939 1177 
3400.522949 1720.933594 7.281171 1178 
3280.003418 529.346008 5.438458 1179 
3624.643311 1857.559082 5.406333 1180 
3798.025146 2017.234253 5.148189 1181 
2674.152344 2061.327148 28.797274 1182 
3589.772217 1444.260986 6.075606 1183 
801.604736 434.944611 4.061806 1184 
3543.551025 2054.317627 5.297039 1185 
3674.651123 1862.524780 5.972160 1186 
3214.871094 1929.163940 6.866596 1187 
3096.179199 2096.050293 8.434841 1188 
2384.075684 1889.109131 10.207464 1189 
2553.409180 358.478638 3.930954 1190 
1735.745361 1677.195068 26.780302 1191 
1734.444702 1615.828613 3.803048 1192 
417.654327 2286.684082 7.805531 1193 
167.402130 1556.588135 5.358580 1194 
2854.767578 771.904297 6.900407 1195 
2198.653320 73.174744 7.840984 1196 
315.341309 1735.922485 3.733214 1197 
2242.244141 688.030579 9.172931 1198 
1350.135742 1338.359985 8.400227 1199 
626.421936 2314.548584 7.311708 1200 
2816.991455 1267.487915 11.577456 1201 
820.936768 2442.877441 6.000148 1202 
2000.857788 1567.373535 10.586098 1203 
2377.233887 1718.816650 12.770711 1204 
1524.756958 834.150574 4.265483 1205 
3303.531738 1613.015625 13.638546 1206 
1998.995117 2307.147217 3.998494 1207 
3245.159668 2357.774658 7.457034 1208 
2051.165527 1795.046997 10.296662 1209 
730.923828 2372.251709 6.492717 1210 
