ply
format ascii 1.0
element vertex 1143
property float x
property float y
property float size
property short id
end_header
2047.069336 233.658295 13.279983 28 
2088.496094 1800.140381 8.491954 48 
2074.105957 280.027161 6.466414 57 
2672.666992 1353.757935 4.947542 58 
2069.085449 211.457764 10.574452 67 
2087.873535 249.291656 17.654270 75 
2170.224854 1044.914062 4.754643 90 
987.753723 1161.226562 26.142990 121 
2866.856689 1060.215454 3.979537 142 
1237.269165 1480.576538 13.173739 154 
2447.110840 2205.136230 4.072619 179 
2557.674561 2016.533691 3.716403 180 
2548.384766 2033.887817 4.084421 182 
2639.785156 1880.406128 4.227290 183 
2006.999634 1552.772705 16.556290 185 
2518.127686 2095.782471 4.458753 189 
2375.884033 1175.398315 5.007155 194 
2458.359619 2124.779297 4.957277 195 
2517.411865 2083.106689 3.585002 196 
847.907471 1420.535522 4.581254 197 
2257.018311 255.873474 6.820652 198 
2431.468994 2273.180420 15.576448 199 
2119.422607 1691.439819 14.018338 200 
2296.754639 2374.755615 10.008601 201 
750.357239 523.522583 5.053251 202 
2528.504395 2077.504639 4.135383 203 
2063.723633 170.757065 6.075216 204 
1892.770996 1011.476562 5.276109 205 
914.795715 452.211945 5.981450 206 
1999.763306 709.940613 11.178375 207 
1832.237671 1856.981689 42.800819 208 
1591.432739 656.949829 46.819553 209 
2605.250488 1947.831299 4.168532 227 
2264.460205 2527.981689 4.024407 228 
2293.286621 2463.743896 5.684853 234 
2533.892578 1996.143433 5.636993 253 
2627.978760 1959.343140 4.657968 268 
883.769958 2067.536865 5.640554 345 
1297.649414 577.183899 8.087164 369 
440.267609 1629.878296 4.461452 393 
2466.135010 2293.626221 13.022899 418 
2108.296875 277.407043 6.557147 484 
2442.387207 1395.533081 7.770387 506 
308.765137 1975.505493 9.372831 526 
1347.085205 1167.691895 9.278034 527 
2504.392334 1151.646973 8.076970 555 
2607.128418 2002.219482 5.121234 559 
285.592285 1595.714966 7.982626 561 
1803.172241 726.570679 6.087835 562 
1726.551270 1421.862915 4.788169 563 
2591.312012 234.874359 12.514988 564 
2397.464600 2164.785400 6.166480 565 
971.130859 2151.650879 5.926378 566 
202.323608 1396.556519 4.072271 567 
1288.262329 1703.934937 14.007214 568 
1963.874146 1522.629517 42.576447 569 
885.384705 736.822815 3.873097 570 
3038.178467 1267.990601 21.897236 571 
780.059937 1974.944702 4.990953 572 
1811.331543 1602.199219 9.971983 573 
1097.978638 313.710510 6.437513 595 
2556.091064 2102.927734 5.124209 755 
2664.826660 1335.637085 9.740099 797 
2743.687256 1936.097046 3.327257 840 
678.213440 1864.759399 5.975316 901 
1258.064697 261.280579 5.407542 930 
811.650391 604.903381 5.567898 969 
686.786011 2317.655518 8.844222 997 
347.538544 901.670227 5.853334 1070 
1499.035156 1729.124023 6.679979 1112 
2743.037354 1356.790649 5.119781 1133 
2262.769287 991.803894 14.319095 1134 
847.646301 1941.978760 5.507471 1135 
333.560699 904.030762 4.969480 1136 
1394.477539 2375.451172 6.572807 1137 
1954.805176 900.364136 11.875429 1138 
2747.946777 1886.522583 5.274263 1139 
2496.192627 1775.888794 7.607131 1140 
2357.489990 1934.510498 5.172997 1141 
2628.437256 960.153992 5.521345 1142 
1375.230103 2075.354980 5.724408 1143 
1269.011963 775.193115 56.301636 1381 
2750.404785 1339.284912 9.448456 1696 
2464.174561 1263.560059 5.030558 1705 
2248.789307 1323.162476 48.164669 1708 
174.026321 1264.188843 11.154032 1713 
1697.539795 1547.923462 10.489204 1714 
477.244995 1692.630371 10.964110 1715 
1221.660767 1975.359131 17.013504 1716 
1402.439453 1591.522705 6.258914 1717 
2657.531250 185.041443 5.230533 1718 
643.786133 488.598969 4.905888 1719 
2443.714844 2335.801025 11.028865 1720 
2649.022705 2065.383545 6.773868 1721 
503.963470 1294.434448 12.954125 1722 
872.762329 659.768738 10.485400 1723 
1983.369629 212.485855 16.768848 1734 
2023.017578 2383.458740 14.256785 1777 
986.630249 1226.644653 20.173393 1810 
2023.423584 2298.628418 18.238644 1818 
1848.830322 1517.187988 44.670902 1844 
2102.031982 230.276993 5.860745 1868 
2763.041748 610.226929 5.640197 1889 
2035.817261 457.140747 6.645728 1931 
1719.115601 2276.018799 4.117983 1932 
2802.180420 1744.746704 5.170569 1933 
623.623047 1921.658691 8.307607 1934 
2743.937500 1214.984131 6.141426 1935 
1261.907227 2547.052246 3.731398 1936 
2404.329590 1759.870239 6.041329 1937 
2004.340820 1206.788452 7.868364 1938 
405.927185 1046.415405 7.301420 1939 
1390.163940 1312.279541 8.184072 2117 
2369.252686 1374.546143 11.342658 2353 
1387.340454 1635.996704 5.607200 2361 
985.719299 1292.139282 26.602377 2382 
2519.451904 476.686951 3.652364 2533 
2849.675293 1067.797119 3.649959 2553 
2507.214600 1223.716797 9.438786 2603 
2014.041382 221.228317 11.785538 2609 
2698.213867 781.188171 5.277796 2653 
484.618866 1939.221680 4.865197 2670 
2707.681885 1290.567505 13.445745 2683 
2673.686523 756.202576 3.710816 2731 
2716.234863 832.236328 3.891571 2751 
2698.385498 802.143311 3.660923 2756 
2395.681152 1369.829224 10.211907 2758 
2107.425049 867.649048 11.619776 2767 
1860.583374 806.656311 8.041180 2768 
2922.641113 1162.760376 3.979190 2769 
3591.260986 562.628418 3.722614 2770 
2193.469971 1089.520752 18.362104 2771 
2440.389160 699.817627 7.366888 2772 
691.613220 1984.779663 4.380718 2773 
2927.308594 1194.117676 6.153802 2774 
1425.799072 52.675415 3.696427 2775 
1525.597412 2213.040039 6.576718 2776 
2271.878174 1636.020508 9.896481 2777 
1837.208496 2228.900879 6.680870 2778 
1481.559448 182.658081 4.140443 2788 
2416.838867 1397.369263 8.177502 2803 
605.777893 1903.928955 5.844079 2848 
931.042480 2346.385010 20.993809 2866 
2431.616699 324.804932 3.862525 2881 
2588.961182 606.981201 3.773257 2898 
1169.850708 2368.207764 4.995754 2937 
2688.253418 805.503662 4.688303 2949 
2524.167236 467.705780 3.614678 2966 
2764.807861 897.955383 4.744149 2989 
2484.881592 108.985222 7.230174 2991 
1078.609863 2491.918945 5.607183 2992 
1216.940186 2380.822510 5.238024 2998 
2517.177979 2177.146729 4.383882 2999 
2612.810547 645.948181 3.959116 3000 
2753.026855 897.652649 4.076780 3001 
1763.873901 498.263397 4.610260 3002 
1439.150757 1079.791626 5.486256 3003 
2415.545410 1004.206665 10.403253 3004 
2420.756104 308.264496 3.616848 3005 
2879.750488 2543.733643 3.890321 3006 
2284.963867 50.868557 5.306472 3007 
2960.368896 1017.988159 3.700656 3008 
2485.071289 108.799316 7.137569 3009 
2412.519775 2355.809814 6.494417 3010 
892.083191 458.433502 7.975243 3022 
2060.921631 314.139221 7.837700 3139 
2628.783936 1020.420044 6.211264 3163 
1313.717651 247.298431 6.493428 3165 
2434.422119 1239.008423 4.245385 3168 
1105.224365 143.319656 5.351950 3171 
1326.490845 255.216507 5.445946 3176 
1296.327271 265.347229 5.910437 3177 
1310.238159 236.261871 3.846761 3180 
993.667969 553.728027 3.909823 3183 
1135.143555 390.568176 6.389015 3188 
1113.357544 434.569336 5.184729 3190 
1289.243530 253.135376 5.353559 3191 
2253.763184 2529.756836 4.225168 3192 
2243.414551 2545.749268 4.227569 3193 
2036.414917 827.200317 14.331434 3194 
1811.888672 734.600342 4.885036 3195 
1147.128662 403.160339 5.850016 3196 
2377.965332 1219.216553 6.076970 3197 
1134.091797 1331.972778 8.504698 3198 
1754.835815 568.728516 10.373110 3199 
1156.596313 117.923119 5.458943 3200 
1154.045410 353.485870 6.087943 3201 
1202.532593 67.348328 5.925379 3202 
968.000977 494.002045 4.554548 3203 
1221.865234 96.884201 6.304482 3204 
1201.325562 118.284966 6.654254 3205 
1226.690063 111.525078 5.555844 3206 
2094.252930 1933.719482 6.256962 3207 
1953.837036 2283.204590 24.873159 3208 
1089.671265 222.560730 5.088469 3209 
986.555237 485.362488 6.078184 3210 
2638.122803 1894.507935 3.606552 3211 
1130.701538 96.798958 5.380559 3212 
2622.041504 1922.518066 3.596409 3213 
2166.111816 937.293457 6.164439 3214 
2459.234863 2283.878418 5.393827 3215 
1617.899170 2445.118408 9.637401 3216 
2122.446045 932.370239 6.888179 3224 
887.852051 577.144958 5.867168 3228 
907.777954 605.731567 4.302171 3229 
2789.040283 2084.340088 3.597578 3238 
1229.595703 284.380066 4.433998 3256 
1462.679443 107.785118 4.919502 3263 
1504.104980 120.730125 5.085068 3264 
1217.380493 77.410522 7.548462 3331 
1000.997864 508.530396 4.953092 3333 
1294.113403 44.741268 4.426478 3336 
970.068970 2449.310303 5.316777 3367 
2152.464355 133.750946 12.831404 3371 
829.804199 2321.817383 6.975074 3372 
2542.438477 1050.319580 11.611485 3374 
2761.745605 1598.779419 7.817926 3375 
2446.270508 351.023499 4.053760 3379 
2608.309326 205.401825 3.946343 3383 
790.840027 2269.993408 5.479599 3385 
894.768616 2367.420898 6.295418 3386 
2682.908203 771.184326 4.398719 3393 
2596.749268 252.494156 4.844844 3397 
2648.013428 225.999268 4.228801 3398 
952.312256 2140.063232 4.675408 3400 
2592.066162 594.326538 5.420042 3405 
2719.973145 819.785767 4.795530 3413 
2568.370361 549.760498 5.122669 3417 
901.725525 2384.405762 4.479034 3420 
1005.451233 2167.878174 6.538786 3424 
2484.868652 399.800415 4.431645 3426 
2663.938232 719.763611 4.204581 3427 
2432.900635 311.323822 4.929787 3433 
2674.210449 735.981079 4.251101 3434 
2748.716309 350.518463 4.887245 3435 
976.640747 2439.123779 3.905623 3442 
505.230377 1985.064331 5.689252 3444 
732.774658 2208.427490 5.986422 3445 
797.620178 2300.611572 4.887518 3446 
661.034302 2117.363770 4.820110 3447 
693.013672 2164.761963 4.851504 3448 
593.363647 2349.144043 6.167199 3449 
599.590332 2463.126221 6.192642 3450 
555.806213 2051.780029 6.151176 3451 
616.805054 2308.639648 6.026984 3452 
813.602234 2253.270996 6.692343 3453 
871.251953 2271.379150 6.821762 3454 
2112.036377 958.216919 6.655829 3455 
1032.140259 2223.852051 4.768776 3456 
1151.288452 2132.210205 13.732548 3457 
3222.893555 888.844604 6.326814 3458 
1114.451294 2098.877930 16.439541 3459 
529.926819 2131.274414 17.097584 3460 
633.706909 2083.212646 23.624708 3461 
2527.142334 693.808899 17.096008 3462 
1185.546509 2028.146729 23.494553 3463 
328.439880 1828.542603 6.248560 3464 
539.824463 2255.714844 6.309278 3465 
934.664734 2440.135254 4.575251 3466 
3113.162598 1018.394104 5.329076 3467 
300.943298 1875.476929 4.038435 3468 
731.245544 2181.251221 4.136688 3469 
864.030945 2304.515625 4.525974 3470 
2921.410889 406.420319 3.645894 3471 
449.286407 1967.136719 6.513807 3472 
2957.724365 427.577576 5.362966 3473 
451.890808 1977.771118 10.032766 3474 
689.416077 2262.062256 10.031067 3475 
2585.135254 1744.224609 6.415908 3476 
455.572205 2065.344971 16.380245 3477 
556.168945 1717.560181 9.301925 3478 
3063.822266 507.746399 8.719526 3479 
404.888092 1860.225586 12.871147 3480 
2889.360107 750.159058 10.186096 3481 
2359.287842 474.321716 12.166924 3482 
635.167297 2282.814453 10.646664 3483 
2977.619385 442.451874 6.165864 3484 
219.249130 1522.521729 11.393655 3485 
1735.201904 152.375351 9.098530 3486 
472.022034 1974.189941 4.802719 3487 
610.210266 2328.034180 3.782574 3488 
969.470398 2134.481689 3.859617 3489 
567.900146 2105.255371 3.482100 3490 
2780.846191 179.900589 6.149303 3491 
3300.664551 950.260559 3.956141 3492 
397.396851 1924.255615 5.231328 3493 
661.814758 2268.854004 3.938296 3494 
909.332092 2419.869629 4.093801 3495 
154.828583 1535.919678 7.278615 3496 
462.534363 2022.068115 4.621214 3497 
2297.681396 94.462883 4.118007 3498 
3010.128662 356.291901 5.732280 3499 
3034.929932 1145.774170 3.725432 3500 
576.431396 2048.470703 3.955878 3501 
3106.660889 1297.702881 4.197345 3502 
657.445435 2172.749756 5.539294 3503 
2991.151611 441.247620 4.535084 3504 
571.685608 2066.356445 6.690960 3505 
550.020752 2346.279053 8.425105 3506 
1298.696777 1521.171021 10.282803 3507 
764.104492 2373.670410 8.725283 3508 
683.843140 2219.522461 16.512432 3509 
2117.085449 358.037598 25.854595 3510 
798.485291 2318.796875 16.564360 3511 
1238.827271 1904.272339 51.291660 3512 
2678.645264 478.426147 4.684831 3513 
2629.935547 658.362305 4.403998 3514 
2640.254395 677.948120 4.936604 3515 
2754.858398 538.414490 4.715591 3516 
527.776184 2372.208740 6.505552 3517 
1017.006287 2416.504150 4.005211 3518 
325.832458 1844.454346 6.030020 3519 
2830.070068 354.191772 5.533542 3520 
462.746948 1965.198364 4.472997 3521 
2593.230957 317.007935 4.979404 3522 
2766.689209 85.230606 5.473132 3523 
2705.994873 794.366455 5.069828 3524 
416.605316 1959.101685 6.911954 3525 
779.158447 1947.563965 5.727993 3526 
718.497070 2179.179199 5.514571 3527 
267.302063 1462.521851 5.266181 3528 
353.132111 1878.660034 4.941312 3529 
2363.211182 186.409958 4.504170 3530 
2905.312256 771.085876 4.089029 3531 
3238.280518 1047.147827 3.994261 3532 
841.301636 2052.091797 4.538743 3533 
613.277405 2273.706787 4.464988 3534 
2644.819336 410.588654 4.415295 3535 
1242.445435 2435.384521 3.671919 3536 
638.002686 2241.017334 5.914584 3537 
459.218842 2004.716553 3.958758 3538 
1824.779907 2114.431885 5.187677 3539 
2963.797607 439.110077 4.179976 3540 
3168.456299 676.084961 4.299815 3541 
496.429688 1693.226929 5.573174 3542 
410.946228 1930.311401 4.257159 3543 
564.185120 2326.560791 3.801649 3544 
2418.623535 327.264832 5.506245 3545 
3006.606934 326.125153 4.498724 3546 
697.587646 1886.765869 4.884253 3547 
627.617188 2091.306396 4.935781 3548 
747.613037 2207.961182 4.526083 3549 
2564.701416 1821.381714 3.884241 3550 
584.101379 2338.466309 4.568544 3551 
619.947083 2335.629150 5.352226 3552 
2786.681396 990.235840 17.986794 3558 
845.358643 1358.283569 38.033356 3602 
2739.436523 2333.456787 5.904697 3612 
2766.807373 969.753357 5.280588 3613 
2691.687744 2150.267090 5.226057 3614 
2767.763428 196.378296 4.957799 3615 
2629.757568 2220.491455 5.818719 3616 
2719.305176 467.640686 4.872320 3617 
2606.886230 2143.055420 5.259357 3618 
2419.669922 2333.986084 4.887645 3619 
979.946533 338.415741 4.604071 3620 
2759.499512 2429.869385 5.051371 3621 
2763.651855 1900.042603 3.739020 3622 
2747.101074 2199.253662 3.763706 3623 
2726.497803 2506.921631 4.513706 3624 
2832.186768 487.868073 3.647874 3625 
2692.729980 2112.180908 3.996108 3626 
2797.926025 64.968338 4.330896 3627 
2788.435303 248.284500 5.130669 3628 
2657.952637 2163.705811 3.975140 3629 
2620.635254 2322.509033 3.803608 3630 
2474.250732 2242.604492 4.450706 3631 
2345.142822 2500.034912 3.827737 3632 
1005.553955 2496.755371 4.140728 3633 
2618.913574 2265.872070 4.912549 3634 
2492.460693 2457.817383 4.820123 3635 
2617.330322 263.480835 5.334799 3636 
2485.062988 2084.421387 5.003652 3637 
2329.146973 2402.318359 4.398024 3638 
1243.272583 285.967957 4.842874 3639 
1171.004761 344.876038 4.283081 3640 
948.010010 290.965240 5.652798 3641 
932.225586 571.435791 5.282361 3642 
2239.898926 1525.900513 6.136757 3643 
1359.218628 248.570663 6.799126 3644 
1189.856323 2172.014648 17.238075 3645 
2574.626953 2474.039795 8.750129 3646 
2628.909180 933.627747 11.008719 3647 
2338.022705 2286.253906 12.553939 3648 
2739.662842 2088.696289 7.874123 3649 
2789.084473 395.975159 7.980367 3650 
2753.108154 283.955963 7.221697 3651 
2641.903564 193.536850 8.387897 3652 
2491.862061 2292.465332 7.606652 3653 
1092.057495 205.735382 5.704507 3654 
2625.838135 1191.077759 11.371101 3655 
2280.781738 1272.895874 9.504976 3656 
2009.473389 942.343872 9.333030 3657 
2520.749268 1403.470703 15.078744 3658 
2257.543213 1153.837402 13.162161 3659 
1164.551025 281.654724 12.479178 3660 
2333.652344 2256.000977 18.590889 3661 
2593.375244 996.400940 12.976598 3662 
2615.682617 1543.059204 17.767757 3663 
2479.033203 1920.846313 17.945528 3664 
2354.398438 1876.812988 13.160980 3665 
1991.701172 1241.213867 16.095127 3666 
2267.179199 1931.543823 18.375872 3667 
2084.038574 185.165253 13.145341 3668 
2541.954346 1584.519409 11.829132 3669 
1939.552246 1708.408325 12.333036 3670 
1721.770020 1914.426758 14.763248 3671 
1270.512207 1535.336304 15.816926 3672 
2636.326904 1031.945312 20.890480 3673 
2422.957764 1358.277588 12.303178 3674 
2077.126709 1019.135864 11.970491 3675 
2571.702637 1778.268433 15.094607 3676 
2095.372314 205.118942 12.480924 3677 
2089.348877 302.177002 16.725586 3678 
1695.640381 1366.486450 14.618573 3679 
1402.867065 1422.258301 14.215712 3680 
2784.722412 1910.254883 4.723318 3681 
2783.191406 1930.400269 3.834113 3682 
2773.105957 2042.474976 4.021030 3683 
2707.429199 2161.605957 5.266230 3684 
2801.807861 324.755402 4.280940 3685 
2760.774170 911.889587 3.856866 3686 
2678.486572 2163.698486 3.712292 3687 
2756.437744 552.447815 4.458712 3688 
2666.405273 1829.291992 3.526885 3689 
2638.435791 2293.156982 3.752259 3690 
891.673340 2401.883789 4.156917 3691 
2736.356934 1953.297241 5.052769 3692 
2291.291260 798.343933 6.279239 3693 
960.314880 376.301086 4.983783 3694 
2727.675781 2022.015869 9.166827 3695 
2721.445557 2120.360107 7.469868 3696 
2697.853271 2488.643799 6.731547 3697 
2715.082031 398.590118 6.371477 3698 
2437.620605 2145.108398 8.638124 3699 
2367.671631 1134.850586 10.215166 3700 
1055.237183 200.476852 5.956043 3701 
990.488220 193.978043 7.574737 3702 
987.431580 224.344070 5.942809 3703 
1015.064514 154.914978 7.940686 3704 
2859.073975 379.455444 6.437156 3705 
2607.658447 1620.019897 8.109674 3706 
2896.820801 347.438629 3.351131 3707 
2886.818115 493.246887 4.944220 3708 
2868.462402 738.441711 4.315000 3709 
2782.416992 2056.465332 4.406692 3710 
2727.754883 2424.694092 4.527149 3711 
2696.431641 1988.934570 4.446454 3712 
2695.447021 2046.679321 4.477040 3713 
2667.388428 2421.261475 5.319958 3714 
2654.750977 2252.339600 4.856227 3715 
2639.614014 2474.690674 4.512666 3716 
2574.221924 2404.760010 3.846316 3717 
2514.618408 2460.859619 3.923874 3718 
2478.448975 2219.940674 4.247924 3719 
2384.533203 2404.301270 3.907915 3720 
2496.786377 442.033600 4.022023 3721 
2353.042969 2479.903320 4.282117 3722 
1361.894775 2530.709229 4.439667 3723 
1400.350708 156.993011 3.882570 3724 
1302.000122 151.724075 3.741020 3725 
1034.814209 428.162048 3.575291 3726 
2830.557373 463.696899 5.489805 3727 
2712.154785 2243.959229 4.935486 3728 
2801.398438 496.366211 5.524949 3729 
2772.302734 494.622803 5.243260 3730 
2508.019775 595.617065 4.773869 3731 
1525.577271 144.377502 4.331190 3732 
1198.025879 403.455902 4.901590 3733 
968.588867 2427.419678 4.904336 3734 
1017.001587 145.654251 3.876853 3735 
989.917908 149.194214 3.892811 3736 
2896.383789 531.305847 3.968318 3737 
2811.329346 1678.324097 4.034910 3738 
2782.190186 2218.821045 3.698173 3739 
2755.966309 1677.985107 3.632762 3740 
2723.498535 1733.788574 3.890025 3741 
2780.983154 83.973610 4.445387 3742 
2755.189941 452.844757 3.877223 3743 
2634.908691 2249.239746 3.717031 3744 
2748.641113 170.566666 3.661776 3745 
2579.297607 2012.240967 4.164227 3746 
2559.418945 2428.274170 4.192821 3747 
2803.670654 271.633484 5.073968 3748 
2678.338623 2119.633057 5.157123 3749 
2619.346680 1947.983398 6.516617 3750 
2535.278564 2471.697754 5.124288 3751 
1561.618042 45.705879 5.140449 3752 
1017.410095 2478.573975 4.891264 3753 
926.369263 2124.184570 4.069521 3754 
2795.485840 1689.531738 4.573951 3755 
2769.542725 2170.378662 3.860111 3756 
2745.783936 2070.644775 4.216355 3757 
2629.625244 1971.325562 4.078861 3758 
1263.069824 94.639824 4.572149 3759 
2829.121094 381.169830 5.672089 3760 
2691.827881 1877.669067 5.588585 3761 
2601.489502 2439.272461 5.586400 3762 
2703.696289 134.432693 5.320364 3763 
2523.316406 2366.595215 4.609156 3764 
1291.483154 319.480042 5.036229 3765 
1093.949829 493.968414 4.072536 3766 
2859.102539 615.944885 3.467827 3767 
2764.128662 2025.449951 5.414133 3768 
2746.694336 2302.945068 4.010376 3769 
2800.775146 979.492249 3.882066 3770 
2708.010498 2443.349121 4.440655 3771 
2694.374268 2188.860840 4.408654 3772 
2679.621826 2072.566162 4.166709 3773 
2617.419678 2538.711426 4.303209 3774 
2595.664795 1891.229858 6.571289 3775 
2580.917969 2264.740967 4.342717 3776 
2572.838379 1989.584106 3.714087 3777 
1003.784973 218.724854 4.855996 3778 
826.869568 2460.694092 5.812568 3779 
2507.523682 946.187988 10.063899 3780 
2740.671631 2387.118408 6.692688 3782 
2483.910400 607.902222 5.903441 3783 
2667.848633 967.590698 5.816455 3784 
1328.581421 120.232948 6.190990 3785 
1284.126831 112.300339 7.065496 3786 
1268.332275 333.398773 6.067423 3787 
1033.945068 293.240204 6.206834 3788 
2627.884521 1450.945679 11.279124 3789 
926.249756 2150.399170 8.085890 3790 
2577.784912 926.909302 9.132911 3791 
1360.398438 89.999863 7.588444 3792 
1212.527100 194.514053 6.293750 3793 
1131.242554 374.181061 6.054015 3794 
888.373352 2433.642578 8.442387 3795 
858.148010 2345.925049 8.228725 3796 
2822.224609 517.707397 6.535236 3797 
2819.450439 539.506042 6.985237 3798 
2676.712158 74.856216 6.154835 3799 
2659.918457 269.166046 9.577324 3800 
2512.861816 2399.061768 7.565094 3801 
2506.314453 2437.248535 6.541914 3802 
2213.792236 895.959106 7.888543 3803 
2857.713623 560.586853 6.801198 3804 
2737.562256 2251.513428 7.470870 3805 
2703.687744 2098.109131 6.828736 3806 
1250.358521 136.990616 6.034764 3807 
1188.959961 329.714966 6.465466 3808 
1112.546753 239.365952 6.417740 3809 
2707.594482 1325.780151 9.898360 3810 
2116.274414 1453.956665 8.922280 3811 
2866.696533 53.723251 6.102500 3812 
2840.839844 407.555664 6.939080 3813 
2696.412598 177.361130 6.207700 3814 
1247.153076 154.821106 3.536303 3815 
2614.578125 2233.590332 5.740339 3816 
2320.466309 131.664566 4.162635 3817 
2830.375244 131.798477 4.583224 3818 
2680.587402 2397.852295 5.062294 3819 
2802.498291 145.553436 4.300828 3820 
2640.144043 2542.305176 4.906011 3821 
2772.882812 151.479111 3.978956 3822 
2634.486572 2159.765869 5.300717 3823 
2628.120117 2305.312500 4.058875 3824 
2519.679932 2033.942627 3.378784 3825 
2492.028564 2218.040771 4.386825 3826 
1118.903198 276.616974 3.586167 3827 
1080.261108 182.928589 3.955166 3828 
2871.079102 410.527588 5.867547 3829 
2828.518066 659.566284 5.023585 3830 
2680.281494 2439.604004 5.771905 3831 
2775.980469 580.226440 5.039443 3832 
2632.228027 989.653320 5.594222 3833 
2660.416016 289.227386 6.055410 3834 
2276.071533 2531.154297 5.341899 3835 
1383.332153 256.510071 4.775474 3836 
1232.799805 385.955811 4.345717 3837 
956.542969 346.532959 4.835523 3838 
2872.614014 514.219971 4.435170 3839 
2736.979736 2106.875488 3.762593 3840 
2780.994629 948.778564 4.051053 3841 
2693.664795 2324.288574 4.052169 3842 
2753.775391 237.933136 4.031287 3843 
2609.676758 2377.820068 4.748560 3844 
2569.819824 2281.942139 4.300445 3845 
2568.909668 2324.807861 4.560645 3846 
2519.473145 2545.644531 4.874156 3847 
2513.102051 1108.611572 4.752785 3848 
1259.132446 60.133553 3.980416 3849 
1149.150879 276.428406 4.171326 3850 
2843.152588 375.281738 5.620489 3851 
2794.974121 954.236511 5.255106 3852 
2770.902100 116.263847 5.917307 3853 
2675.180420 284.492554 5.805169 3854 
2505.080078 2348.425537 5.812741 3855 
2570.202881 183.184372 5.881341 3856 
1303.140503 307.470398 4.743178 3857 
1104.307983 2258.486572 4.867386 3858 
2870.853760 749.836487 3.648962 3859 
2770.980713 2253.103516 5.049962 3860 
2769.660645 1725.427124 4.875707 3861 
2830.825928 506.530365 4.286694 3862 
2663.277588 1966.909180 4.955307 3863 
2624.050293 2242.779541 4.766799 3864 
2508.289062 2113.805664 3.780217 3865 
1420.349609 229.437698 3.800757 3866 
1351.870728 207.901413 3.744567 3867 
1208.036621 176.683334 4.901809 3868 
2784.416260 1965.441772 5.435484 3869 
2631.445312 2528.230713 5.286876 3870 
2699.260254 274.252869 4.679488 3871 
2486.625000 1262.481079 4.508958 3872 
2379.190674 2392.889648 4.947037 3873 
1516.908569 117.553955 4.237302 3874 
1334.703003 2504.066895 4.946075 3875 
1468.747314 158.205032 4.947725 3876 
1435.259399 199.153580 5.251947 3877 
1077.292480 98.153702 5.040520 3878 
967.331848 340.549896 4.612134 3879 
944.141357 370.365509 3.672682 3880 
2437.260742 2119.812988 6.670301 3881 
1988.475586 2462.584229 8.350208 3882 
1414.505371 158.446259 6.479764 3883 
866.727844 2322.831055 6.892344 3884 
2195.784180 916.851379 9.824008 3885 
1127.269531 224.276245 8.846218 3886 
2214.288086 808.069946 7.044930 3887 
1281.650024 86.944466 8.106836 3888 
1048.607422 2116.031006 6.004179 3889 
1019.612610 2215.389893 5.839923 3890 
1136.485596 160.233627 5.163965 3891 
917.203674 2434.852051 7.392408 3892 
912.787964 2096.345215 5.975885 3893 
2121.440674 166.593948 18.320942 3894 
2065.938232 271.492035 13.331850 3895 
1106.460938 361.186859 12.832259 3896 
2400.723877 296.983215 16.910313 3897 
2031.181396 189.380798 20.498550 3898 
1391.909790 145.795395 13.868882 3899 
2445.965576 1064.940063 42.642460 3900 
2447.359863 1284.660522 44.101002 3901 
2327.691406 1105.780518 34.499245 3902 
2434.811768 1820.771484 43.272011 3903 
2251.419434 1626.765747 47.631973 3904 
2773.759521 2061.534912 5.045645 3905 
2740.642090 2119.672119 5.249316 3906 
2713.032471 2086.156982 5.012599 3907 
2788.509521 60.886074 4.384036 3908 
2646.878906 2166.429932 4.425353 3909 
2632.962891 2352.091309 3.624323 3910 
2752.506836 195.168900 4.879182 3911 
2740.918945 388.909790 4.878700 3912 
2592.925537 2264.071289 4.116494 3913 
2586.241943 2402.152832 5.142227 3914 
2559.235840 2543.362549 4.750196 3915 
2526.436523 2461.101074 4.177806 3916 
2462.394775 2400.287354 3.935214 3917 
2408.326172 2326.624268 4.158076 3918 
2371.082520 2538.456299 3.867024 3919 
1212.203247 111.244751 3.827312 3920 
2804.812012 510.170013 5.068999 3921 
2774.371094 916.884460 4.971039 3922 
2682.382080 2314.557617 6.406835 3923 
2681.838379 2354.942383 6.138082 3924 
2732.090820 323.848572 4.531497 3925 
1311.803589 80.231331 4.292055 3926 
1223.843628 315.388855 5.213415 3927 
989.630066 2412.709717 4.950751 3928 
1005.038818 109.803658 4.315883 3929 
2777.481201 321.027191 6.632838 3930 
2596.002686 2074.743408 8.806840 3931 
2510.504883 447.468597 5.831627 3932 
1022.072205 2528.066406 6.685057 3933 
1114.807373 412.979736 6.431297 3934 
1094.557373 133.926910 5.466118 3935 
1063.903442 97.941231 6.003445 3936 
1036.857300 413.256042 11.630439 3937 
2719.540283 2475.904785 7.868834 3938 
2768.710205 234.392166 6.061392 3939 
2539.395020 1701.112549 9.897717 3940 
2899.684082 264.971497 4.362010 3941 
2896.723389 312.077637 5.030635 3942 
2887.708984 467.105347 4.178601 3943 
2811.122559 313.707611 4.957606 3944 
2708.473633 1773.367065 3.584415 3945 
2804.010742 44.645283 4.229964 3946 
2791.741943 273.601837 3.957016 3947 
2663.009033 2128.147705 4.189217 3948 
2741.983643 176.451324 3.726874 3949 
2727.489990 411.578796 4.293032 3950 
2583.240479 2279.778564 4.170819 3951 
2687.087891 168.784866 5.048458 3952 
2544.330322 2261.660156 4.691334 3953 
2447.176270 2302.804443 3.704398 3954 
2391.702148 2311.669434 3.715906 3955 
1542.888306 133.563904 4.095732 3956 
946.696411 2098.290283 3.721865 3957 
2841.656006 1036.074585 4.817723 3958 
2848.224365 624.029297 5.190475 3959 
2291.632080 2483.248779 4.635002 3960 
1191.704346 160.799194 4.778631 3961 
2763.185059 2073.428223 4.413932 3962 
2735.769287 2497.767334 3.802366 3963 
2730.078369 2140.045654 4.558237 3964 
2828.603027 276.321625 4.175163 3965 
2711.285889 1991.784668 4.278425 3966 
2708.670166 2045.634399 3.777170 3967 
2660.406982 2265.116699 5.379954 3968 
2744.165527 224.881790 4.559158 3969 
2597.544434 2380.875977 3.334752 3970 
2588.010010 2231.641357 4.633495 3971 
2583.220703 1986.754272 3.855517 3972 
2575.007812 2081.449951 4.073184 3973 
2554.854248 2459.378418 4.444973 3974 
2651.091797 208.564590 4.830246 3975 
2830.382324 1016.946411 5.268428 3976 
2813.177734 109.851875 5.454610 3977 
2587.991699 2466.714111 4.157073 3978 
2719.657471 134.175858 6.139977 3979 
2602.074951 609.868225 5.182571 3980 
2476.903809 2460.284668 6.090619 3981 
2307.485107 2451.218018 4.639927 3982 
2162.171387 1467.792236 4.531990 3983 
2906.837158 115.721924 4.672029 3984 
2889.876953 368.694916 4.476730 3985 
2782.662354 1981.735352 3.646508 3986 
2776.653564 2028.046631 4.150078 3987 
2842.134033 659.229004 4.854324 3988 
2812.758545 985.099792 4.121755 3989 
2851.489990 53.495056 4.421331 3990 
2793.340820 98.376617 3.969522 3991 
2760.664551 149.851120 4.221925 3992 
1577.786255 62.707054 4.464992 3993 
1371.990356 257.369171 4.055089 3994 
1251.284790 334.304169 3.937605 3995 
1182.807983 346.452698 4.135103 3996 
1063.750488 316.463715 4.116090 3997 
2691.990967 2401.616455 4.560353 3998 
2798.354980 435.046265 5.582875 3999 
2684.312744 754.763428 5.113710 4000 
2679.417725 99.415741 5.193329 4001 
1209.342651 139.163376 4.693321 4002 
1047.807983 2234.279541 4.313592 4003 
930.578979 2485.079346 5.450799 4004 
1049.314209 466.291595 4.522688 4005 
2917.284180 128.148224 3.809458 4006 
2785.664062 2156.379883 4.868474 4007 
2762.792969 2043.205933 4.520260 4008 
2803.179443 967.496521 4.344118 4009 
2708.986084 2456.894287 4.100732 4010 
2695.635986 2203.201416 4.757939 4011 
2568.634521 2466.213379 3.655200 4012 
2691.424561 333.610565 3.655880 4013 
2555.958008 2323.464600 4.818925 4014 
2547.901367 2421.583740 4.795561 4015 
2678.713623 181.630936 4.448115 4016 
2056.345459 2302.487549 8.169848 4017 
1076.986816 273.051788 5.782404 4018 
1017.778748 129.844986 5.699070 4019 
2737.513916 2412.107666 6.570776 4020 
2693.324707 2133.055908 8.249087 4021 
2259.206055 442.730927 7.784407 4022 
820.880920 2489.966309 6.354396 4023 
799.645386 2284.114258 5.880782 4024 
2176.948242 1514.717529 5.679374 4025 
1265.619385 166.396912 7.825933 4026 
1150.046631 58.774780 5.665908 4027 
1444.152710 100.144684 10.097305 4028 
2427.759766 1312.121582 8.129903 4029 
2768.651367 1772.848755 7.933705 4030 
2816.091309 395.249786 8.136247 4031 
2702.158936 2023.653809 10.063359 4032 
2735.601318 480.985016 8.210446 4033 
1301.669189 118.893036 7.920810 4034 
1113.712036 263.849731 7.814347 4035 
1074.694824 197.422485 7.232151 4036 
1073.521973 241.631516 5.492446 4037 
1035.699585 238.838486 5.778893 4038 
1013.438782 534.883362 6.029960 4039 
995.420166 169.124847 8.019231 4040 
2842.935547 474.205872 6.197721 4041 
1205.459717 414.862885 4.122620 4042 
2857.342285 730.379333 5.372086 4043 
2682.742188 2422.092529 5.305056 4044 
2573.544678 2420.246826 4.727224 4045 
2119.181641 1426.129883 5.935429 4046 
1201.404053 356.715912 4.146003 4047 
1104.527710 87.166756 6.019194 4048 
1066.878540 292.878052 4.109886 4049 
995.761963 341.409943 4.324822 4050 
2868.960205 392.846771 3.965112 4051 
2777.242188 1655.789062 3.786705 4052 
2758.918945 2093.288086 4.704719 4053 
2731.666504 2464.283203 4.112701 4054 
2827.246338 598.725525 4.062433 4055 
2722.177490 2156.954590 3.678831 4056 
2711.193604 1821.206177 4.594065 4057 
2670.322754 2094.440918 3.685003 4058 
2650.138428 2373.061279 4.429190 4059 
2202.922119 1152.087158 5.064054 4060 
1273.121216 122.773094 4.177968 4061 
981.465637 2142.818359 3.664305 4062 
952.935486 2396.536865 3.764170 4063 
2536.482910 2113.073730 3.694933 4064 
2432.385010 2311.624512 3.964569 4065 
2432.548096 2336.949707 4.320130 4066 
2476.334717 1299.914429 5.354462 4067 
2340.291992 2483.308594 4.166243 4068 
1264.334229 151.512100 5.022941 4069 
2709.664062 1962.956787 6.167854 4070 
2661.939209 244.809235 5.550320 4071 
1251.971802 100.745628 4.134000 4072 
1163.160034 408.106598 5.150619 4073 
1137.602295 429.358612 5.262185 4074 
960.497681 306.209503 5.174459 4075 
2905.547852 504.420258 3.852590 4076 
2822.646973 1578.442139 3.614286 4077 
2793.080322 2126.302002 3.904209 4078 
2782.415283 2309.021973 4.391294 4079 
2779.981934 2365.927490 4.270192 4080 
2762.439453 2159.294189 5.150438 4081 
2752.056641 2338.538574 3.723332 4082 
2716.552246 2420.628174 4.383185 4083 
2724.491211 1745.634033 3.846574 4084 
2670.248779 2247.997559 4.013844 4085 
2609.043945 2355.871826 4.714595 4086 
2523.833008 2430.415039 4.167752 4087 
2485.479492 2232.286133 5.202993 4088 
2603.375244 292.478424 4.242263 4089 
2411.358398 269.158630 4.256014 4090 
2321.168701 1160.805664 4.851003 4091 
1997.688477 275.805725 4.549139 4099 
2380.925781 2314.471436 3.766472 4119 
2645.229248 2262.265625 6.378581 4125 
1295.955933 73.106277 6.228165 4141 
2504.689209 2103.874268 3.664111 4149 
1432.403076 169.810944 4.840684 4197 
1262.294556 118.710236 9.729785 4207 
1477.500122 134.181351 4.144435 4224 
1579.501953 1270.626221 5.810540 4265 
1731.290283 1069.668945 6.618976 4266 
1963.492920 1971.408936 11.552197 4267 
911.442566 1297.854126 25.395399 4268 
1309.444458 2337.903320 3.373511 4269 
2913.648926 926.010681 3.863890 4270 
1946.542725 2104.606934 9.286569 4271 
2907.119385 1434.549805 3.799247 4272 
2425.085693 1824.753174 10.202767 4273 
603.468872 341.225861 5.682803 4274 
883.379517 436.859283 5.353083 4275 
3004.218506 2269.638916 6.583766 4276 
863.987854 494.164185 5.283174 4277 
636.328552 590.391479 4.633415 4278 
2895.151611 1442.591797 3.705225 4279 
604.813293 410.594818 6.301180 4280 
868.128784 410.427368 6.757205 4281 
545.648682 665.696655 6.563296 4282 
3457.809326 2417.993896 6.567049 4283 
1174.370483 232.935822 4.657232 4284 
1288.339844 295.553802 4.168201 4285 
484.896362 393.481567 3.926753 4286 
874.658264 586.214355 5.503984 4287 
607.773438 616.026367 5.230329 4288 
2947.324219 1975.924561 4.222271 4289 
1828.193604 1377.320190 8.427587 4290 
1200.622559 259.038757 9.218860 4291 
1016.459167 319.049103 7.218089 4292 
524.653442 706.551453 10.059506 4293 
949.792603 329.462646 12.533269 4294 
733.970947 302.634613 8.886742 4295 
641.692444 627.598755 7.294529 4296 
698.076660 219.457321 5.393916 4297 
747.651550 221.023605 4.118441 4298 
453.752686 412.655365 5.236622 4299 
888.296326 604.338989 4.573483 4300 
2430.464111 2230.277588 3.724239 4301 
795.678223 476.914825 5.632442 4302 
672.840515 512.134277 6.304488 4303 
824.969849 701.187866 5.885911 4304 
790.727051 371.296539 5.564123 4305 
813.131042 367.615723 5.355910 4306 
651.997375 403.080658 3.940987 4307 
1021.881836 496.493530 4.353230 4308 
1050.473999 498.792358 4.409404 4309 
683.149048 531.486389 4.506245 4310 
1200.636963 224.797684 5.432296 4311 
860.821411 385.770294 5.532581 4312 
607.777771 639.900391 4.796358 4313 
2401.083984 2280.770752 3.793752 4314 
3700.294678 2441.095215 3.717422 4315 
711.031677 431.247192 5.664080 4316 
871.434265 463.610596 6.160110 4317 
907.405640 560.779846 5.673493 4318 
705.355835 721.281616 6.021028 4319 
3277.316162 2413.347412 5.786428 4320 
3212.434570 2511.117920 5.808417 4321 
890.475830 379.520203 4.949574 4322 
618.987061 600.467468 4.973648 4323 
762.714539 755.889282 5.188879 4324 
2453.207275 2411.330566 6.720208 4325 
877.960449 264.727966 8.064208 4326 
783.787048 340.647095 9.607450 4327 
640.158264 460.645081 7.822198 4328 
879.689880 349.434326 11.993578 4329 
698.170105 515.975281 12.717617 4330 
1980.453369 328.602814 8.684156 4331 
1670.050171 724.311707 9.239939 4332 
655.366821 462.482391 13.369940 4333 
764.394470 371.016479 10.877246 4334 
895.778503 372.716675 8.878210 4335 
921.975708 374.092773 9.052060 4336 
542.522278 430.777893 7.819535 4337 
918.036682 282.359894 9.816790 4338 
543.894043 541.642639 7.661977 4339 
859.908081 286.748627 8.213656 4340 
647.940735 546.663879 7.693264 4341 
2891.684326 2074.530762 4.475210 4342 
2852.614014 2200.952393 4.769231 4343 
2972.170166 2391.158691 4.848960 4344 
1060.341187 274.083252 6.363891 4345 
571.897766 337.628723 5.944699 4346 
975.895630 614.700806 6.852866 4347 
2929.688965 2279.074951 6.146181 4348 
452.541016 388.111603 4.579917 4349 
523.274902 484.214203 4.932302 4350 
2686.258789 2290.151611 4.742473 4351 
880.246826 327.660492 6.918614 4352 
527.230652 392.746368 6.251738 4353 
1074.918457 225.871414 6.261068 4354 
506.869171 480.400940 6.983634 4355 
553.625977 509.158447 6.403069 4356 
897.481812 278.079895 4.741591 4357 
895.707581 406.131805 5.286210 4358 
862.755249 435.827148 4.574443 4359 
806.908813 500.055206 4.221241 4360 
394.866486 627.852539 3.540881 4361 
665.358093 806.722839 5.478606 4362 
3535.376953 2189.985352 5.264498 4363 
3279.253906 2444.676758 3.605491 4364 
985.396790 404.807556 6.317217 4365 
564.368652 660.014893 5.913840 4366 
597.013000 302.307404 5.588080 4367 
856.010071 301.603455 4.699234 4368 
688.908325 334.012268 5.254017 4369 
735.501160 398.825714 5.170613 4370 
433.154297 431.326752 5.474957 4371 
604.754150 589.043945 4.917916 4372 
592.434265 622.806885 5.431400 4373 
2974.374756 2374.078369 4.998174 4374 
1356.401855 282.561096 6.111907 4375 
3021.321777 2269.189209 5.283731 4376 
977.853943 321.654175 7.198781 4377 
602.189697 355.758514 6.070726 4378 
808.611694 518.634399 6.209250 4379 
595.662476 647.838196 7.092501 4380 
529.069031 678.203369 6.498377 4381 
664.504639 266.451447 4.788623 4382 
783.542664 359.136566 5.035305 4383 
597.346741 394.044128 5.122651 4384 
802.469910 489.648346 4.781178 4385 
547.096558 520.683105 4.480382 4386 
620.681824 552.125183 5.456158 4387 
856.729492 585.736328 5.048138 4388 
652.936890 615.850281 5.696129 4389 
1042.241699 315.239258 10.974119 4390 
647.122070 571.330505 8.800281 4391 
853.156189 328.411926 11.997026 4392 
968.979431 360.533600 9.624238 4393 
652.551392 508.439392 16.436010 4394 
832.733765 394.073608 17.746597 4395 
1272.870728 978.867249 52.202988 4396 
714.008850 221.724792 4.880890 4397 
770.216492 318.477936 5.383950 4398 
422.470825 446.072937 4.707037 4399 
631.161743 476.537964 4.876529 4400 
450.807678 603.753540 5.376014 4401 
586.879150 603.870972 4.484529 4402 
570.245728 637.868530 4.539470 4403 
672.842346 637.527527 5.153302 4404 
482.302917 760.907776 5.139518 4405 
779.159424 760.781799 4.445529 4406 
2532.614746 2071.023438 3.999517 4407 
2934.545654 2262.633789 5.567455 4408 
2402.889648 2293.442139 3.621671 4409 
857.951416 265.338379 6.278650 4410 
819.794861 381.948456 6.241421 4411 
476.278839 446.458893 6.249347 4412 
625.533875 638.184387 6.742337 4413 
1492.940186 175.585876 5.363823 4414 
1200.001587 240.224625 4.478645 4415 
830.745850 305.110535 4.732567 4416 
443.611481 400.992157 5.200225 4417 
715.242188 498.836151 5.542669 4418 
434.227692 592.779724 4.000060 4419 
792.816833 659.008362 4.381963 4420 
758.759949 227.246567 5.110351 4421 
701.049316 415.546692 3.641997 4422 
447.160889 480.969391 5.117514 4423 
907.396301 643.700500 4.727058 4424 
446.692596 428.765472 5.998461 4425 
635.895325 499.396637 5.780176 4426 
1536.632324 119.980392 4.169792 4427 
762.520935 344.764099 5.666478 4428 
909.666199 408.737671 3.856001 4429 
868.249634 505.780029 4.009501 4430 
919.143799 567.748108 3.684917 4431 
739.190308 602.327393 4.595949 4432 
463.155640 699.313232 4.237392 4433 
406.963348 622.498047 5.972031 4434 
913.604248 346.630432 12.597918 4435 
667.720215 533.269470 8.051117 4436 
2789.083740 2414.039062 7.328759 4437 
890.591736 309.449188 7.330385 4438 
871.677917 372.609772 7.667300 4439 
550.039856 488.127441 8.371277 4440 
761.416138 293.146362 9.662667 4441 
706.822021 548.331482 6.967873 4442 
2967.986328 2290.050537 9.827050 4443 
2866.926514 2330.770264 5.583750 4444 
2322.966797 2424.941162 3.970939 4445 
697.750671 273.927032 6.465989 4446 
749.041626 582.201538 6.333539 4447 
809.640198 230.820099 4.186652 4448 
965.052795 388.817749 4.786942 4449 
788.225891 516.590271 3.580575 4450 
626.114441 613.372620 4.339430 4451 
687.562866 766.890442 5.555260 4452 
886.159668 393.572205 5.754917 4453 
404.424561 490.394196 6.064456 4454 
3695.249023 2180.040039 3.667634 4455 
652.847900 420.368896 6.577421 4456 
556.710999 608.263245 5.850883 4457 
876.755432 672.753662 6.300398 4458 
792.418579 439.124023 4.803877 4459 
420.579926 501.204834 4.505526 4460 
3551.214355 2187.472656 5.475470 4461 
1224.374878 140.230255 4.838297 4462 
1219.658569 303.066589 4.179715 4463 
2658.363770 1923.673218 5.077896 4464 
1520.422852 104.773018 4.026476 4465 
1456.318237 202.076920 3.847848 4466 
2056.914062 1345.030396 16.188883 4467 
1339.799927 50.945789 5.368670 4468 
1436.327881 47.663670 5.327828 4469 
1192.569946 89.639481 4.876918 4470 
1622.802002 90.264786 9.237906 4471 
1154.468994 236.754761 10.721670 4472 
1067.225464 114.312332 6.132423 4473 
830.822083 581.937073 5.318840 4474 
1162.635986 51.721001 4.083742 4475 
1351.151123 117.590538 5.141230 4476 
1342.112549 277.504547 4.035589 4477 
1574.649170 43.903957 4.686802 4478 
1294.302246 334.523987 5.102270 4479 
2199.688965 1293.153320 6.527655 4480 
1319.901245 107.444633 4.917320 4481 
1175.910767 266.662048 4.321699 4482 
1037.941284 418.537994 16.736374 4483 
466.866638 1012.722778 4.622419 4484 
558.884399 1351.164551 10.448768 4485 
1403.668213 242.226746 6.153594 4486 
1210.503296 393.333649 6.217936 4487 
1140.738647 239.583054 3.692225 4488 
1241.851440 1846.903687 10.699677 4489 
2489.288330 2322.588623 20.924633 4490 
2958.580566 1497.869019 17.260126 4491 
2346.313232 2321.766846 3.877569 4492 
2819.840576 1643.262573 4.136909 4493 
1995.870605 1973.226196 12.582814 4494 
1742.271240 2534.589600 4.041099 4495 
2392.250488 1597.913696 4.693451 4496 
92.019211 1789.613037 3.680707 4497 
2229.187744 1641.020020 14.441577 4498 
1629.643311 2126.327393 24.450409 4499 
3252.232910 1176.028809 9.688905 4500 
2117.403320 1042.200684 4.037224 4501 
1895.109497 585.621338 6.597334 4502 
841.072327 1357.710449 6.840827 4503 
1082.795532 1263.147583 9.059764 4504 
953.828247 1325.853760 9.571572 4505 
2579.835205 1289.683716 5.248137 4506 
718.048218 404.430817 5.684594 4507 
519.868225 629.932861 5.963215 4508 
343.022644 633.612854 5.820802 4509 
488.530396 695.981262 5.868953 4510 
653.408142 727.786682 5.942420 4511 
515.245117 832.050598 5.065085 4512 
733.109985 380.527649 10.669502 4513 
982.345642 507.971466 8.432340 4514 
1883.156860 417.901093 13.346471 4515 
2119.971924 753.783020 8.335584 4516 
1159.130859 1811.450806 19.874769 4517 
1577.206055 1733.164917 17.746904 4518 
1160.686768 76.961235 7.030048 4519 
479.619049 529.193237 5.468878 4520 
910.386047 193.179886 5.241061 4521 
918.464844 578.719238 4.388017 4522 
712.291809 788.419556 4.172783 4523 
572.355286 597.950562 7.127740 4524 
622.861511 809.709961 7.461659 4525 
954.175232 242.750641 5.424799 4526 
715.541687 356.057678 3.943430 4527 
1012.415649 484.070526 4.365436 4528 
394.876953 581.064087 4.423971 4529 
560.509033 645.335388 4.408845 4530 
288.233795 639.619080 5.876416 4531 
449.237915 707.168213 6.786364 4532 
940.815063 212.364029 5.073932 4533 
593.309326 868.048950 5.634945 4534 
895.045105 559.131775 3.785288 4535 
545.432190 843.030762 4.781580 4536 
577.821045 859.071533 5.852272 4537 
488.853058 486.663940 6.250400 4538 
332.694183 650.832947 6.658361 4539 
1166.210938 107.697708 4.820484 4540 
1188.731812 106.142311 5.086074 4541 
977.607300 200.756195 4.312477 4542 
344.779236 619.400024 4.791398 4543 
801.499207 682.412537 5.424543 4544 
958.075195 258.476013 7.392322 4545 
845.615173 382.074066 4.750859 4546 
726.773621 444.345673 3.715312 4547 
770.333191 447.496765 4.930068 4548 
621.423645 825.418518 5.309447 4549 
432.795105 703.440125 6.316297 4550 
684.227234 402.490845 4.372272 4551 
357.790924 685.800476 4.370710 4552 
945.170471 226.456039 4.923230 4553 
588.163208 416.921265 5.000849 4554 
720.980713 418.404785 5.300043 4555 
427.863342 608.718445 4.621506 4556 
943.884521 196.972534 6.098316 4557 
405.731598 721.597900 6.271760 4558 
443.821411 755.183899 6.355422 4559 
856.706726 663.739868 4.501707 4560 
371.945923 718.728088 5.841161 4561 
415.788391 751.239502 5.976856 4562 
498.331543 659.738953 8.872447 4563 
1579.235718 1384.172119 12.603355 4564 
1082.908813 1200.670044 8.914976 4565 
703.155029 356.838135 4.351607 4566 
708.474060 392.005554 6.763586 4567 
1089.431519 457.588196 5.637053 4568 
463.029602 639.556946 6.659834 4569 
1178.794800 83.840103 4.494481 4570 
724.339661 468.236572 4.141373 4571 
482.008820 567.391113 5.343600 4572 
714.270508 775.009155 4.809351 4573 
