ply
format ascii 1.0
element vertex 268
property double x
property double y
property double size
property short id
end_header
2.78868164062500e+03 2.85513854980469e+02 1.57745037078857e+01 28 
2.88599145507812e+03 2.85827392578125e+02 1.98143520355225e+01 31 
2.85248901367188e+03 2.88418884277344e+02 7.95000362396240e+00 57 
2.81549316406250e+03 4.08062866210938e+02 2.50386791229248e+01 69 
1.49680944824219e+03 6.33958374023438e+02 1.08026695251465e+01 90 
2.04454113769531e+03 7.60034729003906e+02 7.73839855194092e+00 101 
2.79780786132812e+03 3.20005493164062e+02 1.22826118469238e+01 104 
1.33572143554688e+03 1.52166662597656e+03 7.92760372161865e+00 110 
1.39506835937500e+03 1.70085571289062e+03 6.84835100173950e+00 111 
3.43102954101562e+03 7.01927612304688e+02 7.42427492141724e+00 112 
3.94985351562500e+02 2.04751538085938e+03 1.12070188522339e+01 113 
2.12073913574219e+02 1.84680114746094e+03 7.06362247467041e+00 114 
2.32202954101562e+03 8.32898498535156e+02 9.49780178070068e+00 115 
2.56165063476562e+03 4.78624023437500e+02 1.79495525360107e+01 116 
2.09187646484375e+03 2.21183700561523e+02 1.36285457611084e+01 117 
3.15882421875000e+03 1.04904467773438e+03 2.98487224578857e+01 118 
2.88237084960938e+03 3.21102569580078e+02 9.30815029144287e+00 119 
2.84745922851562e+03 3.38571655273438e+02 7.63770866394043e+00 120 
2.83530615234375e+03 3.07394317626953e+02 1.93808345794678e+01 121 
1.57817895507812e+03 8.34424377441406e+02 7.92406234741211e+01 122 
2.65987646484375e+03 1.01715454101562e+03 5.46668090820312e+01 123 
8.47924804687500e+02 2.16302124023438e+03 8.97636127471924e+00 178 
4.50395568847656e+02 2.38729141235352e+02 5.01039218902588e+00 393 
1.43897412109375e+03 5.90998573303223e+01 3.60172581672668e+00 435 
3.63775939941406e+02 5.35920898437500e+02 5.04455041885376e+00 473 
6.15854980468750e+02 1.20526684570312e+03 3.77992749214172e+00 474 
1.25986352539062e+03 4.96801116943359e+02 5.13359403610229e+00 475 
3.77202661132812e+03 7.75231872558594e+02 7.08252620697021e+00 476 
2.34736328125000e+02 8.72919372558594e+02 5.26715707778931e+00 477 
2.25210098266602e+02 8.94898071289062e+02 6.55587959289551e+00 478 
1.47655102539062e+03 8.92429626464844e+02 6.24320459365845e+00 480 
2.82467407226562e+02 7.48771728515625e+02 5.24694538116455e+00 481 
3.52733215332031e+02 5.41432312011719e+02 4.13203048706055e+00 482 
3.59721630859375e+03 8.44007568359375e+02 5.27353668212891e+00 483 
2.87166772460938e+03 2.51819366455078e+02 7.94805812835693e+00 484 
2.08806323242188e+03 1.09687731933594e+03 8.90458488464355e+00 485 
2.49730078125000e+03 2.19644824218750e+03 1.11339530944824e+01 486 
8.15597534179688e+02 7.46641723632812e+02 8.75149345397949e+00 496 
3.70604028320312e+03 5.02168518066406e+02 4.22401094436646e+00 640 
3.79043505859375e+03 3.42381805419922e+02 5.70612621307373e+00 682 
3.76575830078125e+03 6.21455139160156e+02 6.63195562362671e+00 735 
3.69390600585938e+03 3.50727661132812e+02 4.57431745529175e+00 737 
3.08810839843750e+03 1.97752404785156e+03 3.40390281677246e+01 797 
3.21156909179688e+03 2.06863745117188e+03 2.80385150909424e+01 798 
2.34471972656250e+03 1.55008325195312e+03 8.52907180786133e+00 952 
4.09100494384766e+02 9.68905517578125e+02 1.17639389038086e+01 953 
9.30093261718750e+02 5.90062988281250e+02 1.31155557632446e+01 954 
2.83345776367188e+03 4.68952911376953e+02 1.79671688079834e+01 955 
3.27744238281250e+03 9.58940063476562e+02 8.87099933624268e+00 956 
9.97422058105469e+02 7.23905456542969e+02 1.32507648468018e+01 957 
2.03056005859375e+03 9.65898986816406e+02 4.49528789520264e+00 958 
3.62987719726562e+03 1.39785705566406e+03 4.92774486541748e+00 959 
2.64314648437500e+03 2.26022460937500e+03 9.74136352539062e+00 960 
1.57748840332031e+03 5.02322723388672e+02 6.56961393356323e+00 971 
4.03747650146484e+02 6.31853881835938e+02 5.58654069900513e+00 1211 
1.17051342773438e+03 2.95345733642578e+02 1.21222743988037e+01 1212 
6.84872802734375e+02 1.20997448730469e+03 1.16254100799561e+01 1213 
1.39297583007812e+03 1.25045458984375e+03 8.83226966857910e+00 1214 
2.53590332031250e+03 9.97473449707031e+02 1.36992988586426e+01 1215 
1.72920727539062e+03 2.03680212402344e+03 5.57979440689087e+00 1216 
2.33520141601562e+03 5.99388305664062e+02 9.38327503204346e+00 1217 
2.49255664062500e+03 1.34160998535156e+03 1.72697525024414e+01 1218 
2.40783569335938e+03 1.55811022949219e+03 1.62647838592529e+01 1219 
2.95906152343750e+03 2.35213037109375e+03 6.16165828704834e+00 1220 
2.23534643554688e+03 1.03230552673340e+02 3.93966126441956e+00 1221 
8.12002136230469e+02 2.06215820312500e+03 5.61235160827637e+01 1380 
4.26235656738281e+01 1.15598937988281e+03 3.78855514526367e+00 1630 
2.02333325195312e+03 1.64416625976562e+03 1.29469461441040e+01 1706 
2.60237231445312e+03 1.20483239746094e+03 1.11220827102661e+01 1729 
5.67495239257812e+02 2.11566015625000e+03 2.77856769561768e+01 1777 
4.12239135742188e+02 9.10914978027344e+02 6.58633470535278e+00 1797 
3.02955883789062e+03 7.57206604003906e+02 7.80436325073242e+00 1798 
1.48514819335938e+03 1.13494165039062e+03 1.21255855560303e+01 1799 
5.46225769042969e+02 2.63233581542969e+02 1.04111881256104e+01 1800 
7.31355285644531e+02 3.55030090332031e+02 1.63807907104492e+01 1801 
2.79274023437500e+03 3.52620910644531e+02 1.71290550231934e+01 1802 
1.49781201171875e+03 1.06949145507812e+03 1.41100187301636e+01 1803 
1.75701330566406e+03 1.57270309448242e+02 1.51922836303711e+01 1804 
6.29853698730469e+02 3.24561950683594e+02 1.50600700378418e+01 1805 
1.47560083007812e+03 8.35529846191406e+02 1.63298969268799e+01 1806 
1.86903796386719e+03 4.70131103515625e+02 2.26795291900635e+01 1807 
2.70962646484375e+03 2.44224060058594e+02 1.96776199340820e+01 1808 
8.87785217285156e+02 3.48465270996094e+02 1.91033020019531e+01 1809 
9.83830932617188e+02 3.44556915283203e+02 1.47541599273682e+01 1810 
1.07835168457031e+03 3.41132812500000e+02 1.88279972076416e+01 1811 
3.14665844726562e+03 2.63246917724609e+02 1.89325275421143e+01 1812 
9.35096130371094e+02 5.17603698730469e+02 1.77430133819580e+01 1813 
2.65826220703125e+03 1.41004440307617e+02 1.45531711578369e+01 1815 
1.02461425781250e+03 1.82768432617188e+02 1.53521509170532e+01 1816 
3.10067651367188e+03 4.68743591308594e+02 1.75814971923828e+01 1817 
6.86156494140625e+02 2.01840344238281e+03 3.48062973022461e+01 1818 
6.33594787597656e+02 2.81865997314453e+02 8.31272029876709e+00 1819 
3.12756347656250e+03 5.52181884765625e+02 1.21097564697266e+01 1820 
5.84807006835938e+02 2.49006683349609e+02 9.97046566009521e+00 1821 
2.82229785156250e+03 1.15015124511719e+03 8.36276721954346e+00 1822 
1.44588696289062e+03 1.47565209960938e+03 8.94317054748535e+00 1823 
5.82791381835938e+02 1.73916702270508e+02 7.89952087402344e+00 1824 
1.70626867675781e+03 1.36985266113281e+03 4.82034254074097e+00 1825 
3.29443115234375e+03 1.60776062011719e+02 6.93977403640747e+00 1826 
1.77591711425781e+03 4.30268936157227e+01 3.84483313560486e+00 1827 
6.52920654296875e+02 2.49560134887695e+02 6.60850048065186e+00 1828 
3.40724029541016e+02 1.71337658691406e+03 5.02399921417236e+00 1829 
1.50630139160156e+03 1.98196447753906e+03 5.32511568069458e+00 1830 
5.01782592773438e+02 1.14189994812012e+02 6.53345870971680e+00 1831 
1.06638256835938e+03 3.74138641357422e+02 7.79371929168701e+00 1833 
7.18757690429688e+02 2.42666656494141e+02 1.19508848190308e+01 1834 
3.24030688476562e+03 7.19646911621094e+01 7.45647668838501e+00 1835 
9.25597961425781e+02 3.95217102050781e+02 7.57972955703735e+00 1836 
2.40586547851562e+03 7.26107604980469e+02 1.17818403244019e+01 1837 
1.23520349121094e+03 1.28661389160156e+03 9.72717571258545e+00 1838 
1.86357189941406e+03 2.55497497558594e+02 1.75853652954102e+01 1839 
3.21045654296875e+03 2.71144561767578e+02 1.77808170318604e+01 1840 
2.96261035156250e+03 2.87060363769531e+02 3.06250991821289e+01 1841 
8.11524597167969e+02 3.49776977539062e+02 2.97619171142578e+01 1842 
2.54464160156250e+03 3.87198944091797e+02 3.95000953674316e+01 1843 
1.69504235839844e+03 1.60067016601562e+03 6.65345306396484e+01 1844 
2.05921264648438e+03 1.59573889160156e+03 6.50540542602539e+01 1845 
1.28773730468750e+03 8.30777770996094e+02 7.85692062377930e+01 1846 
6.55772827148438e+02 2.79157836914062e+02 9.27583217620850e+00 1847 
2.22222290039062e+03 8.02891296386719e+02 7.42673063278198e+00 1848 
9.01597778320312e+02 3.15849639892578e+02 7.75927829742432e+00 1849 
9.92569274902344e+02 3.11625030517578e+02 1.16405296325684e+01 1850 
2.89092089843750e+03 7.64299987792969e+02 1.22779121398926e+01 1851 
5.61477172851562e+02 2.87169799804688e+02 1.14213409423828e+01 1852 
1.45159460449219e+03 6.14690429687500e+02 1.23676300048828e+01 1853 
5.95052734375000e+02 3.66397735595703e+02 8.27077007293701e+00 1854 
1.47431018066406e+03 1.44765576171875e+03 9.43478584289551e+00 1855 
1.63512768554688e+03 2.02460644531250e+03 8.47209930419922e+00 1856 
2.74285644531250e+03 2.69071502685547e+02 1.41818056106567e+01 1857 
2.24340576171875e+03 1.54543884277344e+03 1.19766731262207e+01 1858 
3.27168286132812e+03 7.13555603027344e+01 5.33503627777100e+00 1859 
4.88428375244141e+02 1.44138931274414e+02 4.90380716323853e+00 1860 
3.30644360351562e+03 1.44584548950195e+02 5.06713438034058e+00 1861 
4.62234069824219e+02 5.88192321777344e+02 5.39437961578369e+00 1862 
6.56406433105469e+02 6.61084976196289e+01 6.76247119903564e+00 1863 
6.82669555664062e+02 6.58307113647461e+01 5.88499259948730e+00 1864 
7.90163757324219e+02 6.01960449218750e+01 5.82145023345947e+00 1865 
1.03810949707031e+03 2.91803771972656e+02 6.59347438812256e+00 1866 
3.35337329101562e+03 2.47615600585938e+02 4.50532579421997e+00 1867 
2.75929785156250e+03 3.45718200683594e+02 6.65004253387451e+00 1868 
1.61050000000000e+03 8.26788269042969e+02 6.62688732147217e+00 1869 
1.23348913574219e+03 4.88760948181152e+01 4.74688005447388e+00 1870 
5.13777038574219e+02 9.42083663940430e+01 6.45355272293091e+00 1871 
3.29610522460938e+03 1.24440704345703e+02 6.12624359130859e+00 1872 
4.52985992431641e+02 6.10096740722656e+02 5.16670560836792e+00 1873 
3.28777880859375e+03 1.02017532348633e+02 5.77885103225708e+00 1874 
1.09044763183594e+03 6.34042854309082e+01 4.06796360015869e+00 1875 
1.12546813964844e+03 6.27128868103027e+01 4.19158363342285e+00 1876 
4.70451812744141e+02 4.72674217224121e+01 4.07551622390747e+00 1877 
2.76184692382812e+03 2.15386505126953e+02 4.87837791442871e+00 1878 
3.04822851562500e+03 3.36140594482422e+02 3.68259882926941e+00 1879 
1.09857360839844e+03 5.15088195800781e+01 5.66938686370850e+00 1880 
1.93454785156250e+03 1.07247351074219e+03 1.32034912109375e+01 1881 
3.98529724121094e+02 5.91113708496094e+02 3.21070022583008e+01 1882 
1.39343579101562e+03 2.43928002929688e+03 5.22898340225220e+00 1883 
1.18810974121094e+03 6.66088714599609e+01 4.39556264877319e+00 1884 
1.29235266113281e+03 6.31756401062012e+01 4.03861665725708e+00 1885 
1.06561047363281e+03 7.28016662597656e+01 4.00636768341064e+00 1886 
1.02835217285156e+03 1.34040112304688e+03 6.17642307281494e+00 1887 
3.09738940429688e+03 1.85939343261719e+03 8.88936614990234e+00 1888 
3.54195739746094e+02 4.45896545410156e+02 3.56804394721985e+00 1889 
1.73563366699219e+03 2.39020080566406e+02 7.35900020599365e+00 1890 
2.96309741210938e+03 2.38402148437500e+03 9.62673187255859e+00 1891 
6.82950561523438e+02 9.61092712402344e+02 8.16963672637939e+00 1892 
1.32449414062500e+03 9.91904479980469e+02 1.40332622528076e+01 1893 
3.61141113281250e+03 8.77221313476562e+02 4.15816116333008e+00 1894 
2.72629394531250e+03 1.42295007324219e+03 2.44578285217285e+01 1895 
2.05929492187500e+03 1.75230810546875e+03 2.68818931579590e+01 1896 
5.99830688476562e+02 1.21470715332031e+03 1.72994174957275e+01 1897 
2.74904370117188e+03 1.56173425292969e+03 8.76207256317139e+00 1898 
1.35397033691406e+03 1.61141284179688e+03 6.50932235717773e+01 1899 
1.24574865722656e+03 1.17246923828125e+03 6.82522125244141e+01 1900 
2.20651684570312e+03 1.30102514648438e+03 9.60019683837891e+01 1901 
2.74584667968750e+03 1.58049084472656e+03 6.57468566894531e+01 1902 
2.22454199218750e+03 1.59805212402344e+03 1.02015441894531e+02 1903 
2.58112841796875e+03 1.59261767578125e+03 1.01045898437500e+02 1904 
3.04875830078125e+03 1.30448742675781e+03 1.15175952911377e+01 1905 
3.29516455078125e+03 8.76101867675781e+02 5.07515430450439e+00 1906 
2.24497656250000e+03 1.35113208007812e+03 4.97467327117920e+00 1907 
2.37775781250000e+03 1.16273590087891e+02 1.19197607040405e+01 1908 
9.98158142089844e+02 1.60505200195312e+03 2.31884155273438e+01 1909 
9.35670104980469e+02 2.11487426757812e+03 2.86416587829590e+01 1910 
2.85497070312500e+03 1.72410571289062e+03 7.34932327270508e+00 1911 
2.26921533203125e+03 3.47330688476562e+02 5.51660537719727e+00 1912 
3.50541284179688e+03 6.22968017578125e+02 5.66169977188110e+00 1913 
1.00770764160156e+03 2.34814544677734e+02 2.08229084014893e+01 1914 
2.73779614257812e+03 2.14495361328125e+03 1.44531517028809e+01 1915 
3.60839306640625e+03 9.31787841796875e+02 4.10019302368164e+00 1916 
2.11496215820312e+03 1.47442663574219e+03 6.71552562713623e+00 1917 
1.94610717773438e+03 1.29067871093750e+03 6.25439262390137e+00 1918 
1.93050659179688e+03 6.64605407714844e+02 1.07093048095703e+01 1919 
1.14532287597656e+03 2.14263525390625e+03 1.73141403198242e+01 1920 
3.19530639648438e+03 5.53599914550781e+02 2.24948654174805e+01 1921 
2.36620385742188e+03 1.02015167236328e+03 1.85690536499023e+01 1922 
2.14787451171875e+03 1.47852685546875e+03 1.34200954437256e+01 1923 
2.30702270507812e+03 4.36789062500000e+02 5.07521247863770e+00 1924 
1.31395727539062e+03 1.82551684570312e+03 4.86356496810913e+00 1925 
3.09336572265625e+03 1.33639294433594e+03 6.56062984466553e+00 1926 
1.67624053955078e+02 1.68200817871094e+03 7.63472175598145e+00 1927 
2.29374853515625e+03 6.15607849121094e+02 6.37561988830566e+00 1928 
3.15920483398438e+03 1.80614477539062e+03 5.98412179946899e+00 1929 
1.92605725097656e+03 4.13234191894531e+02 6.46517229080200e+00 1930 
2.17557031250000e+03 2.86700897216797e+02 9.28535842895508e+00 1931 
1.67369323730469e+03 1.88086132812500e+03 7.41007518768311e+00 1932 
3.67678759765625e+03 1.00454418945312e+03 6.52427101135254e+00 1933 
3.69735864257812e+03 7.23051574707031e+02 3.75126290321350e+00 1934 
9.84954956054688e+02 2.20937927246094e+02 6.34626483917236e+00 1935 
1.80034265136719e+03 2.30823925781250e+03 1.00266618728638e+01 1936 
2.27950561523438e+03 1.05684033203125e+03 1.50929756164551e+01 1937 
2.77555664062500e+02 1.46466162109375e+03 1.23449211120605e+01 1938 
3.61176513671875e+03 3.92985992431641e+02 3.85350823402405e+00 1939 
1.69474594116211e+02 8.65990966796875e+02 4.94523429870605e+00 1940 
1.19477368164062e+03 1.87645849609375e+03 2.03967247009277e+01 1941 
2.99924731445312e+03 1.12938781738281e+03 2.25661392211914e+01 1942 
1.42852893066406e+03 1.73255212402344e+03 8.12462139129639e+00 1943 
2.97868347167969e+02 6.53172973632812e+02 4.18541336059570e+00 1944 
2.50158911132812e+03 1.85751879882812e+03 1.54293804168701e+01 1945 
2.41544335937500e+03 1.58547485351562e+03 6.55714035034180e+01 1946 
7.30377929687500e+02 9.68772827148438e+02 1.26666269302368e+01 1947 
1.55838598632812e+03 3.36569458007812e+02 5.86416053771973e+00 1948 
2.84256127929688e+03 1.71455639648438e+03 3.99182057380676e+00 1949 
2.98503710937500e+03 2.91025085449219e+02 4.58778810501099e+00 1950 
2.64722167968750e+03 9.82579406738281e+02 8.99094486236572e+00 1951 
1.19750402832031e+03 8.01230957031250e+02 1.33054809570312e+01 1952 
2.82286499023438e+03 8.97549621582031e+02 1.80504112243652e+01 1953 
2.00839953613281e+03 3.79478729248047e+02 8.20806026458740e+00 1954 
2.71844482421875e+03 1.06430432128906e+03 9.88345146179199e+00 1955 
2.01209619140625e+03 3.95820648193359e+02 3.95001983642578e+01 1956 
3.03941601562500e+03 8.67093688964844e+02 1.17427482604980e+01 1957 
1.80083361816406e+03 8.71226745605469e+02 7.53860902786255e+00 1958 
2.77317578125000e+03 2.02380712890625e+03 5.39960527420044e+00 1959 
3.80341308593750e+03 1.40081384277344e+03 3.64330220222473e+00 1960 
2.00675079345703e+02 7.21733520507812e+02 3.90718340873718e+00 1961 
2.68012451171875e+03 8.43837280273438e+02 4.07998228073120e+00 1962 
3.04448779296875e+03 2.42885693359375e+03 7.63683748245239e+00 1963 
4.96537353515625e+02 1.45134887695312e+03 1.55199708938599e+01 1964 
7.05802246093750e+02 4.38881591796875e+02 1.45353498458862e+01 1965 
3.47817480468750e+03 1.50631567382812e+03 1.62430114746094e+01 1966 
5.60783386230469e+02 1.70319421386719e+03 9.09045791625977e+00 1967 
5.01170074462891e+02 1.39108734130859e+02 4.08814239501953e+00 1968 
9.99336730957031e+02 5.04031250000000e+02 5.31463336944580e+00 1969 
2.60637719726562e+03 7.27942626953125e+02 4.76745557785034e+00 1970 
3.60780517578125e+02 9.26368789672852e+01 6.88582611083984e+00 1971 
2.40852807617188e+03 1.33735461425781e+03 1.07631626129150e+01 1972 
1.38316879272461e+02 1.01965460205078e+03 1.14342660903931e+01 1973 
3.71828198242188e+03 1.34544906616211e+02 5.02679538726807e+00 1974 
3.71485131835938e+03 1.09553771972656e+03 1.02514047622681e+01 1975 
2.56013305664062e+03 1.22234764099121e+02 6.72110986709595e+00 1976 
1.59973571777344e+03 1.51650405883789e+02 6.75703144073486e+00 1977 
7.23690429687500e+02 1.28307995605469e+03 1.23111581802368e+01 1978 
7.02368774414062e+02 1.58191040039062e+02 5.22885799407959e+00 1979 
8.26648132324219e+02 8.37378417968750e+02 1.70898380279541e+01 1980 
3.70139862060547e+02 1.89545361328125e+03 1.02106695175171e+01 1981 
2.14994238281250e+03 1.16898950195312e+03 7.18689727783203e+00 1982 
3.28792846679688e+03 2.20713745117188e+03 1.48597850799561e+01 1983 
4.19298828125000e+02 2.93137756347656e+02 3.97302412986755e+00 1984 
3.09888671875000e+03 1.78702172851562e+03 5.60995578765869e+00 1985 
3.66840356445312e+03 1.15678051757812e+03 5.71579456329346e+00 1986 
2.61761932373047e+02 6.64018981933594e+02 4.79197454452515e+00 1987 
1.08365527343750e+03 8.61967163085938e+02 1.19774160385132e+01 1988 
3.24532861328125e+03 1.60838928222656e+03 1.67219238281250e+01 1989 
2.38846044921875e+03 1.43164001464844e+03 2.47205047607422e+01 1990 
6.24338134765625e+02 9.30975036621094e+02 9.39653491973877e+00 1991 
7.78453125000000e+02 1.40234375000000e+03 8.86751365661621e+00 1992 
9.07801574707031e+02 4.46495971679688e+02 3.62448835372925e+00 1993 
6.33115783691406e+02 1.70242065429688e+03 5.14738893508911e+00 1994 
1.70897058105469e+03 1.75197973632812e+03 3.68120241165161e+00 1995 
1.01829022216797e+03 2.15839453125000e+03 6.58529520034790e+00 1996 
