ply
format ascii 1.0
element vertex 683
property double x
property double y
property double size
property short id
end_header
4.43926055908203e+02 9.15793029785156e+02 1.58798284530640e+01 21 
5.44372070312500e+02 8.69175048828125e+02 2.06646804809570e+01 31 
1.93480297851562e+03 2.99486297607422e+02 5.29838037490845e+00 58 
1.93784753417969e+03 2.15236648559570e+02 4.66069316864014e+00 63 
5.26435668945312e+02 1.00618463134766e+03 2.47279624938965e+01 69 
3.35585107421875e+03 1.83624780273438e+03 6.02213096618652e+00 94 
3.51185839843750e+03 1.82771447753906e+03 5.02595376968384e+00 112 
5.59473083496094e+02 9.01362426757812e+02 1.00038938522339e+01 119 
3.60581756591797e+02 8.97968566894531e+02 7.74463224411011e+00 120 
3.73065063476562e+03 1.64405395507812e+03 7.19176387786865e+00 126 
5.31484741210938e+02 7.93202575683594e+02 9.96620273590088e+00 132 
1.18087438964844e+03 1.84622839355469e+03 1.19407625198364e+01 133 
2.41805761718750e+03 1.11354125976562e+03 1.43257055282593e+01 134 
2.57949047851562e+03 6.58658386230469e+02 6.51486063003540e+00 135 
3.27636132812500e+03 2.10541308593750e+03 7.71245002746582e+00 136 
2.01319055175781e+03 2.36361328125000e+03 5.33036422729492e+00 137 
2.17381396484375e+03 1.56135314941406e+03 7.38464117050171e+00 138 
2.58181176757812e+03 1.91664062500000e+03 1.56644201278687e+01 139 
3.67489105224609e+02 9.91811218261719e+02 9.61828804016113e+00 140 
6.31305480957031e+02 1.14863281250000e+03 4.80853080749512e+01 141 
3.40680566406250e+03 1.95372644042969e+03 7.06532096862793e+00 147 
3.31954736328125e+03 1.88372460937500e+03 6.15974521636963e+00 148 
1.26224597167969e+03 5.16499389648438e+02 5.36507453918457e+01 248 
2.97804272460938e+03 2.43779980468750e+03 9.30845737457275e+00 273 
3.60977734375000e+03 1.70410705566406e+03 4.19140386581421e+00 295 
3.74144848632812e+03 3.78500183105469e+02 4.68605661392212e+00 433 
1.44884399414062e+02 7.39872558593750e+02 3.86814236640930e+00 435 
3.62199731445312e+03 1.18661364746094e+03 5.29768466949463e+00 479 
2.92053710937500e+03 6.68064025878906e+02 6.15314531326294e+00 504 
2.51306201171875e+03 9.31372985839844e+02 4.64882421493530e+00 505 
2.51513891601562e+03 7.51193481445312e+02 9.37476253509521e+00 506 
2.51581591796875e+03 4.39448638916016e+02 3.67685008049011e+00 507 
3.48103588867188e+03 1.13581176757812e+03 1.02950906753540e+01 508 
2.74337554931641e+02 8.23944030761719e+02 4.10738801956177e+00 509 
8.84304138183594e+02 1.24230944824219e+03 1.58615045547485e+01 510 
3.80387268066406e+02 9.22940429687500e+02 2.12610149383545e+01 511 
2.65888085937500e+03 6.68737609863281e+02 3.77506279945374e+00 512 
3.82692700195312e+03 1.66659375000000e+03 5.20843553543091e+00 787 
3.79231030273438e+03 1.81506726074219e+03 1.03132667541504e+01 790 
3.30764599609375e+03 9.97836303710938e+02 1.64194927215576e+01 798 
3.52526855468750e+03 1.96478369140625e+03 5.84406900405884e+00 799 
3.57078588867188e+03 1.72178405761719e+03 5.04488801956177e+00 800 
3.61330737304688e+03 1.98710278320312e+03 5.98628044128418e+00 801 
3.32886743164062e+03 1.95232775878906e+03 7.69954729080200e+00 806 
3.54194873046875e+03 1.91609790039062e+03 8.05526256561279e+00 807 
3.84172143554688e+03 1.82880944824219e+03 4.67997074127197e+00 809 
3.72149780273438e+03 1.85633239746094e+03 7.06841659545898e+00 811 
3.82427734375000e+03 1.84445703125000e+03 6.48208570480347e+00 813 
3.62522802734375e+03 1.60360888671875e+03 5.00840997695923e+00 816 
3.59486181640625e+03 1.61419604492188e+03 6.14345359802246e+00 823 
3.81752270507812e+03 1.68198901367188e+03 7.35203981399536e+00 824 
3.68614038085938e+03 1.57892077636719e+03 5.08444547653198e+00 831 
3.75189843750000e+03 1.87479687500000e+03 7.95656585693359e+00 837 
3.43347412109375e+03 1.87497241210938e+03 6.00182676315308e+00 853 
3.65612500000000e+03 2.00527783203125e+03 5.47825384140015e+00 859 
3.31188818359375e+03 1.98889465332031e+03 8.68335819244385e+00 863 
3.62609863281250e+03 1.89985827636719e+03 6.46074390411377e+00 869 
3.30130908203125e+03 1.88065026855469e+03 6.92452096939087e+00 886 
3.53336230468750e+03 2.04755468750000e+03 6.95410251617432e+00 887 
3.76264916992188e+03 1.82730688476562e+03 6.56109809875488e+00 897 
3.72517822265625e+03 1.74946655273438e+03 6.81994628906250e+00 898 
3.74376855468750e+03 1.40620288085938e+03 7.04501533508301e+00 902 
3.77711303710938e+03 1.90965673828125e+03 7.56310987472534e+00 916 
3.68608984375000e+03 1.46787915039062e+03 7.05274343490601e+00 917 
3.65482177734375e+03 1.56166809082031e+03 5.19868755340576e+00 924 
3.44163476562500e+03 1.80913854980469e+03 5.58559131622314e+00 940 
3.50940625000000e+03 1.96518261718750e+03 5.72929668426514e+00 943 
3.58749414062500e+03 1.63784252929688e+03 5.31950712203979e+00 944 
3.16400708007812e+03 1.12799206542969e+03 1.92741031646729e+01 955 
3.78265625000000e+03 1.76554345703125e+03 4.93744993209839e+00 962 
3.21453027343750e+03 2.07537475585938e+03 5.20716047286987e+00 964 
3.65731225585938e+03 1.62688476562500e+03 5.55902576446533e+00 966 
3.42452734375000e+03 1.81415112304688e+03 6.34298944473267e+00 968 
3.18318432617188e+03 2.17296630859375e+03 5.48943090438843e+00 974 
3.58823901367188e+03 1.88492077636719e+03 8.56723117828369e+00 976 
3.48344702148438e+03 1.72776416015625e+03 5.33394575119019e+00 986 
3.41694873046875e+03 2.06377343750000e+03 5.90610361099243e+00 1003 
3.57993408203125e+03 1.66493688964844e+03 4.93238210678101e+00 1006 
3.78827807617188e+03 1.44347802734375e+03 4.90808725357056e+00 1008 
1.31046545410156e+03 1.95285229492188e+03 7.94292163848877e+00 1009 
3.76532031250000e+03 1.84267565917969e+03 6.20108270645142e+00 1010 
9.20607849121094e+02 4.32213439941406e+02 1.59313678741455e+01 1011 
4.98833953857422e+02 5.99745910644531e+02 1.81591415405273e+01 1012 
3.05964172363281e+02 6.78969665527344e+02 1.65868606567383e+01 1013 
3.59265771484375e+03 1.73233044433594e+03 3.66832375526428e+00 1014 
3.27647998046875e+03 2.03666284179688e+03 5.04403114318848e+00 1015 
3.62594995117188e+03 1.96589770507812e+03 9.38552761077881e+00 1016 
3.67691845703125e+03 1.81838134765625e+03 8.89271736145020e+00 1017 
3.67030493164062e+03 1.45234985351562e+03 6.12452363967896e+00 1018 
3.28461254882812e+03 1.95811010742188e+03 9.23743724822998e+00 1019 
3.66125415039062e+03 1.96890124511719e+03 8.23500633239746e+00 1020 
3.64281176757812e+03 1.89735668945312e+03 6.05840969085693e+00 1021 
3.76845678710938e+03 1.92382873535156e+03 7.24180173873901e+00 1022 
3.77096386718750e+03 1.70123852539062e+03 5.81261920928955e+00 1023 
3.75816064453125e+03 1.42563220214844e+03 5.16916561126709e+00 1024 
3.57073339843750e+03 1.95223547363281e+03 1.20277204513550e+01 1025 
3.78097802734375e+03 1.88759143066406e+03 9.99062156677246e+00 1026 
3.26787109375000e+03 2.00387219238281e+03 6.48554611206055e+00 1027 
1.29806982421875e+03 2.36886962890625e+02 4.97503376007080e+00 1028 
3.45788720703125e+03 2.09573437500000e+03 5.39217948913574e+00 1029 
3.66381079101562e+03 1.49606225585938e+03 3.89015746116638e+00 1030 
2.79855664062500e+03 2.31671948242188e+03 1.13322267532349e+01 1031 
3.62755712890625e+03 1.83901770019531e+03 1.12110643386841e+01 1032 
3.78812866210938e+03 1.89895166015625e+03 6.04145765304565e+00 1033 
3.55768383789062e+03 1.90154418945312e+03 5.17210769653320e+00 1034 
3.52895922851562e+03 1.67540783691406e+03 4.56640005111694e+00 1035 
1.57671191406250e+03 1.62435455322266e+02 3.74265813827515e+00 1036 
3.30735156250000e+03 2.03571203613281e+03 6.45671558380127e+00 1037 
3.29576293945312e+03 2.01329553222656e+03 7.51827621459961e+00 1038 
1.62227258300781e+03 1.42218276977539e+02 3.88828325271606e+00 1039 
3.57868286132812e+03 1.62363354492188e+03 4.17241573333740e+00 1040 
3.50525878906250e+03 1.74925866699219e+03 5.55947208404541e+00 1041 
3.57386230468750e+03 1.89988586425781e+03 6.07292318344116e+00 1042 
3.64971215820312e+03 1.92677062988281e+03 8.25551605224609e+00 1043 
3.69671118164062e+03 1.92113745117188e+03 1.03346824645996e+01 1044 
3.55943798828125e+03 1.62443273925781e+03 5.44214344024658e+00 1045 
3.65046142578125e+03 1.82503015136719e+03 9.91724967956543e+00 1046 
1.59083703613281e+03 2.09187942504883e+02 2.02471294403076e+01 1047 
1.28874304199219e+03 5.73551330566406e+02 5.22819213867188e+01 1048 
1.86249877929688e+03 5.74363250732422e+01 4.36072921752930e+00 1049 
3.42667480468750e+03 2.12370410156250e+03 4.62689590454102e+00 1050 
3.73669506835938e+03 1.78405786132812e+03 5.29363918304443e+00 1051 
3.47345288085938e+03 2.09402734375000e+03 5.08321809768677e+00 1052 
3.46749926757812e+03 1.75471301269531e+03 4.22679805755615e+00 1053 
3.50263891601562e+03 1.61775842285156e+03 4.09045934677124e+00 1054 
3.35905151367188e+03 1.81803295898438e+03 4.53745746612549e+00 1055 
3.66813964843750e+03 1.99423522949219e+03 5.46139287948608e+00 1056 
3.78497753906250e+03 1.79160021972656e+03 4.91998338699341e+00 1057 
3.78224804687500e+03 1.43243310546875e+03 4.11833810806274e+00 1058 
3.54072753906250e+03 1.93538696289062e+03 5.34938859939575e+00 1059 
3.58192065429688e+03 1.68743273925781e+03 5.41358804702759e+00 1060 
3.58568920898438e+03 1.60276806640625e+03 5.66848039627075e+00 1061 
3.69276123046875e+03 1.85488171386719e+03 7.96019458770752e+00 1062 
3.42772851562500e+03 1.73189978027344e+03 6.41487503051758e+00 1063 
4.82687316894531e+02 5.76744445800781e+02 7.85864686965942e+00 1064 
3.47617480468750e+03 1.82033312988281e+03 8.96335029602051e+00 1065 
3.52199853515625e+03 1.90577856445312e+03 8.04342746734619e+00 1066 
3.77925170898438e+03 1.94851171875000e+03 5.68313217163086e+00 1067 
3.67785009765625e+03 1.49684130859375e+03 6.14798593521118e+00 1068 
3.62427539062500e+03 1.80998803710938e+03 7.87880277633667e+00 1069 
3.59928588867188e+03 1.79300451660156e+03 6.14908933639526e+00 1070 
3.71307958984375e+03 1.77966015625000e+03 5.33331060409546e+00 1071 
3.65813085937500e+03 1.75653320312500e+03 1.01891222000122e+01 1072 
1.05564498901367e+02 7.23615417480469e+02 8.41973114013672e+00 1073 
3.52293896484375e+03 1.99288256835938e+03 1.00531730651855e+01 1074 
3.52940698242188e+03 1.70562438964844e+03 6.50100660324097e+00 1075 
3.27868969726562e+03 1.98383496093750e+03 5.47128105163574e+00 1076 
3.66328491210938e+03 2.01761083984375e+03 4.85565900802612e+00 1077 
3.48797167968750e+03 1.69841406250000e+03 4.12007188796997e+00 1078 
3.61206054687500e+03 1.94912548828125e+03 6.48247766494751e+00 1079 
3.22071508789062e+03 2.03092871093750e+03 6.42509031295776e+00 1080 
3.55104370117188e+03 2.06757617187500e+03 5.51394128799438e+00 1081 
3.67098632812500e+03 1.87355383300781e+03 5.71851730346680e+00 1082 
1.96386560058594e+03 2.29757507324219e+02 1.21660223007202e+01 1090 
1.95032141113281e+03 2.56867675781250e+02 1.28014354705811e+01 1091 
2.12375122070312e+03 4.80976928710938e+02 7.28155279159546e+00 1156 
2.88771215820312e+03 2.43539233398438e+03 8.61481380462646e+00 1238 
3.07652441406250e+03 2.24504394531250e+03 9.51661396026611e+00 1260 
3.51754052734375e+03 1.74088452148438e+03 6.00748252868652e+00 1263 
3.25995458984375e+03 2.07188232421875e+03 6.80296754837036e+00 1275 
3.37016357421875e+03 2.40115551757812e+03 9.72307682037354e+00 1293 
3.07395629882812e+03 2.20185864257812e+03 8.97842121124268e+00 1294 
3.24588256835938e+03 2.10620458984375e+03 1.14228382110596e+01 1307 
3.19909790039062e+03 2.38527587890625e+03 1.06164073944092e+01 1311 
3.12163671875000e+03 2.20616015625000e+03 1.09557437896729e+01 1312 
3.18691186523438e+03 2.14372509765625e+03 8.87441444396973e+00 1313 
3.48253515625000e+03 1.74463171386719e+03 8.61049842834473e+00 1321 
3.14831054687500e+03 2.15917700195312e+03 8.77007579803467e+00 1357 
3.78000097656250e+03 1.30939160156250e+03 5.39051866531372e+00 1400 
3.16703881835938e+03 2.42164501953125e+03 7.44579458236694e+00 1421 
3.20340991210938e+03 2.16887792968750e+03 9.19924259185791e+00 1422 
3.25946655273438e+03 2.05068701171875e+03 6.16518783569336e+00 1424 
3.77724902343750e+03 1.35855407714844e+03 5.85679149627686e+00 1444 
3.15815795898438e+03 2.47547802734375e+03 1.18808574676514e+01 1460 
3.23923022460938e+03 2.06899536132812e+03 6.08928298950195e+00 1462 
3.05885156250000e+03 2.21812402343750e+03 6.74102830886841e+00 1472 
3.49131713867188e+03 1.76447058105469e+03 6.71621894836426e+00 1475 
3.09127832031250e+03 2.19061669921875e+03 6.15404081344604e+00 1487 
3.24837768554688e+03 2.01300915527344e+03 7.46375083923340e+00 1489 
3.42350659179688e+03 2.41165795898438e+03 9.18745422363281e+00 1509 
2.94339428710938e+03 2.40170727539062e+03 1.30383787155151e+01 1526 
3.05071606445312e+03 2.28382934570312e+03 7.13949680328369e+00 1527 
3.23945532226562e+03 2.03381152343750e+03 7.46983480453491e+00 1528 
3.54554174804688e+03 1.60971081542969e+03 6.38577127456665e+00 1529 
3.55846801757812e+03 1.75756530761719e+03 5.74507236480713e+00 1530 
3.72365991210938e+03 2.03646679687500e+03 1.43476943969727e+01 1531 
3.44314599609375e+03 2.08072631835938e+03 1.24476737976074e+01 1532 
3.30527880859375e+03 2.02138391113281e+03 1.36117706298828e+01 1533 
2.55312500000000e+03 1.65669958496094e+03 5.85889720916748e+00 1534 
3.42199096679688e+03 2.25461718750000e+03 1.36648044586182e+01 1535 
3.72263647460938e+03 2.15508129882812e+03 5.85257863998413e+00 1536 
3.51453540039062e+03 2.03382141113281e+03 6.02163887023926e+00 1537 
3.38570605468750e+03 2.28638305664062e+03 7.73194026947021e+00 1538 
3.03734057617188e+03 2.21398974609375e+03 6.47641849517822e+00 1539 
3.70841674804688e+03 2.12453002929688e+03 7.86822652816772e+00 1540 
3.82223266601562e+03 1.41964831542969e+03 3.77383828163147e+00 1541 
3.28724975585938e+03 2.27298803710938e+03 6.08407402038574e+00 1542 
3.65836059570312e+03 2.15461889648438e+03 6.63820695877075e+00 1543 
3.43967114257812e+03 2.19764746093750e+03 7.99278974533081e+00 1544 
3.71615917968750e+03 2.00320935058594e+03 4.93045711517334e+00 1545 
3.21467114257812e+03 2.42406542968750e+03 6.51590394973755e+00 1546 
3.76768505859375e+03 2.01292089843750e+03 6.50101327896118e+00 1547 
3.09062353515625e+03 2.33254663085938e+03 7.09827470779419e+00 1548 
3.54146313476562e+03 2.26969433593750e+03 6.23553371429443e+00 1549 
3.48397021484375e+03 2.28582324218750e+03 1.03926658630371e+01 1550 
3.61251342773438e+03 1.92414501953125e+03 9.77455425262451e+00 1551 
3.35817993164062e+03 2.32701440429688e+03 6.01124191284180e+00 1552 
3.28153442382812e+03 2.23407104492188e+03 6.92813491821289e+00 1553 
3.28208837890625e+03 2.37557543945312e+03 1.22070102691650e+01 1554 
3.46761767578125e+03 2.24001684570312e+03 6.58245468139648e+00 1555 
3.66044384765625e+03 2.10219067382812e+03 8.49348354339600e+00 1556 
3.20391918945312e+03 2.04542687988281e+03 6.47456645965576e+00 1557 
3.68091040039062e+03 2.21559423828125e+03 1.04626235961914e+01 1558 
3.01828564453125e+03 2.35458911132812e+03 8.76325035095215e+00 1559 
3.76460327148438e+03 2.03143640136719e+03 6.72662734985352e+00 1560 
3.60392749023438e+03 2.05629638671875e+03 5.76576709747314e+00 1561 
3.53453271484375e+03 2.01743432617188e+03 6.30211257934570e+00 1562 
3.58477050781250e+03 1.83365258789062e+03 7.22516155242920e+00 1563 
2.77062695312500e+03 7.66876159667969e+02 6.06992387771606e+00 1564 
3.62358862304688e+03 1.87336572265625e+03 1.18944139480591e+01 1565 
1.48371740722656e+03 1.80466339111328e+02 8.59910869598389e+00 1566 
3.28239746093750e+03 2.05002270507812e+03 6.23836946487427e+00 1567 
3.65821386718750e+03 2.27081323242188e+03 1.02262849807739e+01 1568 
3.64868969726562e+03 2.17540258789062e+03 9.29780483245850e+00 1569 
3.37198608398438e+03 2.42249121093750e+03 7.57248210906982e+00 1570 
3.28476293945312e+03 2.43681591796875e+03 7.35067892074585e+00 1571 
3.33759375000000e+03 2.29156420898438e+03 7.56821203231812e+00 1572 
3.32123510742188e+03 2.23911035156250e+03 5.87581825256348e+00 1573 
3.27661108398438e+03 2.25190307617188e+03 7.21752452850342e+00 1574 
3.49062353515625e+03 2.11137915039062e+03 6.34148931503296e+00 1575 
3.30958154296875e+03 2.27173779296875e+03 8.18498420715332e+00 1576 
3.22660229492188e+03 2.39934667968750e+03 1.17070608139038e+01 1577 
3.54017236328125e+03 2.36037231445312e+03 8.58003234863281e+00 1578 
3.40197753906250e+03 2.27748730468750e+03 6.69439125061035e+00 1579 
3.06765771484375e+03 2.26406298828125e+03 6.96248006820679e+00 1580 
3.51478979492188e+03 2.05229199218750e+03 6.45276689529419e+00 1581 
2.98178198242188e+03 2.28917944335938e+03 7.25380945205688e+00 1582 
3.53409741210938e+03 2.21174121093750e+03 7.77719068527222e+00 1583 
3.27396801757812e+03 2.02046972656250e+03 6.27578878402710e+00 1584 
3.49447216796875e+03 2.03628479003906e+03 9.91700553894043e+00 1585 
3.52745214843750e+03 2.40195947265625e+03 9.28783226013184e+00 1586 
3.33893481445312e+03 2.33642846679688e+03 8.10216045379639e+00 1587 
3.64898583984375e+03 2.22321215820312e+03 5.99358558654785e+00 1588 
3.67280102539062e+03 2.11715185546875e+03 5.31757354736328e+00 1589 
3.09702954101562e+03 2.28827490234375e+03 9.25260829925537e+00 1590 
3.84507910156250e+03 2.02002502441406e+03 4.31379270553589e+00 1592 
3.76048730468750e+03 1.99188171386719e+03 6.26312828063965e+00 1593 
2.91096240234375e+03 2.47397900390625e+03 6.05664396286011e+00 1603 
3.53570458984375e+03 2.23583569335938e+03 7.56611537933350e+00 1605 
3.22539111328125e+03 2.16763696289062e+03 6.34799432754517e+00 1606 
3.52090161132812e+03 2.19636914062500e+03 7.34246587753296e+00 1617 
3.32223803710938e+03 2.28610375976562e+03 1.73535995483398e+01 1629 
1.11046798706055e+02 6.46869445800781e+02 3.60046505928040e+00 1630 
3.53690454101562e+03 2.29474389648438e+03 7.58010339736938e+00 1631 
3.45534570312500e+03 2.29787377929688e+03 1.10710248947144e+01 1641 
3.48251660156250e+03 2.25629614257812e+03 8.72693729400635e+00 1643 
3.57177197265625e+03 2.31570043945312e+03 9.07112312316895e+00 1645 
2.91585351562500e+03 2.44893066406250e+03 1.09021940231323e+01 1647 
3.60558520507812e+03 2.15968823242188e+03 9.03490066528320e+00 1648 
3.09418457031250e+03 2.48538232421875e+03 6.83461952209473e+00 1654 
3.55958374023438e+03 1.67974645996094e+03 1.13874416351318e+01 1656 
3.41436743164062e+03 9.97271484375000e+02 2.14346103668213e+01 1696 
5.33795166015625e+02 5.37939392089844e+02 4.88884735107422e+00 1763 
5.76222534179688e+02 6.81550781250000e+02 1.57009582519531e+01 1804 
1.24661071777344e+03 1.10715319824219e+03 2.31080112457275e+01 1806 
1.70597766113281e+03 2.22935522460938e+03 3.35094871520996e+01 1814 
2.95626098632812e+03 1.21164294433594e+03 8.09111213684082e+00 1851 
4.39028778076172e+02 9.78741943359375e+02 6.65548324584961e+00 1868 
2.88845367431641e+02 6.72331787109375e+02 3.80252051353455e+00 1875 
3.28166229248047e+02 6.56884033203125e+02 4.72642087936401e+00 1876 
1.76989831542969e+03 5.27905654907227e+01 4.42815971374512e+00 1877 
1.84387292480469e+03 2.19640640258789e+02 4.22479629516602e+00 1878 
1.33289880371094e+03 7.41185852050781e+02 4.94878959655762e+00 1879 
2.92540832519531e+02 6.56232482910156e+02 7.16905832290649e+00 1880 
9.29967285156250e+02 1.56907299804688e+03 1.69923801422119e+01 1881 
3.21286962890625e+03 5.22544097900391e+01 4.00091600418091e+00 1882 
1.45529248046875e+03 2.46692211914062e+03 7.52484083175659e+00 1883 
3.95166168212891e+02 6.37672180175781e+02 4.91319465637207e+00 1884 
5.03781951904297e+02 5.94331665039062e+02 4.65479373931885e+00 1885 
2.67173065185547e+02 6.90205993652344e+02 4.68936777114868e+00 1886 
1.19938476562500e+03 1.45555676269531e+03 6.44424200057983e+00 1887 
3.01832397460938e+03 2.44354077148438e+03 6.78221130371094e+00 1997 
3.04322705078125e+03 2.35972656250000e+03 7.40511178970337e+00 1998 
3.67810375976562e+03 1.71145129394531e+03 7.24370479583740e+00 1999 
2.88502661132812e+03 2.51288256835938e+03 6.56404399871826e+00 2000 
3.25814233398438e+03 2.15277807617188e+03 5.52078485488892e+00 2001 
3.34576416015625e+03 2.02861840820312e+03 5.54856920242310e+00 2002 
2.94995727539062e+03 2.51365942382812e+03 7.73203992843628e+00 2003 
3.04707714843750e+03 2.42439038085938e+03 5.31126117706299e+00 2004 
3.07614135742188e+03 2.35297119140625e+03 5.04603195190430e+00 2005 
3.22412158203125e+03 2.29056567382812e+03 4.77596378326416e+00 2006 
3.25088928222656e+02 6.24875793457031e+02 7.06172943115234e+00 2007 
2.90720214843750e+03 2.39606127929688e+03 6.13117933273315e+00 2008 
6.89380126953125e+02 4.66501770019531e+02 4.22787570953369e+00 2009 
3.81774560546875e+03 1.64786389160156e+03 5.92817020416260e+00 2010 
2.98742773437500e+03 2.27251904296875e+03 6.83356189727783e+00 2011 
4.39035614013672e+02 5.62597778320312e+02 4.06387901306152e+00 2012 
2.92344995117188e+03 2.29415795898438e+03 1.08452062606812e+01 2013 
3.45022656250000e+03 2.44646118164062e+03 1.43898200988770e+01 2014 
3.26802441406250e+03 2.50375512695312e+03 8.73010158538818e+00 2015 
3.82479248046875e+03 1.40911975097656e+03 4.70371341705322e+00 2016 
3.13109448242188e+03 2.48273779296875e+03 5.77883052825928e+00 2017 
6.50615356445312e+02 5.36326782226562e+02 3.79713320732117e+00 2018 
2.89855957031250e+03 2.41368334960938e+03 5.90449810028076e+00 2019 
3.45058642578125e+03 2.11111791992188e+03 6.83301925659180e+00 2020 
2.91529565429688e+03 2.35024951171875e+03 5.76181125640869e+00 2021 
3.10538305664062e+03 2.43878173828125e+03 6.69851207733154e+00 2022 
3.65393359375000e+03 1.43416577148438e+03 4.80841445922852e+00 2023 
2.95455786132812e+03 2.44795971679688e+03 8.10689735412598e+00 2024 
1.73998547363281e+03 1.35392468261719e+03 1.75429382324219e+01 2025 
5.44287902832031e+02 1.28859960937500e+03 1.66833496093750e+01 2026 
5.93838500976562e+02 7.79407165527344e+02 4.50244522094727e+01 2027 
7.37914916992188e+02 5.64695007324219e+02 3.20097045898438e+01 2028 
3.14898193359375e+03 2.40006469726562e+03 6.55030822753906e+00 2029 
3.19905908203125e+03 2.06028393554688e+03 5.05841875076294e+00 2030 
1.90474841308594e+03 2.19915576171875e+03 1.24318647384644e+01 2031 
4.36679199218750e+02 5.91679199218750e+02 1.11512403488159e+01 2032 
1.40008923339844e+03 9.72618896484375e+02 7.91985416412354e+00 2033 
3.76321630859375e+03 1.74907275390625e+03 7.88085699081421e+00 2034 
3.02805151367188e+03 2.42206469726562e+03 7.34334564208984e+00 2185 
2.96626928710938e+03 2.38990625000000e+03 5.75730609893799e+00 2235 
2.91011132812500e+03 1.36096691894531e+03 5.14406661987305e+01 2384 
3.04867968750000e+03 2.31589965820312e+03 2.04388065338135e+01 2463 
2.23533374023438e+03 4.30185424804688e+02 1.34194660186768e+01 2464 
3.25947241210938e+03 2.44343188476562e+03 1.35232744216919e+01 2465 
1.37754260253906e+03 9.68933334350586e+01 7.21548318862915e+00 2466 
5.67887207031250e+02 1.65460571289062e+02 7.69689846038818e+00 2467 
3.37409008789062e+03 2.20495654296875e+03 8.12311172485352e+00 2469 
1.55682617187500e+03 1.79140686035156e+02 1.35734043121338e+01 2470 
5.24958801269531e+02 1.80406478881836e+02 8.77158164978027e+00 2471 
3.45921777343750e+03 3.59833129882812e+02 8.06244277954102e+00 2472 
3.91120147705078e+02 4.87601745605469e+02 7.64986085891724e+00 2473 
3.59021240234375e+03 2.04372253417969e+03 7.78832817077637e+00 2474 
3.31383325195312e+03 2.32520727539062e+03 8.26251602172852e+00 2475 
6.88575866699219e+02 8.95195007324219e+01 7.12692403793335e+00 2476 
9.13821166992188e+02 2.02239318847656e+02 7.53330421447754e+00 2477 
2.62334594726562e+03 9.82249267578125e+02 7.11822557449341e+00 2478 
3.28943212890625e+03 2.08326025390625e+03 7.29052400588989e+00 2479 
1.76005090332031e+03 1.85283386230469e+02 1.05844345092773e+01 2480 
5.04759246826172e+02 2.23516433715820e+02 1.02523603439331e+01 2481 
3.44346923828125e+03 2.03362866210938e+03 8.51574516296387e+00 2482 
1.90646020507812e+03 2.54282836914062e+02 1.13607044219971e+01 2483 
9.61778625488281e+02 1.96088043212891e+02 7.68256616592407e+00 2484 
2.05902734375000e+03 1.97244522094727e+02 1.08826084136963e+01 2485 
3.45923657226562e+03 3.88847839355469e+02 7.29664182662964e+00 2486 
3.17125659179688e+03 2.19489111328125e+03 5.75262737274170e+00 2487 
1.28166967773438e+03 8.77114181518555e+01 6.69911146163940e+00 2488 
6.10425903320312e+02 2.10516723632812e+02 5.66912221908569e+00 2489 
3.20704736328125e+03 2.12368530273438e+03 6.37034654617310e+00 2490 
3.43709790039062e+03 2.22163647460938e+03 5.96733093261719e+00 2491 
3.55715307617188e+03 2.29915673828125e+03 5.70839834213257e+00 2492 
1.42030419921875e+03 5.78440704345703e+01 5.66683673858643e+00 2493 
1.92743725585938e+03 8.92960281372070e+01 5.35933876037598e+00 2494 
1.09032861328125e+03 1.18455482482910e+02 4.02148103713989e+00 2495 
4.66138061523438e+02 2.76954742431641e+02 4.50530385971069e+00 2496 
3.06146801757812e+03 2.32976049804688e+03 5.04207181930542e+00 2497 
8.79721008300781e+02 1.02451942443848e+02 6.34938240051270e+00 2498 
8.56031311035156e+02 2.23948867797852e+02 6.25795316696167e+00 2499 
3.31863330078125e+03 1.00484321594238e+02 4.50419664382935e+00 2500 
3.39933154296875e+03 1.31732681274414e+02 4.53720426559448e+00 2501 
5.31890747070312e+02 1.70286254882812e+02 4.07524061203003e+00 2502 
8.32308715820312e+02 2.72528778076172e+02 4.34327316284180e+00 2503 
9.34738037109375e+02 2.72197387695312e+02 5.52499580383301e+00 2504 
5.56060302734375e+02 3.68734497070312e+02 5.24116373062134e+00 2505 
2.38372290039062e+03 4.85908660888672e+02 4.71840763092041e+00 2506 
2.97863696289062e+03 4.85145935058594e+02 4.86698436737061e+00 2507 
2.29169848632812e+03 3.95880462646484e+02 6.49418926239014e+00 2508 
3.39053588867188e+03 1.83340747070312e+03 5.71793699264526e+00 2509 
3.25153955078125e+03 2.49222094726562e+03 6.29131984710693e+00 2510 
7.98364868164062e+02 6.89152221679688e+01 3.72260546684265e+00 2511 
4.68872772216797e+02 1.63275238037109e+02 5.63593721389771e+00 2512 
6.30895263671875e+02 1.62503753662109e+02 4.01765632629395e+00 2513 
8.75050964355469e+02 2.56003540039062e+02 4.71453237533569e+00 2514 
6.22354187011719e+02 3.21287414550781e+02 4.99500417709351e+00 2515 
7.69653686523438e+02 3.53058624267578e+02 5.33225297927856e+00 2516 
5.75266418457031e+02 3.83484039306641e+02 4.89947605133057e+00 2517 
8.65590332031250e+02 4.16538635253906e+02 4.76331090927124e+00 2518 
2.83153247070312e+03 4.17848419189453e+02 5.74609565734863e+00 2519 
7.14138732910156e+02 3.15026245117188e+02 6.69657897949219e+00 2520 
3.46192919921875e+03 1.78393347167969e+03 5.74258136749268e+00 2521 
3.40599340820312e+03 1.84932153320312e+03 5.82308006286621e+00 2522 
3.38678222656250e+03 2.37646948242188e+03 6.81264352798462e+00 2523 
3.01182836914062e+03 2.41126660156250e+03 7.05558395385742e+00 2524 
5.29439636230469e+02 1.43441894531250e+02 4.61263990402222e+00 2525 
6.98810974121094e+02 1.39967330932617e+02 5.12181758880615e+00 2526 
8.06262390136719e+02 1.41779067993164e+02 4.60917329788208e+00 2527 
9.03866149902344e+02 1.73735977172852e+02 4.15959119796753e+00 2528 
8.82214294433594e+02 2.06868377685547e+02 4.21150159835815e+00 2529 
2.44009375000000e+03 2.37121749877930e+02 4.82720327377319e+00 2530 
4.15402221679688e+02 3.33221557617188e+02 5.59288311004639e+00 2531 
7.50711547851562e+02 3.34443969726562e+02 4.25260400772095e+00 2532 
2.65415087890625e+03 3.32948059082031e+02 5.51263141632080e+00 2533 
2.79000512695312e+03 3.96327178955078e+02 5.13150358200073e+00 2534 
3.40914453125000e+03 3.97577056884766e+02 5.31041288375854e+00 2535 
5.38875915527344e+02 4.28301025390625e+02 5.10789060592651e+00 2536 
4.35486999511719e+02 4.87617126464844e+02 5.64601850509644e+00 2537 
3.29635156250000e+03 2.10786108398438e+03 4.82216167449951e+00 2538 
6.20224792480469e+02 2.85593170166016e+02 6.91903638839722e+00 2539 
3.17631591796875e+03 2.04771826171875e+03 6.12887907028198e+00 2540 
2.70517913818359e+02 2.14104809570312e+03 7.09272861480713e+00 2541 
8.10135742187500e+02 4.92236518859863e+01 3.92369985580444e+00 2542 
8.65920593261719e+02 4.93533477783203e+01 4.00122117996216e+00 2543 
1.55246691894531e+03 5.04175872802734e+01 5.58954191207886e+00 2544 
4.17026580810547e+02 1.85303665161133e+02 4.30123472213745e+00 2545 
3.54308447265625e+03 1.98203662109375e+03 6.08462715148926e+00 2546 
3.62901000976562e+03 2.26715795898438e+03 6.35308122634888e+00 2547 
2.75566967773438e+03 3.82787200927734e+02 5.01147651672363e+00 2548 
3.62845062255859e+02 4.77477935791016e+02 5.38345146179199e+00 2549 
2.93426049804688e+03 2.37466625976562e+03 5.21847105026245e+00 2550 
7.78252197265625e+02 2.64368347167969e+02 6.85877513885498e+00 2551 
7.74147583007812e+02 2.95588500976562e+02 6.10638427734375e+00 2552 
3.53047583007812e+03 7.42088806152344e+02 6.20261859893799e+00 2553 
2.33578308105469e+02 1.98928723144531e+03 6.68950366973877e+00 2554 
3.18662573242188e+03 2.34838842773438e+03 6.13407373428345e+00 2555 
3.18715722656250e+03 2.41167968750000e+03 6.69331932067871e+00 2556 
1.40139343261719e+03 1.12478569030762e+02 3.79164934158325e+00 2557 
7.23545837402344e+02 1.77832901000977e+02 4.74456167221069e+00 2558 
5.58206115722656e+02 3.24763427734375e+02 5.45364618301392e+00 2559 
2.33019311523438e+03 6.43807128906250e+02 9.69932174682617e+00 2560 
9.73290176391602e+01 2.45439990234375e+03 9.63604736328125e+00 2561 
3.52842993164062e+03 2.16368676757812e+03 1.30469760894775e+01 2562 
1.28154699707031e+03 8.41466598510742e+01 8.48445415496826e+00 2563 
1.83410437011719e+03 1.48157623291016e+02 9.23230075836182e+00 2564 
3.33264184570312e+03 2.00081420898438e+03 8.91206359863281e+00 2565 
3.61324340820312e+03 2.07758740234375e+03 8.55737686157227e+00 2566 
3.49533398437500e+03 2.13068286132812e+03 7.61188077926636e+00 2567 
1.74313085937500e+03 3.29984313964844e+02 1.27404203414917e+01 2568 
3.55840576171875e+03 2.28095947265625e+03 1.14327754974365e+01 2569 
6.61951232910156e+02 2.30460009765625e+03 2.12705688476562e+01 2570 
2.19455590820312e+03 5.23370971679688e+02 2.30963783264160e+01 2571 
2.48554418945312e+03 3.30589294433594e+02 1.53029813766479e+01 2572 
2.40785717773438e+03 4.42763671875000e+02 1.46117763519287e+01 2573 
3.40307299804688e+03 1.73310180664062e+03 1.58384599685669e+01 2574 
3.43918457031250e+03 8.72920776367188e+02 1.66466197967529e+01 2575 
2.90889501953125e+03 9.86231750488281e+02 1.82280254364014e+01 2576 
1.30496374511719e+03 1.25602197265625e+03 1.87400493621826e+01 2577 
3.04880590820312e+03 2.15554492187500e+03 1.53010911941528e+01 2578 
3.37906884765625e+03 2.39405834960938e+03 1.86595115661621e+01 2579 
9.72066772460938e+02 9.61020324707031e+02 1.82506809234619e+01 2580 
6.47239318847656e+02 1.09804650878906e+03 1.45524349212646e+01 2581 
2.87053125000000e+03 2.35902197265625e+03 1.44923267364502e+01 2582 
3.05478491210938e+03 2.18852709960938e+03 4.09022789001465e+01 2583 
2.37183056640625e+03 1.24814208984375e+03 3.02726078033447e+01 2584 
5.92999084472656e+02 3.13662933349609e+02 4.68159437179565e+00 2585 
8.82919372558594e+02 3.11941284179688e+02 5.36648082733154e+00 2586 
7.59822265625000e+02 2.39289749145508e+02 6.18947649002075e+00 2587 
3.40757031250000e+03 2.32877148437500e+03 6.06742715835571e+00 2588 
8.16048828125000e+02 2.78977569580078e+02 1.08832054138184e+01 2589 
5.28746948242188e+02 3.45032623291016e+02 1.00476284027100e+01 2590 
5.08951995849609e+02 4.07367401123047e+02 1.03200769424438e+01 2591 
3.48183544921875e+03 4.12684448242188e+02 8.12886810302734e+00 2592 
3.51398168945312e+03 2.36437597656250e+03 1.10589590072632e+01 2593 
1.76230688476562e+03 1.02769737243652e+02 1.12709541320801e+01 2594 
4.57176361083984e+02 3.72910339355469e+02 7.85165786743164e+00 2595 
4.83083160400391e+02 4.38531097412109e+02 9.37188434600830e+00 2596 
5.04813293457031e+02 1.50921813964844e+02 5.86307621002197e+00 2597 
3.12479809570312e+03 2.26314990234375e+03 6.22010993957520e+00 2598 
2.98087646484375e+03 2.30751367187500e+03 6.06397771835327e+00 2599 
8.93141174316406e+02 2.28494827270508e+02 5.64336061477661e+00 2600 
3.36285937500000e+03 1.94276318359375e+03 5.37512207031250e+00 2601 
5.74189025878906e+02 3.14880554199219e+02 7.83746910095215e+00 2602 
2.76749218750000e+03 8.73789611816406e+02 9.00014400482178e+00 2603 
3.61178540039062e+03 1.62490039062500e+03 7.29272174835205e+00 2604 
3.19326928710938e+03 2.20325878906250e+03 7.69116163253784e+00 2605 
3.00421508789062e+03 2.25249291992188e+03 7.76621818542480e+00 2606 
3.50015673828125e+03 2.31815429687500e+03 9.32669544219971e+00 2607 
3.13129052734375e+03 2.44615502929688e+03 7.62410545349121e+00 2608 
1.86506469726562e+03 2.54375534057617e+02 1.27967901229858e+01 2609 
2.71605468750000e+03 9.28706848144531e+02 7.67271852493286e+00 2610 
3.40992968750000e+03 1.82980249023438e+03 7.30924177169800e+00 2611 
3.04228979492188e+03 2.32541235351562e+03 8.48590564727783e+00 2612 
8.67855834960938e+01 2.38513598632812e+03 8.88712024688721e+00 2613 
2.88932958984375e+03 2.38327685546875e+03 9.62606239318848e+00 2614 
1.16515734863281e+03 2.71900878906250e+02 9.75829219818115e+00 2615 
2.37736596679688e+03 7.93378845214844e+02 8.10264968872070e+00 2616 
3.33457202148438e+03 1.97464587402344e+03 7.72047615051270e+00 2617 
3.02747558593750e+03 2.29014306640625e+03 7.34677553176880e+00 2618 
2.95436035156250e+03 2.41980297851562e+03 7.06292486190796e+00 2619 
1.44387023925781e+03 1.93133712768555e+02 7.19480133056641e+00 2620 
3.36749609375000e+03 2.28880297851562e+03 5.39358139038086e+00 2621 
5.64692260742188e+02 4.03837005615234e+02 6.54032373428345e+00 2622 
3.24047827148438e+03 2.29629248046875e+03 6.20854711532593e+00 2623 
8.09407226562500e+02 5.91792488098145e+01 4.15925598144531e+00 2624 
2.34003637695312e+03 1.79594833374023e+02 5.51220750808716e+00 2625 
7.77834838867188e+02 2.43891815185547e+02 4.43062925338745e+00 2626 
2.33835113525391e+02 2.10438720703125e+03 5.57361030578613e+00 2627 
4.74929962158203e+02 3.83823547363281e+02 6.69887685775757e+00 2628 
3.20170605468750e+03 9.96883621215820e+01 4.02736330032349e+00 2629 
8.89235107421875e+02 2.40608520507812e+02 3.89490175247192e+00 2630 
3.31625976562500e+03 2.04821704101562e+03 5.13430070877075e+00 2631 
1.28565979003906e+03 1.04502670288086e+02 6.10300540924072e+00 2632 
2.45358740234375e+03 2.30054046630859e+02 5.92225360870361e+00 2633 
8.80981445312500e+02 2.94198181152344e+02 6.04566287994385e+00 2634 
3.51436132812500e+03 3.66512237548828e+02 7.08238887786865e+00 2635 
3.45925537109375e+03 1.76763122558594e+03 6.51624822616577e+00 2636 
1.13057945251465e+02 1.89592333984375e+03 6.21046352386475e+00 2637 
3.43926708984375e+03 2.14660131835938e+03 6.00176954269409e+00 2638 
3.31345532226562e+03 2.30374682617188e+03 5.69162559509277e+00 2639 
7.66447204589844e+02 2.55890106201172e+02 3.70772933959961e+00 2640 
4.27953430175781e+02 3.20690307617188e+02 4.66230392456055e+00 2641 
3.82964569091797e+02 4.16480285644531e+02 4.65231657028198e+00 2642 
2.28995703125000e+03 1.56360122680664e+02 6.21367502212524e+00 2643 
3.53177514648438e+03 1.78574353027344e+03 6.33852052688599e+00 2644 
3.05558178710938e+03 2.18330590820312e+03 6.46698045730591e+00 2645 
4.33376892089844e+02 2.36542343139648e+02 5.28444147109985e+00 2646 
7.21310852050781e+02 2.99926727294922e+02 4.07993555068970e+00 2647 
6.27841674804688e+02 3.31365753173828e+02 4.22320604324341e+00 2648 
3.26264941406250e+03 2.23539355468750e+03 5.64272356033325e+00 2649 
2.08378173828125e+03 6.44309921264648e+01 6.00629711151123e+00 2650 
2.23192504882812e+03 1.30599792480469e+02 6.03369903564453e+00 2651 
2.50516577148438e+03 2.54993133544922e+02 6.43402385711670e+00 2652 
3.05966748046875e+03 5.08902801513672e+02 6.67081880569458e+00 2653 
1.20354507446289e+02 1.82290795898438e+03 5.66524887084961e+00 2654 
3.58814501953125e+03 1.98725927734375e+03 5.77595329284668e+00 2655 
3.13411596679688e+03 2.13995263671875e+03 6.04557991027832e+00 2656 
3.29801367187500e+03 2.20621508789062e+03 5.86037015914917e+00 2657 
3.20109716796875e+03 2.33797875976562e+03 6.29244899749756e+00 2658 
8.81481872558594e+02 1.85468597412109e+02 3.78175449371338e+00 2659 
9.04152038574219e+02 2.16305633544922e+02 4.76227712631226e+00 2660 
3.56127343750000e+03 1.91794616699219e+03 6.46179723739624e+00 2661 
3.07493701171875e+03 2.32217309570312e+03 5.97883319854736e+00 2662 
1.38800549316406e+03 8.37911605834961e+01 4.82915830612183e+00 2663 
2.43792065429688e+03 2.23597656250000e+02 5.60876893997192e+00 2664 
1.85157165527344e+03 2.55588134765625e+02 4.82047557830811e+00 2665 
9.64963073730469e+01 1.73544274902344e+03 4.49579572677612e+00 2666 
2.11378857421875e+03 7.64636459350586e+01 6.10895967483521e+00 2667 
3.45414257812500e+03 2.05685522460938e+03 5.89761352539062e+00 2668 
3.18670581054688e+03 2.12178955078125e+03 6.40657854080200e+00 2669 
4.34939514160156e+02 2.24530957031250e+03 6.66979646682739e+00 2670 
3.37158398437500e+03 2.31897143554688e+03 6.22732591629028e+00 2671 
1.25379382324219e+03 1.15252250671387e+02 5.60918855667114e+00 2672 
7.56744934082031e+02 1.47101745605469e+02 4.80342149734497e+00 2673 
4.70732147216797e+02 2.02067810058594e+02 4.52697372436523e+00 2674 
8.32729858398438e+02 2.61384277343750e+02 4.12936735153198e+00 2675 
3.37274218750000e+03 1.83150476074219e+03 7.39786863327026e+00 2676 
9.83055297851562e+02 2.07346557617188e+02 1.28391046524048e+01 2677 
2.02524853515625e+03 2.32507003784180e+02 2.08218173980713e+01 2678 
2.00429943847656e+03 3.24609527587891e+02 2.43138523101807e+01 2679 
8.46878662109375e+02 2.58581146240234e+02 1.38168497085571e+01 2680 
1.78302612304688e+03 2.91077392578125e+02 2.20110740661621e+01 2681 
2.55667260742188e+03 2.97128784179688e+02 1.60933513641357e+01 2682 
3.25312304687500e+03 9.75743835449219e+02 1.91196708679199e+01 2683 
3.40835449218750e+03 2.19087622070312e+03 2.42734432220459e+01 2684 
3.56661938476562e+03 2.23341406250000e+03 1.60737285614014e+01 2685 
2.33863110351562e+03 4.47572265625000e+02 4.56284904479980e+01 2686 
1.94754333496094e+03 5.17281799316406e+02 4.78375892639160e+01 2687 
1.78735607910156e+03 4.21650024414062e+02 4.68940277099609e+01 2688 
2.96197387695312e+03 7.74232360839844e+02 6.06366767883301e+01 2689 
3.47238549804688e+03 3.45762725830078e+02 4.47786903381348e+00 2690 
3.12190844726562e+03 2.16267749023438e+03 6.20187139511108e+00 2691 
3.13877880859375e+03 2.22435156250000e+03 6.23254585266113e+00 2692 
2.94455517578125e+03 2.36096923828125e+03 6.18260765075684e+00 2693 
3.42591015625000e+03 2.35978637695312e+03 6.37609863281250e+00 2694 
5.36363037109375e+02 4.11582336425781e+02 8.37436962127686e+00 2695 
3.38439428710938e+03 2.16829394531250e+03 8.62272453308105e+00 2696 
3.00057031250000e+03 2.43071191406250e+03 7.61931753158569e+00 2697 
5.56585449218750e+02 2.49293334960938e+03 1.03376188278198e+01 2698 
3.44040039062500e+03 3.74023864746094e+02 7.40197992324829e+00 2699 
4.20256958007812e+02 4.33302337646484e+02 8.45969200134277e+00 2700 
3.46806933593750e+03 4.32234863281250e+02 8.64229011535645e+00 2701 
3.16559985351562e+03 2.17490991210938e+03 7.93532228469849e+00 2702 
5.86068115234375e+02 3.89886718750000e+02 4.05293989181519e+00 2703 
3.86660278320312e+02 5.15774597167969e+02 3.81372332572937e+00 2704 
3.29081323242188e+03 1.93424853515625e+03 4.88594293594360e+00 2705 
3.33628906250000e+03 1.93639843750000e+03 6.12616682052612e+00 2706 
1.25172033691406e+03 6.59391860961914e+01 4.51194620132446e+00 2707 
3.24983666992188e+03 6.62151260375977e+01 3.85720753669739e+00 2708 
5.05230895996094e+02 1.37965576171875e+02 4.18360280990601e+00 2709 
5.21797851562500e+02 1.64386611938477e+02 3.83191347122192e+00 2710 
3.73101745605469e+02 5.01812438964844e+02 4.67506837844849e+00 2711 
1.29698010253906e+03 1.61216156005859e+02 8.24727153778076e+00 2712 
3.77336889648438e+03 2.06567822265625e+03 5.48219680786133e+00 2713 
3.73834423828125e+03 2.06268457031250e+03 7.10387992858887e+00 2714 
3.58466015625000e+03 1.52919116210938e+03 4.89149665832520e+00 2715 
3.81957446289062e+03 1.95089025878906e+03 4.80723476409912e+00 2716 
3.32839111328125e+03 2.30188330078125e+03 5.02931356430054e+00 2717 
1.28629223632812e+03 2.34816503906250e+03 5.98075342178345e+00 2718 
1.90624328613281e+03 1.67236840820312e+03 7.20109033584595e+00 2719 
3.49712451171875e+03 1.68819921875000e+03 6.36409807205200e+00 2720 
3.50962792968750e+03 1.66502331542969e+03 7.58583211898804e+00 2721 
1.25554943847656e+03 1.75569543457031e+03 3.96719002723694e+00 2722 
3.78674682617188e+03 2.01316760253906e+03 6.40735197067261e+00 2723 
3.47516137695312e+03 1.67868237304688e+03 9.21249103546143e+00 2724 
3.65719628906250e+03 1.90317150878906e+03 5.17666435241699e+00 2725 
3.60602221679688e+03 1.49159729003906e+03 4.17952108383179e+00 2726 
1.45509506225586e+02 2.37551953125000e+03 1.04365882873535e+01 2727 
3.48859594726562e+03 7.21406616210938e+02 5.99759864807129e+00 2728 
2.38185668945312e+03 2.12942977905273e+02 3.79991054534912e+00 2729 
2.59545019531250e+03 3.06686584472656e+02 4.60636568069458e+00 2730 
2.29659301757812e+03 1.72129562377930e+02 4.67671394348145e+00 2732 
3.23123071289062e+03 6.04930847167969e+02 5.94538927078247e+00 2733 
2.61427661132812e+03 3.18614166259766e+02 4.24936199188232e+00 2734 
7.82871170043945e+01 2.33976879882812e+03 5.45222806930542e+00 2735 
3.01575854492188e+03 5.89301025390625e+02 8.99586868286133e+00 2736 
3.79352709960938e+03 1.30008508300781e+03 5.11962461471558e+00 2737 
3.24267608642578e+02 2.22829736328125e+03 5.31400108337402e+00 2738 
1.45673919677734e+02 2.43694409179688e+03 8.18101024627686e+00 2739 
3.79121191406250e+03 4.83307312011719e+02 9.36503124237061e+00 2740 
1.61610900878906e+02 2.48128906250000e+03 1.00960826873779e+01 2741 
2.37167846679688e+03 1.92237792968750e+02 6.39207887649536e+00 2742 
1.11591484069824e+02 1.79502941894531e+03 7.50673723220825e+00 2743 
1.94393508911133e+02 2.02820678710938e+03 4.89366292953491e+00 2744 
2.02678845214844e+03 2.25268334960938e+03 5.12931060791016e+00 2745 
2.87285888671875e+03 1.77464636230469e+03 6.57855319976807e+00 2746 
2.45866650390625e+03 2.45598159790039e+02 4.02462863922119e+00 2747 
2.73767065429688e+03 3.72113403320312e+02 4.57924461364746e+00 2748 
3.34302270507812e+03 6.55710205078125e+02 4.69769382476807e+00 2749 
3.10770263671875e+03 5.46815673828125e+02 4.70701932907104e+00 2750 
3.12743896484375e+03 5.56595214843750e+02 4.94137763977051e+00 2751 
3.43735198974609e+02 2.17024267578125e+03 6.59269142150879e+00 2752 
1.40063208007812e+03 1.72992675781250e+03 1.47537851333618e+01 2753 
2.89890820312500e+03 4.40649871826172e+02 4.50997543334961e+00 2754 
2.95657470703125e+03 4.74084197998047e+02 5.34706687927246e+00 2755 
3.08020507812500e+03 5.36248474121094e+02 4.67674016952515e+00 2756 
1.51078723144531e+03 2.39020092773438e+03 7.77173948287964e+00 2757 
1.81196386718750e+03 6.53132995605469e+02 1.20694904327393e+01 2758 
2.14726611328125e+03 1.00623901367188e+03 6.38597393035889e+00 2759 
3.07111303710938e+03 5.45347900390625e+02 4.94860076904297e+00 2760 
7.20280380249023e+01 2.35493530273438e+03 6.76827478408813e+00 2761 
2.36901806640625e+03 2.18378387451172e+02 1.81998596191406e+01 2762 
1.98486938476562e+03 2.37462280273438e+03 1.51843681335449e+01 2763 
1.67559228515625e+03 2.28196142578125e+03 1.50489158630371e+01 2764 
2.24781127929688e+03 2.36328149414062e+03 7.07594633102417e+00 2765 
2.87527050781250e+03 4.20797546386719e+02 4.48929738998413e+00 2766 
2.23804125976562e+03 1.11618005371094e+03 8.81610393524170e+00 2767 
1.82854394531250e+03 1.04853112792969e+03 4.00695896148682e+00 2768 
3.81641601562500e+03 8.43851135253906e+02 5.83984756469727e+00 2769 
3.03089324951172e+02 3.32836517333984e+02 3.77104449272156e+00 2770 
2.17381274414062e+03 7.86147033691406e+02 2.39972896575928e+01 2771 
2.86494287109375e+03 8.13800354003906e+02 1.01272878646851e+01 2772 
1.49838256835938e+03 2.48714062500000e+03 7.18829202651978e+00 2773 
3.79064453125000e+03 8.50442199707031e+02 9.78454971313477e+00 2774 
1.24720654296875e+03 2.76587829589844e+02 5.92984342575073e+00 2775 
1.65417724609375e+03 2.21509658813477e+02 6.56319141387939e+00 2776 
2.89906933593750e+03 1.59461511230469e+03 2.36360645294189e+01 2777 
2.59588012695312e+03 2.01912634277344e+03 9.78784370422363e+00 2778 
2.77966967773438e+03 8.40131530761719e+02 1.46612825393677e+01 2779 
6.19891052246094e+02 3.43968048095703e+02 3.60261774063110e+00 2780 
2.15982006835938e+03 2.36018408203125e+03 7.89677429199219e+00 2781 
2.52017041015625e+03 1.04304040527344e+03 4.17390537261963e+00 2782 
3.54800463867188e+03 7.06212341308594e+02 3.90058946609497e+00 2783 
2.31905810546875e+03 1.79410009765625e+03 5.06347751617432e+00 2784 
2.10038500976562e+03 2.32647412109375e+03 4.19749355316162e+00 2785 
2.34079394531250e+03 8.09472473144531e+02 6.77021455764771e+00 2786 
2.55387500000000e+03 1.04755346679688e+03 8.43642234802246e+00 2787 
3.09451123046875e+03 2.12702709960938e+03 6.49951648712158e+00 2788 
1.27402844238281e+03 2.10923730468750e+03 6.84246158599854e+00 2789 
3.37048583984375e+02 6.06872558593750e+02 4.69645166397095e+00 2790 
3.04083300781250e+03 7.72785583496094e+02 1.20053224563599e+01 2791 
1.01978887939453e+03 1.31466992187500e+03 2.09927425384521e+01 2792 
1.38968969726562e+03 2.43289208984375e+03 8.35394859313965e+00 2793 
1.62838842773438e+03 1.16214636230469e+03 7.60116910934448e+00 2794 
1.15983508300781e+03 4.20938873291016e+02 8.44704818725586e+00 2795 
1.48692150878906e+03 8.79366210937500e+02 6.37992429733276e+00 2796 
2.27578442382812e+03 1.84521520996094e+03 1.23198270797729e+01 2797 
1.22430981445312e+03 1.41100476074219e+03 2.25629673004150e+01 2798 
1.13300610351562e+03 1.32004223632812e+03 1.61969451904297e+01 2799 
1.28552478027344e+03 1.24601489257812e+03 1.65360260009766e+01 2800 
9.02747253417969e+02 2.81154876708984e+02 1.53152923583984e+01 2801 
3.49934228515625e+03 6.84870300292969e+02 3.79012036323547e+00 2802 
1.21938183593750e+03 1.02731384277344e+03 1.23310480117798e+01 2803 
1.93725109863281e+03 1.05013916015625e+03 6.79774332046509e+00 2804 
2.39510571289062e+03 6.52817382812500e+01 4.08880233764648e+00 2805 
3.40896533203125e+03 5.02232818603516e+02 3.77713060379028e+00 2806 
2.64511840820312e+03 1.26238256835938e+03 1.09640893936157e+01 2807 
4.91841094970703e+02 2.20733178710938e+03 8.97531604766846e+00 2808 
1.51589355468750e+03 5.14174316406250e+02 1.13356456756592e+01 2809 
1.10754309082031e+03 1.48583129882812e+03 1.31487741470337e+01 2810 
2.08881835937500e+02 6.06796630859375e+02 1.89379291534424e+01 2811 
1.96149804687500e+03 5.29197387695312e+02 1.78094291687012e+01 2812 
1.17915270996094e+03 1.17157434082031e+03 5.61269760131836e+00 2813 
2.22323959350586e+02 1.98116735839844e+03 4.50413274765015e+00 2814 
3.49637451171875e+02 5.51940185546875e+02 5.84001779556274e+00 2815 
4.09705017089844e+02 6.31982116699219e+02 4.56029891967773e+00 2816 
1.22327307128906e+03 5.98943664550781e+02 4.86575174331665e+00 2817 
3.21839111328125e+02 2.51337280273438e+03 5.41995859146118e+00 2818 
1.45306018066406e+03 1.13308874511719e+03 5.45729255676270e+00 2819 
3.34902197265625e+03 2.36390991210938e+03 5.68449115753174e+00 2820 
1.83814331054688e+03 2.31007983398438e+03 3.56160807609558e+00 2821 
3.11110473632812e+03 9.70632934570312e+02 8.66240119934082e+00 2822 
9.38120483398438e+02 8.04830017089844e+02 6.04884490966797e+01 2823 
2.53763378906250e+03 3.35902282714844e+02 5.47222709655762e+00 2824 
3.18712524414062e+03 2.03658886718750e+03 4.72397470474243e+00 2825 
