ply
format ascii 1.0
element vertex 636
property double x
property double y
property double size
property short id
end_header
1.32756213378906e+03 2.53405334472656e+02 1.98576984405518e+01 21 
2.73254370117188e+03 5.38000427246094e+02 1.30921525955200e+01 28 
1.32690917968750e+03 4.35744689941406e+02 3.39742736816406e+01 69 
1.32503051757812e+03 1.99659927368164e+02 1.72615165710449e+01 104 
2.44966113281250e+03 6.39680541992188e+02 8.80524444580078e+00 115 
1.36760729980469e+03 3.02275604248047e+02 2.47758731842041e+01 121 
1.60861047363281e+03 2.42700170898438e+03 5.08803176879883e+00 137 
2.34629980468750e+03 1.14660827636719e+03 1.12717027664185e+01 144 
1.49792932128906e+03 1.17254602050781e+03 1.28161678314209e+01 146 
2.61347314453125e+03 1.69280303955078e+02 1.07094306945801e+01 160 
2.47071655273438e+03 1.04121276855469e+02 7.12675619125366e+00 164 
8.24768737792969e+02 1.30657373046875e+03 5.29889488220215e+00 169 
9.76379211425781e+02 9.13616455078125e+02 2.04334506988525e+01 170 
1.86967053222656e+03 2.27783886718750e+03 5.62748050689697e+00 171 
5.96166809082031e+02 1.37411682128906e+03 5.85962343215942e+00 172 
1.46811645507812e+03 2.09323559570312e+03 9.73221397399902e+00 173 
6.36084045410156e+02 1.81626757812500e+03 4.79017448425293e+00 174 
2.82867944335938e+03 1.18050201416016e+02 3.73061084747314e+00 175 
2.97350732421875e+03 1.58563308715820e+02 3.96276497840881e+00 176 
1.72959826660156e+03 9.29430664062500e+02 1.56386432647705e+01 177 
1.89533142089844e+03 2.55849426269531e+02 1.28965377807617e+01 178 
9.56186523437500e+02 1.04814660644531e+03 9.10869121551514e+00 197 
3.07974218750000e+03 2.24075012207031e+02 1.16413259506226e+01 474 
1.36718933105469e+03 5.97119323730469e+02 8.07093048095703e+00 479 
2.41201879882812e+03 9.83732543945312e+02 6.72169780731201e+00 485 
6.13765930175781e+02 1.57828002929688e+03 9.30996131896973e+00 523 
1.75745300292969e+03 1.18099084472656e+03 9.81252670288086e+00 527 
4.65605010986328e+02 9.84621658325195e+01 7.50176477432251e+00 535 
2.83938500976562e+03 1.60209826660156e+03 1.21286840438843e+01 536 
2.41640502929688e+03 9.20742736816406e+02 1.55730009078979e+01 537 
2.34997656250000e+03 1.06019433593750e+03 1.72307853698730e+01 538 
2.53668896484375e+03 6.41416381835938e+02 8.89143753051758e+00 539 
2.79627783203125e+03 1.18806506347656e+03 4.84209251403809e+00 540 
3.03572680664062e+03 2.60539855957031e+02 5.10298395156860e+00 541 
1.33177209472656e+03 1.77405310058594e+03 1.11653747558594e+01 542 
1.88163061523438e+03 1.58555676269531e+03 1.00122671127319e+01 543 
1.34162573242188e+03 6.32693054199219e+02 1.69942817687988e+01 544 
2.22945898437500e+03 2.05582128906250e+03 6.14133453369141e+00 545 
1.69929980468750e+03 1.11234118652344e+03 5.03121604919434e+01 546 
1.60441235351562e+03 6.57070434570312e+02 1.04697122573853e+01 547 
1.64211914062500e+03 1.10940539550781e+03 5.52563190460205e+00 548 
2.43023217773438e+03 1.32157275390625e+03 5.41854429244995e+00 549 
3.16530468750000e+03 7.45615966796875e+02 5.96606254577637e+00 560 
6.48496887207031e+02 2.87647125244141e+02 4.69012594223022e+00 567 
6.30971862792969e+02 5.15755371093750e+02 5.12940454483032e+00 572 
3.19953466796875e+03 1.54002038574219e+03 7.47835159301758e+00 721 
2.71722167968750e+03 1.98871289062500e+03 1.34780416488647e+01 797 
2.76561181640625e+03 2.02956286621094e+03 1.32041444778442e+01 798 
2.56820971679688e+03 2.48290234375000e+03 4.84498023986816e+00 872 
6.34926208496094e+02 5.82586608886719e+02 8.63306713104248e+00 901 
2.64808764648438e+03 2.48513330078125e+03 5.54515600204468e+00 902 
2.56271972656250e+03 7.96157379150391e+01 3.85389780998230e+00 930 
1.86766137695312e+03 1.12038073730469e+03 4.06794166564941e+00 958 
1.02008648681641e+03 1.47338232421875e+03 9.25899791717529e+00 998 
2.87848693847656e+02 1.66539282226562e+03 4.47088336944580e+00 1111 
2.73482714843750e+03 2.28220922851562e+03 5.23315286636353e+00 1112 
1.95858178710938e+03 1.68036706542969e+03 1.38358201980591e+01 1113 
2.65757568359375e+03 1.76407629394531e+03 1.40122709274292e+01 1114 
2.86062548828125e+03 2.33002612304688e+03 8.98461055755615e+00 1115 
1.25839086914062e+03 8.28770812988281e+02 8.61598682403564e+00 1116 
2.20058618164062e+03 9.67467163085938e+02 9.22259426116943e+00 1117 
2.72199487304688e+03 1.64126184082031e+03 6.78533506393433e+00 1118 
6.57490600585938e+02 1.68942901611328e+02 6.28926992416382e+00 1119 
2.63960205078125e+03 1.32328808593750e+03 8.49776649475098e+00 1120 
1.35727807617188e+03 1.72140466308594e+03 4.70749902725220e+00 1121 
2.93989794921875e+03 2.29319848632812e+03 1.50213994979858e+01 1595 
2.81811230468750e+03 2.54759570312500e+03 4.50035095214844e+00 1658 
2.80140722656250e+03 7.71367675781250e+02 1.14819307327271e+01 1661 
2.86165478515625e+03 1.12925744628906e+03 4.99048757553101e+00 1675 
2.80490307617188e+03 2.08710107421875e+03 1.45351686477661e+01 1696 
2.30010253906250e+03 1.65138305664062e+03 7.56438922882080e+00 1697 
2.19739331054688e+03 2.32490332031250e+03 6.59891319274902e+00 1698 
2.75981420898438e+03 1.30466931152344e+03 1.28336267471313e+01 1699 
1.26088940429688e+03 7.82890258789062e+02 7.07167196273804e+00 1700 
1.81435375976562e+03 7.29504638671875e+02 5.48222923278809e+01 1701 
3.16545532226562e+03 7.90448852539062e+02 5.53400039672852e+00 1702 
2.49482373046875e+03 2.49976171875000e+03 4.27929544448853e+00 1703 
9.31402893066406e+02 5.07350860595703e+02 1.27528905868530e+01 1722 
1.32655859375000e+03 2.25553271484375e+03 2.12900238037109e+01 1777 
2.42740307617188e+03 1.25750769042969e+03 1.90175170898438e+01 1807 
1.31860449218750e+03 2.14553588867188e+03 2.49964046478271e+01 1814 
2.86856127929688e+03 5.70645874023438e+02 1.26462173461914e+01 1816 
1.40157714843750e+03 2.16995068359375e+03 2.55411472320557e+01 1818 
1.79427429199219e+03 1.06926611328125e+03 4.76898813247681e+00 1829 
2.73580371093750e+03 5.88265747070312e+02 6.69875097274780e+00 1832 
2.77681469726562e+03 5.82350158691406e+02 6.24047613143921e+00 1836 
2.76168017578125e+03 5.45192077636719e+02 9.79265785217285e+00 1850 
2.62764233398438e+03 9.12799865722656e+02 5.13260984420776e+00 1905 
7.83701599121094e+02 1.02258593750000e+03 2.25773048400879e+01 1908 
1.13235070800781e+03 2.33034863281250e+03 1.33610191345215e+01 1909 
1.58953259277344e+03 2.21635644531250e+03 2.03777294158936e+01 1910 
2.19021997070312e+03 1.62935290527344e+03 6.36949729919434e+00 1911 
1.27786889648438e+03 1.12294372558594e+03 4.17227458953857e+00 1912 
6.60831909179688e+02 8.20299148559570e+01 5.56842470169067e+00 1913 
2.82626098632812e+03 5.58979736328125e+02 1.70748004913330e+01 1914 
1.81168188476562e+03 9.54492431640625e+02 1.19195137023926e+01 1915 
2.85218701171875e+03 2.51890795898438e+03 7.24571847915649e+00 1916 
2.69828369140625e+03 7.70176635742188e+02 4.58663177490234e+00 1917 
1.22352844238281e+03 2.30402441406250e+03 9.86101913452148e+00 2031 
2.38307952880859e+02 2.18186010742188e+03 1.51663341522217e+01 2267 
2.82242797851562e+03 2.46434790039062e+03 4.62796640396118e+00 2323 
2.67000317382812e+03 5.01096282958984e+02 6.48873710632324e+00 2333 
2.78568457031250e+03 5.34741516113281e+02 1.13440589904785e+01 2339 
2.53887695312500e+03 1.12979443359375e+03 8.61711502075195e+00 2340 
1.49821020507812e+03 1.08645629882812e+03 1.07487049102783e+01 2341 
1.58243835449219e+03 8.32424377441406e+02 2.01823616027832e+01 2342 
1.58478393554688e+03 5.63584716796875e+02 1.96904392242432e+01 2343 
2.65190258789062e+03 9.51996276855469e+02 3.95639181137085e+00 2344 
2.46120288085938e+03 8.60329223632812e+02 8.60260295867920e+00 2345 
2.66250634765625e+03 7.26501525878906e+02 3.43603897094727e+01 2346 
2.92145166015625e+03 2.31121673583984e+02 1.10100774765015e+01 2347 
6.60929260253906e+02 2.85591827392578e+02 4.84472846984863e+00 2348 
2.96370605468750e+02 8.94731689453125e+02 6.35847234725952e+00 2349 
1.58100036621094e+03 3.04066284179688e+02 1.91846103668213e+01 2367 
1.27981347656250e+03 2.91160491943359e+02 2.66324634552002e+01 2382 
2.49210815429688e+03 2.01545739746094e+03 8.05895996093750e+00 2468 
3.02141601562500e+03 8.80497009277344e+02 4.25205326080322e+00 2530 
3.03188623046875e+03 1.12225988769531e+03 4.06636428833008e+00 2533 
3.03579956054688e+03 1.26621545410156e+03 4.37705564498901e+00 2534 
3.03227416992188e+03 1.23160949707031e+03 4.59719610214233e+00 2548 
3.05603784179688e+03 1.95169189453125e+03 4.53395462036133e+00 2553 
2.71166503906250e+03 5.02937622070312e+02 1.27563724517822e+01 2609 
3.85590454101562e+02 1.51563745117188e+03 6.91283130645752e+00 2613 
3.01408154296875e+03 4.68168518066406e+02 5.92420005798340e+00 2643 
3.03236474609375e+03 9.51396301269531e+02 6.39784288406372e+00 2652 
3.03186547851562e+03 8.74197814941406e+02 4.91095542907715e+00 2664 
3.01887792968750e+03 1.02102819824219e+03 1.57502508163452e+01 2682 
2.76943896484375e+03 1.98665991210938e+03 1.60163307189941e+01 2683 
4.30981872558594e+02 1.53891809082031e+03 1.27942953109741e+01 2727 
3.05611669921875e+03 1.91749023437500e+03 4.45340251922607e+00 2728 
3.01639501953125e+03 8.11033447265625e+02 3.61846137046814e+00 2729 
3.02872290039062e+03 1.05756872558594e+03 4.14381313323975e+00 2730 
3.04699389648438e+03 1.67132800292969e+03 3.66056180000305e+00 2731 
3.01384863281250e+03 7.08753112792969e+02 4.26036310195923e+00 2732 
3.04837695312500e+03 1.69493530273438e+03 4.32072305679321e+00 2733 
3.02623046875000e+03 1.08319836425781e+03 3.85876178741455e+00 2734 
3.95433135986328e+02 1.47540869140625e+03 4.90042829513550e+00 2735 
2.96423193359375e+03 1.59190136718750e+03 8.68298149108887e+00 2736 
2.73828686523438e+03 2.44465673828125e+03 3.66878056526184e+00 2737 
5.88526489257812e+02 1.54282556152344e+03 4.06390810012817e+00 2738 
4.36376007080078e+02 4.52342651367188e+02 5.77468109130859e+00 2739 
3.38638037109375e+03 1.86185278320312e+03 8.01575946807861e+00 2740 
3.96351409912109e+02 1.62877404785156e+03 9.24965000152588e+00 2741 
3.02735400390625e+03 7.96779541015625e+02 6.59500026702881e+00 2742 
6.35963989257812e+02 1.03871423339844e+03 6.31502342224121e+00 2743 
5.90417419433594e+02 1.30397692871094e+03 4.22114419937134e+00 2744 
2.16077783203125e+03 2.31189916992188e+03 7.24936532974243e+00 2745 
3.04434863281250e+03 1.57969543457031e+03 3.92912364006042e+00 2750 
3.04487377929688e+03 1.59918640136719e+03 4.54522895812988e+00 2751 
3.04119628906250e+03 1.43393298339844e+03 4.41498517990112e+00 2755 
3.04270800781250e+03 1.55713317871094e+03 4.38867235183716e+00 2756 
3.00833105468750e+03 9.53854003906250e+02 1.93194904327393e+01 2762 
3.04866137695312e+03 1.34957531738281e+03 4.49013090133667e+00 2766 
2.23943627929688e+03 1.80907653808594e+03 4.77210044860840e+00 2768 
2.22443554687500e+03 1.76777124023438e+03 1.25607051849365e+01 2809 
2.78379052734375e+03 2.10248364257812e+03 6.83616209030151e+00 2838 
3.72716186523438e+02 1.44366320800781e+03 9.04472351074219e+00 2840 
1.80460281372070e+02 2.44900097656250e+03 6.97232866287231e+00 2841 
3.82102294921875e+02 2.38207055664062e+03 6.24300003051758e+00 2842 
4.05558105468750e+02 2.16491235351562e+03 4.50631427764893e+00 2843 
3.25700286865234e+02 2.40606738281250e+03 4.60937643051147e+00 2844 
3.80325042724609e+02 2.34039257812500e+03 4.95359086990356e+00 2845 
3.92269042968750e+02 2.13788378906250e+03 7.22400140762329e+00 2846 
3.98205841064453e+02 1.60677587890625e+03 6.41960573196411e+00 2847 
5.29809387207031e+02 1.66173193359375e+03 5.04927539825439e+00 2848 
3.84635101318359e+02 2.17802661132812e+03 5.63228225708008e+00 2849 
6.09938659667969e+02 1.96619152832031e+03 5.11473417282104e+00 2850 
3.86162994384766e+02 1.65567602539062e+03 7.01123285293579e+00 2851 
3.47222015380859e+02 1.80825512695312e+03 5.41042709350586e+00 2852 
3.44650573730469e+02 2.09139770507812e+03 4.78039646148682e+00 2853 
3.17878265380859e+02 2.44752026367188e+03 4.18330430984497e+00 2854 
6.96342224121094e+02 1.15211267089844e+03 6.19561243057251e+00 2855 
1.95796127319336e+02 2.38316137695312e+03 9.08572387695312e+00 2856 
2.20716918945312e+02 2.46138867187500e+03 8.12634372711182e+00 2857 
2.18624099731445e+02 2.29959667968750e+03 8.93498039245605e+00 2858 
6.53971435546875e+02 1.02409033203125e+03 1.31596498489380e+01 2859 
1.04790695190430e+02 2.30579589843750e+03 1.03663597106934e+01 2860 
6.47992187500000e+02 1.47143823242188e+03 1.31939849853516e+01 2861 
5.74028381347656e+02 2.02207983398438e+03 1.28546972274780e+01 2862 
2.53355981445312e+03 1.88881164550781e+03 1.58218765258789e+01 2863 
4.46935485839844e+02 4.72688262939453e+02 1.77837581634521e+01 2864 
7.39706848144531e+02 6.89623657226562e+02 1.08596525192261e+01 2865 
4.08766265869141e+02 1.91859179687500e+03 3.11038608551025e+01 2867 
3.61516967773438e+02 1.74172924804688e+03 6.95930385589600e+00 2868 
6.14224548339844e+02 1.48892065429688e+03 5.06154441833496e+00 2869 
3.41653991699219e+02 1.94507263183594e+03 5.03493309020996e+00 2870 
5.98333129882812e+02 1.89880358886719e+03 5.99653053283691e+00 2871 
3.01588818359375e+03 3.28605651855469e+02 5.27603673934937e+00 2872 
3.61082061767578e+02 2.42548217773438e+03 8.03247737884521e+00 2873 
5.77223327636719e+02 1.20012231445312e+03 4.91660070419312e+00 2874 
3.93472106933594e+02 1.88251916503906e+03 6.08157920837402e+00 2875 
3.01965161132812e+03 8.58540588378906e+02 4.64428806304932e+00 2876 
1.34527404785156e+02 2.38063769531250e+03 6.52764654159546e+00 2877 
3.48049865722656e+02 2.45269580078125e+03 7.01238727569580e+00 2878 
7.49696197509766e+01 2.39566040039062e+03 5.31611299514771e+00 2879 
3.87740875244141e+02 2.06629541015625e+03 5.70890331268311e+00 2880 
3.02406420898438e+03 9.36088867187500e+02 4.31164169311523e+00 2881 
1.31851928710938e+03 1.56498376464844e+03 1.14868497848511e+01 2882 
2.57535229492188e+03 5.05533691406250e+02 1.43400058746338e+01 2883 
2.92278533935547e+02 2.43734472656250e+03 1.06002492904663e+01 2884 
3.67123291015625e+02 4.59162414550781e+02 4.56466245651245e+00 2885 
3.60398590087891e+02 2.22603686523438e+03 1.21584415435791e+01 2886 
2.12555755615234e+02 2.20954858398438e+03 9.47299671173096e+00 2887 
3.66436523437500e+02 2.04150195312500e+03 1.05908031463623e+01 2888 
2.50161840820312e+03 1.62156225585938e+03 6.74667644500732e+00 2889 
2.47188183593750e+03 1.80946594238281e+03 5.05227947235107e+00 2890 
6.36273742675781e+02 1.02133081054688e+03 4.87470102310181e+00 2891 
3.73804077148438e+02 1.83109387207031e+03 6.02761697769165e+00 2892 
3.73524505615234e+02 2.46029321289062e+03 4.32982921600342e+00 2893 
3.00875952148438e+03 6.36451660156250e+02 4.23215341567993e+00 2894 
2.44351730346680e+02 2.43050756835938e+03 6.08082914352417e+00 2895 
1.99817687988281e+03 3.50421752929688e+02 4.28257369995117e+00 2896 
2.93415307617188e+03 1.19381665039062e+03 6.34687900543213e+00 2897 
3.03379638671875e+03 1.28878088378906e+03 3.85062670707703e+00 2898 
1.95084701538086e+02 2.31300170898438e+03 5.86301231384277e+00 2899 
3.75851104736328e+02 2.23117651367188e+03 5.82485675811768e+00 2900 
3.29543457031250e+02 2.38210131835938e+03 5.77775430679321e+00 2901 
6.14049560546875e+02 2.31783520507812e+03 6.01824951171875e+00 2902 
3.00596069335938e+03 5.20513183593750e+02 4.87431478500366e+00 2903 
6.16546363830566e+01 2.38521386718750e+03 6.54286050796509e+00 2904 
2.13506668090820e+02 2.18804589843750e+03 6.03044891357422e+00 2905 
1.60127090454102e+02 2.47226245117188e+03 6.52586221694946e+00 2906 
6.27679504394531e+02 1.16592724609375e+03 4.90356016159058e+00 2907 
4.13480102539062e+02 1.88093432617188e+03 5.81830644607544e+00 2908 
1.09523086547852e+02 2.40767016601562e+03 5.79872560501099e+00 2909 
2.67571289062500e+02 2.48928637695312e+03 4.38761425018311e+00 2910 
3.00174877929688e+03 7.12864440917969e+02 4.73114395141602e+00 2911 
3.52789581298828e+02 2.02552331542969e+03 6.40856742858887e+00 2912 
3.88936035156250e+02 2.31233886718750e+03 6.69310188293457e+00 2913 
4.01930480957031e+02 1.77650622558594e+03 6.09426641464233e+00 2914 
5.88079040527344e+02 1.78345825195312e+03 4.75045871734619e+00 2915 
1.74886611938477e+02 2.46340625000000e+03 5.08158397674561e+00 2916 
6.36703735351562e+02 1.83779833984375e+03 4.67648935317993e+00 2917 
3.02365112304688e+03 7.23791320800781e+02 6.08421182632446e+00 2918 
2.55839697265625e+03 1.65563513183594e+03 6.86693143844604e+00 2919 
1.28119348144531e+03 1.55526321411133e+02 9.61815738677979e+00 2920 
3.00430712890625e+03 3.10343139648438e+02 8.68961238861084e+00 2921 
3.88238403320312e+02 1.48623999023438e+03 5.43205833435059e+00 2922 
3.63463165283203e+02 1.77544531250000e+03 6.21473360061646e+00 2923 
1.28081909179688e+02 2.33682812500000e+03 4.76748561859131e+00 2924 
4.15851928710938e+02 2.09363378906250e+03 5.67449378967285e+00 2925 
3.32565948486328e+02 2.39597021484375e+03 4.56267547607422e+00 2926 
6.37961181640625e+02 2.49025878906250e+03 4.67204666137695e+00 2927 
1.79956314086914e+02 2.39923266601562e+03 7.35733699798584e+00 2928 
2.34500778198242e+02 2.04643090820312e+03 9.88055038452148e+00 2929 
2.52435272216797e+02 2.46047973632812e+03 1.05425367355347e+01 2930 
6.41020690917969e+02 3.44128356933594e+02 7.40298557281494e+00 2931 
6.25075561523438e+02 2.16408056640625e+03 8.41158962249756e+00 2932 
3.07510400390625e+03 2.75284454345703e+02 2.78036861419678e+01 2933 
1.18073925781250e+03 1.37244274902344e+03 6.03151588439941e+01 2934 
1.31963513183594e+03 1.81681005859375e+03 6.22351684570312e+01 2935 
1.45192858886719e+03 1.66638122558594e+03 5.62432632446289e+01 2936 
5.91630920410156e+02 1.20072814941406e+03 6.54917049407959e+00 2937 
1.30937805175781e+02 2.39605371093750e+03 5.87299966812134e+00 2938 
4.09927551269531e+02 2.12012597656250e+03 6.12814807891846e+00 2939 
3.04034204101562e+03 1.14020617675781e+03 6.49186229705811e+00 2940 
5.85479919433594e+02 1.47277172851562e+03 4.57091236114502e+00 2941 
2.76841918945312e+02 2.40031494140625e+03 5.75412034988403e+00 2942 
4.02815795898438e+02 1.86575073242188e+03 8.47521781921387e+00 2943 
1.98987411499023e+02 2.51251123046875e+03 7.76665735244751e+00 2944 
3.61194152832031e+02 2.38207299804688e+03 7.33452510833740e+00 2945 
3.03985009765625e+03 1.17988769531250e+03 7.50231790542603e+00 2946 
6.35391418457031e+02 1.71544580078125e+03 5.42684698104858e+00 2947 
1.93992691040039e+02 2.47586572265625e+03 5.48972797393799e+00 2948 
3.03046264648438e+03 1.55095727539062e+03 5.22328472137451e+00 2949 
3.02046801757812e+03 1.20540747070312e+03 6.06184530258179e+00 2950 
2.90365283203125e+03 1.10440808105469e+03 8.91183567047119e+00 2951 
2.98064794921875e+03 1.63693823242188e+03 7.44807243347168e+00 2952 
2.17787399291992e+02 2.23509594726562e+03 8.45810508728027e+00 2953 
2.39125625610352e+02 2.32375488281250e+03 9.58023548126221e+00 2954 
3.67487274169922e+02 1.71043017578125e+03 9.76978302001953e+00 2955 
6.03552246093750e+02 2.03597485351562e+03 8.63246345520020e+00 2956 
3.97017913818359e+02 2.04523632812500e+03 9.23517417907715e+00 2957 
1.49193313598633e+02 2.30658276367188e+03 7.05315160751343e+00 2958 
1.63451339721680e+02 2.49471142578125e+03 6.13596820831299e+00 2959 
2.00800048828125e+02 2.45177490234375e+03 6.45648765563965e+00 2960 
2.80890014648438e+02 2.54093261718750e+03 4.60794830322266e+00 2961 
3.00604614257812e+03 8.25431701660156e+02 6.17240190505981e+00 2962 
4.04613372802734e+02 1.73102050781250e+03 7.58695793151855e+00 2963 
1.76438247680664e+02 2.35855419921875e+03 6.85287570953369e+00 2964 
1.90971572875977e+02 2.33791259765625e+03 6.35289239883423e+00 2965 
3.04014794921875e+03 1.11316333007812e+03 4.58315515518188e+00 2966 
3.92180023193359e+02 1.36191967773438e+03 8.04457283020020e+00 2967 
6.12376037597656e+02 1.94819128417969e+03 6.20842933654785e+00 2968 
6.24398864746094e+02 2.30461718750000e+03 6.49599647521973e+00 2969 
5.35874145507812e+02 2.38941894531250e+03 5.37617397308350e+00 2970 
3.92481170654297e+02 2.16008105468750e+03 5.70310020446777e+00 2971 
4.06676666259766e+02 2.14329443359375e+03 4.96710157394409e+00 2972 
3.36554907226562e+03 4.24556701660156e+02 5.16542291641235e+00 2973 
3.69591339111328e+02 1.52139538574219e+03 5.32354736328125e+00 2974 
6.29867858886719e+02 1.99589074707031e+03 5.43012905120850e+00 2976 
3.86848968505859e+02 1.80828979492188e+03 7.50295972824097e+00 2983 
3.16684301757812e+03 7.22631042480469e+02 5.03879165649414e+00 2993 
3.02168969726562e+03 9.18189147949219e+02 3.91066884994507e+00 3005 
3.18504101562500e+03 1.45526855468750e+03 3.88993906974792e+00 3009 
2.80350708007812e+03 1.50565689086914e+02 4.87120199203491e+00 3070 
2.69822607421875e+03 1.39124114990234e+02 4.11837291717529e+00 3071 
2.55092333984375e+03 7.95182342529297e+01 3.82882142066956e+00 3072 
2.52389770507812e+03 9.65133972167969e+01 3.78487014770508e+00 3073 
2.73772045898438e+03 3.95096740722656e+01 3.61898207664490e+00 3074 
2.62865209960938e+03 5.39314086914062e+02 9.44013500213623e+00 3075 
2.74097338867188e+03 9.56279296875000e+02 1.39782609939575e+01 3076 
2.73475659179688e+03 6.16012939453125e+02 1.64449539184570e+01 3077 
2.78693969726562e+03 5.59019104003906e+02 1.30359249114990e+01 3078 
2.48928198242188e+03 4.51208465576172e+02 1.28009471893311e+01 3079 
2.68765991210938e+03 4.74151947021484e+02 1.67264194488525e+01 3080 
2.59642944335938e+03 1.38156225585938e+03 1.47467298507690e+01 3081 
2.23808569335938e+03 1.14020935058594e+03 1.68389453887939e+01 3082 
2.11943823242188e+03 1.24811413574219e+03 2.88973865509033e+01 3083 
1.32802343750000e+03 3.54546203613281e+02 2.43533287048340e+01 3084 
2.31546069335938e+03 5.56328918457031e+02 2.91809368133545e+01 3085 
2.11900073242188e+03 1.23339111328125e+03 2.49913997650146e+01 3086 
2.58851147460938e+03 2.48240942382812e+03 4.51545286178589e+00 3087 
2.35458447265625e+03 6.71231231689453e+01 3.71756744384766e+00 3088 
2.43943237304688e+03 3.00384552001953e+02 5.34267473220825e+00 3089 
2.70118579101562e+03 2.46036083984375e+03 5.08121776580811e+00 3090 
2.34108007812500e+03 2.51005541992188e+03 5.03228282928467e+00 3091 
2.76205175781250e+03 4.82496795654297e+01 5.37959957122803e+00 3092 
2.21396118164062e+03 1.05749560546875e+03 7.26389074325562e+00 3093 
2.75775683593750e+03 2.46386059570312e+03 4.96516323089600e+00 3094 
2.75015698242188e+03 4.41781959533691e+01 4.72500848770142e+00 3095 
1.84619274902344e+03 3.02417358398438e+02 3.97477865219116e+00 3096 
2.65968872070312e+03 2.50648974609375e+03 4.71746444702148e+00 3097 
2.81744677734375e+03 1.90282989501953e+02 4.34772491455078e+00 3098 
2.74095581054688e+03 2.05622665405273e+02 1.04356803894043e+01 3099 
2.65550268554688e+03 1.24432090759277e+02 6.15787172317505e+00 3100 
2.63324536132812e+03 2.49165625000000e+03 7.27759170532227e+00 3101 
2.69759521484375e+03 2.51275219726562e+03 3.78604698181152e+00 3102 
2.68528271484375e+03 1.08341804504395e+02 3.71183419227600e+00 3103 
2.61988378906250e+03 2.51250976562500e+03 3.71660017967224e+00 3104 
2.74917407226562e+03 1.60031250000000e+02 5.03303718566895e+00 3105 
2.55086596679688e+03 1.20183471679688e+02 5.04760217666626e+00 3106 
2.47322412109375e+03 4.89608688354492e+01 5.37245130538940e+00 3107 
2.87106420898438e+03 2.41726171875000e+03 3.85906744003296e+00 3108 
2.85741992187500e+03 1.37917739868164e+02 5.15193891525269e+00 3109 
2.64789453125000e+03 7.25086898803711e+01 6.29312276840210e+00 3110 
2.77447241210938e+03 1.66745437622070e+02 4.19608974456787e+00 3111 
2.51108935546875e+03 1.11662345886230e+02 4.82849645614624e+00 3112 
2.77187060546875e+03 2.46245312500000e+03 4.16739463806152e+00 3113 
2.73651025390625e+03 1.63556259155273e+02 4.78027772903442e+00 3114 
2.54001293945312e+03 2.48293823242188e+03 3.95001435279846e+00 3115 
2.84712988281250e+03 2.17938369750977e+02 5.96018314361572e+00 3116 
2.80625683593750e+03 2.04385940551758e+02 7.29073333740234e+00 3117 
2.32929296875000e+03 1.59502624511719e+03 6.14374971389771e+00 3118 
1.41784680175781e+03 2.24261642456055e+02 8.67097854614258e+00 3119 
8.85216918945312e+02 7.80915283203125e+02 1.73942508697510e+01 3120 
2.75118945312500e+03 5.75762634277344e+02 1.57003536224365e+01 3121 
1.96144421386719e+03 1.01463964843750e+03 2.20526466369629e+01 3122 
1.34589831542969e+03 2.19755981445312e+03 2.11010379791260e+01 3123 
2.48581323242188e+03 4.89572723388672e+02 3.55684204101562e+01 3124 
2.14676025390625e+03 1.38551940917969e+03 4.12631607055664e+01 3125 
2.14580346679688e+03 1.63115466308594e+03 4.10218353271484e+01 3126 
2.13879174804688e+03 1.01219848632812e+03 6.79033126831055e+01 3127 
2.26993774414062e+03 1.25676684570312e+03 5.65167770385742e+01 3128 
2.02732360839844e+03 1.00458367919922e+03 5.40827751159668e+01 3129 
2.47826000976562e+03 4.57801849365234e+02 4.34542131423950e+00 3130 
2.76104028320312e+03 6.02584724426270e+01 4.29806423187256e+00 3131 
2.66856762695312e+03 9.23869705200195e+01 6.42227840423584e+00 3132 
2.74680615234375e+03 2.43512597656250e+03 4.72572803497314e+00 3133 
2.83646044921875e+03 1.78310192871094e+03 6.16473150253296e+00 3134 
2.62334204101562e+03 1.57446014404297e+02 4.46182775497437e+00 3135 
2.84610839843750e+03 2.44235937500000e+03 5.81373834609985e+00 3136 
2.76473803710938e+03 6.11446960449219e+02 7.73365497589111e+00 3137 
2.71518579101562e+03 1.09165405273438e+02 6.86914873123169e+00 3138 
2.71570654296875e+03 4.59797027587891e+02 7.83432531356812e+00 3139 
2.71248803710938e+03 1.50555175781250e+02 6.90196847915649e+00 3140 
2.70546972656250e+03 6.05060424804688e+02 6.62120389938354e+00 3141 
2.66072363281250e+03 1.39324127197266e+02 5.75361251831055e+00 3142 
2.56341748046875e+03 1.29073501586914e+02 7.99185132980347e+00 3143 
2.51020410156250e+03 4.70493988037109e+02 8.71824169158936e+00 3144 
2.75466308593750e+03 2.47682373046875e+03 4.31348323822021e+00 3145 
2.74508129882812e+03 1.90837142944336e+02 4.17532634735107e+00 3146 
2.81878149414062e+03 8.25249176025391e+01 5.13006448745728e+00 3147 
2.51419702148438e+03 1.00490936279297e+02 4.07080936431885e+00 3148 
2.53474560546875e+03 1.05614784240723e+02 5.90988922119141e+00 3149 
2.36751489257812e+03 2.53515795898438e+03 6.33591365814209e+00 3150 
2.70847998046875e+03 2.01256176757812e+03 6.08677196502686e+00 3151 
2.74384741210938e+03 1.21124778747559e+02 1.01651268005371e+01 3152 
1.37582031250000e+03 3.49232360839844e+02 9.60824584960938e+00 3153 
1.28085717773438e+03 3.36794647216797e+02 9.05457401275635e+00 3154 
1.23397998046875e+03 2.84675079345703e+02 9.33019828796387e+00 3155 
2.79962719726562e+03 1.36303253173828e+02 8.01541805267334e+00 3156 
2.78617895507812e+03 1.02650134277344e+03 3.86354637145996e+00 3157 
2.47776757812500e+03 7.76202697753906e+01 3.75260019302368e+00 3158 
2.41999633789062e+03 7.47823944091797e+01 4.05504798889160e+00 3159 
2.84892749023438e+03 2.47870629882812e+03 6.10725498199463e+00 3160 
2.70770825195312e+03 1.79834747314453e+02 4.52300024032593e+00 3161 
2.69065625000000e+03 2.52263061523438e+03 5.91335630416870e+00 3162 
2.86032641601562e+03 1.66632678222656e+03 5.75659942626953e+00 3163 
1.30737866210938e+03 5.79209350585938e+02 4.67788457870483e+00 3291 
3.76719329833984e+02 9.66375183105469e+02 5.87779664993286e+00 3366 
3.61309020996094e+02 1.07436267089844e+03 6.38312768936157e+00 3367 
6.30526489257812e+02 1.29238891601562e+03 6.31971931457520e+00 3368 
3.07102246093750e+03 1.72640771484375e+03 5.45843887329102e+00 3369 
3.95271850585938e+02 9.83757995605469e+02 6.12011337280273e+00 3370 
2.91405834960938e+03 2.00534020996094e+03 1.35061120986938e+01 3371 
3.73512084960938e+02 8.33362121582031e+02 7.71456527709961e+00 3372 
2.99058422851562e+03 1.99832556152344e+03 1.54307451248169e+01 3373 
2.75932031250000e+03 1.59679809570312e+03 1.42934494018555e+01 3374 
2.66391967773438e+03 2.35874462890625e+03 1.62489700317383e+01 3375 
1.24852136230469e+03 2.34268481445312e+03 2.65687103271484e+01 3376 
3.83545593261719e+02 1.46971875000000e+03 5.55832290649414e+00 3377 
3.00892065429688e+03 6.09984130859375e+02 4.73807430267334e+00 3378 
3.02418676757812e+03 9.69362792968750e+02 4.57793140411377e+00 3379 
3.00878295898438e+03 5.36854064941406e+02 3.51811528205872e+00 3380 
3.90522918701172e+02 7.93136901855469e+02 4.92477655410767e+00 3381 
3.90379547119141e+02 8.56047851562500e+02 3.81272888183594e+00 3382 
3.24621386718750e+03 1.04057556152344e+03 4.65476751327515e+00 3383 
5.98107543945312e+02 2.21803588867188e+03 4.56560277938843e+00 3384 
3.88624908447266e+02 7.56167419433594e+02 5.96281290054321e+00 3385 
3.78508300781250e+02 9.31944946289062e+02 7.67187643051147e+00 3386 
1.88745727539062e+03 1.15037658691406e+03 7.34568023681641e+00 3387 
1.87292016601562e+03 3.59791168212891e+02 5.36192321777344e+00 3388 
3.00837402343750e+03 5.55351257324219e+02 3.90994429588318e+00 3389 
3.25272412109375e+03 1.06154345703125e+03 5.28598737716675e+00 3390 
3.38946441650391e+02 1.18971252441406e+03 3.81732964515686e+00 3391 
4.04667938232422e+02 1.35100720214844e+03 3.68813133239746e+00 3392 
3.04341796875000e+03 1.51588391113281e+03 5.31751918792725e+00 3393 
3.51984924316406e+02 1.54462890625000e+03 5.10652446746826e+00 3394 
3.01477294921875e+03 7.42794616699219e+02 3.69444584846497e+00 3395 
2.77399243164062e+03 1.05727844238281e+03 5.22197818756104e+00 3396 
3.20625854492188e+03 1.05808129882812e+03 5.01107740402222e+00 3397 
3.26656372070312e+03 1.08737927246094e+03 4.47857475280762e+00 3398 
3.26555004882812e+03 1.60027416992188e+03 5.47725915908813e+00 3399 
6.22728332519531e+02 7.95518066406250e+02 6.31125688552856e+00 3400 
4.10062438964844e+02 9.20588867187500e+02 6.28152132034302e+00 3401 
3.90721679687500e+02 1.21877685546875e+03 5.72574567794800e+00 3402 
2.98219238281250e+03 1.58246569824219e+03 6.01200819015503e+00 3403 
3.23867456054688e+03 1.04938269042969e+03 5.06836557388306e+00 3404 
3.04401416015625e+03 1.27567407226562e+03 5.66177368164062e+00 3405 
3.59430114746094e+02 1.82212292480469e+03 5.18315792083740e+00 3406 
3.02955175781250e+03 8.37818786621094e+02 5.89714908599854e+00 3407 
2.48218432617188e+03 1.58785888671875e+03 5.95017385482788e+00 3408 
2.95993701171875e+03 7.92063476562500e+02 3.50420722961426e+01 3409 
3.02260351562500e+03 1.29542553710938e+03 5.24888086318970e+00 3410 
3.65943908691406e+02 1.45823205566406e+03 4.46121263504028e+00 3411 
6.14546875000000e+02 1.55576928710938e+03 4.72646808624268e+00 3412 
3.05490380859375e+03 1.58575805664062e+03 5.60067796707153e+00 3413 
2.98608251953125e+03 8.26542724609375e+02 6.25710773468018e+00 3414 
6.12481994628906e+02 8.73037048339844e+02 5.08228683471680e+00 3415 
6.31033691406250e+02 8.75402770996094e+02 4.19651985168457e+00 3416 
3.03862207031250e+03 1.06745324707031e+03 5.41748380661011e+00 3417 
3.31666528320312e+03 1.16168188476562e+03 4.23302745819092e+00 3418 
6.01553161621094e+02 1.67431933593750e+03 6.57507896423340e+00 3419 
3.65933807373047e+02 9.53194824218750e+02 5.06771564483643e+00 3420 
6.33553955078125e+02 1.39270190429688e+03 5.11995983123779e+00 3421 
3.97928405761719e+02 1.10151818847656e+03 5.90258312225342e+00 3422 
6.25493347167969e+02 1.39699255371094e+03 8.63774776458740e+00 3423 
6.41582153320312e+02 8.68534484863281e+02 7.91197681427002e+00 3424 
3.03020849609375e+03 3.90201843261719e+02 3.61987423896790e+00 3425 
3.03772192382812e+03 1.03021862792969e+03 4.59513616561890e+00 3426 
3.05034008789062e+03 1.44616137695312e+03 4.78226089477539e+00 3427 
3.78006774902344e+02 1.20669885253906e+03 6.52397966384888e+00 3428 
3.04373022460938e+03 1.23704455566406e+03 6.06927633285522e+00 3429 
3.24625976562500e+03 1.52271911621094e+03 6.96828746795654e+00 3430 
3.61344604492188e+02 1.92673010253906e+03 6.80405569076538e+00 3431 
3.03125292968750e+03 8.91901123046875e+02 5.58039569854736e+00 3432 
3.03199975585938e+03 9.24269958496094e+02 5.12086248397827e+00 3433 
3.05381372070312e+03 1.46747705078125e+03 3.98939657211304e+00 3434 
3.30536401367188e+03 1.27044287109375e+03 4.95114707946777e+00 3435 
6.41012268066406e+02 7.95946594238281e+02 4.35060310363770e+00 3436 
3.17064111328125e+03 8.61375549316406e+02 6.48190927505493e+00 3437 
3.01750244140625e+03 1.12191992187500e+03 6.02704286575317e+00 3438 
6.22717407226562e+02 2.44831909179688e+03 6.79446697235107e+00 3439 
3.02551489257812e+03 7.57842651367188e+02 5.28664302825928e+00 3440 
3.03586035156250e+03 9.77061035156250e+02 5.55287504196167e+00 3441 
3.76934082031250e+02 1.07465930175781e+03 4.85239934921265e+00 3442 
4.02368865966797e+02 1.13545251464844e+03 4.65252161026001e+00 3443 
4.25423309326172e+02 3.01614044189453e+02 6.04326868057251e+00 3444 
4.00919433593750e+02 6.54619262695312e+02 6.24150419235229e+00 3445 
3.67362426757812e+02 7.84760803222656e+02 6.47496271133423e+00 3446 
4.25824920654297e+02 5.25105407714844e+02 4.23717784881592e+00 3447 
4.08465942382812e+02 5.88022277832031e+02 4.93806934356689e+00 3448 
1.73440917968750e+02 6.46921630859375e+02 7.33885002136230e+00 3449 
7.42678680419922e+01 7.39936889648438e+02 7.18690633773804e+00 3450 
4.06537780761719e+02 3.88350036621094e+02 7.11916494369507e+00 3451 
2.25920196533203e+02 6.43197448730469e+02 7.42055988311768e+00 3452 
4.19989868164062e+02 7.66509460449219e+02 8.37627983093262e+00 3453 
4.48551116943359e+02 8.37154296875000e+02 8.80492115020752e+00 3454 
2.41796337890625e+03 1.09191162109375e+03 6.45098257064819e+00 3455 
6.18127990722656e+02 1.62328564453125e+03 7.24068307876587e+00 3456 
7.15916198730469e+02 1.92026135253906e+03 7.72908115386963e+00 3457 
3.54037695312500e+03 2.23907812500000e+03 7.47610187530518e+00 3458 
7.50262634277344e+02 1.74963244628906e+03 1.41531009674072e+01 3459 
3.18674072265625e+02 4.42477966308594e+02 1.93018112182617e+01 3460 
4.39632141113281e+02 4.73926452636719e+02 2.39871921539307e+01 3461 
2.93545458984375e+03 1.29377807617188e+03 1.81777153015137e+01 3462 
8.76955566406250e+02 1.67621337890625e+03 2.60818862915039e+01 3463 
4.29750366210938e+02 5.76911125183105e+01 6.35219717025757e+00 3464 
2.17929473876953e+02 5.37444824218750e+02 6.65996074676514e+00 3465 
3.43917877197266e+02 1.03090686035156e+03 6.06651115417480e+00 3466 
3.35445312500000e+03 2.23200659179688e+03 6.94719457626343e+00 3467 
3.73836791992188e+02 5.99825363159180e+01 4.65473604202271e+00 3468 
4.20772949218750e+02 6.35183349609375e+02 4.86828994750977e+00 3469 
4.12904144287109e+02 8.55950561523438e+02 5.22221231460571e+00 3470 
3.44863525390625e+03 1.48575439453125e+03 4.49867343902588e+00 3471 
4.03530822753906e+02 2.39096572875977e+02 6.09650659561157e+00 3472 
3.47234521484375e+03 1.54059838867188e+03 5.92838478088379e+00 3473 
3.93533935546875e+02 2.50994613647461e+02 1.09190969467163e+01 3474 
3.21420318603516e+02 6.80221679687500e+02 1.13283767700195e+01 3475 
2.39131542968750e+03 1.21569165039062e+03 8.66106128692627e+00 3476 
3.28852539062500e+02 3.39937988281250e+02 1.19443044662476e+01 3477 
6.47375610351562e+02 1.36849743652344e+03 1.50875034332275e+01 3478 
3.54817358398438e+03 1.71703906250000e+03 1.22222394943237e+01 3479 
4.61170928955078e+02 1.79155441284180e+02 1.05349874496460e+01 3480 
3.26024291992188e+03 2.09450292968750e+03 1.11845417022705e+01 3481 
2.87688940429688e+03 7.69593261718750e+02 1.26391630172729e+01 3482 
2.63732452392578e+02 6.37555725097656e+02 1.12868528366089e+01 3483 
3.48738671875000e+03 1.57190283203125e+03 7.40499687194824e+00 3484 
5.45545227050781e+02 7.42553161621094e+02 9.33834648132324e+00 3485 
2.48362695312500e+03 1.17462866210938e+03 9.52645778656006e+00 3486 
4.07341278076172e+02 2.63749084472656e+02 4.43194675445557e+00 3487 
2.02192001342773e+02 6.48093933105469e+02 5.08706283569336e+00 3488 
6.40489013671875e+02 8.08741577148438e+02 4.68394517898560e+00 3489 
3.67140777587891e+02 4.30910644531250e+02 3.88837146759033e+00 3490 
3.41060107421875e+03 1.17979943847656e+03 5.64867830276489e+00 3491 
3.59700170898438e+03 2.38938452148438e+03 5.52452278137207e+00 3492 
4.03356872558594e+02 1.72086257934570e+02 4.78483867645264e+00 3493 
2.95397796630859e+02 6.58224121093750e+02 5.11505317687988e+00 3494 
3.40989013671875e+02 9.87148742675781e+02 5.20613956451416e+00 3495 
4.93066711425781e+02 1.10820996093750e+03 4.06198549270630e+00 3496 
3.64787597656250e+02 2.83795745849609e+02 5.50449705123901e+00 3497 
3.01013427734375e+03 6.69159912109375e+02 4.58706855773926e+00 3498 
3.56045239257812e+03 1.53899755859375e+03 5.37590169906616e+00 3499 
3.20372119140625e+03 2.01829748535156e+03 4.25499391555786e+00 3500 
4.21640869140625e+02 4.04795593261719e+02 4.14660263061523e+00 3501 
3.20293627929688e+03 2.50270898437500e+03 4.41790580749512e+00 3502 
3.74761657714844e+02 5.58428405761719e+02 6.18365716934204e+00 3503 
3.50259375000000e+03 1.58118945312500e+03 5.76480674743652e+00 3504 
4.04610107421875e+02 4.10512145996094e+02 7.25810956954956e+00 3505 
1.46679199218750e+02 6.05876342773438e+02 9.98605251312256e+00 3506 
1.36886486816406e+03 6.94958129882812e+02 1.24263401031494e+01 3507 
2.74587860107422e+02 8.33177368164062e+02 1.12008991241455e+01 3508 
3.54006347656250e+02 6.16659973144531e+02 1.72339019775391e+01 3509 
2.72875512695312e+03 6.77522277832031e+02 2.61992549896240e+01 3510 
3.53263854980469e+02 7.99482788085938e+02 1.92522888183594e+01 3511 
1.03427368164062e+03 9.28086853027344e+02 6.25126075744629e+01 3512 
3.18067089843750e+03 1.29930883789062e+03 4.16489124298096e+00 3513 
3.04826245117188e+03 1.36363732910156e+03 4.66870594024658e+00 3514 
3.04832006835938e+03 1.38797753906250e+03 5.36340904235840e+00 3515 
3.22385473632812e+03 1.42084631347656e+03 4.34688901901245e+00 3516 
1.07029060363770e+02 6.01226989746094e+02 6.99251937866211e+00 3517 
4.29703552246094e+02 1.09714636230469e+03 4.91119003295898e+00 3518 
4.15105987548828e+02 6.28529205322266e+01 5.88742733001709e+00 3519 
3.38129492187500e+03 1.35232739257812e+03 6.32682180404663e+00 3520 
4.13287994384766e+02 2.50408477783203e+02 4.22992610931396e+00 3521 
3.17529272460938e+03 1.10220092773438e+03 4.04571676254272e+00 3522 
3.43964013671875e+03 1.10030017089844e+03 5.47589015960693e+00 3523 
3.05423828125000e+03 1.55024633789062e+03 5.28839206695557e+00 3524 
3.84887298583984e+02 2.07153961181641e+02 6.42047119140625e+00 3525 
6.51329040527344e+02 4.97803771972656e+02 6.44637918472290e+00 3526 
4.15927062988281e+02 6.21648681640625e+02 6.07963562011719e+00 3527 
6.43011352539062e+02 4.37756988525391e+02 7.84396266937256e+00 3528 
4.04132171630859e+02 1.06376380920410e+02 5.58073759078979e+00 3529 
3.02699121093750e+03 7.76410827636719e+02 4.53736782073975e+00 3530 
3.26203613281250e+03 1.76859399414062e+03 5.12692165374756e+00 3531 
3.48087939453125e+03 2.41396679687500e+03 4.77066230773926e+00 3532 
6.13941223144531e+02 6.26022399902344e+02 5.82816791534424e+00 3533 
2.54563369750977e+02 6.15398437500000e+02 5.34014558792114e+00 3534 
3.17261108398438e+03 9.89844543457031e+02 3.94128179550171e+00 3535 
5.89329956054688e+02 2.22807446289062e+03 3.77666330337524e+00 3536 
3.03096649169922e+02 6.15371398925781e+02 5.96818733215332e+00 3537 
3.76620239257812e+02 2.70575592041016e+02 5.17766237258911e+00 3538 
1.38388549804688e+03 1.11068041992188e+03 5.03749704360962e+00 3539 
3.47576025390625e+03 1.55791821289062e+03 5.00077104568481e+00 3540 
3.57992626953125e+03 1.97479223632812e+03 4.42996740341187e+00 3541 
6.50289489746094e+02 9.60709304809570e+01 5.16940069198608e+00 3542 
4.03403717041016e+02 1.87018920898438e+02 4.58348131179810e+00 3543 
1.71883575439453e+02 6.05730102539062e+02 4.03893518447876e+00 3544 
3.01042944335938e+03 9.29238037109375e+02 5.52538442611694e+00 3545 
3.56693115234375e+03 1.50697875976562e+03 4.15134811401367e+00 3546 
6.39832458496094e+02 3.85257080078125e+02 5.77236270904541e+00 3547 
4.21083496093750e+02 4.78494140625000e+02 5.83912467956543e+00 3548 
4.12307373046875e+02 6.68047302246094e+02 6.01705694198608e+00 3549 
2.36466674804688e+03 2.12729064941406e+02 5.19737386703491e+00 3550 
1.78561721801758e+02 6.30691162109375e+02 5.28274202346802e+00 3551 
2.03008621215820e+02 6.62491088867188e+02 5.02184963226318e+00 3552 
3.08418359375000e+03 2.30966748046875e+03 3.80279564857483e+00 3553 
3.10471826171875e+03 2.39798925781250e+03 3.72483897209167e+00 3554 
1.25910839843750e+03 1.38683056640625e+03 5.78099870681763e+00 3555 
2.53923632812500e+03 1.07587548828125e+03 5.96420574188232e+00 3556 
9.29173889160156e+02 3.71338653564453e+02 1.63652801513672e+01 3557 
3.02442797851562e+03 1.81507543945312e+03 2.33679676055908e+01 3558 
3.09046362304688e+03 2.19463354492188e+03 3.64255189895630e+00 3559 
3.08790649414062e+03 2.02122534179688e+03 3.75360083580017e+00 3560 
1.83796585083008e+02 1.31907104492188e+03 7.94824934005737e+00 3561 
3.73035552978516e+02 4.45817077636719e+02 5.85887098312378e+00 3562 
3.08810400390625e+03 1.98673266601562e+03 3.69874596595764e+00 3563 
2.86726171875000e+03 1.78975500488281e+03 5.87843656539917e+00 3564 
3.01458178710938e+03 1.57363952636719e+03 5.07884454727173e+00 3565 
1.49276708984375e+03 1.13795996093750e+03 7.17119169235229e+00 3566 
7.07363037109375e+02 1.52540856933594e+03 9.53496074676514e+00 3567 
2.86982788085938e+03 1.52433044433594e+03 1.14346017837524e+01 3568 
3.25145092773438e+03 1.27743566894531e+03 6.84029626846313e+00 3569 
1.67619677734375e+03 1.28030700683594e+03 1.42628335952759e+01 3570 
4.38998474121094e+02 5.88439514160156e+02 3.69661474227905e+00 3571 
5.94320556640625e+02 1.50126940917969e+03 6.22573232650757e+00 3572 
3.19721923828125e+03 2.39607543945312e+03 7.24462509155273e+00 3573 
1.41455847167969e+03 3.16681488037109e+02 8.87294197082520e+00 3574 
2.13497705078125e+03 2.34138427734375e+03 5.06399202346802e+00 3575 
2.81707397460938e+03 2.44412890625000e+03 7.57519292831421e+00 3576 
3.18727807617188e+03 8.23886535644531e+02 6.70043420791626e+00 3577 
1.07619665527344e+03 6.52648071289062e+02 1.21196384429932e+01 3578 
2.93726855468750e+03 1.15233581542969e+03 8.29524040222168e+00 3579 
2.92956494140625e+03 1.62527246093750e+03 4.24690151214600e+00 3580 
3.35624340820312e+03 1.00957452392578e+03 6.76517629623413e+00 3581 
2.13917114257812e+03 1.13273974609375e+03 4.16214332580566e+01 3582 
4.24686981201172e+02 1.81028063964844e+03 3.88600850105286e+00 3583 
3.44121801757812e+03 2.41143286132812e+03 3.58353781700134e+00 3584 
1.20287707519531e+03 1.65746423339844e+03 1.47332077026367e+01 3585 
2.59976708984375e+03 1.60574865722656e+03 1.48765850067139e+01 3586 
4.88048126220703e+02 1.32170983886719e+03 5.09857034683228e+00 3587 
3.41351367187500e+03 2.46325781250000e+03 3.74651479721069e+00 3588 
1.87924572753906e+03 1.84593420410156e+03 8.97334766387939e+00 3589 
2.72409228515625e+03 4.06568054199219e+02 7.44738149642944e+00 3590 
3.18900854492188e+03 1.72683557128906e+03 3.79264593124390e+00 3591 
2.28407690429688e+03 9.63376220703125e+02 7.09799194335938e+00 3592 
3.15497558593750e+03 4.73201568603516e+02 4.17712926864624e+00 3593 
3.20407910156250e+03 5.35604858398438e+02 1.30297927856445e+01 3594 
6.12351501464844e+02 1.37154711914062e+03 5.26862049102783e+00 3595 
2.37595434570312e+03 1.39438793945312e+03 5.65950202941895e+00 3596 
1.04560900878906e+03 2.15258129882812e+03 2.31225795745850e+01 3597 
2.61419506835938e+03 1.67026892089844e+03 5.43360233306885e+00 3598 
2.13537158203125e+03 2.51742578125000e+03 7.10974979400635e+00 3599 
6.04474792480469e+02 1.35079052734375e+03 5.18349266052246e+00 3600 
7.18620056152344e+02 5.23517211914062e+02 5.51966524124146e+00 3601 
1.50051147460938e+03 2.85979400634766e+02 3.17171287536621e+01 3602 
1.32247277832031e+03 1.09868420410156e+03 3.87516880035400e+00 3603 
1.02911767578125e+03 1.79403710937500e+03 1.35197572708130e+01 3604 
1.86665600585938e+03 1.09083312988281e+03 4.81537055969238e+00 3605 
2.28696655273438e+03 1.09590136718750e+03 8.75009632110596e+00 3606 
1.88305920410156e+03 1.26915710449219e+02 9.11307048797607e+00 3607 
2.40162231445312e+03 1.31744177246094e+03 9.28303432464600e+00 3608 
1.74654089355469e+03 2.46489160156250e+03 3.90117549896240e+00 3609 
1.62783789062500e+03 1.07268371582031e+03 4.34473180770874e+00 3610 
2.77826342773438e+03 1.72218847656250e+03 6.50275897979736e+00 3611 
