ply
format ascii 1.0
element vertex 1150
property float x
property float y
property float size
property short id
end_header
979.692932 1341.988159 20.890757 28 
1003.364441 1237.418213 9.645101 58 
1032.385254 1436.072266 9.832298 59 
936.713440 1443.251221 10.068682 63 
939.624451 1303.396362 18.549225 67 
981.292114 1398.731445 18.425003 68 
2166.134033 2242.180664 26.180016 69 
975.140869 1275.080444 26.897734 75 
1595.795288 1671.788940 5.768682 101 
1013.215820 1299.946899 18.646149 104 
2114.023193 644.610413 3.738986 125 
747.954956 1002.521545 19.187540 157 
2383.337158 399.556305 3.718879 168 
1229.649780 1500.811523 4.604359 173 
2587.823975 731.481873 4.226277 179 
2477.675537 560.685364 3.802100 180 
2388.904541 418.381256 4.583193 183 
2293.053711 273.858185 3.883959 196 
1979.573975 270.921814 7.980328 204 
2450.413574 521.166809 3.602149 226 
2437.720215 487.071716 4.232287 227 
2176.015869 74.732201 4.008317 228 
2717.309082 934.614197 4.302947 234 
2759.148682 968.293640 5.769958 250 
1525.715454 1165.398560 5.062068 251 
1623.303467 647.587219 4.216005 252 
2141.474609 108.444214 8.119090 253 
2444.307129 476.382446 5.047719 254 
2327.597900 534.950500 4.418368 255 
2733.056396 946.902527 3.605575 256 
1095.201172 1155.003784 4.219944 257 
2731.339355 1616.318359 3.662573 258 
1869.256714 1093.449951 9.063052 259 
2499.643555 485.157379 8.116095 260 
816.471680 184.740417 6.140655 294 
1017.516174 85.068077 5.645443 295 
604.137024 790.734436 5.671938 355 
1182.915649 204.772766 4.755464 398 
755.014771 217.487656 11.491620 420 
1199.594971 185.592621 4.183768 427 
1065.115234 341.925262 5.560194 471 
3007.672119 1275.850342 8.258748 474 
983.714844 1023.216553 8.822415 479 
1723.665283 1815.146729 9.499963 494 
2136.898926 1027.181641 8.838942 508 
2605.962891 2446.450195 8.699585 556 
2773.769287 970.205811 4.524640 559 
856.806763 536.449280 4.527010 566 
152.644958 1219.849487 5.628510 567 
1405.027832 2516.318604 6.225337 595 
1049.756714 315.471893 10.579631 606 
726.601990 384.447906 5.389753 607 
705.420654 365.704193 3.724039 609 
685.503113 402.482208 5.096422 618 
632.617920 270.337830 4.673658 619 
580.063354 355.640717 3.914278 620 
590.036743 299.465302 5.330752 621 
518.275757 332.589935 5.765360 622 
496.180420 348.056427 4.668834 623 
417.078247 968.948547 5.501361 624 
652.946594 298.712646 5.669662 625 
484.134338 337.271973 6.376534 626 
112.184448 444.526886 5.829581 627 
3024.783691 1968.544189 4.705838 628 
1343.088867 66.962662 4.108788 629 
341.920532 383.926178 5.325995 630 
368.657104 416.605896 9.439898 631 
419.787292 630.647217 6.805861 632 
182.734131 455.590485 7.754918 633 
668.086182 347.902924 11.336368 634 
2932.651611 1275.064209 6.521358 635 
569.170715 320.851135 7.068062 636 
347.227966 448.881836 7.029076 637 
148.268921 570.495117 7.451947 638 
375.461182 234.823639 7.311541 639 
441.143890 410.245453 6.498706 640 
429.369476 480.421356 8.476665 641 
532.792969 362.841553 10.537388 642 
1464.935059 198.300156 20.941851 643 
1276.245117 407.307831 31.969511 644 
862.442261 249.437347 4.280403 645 
726.117004 658.099854 4.800211 646 
466.893005 315.313873 4.516600 647 
371.695831 451.541260 5.687715 648 
357.042236 484.758057 5.588880 649 
809.712219 308.138306 3.787813 650 
596.570740 186.408035 4.690165 651 
410.063812 308.894775 4.389329 652 
1833.268311 205.038727 5.859968 653 
359.546051 409.049347 4.590379 654 
181.350113 543.572449 7.130380 655 
197.420792 706.172302 5.669562 656 
164.575439 430.250092 3.530125 657 
369.647858 572.415833 5.792911 658 
357.063873 600.979736 5.562407 659 
684.689392 192.166946 4.313805 660 
474.640656 282.599823 3.727553 661 
320.034271 262.638062 4.704280 662 
204.405060 571.753357 7.806242 663 
519.193726 280.315125 6.445961 664 
388.311401 548.040588 7.954099 665 
215.922363 519.789246 8.418755 666 
606.562378 231.770538 11.843272 667 
501.286469 297.019989 8.108267 668 
560.020142 370.765961 6.575822 669 
362.360260 202.540146 6.357598 670 
402.992096 432.307526 8.743943 671 
174.485794 404.218323 7.119911 672 
245.949509 495.333832 7.523165 673 
3320.082764 1776.903198 6.684591 674 
985.062683 143.488541 5.789764 675 
546.740417 253.358536 5.283022 676 
351.528076 262.573151 6.182063 677 
384.458496 394.133881 8.501947 678 
412.419281 516.277771 9.315624 679 
330.169647 746.751099 8.361246 680 
235.680603 460.821991 8.123402 681 
70.923264 424.667938 7.638339 682 
753.900452 339.865112 6.520102 683 
917.089661 90.025230 5.272486 684 
547.273499 404.290955 4.906476 685 
551.926086 234.723251 6.520904 686 
472.713898 297.531647 6.813604 687 
501.012787 334.013245 4.615506 688 
484.946747 354.655548 5.818319 689 
3235.781250 1495.415894 8.491092 690 
3120.403320 1652.759644 4.205975 691 
2676.011963 1913.490479 5.118815 692 
1090.048462 291.355377 4.472609 693 
360.650604 440.349091 4.629239 694 
105.154961 386.797150 4.485161 695 
2939.078613 1306.959595 5.033217 696 
394.227631 359.687042 6.303549 697 
595.959961 338.755463 7.317207 698 
617.503479 370.689911 5.790930 699 
553.055359 388.448822 6.557343 700 
338.904968 576.855408 6.676024 701 
88.856010 336.993500 8.785605 702 
444.608337 505.102661 11.656655 703 
780.064819 188.062912 6.515319 704 
344.847076 359.715973 7.563093 705 
545.684937 338.374146 10.290250 706 
630.514771 250.960281 8.238566 707 
518.434814 261.140900 7.388319 708 
377.060699 330.722687 5.923264 709 
354.097046 467.530609 7.326450 710 
228.437607 484.659790 10.081556 711 
659.726379 281.957672 8.734900 712 
534.753296 417.402191 12.597080 713 
434.625244 436.967010 13.524873 714 
993.183960 378.410431 4.002718 715 
305.127411 499.293488 3.810906 716 
299.105927 536.341431 5.478477 717 
884.986938 208.164825 4.273585 718 
449.242188 383.964691 5.628852 719 
57.976604 364.607483 5.362618 720 
2748.757324 2045.809448 7.777096 721 
583.519531 366.729889 4.133702 722 
510.798889 316.845032 5.536446 723 
824.980957 546.642212 5.369886 724 
524.935547 395.449890 5.263997 725 
477.078674 923.561951 4.752890 726 
360.976746 248.439041 6.405617 727 
214.265808 499.666016 6.543370 728 
2724.192139 1727.431152 4.423051 729 
875.090637 241.639771 4.974819 730 
869.090637 511.000732 4.229631 731 
596.267151 277.817963 4.332299 732 
199.622238 595.505371 10.149882 733 
714.057800 247.101852 7.924912 734 
569.929688 296.163727 8.699495 735 
334.625519 255.494736 6.058980 736 
188.258408 520.029358 7.989969 737 
214.834946 542.516296 6.581642 738 
2436.589844 911.786072 8.688400 739 
510.977539 377.316345 7.625704 740 
183.010406 483.911865 7.781528 741 
79.237007 453.677948 7.790064 742 
681.404114 259.644470 11.008976 743 
621.760254 467.667664 6.781358 744 
401.232422 647.110962 5.972445 745 
1343.480591 495.946655 10.960529 746 
810.597473 200.383072 6.076993 747 
577.725098 309.463043 4.131953 748 
428.679047 461.718414 4.930905 749 
259.084656 512.399414 5.696745 750 
126.434700 432.695038 6.721538 751 
1081.368774 340.806244 4.148603 752 
720.213135 643.580017 4.121660 753 
523.503967 555.060242 5.153420 754 
2835.874756 1054.906494 4.165427 755 
3329.100586 1792.026855 4.741117 756 
464.792877 104.785187 4.688398 757 
214.399261 463.848083 5.936429 758 
331.888641 772.637268 5.121033 759 
1425.403320 1315.935913 12.415578 770 
1185.009766 226.123688 5.895432 782 
1947.356689 275.958496 17.617626 797 
1943.731079 193.844620 13.556396 798 
1163.553589 210.990753 6.511598 810 
2397.555664 221.722153 3.884513 840 
1083.018799 72.720360 4.647676 884 
929.410278 175.041138 5.697997 912 
1352.158936 51.914188 5.507546 929 
1124.561035 53.753189 3.937095 936 
2138.653564 605.181885 34.171135 1160 
795.260925 293.858734 6.747978 1164 
856.625671 502.952972 12.577679 1165 
945.526123 179.106720 6.848364 1170 
958.357788 173.588791 4.300941 1180 
849.955933 59.350624 3.876289 1181 
625.040833 1082.541992 23.985394 1182 
878.742126 523.428711 5.273488 1183 
3189.529541 1920.773926 60.030895 1184 
1061.556885 42.966423 3.924675 1185 
924.259033 161.663910 4.315937 1186 
1264.003418 146.997208 4.579775 1187 
2686.512939 1886.710815 4.144600 1188 
3667.925781 395.312622 8.427260 1189 
1623.570312 2463.935303 5.195065 1190 
827.450806 2427.910400 8.914318 1306 
2528.520508 1653.032959 14.201732 1661 
2864.201416 1441.687988 8.603819 1715 
2600.406006 893.095886 7.586399 1724 
985.362061 1451.223877 25.443232 1734 
742.467407 2272.898438 12.605253 1739 
669.737976 2390.106201 8.463668 1742 
957.075378 201.073257 21.607018 1753 
1307.433228 134.491257 9.867732 1754 
378.617706 1113.261353 9.135248 1755 
1378.933228 801.856995 9.686457 1756 
2897.546143 1549.580933 5.311805 1757 
1009.508545 494.299103 7.208906 1758 
969.893677 126.786354 4.622499 1759 
1424.914551 1592.557129 52.423336 1760 
1208.449951 208.244003 5.573108 1761 
937.128174 1721.262451 6.474133 1762 
1044.998291 240.120026 6.771500 1763 
229.488571 769.419128 8.453181 1764 
337.527252 1043.453247 7.180730 1765 
3764.363770 1471.541016 5.738340 1766 
2665.119385 1237.053833 9.112103 1777 
849.574951 2353.950195 6.259418 1788 
2090.874268 2367.514893 13.664452 1810 
2116.392578 2318.272705 6.805071 1832 
2110.091064 2434.144043 6.628199 1836 
2113.923340 2389.936523 10.959443 1850 
1866.836060 1695.812012 12.911228 1853 
2070.709717 2299.922852 6.557313 1866 
2119.992676 2077.523926 4.845390 1917 
1134.535034 1815.120972 11.258582 1920 
549.805664 654.574585 6.939645 1934 
1940.534546 1667.557251 4.627759 1958 
2372.508789 257.240936 5.129502 1975 
2301.322021 1457.454590 10.023503 1976 
1444.244507 2396.414307 3.953634 1977 
1905.943237 2443.114502 6.255527 1978 
3519.404297 2455.251465 4.078940 1979 
2141.626953 2396.903809 13.594835 2339 
1964.276611 2253.348145 14.898158 2367 
2094.037109 2315.981934 18.415615 2382 
2106.568359 1611.712036 4.902994 2387 
2895.139404 1269.138306 5.415549 2388 
2048.042480 1258.238770 10.290131 2389 
966.464050 58.391014 5.943261 2390 
1922.595093 154.801666 15.910378 2683 
1372.213745 747.656372 11.129619 2772 
1206.369995 2185.344238 4.308764 2788 
1806.809448 1420.227417 3.623272 2796 
1560.776489 535.687012 8.094548 2797 
1404.790405 293.406219 20.644663 2798 
1489.026123 261.654968 13.729326 2799 
1359.282593 735.066650 18.209908 2800 
707.311157 1784.384766 3.723522 2801 
2898.252686 1403.986206 5.262015 2802 
2433.754395 1317.868896 8.670914 2803 
2082.805176 1120.773315 9.449653 2804 
2613.403809 2319.569824 4.270791 2805 
2922.211426 1600.696289 3.801236 2806 
987.185059 426.893158 4.002546 2917 
1212.936157 849.250366 57.051079 2934 
1221.520264 1036.122314 52.917583 2935 
1375.875122 1051.448730 54.198647 2936 
1337.411011 78.450043 5.818530 2956 
2494.028076 506.432800 4.141776 2999 
839.534668 542.094971 5.268347 3035 
1810.650391 1317.585327 11.946754 3036 
1328.548706 1320.974976 19.086861 3037 
1705.676270 2339.416016 16.764687 3038 
1131.722534 1426.389771 12.277992 3039 
3335.728027 454.345367 17.191015 3040 
1123.427856 1914.069336 8.097001 3041 
171.883942 1021.532837 7.253926 3042 
3417.935303 466.804901 14.990364 3043 
1443.339844 513.217529 12.100634 3044 
802.529968 269.929047 16.056135 3045 
2076.837891 482.306152 50.372143 3046 
954.889343 2094.525146 8.554860 3107 
2081.271484 2454.718994 8.364855 3137 
998.350098 2351.866943 7.191171 3164 
1364.246460 2356.489258 4.428985 3172 
1338.555786 2341.113770 4.513171 3176 
1357.267456 2369.295654 6.776513 3177 
977.073242 2296.757080 6.127875 3182 
892.843750 2231.883789 5.815993 3185 
1321.405518 2532.522949 4.421817 3187 
1344.398315 2381.183105 5.367049 3191 
1131.916748 2498.771973 5.741283 3202 
821.522339 2285.916504 8.415980 3236 
529.488708 2172.576660 7.899658 3237 
859.585266 2473.929688 4.478374 3244 
781.831055 2352.135986 4.210698 3245 
752.646484 2465.318848 6.712524 3248 
815.631836 2360.854248 7.218037 3249 
1070.159912 2467.858398 5.017907 3255 
1395.987183 2433.291016 4.857837 3256 
1049.773071 2384.076172 8.952285 3257 
1837.411865 778.101868 14.983291 3258 
586.588013 2332.499268 6.581350 3259 
877.969971 2494.877930 5.460533 3260 
856.742249 2388.586670 8.171320 3261 
849.274048 1984.143555 5.182104 3262 
1132.286865 2232.666504 5.825459 3263 
1131.879639 2176.982178 6.550084 3264 
251.793869 2220.718018 9.357830 3265 
207.469208 2011.095703 19.362593 3266 
727.127686 1924.886353 5.735358 3267 
467.348389 2116.903809 9.530893 3268 
785.413940 2376.033936 9.005773 3269 
286.532928 2233.326660 6.869097 3270 
846.921692 2496.302002 4.872996 3271 
689.204285 2373.626221 5.570811 3272 
1062.032837 2498.064209 4.383476 3273 
1054.531982 2473.951172 6.687250 3274 
771.364258 2331.810547 16.287752 3275 
486.303467 2155.520508 10.059993 3276 
660.637146 1806.754272 4.887600 3277 
1262.049683 2280.761230 3.661689 3278 
1753.335083 719.667786 8.175596 3279 
881.734680 2016.177612 5.439755 3280 
867.525513 1973.996826 5.439124 3281 
1420.515747 2351.313477 5.011341 3282 
754.913940 1051.270508 9.311582 3291 
613.546204 2057.984619 7.583784 3324 
942.928406 2301.502441 5.303307 3325 
1139.051147 2479.560547 7.840784 3331 
833.439941 2364.988770 4.821146 3335 
414.477417 2008.053589 7.557961 3361 
2320.572266 1026.011963 5.031499 3476 
1039.202515 834.625977 55.691433 3512 
2682.611084 658.605713 9.399014 3572 
1919.920776 1610.787109 15.348257 3586 
1140.576904 156.743210 9.231022 3587 
3585.754883 1828.285645 3.556231 3588 
1358.363525 594.934692 8.956697 3589 
2343.752686 1923.485596 10.922394 3590 
2682.586670 2185.727539 6.533401 3591 
1620.629761 1840.849121 9.586323 3592 
2973.145996 1508.808960 4.477990 3593 
3049.594482 1356.331177 8.204121 3594 
2391.951416 470.816711 3.881769 3637 
1319.443726 2308.535889 7.712298 3644 
2236.652832 301.821594 15.947101 3661 
2401.925781 653.896179 19.174601 3664 
2259.141846 223.425873 3.654937 3689 
2390.235352 488.424591 7.245972 3699 
1211.492798 2290.465820 4.692338 3724 
1149.996216 2145.054932 5.431670 3732 
2236.220703 185.395157 3.967836 3740 
2278.854248 251.691513 4.040948 3741 
2841.807617 1100.177856 5.186194 3746 
2223.336182 87.989868 5.068374 3761 
2460.879883 536.043823 3.688613 3777 
1141.172485 2343.375244 6.331224 3785 
1149.002319 2396.170898 8.043889 3786 
1093.692139 2317.021240 8.634460 3792 
1258.752075 2442.822510 6.864386 3793 
1334.275146 2527.958008 5.816537 3809 
1367.868286 2509.897949 4.022169 3827 
1101.331177 2440.515137 3.710787 3849 
2540.905029 647.092407 3.819075 3865 
1242.331177 2451.938477 5.511220 3868 
1123.651367 2164.762451 5.068781 3874 
1186.614502 2208.012451 6.056258 3876 
1123.257202 2406.974121 9.234224 3888 
1102.109619 2374.904053 6.267060 3926 
2520.861084 521.104126 8.266173 3931 
2600.548584 573.944397 3.949299 3953 
1126.679932 2125.399170 4.955988 3956 
2716.130127 922.352722 3.919766 3982 
1205.358276 2466.487793 4.372600 4002 
1145.903931 2372.647217 9.700068 4034 
2223.330322 150.257599 4.132738 4052 
3249.327148 1243.400269 3.990610 4054 
2294.781738 262.200043 4.271883 4084 
2171.959717 132.676407 4.164884 4104 
2410.762939 422.655121 5.637532 4123 
2738.183838 968.490784 3.978697 4131 
2864.995850 1218.083862 4.913214 4140 
1102.742432 2396.870605 8.569223 4141 
878.624695 2188.612305 7.000592 4146 
849.335876 2171.132080 5.631228 4150 
2838.135254 1114.053345 3.795018 4160 
964.383545 2205.435547 8.734453 4163 
864.425659 2175.018311 6.375439 4168 
914.536072 2019.798462 6.004597 4174 
900.984131 2154.647217 5.242257 4185 
2332.418701 241.773148 4.167325 4186 
969.090576 2049.754150 4.536819 4190 
994.490723 2272.423828 8.264740 4195 
1155.869141 2247.200195 4.830605 4196 
1211.477417 2251.499512 4.779562 4197 
2537.708984 656.781677 3.423796 4198 
1355.244141 2303.102051 6.524499 4201 
1162.645874 2416.368652 10.645352 4207 
1292.965820 2335.068115 4.198661 4210 
2339.142822 344.965302 4.155303 4211 
1811.943604 604.764343 5.271696 4212 
1983.707031 808.891602 14.373167 4213 
1520.507446 914.452454 15.272003 4214 
2834.041504 1085.120972 13.934346 4215 
933.254700 2025.126831 4.907989 4216 
2319.835205 2529.887939 6.281578 4217 
1081.589600 2350.734619 4.582798 4218 
2637.995605 781.232727 3.984293 4219 
914.111389 2162.826904 6.243565 4220 
2497.617920 592.037170 3.589582 4221 
2711.782471 898.348694 3.654212 4222 
1254.468994 2325.673584 4.946928 4223 
1157.368530 2205.476562 5.032854 4224 
2159.360596 117.761055 4.081266 4225 
945.420349 2098.450439 4.934551 4226 
997.904846 2230.651367 6.315938 4227 
2066.996582 2344.731689 11.452763 4228 
2355.086914 169.142151 5.609492 4229 
1149.216309 2221.632568 5.385438 4230 
987.804382 2286.435059 4.094895 4231 
948.039001 2240.804199 8.882048 4232 
1225.214722 2253.441650 4.566793 4233 
1261.555420 2309.103760 5.985549 4234 
1597.101074 2546.341064 3.830765 4235 
1341.728516 2537.589844 3.880677 4236 
1185.728271 2345.603027 4.935360 4237 
1202.809448 2449.756348 5.615124 4462 
1107.749268 2160.953857 5.767204 4465 
2346.666504 1421.391724 14.608226 4467 
1011.831177 2239.729980 6.904555 4469 
1162.059448 2502.338379 5.197998 4470 
1128.350586 2317.615967 6.000832 4476 
1353.259155 2317.532471 4.023524 4477 
1337.840088 2456.372314 4.250244 4482 
1297.350708 2262.857910 6.333759 4486 
1325.430176 2499.145508 3.369376 4488 
2331.910400 1954.808960 7.154498 4489 
2924.114990 1113.846069 16.889021 4490 
2518.287842 458.966705 20.703463 4491 
2329.890137 397.081024 5.020868 4492 
2229.622803 99.871109 5.010790 4493 
1886.889771 552.287048 12.428835 4494 
2701.080078 362.641937 5.999779 4497 
1179.074463 2497.062988 5.721509 4541 
1402.541870 738.786926 5.820724 4623 
2657.761719 1792.045044 5.934768 4624 
2424.151855 679.539429 6.224195 4625 
2207.030518 194.935577 5.729681 4626 
2861.641846 1785.357910 4.909001 4627 
1213.539429 188.544281 6.353076 4628 
789.879883 1564.739746 3.704388 4629 
1539.349121 743.910461 9.100561 4630 
2897.261719 1684.094727 4.359756 4631 
2642.518555 1784.567383 5.384132 4632 
635.697998 634.624878 3.836498 4633 
1755.096313 1808.406738 6.306610 4634 
2716.486572 1808.573242 3.647903 4635 
1935.461670 631.014038 5.000674 4636 
719.879517 2462.537842 4.963372 4655 
745.437195 2189.342285 5.337663 4657 
748.995667 2060.327148 6.020226 4666 
731.148865 2146.983398 5.987360 4667 
919.713013 2313.055176 5.966122 4668 
722.956543 2232.319336 3.814502 4674 
810.830627 1956.303833 4.349133 4675 
763.376953 2161.356445 7.266863 4682 
851.598450 2226.346924 8.844468 4683 
764.529236 1923.884521 8.220682 4685 
860.522888 2285.092285 10.273749 4686 
890.160156 2250.593262 8.715086 4687 
819.035645 2200.272705 5.476212 4688 
1049.484985 2096.801758 5.308566 4689 
756.772766 2441.846191 7.050740 4690 
713.062317 2288.126465 4.546512 4693 
714.694214 2450.700928 5.226372 4694 
828.539917 2503.897705 4.933899 4695 
1112.899902 2411.943115 4.352815 4696 
880.650574 1990.267090 4.561177 4697 
742.919739 2313.617432 4.898623 4698 
2354.985596 355.235504 3.776039 4699 
728.999634 2333.263184 5.778636 4700 
769.499573 2318.077148 6.293334 4701 
811.773926 2052.260986 4.170521 4704 
911.530151 2262.307373 3.721538 4705 
1062.988281 2143.709717 3.597572 4706 
837.990234 2242.506348 4.690326 4707 
869.723083 2241.495850 5.647146 4708 
736.441650 2235.212891 5.224995 4713 
922.371155 1991.803345 4.879954 4714 
737.898743 2104.036865 6.727944 4719 
808.634460 2304.423584 6.852338 4721 
813.680298 2412.057129 6.482697 4722 
778.452332 2441.621582 5.859762 4723 
778.609985 2234.454102 7.246035 4724 
795.575806 2149.425293 10.610226 4726 
727.892273 2015.546387 5.381908 4727 
983.738953 2015.455322 5.196998 4729 
754.579346 2076.004883 5.759643 4730 
821.119629 2218.716064 9.063985 4732 
907.774902 2292.804688 9.098643 4733 
862.337769 2332.786865 11.589485 4734 
812.880249 2477.291016 6.271580 4736 
857.455200 2486.369385 7.709014 4737 
861.506165 2259.437500 11.448817 4739 
310.510071 2023.225586 5.659756 4740 
404.811615 1906.792236 6.458119 4741 
791.276611 1882.333740 6.490866 4742 
543.777710 1716.514526 5.358469 4743 
516.448853 2074.893311 5.242542 4744 
586.869141 2074.292969 4.571836 4745 
675.594666 2145.409668 5.814016 4746 
625.226562 2419.468750 4.367748 4747 
2189.105469 77.077095 6.813904 4748 
2548.210938 256.955353 5.343974 4749 
2517.300293 452.224426 4.336137 4750 
307.599579 2209.373291 6.212314 4751 
520.079224 1990.212891 6.636938 4752 
545.425720 2010.417725 5.325553 4753 
510.661682 2329.356445 6.521857 4754 
2981.803467 460.481934 5.200917 4755 
359.233215 2152.097412 5.785404 4756 
487.626770 1964.711304 6.832633 4757 
2785.724609 596.503723 5.378607 4758 
653.078125 1746.893066 4.316360 4759 
2216.733887 157.941208 3.693750 4760 
2812.419678 401.571289 3.783171 4761 
2592.708496 514.532227 4.385813 4762 
386.444214 1966.276245 5.821157 4763 
435.959442 2009.546875 6.354951 4764 
402.839386 2141.803223 5.173138 4765 
662.868958 1821.863037 6.562235 4766 
609.350220 1943.186035 5.988424 4767 
618.803772 1986.843384 6.737171 4768 
638.596313 2079.217041 6.438912 4769 
569.063232 1710.992676 4.867498 4770 
484.632141 2308.707275 4.835015 4771 
826.425537 2311.543701 4.633570 4772 
2806.881348 905.750061 4.874639 4773 
459.329224 1979.988770 5.642559 4774 
607.495605 2223.025391 5.192046 4775 
915.467407 2281.523438 4.166989 4776 
2422.733398 475.343903 4.044927 4777 
2752.737305 149.638687 4.411783 4778 
3134.849609 279.019379 5.158904 4779 
375.538696 2136.877197 6.447567 4780 
527.005554 2100.820801 6.816471 4781 
591.000183 2249.121826 6.298445 4782 
602.237427 2287.209961 6.101451 4783 
695.249512 2233.322510 6.087575 4784 
686.018066 2122.256104 4.050400 4785 
653.492188 2247.356201 3.901741 4786 
522.982483 1701.276978 4.628393 4787 
1768.157593 423.279938 7.244331 4788 
2930.571289 1023.719971 4.050502 4789 
371.601562 1880.944946 5.700680 4790 
822.083069 2235.549072 5.290092 4791 
1173.604004 2340.319824 4.924911 4792 
3152.552734 580.766907 5.056152 4793 
516.039795 1681.060791 5.625441 4794 
705.291016 1870.931152 5.780961 4795 
858.220093 2320.424072 3.697767 4796 
2225.888184 171.610168 4.025271 4797 
401.332214 2104.150146 9.435025 4798 
487.752075 2058.581055 10.675584 4799 
1651.547241 1815.449463 9.455533 4800 
333.643463 2039.442017 9.412447 4801 
455.176605 1931.087891 10.657063 4802 
604.323853 2183.870605 8.186902 4803 
620.814453 2267.144531 8.549394 4804 
648.902344 2226.098389 7.129436 4805 
475.278412 1852.542603 12.094461 4806 
715.980774 2258.835938 9.900504 4807 
760.927673 2299.423096 10.456555 4808 
393.533234 1992.341797 9.870297 4809 
633.706238 1774.555908 8.497688 4810 
575.724243 2168.424561 7.489584 4811 
619.984741 2326.203369 8.435019 4812 
690.918152 2194.102539 10.138071 4813 
663.553406 2369.691895 8.360271 4814 
517.447388 2083.511963 13.000536 4815 
571.658630 2112.167236 12.331991 4816 
546.912292 2048.867920 8.365778 4817 
3055.968994 457.650574 5.938358 4818 
711.846741 2088.378418 10.524053 4819 
444.795135 2043.890869 9.539912 4820 
568.098022 2064.450195 7.955712 4821 
650.507263 2165.312744 8.656803 4822 
499.566498 2181.122314 10.994384 4823 
464.200134 2163.565918 7.412492 4824 
761.215576 2097.386963 8.186973 4825 
257.135803 2101.933350 6.794419 4826 
442.416718 1968.064819 5.407869 4827 
515.342224 2022.852295 5.835028 4828 
632.286499 2194.450684 6.620396 4829 
377.480225 2169.236572 4.664664 4830 
692.589722 1798.087036 4.246838 4831 
529.867798 2265.693115 4.709903 4832 
2923.163330 1230.939819 3.341007 4833 
353.718903 2198.914795 4.927753 4834 
421.017242 2073.654053 7.282097 4835 
462.547943 2198.852539 5.986380 4836 
637.042725 2298.091553 6.217482 4837 
801.379395 2398.449951 5.283031 4838 
586.442200 1677.548706 12.518457 4839 
935.349670 2201.992676 10.104024 4840 
312.526611 2102.324463 7.311271 4841 
438.734070 1844.736206 8.599024 4842 
396.636505 2222.899902 7.553847 4843 
640.282959 2016.500977 10.998270 4844 
553.148804 2300.131348 7.854825 4845 
375.801422 2078.611084 8.202077 4846 
592.568542 1751.100830 9.476136 4847 
484.991394 2006.382324 9.379721 4848 
631.433167 2116.716553 8.496646 4849 
791.407837 1566.069092 22.777000 4850 
974.828064 1992.256714 15.975763 4851 
755.483154 2215.080811 13.749235 4852 
2567.299316 664.917297 14.363419 4853 
462.855927 2004.960693 5.858915 4854 
463.304108 2139.163574 5.633354 4855 
679.283264 2110.249756 5.754510 4856 
297.651581 2088.456543 5.824105 4857 
682.322449 1788.992554 4.779228 4858 
2262.895996 213.350479 4.179984 4859 
2707.186035 577.443115 4.598612 4860 
417.623688 1842.039429 6.419258 4861 
583.735046 1703.283325 7.137160 4862 
587.380371 2059.303467 6.346482 4863 
651.758423 2188.096191 5.118605 4864 
879.545715 2120.189697 6.067222 4865 
411.617676 2237.428223 5.942214 4866 
729.866577 1816.775024 6.465331 4867 
707.088928 2418.351074 5.385929 4868 
335.183167 1977.136841 5.969799 4869 
673.664368 1843.334839 5.090712 4870 
773.148438 2053.900391 3.750835 4871 
839.443665 2388.805664 4.767807 4872 
2362.524658 368.391144 4.466544 4873 
310.786469 2040.845825 5.951549 4874 
609.105896 2074.642822 6.559809 4875 
770.763550 1877.207764 6.086995 4876 
761.534851 2382.012939 4.614553 4877 
419.140594 2099.843262 5.358948 4878 
503.592072 2073.845215 4.841065 4879 
2989.428467 538.896362 5.900637 4880 
357.848450 2038.838501 5.110619 4881 
829.866455 2110.678467 5.283432 4882 
923.742126 2036.605469 3.801793 4883 
704.312561 1818.741699 5.527845 4884 
796.814270 2105.281250 5.357889 4885 
420.338196 1902.948853 4.990810 4886 
422.736481 1980.449463 4.009774 4887 
527.417480 1973.398315 5.954964 4888 
536.830811 2157.967529 3.971972 4889 
616.595398 2195.937500 4.426269 4890 
837.769653 1884.800415 4.548514 4891 
977.025574 2040.183228 3.620702 4892 
2231.403564 163.476364 3.691967 4893 
399.073059 1976.184448 4.961817 4894 
485.952637 1945.657349 5.359954 4895 
785.231018 1941.025757 4.855210 4896 
120.746857 1240.034912 4.976178 4897 
467.783783 2042.857788 6.423651 4898 
651.139038 2207.703369 6.749782 4899 
1215.526855 1570.509277 4.636875 4900 
566.341797 2217.313477 5.199480 4901 
741.632690 2133.176514 4.949929 4902 
766.671021 2428.132812 4.019540 4903 
544.866577 2088.997803 6.939623 4904 
836.261536 2157.250488 7.338481 4905 
1242.620850 2235.981689 6.103209 4906 
481.792328 1881.615112 9.989082 4907 
684.307251 1873.800903 8.102071 4908 
566.967834 2244.635498 10.252338 4909 
643.147522 2101.608154 7.479126 4910 
743.200256 2166.861572 8.565298 4911 
615.503906 1964.803101 8.787663 4912 
697.536865 2059.711914 8.795839 4913 
713.930420 2151.314941 6.734842 4914 
736.107300 2459.005859 7.158930 4915 
524.974182 2208.022461 11.257003 4916 
498.193359 2265.856201 9.742287 4917 
641.486572 1992.086792 7.469208 4918 
642.411133 2362.359619 7.474407 4919 
1011.959717 2042.139038 6.474980 4920 
844.051697 2311.239502 6.107433 4921 
677.226868 2019.146240 11.013087 4922 
480.865509 1979.967896 8.267912 4923 
513.814453 2047.277832 9.505555 4924 
527.479492 2013.076172 8.445297 4925 
489.766571 2224.859131 7.603609 4926 
2938.453125 1075.819946 11.606464 4927 
446.434814 2068.476807 8.330330 4928 
581.416199 2193.728516 7.882616 4929 
356.343353 2133.407471 6.585102 4930 
448.578217 1953.553101 6.918412 4931 
394.274567 2130.550537 6.097030 4932 
401.156525 2178.820557 6.425476 4933 
636.270142 2062.480713 5.033348 4934 
1008.074768 2113.032959 5.652579 4935 
1059.380737 2264.833252 4.985684 4936 
2752.833252 687.292786 5.367257 4937 
318.749817 1990.777466 5.953488 4938 
2410.535889 441.609619 3.707943 4939 
406.286041 1956.352295 6.550762 4940 
447.306091 2098.161621 6.707933 4941 
730.826782 1855.675293 6.079592 4942 
596.602722 2368.261230 6.366969 4943 
866.353882 2141.634521 9.224409 4944 
2969.223633 1237.467285 7.615643 4945 
335.900269 2201.939453 8.623847 4946 
414.999786 2051.223145 8.211463 4947 
442.315643 1986.608276 6.543983 4948 
619.141418 1757.185181 8.345847 4949 
614.909119 2304.745361 7.995851 4950 
711.401917 2363.847656 7.744906 4951 
2918.548340 1161.356567 10.330968 4952 
292.989899 2128.309082 11.552594 4953 
625.644043 2159.904297 10.116253 4954 
2387.636475 313.515808 11.894478 4955 
259.412384 2123.592041 6.981613 4956 
375.764465 2221.143799 7.523329 4957 
578.834961 2089.654541 6.845549 4958 
450.907928 2079.445068 16.771383 4959 
591.095215 2135.806396 14.164751 4960 
1246.517578 1419.525635 55.233772 4961 
1220.535278 2265.806641 3.749176 4976 
424.126556 1957.358398 6.729406 4979 
912.889038 2034.905518 4.599351 4993 
882.480591 2293.211914 10.500310 4999 
802.228333 2248.103027 12.502848 5002 
445.300354 1864.458618 5.123317 5006 
887.846008 1967.779907 5.717349 5011 
876.301392 2351.648682 4.627866 5013 
1140.483887 2424.304688 4.954327 5034 
899.770630 2478.061035 3.898501 5035 
2806.362549 480.740204 6.082186 5036 
2766.709473 353.143188 4.540966 5037 
2732.873047 481.176941 4.654825 5038 
2793.663330 2192.147705 3.816998 5039 
2743.940918 2202.520996 3.981198 5040 
2713.532471 2393.449951 4.048706 5041 
2587.687744 359.668365 4.164035 5042 
840.078979 2326.735596 4.675920 5043 
2802.169434 388.342224 4.466614 5044 
2814.474854 2048.238281 5.087082 5045 
2729.050537 321.816315 5.502909 5046 
2732.665527 562.791626 4.067861 5047 
2732.270020 960.134888 3.569687 5048 
2704.542236 658.678284 5.082217 5049 
2621.891113 122.886818 4.166813 5050 
2602.078369 429.357208 6.288579 5051 
1259.506104 2349.441406 3.852121 5052 
816.570801 559.296448 4.153253 5053 
751.700806 2543.129639 4.377981 5054 
2852.490234 436.190948 4.376669 5055 
2795.110352 2152.556152 4.988896 5056 
2632.290283 77.586296 5.454240 5057 
2635.343018 436.609314 4.003737 5058 
2532.068359 382.244904 4.620702 5059 
2497.568848 282.098175 4.617984 5060 
814.716980 132.583862 3.926183 5061 
2787.421631 192.235626 6.785035 5062 
2689.283936 600.929016 6.051695 5063 
2547.864746 281.261627 6.813314 5064 
988.361267 2476.286377 4.262308 5065 
2814.479004 276.559845 5.796235 5066 
2746.360107 191.774445 5.429414 5067 
2747.546631 242.741516 6.062898 5068 
2748.575439 286.490936 4.247493 5069 
2753.140381 419.664612 4.072021 5070 
2647.237305 376.856720 4.684853 5071 
2680.483154 2269.807861 7.606746 5072 
2437.863281 235.637619 4.074581 5073 
930.518616 2498.555176 3.935527 5074 
2898.844727 2482.267822 6.143377 5075 
2728.842529 382.608978 6.180883 5076 
2785.562500 2347.432861 5.737491 5077 
2597.468506 294.706940 6.252838 5078 
1279.400635 2311.723633 4.560091 5079 
1255.506470 2267.840088 5.076496 5080 
971.463074 2245.761230 5.730118 5081 
883.382141 50.131058 4.453077 5082 
903.851318 2403.782471 4.192369 5083 
881.894653 2364.282715 5.341827 5084 
768.434387 2393.552246 4.660505 5085 
2817.041016 2291.259033 10.519461 5086 
2474.433594 83.579208 6.358839 5087 
1054.251221 2135.174805 6.000281 5088 
1024.821533 2399.531738 8.527878 5089 
878.633362 2415.548096 7.473606 5090 
2235.271973 1342.000488 10.650871 5091 
1039.184204 2037.214111 11.370166 5092 
908.723938 2387.417969 10.864620 5093 
2872.489502 2354.706055 8.381494 5094 
2767.528564 1458.346802 9.938004 5095 
2672.535645 172.911301 6.735999 5096 
2538.733154 159.592545 9.477681 5097 
1027.524170 2053.553223 5.614093 5098 
990.279053 2305.167236 6.536986 5099 
895.746216 211.656830 4.902467 5100 
2378.005371 147.167999 4.741641 5101 
846.667053 237.519699 4.016990 5102 
834.229065 2257.899414 4.076489 5103 
2873.976807 2531.532227 6.303700 5104 
2825.369141 2345.070557 6.997713 5105 
2470.709717 226.562866 5.869347 5106 
2471.363525 285.315613 6.770183 5107 
772.201965 1947.458008 3.902990 5108 
2879.328125 706.295166 4.272388 5109 
2909.353760 1922.994019 6.588797 5110 
2774.300049 2152.482178 4.533039 5111 
2783.181152 2220.480469 4.021245 5112 
2779.238281 2288.839844 4.470408 5113 
2651.029053 120.458717 5.875737 5114 
2709.778564 2412.131836 4.049806 5115 
2614.811035 182.106583 4.816689 5116 
2581.621338 185.267258 4.791267 5117 
2544.621582 92.106865 3.905921 5118 
979.390625 2281.528564 3.781930 5119 
789.740906 2489.969238 3.338703 5120 
2568.256592 311.588623 7.868902 5121 
960.722656 2482.067139 6.644696 5122 
898.742981 2012.234741 5.994996 5123 
852.673340 1919.847778 5.502232 5124 
821.903809 2170.671387 7.346341 5125 
729.908569 2123.375244 6.572545 5126 
1339.745117 100.818993 10.594450 5127 
808.293518 2325.584229 7.873890 5128 
1000.022095 117.506348 5.412447 5129 
1048.600952 2284.748291 5.573392 5130 
912.986206 2490.199463 5.822204 5131 
909.701416 2516.740234 6.297846 5132 
863.937500 2429.757324 5.456720 5133 
1082.620605 2503.011963 8.406764 5134 
849.108765 2461.288818 9.878646 5135 
797.451599 2224.408203 7.916622 5136 
2605.994629 352.372040 14.863953 5137 
907.816101 2125.800293 12.956902 5138 
2726.176025 294.355438 17.100327 5139 
2132.107178 2294.774658 16.894094 5140 
952.785400 2339.968018 11.062751 5141 
2704.924561 255.011719 17.758711 5142 
2485.942383 2040.293701 14.590357 5143 
938.252747 2270.562744 13.285133 5144 
1789.182007 155.976913 16.094032 5145 
1061.268188 2242.316406 13.713536 5146 
1046.176636 1261.330566 24.901411 5147 
2849.528320 422.226654 6.194875 5148 
2814.162354 566.433838 6.205147 5149 
2857.038818 2067.835205 5.058683 5150 
2775.652588 408.991638 4.950677 5151 
2791.713867 2273.258057 4.517882 5152 
2698.368896 153.383469 4.871253 5153 
2674.810547 641.933716 3.876082 5154 
2556.644775 72.242966 4.883983 5155 
2565.060059 400.125824 5.754648 5156 
2517.218506 561.004456 3.741688 5157 
1297.102417 2360.032959 3.623992 5158 
2804.088867 2322.077148 6.173250 5159 
2706.076660 110.574821 6.914877 5160 
2499.757812 254.612457 5.637157 5161 
1093.140991 2141.614746 4.650440 5162 
1032.248779 2322.501465 5.275668 5163 
1032.456787 2379.419434 5.225208 5164 
1012.275513 2537.691406 4.754854 5165 
826.628845 2531.068604 4.816823 5166 
2873.563477 797.260925 4.003650 5167 
2788.595215 538.895386 5.291333 5168 
2716.557617 568.333130 5.132831 5169 
2759.901855 2183.095215 4.856324 5170 
2764.746338 2332.399902 4.395284 5171 
2675.759766 368.609161 4.961811 5172 
2676.177979 391.158936 6.126007 5173 
2643.652832 453.211029 4.543857 5174 
2567.873535 90.724266 3.948407 5175 
2409.053467 99.323822 8.574461 5176 
1019.166382 2504.662109 7.139467 5177 
833.819824 162.450760 5.422948 5178 
830.125732 2477.086182 6.357913 5179 
698.276306 104.699440 5.636796 5180 
1149.074707 2300.704834 9.389748 5181 
738.598389 240.889389 8.291181 5182 
2871.992432 2138.083008 8.622989 5183 
2530.038818 246.290741 8.251507 5184 
935.710754 2433.749756 6.541145 5185 
745.125244 2222.503418 5.648167 5186 
2843.204102 2161.944824 7.858001 5187 
2667.897705 469.794189 7.837402 5188 
2666.289551 916.427368 7.369168 5189 
863.322083 61.528828 5.971624 5190 
897.621643 2217.109131 7.066863 5191 
2573.435059 397.607941 10.346778 5192 
1256.376465 245.226273 5.343215 5193 
1031.251221 2452.489990 5.545054 5194 
985.314270 2401.036865 8.163088 5195 
848.786682 2450.215088 5.571241 5196 
723.769226 117.962730 5.798260 5197 
2828.374512 2199.937012 10.389387 5198 
2758.054199 2362.791260 8.276238 5199 
2628.540283 101.260063 8.396464 5200 
1103.488770 2214.477783 4.539655 5201 
2842.018799 2046.947510 6.868416 5202 
2549.634277 213.342865 6.151723 5203 
1227.620972 2450.930176 5.704545 5204 
829.495850 1991.452026 3.926797 5205 
2868.809082 769.533569 4.301010 5206 
2887.691162 2504.030762 3.912211 5207 
2847.177979 2233.208496 5.155945 5208 
2692.153320 568.541321 4.291595 5209 
2739.923584 2334.368408 5.356749 5210 
2618.265381 442.271912 4.215251 5211 
2538.571777 42.270470 4.411813 5212 
1113.605225 2442.470703 3.751588 5213 
930.905518 2046.385864 3.721823 5214 
2706.167480 545.747864 7.450641 5215 
2665.547607 213.223679 6.282784 5216 
2672.617188 547.221313 6.491495 5217 
2622.587402 252.221359 6.246154 5218 
2684.231201 2462.164062 6.637132 5219 
969.520813 186.905960 3.622772 5220 
2930.730957 2222.321045 3.794322 5221 
2851.938232 870.792908 5.045941 5222 
2772.440430 541.915710 4.962037 5223 
2829.366211 2421.176514 4.398153 5224 
2731.768799 190.554291 4.990537 5225 
2731.309570 237.030151 4.545131 5226 
2685.361572 120.290459 4.172473 5227 
2620.093018 269.003265 4.421242 5228 
2553.540039 321.982635 4.838108 5229 
2513.935791 147.752563 4.868488 5230 
2516.319092 257.689728 4.618668 5231 
2483.741943 277.387970 4.348924 5232 
2450.825684 233.036819 3.939262 5233 
2369.697754 152.003006 3.735379 5234 
2274.718750 160.645065 3.755491 5235 
1668.905518 2528.913818 3.940094 5236 
784.395386 625.254517 3.887693 5237 
967.037476 2389.981934 4.959052 5238 
895.599792 2414.801758 4.823134 5239 
716.323242 357.866699 4.361381 5240 
2870.275635 151.708344 4.442270 5241 
2898.489746 2504.372559 3.717643 5242 
2771.376953 584.972290 5.165807 5243 
2821.536621 2324.497803 6.342822 5244 
2823.824463 2365.825195 6.130178 5245 
2693.120117 837.008057 3.942724 5246 
2753.143555 2332.344727 5.487313 5247 
2661.361572 310.002777 4.639697 5248 
2668.887695 606.245850 4.721987 5249 
2715.024414 2286.688232 4.892500 5250 
2718.743896 2346.729980 4.426680 5251 
2624.378662 85.734291 3.627448 5252 
2591.489990 457.087463 4.430168 5253 
2477.238525 547.126709 3.865624 5254 
2772.877930 136.418854 5.433676 5255 
2598.124268 180.685028 7.181298 5256 
1149.496338 2415.889404 4.910604 5257 
862.801941 547.916504 4.001896 5258 
883.284058 2381.982910 5.882705 5259 
2844.273438 146.810745 4.506763 5260 
2902.896973 2175.987793 3.990346 5261 
2815.206299 389.709259 3.935383 5262 
2778.482422 324.305847 5.201064 5263 
2831.644531 2261.325684 4.666554 5264 
2702.218506 900.180420 3.928551 5265 
2668.046875 125.867783 3.733071 5266 
2671.545654 323.598633 3.668404 5267 
2724.961670 2300.398438 4.154677 5268 
2630.715576 54.329887 3.930727 5269 
2564.885986 279.407135 4.813689 5270 
2626.629639 2502.004639 3.806323 5271 
2530.262207 281.977600 4.797088 5272 
2498.101807 171.136841 3.758404 5273 
2881.100586 2254.758545 6.119496 5274 
2809.312744 2185.802246 7.116341 5275 
2544.795166 236.749054 5.931224 5276 
1137.296997 2532.466309 3.698626 5277 
767.746338 2273.769043 4.814240 5278 
2849.599609 115.372963 4.152010 5279 
2833.427490 2239.012939 4.946982 5280 
2606.290283 212.199478 5.605115 5281 
2668.543457 2440.585693 5.741620 5282 
929.746704 2488.206543 4.111332 5283 
2833.007568 85.248032 6.321471 5284 
1288.436768 104.989075 3.802083 5285 
879.788208 2462.565918 5.697878 5286 
2550.604248 383.684723 7.880159 5287 
1248.162598 154.549759 7.165181 5288 
874.325256 2206.676025 5.229120 5289 
879.251282 2439.827637 6.439638 5290 
791.972656 2505.503174 5.800117 5291 
743.260071 2204.729980 5.602856 5292 
2809.214111 195.436737 9.822962 5293 
1039.779297 2245.943115 6.376794 5294 
898.400391 2501.796143 7.950406 5295 
761.666138 235.020523 7.102875 5296 
756.269958 2482.165039 5.798847 5297 
1172.514526 221.208649 3.794533 5298 
1008.297913 411.408051 3.532309 5299 
2693.378906 97.395767 6.709512 5300 
2697.388184 346.626251 6.198183 5301 
2613.165039 283.265137 7.029970 5302 
2617.645508 475.487915 5.966580 5303 
1166.020752 2368.672363 4.197812 5304 
1046.054932 2459.752686 4.822511 5305 
685.070496 684.773254 4.377535 5306 
2859.352783 2520.496338 5.107876 5307 
2805.502686 2082.457764 5.099007 5308 
2689.379395 308.895721 5.056453 5309 
2690.964600 554.906067 5.799448 5310 
2738.843750 2212.308838 4.815822 5311 
2750.770020 2529.120361 4.375108 5312 
2656.569580 496.143311 4.187510 5313 
2615.135254 304.187103 4.884436 5314 
2583.052979 369.897339 4.169042 5315 
2479.372070 196.607285 4.431579 5316 
946.370667 2048.059570 6.910648 5317 
866.184570 2404.189941 6.356692 5318 
873.199036 2531.946777 6.045177 5319 
822.293091 2260.204590 5.368112 5320 
904.517761 165.431686 7.987477 5321 
960.322510 2427.213135 4.987576 5322 
725.078125 2194.223877 5.276375 5323 
1098.578735 2349.975586 11.852645 5324 
1032.313965 2351.838135 13.946838 5325 
2815.491943 1281.522339 5.287868 5326 
829.169678 2380.648438 11.432700 5327 
2656.310791 1201.865356 15.902939 5328 
2047.847412 2383.891357 19.197664 5329 
869.170532 126.581604 9.925367 5330 
942.009888 1238.005249 9.896083 5331 
894.549316 191.945526 19.151688 5332 
1087.337769 1479.060669 41.333183 5333 
2497.169922 1148.439575 41.072582 5334 
2248.406250 1918.845947 37.057720 5335 
2160.564453 2091.609131 39.958942 5336 
2886.510498 630.035767 3.762889 5337 
2861.867676 2080.018066 4.337345 5338 
2795.271973 2310.512939 5.334898 5339 
2626.390869 174.888092 5.466603 5340 
2588.741455 46.213734 4.594326 5341 
2556.342285 89.264130 4.705978 5342 
2559.609619 158.225784 4.650114 5343 
2489.016113 181.026047 4.328099 5344 
2331.286377 318.564575 3.824079 5345 
1299.467163 113.830124 3.800364 5346 
1156.241089 2348.059570 4.191201 5347 
2761.476562 2198.141113 5.789628 5348 
1104.174927 2285.349121 4.613725 5349 
1055.798950 2522.777344 4.508958 5350 
987.668884 127.814026 5.312191 5351 
967.643188 2023.482178 5.021167 5352 
867.462463 530.982849 4.591226 5353 
889.563171 2484.522217 4.450117 5354 
707.685059 2316.608887 5.031561 5355 
2877.532715 905.787292 4.274640 5356 
2801.589844 2281.659424 4.076209 5357 
2762.411377 2157.475098 5.399787 5358 
2606.237061 448.754395 4.948891 5359 
2524.857422 553.784546 4.072949 5360 
1015.168945 103.701111 7.924344 5361 
1016.923523 2323.955322 5.940464 5362 
919.646606 2409.322266 6.136166 5363 
858.059692 1905.275757 4.826289 5364 
830.314087 2453.250977 6.606470 5365 
739.793213 124.587692 6.359761 5366 
780.805786 99.381187 8.295321 5367 
2867.777832 2163.707520 8.668916 5368 
2393.165283 137.763504 7.261388 5369 
871.119751 2032.606934 4.749260 5370 
712.135559 671.093445 7.182574 5371 
831.999390 2512.529053 7.720187 5372 
1301.220703 2321.191162 6.668212 5373 
1048.374390 2428.004150 5.945045 5374 
902.697327 225.605530 5.303639 5375 
767.442200 2365.966553 4.668402 5376 
952.834351 2001.919678 8.437634 5377 
877.059753 2452.858643 10.155997 5378 
1165.516968 2153.109375 6.136818 5379 
989.981201 2489.693359 4.852473 5380 
804.069946 144.685760 8.029091 5381 
679.894592 136.483414 6.600056 5382 
859.691040 270.817780 7.099254 5383 
2771.944336 2008.481567 8.395419 5384 
2344.945068 92.717712 5.064378 5385 
1145.890259 276.497375 4.199974 5386 
1266.724854 2336.689941 4.059264 5387 
1152.159790 2436.102539 4.636271 5388 
2592.632812 1260.482788 4.088462 5389 
2822.913574 107.326134 3.816260 5390 
2887.240234 2489.085693 3.838312 5391 
2889.285645 2519.972412 3.860585 5392 
2791.166260 345.982880 3.569731 5393 
2801.044189 784.697754 5.458163 5394 
2683.885010 209.308426 4.313204 5395 
2701.625488 2272.554932 4.214418 5396 
915.721863 2223.248047 3.733214 5397 
900.434753 2390.635986 3.865553 5398 
2767.196533 202.407822 6.987408 5399 
2794.569336 2415.828369 5.426210 5400 
1786.548096 1392.472656 4.895012 5417 
1115.553345 378.822235 5.052289 5418 
733.615356 1901.289429 4.433001 5419 
2715.691162 1609.105225 4.852461 5420 
1340.643188 860.326660 10.842849 5421 
1881.084839 1867.101196 40.818233 5422 
1839.035522 1374.486572 44.614834 5423 
670.664246 2047.741699 5.395443 5424 
1285.649902 2275.522949 5.220102 5425 
920.513306 2351.855713 5.992733 5426 
791.538635 2182.616943 4.575526 5427 
321.013031 1969.318726 6.010433 5428 
1091.723145 2194.235352 6.309779 5429 
581.883728 2043.336670 4.490510 5430 
673.447510 1799.550781 5.039495 5431 
375.732239 2024.311523 5.334486 5432 
1015.880737 2407.548096 4.552660 5433 
613.898438 1805.527344 4.512569 5434 
1113.974365 2547.025635 4.216704 5435 
415.613739 1885.420898 7.496791 5436 
531.761780 1990.336426 9.326058 5437 
358.545258 1888.157227 6.841734 5438 
614.066101 1793.666138 4.556379 5439 
603.906677 2110.007080 6.238594 5440 
1066.708496 2119.435547 4.392742 5441 
604.967529 2035.037231 6.997427 5442 
376.539764 2011.033203 5.087796 5443 
1044.407593 2508.279053 6.664382 5444 
372.429810 1860.700562 6.084058 5445 
548.696106 2065.545898 5.291263 5446 
588.733521 2013.004517 8.341540 5447 
567.528381 2039.533813 6.957246 5448 
