ply
format ascii 1.0
element vertex 636
property float x
property float y
property float size
property short id
end_header
1327.562134 253.405334 19.857698 21 
2732.543701 538.000427 13.092153 28 
1326.909180 435.744690 33.974274 69 
1325.030518 199.659927 17.261517 104 
2449.661133 639.680542 8.805244 115 
1367.607300 302.275604 24.775873 121 
1608.610474 2427.001709 5.088032 137 
2346.299805 1146.608276 11.271703 144 
1497.929321 1172.546021 12.816168 146 
2613.473145 169.280304 10.709431 160 
2470.716553 104.121277 7.126756 164 
824.768738 1306.573730 5.298895 169 
976.379211 913.616455 20.433451 170 
1869.670532 2277.838867 5.627481 171 
596.166809 1374.116821 5.859623 172 
1468.116455 2093.235596 9.732214 173 
636.084045 1816.267578 4.790174 174 
2828.679443 118.050201 3.730611 175 
2973.507324 158.563309 3.962765 176 
1729.598267 929.430664 15.638643 177 
1895.331421 255.849426 12.896538 178 
956.186523 1048.146606 9.108691 197 
3079.742188 224.075012 11.641326 474 
1367.189331 597.119324 8.070930 479 
2412.018799 983.732544 6.721698 485 
613.765930 1578.280029 9.309961 523 
1757.453003 1180.990845 9.812527 527 
465.605011 98.462166 7.501765 535 
2839.385010 1602.098267 12.128684 536 
2416.405029 920.742737 15.573001 537 
2349.976562 1060.194336 17.230785 538 
2536.688965 641.416382 8.891438 539 
2796.277832 1188.065063 4.842093 540 
3035.726807 260.539856 5.102984 541 
1331.772095 1774.053101 11.165375 542 
1881.630615 1585.556763 10.012267 543 
1341.625732 632.693054 16.994282 544 
2229.458984 2055.821289 6.141335 545 
1699.299805 1112.341187 50.312160 546 
1604.412354 657.070435 10.469712 547 
1642.119141 1109.405396 5.525632 548 
2430.232178 1321.572754 5.418544 549 
3165.304688 745.615967 5.966063 560 
648.496887 287.647125 4.690126 567 
630.971863 515.755371 5.129405 572 
3199.534668 1540.020386 7.478352 721 
2717.221680 1988.712891 13.478042 797 
2765.611816 2029.562866 13.204144 798 
2568.209717 2482.902344 4.844980 872 
634.926208 582.586609 8.633067 901 
2648.087646 2485.133301 5.545156 902 
2562.719727 79.615738 3.853898 930 
1867.661377 1120.380737 4.067942 958 
1020.086487 1473.382324 9.258998 998 
287.848694 1665.392822 4.470883 1111 
2734.827148 2282.209229 5.233153 1112 
1958.581787 1680.367065 13.835820 1113 
2657.575684 1764.076294 14.012271 1114 
2860.625488 2330.026123 8.984611 1115 
1258.390869 828.770813 8.615987 1116 
2200.586182 967.467163 9.222594 1117 
2721.994873 1641.261841 6.785335 1118 
657.490601 168.942902 6.289270 1119 
2639.602051 1323.288086 8.497766 1120 
1357.278076 1721.404663 4.707499 1121 
2939.897949 2293.198486 15.021399 1595 
2818.112305 2547.595703 4.500351 1658 
2801.407227 771.367676 11.481931 1661 
2861.654785 1129.257446 4.990488 1675 
2804.903076 2087.101074 14.535169 1696 
2300.102539 1651.383057 7.564389 1697 
2197.393311 2324.903320 6.598913 1698 
2759.814209 1304.669312 12.833627 1699 
1260.889404 782.890259 7.071672 1700 
1814.353760 729.504639 54.822292 1701 
3165.455322 790.448853 5.534000 1702 
2494.823730 2499.761719 4.279295 1703 
931.402893 507.350861 12.752891 1722 
1326.558594 2255.532715 21.290024 1777 
2427.403076 1257.507690 19.017517 1807 
1318.604492 2145.535889 24.996405 1814 
2868.561279 570.645874 12.646217 1816 
1401.577148 2169.950684 25.541147 1818 
1794.274292 1069.266113 4.768988 1829 
2735.803711 588.265747 6.698751 1832 
2776.814697 582.350159 6.240476 1836 
2761.680176 545.192078 9.792658 1850 
2627.642334 912.799866 5.132610 1905 
783.701599 1022.585938 22.577305 1908 
1132.350708 2330.348633 13.361019 1909 
1589.532593 2216.356445 20.377729 1910 
2190.219971 1629.352905 6.369497 1911 
1277.868896 1122.943726 4.172275 1912 
660.831909 82.029915 5.568425 1913 
2826.260986 558.979736 17.074800 1914 
1811.681885 954.492432 11.919514 1915 
2852.187012 2518.907959 7.245718 1916 
2698.283691 770.176636 4.586632 1917 
1223.528442 2304.024414 9.861019 2031 
238.307953 2181.860107 15.166334 2267 
2822.427979 2464.347900 4.627966 2323 
2670.003174 501.096283 6.488737 2333 
2785.684570 534.741516 11.344059 2339 
2538.876953 1129.794434 8.617115 2340 
1498.210205 1086.456299 10.748705 2341 
1582.438354 832.424377 20.182362 2342 
1584.783936 563.584717 19.690439 2343 
2651.902588 951.996277 3.956392 2344 
2461.202881 860.329224 8.602603 2345 
2662.506348 726.501526 34.360390 2346 
2921.451660 231.121674 11.010077 2347 
660.929260 285.591827 4.844728 2348 
296.370605 894.731689 6.358472 2349 
1581.000366 304.066284 19.184610 2367 
1279.813477 291.160492 26.632463 2382 
2492.108154 2015.457397 8.058960 2468 
3021.416016 880.497009 4.252053 2530 
3031.886230 1122.259888 4.066364 2533 
3035.799561 1266.215454 4.377056 2534 
3032.274170 1231.609497 4.597196 2548 
3056.037842 1951.691895 4.533955 2553 
2711.665039 502.937622 12.756372 2609 
385.590454 1515.637451 6.912831 2613 
3014.081543 468.168518 5.924200 2643 
3032.364746 951.396301 6.397843 2652 
3031.865479 874.197815 4.910955 2664 
3018.877930 1021.028198 15.750251 2682 
2769.438965 1986.659912 16.016331 2683 
430.981873 1538.918091 12.794295 2727 
3056.116699 1917.490234 4.453403 2728 
3016.395020 811.033447 3.618461 2729 
3028.722900 1057.568726 4.143813 2730 
3046.993896 1671.328003 3.660562 2731 
3013.848633 708.753113 4.260363 2732 
3048.376953 1694.935303 4.320723 2733 
3026.230469 1083.198364 3.858762 2734 
395.433136 1475.408691 4.900428 2735 
2964.231934 1591.901367 8.682981 2736 
2738.286865 2444.656738 3.668781 2737 
588.526489 1542.825562 4.063908 2738 
436.376007 452.342651 5.774681 2739 
3386.380371 1861.852783 8.015759 2740 
396.351410 1628.774048 9.249650 2741 
3027.354004 796.779541 6.595000 2742 
635.963989 1038.714233 6.315023 2743 
590.417419 1303.976929 4.221144 2744 
2160.777832 2311.899170 7.249365 2745 
3044.348633 1579.695435 3.929124 2750 
3044.873779 1599.186401 4.545229 2751 
3041.196289 1433.932983 4.414985 2755 
3042.708008 1557.133179 4.388672 2756 
3008.331055 953.854004 19.319490 2762 
3048.661377 1349.575317 4.490131 2766 
2239.436279 1809.076538 4.772100 2768 
2224.435547 1767.771240 12.560705 2809 
2783.790527 2102.483643 6.836162 2838 
372.716187 1443.663208 9.044724 2840 
180.460281 2449.000977 6.972329 2841 
382.102295 2382.070557 6.243000 2842 
405.558105 2164.912354 4.506314 2843 
325.700287 2406.067383 4.609376 2844 
380.325043 2340.392578 4.953591 2845 
392.269043 2137.883789 7.224001 2846 
398.205841 1606.775879 6.419606 2847 
529.809387 1661.731934 5.049275 2848 
384.635101 2178.026611 5.632282 2849 
609.938660 1966.191528 5.114734 2850 
386.162994 1655.676025 7.011233 2851 
347.222015 1808.255127 5.410427 2852 
344.650574 2091.397705 4.780396 2853 
317.878265 2447.520264 4.183304 2854 
696.342224 1152.112671 6.195612 2855 
195.796127 2383.161377 9.085724 2856 
220.716919 2461.388672 8.126344 2857 
218.624100 2299.596680 8.934980 2858 
653.971436 1024.090332 13.159650 2859 
104.790695 2305.795898 10.366360 2860 
647.992188 1471.438232 13.193985 2861 
574.028381 2022.079834 12.854697 2862 
2533.559814 1888.811646 15.821877 2863 
446.935486 472.688263 17.783758 2864 
739.706848 689.623657 10.859653 2865 
408.766266 1918.591797 31.103861 2867 
361.516968 1741.729248 6.959304 2868 
614.224548 1488.920654 5.061544 2869 
341.653992 1945.072632 5.034933 2870 
598.333130 1898.803589 5.996531 2871 
3015.888184 328.605652 5.276037 2872 
361.082062 2425.482178 8.032477 2873 
577.223328 1200.122314 4.916601 2874 
393.472107 1882.519165 6.081579 2875 
3019.651611 858.540588 4.644288 2876 
134.527405 2380.637695 6.527647 2877 
348.049866 2452.695801 7.012387 2878 
74.969620 2395.660400 5.316113 2879 
387.740875 2066.295410 5.708903 2880 
3024.064209 936.088867 4.311642 2881 
1318.519287 1564.983765 11.486850 2882 
2575.352295 505.533691 14.340006 2883 
292.278534 2437.344727 10.600249 2884 
367.123291 459.162415 4.564662 2885 
360.398590 2226.036865 12.158442 2886 
212.555756 2209.548584 9.472997 2887 
366.436523 2041.501953 10.590803 2888 
2501.618408 1621.562256 6.746676 2889 
2471.881836 1809.465942 5.052279 2890 
636.273743 1021.330811 4.874701 2891 
373.804077 1831.093872 6.027617 2892 
373.524506 2460.293213 4.329829 2893 
3008.759521 636.451660 4.232153 2894 
244.351730 2430.507568 6.080829 2895 
1998.176880 350.421753 4.282574 2896 
2934.153076 1193.816650 6.346879 2897 
3033.796387 1288.780884 3.850627 2898 
195.084702 2313.001709 5.863012 2899 
375.851105 2231.176514 5.824857 2900 
329.543457 2382.101318 5.777754 2901 
614.049561 2317.835205 6.018250 2902 
3005.960693 520.513184 4.874315 2903 
61.654636 2385.213867 6.542861 2904 
213.506668 2188.045898 6.030449 2905 
160.127090 2472.262451 6.525862 2906 
627.679504 1165.927246 4.903560 2907 
413.480103 1880.934326 5.818306 2908 
109.523087 2407.670166 5.798726 2909 
267.571289 2489.286377 4.387614 2910 
3001.748779 712.864441 4.731144 2911 
352.789581 2025.523315 6.408567 2912 
388.936035 2312.338867 6.693102 2913 
401.930481 1776.506226 6.094266 2914 
588.079041 1783.458252 4.750459 2915 
174.886612 2463.406250 5.081584 2916 
636.703735 1837.798340 4.676489 2917 
3023.651123 723.791321 6.084212 2918 
2558.396973 1655.635132 6.866931 2919 
1281.193481 155.526321 9.618157 2920 
3004.307129 310.343140 8.689612 2921 
388.238403 1486.239990 5.432058 2922 
363.463165 1775.445312 6.214734 2923 
128.081909 2336.828125 4.767486 2924 
415.851929 2093.633789 5.674494 2925 
332.565948 2395.970215 4.562675 2926 
637.961182 2490.258789 4.672047 2927 
179.956314 2399.232666 7.357337 2928 
234.500778 2046.430908 9.880550 2929 
252.435272 2460.479736 10.542537 2930 
641.020691 344.128357 7.402986 2931 
625.075562 2164.080566 8.411590 2932 
3075.104004 275.284454 27.803686 2933 
1180.739258 1372.442749 60.315159 2934 
1319.635132 1816.810059 62.235168 2935 
1451.928589 1666.381226 56.243263 2936 
591.630920 1200.728149 6.549170 2937 
130.937805 2396.053711 5.873000 2938 
409.927551 2120.125977 6.128148 2939 
3040.342041 1140.206177 6.491862 2940 
585.479919 1472.771729 4.570912 2941 
276.841919 2400.314941 5.754120 2942 
402.815796 1865.750732 8.475218 2943 
198.987411 2512.511230 7.766657 2944 
361.194153 2382.072998 7.334525 2945 
3039.850098 1179.887695 7.502318 2946 
635.391418 1715.445801 5.426847 2947 
193.992691 2475.865723 5.489728 2948 
3030.462646 1550.957275 5.223285 2949 
3020.468018 1205.407471 6.061845 2950 
2903.652832 1104.408081 8.911836 2951 
2980.647949 1636.938232 7.448072 2952 
217.787399 2235.095947 8.458105 2953 
239.125626 2323.754883 9.580235 2954 
367.487274 1710.430176 9.769783 2955 
603.552246 2035.974854 8.632463 2956 
397.017914 2045.236328 9.235174 2957 
149.193314 2306.582764 7.053152 2958 
163.451340 2494.711426 6.135968 2959 
200.800049 2451.774902 6.456488 2960 
280.890015 2540.932617 4.607948 2961 
3006.046143 825.431702 6.172402 2962 
404.613373 1731.020508 7.586958 2963 
176.438248 2358.554199 6.852876 2964 
190.971573 2337.912598 6.352892 2965 
3040.147949 1113.163330 4.583155 2966 
392.180023 1361.919678 8.044573 2967 
612.376038 1948.191284 6.208429 2968 
624.398865 2304.617188 6.495996 2969 
535.874146 2389.418945 5.376174 2970 
392.481171 2160.081055 5.703100 2971 
406.676666 2143.294434 4.967102 2972 
3365.549072 424.556702 5.165423 2973 
369.591339 1521.395386 5.323547 2974 
629.867859 1995.890747 5.430129 2976 
386.848969 1808.289795 7.502960 2983 
3166.843018 722.631042 5.038792 2993 
3021.689697 918.189148 3.910669 3005 
3185.041016 1455.268555 3.889939 3009 
2803.507080 150.565689 4.871202 3070 
2698.226074 139.124115 4.118373 3071 
2550.923340 79.518234 3.828821 3072 
2523.897705 96.513397 3.784870 3073 
2737.720459 39.509674 3.618982 3074 
2628.652100 539.314087 9.440135 3075 
2740.973389 956.279297 13.978261 3076 
2734.756592 616.012939 16.444954 3077 
2786.939697 559.019104 13.035925 3078 
2489.281982 451.208466 12.800947 3079 
2687.659912 474.151947 16.726419 3080 
2596.429443 1381.562256 14.746730 3081 
2238.085693 1140.209351 16.838945 3082 
2119.438232 1248.114136 28.897387 3083 
1328.023438 354.546204 24.353329 3084 
2315.460693 556.328918 29.180937 3085 
2119.000732 1233.391113 24.991400 3086 
2588.511475 2482.409424 4.515453 3087 
2354.584473 67.123123 3.717567 3088 
2439.432373 300.384552 5.342675 3089 
2701.185791 2460.360840 5.081218 3090 
2341.080078 2510.055420 5.032283 3091 
2762.051758 48.249680 5.379600 3092 
2213.961182 1057.495605 7.263891 3093 
2757.756836 2463.860596 4.965163 3094 
2750.156982 44.178196 4.725008 3095 
1846.192749 302.417358 3.974779 3096 
2659.688721 2506.489746 4.717464 3097 
2817.446777 190.282990 4.347725 3098 
2740.955811 205.622665 10.435680 3099 
2655.502686 124.432091 6.157872 3100 
2633.245361 2491.656250 7.277592 3101 
2697.595215 2512.752197 3.786047 3102 
2685.282715 108.341805 3.711834 3103 
2619.883789 2512.509766 3.716600 3104 
2749.174072 160.031250 5.033037 3105 
2550.865967 120.183472 5.047602 3106 
2473.224121 48.960869 5.372451 3107 
2871.064209 2417.261719 3.859067 3108 
2857.419922 137.917740 5.151939 3109 
2647.894531 72.508690 6.293123 3110 
2774.472412 166.745438 4.196090 3111 
2511.089355 111.662346 4.828496 3112 
2771.870605 2462.453125 4.167395 3113 
2736.510254 163.556259 4.780278 3114 
2540.012939 2482.938232 3.950014 3115 
2847.129883 217.938370 5.960183 3116 
2806.256836 204.385941 7.290733 3117 
2329.292969 1595.026245 6.143750 3118 
1417.846802 224.261642 8.670979 3119 
885.216919 780.915283 17.394251 3120 
2751.189453 575.762634 15.700354 3121 
1961.444214 1014.639648 22.052647 3122 
1345.898315 2197.559814 21.101038 3123 
2485.813232 489.572723 35.568420 3124 
2146.760254 1385.519409 41.263161 3125 
2145.803467 1631.154663 41.021835 3126 
2138.791748 1012.198486 67.903313 3127 
2269.937744 1256.766846 56.516777 3128 
2027.323608 1004.583679 54.082775 3129 
2478.260010 457.801849 4.345421 3130 
2761.040283 60.258472 4.298064 3131 
2668.567627 92.386971 6.422278 3132 
2746.806152 2435.125977 4.725728 3133 
2836.460449 1783.101929 6.164732 3134 
2623.342041 157.446014 4.461828 3135 
2846.108398 2442.359375 5.813738 3136 
2764.738037 611.446960 7.733655 3137 
2715.185791 109.165405 6.869149 3138 
2715.706543 459.797028 7.834325 3139 
2712.488037 150.555176 6.901968 3140 
2705.469727 605.060425 6.621204 3141 
2660.723633 139.324127 5.753613 3142 
2563.417480 129.073502 7.991851 3143 
2510.204102 470.493988 8.718242 3144 
2754.663086 2476.823730 4.313483 3145 
2745.081299 190.837143 4.175326 3146 
2818.781494 82.524918 5.130064 3147 
2514.197021 100.490936 4.070809 3148 
2534.745605 105.614784 5.909889 3149 
2367.514893 2535.157959 6.335914 3150 
2708.479980 2012.561768 6.086772 3151 
2743.847412 121.124779 10.165127 3152 
1375.820312 349.232361 9.608246 3153 
1280.857178 336.794647 9.054574 3154 
1233.979980 284.675079 9.330198 3155 
2799.627197 136.303253 8.015418 3156 
2786.178955 1026.501343 3.863546 3157 
2477.767578 77.620270 3.752600 3158 
2419.996338 74.782394 4.055048 3159 
2848.927490 2478.706299 6.107255 3160 
2707.708252 179.834747 4.523000 3161 
2690.656250 2522.630615 5.913356 3162 
2860.326416 1666.326782 5.756599 3163 
1307.378662 579.209351 4.677885 3291 
376.719330 966.375183 5.877797 3366 
361.309021 1074.362671 6.383128 3367 
630.526489 1292.388916 6.319719 3368 
3071.022461 1726.407715 5.458439 3369 
395.271851 983.757996 6.120113 3370 
2914.058350 2005.340210 13.506112 3371 
373.512085 833.362122 7.714565 3372 
2990.584229 1998.325562 15.430745 3373 
2759.320312 1596.798096 14.293449 3374 
2663.919678 2358.744629 16.248970 3375 
1248.521362 2342.684814 26.568710 3376 
383.545593 1469.718750 5.558323 3377 
3008.920654 609.984131 4.738074 3378 
3024.186768 969.362793 4.577931 3379 
3008.782959 536.854065 3.518115 3380 
390.522919 793.136902 4.924777 3381 
390.379547 856.047852 3.812729 3382 
3246.213867 1040.575562 4.654768 3383 
598.107544 2218.035889 4.565603 3384 
388.624908 756.167419 5.962813 3385 
378.508301 931.944946 7.671876 3386 
1887.457275 1150.376587 7.345680 3387 
1872.920166 359.791168 5.361923 3388 
3008.374023 555.351257 3.909944 3389 
3252.724121 1061.543457 5.285987 3390 
338.946442 1189.712524 3.817330 3391 
404.667938 1351.007202 3.688131 3392 
3043.417969 1515.883911 5.317519 3393 
351.984924 1544.628906 5.106524 3394 
3014.772949 742.794617 3.694446 3395 
2773.992432 1057.278442 5.221978 3396 
3206.258545 1058.081299 5.011077 3397 
3266.563721 1087.379272 4.478575 3398 
3265.550049 1600.274170 5.477259 3399 
622.728333 795.518066 6.311257 3400 
410.062439 920.588867 6.281521 3401 
390.721680 1218.776855 5.725746 3402 
2982.192383 1582.465698 6.012008 3403 
3238.674561 1049.382690 5.068366 3404 
3044.014160 1275.674072 5.661774 3405 
359.430115 1822.122925 5.183158 3406 
3029.551758 837.818787 5.897149 3407 
2482.184326 1587.858887 5.950174 3408 
2959.937012 792.063477 35.042072 3409 
3022.603516 1295.425537 5.248881 3410 
365.943909 1458.232056 4.461213 3411 
614.546875 1555.769287 4.726468 3412 
3054.903809 1585.758057 5.600678 3413 
2986.082520 826.542725 6.257108 3414 
612.481995 873.037048 5.082287 3415 
631.033691 875.402771 4.196520 3416 
3038.622070 1067.453247 5.417484 3417 
3316.665283 1161.681885 4.233027 3418 
601.553162 1674.319336 6.575079 3419 
365.933807 953.194824 5.067716 3420 
633.553955 1392.701904 5.119960 3421 
397.928406 1101.518188 5.902583 3422 
625.493347 1396.992554 8.637748 3423 
641.582153 868.534485 7.911977 3424 
3030.208496 390.201843 3.619874 3425 
3037.721924 1030.218628 4.595136 3426 
3050.340088 1446.161377 4.782261 3427 
378.006775 1206.698853 6.523980 3428 
3043.730225 1237.044556 6.069276 3429 
3246.259766 1522.719116 6.968287 3430 
361.344604 1926.730103 6.804056 3431 
3031.252930 891.901123 5.580396 3432 
3031.999756 924.269958 5.120862 3433 
3053.813721 1467.477051 3.989397 3434 
3305.364014 1270.442871 4.951147 3435 
641.012268 795.946594 4.350603 3436 
3170.641113 861.375549 6.481909 3437 
3017.502441 1121.919922 6.027043 3438 
622.717407 2448.319092 6.794467 3439 
3025.514893 757.842651 5.286643 3440 
3035.860352 977.061035 5.552875 3441 
376.934082 1074.659302 4.852399 3442 
402.368866 1135.452515 4.652522 3443 
425.423309 301.614044 6.043269 3444 
400.919434 654.619263 6.241504 3445 
367.362427 784.760803 6.474963 3446 
425.824921 525.105408 4.237178 3447 
408.465942 588.022278 4.938069 3448 
173.440918 646.921631 7.338850 3449 
74.267868 739.936890 7.186906 3450 
406.537781 388.350037 7.119165 3451 
225.920197 643.197449 7.420560 3452 
419.989868 766.509460 8.376280 3453 
448.551117 837.154297 8.804921 3454 
2417.963379 1091.911621 6.450983 3455 
618.127991 1623.285645 7.240683 3456 
715.916199 1920.261353 7.729081 3457 
3540.376953 2239.078125 7.476102 3458 
750.262634 1749.632446 14.153101 3459 
318.674072 442.477966 19.301811 3460 
439.632141 473.926453 23.987192 3461 
2935.454590 1293.778076 18.177715 3462 
876.955566 1676.213379 26.081886 3463 
429.750366 57.691113 6.352197 3464 
217.929474 537.444824 6.659961 3465 
343.917877 1030.906860 6.066511 3466 
3354.453125 2232.006592 6.947195 3467 
373.836792 59.982536 4.654736 3468 
420.772949 635.183350 4.868290 3469 
412.904144 855.950562 5.222212 3470 
3448.635254 1485.754395 4.498673 3471 
403.530823 239.096573 6.096507 3472 
3472.345215 1540.598389 5.928385 3473 
393.533936 250.994614 10.919097 3474 
321.420319 680.221680 11.328377 3475 
2391.315430 1215.691650 8.661061 3476 
328.852539 339.937988 11.944304 3477 
647.375610 1368.497437 15.087503 3478 
3548.173584 1717.039062 12.222239 3479 
461.170929 179.155441 10.534987 3480 
3260.242920 2094.502930 11.184542 3481 
2876.889404 769.593262 12.639163 3482 
263.732452 637.555725 11.286853 3483 
3487.386719 1571.902832 7.404997 3484 
545.545227 742.553162 9.338346 3485 
2483.626953 1174.628662 9.526458 3486 
407.341278 263.749084 4.431947 3487 
202.192001 648.093933 5.087063 3488 
640.489014 808.741577 4.683945 3489 
367.140778 430.910645 3.888371 3490 
3410.601074 1179.799438 5.648678 3491 
3597.001709 2389.384521 5.524523 3492 
403.356873 172.086258 4.784839 3493 
295.397797 658.224121 5.115053 3494 
340.989014 987.148743 5.206140 3495 
493.066711 1108.209961 4.061985 3496 
364.787598 283.795746 5.504497 3497 
3010.134277 669.159912 4.587069 3498 
3560.452393 1538.997559 5.375902 3499 
3203.721191 2018.297485 4.254994 3500 
421.640869 404.795593 4.146603 3501 
3202.936279 2502.708984 4.417906 3502 
374.761658 558.428406 6.183657 3503 
3502.593750 1581.189453 5.764807 3504 
404.610107 410.512146 7.258110 3505 
146.679199 605.876343 9.986053 3506 
1368.864868 694.958130 12.426340 3507 
274.587860 833.177368 11.200899 3508 
354.006348 616.659973 17.233902 3509 
2728.755127 677.522278 26.199255 3510 
353.263855 799.482788 19.252289 3511 
1034.273682 928.086853 62.512608 3512 
3180.670898 1299.308838 4.164891 3513 
3048.262451 1363.637329 4.668706 3514 
3048.320068 1387.977539 5.363409 3515 
3223.854736 1420.846313 4.346889 3516 
107.029060 601.226990 6.992519 3517 
429.703552 1097.146362 4.911190 3518 
415.105988 62.852921 5.887427 3519 
3381.294922 1352.327393 6.326822 3520 
413.287994 250.408478 4.229926 3521 
3175.292725 1102.200928 4.045717 3522 
3439.640137 1100.300171 5.475890 3523 
3054.238281 1550.246338 5.288392 3524 
384.887299 207.153961 6.420471 3525 
651.329041 497.803772 6.446379 3526 
415.927063 621.648682 6.079636 3527 
643.011353 437.756989 7.843963 3528 
404.132172 106.376381 5.580738 3529 
3026.991211 776.410828 4.537368 3530 
3262.036133 1768.593994 5.126922 3531 
3480.879395 2413.966797 4.770662 3532 
613.941223 626.022400 5.828168 3533 
254.563370 615.398438 5.340146 3534 
3172.611084 989.844543 3.941282 3535 
589.329956 2228.074463 3.776663 3536 
303.096649 615.371399 5.968187 3537 
376.620239 270.575592 5.177662 3538 
1383.885498 1110.680420 5.037497 3539 
3475.760254 1557.918213 5.000771 3540 
3579.926270 1974.792236 4.429967 3541 
650.289490 96.070930 5.169401 3542 
403.403717 187.018921 4.583481 3543 
171.883575 605.730103 4.038935 3544 
3010.429443 929.238037 5.525384 3545 
3566.931152 1506.978760 4.151348 3546 
639.832458 385.257080 5.772363 3547 
421.083496 478.494141 5.839125 3548 
412.307373 668.047302 6.017057 3549 
2364.666748 212.729065 5.197374 3550 
178.561722 630.691162 5.282742 3551 
203.008621 662.491089 5.021850 3552 
3084.183594 2309.667480 3.802796 3553 
3104.718262 2397.989258 3.724839 3554 
1259.108398 1386.830566 5.780999 3555 
2539.236328 1075.875488 5.964206 3556 
929.173889 371.338654 16.365280 3557 
3024.427979 1815.075439 23.367968 3558 
3090.463623 2194.633545 3.642552 3559 
3087.906494 2021.225342 3.753601 3560 
183.796585 1319.071045 7.948249 3561 
373.035553 445.817078 5.858871 3562 
3088.104004 1986.732666 3.698746 3563 
2867.261719 1789.755005 5.878437 3564 
3014.581787 1573.639526 5.078845 3565 
1492.767090 1137.959961 7.171192 3566 
707.363037 1525.408569 9.534961 3567 
2869.827881 1524.330444 11.434602 3568 
3251.450928 1277.435669 6.840296 3569 
1676.196777 1280.307007 14.262834 3570 
438.998474 588.439514 3.696615 3571 
594.320557 1501.269409 6.225732 3572 
3197.219238 2396.075439 7.244625 3573 
1414.558472 316.681488 8.872942 3574 
2134.977051 2341.384277 5.063992 3575 
2817.073975 2444.128906 7.575193 3576 
3187.278076 823.886536 6.700434 3577 
1076.196655 652.648071 12.119638 3578 
2937.268555 1152.335815 8.295240 3579 
2929.564941 1625.272461 4.246902 3580 
3356.243408 1009.574524 6.765176 3581 
2139.171143 1132.739746 41.621433 3582 
424.686981 1810.280640 3.886009 3583 
3441.218018 2411.432861 3.583538 3584 
1202.877075 1657.464233 14.733208 3585 
2599.767090 1605.748657 14.876585 3586 
488.048126 1321.709839 5.098570 3587 
3413.513672 2463.257812 3.746515 3588 
1879.245728 1845.934204 8.973348 3589 
2724.092285 406.568054 7.447381 3590 
3189.008545 1726.835571 3.792646 3591 
2284.076904 963.376221 7.097992 3592 
3154.975586 473.201569 4.177129 3593 
3204.079102 535.604858 13.029793 3594 
612.351501 1371.547119 5.268620 3595 
2375.954346 1394.387939 5.659502 3596 
1045.609009 2152.581299 23.122580 3597 
2614.195068 1670.268921 5.433602 3598 
2135.371582 2517.425781 7.109750 3599 
604.474792 1350.790527 5.183493 3600 
718.620056 523.517212 5.519665 3601 
1500.511475 285.979401 31.717129 3602 
1322.472778 1098.684204 3.875169 3603 
1029.117676 1794.037109 13.519757 3604 
1866.656006 1090.833130 4.815371 3605 
2286.966553 1095.901367 8.750096 3606 
1883.059204 126.915710 9.113070 3607 
2401.622314 1317.441772 9.283034 3608 
1746.540894 2464.891602 3.901175 3609 
1627.837891 1072.683716 4.344732 3610 
2778.263428 1722.188477 6.502759 3611 
