ply
format ascii 1.0
element vertex 556
property double x
property double y
property double size
property short id
end_header
2.45637634277344e+02 1.21227917480469e+03 6.69093608856201e+00 12 
1.30950354003906e+03 3.14442199707031e+02 1.32826414108276e+01 20 
6.51343322753906e+02 2.07765991210938e+03 2.65428504943848e+01 21 
9.98686584472656e+02 2.42415588378906e+02 1.63301219940186e+01 28 
6.75292297363281e+02 1.94384667968750e+03 3.13770256042480e+01 31 
1.25617944335938e+03 6.28546691894531e+02 4.12271499633789e+00 48 
8.92197509765625e+02 2.07569775390625e+03 4.62487869262695e+01 69 
5.08756103515625e+02 4.16796813964844e+02 7.96368169784546e+00 88 
3.55405859375000e+03 8.53825744628906e+02 4.95033073425293e+00 94 
3.61156274414062e+03 7.70295227050781e+02 3.53723883628845e+00 112 
2.39178146362305e+02 1.43922888183594e+03 2.22817306518555e+01 127 
3.26113220214844e+02 1.08899462890625e+03 4.13465738296509e+00 151 
1.43238439941406e+03 1.19117297363281e+03 5.78808689117432e+00 152 
2.74913879394531e+02 9.12024658203125e+02 4.23485565185547e+00 153 
1.64012316894531e+03 1.45180126953125e+03 1.62642173767090e+01 154 
1.90818615722656e+03 1.08844873046875e+03 6.67734384536743e+00 155 
3.32202301025391e+02 1.01061083984375e+03 4.79562520980835e+00 156 
1.99324255371094e+03 1.65351599121094e+03 1.72845096588135e+01 157 
1.76684069824219e+03 1.70183654785156e+02 6.79360151290894e+00 158 
1.81760412597656e+03 1.28093359375000e+03 2.12211494445801e+01 159 
5.38130126953125e+02 3.94059844970703e+02 1.59233713150024e+01 160 
5.23856201171875e+02 3.84480438232422e+02 4.78080415725708e+00 161 
4.21365905761719e+02 7.17853271484375e+02 7.88789319992065e+00 162 
3.80378936767578e+02 8.59685668945312e+02 6.96017885208130e+00 163 
4.56960937500000e+02 5.77072753906250e+02 9.40219211578369e+00 164 
3.57265942382812e+03 1.91401428222656e+03 9.72857666015625e+00 165 
2.98002514648438e+03 1.02790454101562e+03 8.56675052642822e+00 166 
3.05358154296875e+02 1.08808056640625e+03 1.19210863113403e+01 167 
3.78012622070312e+03 1.73003979492188e+03 5.28823804855347e+00 168 
3.64867675781250e+03 1.64589343261719e+03 2.29213523864746e+01 201 
3.78153222656250e+03 1.76049780273438e+03 8.28640174865723e+00 234 
3.80277368164062e+03 1.79398413085938e+03 5.27814912796021e+00 256 
3.54587353515625e+03 7.96609802246094e+02 9.81829929351807e+00 268 
3.81044262695312e+03 1.44935644531250e+03 6.86735916137695e+00 273 
3.56486645507812e+03 9.84831726074219e+02 5.50226116180420e+00 274 
3.56032324218750e+03 9.10612670898438e+02 5.52692031860352e+00 279 
3.79969482421875e+03 1.43134973144531e+03 7.87872123718262e+00 284 
3.66013647460938e+03 1.55663375854492e+02 5.02508211135864e+00 301 
2.12298461914062e+03 3.93111694335938e+02 1.03266372680664e+01 506 
2.34211889648438e+03 1.68513793945312e+03 1.38647785186768e+01 508 
2.97560119628906e+02 8.31745727539062e+02 4.80356979370117e+00 524 
1.73591345214844e+03 5.45155822753906e+02 8.76070976257324e+00 525 
3.67546972656250e+03 6.60668945312500e+02 1.72402477264404e+01 526 
1.82786389160156e+03 1.43614526367188e+03 7.69885635375977e+00 527 
3.13050878906250e+03 4.97541595458984e+02 2.15083312988281e+01 528 
2.19356420898438e+03 2.07298559570312e+03 7.24844360351562e+00 529 
1.56572509765625e+03 1.47056860351562e+03 6.53262615203857e+00 530 
2.36203686523438e+03 2.21180145263672e+02 4.52413702011108e+00 531 
1.82655532836914e+02 1.20350122070312e+03 3.86308193206787e+00 532 
2.30976416015625e+03 5.48331665039062e+02 8.10133743286133e+00 533 
3.69997973632812e+03 3.85751708984375e+02 4.27078533172607e+00 534 
3.24633544921875e+03 5.47414123535156e+02 5.48891210556030e+00 604 
3.47287670898438e+03 5.02520385742188e+02 4.83543205261230e+00 783 
3.66127905273438e+03 6.14684936523438e+02 7.86314535140991e+00 790 
2.79249047851562e+03 2.49319580078125e+02 1.66750545501709e+01 797 
2.83964843750000e+03 1.89598739624023e+02 1.61606464385986e+01 798 
3.70464599609375e+03 8.25521179199219e+02 4.49884939193726e+00 801 
3.59872216796875e+03 7.44650146484375e+02 4.31064987182617e+00 829 
3.71901928710938e+03 6.12592346191406e+02 6.15504217147827e+00 840 
3.65227124023438e+03 5.35236206054688e+02 3.21280550956726e+00 892 
3.65936596679688e+03 6.37522155761719e+02 5.08923864364624e+00 897 
3.40003540039062e+03 3.07495910644531e+02 5.36520051956177e+00 910 
3.52793188476562e+03 7.69834655761719e+02 7.21108293533325e+00 911 
3.72051416015625e+03 6.91607177734375e+02 5.48996353149414e+00 916 
3.68582543945312e+03 5.58826904296875e+02 3.94836163520813e+00 920 
3.56821948242188e+03 8.02579101562500e+02 5.27218103408813e+00 968 
3.71625219726562e+03 1.17375305175781e+03 3.87747502326965e+00 974 
3.69587377929688e+03 8.03975219726562e+02 6.08801460266113e+00 1016 
3.72764086914062e+03 7.05683349609375e+02 5.95865821838379e+00 1022 
3.72006665039062e+03 6.80690002441406e+02 4.05908298492432e+00 1033 
3.50991552734375e+03 6.86356323242188e+02 3.77190613746643e+00 1078 
1.24208862304688e+03 5.41852966308594e+02 1.77247657775879e+01 1093 
3.68344873046875e+03 6.36199340820312e+02 1.00782279968262e+01 1094 
9.99523254394531e+02 6.65936279296875e+02 1.35661373138428e+01 1095 
1.58230541992188e+03 1.11704421997070e+02 8.48160266876221e+00 1096 
3.07320190429688e+03 6.11060600280762e+01 4.77665710449219e+00 1097 
3.65484448242188e+03 9.13126464843750e+02 4.09717464447021e+00 1098 
3.37204541015625e+03 4.44947937011719e+02 3.96527433395386e+00 1099 
3.56883813476562e+03 8.36895996093750e+02 3.65563297271729e+00 1100 
3.53279199218750e+03 6.92265136718750e+02 4.37804174423218e+00 1101 
9.31639099121094e+02 2.01295996093750e+03 9.83179473876953e+00 1102 
2.81979809570312e+03 1.98059045410156e+03 3.94685506820679e+00 1103 
1.35035925292969e+03 5.63821105957031e+02 8.22590827941895e+00 1104 
1.57509313964844e+03 5.56860351562500e+02 1.76339511871338e+01 1105 
7.58477111816406e+02 1.31306115722656e+03 1.02181644439697e+01 1106 
1.21697631835938e+03 2.17223046875000e+03 7.50682258605957e+00 1107 
7.65503051757812e+02 5.63567382812500e+02 7.97680473327637e+00 1108 
1.03121984863281e+03 1.86263269042969e+03 1.70856037139893e+01 1109 
3.61153491210938e+03 5.84289123535156e+02 4.96114397048950e+00 1110 
3.21851635742188e+03 1.15748596191406e+02 1.02697143554688e+01 1115 
3.70330834960938e+03 5.28289428710938e+02 1.27956991195679e+01 1227 
3.81748022460938e+03 5.68628601074219e+02 6.25015258789062e+00 1228 
3.74969262695312e+03 5.43670227050781e+02 8.51048851013184e+00 1230 
3.77084521484375e+03 1.49227490234375e+03 7.41473245620728e+00 1238 
3.65940356445312e+03 5.74536560058594e+02 9.64199638366699e+00 1247 
3.71167431640625e+03 3.71430755615234e+02 8.63284873962402e+00 1249 
3.72284204101562e+03 1.27775048828125e+03 7.92920255661011e+00 1260 
3.55573559570312e+03 7.03398254394531e+02 4.32230949401855e+00 1263 
3.73946337890625e+03 3.96449371337891e+02 4.52910184860229e+00 1269 
3.79815893554688e+03 5.14342285156250e+02 3.76321935653687e+00 1276 
3.68058691406250e+03 5.03233184814453e+02 6.19958209991455e+00 1291 
3.71198754882812e+03 5.03315216064453e+02 4.89877700805664e+00 1297 
3.69261401367188e+03 1.09771752929688e+03 6.85939216613770e+00 1307 
3.71400390625000e+03 1.22852819824219e+03 7.33395338058472e+00 1312 
3.69462060546875e+03 1.15189013671875e+03 6.90609169006348e+00 1313 
3.59427392578125e+03 9.44808532714844e+02 5.13110780715942e+00 1315 
3.74473950195312e+03 1.23287145996094e+03 5.58618402481079e+00 1325 
3.65877319335938e+03 4.43297515869141e+02 4.92076539993286e+00 1333 
3.83098510742188e+03 5.40704284667969e+02 6.18596839904785e+00 1350 
3.54911108398438e+03 2.63686004638672e+02 6.22611284255981e+00 1374 
3.13325146484375e+03 1.81413000488281e+03 5.36771812438965e+01 1380 
3.67470532226562e+03 1.09829040527344e+03 5.10756969451904e+00 1390 
3.79609765625000e+03 2.95867187500000e+02 7.69653940200806e+00 1409 
3.68688476562500e+03 5.79308105468750e+02 1.03810777664185e+01 1415 
3.73516040039062e+03 5.12137268066406e+02 7.97510910034180e+00 1419 
3.75448315429688e+03 4.03350921630859e+02 5.12164926528931e+00 1454 
3.59756835937500e+03 2.94024261474609e+02 5.93016433715820e+00 1457 
3.80806665039062e+03 4.61733978271484e+02 4.76073265075684e+00 1468 
3.69155615234375e+03 1.23408898925781e+03 5.04545021057129e+00 1487 
3.77529370117188e+03 1.44649792480469e+03 8.34444046020508e+00 1526 
3.73670727539062e+03 1.31622998046875e+03 5.25159215927124e+00 1527 
3.64164111328125e+03 1.05173645019531e+03 4.93544626235962e+00 1528 
3.81079370117188e+03 1.13702905273438e+03 5.54795694351196e+00 1538 
3.78433911132812e+03 1.32718908691406e+03 4.93019437789917e+00 1548 
3.63855029296875e+03 1.08006713867188e+03 5.37198781967163e+00 1557 
3.81238159179688e+03 1.12368481445312e+03 5.17281293869019e+00 1579 
3.71582617187500e+03 1.35408728027344e+03 5.73209714889526e+00 1582 
3.82193627929688e+03 1.01534008789062e+03 6.00695371627808e+00 1583 
3.80991723632812e+03 1.50567456054688e+03 5.19927406311035e+00 1603 
3.72471337890625e+03 1.14722863769531e+03 5.75220298767090e+00 1606 
3.58751098632812e+03 7.64641113281250e+02 5.84638404846191e+00 1612 
3.80498999023438e+03 9.80564453125000e+02 6.40377378463745e+00 1639 
3.83083203125000e+03 1.07126416015625e+03 6.29164791107178e+00 1643 
3.52779980468750e+03 6.37808776855469e+02 9.15105724334717e+00 1656 
4.92035827636719e+02 5.29052917480469e+02 2.28783626556396e+01 1657 
3.46083691406250e+03 1.21191314697266e+02 5.22301864624023e+00 1658 
1.77344848632812e+02 1.04076379394531e+03 6.36155176162720e+00 1659 
3.61316625976562e+03 9.13459091186523e+01 5.72027349472046e+00 1660 
1.28625097656250e+03 1.53610229492188e+02 1.45773077011108e+01 1661 
3.82487329101562e+03 7.49803527832031e+02 5.30715751647949e+00 1662 
3.80501660156250e+03 7.00997558593750e+02 5.39576816558838e+00 1663 
3.69883569335938e+03 7.20152404785156e+02 5.60398149490356e+00 1664 
2.35631469726562e+02 1.08727514648438e+03 9.58614826202393e+00 1665 
3.54317163085938e+03 8.23377990722656e+02 6.79424476623535e+00 1666 
3.74480078125000e+03 4.99341522216797e+02 5.71313905715942e+00 1667 
3.65116381835938e+03 4.15449920654297e+02 6.12866592407227e+00 1668 
3.53732202148438e+03 2.93427093505859e+02 7.38141250610352e+00 1669 
3.77700415039062e+03 8.32259399414062e+02 9.00224876403809e+00 1670 
3.80430322265625e+03 8.03790710449219e+02 5.29686975479126e+00 1671 
3.78033886718750e+03 6.59453369140625e+02 6.17764186859131e+00 1672 
3.77395678710938e+03 8.65923522949219e+02 9.01688480377197e+00 1673 
3.55690039062500e+03 3.57215545654297e+02 6.22198200225830e+00 1674 
1.69138842773438e+03 4.55055023193359e+02 1.04934244155884e+01 1675 
3.82374536132812e+03 8.50190063476562e+02 4.63228368759155e+00 1676 
3.52092944335938e+03 7.17163330078125e+02 7.76288938522339e+00 1677 
3.75629418945312e+03 1.25249548339844e+03 6.01627111434937e+00 1678 
3.74677319335938e+03 8.54597534179688e+02 5.08067321777344e+00 1679 
3.62226000976562e+03 6.19710327148438e+02 3.70980453491211e+00 1680 
3.69627783203125e+03 1.20500109863281e+03 8.22236442565918e+00 1681 
3.57152368164062e+03 2.91712280273438e+02 5.47831296920776e+00 1682 
3.62258813476562e+03 8.63781738281250e+02 5.99524736404419e+00 1683 
3.75419555664062e+03 8.03375854492188e+02 6.43145608901978e+00 1684 
3.66584741210938e+03 5.98389953613281e+02 5.00675106048584e+00 1685 
3.48401928710938e+03 5.63087463378906e+02 4.32902288436890e+00 1686 
3.58804296875000e+03 2.75295471191406e+02 4.33463907241821e+00 1687 
2.08036560058594e+02 2.11059790039062e+03 8.57797527313232e+00 1688 
3.54253173828125e+03 7.41223754882812e+02 5.11171436309814e+00 1689 
3.46837695312500e+03 1.10783027648926e+02 4.08912515640259e+00 1690 
3.76535400390625e+03 3.74386383056641e+02 4.92188930511475e+00 1691 
3.74355786132812e+03 1.45707373046875e+03 8.75689315795898e+00 1692 
3.71063867187500e+03 3.54999084472656e+02 4.56408500671387e+00 1693 
3.62234692382812e+03 3.74081665039062e+02 6.25330686569214e+00 1694 
3.59752709960938e+03 8.80699386596680e+01 4.41990280151367e+00 1695 
2.18052612304688e+02 8.26218200683594e+02 1.19366397857666e+01 1703 
9.44225997924805e+01 6.05971923828125e+02 6.53560781478882e+00 1742 
3.22625854492188e+03 2.03619750976562e+03 2.78364009857178e+01 1777 
3.11204760742188e+03 1.93786364746094e+03 3.32352447509766e+01 1818 
1.06109143066406e+03 2.37641983032227e+02 8.63544845581055e+00 1832 
1.05351477050781e+03 1.86775360107422e+02 7.47294616699219e+00 1836 
1.00767846679688e+03 2.05922180175781e+02 1.21955976486206e+01 1850 
3.04348632812500e+03 1.87758618164062e+03 9.07827949523926e+00 1888 
2.76066772460938e+03 1.38218041992188e+03 2.46673316955566e+01 1895 
2.09872094726562e+03 1.71414660644531e+03 2.65551834106445e+01 1896 
2.32325610351562e+03 1.31776843261719e+03 1.62341308593750e+01 1897 
3.48540209960938e+03 1.49589721679688e+03 9.84409999847412e+00 1898 
1.41027355957031e+03 1.57051928710938e+03 6.56929244995117e+01 1899 
1.29126062011719e+03 1.12103906250000e+03 6.67298736572266e+01 1900 
2.24634985351562e+03 1.24118103027344e+03 9.65064926147461e+01 1901 
2.78374804687500e+03 1.54090808105469e+03 6.59772720336914e+01 1902 
2.26310180664062e+03 1.55072717285156e+03 1.03712463378906e+02 1903 
2.60620141601562e+03 1.54025488281250e+03 1.01693359375000e+02 1904 
3.06803149414062e+03 1.26825988769531e+03 9.43372917175293e+00 1905 
2.87797412109375e+03 3.28624664306641e+02 5.03693914413452e+00 1906 
1.56914855957031e+03 1.24462890625000e+03 4.73920392990112e+00 1907 
7.98777160644531e+02 7.79199462890625e+02 1.60298614501953e+01 1966 
3.82666381835938e+03 1.40366040039062e+03 3.71134591102600e+00 2004 
3.70612475585938e+03 1.34146337890625e+03 5.16909217834473e+00 2011 
3.80717553710938e+03 1.46734423828125e+03 6.86597442626953e+00 2024 
3.81844262695312e+03 1.41213977050781e+03 4.81866979598999e+00 2185 
3.65396069335938e+03 1.00757250976562e+03 6.37154674530029e+00 2317 
3.80548364257812e+03 1.41605139160156e+03 4.76856374740601e+00 2318 
3.71428198242188e+03 1.29993652343750e+03 3.81424188613892e+00 2319 
3.58262402343750e+03 6.94334228515625e+02 4.44894552230835e+00 2320 
3.82305029296875e+03 6.38404296875000e+02 7.07424736022949e+00 2321 
1.38090478515625e+03 1.60800415039062e+03 1.44681749343872e+01 2322 
3.36556958007812e+03 1.14360496520996e+02 5.16682815551758e+00 2323 
2.88301171875000e+03 3.82307342529297e+02 1.83671684265137e+01 2324 
3.62865087890625e+03 1.09475415039062e+03 5.33939313888550e+00 2325 
3.61066894531250e+03 7.89515869140625e+02 4.09465408325195e+00 2326 
3.81225903320312e+03 1.48481005859375e+03 5.14463186264038e+00 2327 
3.63989843750000e+03 2.52275924682617e+02 7.80315113067627e+00 2328 
2.26804907226562e+03 3.98166381835938e+02 4.06013298034668e+00 2329 
3.69724096679688e+03 4.83894287109375e+02 4.33753633499146e+00 2330 
3.62599316406250e+03 1.08110302734375e+03 4.19288921356201e+00 2331 
3.64923657226562e+03 1.02701928710938e+03 5.49664020538330e+00 2332 
9.53684448242188e+02 3.21440612792969e+02 8.13883876800537e+00 2333 
3.82377001953125e+03 1.58837963867188e+03 5.34610986709595e+00 2334 
3.78754492187500e+03 1.45561621093750e+03 4.34611511230469e+00 2335 
3.72177490234375e+03 1.31164184570312e+03 4.33042287826538e+00 2336 
3.56154418945312e+03 8.44421630859375e+02 4.43833684921265e+00 2337 
3.71548193359375e+03 1.90333389282227e+02 4.90399694442749e+00 2338 
9.94619995117188e+02 1.76218139648438e+02 1.42339677810669e+01 2339 
3.26343481445312e+03 9.36322753906250e+02 1.98825569152832e+01 2353 
3.76070581054688e+03 1.42145812988281e+03 5.17176008224487e+00 2399 
3.73059326171875e+03 1.29382458496094e+03 4.70157194137573e+00 2439 
3.57047509765625e+03 7.70918029785156e+02 4.24634075164795e+00 2444 
3.84343017578125e+03 1.15396228027344e+03 4.25541448593140e+00 2588 
3.80626586914062e+03 1.14988464355469e+03 4.00880718231201e+00 2621 
3.82384887695312e+03 1.16638171386719e+03 4.91123390197754e+00 2671 
2.78729028320312e+03 1.83294937133789e+02 1.98310184478760e+01 2683 
3.41806103515625e+03 4.46464294433594e+02 5.36615228652954e+00 2712 
3.81691723632812e+03 7.99785156250000e+02 4.00206661224365e+00 2713 
3.79902954101562e+03 8.15929138183594e+02 4.85179805755615e+00 2714 
3.43076141357422e+02 4.93524810791016e+02 7.34079837799072e+00 2715 
3.76503198242188e+03 6.99539733886719e+02 4.04618740081787e+00 2716 
3.80382006835938e+03 1.18028027343750e+03 3.62259554862976e+00 2717 
4.88011413574219e+02 2.46428344726562e+03 7.69392824172974e+00 2718 
2.99118261718750e+03 1.51543432617188e+03 1.35123653411865e+01 2719 
3.50696777343750e+03 6.73838867187500e+02 5.47275733947754e+00 2720 
3.49856640625000e+03 6.50676269531250e+02 6.91647911071777e+00 2721 
2.44806884765625e+03 1.97436474609375e+03 6.70434427261353e+00 2722 
3.79026196289062e+03 7.61577148437500e+02 5.22547578811646e+00 2723 
3.08732910156250e+02 6.63382873535156e+02 4.52161407470703e+00 2724 
3.66898266601562e+03 7.41954772949219e+02 4.03049659729004e+00 2725 
3.41153100585938e+03 4.30262573242188e+02 5.69248390197754e+00 2726 
2.39301220703125e+03 2.57080749511719e+02 1.45417728424072e+01 2772 
3.28536694335938e+03 2.07764306640625e+03 3.67511820793152e+00 2826 
1.30469592285156e+03 1.59745397949219e+03 1.19957723617554e+01 2827 
1.98291967773438e+03 2.14129174804688e+03 1.48697757720947e+01 2828 
1.35943041992188e+03 6.77680114746094e+02 2.00391101837158e+01 2829 
3.81836059570312e+03 1.15573034667969e+03 4.72212409973145e+00 2830 
6.38380249023438e+02 1.79125564575195e+02 4.23970937728882e+00 2831 
1.21749366760254e+02 1.86654345703125e+03 4.41970634460449e+00 2832 
1.38508300781250e+03 1.57506774902344e+03 1.15842647552490e+01 2833 
1.00123406982422e+03 1.79175939941406e+03 6.31329727172852e+00 2834 
2.83728332519531e+02 2.52934249877930e+02 6.20323562622070e+00 2835 
1.85827221679688e+03 1.97710314941406e+03 1.47501020431519e+01 2836 
3.57665405273438e+03 8.64574951171875e+02 1.10176267623901e+01 2837 
2.92744140625000e+03 1.66239822387695e+02 8.00124454498291e+00 2838 
3.58437988281250e+03 7.82540405273438e+02 9.28025817871094e+00 2839 
5.24697631835938e+02 2.14202319335938e+03 1.25304765701294e+01 2920 
5.11375823974609e+02 1.55467590332031e+02 5.95773315429688e+00 3070 
4.99255706787109e+02 2.87256256103516e+02 4.81379365921021e+00 3071 
4.22023468017578e+02 4.76555603027344e+02 4.44272804260254e+00 3072 
4.45110382080078e+02 5.09219055175781e+02 4.26312494277954e+00 3073 
3.80232086181641e+02 2.41905685424805e+02 5.03726005554199e+00 3074 
1.00176055908203e+03 3.74080596923828e+02 1.19559555053711e+01 3075 
1.51867626953125e+03 2.27463272094727e+02 1.74466018676758e+01 3076 
1.09594348144531e+03 2.38815917968750e+02 2.05370635986328e+01 3077 
1.02186865234375e+03 1.74548828125000e+02 1.68441581726074e+01 3078 
8.93974426269531e+02 5.50754516601562e+02 1.55542325973511e+01 3079 
9.20010742187500e+02 2.99316955566406e+02 2.08871307373047e+01 3080 
2.05223706054688e+03 4.03259918212891e+02 1.85207481384277e+01 3081 
1.76437023925781e+03 8.60239868164062e+02 2.15373096466064e+01 3082 
1.37212951660156e+03 3.41025054931641e+02 2.91612949371338e+01 3083 
7.82479675292969e+02 2.07559619140625e+03 3.23026542663574e+01 3084 
1.03544921875000e+03 7.57511718750000e+02 3.70040130615234e+01 3085 
1.91529675292969e+03 1.01045208740234e+03 3.71526145935059e+01 3086 
3.41089135742188e+03 4.03776000976562e+02 5.42204284667969e+00 3087 
4.05257965087891e+02 7.27062316894531e+02 4.66353321075439e+00 3088 
3.34020532226562e+03 8.21994079589844e+02 3.66360020637512e+00 3089 
3.37432031250000e+03 2.65369049072266e+02 5.83707380294800e+00 3090 
3.46131494140625e+03 7.14039672851562e+02 6.14044952392578e+00 3091 
3.91754394531250e+02 2.08994308471680e+02 6.27859830856323e+00 3092 
1.65601782226562e+03 8.91507019042969e+02 1.05765848159790e+01 3093 
3.37446362304688e+03 1.95707595825195e+02 5.58721303939819e+00 3094 
3.84723144531250e+02 2.28206588745117e+02 5.37085008621216e+00 3095 
1.99501867675781e+03 4.21263397216797e+02 3.77976274490356e+00 3096 
3.43349414062500e+03 3.16967895507812e+02 5.96347999572754e+00 3097 
5.63041015625000e+02 1.38273361206055e+02 4.99874401092529e+00 3098 
5.84459411621094e+02 2.33732559204102e+02 1.40669851303101e+01 3099 
4.80239349365234e+02 3.43814483642578e+02 8.16516876220703e+00 3100 
3.41800244140625e+03 3.49225677490234e+02 8.66047573089600e+00 3101 
3.43775512695312e+03 2.69417083740234e+02 4.66625452041626e+00 3102 
4.62154449462891e+02 3.05389770507812e+02 4.90887498855591e+00 3103 
3.44436572265625e+03 3.67167083740234e+02 4.84701156616211e+00 3104 
5.26683959960938e+02 2.26047531127930e+02 6.44962263107300e+00 3105 
4.75740112304688e+02 4.75509582519531e+02 5.84750890731812e+00 3106 
3.85701782226562e+02 5.72298767089844e+02 6.50489854812622e+00 3107 
3.30634521484375e+03 5.76442718505859e+01 5.26408100128174e+00 3108 
4.98298675537109e+02 8.87407684326172e+01 5.67829608917236e+00 3109 
4.16798919677734e+02 3.53446319580078e+02 6.15325260162354e+00 3110 
5.34509399414062e+02 1.93110183715820e+02 4.34707403182983e+00 3111 
4.64521179199219e+02 5.23477294921875e+02 7.15192794799805e+00 3112 
3.37224121093750e+03 1.78728683471680e+02 5.30707359313965e+00 3113 
5.33685363769531e+02 2.39852294921875e+02 5.20064401626587e+00 3114 
3.41418139648438e+03 4.67326385498047e+02 4.52175903320312e+00 3115 
5.97523071289062e+02 1.01661071777344e+02 7.92731285095215e+00 3116 
5.83312561035156e+02 1.49950637817383e+02 9.49626636505127e+00 3117 
2.34408251953125e+03 7.36592346191406e+02 7.87454175949097e+00 3118 
6.12510498046875e+02 1.95569104003906e+03 1.13569183349609e+01 3119 
1.66343103027344e+03 5.63799438476562e+02 1.29229478836060e+01 3120 
1.04575598144531e+03 2.18045913696289e+02 1.96091461181641e+01 3121 
1.60571459960938e+03 1.21816076660156e+03 2.66204338073730e+01 3122 
3.15216479492188e+03 2.00995251464844e+03 2.70714721679688e+01 3123 
9.38307434082031e+02 5.49898620605469e+02 4.39365310668945e+01 3124 
2.07948071289062e+03 9.75921569824219e+02 5.35238609313965e+01 3125 
2.38545410156250e+03 9.75296508789062e+02 5.31159744262695e+01 3126 
1.60537731933594e+03 1.00034844970703e+03 8.64576110839844e+01 3127 
1.91311816406250e+03 8.28845886230469e+02 6.77094039916992e+01 3128 
1.59998315429688e+03 1.12765795898438e+03 6.76014404296875e+01 3129 
9.06852539062500e+02 5.67560424804688e+02 5.92493963241577e+00 3130 
4.03993041992188e+02 2.12707244873047e+02 4.42685461044312e+00 3131 
4.38966644287109e+02 3.28129272460938e+02 6.83827733993530e+00 3132 
3.33969677734375e+03 2.09025283813477e+02 6.10873031616211e+00 3133 
2.50754980468750e+03 1.06337104797363e+02 8.51654815673828e+00 3134 
5.19413818359375e+02 3.82016204833984e+02 7.46338272094727e+00 3135 
3.34021313476562e+03 8.62644424438477e+01 7.50847578048706e+00 3136 
1.09019177246094e+03 2.02973693847656e+02 8.80924892425537e+00 3137 
4.61901611328125e+02 2.67411499023438e+02 8.60271835327148e+00 3138 
9.02114990234375e+02 2.64792175292969e+02 9.49161720275879e+00 3139 
5.13849609375000e+02 2.71074340820312e+02 8.50873661041260e+00 3140 
1.08278027343750e+03 2.76118103027344e+02 8.69835853576660e+00 3141 
4.98989501953125e+02 3.36348052978516e+02 7.19847059249878e+00 3142 
4.88081909179688e+02 4.56920928955078e+02 1.11623697280884e+01 3143 
9.13641845703125e+02 5.22713378906250e+02 1.12589378356934e+01 3144 
3.38880297851562e+03 1.97449127197266e+02 4.98984050750732e+00 3145 
5.64011352539062e+02 2.29791046142578e+02 5.39492464065552e+00 3146 
4.33829742431641e+02 1.37991744995117e+02 5.47941541671753e+00 3147 
4.50379669189453e+02 5.22144104003906e+02 5.19304037094116e+00 3148 
4.55800628662109e+02 4.94642486572266e+02 7.98504352569580e+00 3149 
3.49316577148438e+03 6.82809387207031e+02 7.41594600677490e+00 3150 
2.82375878906250e+03 2.58540679931641e+02 7.57561826705933e+00 3151 
4.75383148193359e+02 2.30079833984375e+02 1.13209753036499e+01 3152 
7.74304077148438e+02 2.01238403320312e+03 1.23812246322632e+01 3153 
7.59686523437500e+02 2.13966137695312e+03 1.16869592666626e+01 3154 
6.93039306640625e+02 2.20445654296875e+03 1.22110090255737e+01 3155 
4.95227783203125e+02 1.60722030639648e+02 9.98765563964844e+00 3156 
1.60895239257812e+03 1.75001663208008e+02 5.12428569793701e+00 3157 
4.19908874511719e+02 5.68525756835938e+02 5.14046287536621e+00 3158 
4.16272247314453e+02 6.44009521484375e+02 4.23192024230957e+00 3159 
3.38456054687500e+03 8.40185470581055e+01 6.82264375686646e+00 3160 
5.50776733398438e+02 2.77057189941406e+02 5.64475059509277e+00 3161 
3.45046875000000e+03 2.76548706054688e+02 6.63610267639160e+00 3162 
2.41110009765625e+03 7.54304199218750e+01 6.93698501586914e+00 3163 
2.05631469726562e+02 8.02359191894531e+02 6.06363916397095e+00 3164 
2.72045593261719e+02 9.99143615722656e+02 6.28377151489258e+00 3165 
3.21380004882812e+03 7.63766723632812e+02 1.30665407180786e+01 3166 
2.14497192382812e+03 1.31778698730469e+03 1.37580680847168e+01 3167 
2.38306152343750e+03 4.66197265625000e+02 6.50362157821655e+00 3168 
1.96011828613281e+03 6.49780883789062e+02 1.19125595092773e+01 3169 
3.61074414062500e+03 9.76069763183594e+02 6.95529460906982e+00 3170 
6.27098159790039e+01 1.13245397949219e+03 5.30630207061768e+00 3171 
2.80191558837891e+02 1.02917419433594e+03 3.73536324501038e+00 3172 
2.13837475585938e+03 1.09309094238281e+03 4.42320919036865e+00 3173 
6.80613937377930e+01 1.59049133300781e+03 4.60457372665405e+00 3174 
8.41391983032227e+01 1.15496667480469e+03 4.18415069580078e+00 3175 
2.88636932373047e+02 9.96896789550781e+02 5.81343889236450e+00 3176 
2.66161193847656e+02 1.03158117675781e+03 6.77419090270996e+00 3177 
1.60850280761719e+02 1.44054748535156e+03 7.68642234802246e+00 3178 
1.29336206054688e+03 1.94179431152344e+03 1.88306312561035e+01 3179 
2.60121704101562e+02 1.00056896972656e+03 3.70949864387512e+00 3180 
1.09775711059570e+02 1.51291845703125e+03 3.78660893440247e+00 3181 
2.48218048095703e+02 7.57301818847656e+02 4.77997875213623e+00 3182 
1.60325408935547e+02 1.52988610839844e+03 4.59459400177002e+00 3183 
2.57623168945312e+02 9.15337829589844e+02 8.32304477691650e+00 3184 
2.81052581787109e+02 6.65010559082031e+02 4.83684587478638e+00 3185 
3.55143090820312e+03 9.82841552734375e+02 4.52069473266602e+00 3186 
1.19114486694336e+02 1.17938977050781e+03 5.37429141998291e+00 3187 
1.94836776733398e+02 1.27296203613281e+03 6.12187767028809e+00 3188 
2.66966217041016e+02 1.09724804687500e+03 6.82794809341431e+00 3189 
2.00556442260742e+02 1.32643518066406e+03 6.05575704574585e+00 3190 
2.50475601196289e+02 1.02743249511719e+03 5.58810567855835e+00 3191 
3.82262353515625e+03 1.89236523437500e+03 5.54406976699829e+00 3192 
3.83231030273438e+03 1.92635559082031e+03 5.25459241867065e+00 3193 
2.37353247070312e+03 8.45320617675781e+02 2.13990783691406e+01 3194 
1.13233752441406e+03 8.17727172851562e+02 6.90326070785522e+00 3195 
2.13427795410156e+02 1.26929125976562e+03 6.94085407257080e+00 3196 
2.27191748046875e+03 5.18692321777344e+02 8.43063831329346e+00 3197 
1.78470507812500e+03 2.00851037597656e+03 6.41137552261353e+00 3198 
2.34653930664062e+03 1.00612036132812e+03 1.03514690399170e+01 3199 
9.55432281494141e+01 1.06497778320312e+03 6.03499698638916e+00 3200 
1.87903656005859e+02 1.22664636230469e+03 6.37279272079468e+00 3201 
1.05657562255859e+02 9.87017578125000e+02 5.71272993087769e+00 3202 
1.00835586547852e+02 1.50928515625000e+03 3.77097296714783e+00 3203 
1.37668746948242e+02 9.95053222656250e+02 5.83290195465088e+00 3204 
1.34943847656250e+02 1.02463513183594e+03 6.83815622329712e+00 3205 
1.55788177490234e+02 9.97780700683594e+02 6.89754772186279e+00 3206 
1.55672961425781e+03 1.41943115234375e+03 1.56111841201782e+01 3207 
2.97960546875000e+03 2.01752368164062e+03 4.93778800964355e+01 3208 
9.96760864257812e+01 1.19932641601562e+03 5.82478809356689e+00 3209 
1.11440574645996e+02 1.48751428222656e+03 6.15727949142456e+00 3210 
3.47216870117188e+03 7.26503723144531e+02 4.10239553451538e+00 3211 
5.63495140075684e+01 1.07871435546875e+03 4.95389366149902e+00 3212 
3.48825390625000e+03 7.75452636718750e+02 3.90331196784973e+00 3213 
1.72862048339844e+03 5.64273925781250e+02 7.29217863082886e+00 3214 
3.75959790039062e+03 1.33705419921875e+03 1.19533519744873e+01 3215 
3.61334814453125e+03 2.25948632812500e+03 9.14961719512939e+00 3216 
1.75583410644531e+03 4.82376403808594e+02 9.55330181121826e+00 3217 
3.30846923828125e+03 6.22456420898438e+02 1.11422739028931e+01 3218 
1.42581933593750e+03 1.84941967773438e+03 1.50560626983643e+01 3219 
1.92103381347656e+03 1.88738732910156e+03 4.72093467712402e+01 3220 
1.98196398925781e+03 1.00246478271484e+03 9.89031410217285e+00 3222 
2.75232714843750e+03 1.18007360839844e+03 7.35579586029053e+00 3223 
6.04735351562500e+02 1.12460632324219e+03 6.61682033538818e+00 3224 
5.43113159179688e+02 2.01604467773438e+03 1.09393968582153e+01 3225 
1.62230615234375e+03 1.65145370483398e+02 1.34392452239990e+01 3226 
5.18305847167969e+02 2.07861059570312e+03 3.24047813415527e+01 3227 
7.50082473754883e+01 1.64909606933594e+03 5.50179719924927e+00 3228 
1.12552543640137e+02 1.64990173339844e+03 4.14653825759888e+00 3229 
1.52992199707031e+03 9.04931152343750e+02 6.34937381744385e+00 3230 
7.51306381225586e+01 1.72278955078125e+03 5.09993982315063e+00 3231 
1.78586071777344e+03 1.67952987670898e+02 5.37752008438110e+00 3232 
1.01574548339844e+03 1.51630249023438e+03 1.20311365127563e+01 3233 
1.34534057617188e+03 2.15816040039062e+03 9.69767379760742e+00 3234 
1.81609680175781e+03 3.66577514648438e+02 3.74499726295471e+00 3235 
2.12703262329102e+02 6.47380432128906e+02 4.97329425811768e+00 3236 
2.29268234252930e+02 4.33911285400391e+02 5.59595346450806e+00 3237 
3.80946557617188e+03 6.88811889648438e+02 5.14139509201050e+00 3238 
6.03057250976562e+02 2.01528442382812e+03 3.40923919677734e+01 3239 
6.19252929687500e+01 1.65799597167969e+03 3.86259841918945e+00 3240 
2.89944152832031e+02 3.28899993896484e+02 3.98843193054199e+00 3241 
2.27914843750000e+03 1.19219213867188e+03 6.19539308547974e+00 3242 
1.82034460449219e+03 3.56255615234375e+02 5.74055337905884e+00 3243 
6.45359802246094e+01 7.69643188476562e+02 4.07541036605835e+00 3244 
1.48999526977539e+02 6.56135375976562e+02 3.72533392906189e+00 3245 
2.25419018554688e+03 5.67487976074219e+02 1.57620344161987e+01 3246 
1.34874694824219e+03 1.77427685546875e+03 3.84729504585266e+00 3247 
4.85488471984863e+01 6.93161254882812e+02 5.25863695144653e+00 3248 
1.51340255737305e+02 6.82082946777344e+02 4.83459329605103e+00 3249 
2.68346752929688e+03 2.27537811279297e+02 7.69405937194824e+00 3250 
6.30882995605469e+02 2.07448898315430e+02 4.48240852355957e+00 3251 
1.71958618164062e+02 8.77022827148438e+02 4.91273784637451e+00 3252 
3.54207495117188e+03 9.53698242187500e+02 4.83441495895386e+00 3253 
1.96565893554688e+03 1.13431372070312e+03 1.09636754989624e+01 3254 
1.18813072204590e+02 9.18669860839844e+02 4.68318271636963e+00 3255 
2.14426177978516e+02 1.11163012695312e+03 3.75628995895386e+00 3256 
1.90454101562500e+02 8.55966552734375e+02 7.89673328399658e+00 3257 
2.15524096679688e+03 1.01286944580078e+03 1.89888439178467e+01 3258 
1.22978965759277e+02 5.33239074707031e+02 3.99938511848450e+00 3259 
5.20106124877930e+01 7.90926757812500e+02 3.90508770942688e+00 3260 
1.40842010498047e+02 7.22318969726562e+02 7.87876939773560e+00 3261 
4.37312652587891e+02 4.55316772460938e+02 4.02281951904297e+00 3262 
3.24044677734375e+02 7.62936157226562e+02 4.79336261749268e+00 3263 
3.71173675537109e+02 7.30940673828125e+02 6.48263502120972e+00 3264 
1.36278152465820e+02 3.28025146484375e+02 5.26075744628906e+00 3265 
2.67850067138672e+02 2.31978302001953e+02 1.03891010284424e+01 3266 
4.44397338867188e+02 3.63627807617188e+02 3.89851307868958e+00 3267 
2.56408874511719e+02 3.81688659667969e+02 6.39707183837891e+00 3268 
1.29990142822266e+02 6.71318420410156e+02 6.65731477737427e+00 3269 
1.31766815185547e+02 3.44714965820312e+02 4.72769451141357e+00 3270 
4.39551429748535e+01 7.72056884765625e+02 3.84423542022705e+00 3271 
1.10514389038086e+02 6.10661743164062e+02 4.18114471435547e+00 3272 
9.27230072021484e+01 9.25457031250000e+02 3.62201428413391e+00 3273 
1.08479095458984e+02 9.10510192871094e+02 5.74932336807251e+00 3274 
1.63308135986328e+02 6.37669372558594e+02 1.28996038436890e+01 3275 
2.34144866943359e+02 4.03968963623047e+02 6.49759960174561e+00 3276 
5.08870941162109e+02 2.78763336181641e+02 4.44886636734009e+00 3277 
3.19407958984375e+02 8.88788391113281e+02 4.43018817901611e+00 3278 
2.30822875976562e+03 1.15665185546875e+03 1.21145153045654e+01 3279 
4.22065368652344e+02 4.88104919433594e+02 3.82146072387695e+00 3280 
4.50273895263672e+02 4.60623687744141e+02 3.97928857803345e+00 3281 
2.40654052734375e+02 8.67985656738281e+02 4.36089372634888e+00 3282 
1.39370458984375e+03 1.72576708984375e+03 2.64746646881104e+01 3283 
1.58296508789062e+03 2.42326928710938e+03 7.08152866363525e+00 3284 
1.35433239746094e+03 1.16012121582031e+03 1.15156049728394e+01 3285 
1.89721215820312e+03 2.29588549804688e+03 1.03058433532715e+01 3286 
3.61572192382812e+03 1.65695324707031e+03 8.70417976379395e+00 3287 
1.71965039062500e+03 1.35611682128906e+03 4.61978149414062e+00 3288 
2.79243798828125e+03 5.07920036315918e+01 4.24916887283325e+00 3289 
1.15259887695312e+03 9.38063415527344e+02 4.52848911285400e+00 3290 
2.56259082031250e+03 4.26335632324219e+02 4.08842420578003e+00 3291 
2.43625683593750e+03 2.15552856445312e+03 1.05761556625366e+01 3292 
3.42425024414062e+03 1.66936804199219e+03 6.39117193222046e+00 3293 
3.40422485351562e+03 2.23373931884766e+02 5.34857225418091e+00 3294 
3.65804541015625e+03 1.21579626464844e+03 4.00714111328125e+00 3295 
3.59860961914062e+03 1.09210571289062e+03 6.94251632690430e+00 3296 
2.50013229370117e+02 1.18694152832031e+03 7.31309890747070e+00 3297 
3.69247412109375e+03 1.13090063476562e+03 5.11661195755005e+00 3298 
3.68664257812500e+03 1.44919958496094e+03 4.78768110275269e+00 3299 
1.55142715454102e+02 1.48283715820312e+03 4.06041240692139e+00 3300 
8.85095520019531e+01 1.74063183593750e+03 3.91754174232483e+00 3301 
1.57119125366211e+02 1.59457348632812e+03 6.15868139266968e+00 3302 
1.64992523193359e+02 7.28132385253906e+02 4.39995145797729e+00 3303 
2.64067016601562e+02 1.07902832031250e+03 3.93409585952759e+00 3304 
3.61892285156250e+03 1.22896105957031e+03 4.82558155059814e+00 3305 
3.67260839843750e+03 1.33193713378906e+03 5.90547704696655e+00 3306 
2.16480163574219e+02 1.37353637695312e+03 8.31716728210449e+00 3307 
1.63077453613281e+02 1.38707971191406e+03 1.21419439315796e+01 3308 
3.62599902343750e+03 1.47100695800781e+03 1.11516551971436e+01 3309 
3.43112133789062e+03 6.33881103515625e+02 4.74863529205322e+00 3310 
3.66097851562500e+03 1.17699743652344e+03 3.52356767654419e+00 3311 
5.80903968811035e+01 1.63124792480469e+03 4.67479801177979e+00 3312 
1.81395721435547e+02 1.43360449218750e+03 5.80233001708984e+00 3313 
3.45965502929688e+03 9.24250000000000e+02 1.20590000152588e+01 3314 
9.12948913574219e+01 9.46947998046875e+02 7.74982452392578e+00 3315 
1.29526611328125e+03 2.37399804687500e+03 1.01658430099487e+01 3316 
3.26371850585938e+03 2.04592697143555e+02 4.07885360717773e+00 3317 
3.37882373046875e+03 3.97024169921875e+02 5.48623943328857e+00 3318 
1.56068328857422e+02 7.51013061523438e+02 5.13211631774902e+00 3319 
2.20631011962891e+02 1.38918322753906e+03 4.28022527694702e+00 3320 
9.36919250488281e+01 1.67008605957031e+03 5.56257629394531e+00 3321 
3.59470507812500e+03 1.15583398437500e+03 4.36070823669434e+00 3322 
3.36793554687500e+03 2.89893585205078e+02 4.13299560546875e+00 3323 
3.39228729248047e+02 4.27556823730469e+02 5.76670360565186e+00 3324 
2.40496536254883e+02 7.37846740722656e+02 4.37423467636108e+00 3325 
3.65507348632812e+03 1.31256750488281e+03 4.61151838302612e+00 3326 
3.70932910156250e+03 1.12702050781250e+03 6.58790779113770e+00 3327 
7.20219177246094e+02 2.07348022460938e+03 2.23235282897949e+01 3328 
2.82667419433594e+02 1.16141271972656e+03 4.44333314895630e+00 3329 
3.69526000976562e+03 8.84984375000000e+02 6.10365295410156e+00 3330 
1.25142120361328e+02 9.81546875000000e+02 6.91285657882690e+00 3331 
2.44065383911133e+02 1.32841589355469e+03 5.95173263549805e+00 3332 
1.41693298339844e+02 1.48414184570312e+03 5.99418735504150e+00 3333 
2.13989456176758e+02 6.60418212890625e+02 3.83084630966187e+00 3334 
1.49478713989258e+02 6.95167968750000e+02 5.28103923797607e+00 3335 
1.74886337280273e+02 8.88706237792969e+02 3.84231090545654e+00 3336 
3.68807934570312e+03 1.07954626464844e+03 4.52912521362305e+00 3337 
3.73156591796875e+03 1.48892968750000e+03 3.97495794296265e+00 3338 
3.61396801757812e+03 9.36442443847656e+02 6.21282529830933e+00 3339 
3.55799389648438e+03 1.00866247558594e+03 4.01908683776855e+00 3340 
3.58931689453125e+03 1.10512292480469e+03 4.45282888412476e+00 3341 
3.71013354492188e+03 1.49668701171875e+03 4.41483259201050e+00 3342 
3.79989526367188e+03 1.56302392578125e+03 8.88227844238281e+00 3343 
1.90289886474609e+02 7.89666198730469e+02 8.48197746276855e+00 3344 
2.27884048461914e+02 7.60115783691406e+02 4.91666889190674e+00 3345 
3.58136572265625e+03 1.08156872558594e+03 4.37946796417236e+00 3346 
3.64640625000000e+03 1.17647863769531e+03 4.73499345779419e+00 3347 
2.02915100097656e+02 6.33472167968750e+02 6.47736549377441e+00 3348 
3.35162768554688e+03 2.33368301391602e+02 3.87631416320801e+00 3349 
3.43773901367188e+03 6.18438293457031e+02 3.99978542327881e+00 3350 
3.78933691406250e+03 1.61454968261719e+03 8.09383678436279e+00 3351 
2.67829254150391e+02 1.19933349609375e+03 8.06388282775879e+00 3352 
3.72260693359375e+03 1.38689355468750e+03 7.21080303192139e+00 3353 
3.64051611328125e+03 1.11642041015625e+03 1.00978984832764e+01 3354 
1.31134750366211e+02 1.61501062011719e+03 1.20550508499146e+01 3355 
2.06904342651367e+02 8.14893554687500e+02 4.56504249572754e+00 3356 
4.24874191284180e+01 1.00535858154297e+03 3.64075088500977e+00 3357 
1.36580856323242e+02 1.51853527832031e+03 5.46246576309204e+00 3358 
3.60711523437500e+03 9.55749938964844e+02 6.00130414962769e+00 3359 
3.36800244140625e+03 2.79783355712891e+02 4.20583105087280e+00 3360 
3.23438293457031e+02 3.12748840332031e+02 3.86900305747986e+00 3361 
3.37838531494141e+02 7.69726257324219e+02 5.68320655822754e+00 3362 
3.56479003906250e+03 8.70050659179688e+02 6.42991495132446e+00 3363 
7.21788940429688e+01 1.11625585937500e+03 4.56087064743042e+00 3364 
3.75925634765625e+03 1.65452001953125e+03 5.00047826766968e+00 3365 
