ply
format ascii 1.0
element vertex 963
property float x
property float y
property float size
property short id
end_header
1151.755981 2323.367676 21.285280 21 
1156.955688 314.050934 20.047861 28 
1150.403809 2211.772705 26.016146 31 
1255.795044 337.871643 23.891056 32 
1124.864014 404.778442 9.271833 58 
1202.240356 2415.639648 9.756309 59 
1060.921997 324.025360 9.434039 63 
1154.151367 260.127472 17.442396 67 
1118.380249 344.146057 17.037392 68 
1205.091064 276.808716 26.223299 75 
2372.584717 1491.629150 6.162682 83 
2268.160156 319.403442 8.157804 87 
2221.289307 2187.049805 5.775528 90 
2720.129883 753.204407 5.041020 95 
1194.358521 2269.780518 27.392900 121 
2254.283691 2211.333008 12.843805 154 
2808.665771 2320.971924 4.123062 168 
1473.775024 1421.153809 5.559916 173 
2778.684814 1577.399170 4.708061 179 
2769.959717 1340.881348 4.125334 180 
2766.900635 1264.880859 4.711931 182 
2764.944336 1158.361938 5.005833 183 
2793.798828 1573.983643 4.098422 187 
2758.071045 790.074890 3.867960 188 
2779.474121 1441.678345 4.804104 189 
2716.384277 695.336304 4.645895 217 
2782.401123 1157.033569 4.937817 218 
2893.461670 1154.517944 10.864534 219 
1792.581665 895.820801 9.588221 220 
1613.909546 469.162811 5.949139 221 
1941.734863 2453.077637 7.599327 222 
2777.322266 1590.832520 3.769688 223 
2908.402832 1300.609375 15.508081 224 
2761.602783 1131.068848 3.636465 225 
2766.295410 1286.074463 3.852978 226 
2772.465576 1247.921387 4.295348 227 
2797.564941 1951.257812 4.162221 228 
2804.450928 2237.971680 3.937583 229 
2787.010498 1585.703491 3.691450 230 
702.116089 1275.624268 5.131205 231 
2829.519043 318.514130 7.895742 232 
1465.292603 1167.991089 4.741792 233 
2787.596191 1883.140991 5.185324 234 
2738.992676 1324.166138 5.351399 253 
2796.182617 1905.170532 4.274653 256 
1998.638062 1490.926880 8.725312 369 
2836.218506 701.974060 5.093390 487 
1962.407959 708.978516 11.273099 508 
1916.932983 1742.397583 7.802172 527 
1604.396240 2395.751953 5.384256 584 
965.982727 1719.342407 14.912308 585 
2639.631592 234.677704 6.464699 586 
2074.687744 2405.998291 16.855120 587 
1404.153809 631.591431 19.394484 588 
1755.549194 402.364471 18.793179 589 
2859.454346 1139.417358 4.851722 590 
2111.181152 1681.175537 4.477855 591 
1949.151367 1195.436157 41.330914 592 
1520.236572 905.203857 49.871460 593 
1988.820435 1461.969971 8.797544 594 
452.753815 1530.491089 7.672534 595 
1111.298462 215.266205 9.562754 596 
2823.609131 1140.758789 4.991418 597 
457.282104 2446.877197 5.928166 598 
2422.004639 615.416687 3.506984 653 
2794.611084 976.466370 4.191647 755 
2485.116699 669.113708 13.257889 797 
2517.500000 615.528687 12.171867 798 
535.633606 1896.204224 10.175021 930 
1858.151245 1036.542236 10.366062 957 
2855.967285 1161.709229 4.239266 967 
1973.081787 1201.943359 9.936110 985 
1591.655396 1750.554932 7.029027 1112 
2442.914551 381.544739 13.591852 1155 
2400.279297 412.945526 5.319931 1156 
1401.636475 275.986816 5.215921 1157 
2190.541748 1539.911133 13.651501 1158 
2399.026123 760.964355 3.736222 1159 
1959.376221 1448.399658 42.214996 1160 
2413.991455 2187.188232 9.324475 1161 
2623.421631 1494.766602 8.296364 1162 
2756.194336 2221.987793 6.309906 1163 
155.702805 787.302856 10.702467 1306 
2702.379883 1274.828735 5.388731 1564 
436.585846 695.188110 11.205956 1659 
2560.639648 581.342041 12.007028 1696 
283.785522 2166.722412 5.862219 1719 
2386.941650 950.838806 5.404508 1729 
1265.755249 1160.710938 11.347144 1733 
1081.831543 371.806946 24.809351 1734 
2247.900146 1995.957886 14.160728 1735 
2565.092773 650.999756 34.372967 1736 
2109.213379 2036.406006 5.864005 1737 
200.602417 761.953247 13.701000 1738 
251.841660 606.971008 13.877137 1739 
2276.970703 96.848953 4.622944 1740 
1731.075073 471.239990 6.124613 1741 
99.201202 601.708679 8.420881 1742 
1781.868408 1983.431274 10.551042 1743 
1406.354004 757.153809 57.435230 1760 
2560.175781 2069.691406 12.079166 1777 
327.955902 369.191650 8.243521 1779 
242.460098 766.402283 7.526668 1788 
2613.318115 2047.603271 12.185223 1814 
2523.108398 2013.781494 14.285135 1818 
2106.266602 1027.786865 10.597578 1837 
1092.496948 1731.597534 4.167849 1912 
1335.510254 2335.889648 8.201721 1929 
1274.782471 881.248169 52.965469 1946 
1118.767822 1048.250854 13.345056 1947 
2222.999023 1272.610718 4.926072 1951 
2112.650146 488.424133 10.949207 1952 
1905.761353 1588.081055 18.572821 1953 
1707.498779 1428.509399 5.729197 1954 
2442.924805 1229.048218 6.682545 1955 
2306.548828 1215.690674 34.028286 1956 
2468.722168 1693.933105 9.065961 1957 
1615.012085 990.705994 5.787591 1958 
1584.718506 204.153687 6.348855 1959 
3229.832031 2373.644775 4.368598 1960 
2092.048340 64.887321 4.049533 1961 
2389.754639 1380.259155 3.802892 1962 
1569.783813 1061.413330 14.984292 2371 
2255.456299 2361.670898 15.222765 2372 
2723.713379 1599.482666 7.195084 2373 
1522.430176 2319.145508 9.418202 2374 
516.279785 2526.137207 6.560869 2375 
1827.851685 818.531006 15.289328 2376 
2317.307617 1669.599487 34.343075 2377 
1929.017822 683.475830 9.997252 2378 
2761.382324 2408.937988 7.785059 2388 
2597.898438 1840.077881 3.974096 2468 
2369.485352 582.343384 13.735404 2575 
2447.081543 201.738861 17.366148 2682 
2507.237549 577.056702 15.291415 2683 
1949.490601 193.744263 17.029339 2779 
2983.320312 1892.666748 3.703366 2780 
1794.042480 2317.954102 8.233453 2781 
1864.799805 591.949890 3.813333 2782 
2558.780273 192.203873 4.318733 2783 
1078.223267 1108.920776 7.374371 2784 
2005.176025 2435.107178 4.300546 2785 
2194.295166 691.217224 8.489542 2786 
2400.840576 123.516869 6.008630 2861 
2099.141357 40.877377 3.951398 2956 
2887.744385 2314.200439 3.734756 2961 
2804.789307 1081.479004 4.431436 2999 
541.513855 392.451202 5.794775 3018 
637.803467 1710.705811 24.102360 3019 
2234.701904 1617.940186 4.295761 3020 
1944.868652 1312.328613 66.758278 3021 
438.345581 1878.295654 9.068280 3022 
2345.006104 1482.410889 6.540652 3023 
572.588623 530.529724 7.457494 3072 
1241.077026 379.795776 9.466063 3139 
335.518311 928.479614 8.300350 3164 
588.453857 1303.004395 5.937500 3172 
583.606812 1257.363647 6.078828 3176 
584.319336 1790.517578 8.694432 3178 
373.273865 869.328125 7.378863 3182 
609.620422 1882.448608 4.934943 3183 
380.804962 740.145752 6.228532 3185 
1573.084106 373.644470 8.256521 3217 
1044.296387 2339.379639 26.988457 3227 
557.308533 2016.233887 6.055331 3228 
596.816528 2013.907959 4.145085 3229 
1478.989014 967.315430 9.300244 3230 
579.978210 2089.787842 5.648795 3231 
1163.661255 1673.848877 4.969286 3232 
1339.790771 1386.136230 8.128526 3233 
2018.456421 1402.712158 5.776582 3234 
1460.380249 888.416443 3.684029 3235 
287.477814 698.383972 9.408571 3236 
215.552490 343.320160 8.677039 3237 
2972.543457 1142.837280 4.124283 3238 
1102.280640 2279.643555 28.763931 3239 
545.124329 2023.702515 4.603042 3240 
254.181946 182.085693 6.332985 3241 
1944.614868 1931.086426 5.324089 3242 
1205.687866 1997.218262 3.787514 3243 
128.869705 853.900208 5.602236 3244 
210.735001 735.258484 8.706642 3249 
2753.050781 692.104126 4.323545 3253 
2124.558105 1996.726929 16.921959 3258 
103.518677 484.689575 7.848442 3259 
121.402061 886.887085 6.491025 3260 
210.475998 794.848083 9.850341 3261 
580.758728 501.385132 5.108618 3262 
228.295319 257.919128 10.104462 3268 
176.586548 710.320801 10.262438 3269 
99.029121 851.604797 5.756848 3271 
122.816856 608.711243 5.285638 3272 
203.478943 293.572357 10.568933 3276 
574.227295 550.015198 5.580549 3280 
576.602173 1837.791138 7.299101 3333 
330.676056 1050.746338 6.422198 3336 
335.078033 949.209412 6.593234 3356 
292.165283 159.399429 8.319445 3361 
2697.538818 440.575439 7.793971 3375 
2594.203369 2126.111816 13.118641 3376 
1449.090820 2496.927246 7.375747 3564 
2175.133301 141.919739 8.049082 3565 
1886.305298 2032.511597 7.415198 3566 
2751.445068 1952.447510 7.493918 3567 
2149.948242 284.782471 11.073030 3568 
1761.397095 80.672249 7.136208 3569 
1993.834717 1839.666870 13.939547 3570 
2841.768799 356.607086 8.799558 3571 
2901.171387 1653.903564 9.975919 3572 
2843.451660 201.741058 8.507658 3573 
1200.414795 2218.088379 10.057842 3574 
2251.805420 687.290649 12.254521 3606 
386.123932 1686.100952 6.049760 3620 
316.134460 1684.271362 6.904532 3641 
603.577637 1214.423706 9.211159 3644 
2716.751465 1717.444580 16.909594 3661 
2869.388672 1095.343262 4.809187 3692 
407.507233 1740.656006 6.305018 3694 
627.663818 1536.771118 5.932915 3733 
2755.130371 953.101379 4.401394 3741 
2904.274902 1278.494751 4.984551 3749 
2992.434814 1571.113403 5.037232 3762 
2709.379150 807.069885 9.021067 3781 
434.070068 1012.765930 10.359188 3792 
421.442993 1290.489014 8.658339 3793 
2907.970459 1423.186646 5.046233 3816 
3063.297852 1604.138428 4.953090 3821 
380.307098 1717.678101 6.341213 3838 
634.370178 1118.906006 4.400034 3866 
556.961182 1182.475586 5.729835 3867 
2818.711426 1768.160156 3.995693 3873 
601.242065 987.058044 6.751353 3876 
381.163208 1702.766724 5.761757 3879 
2544.486328 1998.875732 6.630553 3882 
2764.789551 1008.422729 4.020116 3945 
2870.619141 1507.575684 3.841118 3953 
2789.109863 1703.620728 3.801234 3955 
636.860291 867.223694 4.884975 3956 
2793.259277 1867.884888 4.605315 3982 
600.093689 1415.628540 5.219101 3995 
394.992950 1521.169067 7.397819 4018 
410.778656 1475.744751 10.995058 4035 
360.087616 1497.223755 6.693152 4037 
399.807007 1674.432495 5.246532 4050 
2758.572754 837.437439 3.925818 4052 
603.688049 1628.439209 5.918481 4074 
2753.759521 723.261353 4.392382 4077 
3067.744873 1314.091187 4.162393 4079 
2763.316406 968.644226 4.327731 4084 
546.790894 1788.421509 4.840763 4102 
3045.621582 1835.176880 4.774796 4103 
2753.905518 1701.269775 4.017536 4104 
2801.119141 2350.583496 4.869339 4105 
587.594910 565.227722 6.989276 4106 
421.427460 833.002563 5.842227 4107 
2984.677490 1912.079956 4.519590 4108 
2949.884521 2004.319702 5.703556 4109 
2821.435303 2351.519043 4.826187 4110 
2747.313477 1508.156494 4.726921 4111 
2736.622314 1452.048950 7.335817 4112 
419.912811 1671.015259 7.626407 4113 
3096.065674 1999.285034 9.970303 4114 
906.088440 702.657654 15.201470 4115 
2634.212646 1942.500732 19.942362 4116 
2780.170898 1072.683472 15.192335 4117 
1149.912720 1153.390869 21.707848 4118 
2780.804443 1710.306763 3.864442 4119 
2790.160645 1993.798462 3.783009 4120 
2794.259766 2161.390137 3.848184 4121 
404.217529 1691.469238 4.352055 4122 
2782.958252 1172.566650 5.383156 4123 
2807.318359 1385.545654 3.991352 4124 
2943.273682 1411.007446 6.117998 4125 
3154.567627 1932.765015 6.455229 4126 
3009.347412 1694.855225 6.092310 4127 
2434.215820 136.369186 6.514735 4128 
3115.156494 1785.323730 5.429257 4129 
2879.685059 1783.904297 4.890396 4130 
2788.440674 1936.515991 4.702399 4131 
2799.133789 1706.142212 4.269767 4132 
2818.415527 2279.836914 4.039331 4133 
2848.969971 1081.188599 3.660507 4134 
2759.308105 1074.402710 4.116958 4135 
559.226868 1811.308350 4.232193 4136 
2795.288818 1557.720947 5.606151 4137 
2758.004150 1024.651123 4.846240 4138 
2805.159180 2254.942627 8.115298 4139 
2771.804443 2370.674805 5.107500 4140 
360.497711 1076.488892 11.105612 4141 
479.381775 1286.004028 9.855977 4142 
2791.260010 2019.655029 4.513286 4143 
2793.751709 2129.956787 3.912031 4144 
2964.949219 1898.495728 4.840352 4145 
411.660339 699.070923 8.185570 4146 
3256.760254 1852.203003 5.403169 4147 
2776.132812 1546.746704 3.837173 4148 
2772.198975 1456.459351 3.692204 4149 
410.058014 658.576050 5.992222 4150 
2786.706055 1795.217285 4.601538 4151 
2775.823975 1531.184692 4.010938 4152 
2796.657227 2226.883545 3.893282 4153 
2948.280029 1833.180908 3.652894 4154 
2974.853760 1882.277100 5.020938 4155 
432.574829 847.138672 6.413601 4156 
450.878693 1216.809692 6.053911 4157 
2761.948975 927.683716 4.390710 4158 
2975.487793 1902.104736 3.849608 4159 
2802.993164 2181.288818 4.547681 4160 
562.638306 1391.252075 5.771576 4161 
438.567535 1675.572388 6.098159 4162 
452.720703 799.863525 9.282863 4163 
2487.135498 1932.278320 44.118431 4164 
2788.338135 1663.740234 3.729608 4165 
2977.368652 2081.347168 4.402957 4166 
3017.285400 1892.605591 5.103748 4167 
415.917267 676.565857 7.722713 4168 
2893.138916 1977.198486 6.051387 4169 
2783.679932 1520.065063 4.168906 4170 
2799.087402 2048.215820 4.131503 4171 
408.273560 1195.115723 4.896004 4172 
584.120483 1673.976196 4.844033 4173 
592.222656 584.714050 7.471954 4174 
617.181396 1824.260742 5.631330 4175 
2777.272461 1352.077759 3.898438 4176 
2771.580811 1171.428833 3.912993 4177 
3057.113037 1620.819214 4.842473 4178 
2856.254639 2105.518555 6.554198 4179 
2842.268311 1706.067139 7.211155 4180 
3171.405518 1929.818115 7.187642 4181 
2782.202148 1500.488892 3.603252 4182 
2909.285156 1931.310181 3.401231 4183 
2105.984863 1945.724609 4.352722 4184 
457.005280 701.554504 5.821199 4185 
2831.662354 1802.089478 4.271557 4186 
2802.843506 2136.969238 3.872233 4187 
571.239807 1854.023804 4.911332 4188 
2789.863770 1740.320068 4.127577 4189 
600.598633 658.315247 4.971990 4190 
2773.272949 1469.870850 3.766483 4198 
599.264893 606.675964 5.107400 4216 
2770.674316 1382.351440 4.011675 4221 
450.968811 849.744507 6.966667 4227 
603.488037 1726.869751 5.294667 4249 
298.224915 1034.402466 6.332178 4255 
603.011536 1765.516846 4.816978 4257 
546.417908 1774.995239 5.030342 4263 
544.653137 1743.163086 4.774060 4264 
112.764603 2104.855957 7.355079 4274 
408.488159 1869.381348 7.845727 4275 
3219.931152 1069.056396 5.515090 4276 
449.983063 1935.562988 6.765026 4277 
374.196960 2241.350830 4.742943 4278 
2738.616455 515.608826 4.566938 4279 
180.910706 2151.574463 8.484783 4280 
371.394257 1870.036377 7.291817 4281 
381.576935 2383.114502 7.700279 4282 
3624.833252 742.535522 5.930821 4283 
427.573425 1371.605835 7.249507 4284 
589.789551 1339.586914 5.550200 4285 
75.210983 2270.393066 6.376500 4286 
555.506409 2035.625366 6.163070 4287 
381.205566 2287.152832 5.813038 4288 
3041.567383 901.531494 4.355623 4289 
1796.299316 1389.361450 7.599559 4290 
476.177246 1362.010986 10.885232 4291 
390.887451 1631.525391 9.722700 4292 
402.548187 2428.821289 11.851645 4293 
356.915527 1713.631836 16.129616 4294 
168.303772 1933.299316 10.955149 4295 
411.739227 2262.071533 8.487363 4296 
58.438110 1913.265625 5.678518 4297 
93.188683 1856.032837 6.121324 4298 
73.643143 2315.787598 6.271688 4299 
583.054565 2034.044312 6.050343 4300 
2780.821289 1727.417114 3.966589 4301 
383.136597 1995.587769 6.294166 4302 
327.202087 2152.743408 7.091047 4303 
621.208069 2160.859375 6.143066 4304 
278.484985 1923.759521 6.059411 4305 
290.398560 1896.678955 6.756916 4306 
208.818771 2097.448242 4.763146 4307 
579.641602 1809.167480 5.611895 4308 
604.593750 1780.194580 6.214111 4309 
353.905670 2152.423584 5.177634 4310 
442.888947 1332.386353 7.524149 4311 
344.276459 1854.916260 6.753235 4312 
398.604401 2304.434814 5.825670 4313 
2780.203857 1672.926514 4.100177 4314 
3816.326416 520.709656 4.975832 4315 
278.382629 2052.512207 6.279146 4316 
425.623169 1900.837158 7.612751 4317 
557.179077 1982.523560 6.257088 4318 
556.127991 2301.254150 6.941533 4319 
3483.212402 918.067566 5.623354 4320 
3471.674805 1052.423218 5.412395 4321 
358.700958 1820.203979 6.111992 4322 
370.432251 2267.629150 6.448508 4323 
626.532104 2267.429199 5.368252 4324 
2874.221680 1686.875244 5.532679 4325 
235.001648 1744.533325 10.380121 4326 
243.225052 1906.613525 12.040601 4327 
255.591614 2149.957764 9.224693 4328 
325.223511 1807.309692 14.824660 4329 
349.956268 2128.372559 15.860776 4330 
1568.438965 1697.063843 10.974805 4331 
1271.279663 1264.817383 12.430044 4332 
264.760529 2136.930664 16.897974 4333 
257.768799 1951.246948 13.325628 4334 
353.893372 1807.871216 11.879288 4335 
377.140045 1780.565552 11.759206 4336 
156.519562 2232.634033 9.770816 4337 
284.082275 1711.330566 12.205001 4338 
265.458618 2304.514404 9.668330 4339 
244.290955 1781.799805 9.801020 4340 
341.857880 2204.021240 8.305254 4341 
3046.854248 1038.392334 4.327427 4342 
3068.888428 1166.550659 5.983814 4343 
3245.144531 1186.981689 3.965754 4344 
381.229645 1538.740479 7.502972 4345 
85.304214 2137.841797 8.011552 4346 
653.560791 1947.838501 6.152394 4347 
3162.630371 1153.528076 5.757662 4348 
48.585567 2300.311279 5.130094 4349 
192.960968 2289.919678 5.354484 4350 
2988.572754 1390.770874 4.701933 4351 
299.503937 1789.990356 9.654720 4352 
106.448227 2226.110352 7.400140 4353 
341.566376 1481.821289 9.379387 4354 
178.719406 2303.546875 8.793139 4355 
242.360107 2273.769043 8.240312 4356 
261.587646 1730.254761 5.948225 4357 
388.061768 1835.345215 6.233286 4358 
392.329407 1894.033203 5.621018 4359 
413.020599 2002.512939 4.955989 4360 
238.248138 2514.752930 4.191332 4361 
601.452271 2397.875000 6.414037 4362 
3598.754150 471.658325 5.432914 4363 
3496.245117 937.607971 3.490420 4364 
455.926849 1728.044189 7.492359 4365 
387.487854 2360.631836 6.559986 4366 
64.475082 2084.794434 6.298231 4367 
256.718262 1797.227661 6.472640 4368 
163.365906 2010.283203 7.241842 4369 
265.319702 2004.809448 5.485672 4370 
77.531219 2348.140869 6.826907 4371 
352.718201 2272.651123 6.233347 4372 
373.469055 2309.355469 6.476093 4373 
3239.027100 1176.528320 3.826300 4374 
631.886719 1247.767944 7.462905 4375 
3229.740479 1054.587524 4.749158 4376 
365.938202 1676.839722 9.374177 4377 
132.572754 2112.035889 7.856316 4378 
433.054321 2013.088257 8.158869 4379 
399.457275 2322.144775 8.858866 4380 
378.237854 2407.553711 6.842247 4381 
80.489311 1986.302979 5.952659 4382 
259.926849 1922.898560 6.712619 4383 
158.841644 2151.155029 6.764987 4384 
400.569092 1996.257446 4.872980 4385 
248.201813 2289.559082 5.096670 4386 
329.198517 2234.929199 6.116052 4387 
540.737854 2052.784180 6.946235 4388 
410.326385 2242.273682 6.151687 4389 
409.760925 1597.451782 13.713181 4390 
365.860596 2218.555176 10.386082 4391 
284.268921 1821.624268 14.512115 4392 
400.308502 1716.104980 12.149569 4393 
311.275208 2169.595459 21.343584 4394 
333.197479 1887.643066 19.571520 4395 
1154.614136 1881.395142 62.273926 4396 
71.787994 1893.847046 5.933900 4397 
212.160538 1906.051270 7.263256 4398 
85.556763 2372.682617 5.407164 4399 
265.015503 2171.497070 5.766235 4400 
256.654724 2441.475342 5.888892 4401 
351.854950 2301.066406 4.818767 4402 
372.167389 2340.028564 4.915152 4403 
442.711517 2235.953613 5.731551 4404 
421.210449 2504.391113 5.655147 4405 
641.003601 2254.716797 4.991578 4406 
2778.121094 1407.380371 4.296573 4407 
3159.092285 1135.375610 6.472269 4408 
2788.200928 1684.262329 3.806418 4409 
220.386963 1764.985474 8.365914 4410 
310.883148 1898.416748 8.796951 4411 
121.178116 2314.714844 7.314343 4412 
412.140228 2284.963867 7.685614 4413 
638.143860 976.857727 6.209527 4414 
457.166290 1348.112549 5.848223 4415 
239.225555 1826.972900 6.937483 4416 
54.596146 2319.796875 5.965266 4417 
345.151245 2098.529297 6.620041 4418 
236.273911 2450.813965 4.923800 4419 
562.715271 2171.269287 5.259761 4420 
108.478264 1847.269775 6.297162 4421 
258.072693 2051.179199 4.959005 4422 
137.625671 2366.525146 5.576625 4423 
631.980652 2041.091675 5.792435 4424 
84.512764 2335.289307 6.720944 4425 
288.726868 2182.299072 7.160351 4426 
620.485901 865.234375 5.431307 4427 
231.440063 1935.780640 6.924117 4428 
401.412476 1820.939331 5.090268 4429 
464.852814 1940.986328 4.820277 4430 
570.401489 1974.939087 4.456941 4431 
459.587524 2144.320557 6.123992 4432 
352.247894 2488.786377 5.087564 4433 
239.183319 2498.256348 6.801057 4434 
343.833893 1766.163452 16.378786 4435 
345.709351 2169.275879 9.270031 4436 
3119.370850 1380.812988 6.380229 4437 
289.032043 1764.005493 9.225584 4438 
339.763733 1832.386108 9.131112 4439 
217.197861 2265.135254 9.602544 4440 
179.020508 1891.736450 10.886753 4441 
386.798798 2141.118164 7.709856 4442 
3200.298340 1128.692871 10.912007 4443 
3139.138428 1249.526001 4.801642 4444 
2792.729004 1836.488770 4.061607 4445 
115.565025 1954.672485 8.040642 4446 
446.683899 2123.153809 7.816635 4447 
149.795349 1794.478394 6.001032 4448 
425.571686 1743.716797 6.947027 4449 
414.580994 2030.593872 4.829488 4450 
389.246765 2267.336426 5.665524 4451 
584.002075 2348.653564 5.714635 4452 
370.191895 1835.545166 7.116858 4453 
114.203491 2418.630127 6.816456 4454 
3726.813477 298.409210 4.500128 4455 
224.454941 2110.610107 8.122022 4456 
335.463165 2335.731445 6.811769 4457 
636.987793 2100.424072 5.693251 4458 
344.119324 1973.219116 5.534097 4459 
137.917175 2407.450684 5.716172 4460 
3611.708252 459.356537 6.477388 4461 
449.243042 869.093262 8.381202 4469 
454.331268 1051.196655 7.951365 4476 
2889.504395 2326.594971 17.546734 4490 
2859.131348 1346.455688 22.608715 4491 
2786.422852 813.856567 4.724779 4493 
2301.946533 543.022400 11.495567 4494 
256.921539 2023.718262 7.137046 4507 
581.726746 1984.742432 5.410097 4522 
335.954163 2311.482910 8.921223 4524 
371.552063 2355.978760 5.676383 4530 
551.579346 2537.641846 5.081445 4536 
588.216187 2451.895752 5.824885 4549 
612.084229 2108.354736 5.751104 4560 
298.340851 2449.820068 6.501562 4569 
242.450912 2389.157959 6.281702 4572 
2697.396729 2043.159546 12.410784 4574 
2601.836182 2464.765869 9.641909 4575 
2732.470703 385.231750 4.220834 4576 
2674.851318 2437.580811 11.780993 4577 
1983.362793 1171.609741 7.712816 4578 
2590.695312 2236.461914 5.904779 4579 
2169.841064 1086.100830 15.693842 4580 
2125.603271 1365.199219 10.804036 4581 
2502.443359 538.926086 19.238785 4582 
2319.281982 1600.771729 16.304865 4583 
2522.401123 2015.147461 14.656310 4584 
2728.795410 320.449249 4.089006 4585 
2396.573975 180.483765 3.725949 4586 
2258.325195 88.569099 6.006376 4587 
2620.709961 952.368469 8.085860 4588 
1528.654663 1713.726562 10.205724 4589 
2291.927979 1050.298706 7.045742 4590 
2174.117920 1688.067993 6.929725 4591 
2118.507812 1783.124512 6.487304 4592 
2119.763672 1826.338501 7.128717 4593 
1733.475830 154.409348 6.495360 4594 
700.058716 2394.970947 4.106180 4595 
2141.895264 1533.310425 15.208607 4596 
2567.971924 2025.152832 20.236416 4597 
1059.023560 2391.657959 10.340682 4598 
2456.111816 1018.952881 31.205297 4599 
2462.189941 1224.275879 31.246477 4600 
2480.664551 1870.965820 31.306824 4601 
2292.190918 558.422119 34.480000 4602 
2156.283691 2146.964111 37.666561 4603 
2437.705811 147.996384 3.997238 4604 
2725.494873 907.372314 4.737845 4607 
451.526459 523.482971 5.939468 4653 
588.783142 472.878143 4.803449 4654 
55.605999 696.561340 4.897686 4655 
2814.131592 2235.474121 4.183891 4656 
328.512024 563.815369 6.563937 4657 
635.598083 948.937927 6.371265 4658 
399.492981 527.213989 5.984777 4659 
92.146324 783.171753 5.575426 4660 
541.211731 942.893250 6.843531 4661 
2741.037842 584.331848 3.791476 4662 
2742.345947 617.294434 4.199585 4663 
563.000977 904.094971 4.972577 4664 
2754.813721 1618.053467 3.636902 4665 
444.179718 498.490662 5.959692 4666 
357.820892 527.376465 7.095874 4667 
324.524200 818.739258 5.924125 4668 
2739.442383 557.131531 4.057047 4669 
375.942749 540.972839 3.949764 4670 
227.188217 573.694336 5.230645 4671 
303.471008 1049.353394 5.125997 4672 
2711.764893 668.463989 5.233999 4673 
277.082397 563.430786 4.775884 4674 
584.035950 448.886993 5.117803 4675 
651.256958 514.573425 3.841918 4676 
338.005493 639.809570 4.108017 4677 
328.022736 542.414795 5.855507 4678 
565.092346 796.060791 7.286961 4679 
134.079514 753.244934 4.785931 4680 
304.192383 1023.211243 4.648979 4681 
363.468689 566.358215 7.838950 4682 
360.455261 692.541077 9.804882 4683 
181.270752 904.932434 7.635371 4684 
579.393372 387.166016 8.976358 4685 
309.283905 734.860291 12.938146 4686 
363.438721 750.040955 9.231387 4687 
363.521606 644.737122 5.777873 4688 
613.959839 769.514709 6.324512 4689 
95.536041 720.265381 7.866093 4690 
386.172607 756.967712 20.145115 4691 
2766.803711 742.091125 15.715014 4692 
219.109207 585.631042 6.320206 4693 
61.559036 680.516174 5.906880 4694 
80.610916 835.203857 5.398207 4695 
356.045349 1095.465576 6.049450 4696 
597.018372 535.850403 4.899293 4697 
213.714935 635.119690 5.027815 4698 
2768.489990 1081.455200 4.065838 4699 
183.271500 628.707214 6.082076 4700 
224.528076 661.656677 6.549819 4701 
114.292366 917.828552 6.575728 4702 
607.343689 1544.793823 6.191901 4703 
491.759003 554.432556 3.903455 4704 
363.992371 777.654846 5.300619 4705 
577.703613 810.294434 4.790274 4706 
337.958557 689.433716 5.780247 4707 
357.896301 721.143250 6.707367 4708 
577.080933 462.146179 4.851318 4709 
371.284790 493.848572 5.258831 4710 
565.673767 781.182556 5.020648 4711 
567.033386 502.511505 4.946869 4712 
281.576813 578.315979 5.626032 4713 
620.997070 577.414978 5.332230 4714 
2748.708496 578.085083 3.794567 4715 
446.162872 540.895569 7.001615 4716 
302.313171 798.386536 6.149688 4717 
2756.653076 752.479309 3.797140 4718 
400.307129 509.491852 7.585628 4719 
216.760223 688.310059 8.168964 4720 
260.707062 693.584167 7.876349 4721 
162.646194 763.790039 7.806514 4722 
111.748238 743.958923 7.228745 4723 
308.058563 621.816650 7.654795 4724 
2572.492188 2137.802490 7.320651 4725 
398.690216 593.620117 11.189187 4726 
470.286835 453.339996 5.640756 4727 
134.310532 737.445374 6.537384 4728 
645.062805 645.419250 5.058235 4729 
433.464172 512.033875 6.754754 4730 
349.190826 577.085449 5.574009 4731 
346.929565 652.650757 8.251104 4732 
334.333740 792.085022 9.982994 4733 
268.813049 767.854675 12.936916 4734 
571.501282 476.232910 8.059074 4735 
95.378830 799.692505 9.116378 4736 
116.667274 862.655518 7.487919 4737 
573.585815 868.755310 9.044825 4738 
337.082062 723.915955 12.417042 4739 
219.812637 72.173973 6.501183 4740 
372.004547 105.828438 6.362531 4741 
630.680359 392.992096 6.004339 4742 
613.750549 88.977112 5.374888 4743 
296.016235 282.257080 5.199033 4744 
335.413757 346.162628 5.114783 4745 
326.861298 472.175385 4.987841 4746 
44.158611 571.496765 4.480027 4747 
2765.294189 764.020508 5.383388 4748 
2980.072266 1242.398926 4.775758 4749 
2860.460205 1337.948120 4.415715 4750 
55.197704 154.917999 5.879996 4751 
369.492798 249.385239 6.665299 4752 
366.932434 280.489227 6.472690 4753 
60.207207 406.883057 6.666173 4754 
3281.367432 1852.907959 4.959541 4755 
135.992081 174.094757 6.269032 4756 
371.649109 205.062805 6.819580 4757 
3028.058594 1730.320190 6.636483 4758 
659.749695 200.591064 3.945913 4759 
2749.361328 842.250366 3.659819 4760 
3148.740479 1621.018921 4.129748 4761 
2892.890137 1457.002808 3.922403 4762 
308.050812 115.352493 6.181911 4763 
301.550995 178.205109 5.808669 4764 
168.543732 209.528473 6.021977 4765 
601.088013 242.255249 5.929275 4766 
458.758698 303.946014 6.687581 4767 
433.543365 338.514893 5.978715 4768 
361.894135 400.630341 6.657899 4769 
632.266663 110.038506 5.116641 4770 
66.142044 367.732239 5.293133 4771 
267.520935 717.020813 5.842753 4772 
2888.859619 1991.873535 5.441775 4773 
342.325195 188.032913 5.489631 4774 
212.710159 443.018616 6.073244 4775 
350.231750 794.350098 4.537163 4776 
2765.368164 1228.250366 4.268141 4777 
3207.904297 1389.224243 4.509867 4778 
3515.996582 1895.807861 5.244999 4779 
160.201019 181.049545 5.996429 4780 
277.050629 307.702545 6.294120 4781 
183.120499 441.948883 6.685640 4782 
154.022125 472.698883 6.023459 4783 
259.453491 539.257141 5.949428 4784 
352.903351 469.045868 4.726308 4785 
223.428223 500.063873 4.939613 4786 
613.369873 64.379959 4.415617 4787 
2271.588135 1186.313354 5.263396 4788 
2945.780273 2251.872803 4.657921 4789 
374.113037 66.487663 5.812806 4790 
333.612732 670.593384 6.115992 4791 
462.281097 1116.065308 5.734893 4792 
3399.313232 2159.707764 6.135309 4793 
624.349243 50.258938 5.542760 4794 
588.189392 304.785156 5.647769 4795 
278.516357 755.511169 4.969988 4796 
2750.195801 860.053162 3.870507 4797 
202.335236 190.803528 9.310321 4798 
291.152161 249.122345 10.611240 4799 
1275.738525 1267.884277 9.378999 4800 
220.275360 101.847374 9.736182 4801 
379.492310 163.545837 9.978752 4802 
249.706909 421.531525 8.027102 4803 
182.429291 480.816284 9.537354 4804 
236.071823 486.266632 7.829650 4805 
456.716034 142.514206 11.415459 4806 
250.990280 574.084595 11.022664 4807 
238.206451 641.474304 12.853207 4808 
294.157776 133.450378 10.333295 4809 
623.960327 196.151657 7.788938 4810 
245.273911 386.133057 7.617936 4811 
128.368958 513.882263 9.382879 4812 
291.100830 512.358826 11.185161 4813 
111.435753 582.200623 10.161854 4814 
286.549652 288.370544 13.634547 4815 
291.940430 353.317535 11.929708 4816 
331.512665 296.801025 9.083451 4817 
3359.603760 1944.432983 7.833885 4818 
398.285614 476.777496 11.546153 4819 
280.249115 201.759338 10.314777 4820 
332.588776 326.486176 8.730620 4821 
291.890839 455.969849 8.995349 4822 
189.080673 319.275604 12.504311 4823 
185.654449 277.152466 7.701933 4824 
416.455994 527.261292 9.357860 4825 
121.339958 63.500465 6.513464 4826 
341.090576 164.021072 6.140628 4827 
338.312866 256.868469 6.082494 4828 
256.754730 453.858246 6.733150 4829 
130.531036 199.154175 4.636298 4830 
639.524841 260.601990 4.109905 4831 
131.574295 388.605377 5.736880 4832 
2821.038574 2392.560303 4.993411 4833 
90.380035 191.757111 5.952453 4834 
239.832535 193.235428 6.962874 4835 
152.269608 293.462311 6.106220 4836 
159.989319 514.348022 6.220448 4837 
168.097687 743.006287 6.829966 4838 
671.342407 111.948196 11.951494 4839 
434.545319 766.782166 12.421475 4840 
153.000000 110.325378 7.444244 4841 
443.878174 108.091232 8.045148 4842 
90.376442 241.941360 7.798449 4843 
417.209564 370.197662 10.750243 4844 
110.420418 431.706451 7.857710 4845 
210.264053 157.411728 8.188312 4846 
617.770020 150.773621 8.411242 4847 
334.628418 220.630478 9.764756 4848 
323.013702 414.440155 9.693892 4849 
868.631836 545.205200 22.957645 4850 
655.729553 623.967651 16.356569 4851 
311.546967 586.293152 15.642833 4852 
2800.147949 1644.529541 14.826596 4853 
324.362091 199.737656 6.288997 4854 
204.976746 265.753082 6.409954 4855 
359.399902 454.791870 6.503877 4856 
157.043259 91.371689 5.321869 4857 
640.174927 247.647736 4.410544 4858 
2761.042236 911.958557 4.003458 4859 
2966.251221 1626.537964 4.915885 4860 
431.121765 87.101730 6.035248 4861 
649.671570 118.674599 7.122995 4862 
349.164856 343.108795 6.272574 4863 
270.925690 471.325806 6.221668 4864 
472.347504 660.278015 6.727836 4865 
89.166969 268.475098 5.711008 4866 
647.192139 303.217743 7.074045 4867 
89.734306 653.998962 6.488680 4868 
272.614899 74.919151 5.422669 4869 
592.121826 264.537933 4.804301 4870 
465.320984 520.841248 4.253710 4871 
201.920288 778.845703 4.939568 4872 
2767.522217 1096.271973 4.329730 4873 
204.813812 81.898727 6.075142 4874 
347.972809 370.003174 6.366252 4875 
622.446716 369.733032 6.561135 4876 
159.385193 689.439819 5.561915 4877 
214.831223 205.972885 5.285527 4878 
285.536591 270.145599 4.910861 4879 
3253.080322 1928.735840 5.168789 4880 
234.952255 123.742386 5.333252 4881 
450.193634 606.817810 5.297690 4882 
584.152466 604.130066 4.050797 4883 
630.177551 276.244843 6.487921 4884 
434.603760 568.700378 6.353408 4885 
383.225220 115.232903 4.974816 4886 
318.190094 151.237442 4.273599 4887 
386.668304 243.906021 5.707455 4888 
232.073410 340.790955 4.448076 4889 
246.411606 438.855713 5.436748 4890 
656.362244 437.998840 5.177168 4891 
615.250488 660.466858 4.006798 4892 
2759.443359 853.251038 3.595175 4893 
310.603760 130.195679 4.155926 4894 
386.613586 195.396347 5.488645 4895 
578.844788 417.192047 5.543142 4896 
452.253693 2489.908447 5.476484 4897 
294.891418 222.711212 7.052487 4898 
254.962021 478.743256 7.273338 4899 
1104.370483 1208.756470 6.292100 4900 
196.736786 401.366333 5.596204 4901 
378.486359 529.616516 4.981377 4902 
114.105019 720.827515 5.269045 4903 
298.100983 316.952423 8.435483 4904 
414.127869 638.360413 8.230944 4905 
615.125183 1072.481079 7.135051 4906 
437.832092 161.579529 9.934346 4907 
573.123291 289.509521 9.147524 4908 
169.476959 416.683624 10.707295 4909 
344.869141 416.806732 7.825998 4910 
348.266296 549.519287 9.697521 4911 
445.611938 320.886993 9.016438 4912 
414.608429 448.309814 8.573645 4913 
343.251068 511.965454 7.730492 4914 
71.453354 707.350769 7.340711 4915 
182.742676 356.496429 12.777651 4916 
109.974869 359.095734 9.537806 4917 
437.040314 359.834259 7.539868 4918 
107.627869 555.937500 7.953273 4919 
633.686218 696.647339 7.513487 4920 
275.414459 734.119507 7.037306 4921 
432.602570 406.545563 11.814856 4922 
354.647461 204.948563 8.031075 4923 
316.093018 265.608490 10.056843 4924 
352.972412 264.759186 8.376574 4925 
145.164551 332.332642 8.576901 4926 
2927.126709 2312.178467 13.536647 4927 
259.457916 213.520493 7.533203 4928 
226.925293 404.228760 9.138560 4929 
151.490677 163.617477 6.104644 4930 
358.023926 164.863174 6.942270 4931 
175.721786 195.865829 6.532516 4932 
131.911484 225.752335 6.467907 4933 
375.561584 390.309753 5.569980 4934 
571.964844 735.567505 6.197192 4935 
454.006134 938.620605 6.692910 4936 
2952.497070 1757.164673 5.703934 4937 
253.927216 68.244431 5.091120 4938 
2773.018799 1189.882324 3.656266 4939 
332.090179 127.931763 6.788985 4940 
232.516037 230.693100 6.154445 4941 
618.745178 322.573578 6.450801 4942 
72.688759 512.607117 6.562030 4943 
448.424927 657.783936 8.807863 4944 
2863.323730 2462.296631 9.428795 4945 
81.615898 176.539810 7.703444 4946 
254.974609 180.198578 7.333613 4947 
324.848907 176.624893 7.485092 4948 
625.331848 175.105103 7.965450 4949 
146.032028 497.111237 8.666720 4950 
145.168259 627.269104 8.689274 4951 
2859.966064 2377.622803 10.210316 4952 
118.509666 104.730774 11.569876 4953 
284.375977 429.487122 11.516060 4954 
2816.793457 1131.257812 11.731498 4955 
104.353706 71.079231 7.412722 4956 
83.462402 221.310623 8.382915 4957 
315.859985 347.245392 7.462635 4958 
252.053970 226.878799 18.740993 4959 
283.524719 386.792511 16.474382 4960 
1275.975830 607.934631 53.769295 4961 
2732.042480 365.631927 4.108222 4962 
2898.853760 1617.860229 12.651239 4963 
1991.973877 2428.917969 10.415966 4964 
1275.643188 810.326416 9.935441 4965 
2677.581543 260.671783 4.782617 4966 
1152.862549 1588.934204 62.232014 4967 
233.247711 328.355286 5.730338 4968 
611.269226 975.667969 4.889219 4969 
534.747925 1497.348633 4.731818 4970 
183.867813 2396.029053 5.255731 4971 
273.127960 2117.067627 6.810336 4972 
364.173248 2183.435791 6.222965 4973 
267.548676 2501.464600 6.270592 4974 
366.837402 2494.851562 6.106465 4975 
573.601318 1065.833130 4.748620 4976 
583.687744 1686.961304 5.676749 4977 
605.222961 2127.904785 5.487115 4978 
340.440338 144.227234 7.023561 4979 
562.499512 1768.301758 6.256702 4980 
301.887299 238.911224 4.952443 4981 
303.128021 301.916656 4.143361 4982 
2742.312744 654.818115 3.608860 4983 
274.092957 878.449463 4.352369 4984 
597.498169 1257.627075 4.670189 4985 
286.535889 411.785065 4.727447 4986 
613.289001 1705.216675 5.193057 4987 
382.140015 2520.792480 4.579532 4988 
560.358215 1843.260254 6.113000 4989 
580.814392 2331.771973 6.079471 4990 
602.699341 178.017349 4.806873 4991 
631.497314 528.089417 3.842263 4992 
579.078857 593.421082 4.206033 4993 
616.654846 1052.518677 4.572516 4994 
256.248291 2360.399658 12.494626 4995 
362.004242 2325.146973 9.357825 4996 
243.734833 2091.292236 8.352410 4997 
294.498901 2200.125244 6.334354 4998 
319.383392 768.145630 11.269519 4999 
367.774628 281.641266 6.993726 5000 
555.885071 669.660400 10.111216 5001 
310.144897 654.682922 14.682144 5002 
346.213043 393.600342 6.758579 5003 
575.905701 2134.479248 6.894117 5004 
257.215363 2415.316650 6.890770 5005 
429.571075 122.858353 5.094611 5006 
238.316940 789.692505 6.350453 5007 
362.729797 2371.643799 6.202225 5008 
379.570557 615.410767 4.680218 5009 
552.598938 1264.567261 4.081233 5010 
615.956238 528.128357 6.461719 5011 
568.131042 1993.502075 4.983622 5012 
260.673309 795.467224 4.570035 5013 
544.685242 2080.124268 4.174359 5014 
294.377502 2512.891113 4.688685 5015 
295.020599 2060.915283 5.946930 5016 
249.131958 404.915558 5.372181 5017 
415.889893 1141.734009 5.016205 5018 
2750.328125 609.548279 3.915986 5019 
357.065125 897.802795 5.001142 5020 
332.159851 176.197510 4.777722 5021 
622.195312 560.373169 3.765249 5022 
2763.895264 989.570129 4.003648 5023 
238.798325 311.557739 7.725700 5024 
2363.655762 1134.197021 11.422779 5025 
352.437561 2452.466309 5.198234 5026 
167.473541 2284.572998 7.131164 5027 
286.643555 293.862885 4.083742 5028 
576.613098 900.285461 5.492661 5029 
587.076294 1062.761475 5.018345 5030 
572.626221 1754.401001 5.916302 5031 
2620.064941 969.680664 8.704449 5032 
422.406158 1454.002808 16.817072 5033 
