ply
format ascii 1.0
element vertex 851
property float x
property float y
property float size
property short id
end_header
1664.565552 1882.094360 26.704170 22 
1956.104492 2113.134277 29.228802 28 
2094.522705 2045.910156 13.138676 59 
2103.577881 2176.205811 15.033424 63 
1898.201782 2166.614258 26.866144 67 
2038.206787 2112.277100 26.723293 68 
1857.594360 2118.247559 38.189411 75 
2614.791748 1040.786865 9.957789 83 
1892.492432 2067.202148 25.280258 104 
2235.086426 344.826416 4.568618 146 
1147.146851 253.723755 4.319248 174 
2738.239014 1219.783936 10.397113 178 
1258.378906 299.899078 5.403346 179 
1041.528442 398.980103 5.439096 180 
857.198242 479.893005 6.641591 183 
1134.198975 347.880615 5.718725 189 
1448.193481 196.415009 14.506804 199 
1103.010864 363.105103 5.172706 203 
830.022766 495.958252 5.098776 225 
989.159424 425.179840 4.669824 226 
947.795349 432.627594 5.632317 227 
1560.134888 154.125885 4.653605 228 
1511.174805 186.035797 5.234535 234 
2124.832764 1496.279175 3.911276 235 
1025.516113 408.261414 4.822361 236 
1628.261597 163.951157 4.426742 237 
1148.759399 352.204712 4.586112 238 
2924.310791 2194.860840 9.149784 239 
1480.487549 1011.457336 18.656059 240 
1739.620605 2207.804932 5.650202 241 
1229.219971 301.773529 4.843502 242 
1588.581421 141.447662 3.945395 243 
1246.251709 294.603180 3.809988 244 
1152.677734 337.859497 4.869696 245 
3562.059814 751.763977 11.089810 246 
2696.620361 1588.597046 17.726021 247 
1066.478882 619.233032 53.744102 248 
2822.093262 1670.340698 16.519274 249 
2357.055908 1187.648071 8.870874 269 
71.756950 2075.460693 5.987025 292 
145.556793 2028.647583 8.677317 295 
220.479431 1822.841309 12.189404 332 
338.513977 1767.233887 8.460917 355 
350.442413 1808.273926 6.176190 398 
328.617767 1784.760498 5.473400 427 
1744.384888 1933.612305 7.524850 446 
2423.804932 783.253906 11.682595 496 
1497.511963 1243.253906 7.440077 509 
2730.104248 107.877975 9.534197 556 
3556.485352 1605.963135 8.044403 595 
3647.266846 883.353943 8.858054 599 
323.449524 849.387207 4.895545 600 
3582.345947 986.312317 6.285941 601 
431.568268 2296.322266 6.340031 602 
296.268341 2232.262695 7.491251 603 
770.761475 1127.518677 6.622858 604 
3573.226807 313.107086 8.831623 605 
675.783997 2105.398682 14.754138 606 
515.954285 2441.752441 7.781535 607 
2814.726562 324.715790 5.060805 608 
480.789032 2471.360352 5.097000 609 
2757.343750 1926.336426 9.618898 610 
521.539978 2488.997314 8.403731 611 
204.382935 2212.111816 6.383173 612 
135.526001 2053.375244 10.570920 613 
385.758118 2209.378662 5.237951 614 
409.197144 2360.457275 7.061431 615 
518.410461 2466.156494 7.437643 616 
3281.927002 317.237274 6.095621 617 
532.894470 2504.628418 8.084442 618 
197.642197 1600.979614 6.059381 629 
347.636719 2244.381592 5.469258 645 
919.933411 2445.739746 7.605550 646 
226.035187 2074.918213 10.032013 675 
135.855743 2170.945068 7.435964 684 
523.046326 1943.550781 5.450924 752 
383.440125 1805.856934 6.620692 782 
608.429688 923.789795 21.438681 797 
501.751007 925.092041 15.993637 798 
353.648651 1831.394165 8.269211 810 
394.662933 1861.271606 3.573158 830 
122.075760 2195.153320 7.212739 895 
89.573730 2216.191895 8.572684 906 
253.715942 2150.688232 8.295431 912 
161.665115 2168.400391 7.430711 914 
179.200638 1591.865845 7.634567 929 
3435.992188 1637.093018 7.729675 930 
131.835571 1888.374023 6.060825 936 
118.355286 2167.949707 5.706872 946 
398.763336 2339.403809 9.917621 1164 
712.680298 2255.657959 17.644672 1165 
75.415237 1896.325928 4.179166 1166 
114.475510 2217.796143 6.307668 1167 
178.956314 722.069458 4.374930 1168 
426.202911 2397.041748 6.579648 1169 
265.313385 2129.067871 9.572564 1170 
375.148438 2295.143066 5.951308 1171 
2229.324463 407.101776 5.673304 1172 
2910.654297 358.830139 5.398946 1173 
2932.098389 366.783264 5.463610 1174 
2465.112305 521.973267 50.468040 1175 
889.178650 618.444824 5.712131 1176 
70.027817 2025.675293 3.895521 1177 
103.808907 1517.171387 7.274271 1178 
2846.088867 175.035324 5.120165 1179 
258.789703 2111.320557 5.818487 1180 
68.145409 2265.791992 5.322423 1181 
234.984756 2157.978760 6.026709 1186 
1426.081177 1599.765503 6.784794 1221 
3539.095947 2358.690430 11.061859 1306 
2114.509277 2108.489502 35.509640 1734 
2258.675781 932.520630 7.426416 1743 
2328.257080 605.114380 18.490623 1744 
283.019043 1106.335693 6.828263 1745 
255.909058 1847.745728 12.406769 1746 
3078.133545 1329.668335 11.668747 1747 
1528.179199 1062.720825 8.443130 1748 
1427.655640 1158.162231 19.234562 1749 
283.033142 1868.924561 10.367805 1750 
3070.070312 1355.301147 6.188148 1751 
2664.984619 2472.203125 9.768292 1752 
2677.146484 962.581238 6.356321 1768 
3421.922119 2321.260742 9.638700 1788 
3140.048828 956.782898 18.386192 1813 
3385.436768 712.470337 15.606077 1816 
3204.952148 800.831848 7.627925 1832 
3190.499512 843.331055 8.009395 1836 
3244.687012 852.112549 11.922490 1850 
2897.664795 324.186798 5.310087 1867 
176.077713 838.885132 8.613988 1877 
1657.401733 2497.469971 7.006288 1878 
2478.557373 2038.827026 4.594236 1929 
1372.963989 907.250549 6.839407 1951 
2350.017090 2479.744385 4.695482 1963 
2838.822266 682.075012 12.134590 1964 
2858.490723 567.984558 13.102785 1965 
709.222229 979.919250 9.349369 1966 
3660.904053 740.348267 7.976939 1967 
2818.883545 307.260254 3.668633 1968 
2526.883789 914.448303 7.452211 1969 
1633.965820 1944.025635 5.571424 1970 
2743.816406 153.699432 16.109079 1971 
2081.081299 1975.354004 13.352311 1972 
2842.827881 306.705139 6.175851 1973 
444.977875 266.489410 5.868787 1974 
3244.205811 884.044617 13.550265 2339 
832.411987 888.576172 7.855811 2341 
60.610035 883.077026 5.423662 2379 
2813.701172 124.013596 13.387969 2380 
321.747803 1951.112427 5.161690 2381 
3186.168457 914.682007 23.855408 2383 
2747.569336 1338.476562 53.110744 2384 
1758.266357 1149.083008 5.807372 2385 
1039.115967 1818.621704 13.378097 2386 
1418.505249 1561.610474 12.646856 2391 
1067.378906 1748.918945 25.567963 2580 
448.344147 946.006836 18.911480 2683 
1307.720459 823.596802 7.545745 2768 
2332.419189 806.175171 6.589011 2787 
3148.067871 1830.518555 6.567518 2788 
2985.600830 1290.625732 9.606816 2789 
134.632355 841.768921 4.477834 2790 
2745.660156 1684.050171 18.287611 2791 
772.742371 1398.475830 17.556131 2792 
1478.187744 2418.172607 7.958397 2793 
1016.386536 1004.562073 3.896287 2794 
1104.407959 631.619202 9.095437 2795 
1139.209839 1068.562622 9.877405 2828 
2811.559082 740.022278 8.314134 3011 
763.389587 1221.660400 4.589969 3024 
1220.661987 1222.848389 6.733611 3025 
2323.010254 983.806702 18.280733 3026 
2577.154785 948.876221 24.956127 3027 
495.067871 1433.151489 14.930510 3028 
2526.271729 1258.525879 15.039511 3029 
1042.349976 1084.317993 4.933787 3030 
285.259613 2009.422485 4.048038 3031 
633.439758 483.957245 4.657879 3032 
402.379974 1242.558838 6.336537 3033 
531.730774 1777.048950 6.845011 3034 
2935.842285 2284.900391 9.977549 3072 
3367.505859 872.342407 20.438791 3077 
3206.521484 867.114990 14.757700 3078 
3055.021729 2165.065674 10.487813 3107 
3398.649414 2119.422852 8.878768 3164 
3361.206055 1636.801758 5.351174 3172 
3344.809082 1666.649902 6.444457 3176 
3380.433838 1643.365601 9.874589 3177 
3325.317383 2149.635498 8.302432 3182 
3243.047852 2259.795898 8.016770 3185 
3398.413818 1661.832275 6.641406 3191 
3580.873779 1946.492798 7.745123 3202 
3535.952881 1913.388184 8.892604 3204 
3549.021484 1876.131104 9.148034 3205 
3519.074219 1893.501465 9.824916 3206 
3331.517090 2359.668701 10.431034 3236 
3597.176758 2313.997559 6.705053 3244 
3435.367432 2421.833008 6.932144 3245 
1796.696045 875.401428 13.993218 3246 
1396.681396 361.384918 4.290308 3247 
3606.177246 2463.730957 10.217805 3248 
3441.378418 2371.031738 9.816912 3249 
1436.390381 1254.961548 4.614222 3250 
3344.918457 1451.201538 6.146867 3251 
3465.073486 2040.401489 7.175105 3252 
316.310242 714.215515 5.893316 3253 
895.990356 1370.500244 8.607149 3254 
3548.565918 2029.521973 6.535702 3255 
3460.106201 1600.204346 6.171165 3256 
3436.623535 2052.826660 12.096341 3257 
3622.852295 2285.821289 8.236012 3260 
3476.100098 2315.878418 10.014185 3261 
2902.081055 2304.991455 6.867098 3262 
3146.067627 1926.640015 8.070152 3264 
3468.738770 2413.340820 12.693689 3269 
3628.654785 2328.511963 5.872399 3271 
2943.509277 2260.277100 7.633225 3280 
2884.737305 2279.239014 7.502953 3281 
3598.558350 1229.462769 4.058496 3302 
3553.290283 1936.999756 12.267076 3331 
3340.522949 2341.300781 6.866416 3334 
3464.643066 2021.939697 6.642862 3336 
3409.049072 2102.150146 7.032665 3356 
414.249329 576.819946 3.734937 3535 
2774.276123 774.746582 8.134005 3575 
641.011597 530.232117 3.978709 3576 
3148.913574 283.501312 3.997882 3577 
2325.520020 2197.624756 9.233215 3578 
2173.008789 518.076843 8.816683 3579 
1010.759888 533.728149 4.655815 3580 
2817.321289 81.317551 4.658795 3581 
978.658691 976.056519 42.624180 3582 
2961.109375 2436.595703 7.448549 3583 
458.440369 355.935730 3.646450 3584 
740.348938 1226.351562 8.179027 3585 
2679.141113 2315.782227 6.079162 3599 
3440.567383 1603.126831 6.401555 3639 
3301.771240 1689.711792 10.526052 3644 
1781.171265 403.195129 16.855206 3658 
1491.332520 478.881104 18.312654 3667 
786.473572 517.148865 5.001038 3689 
3292.154053 1827.120850 5.971682 3724 
3099.563232 1903.230469 7.533000 3732 
545.872803 624.881897 6.061042 3740 
635.687866 584.521973 6.022418 3741 
3089.433105 2080.124756 7.750203 3752 
258.206635 694.785400 5.835833 3761 
1664.183350 158.108643 7.307969 3781 
3364.698242 1931.914673 7.917111 3785 
3434.258789 1923.060059 10.682095 3786 
3333.808838 1991.825195 10.705269 3792 
3483.443359 1785.346191 8.832501 3793 
3554.800781 1652.376099 4.712262 3827 
3506.693115 1988.023315 5.293190 3849 
3496.287598 1806.149292 7.193353 3868 
3129.426758 1937.175171 7.557234 3874 
3182.635986 1857.546753 7.518014 3876 
3214.200439 1785.614258 7.743582 3877 
3454.813721 1955.709839 12.941163 3888 
1437.519043 412.386810 44.141956 3903 
3450.318848 1563.456909 5.957736 3927 
3074.193359 1932.617432 6.384248 3956 
1495.959351 184.372406 5.426916 3982 
3052.698486 2058.497803 7.896220 3993 
3427.223633 1842.029419 9.424243 4026 
3403.945801 1927.176880 12.846627 4034 
3660.226074 1725.946411 8.020415 4036 
3414.579834 1454.441162 5.173876 4042 
3442.195312 1903.313843 5.376634 4061 
3436.125732 1863.071411 5.287205 4069 
1552.795410 168.561127 5.059744 4131 
716.970154 546.547485 6.536862 4138 
3440.174805 1981.484741 9.635818 4141 
3160.035645 2319.770264 7.760749 4150 
1728.298462 80.272690 4.852312 4160 
3194.194824 2161.778564 11.843575 4163 
3166.070068 2299.291992 8.192928 4168 
2945.176514 2213.760010 9.398935 4174 
1049.515137 384.870422 4.837571 4176 
3128.572510 2248.619873 7.782015 4185 
2984.306152 2140.165527 6.292816 4190 
1068.766479 361.170593 5.240851 4191 
1405.779053 235.769028 4.646325 4192 
3038.058838 2107.941406 15.176815 4193 
3015.228027 2155.613281 10.473434 4194 
3287.272461 2124.113770 10.796883 4195 
3240.504150 1898.308716 7.020339 4196 
3240.467285 1825.954712 5.920668 4197 
1163.110596 345.785309 4.378679 4198 
1653.928955 1546.177490 6.730231 4199 
918.323608 1630.857788 5.064177 4200 
3288.680176 1645.275757 8.365683 4201 
2636.971436 484.575195 9.008354 4202 
1456.531006 1826.382446 18.241535 4203 
975.191650 420.217133 4.877837 4204 
1869.628296 2358.161865 6.968488 4205 
3029.283203 2172.940918 6.143437 4206 
3459.294189 1904.294189 13.432788 4207 
2999.147705 2123.766846 9.596528 4208 
2916.705322 2225.195801 6.565010 4209 
3342.240234 1725.181519 5.958853 4210 
3336.922852 1771.838989 6.381051 4223 
3183.420898 1893.817139 6.422015 4224 
3224.825684 2118.362305 7.773808 4227 
3304.928711 2131.641846 4.990988 4231 
3246.925781 2187.224609 13.015217 4232 
3239.615723 1807.621826 5.950311 4233 
3494.980957 2053.208252 7.063806 4255 
1114.012573 701.072144 9.781700 4265 
75.457939 835.533264 6.648306 4279 
3556.582031 1334.863403 5.235754 4309 
3135.368164 1845.579102 7.745816 4414 
3501.094238 1858.571899 6.493207 4462 
3460.239746 1576.654419 5.788579 4463 
847.615540 439.499908 4.329232 4464 
3128.582520 1959.482056 6.732275 4465 
3180.963379 1791.685791 5.744940 4466 
2084.368164 543.017578 15.907451 4467 
3385.588623 2040.901245 8.103236 4468 
3237.512939 2100.480469 8.974139 4469 
3576.468018 1905.685425 6.138676 4470 
2958.115723 2044.651123 14.468718 4471 
3534.738281 1713.654175 13.722163 4472 
3727.222900 1823.664062 7.943970 4473 
3736.441650 1224.563965 8.186100 4474 
3646.055420 1941.442993 5.853608 4475 
3329.979004 1948.455688 7.506487 4476 
3309.677979 1647.595703 5.684736 4477 
3068.116699 2090.172607 9.171726 4478 
3347.788574 1566.462280 7.326050 4479 
828.497375 1744.019897 5.919677 4480 
3386.802490 1952.082642 6.501850 4481 
3485.978760 1687.196289 5.737836 4482 
3471.470947 1621.655151 21.879459 4483 
3645.743164 1156.786133 6.350066 4484 
3595.680176 734.687134 4.962788 4485 
3240.353516 1719.101807 9.578005 4486 
3419.280518 1482.073486 9.334634 4487 
913.613159 358.354553 17.832893 4491 
836.675720 198.747559 5.882370 4497 
3570.114258 1886.873047 7.862133 4541 
342.249725 717.063477 7.055112 4576 
762.519714 2491.329590 7.468896 4605 
1371.241455 281.784180 5.468428 4606 
592.961365 635.441650 4.670896 4607 
991.757446 625.132690 6.949293 4608 
269.015167 752.117310 5.209585 4609 
328.363312 726.745544 4.622715 4610 
946.041565 445.609467 3.719385 4611 
523.481628 678.855042 7.947217 4612 
507.445984 644.491089 5.259198 4613 
528.443237 635.838684 5.011487 4614 
598.625854 603.478882 4.992897 4615 
617.721863 594.972778 4.711543 4616 
1701.714844 654.527527 14.418704 4617 
2728.701172 279.929688 4.900360 4618 
2442.171143 2127.920410 7.775978 4619 
372.895416 690.221863 3.641398 4620 
1745.971924 1889.188232 5.660276 4621 
79.365723 1465.738159 8.497765 4622 
3019.899902 2429.267090 7.657676 4653 
2870.581787 2332.339600 6.053844 4654 
3610.343262 2511.449463 6.387536 4655 
1761.582886 54.820457 3.735183 4656 
3201.949219 2468.920166 8.953362 4657 
3125.141113 1867.511230 7.819323 4658 
3090.223633 2458.478516 7.180290 4659 
3604.992920 2395.198730 6.105070 4660 
3223.942139 1927.204224 7.722711 4661 
173.712387 792.321350 5.862901 4662 
218.263199 772.929321 6.171444 4663 
3179.033203 1946.796143 5.468238 4664 
1318.598022 302.536469 4.319933 4665 
3013.155762 2459.911377 7.273833 4666 
3142.238037 2484.090332 8.392974 4667 
3352.822510 2224.822266 6.762613 4668 
135.603455 810.436340 6.338891 4669 
3128.810059 2458.567383 6.001205 4670 
3332.720215 2521.543945 6.286351 4671 
3494.749268 2037.069946 5.701316 4672 
395.390228 734.195862 6.293929 4673 
3267.020996 2498.884766 5.929117 4674 
2860.086182 2357.096680 7.118207 4675 
2824.541992 2243.815674 5.675047 4676 
3236.277588 2384.791748 5.770136 4677 
3188.756836 2490.385254 7.171094 4678 
3114.492676 2039.692993 7.109380 4679 
3539.146240 2399.932129 5.768971 4680 
3479.128662 2058.234863 4.991881 4681 
3158.904297 2438.936523 10.332942 4682 
3240.055176 2317.501221 12.590864 4683 
3560.766602 2233.830566 8.848743 4684 
2820.213135 2426.094971 11.613229 4685 
3320.316895 2305.824463 13.006944 4686 
3270.404541 2262.151123 11.815726 4687 
3206.564209 2364.388428 7.690248 4688 
3041.554688 2032.319580 7.206235 4689 
3572.469727 2459.240723 9.107162 4690 
3251.380371 2241.689209 27.208664 4691 
444.687622 643.415161 18.866436 4692 
3349.081299 2512.968994 7.934444 4693 
3591.944824 2518.194092 7.716804 4694 
3644.808594 2356.903809 6.463273 4695 
3458.832764 1969.836792 6.005220 4696 
2905.127686 2261.479736 6.476863 4697 
3383.261475 2469.395752 6.556726 4698 
774.412720 507.426331 5.375834 4699 
3417.866943 2492.818848 8.182885 4700 
3386.459717 2434.641357 8.139950 4701 
3644.860596 2265.998047 7.102438 4702 
3452.879395 1467.285156 6.446183 4703 
2991.592285 2370.191406 5.639612 4704 
3285.765869 2236.538818 7.505566 4705 
3109.201904 2016.328613 6.327483 4706 
3265.926270 2337.791016 7.149679 4707 
3258.970703 2293.619873 7.380955 4708 
2881.631836 2349.024658 6.541367 4709 
3101.673340 2512.382568 7.761336 4710 
3101.666748 2048.519531 5.911427 4711 
2920.770752 2311.979492 6.811553 4712 
3268.893799 2481.693115 6.960177 4713 
2904.531494 2202.537842 6.834975 4714 
160.059433 785.277039 5.875148 4715 
3043.487061 2417.756836 8.636380 4716 
3369.416504 2254.948242 6.780719 4717 
395.092285 678.438110 5.982757 4718 
3076.593018 2476.123047 9.983393 4719 
3411.743408 2412.274658 10.828575 4720 
3359.240479 2380.637695 10.597038 4721 
3517.326416 2375.270020 9.028491 4722 
3560.997070 2423.379395 9.686637 4723 
3261.580811 2418.589844 10.206611 4724 
1832.856201 270.267914 5.029798 4725 
3130.015137 2388.446045 12.885611 4726 
2947.985107 2486.558105 7.997966 4727 
3536.925293 2417.395264 7.157165 4728 
2933.203369 2118.252441 7.015469 4729 
3035.774414 2453.247070 8.825092 4730 
3184.652344 2440.868896 7.991013 4731 
3232.072998 2362.620605 10.535301 4732 
3328.726562 2241.914062 11.308267 4733 
3392.279297 2305.423096 15.548933 4734 
2894.737793 2336.426758 11.051821 4735 
3610.643311 2379.380127 9.052462 4736 
3614.979248 2313.676758 9.885959 4737 
3149.826904 1966.544312 10.136165 4738 
3289.686768 2304.280518 12.016584 4739 
895.668274 101.653702 3.797753 4761 
3365.105469 2354.322754 7.746750 4772 
594.729675 147.333282 4.265903 4778 
3497.950439 2390.156738 7.663683 4838 
2902.168213 2128.866211 21.975498 4851 
3476.876953 2337.104248 6.930015 4872 
2970.987549 2202.309082 4.891673 4883 
3070.604248 2392.951172 7.421877 4885 
2757.325684 2318.060059 6.286504 4891 
2845.566162 2397.777344 5.991804 4896 
3119.031250 2471.681885 6.985916 4902 
3144.254883 2340.041748 9.333462 4905 
3169.224365 2468.781738 12.632668 4911 
3596.257324 2486.551514 9.490021 4915 
3116.129883 2296.011230 12.954994 4944 
3164.208008 1862.764648 4.924294 4969 
3448.298340 2202.732422 4.597536 4984 
2967.363037 2216.439453 6.141001 4993 
2873.300049 2254.330566 7.604902 5011 
3423.600098 2290.525635 5.196965 5013 
3359.882568 2134.773438 5.766918 5020 
3475.261475 1935.477661 6.371197 5034 
3594.806152 2258.268311 6.212966 5035 
989.081055 107.332932 4.941466 5036 
835.188354 139.462112 3.685525 5037 
980.579895 171.480850 4.843704 5038 
2982.293457 167.420242 5.498609 5039 
2999.408447 203.872299 3.961541 5040 
3224.763672 238.304825 4.290705 5041 
817.937927 301.914917 4.372854 5042 
3389.613281 2333.146240 4.836661 5043 
879.763367 108.472137 3.953409 5044 
2814.625244 140.742981 5.113788 5045 
792.118835 171.993042 5.500331 5046 
1075.449707 174.616013 3.897981 5047 
1541.034302 174.112442 4.217293 5048 
1184.807861 201.345688 4.797216 5049 
542.109985 263.870392 4.453122 5050 
906.078369 291.157043 5.731565 5051 
3365.885986 1766.465698 6.114626 5052 
791.350647 2311.398438 6.199402 5053 
3721.440186 2470.459473 5.665292 5054 
944.720520 64.362030 4.230612 5055 
2934.943115 159.930801 4.909929 5056 
485.866425 255.765625 5.023384 5057 
916.270264 259.314209 4.341359 5058 
839.937073 354.224823 4.609122 5059 
712.846436 384.230042 4.023762 5060 
169.947159 2315.395264 4.823366 5061 
646.633240 119.038803 6.899007 5062 
1115.723511 215.215454 6.719516 5063 
721.403198 336.594330 6.483083 5064 
3575.516846 2136.352051 6.245046 5065 
752.616394 95.058098 4.909453 5066 
643.374390 153.944839 5.685137 5067 
703.597778 154.283524 5.674505 5068 
755.445435 154.638260 3.894423 5069 
911.008728 152.783783 3.677886 5070 
843.034851 248.717545 4.925657 5071 
3095.540283 251.464142 5.145968 5072 
647.125061 440.997070 4.270163 5073 
3620.948975 2218.923584 5.059085 5074 
3305.321533 78.513542 5.736816 5075 
861.749573 173.824707 6.414840 5076 
3163.336182 172.716995 6.302068 5077 
741.439758 292.325531 6.776744 5078 
3312.077881 1739.354004 6.215075 5079 
3254.816162 1769.902588 6.476668 5080 
3248.688477 2152.592285 6.747104 5081 
65.250549 2218.968018 6.468479 5082 
3486.077637 2249.826416 5.910438 5083 
3435.765381 2280.728516 7.088894 5084 
3500.822266 2442.782471 6.258222 5085 
3092.794189 142.665726 11.132513 5086 
470.756012 401.242371 7.387051 5087 
3098.183350 2028.999268 7.702280 5088 
3460.536621 2087.342285 11.114463 5089 
3506.021484 2283.738037 9.885158 5090 
1987.792236 652.132080 11.123558 5091 
2956.888184 2043.895752 13.287773 5092 
3460.216309 2241.329102 14.189839 5093 
3162.600098 97.420731 8.049211 5094 
2127.301514 153.522141 11.237685 5095 
609.193298 221.476868 7.505118 5096 
573.223145 342.696289 8.824587 5097 
2981.393066 2062.590088 7.559935 5098 
3331.979736 2128.844238 8.326099 5099 
298.650146 2196.793213 7.445286 5100 
527.463013 495.939423 4.419695 5101 
326.248138 2267.619141 4.832322 5102 
3288.057129 2338.642090 4.590769 5103 
3367.801514 101.031624 6.046440 5104 
3155.915771 136.645645 6.922435 5105 
641.880859 409.388062 6.463421 5106 
710.049927 410.424377 6.584634 5107 
2856.367676 2412.410889 6.004816 5108 
1259.050537 48.101776 4.202798 5109 
2663.958252 50.955132 5.243036 5110 
2937.399658 178.412735 4.708844 5111 
3016.648926 177.603638 4.549574 5112 
3092.915039 176.649124 4.394022 5113 
544.413086 239.776184 5.233982 5114 
3246.143555 242.802109 4.182720 5115 
609.758423 275.058319 4.762607 5116 
611.176697 305.789825 4.962477 5117 
490.398376 336.848114 4.299547 5118 
3302.568115 2145.923096 5.466995 5119 
3633.697510 2411.350830 5.293952 5120 
756.322632 319.222931 7.523195 5121 
3589.266113 2172.754639 9.223249 5122 
2934.387939 2236.432861 8.256010 5123 
2805.560303 2299.550293 7.772698 5124 
3161.896973 2359.199219 10.242565 5125 
3106.615967 2488.427002 8.717876 5126 
243.443817 1608.857300 13.869152 5127 
3391.428467 2383.418213 12.175571 5128 
187.046860 2053.480957 7.545764 5129 
3294.633789 2050.815674 8.517075 5130 
3611.040039 2238.279053 7.270271 5131 
3647.836426 2245.019531 8.079269 5132 
3530.523926 2305.461914 7.842752 5133 
3596.726074 2013.182861 11.668534 5134 
3582.336182 2328.868896 13.858778 5135 
3241.949951 2394.124756 12.125843 5136 
816.635376 281.159058 15.245442 5137 
3087.213135 2234.768311 17.378229 5138 
757.909912 176.012848 16.029945 5139 
3174.629639 781.762451 19.516348 5140 
3387.745850 2182.623779 14.993069 5141 
706.651062 195.837814 15.626717 5142 
2830.291016 429.780426 15.913858 5143 
3290.962891 2199.202881 17.934338 5144 
422.735535 1089.262451 18.994081 5145 
3234.317139 2033.630127 19.642408 5146 
1840.983154 2021.315308 34.302696 5147 
928.025146 68.425911 5.163521 5148 
1089.138062 101.729942 5.370091 5149 
2831.932373 100.667290 4.757096 5150 
901.299744 133.027374 4.531534 5151 
3076.356201 166.481796 4.669205 5152 
588.637878 199.222626 4.089751 5153 
1164.440918 230.334106 3.830205 5154 
473.120636 323.816193 3.759048 5155 
865.077393 324.663818 5.375542 5156 
1044.463745 356.224396 3.801833 5157 
3374.585938 1722.463013 5.138319 5158 
3131.389404 156.445114 5.815302 5159 
541.035034 189.084381 6.658273 5160 
678.362671 382.752838 5.856671 5161 
3100.076904 1976.713867 6.208954 5162 
3351.675049 2075.907959 7.109774 5163 
3432.101562 2075.459717 7.091541 5164 
3658.842041 2109.121094 6.038900 5165 
3689.516846 2361.347412 6.373183 5166 
1363.531860 54.637753 3.709920 5167 
1054.939819 123.171364 5.361308 5168 
1080.293945 188.233078 5.230978 5169 
2974.752441 190.666153 5.201977 5170 
3145.596680 191.180771 4.941844 5171 
841.741577 220.089111 4.942070 5172 
867.043396 221.603836 5.545524 5173 
939.575928 252.659271 3.968028 5174 
493.462585 315.630188 3.667050 5175 
475.863159 464.793427 8.412436 5176 
3611.455078 2096.555908 10.147112 5177 
224.777512 2290.068848 7.534235 5178 
3605.854980 2353.864990 8.776588 5179 
96.111946 2483.024170 9.063604 5180 
3302.781250 1920.959839 12.875197 5181 
313.412109 2424.605713 11.810010 5182 
2913.368408 92.530365 9.196301 5183 
673.369263 353.542969 8.278454 5184 
3522.447266 2207.638184 8.753447 5185 
3249.517578 2468.549072 8.078482 5186 
2944.730713 116.768532 8.243898 5187 
957.173035 231.069855 8.104594 5188 
1490.875854 235.389511 7.173492 5189 
76.646736 2247.987061 8.372410 5190 
3220.964844 2250.092041 8.717898 5191 
860.842041 316.594879 10.336800 5192 
351.940582 1626.590576 9.155950 5193 
3534.615723 2078.029297 8.349998 5194 
3469.926758 2137.494629 11.128245 5195 
3564.682129 2327.690674 8.187740 5196 
119.547295 2447.414062 8.637756 5197 
2988.627441 132.151917 9.855734 5198 
3183.430176 198.178604 7.972285 5199 
515.707703 258.213898 8.702142 5200 
3203.579102 1965.288818 5.395882 5201 
2811.606445 114.401161 6.648905 5202 
640.104004 332.660980 6.643339 5203 
3492.932617 1824.080078 6.081789 5204 
2916.349121 2331.616699 6.367413 5205 
1329.690674 58.914474 3.669021 5206 
3333.677734 86.620934 3.897935 5207 
3024.762207 115.884598 4.615069 5208 
1078.096680 212.681244 4.428454 5209 
3151.766846 213.709686 5.111559 5210 
920.183655 276.744232 4.284725 5211 
429.444092 340.322937 4.073520 5212 
3503.731934 1969.034058 4.622389 5213 
2984.419434 2194.131836 4.691161 5214 
1055.473389 197.793121 6.635546 5215 
656.061890 227.610275 6.326230 5216 
1052.211304 228.063339 6.384026 5217 
695.616150 267.408356 5.634537 5218 
3306.701416 266.952057 6.696089 5219 
282.610748 2096.425537 5.970097 5220 
3002.520752 42.253521 4.054850 5221 
1449.225098 74.369667 5.227356 5222 
1056.920532 138.382004 4.917062 5223 
3243.610107 135.747147 3.756896 5224 
640.608521 167.907761 4.415568 5225 
693.562256 168.776337 5.403222 5226 
550.158569 207.366150 4.012803 5227 
714.265686 270.831726 3.961693 5228 
765.311035 334.522400 4.273970 5229 
554.279358 367.760193 4.706096 5230 
688.482422 366.060089 4.780108 5231 
706.216919 398.008728 4.246746 5232 
646.991760 428.833405 4.788105 5233 
532.127808 504.119080 3.752894 5234 
520.901611 580.116699 3.636381 5235 
3541.691895 1286.506104 5.123013 5236 
879.957764 2360.760254 5.362162 5237 
3456.885986 2164.747559 7.108055 5238 
3504.911377 2261.111816 6.328180 5239 
478.199066 2454.624512 6.939206 5240 
610.658447 45.536739 4.553899 5241 
3332.368896 77.388420 3.612143 5242 
1107.051514 139.697250 4.673354 5243 
3133.969482 141.773117 5.390019 5244 
3182.069092 139.280411 6.326831 5245 
1393.055298 201.009857 3.910212 5246 
3148.758301 202.255539 4.685384 5247 
767.942200 233.843689 5.159417 5248 
1121.361816 231.823120 4.884688 5249 
3098.874512 234.844437 5.175831 5250 
3168.153076 233.595016 3.817868 5251 
496.668945 264.610657 4.651155 5252 
937.388306 299.582245 3.856078 5253 
1024.508545 394.744598 5.235377 5254 
584.830322 130.691010 5.650731 5255 
604.226807 289.877472 6.762451 5256 
3461.524658 1924.349731 5.874555 5257 
781.008301 2246.244629 6.028147 5258 
3458.610352 2278.639648 6.980210 5259 
605.747070 66.395233 3.690419 5260 
2954.772217 65.053268 3.569200 5261 
884.523376 97.808998 3.607051 5262 
803.392334 127.651306 5.292302 5263 
3058.149414 130.578674 4.593605 5264 
1470.193115 194.510651 4.706438 5265 
550.726990 224.261337 3.844985 5266 
784.940369 224.959702 4.021369 5267 
3115.168457 224.795532 5.199583 5268 
459.447266 256.734528 3.715461 5269 
721.424805 320.743134 4.243419 5270 
3359.577637 322.412750 4.555923 5271 
717.512146 354.231506 4.843163 5272 
580.852966 384.570129 4.221901 5273 
3043.647949 86.250175 5.694602 5274 
2972.439209 147.998413 6.970392 5275 
666.472473 338.109711 5.913640 5276 
3628.979736 1944.130859 5.692100 5277 
3320.077637 2434.007568 6.327250 5278 
568.351990 62.065796 4.544050 5279 
3031.152832 126.964882 5.090974 5280 
645.519958 280.022339 4.835729 5281 
3283.006836 280.614258 5.584350 5282 
3605.098389 2217.653076 5.202726 5283 
530.904785 76.370544 6.863943 5284 
237.547424 1672.029541 5.512855 5285 
3577.196777 2282.359375 6.742397 5286 
841.657654 336.329712 8.258825 5287 
296.057098 1724.819580 8.427260 5288 
3208.379883 2283.905762 8.210703 5289 
3542.841309 2282.627441 9.304782 5290 
3653.931641 2408.234863 8.356061 5291 
3226.431396 2470.691406 8.139018 5292 
655.722107 98.373711 9.273056 5293 
3241.747559 2061.804443 8.240662 5294 
3626.880615 2255.486572 9.904684 5295 
308.123657 2394.449219 9.972323 5296 
3629.431885 2456.921143 8.019319 5297 
372.708130 1822.734985 5.602022 5298 
563.402161 1981.819702 3.816673 5299 
525.441895 200.125168 5.951201 5300 
817.910095 202.385162 6.046548 5301 
732.261536 277.010620 6.367822 5302 
961.420532 277.139618 5.695345 5303 
3393.645508 1899.574463 5.799749 5304 
3542.865479 2060.149658 6.501064 5305 
950.990479 2507.500732 5.488787 5306 
3355.079834 113.294205 5.252130 5307 
2850.292236 147.189133 5.147477 5308 
771.310547 208.489838 4.686085 5309 
1064.690674 209.943420 5.212802 5310 
3009.934570 208.123672 4.488286 5311 
3375.685303 208.623459 3.890745 5312 
988.106018 242.395691 4.025805 5313 
755.681763 274.814850 4.824746 5314 
830.977661 306.604309 3.583360 5315 
607.087463 401.464752 4.746152 5316 
2985.183838 2171.572998 9.057177 5317 
3492.237305 2301.264893 8.477818 5318 
3678.206787 2298.264404 9.216909 5319 
3294.834473 2360.547607 7.474278 5320 
234.622910 2183.218994 10.560856 5321 
3511.700928 2174.835938 6.902190 5322 
3208.383057 2494.934814 7.292483 5323 
3379.251221 1986.696411 16.450613 5324 
3391.009277 2075.221680 18.944361 5325 
1848.613770 1448.997437 20.600330 5326 
3468.274658 2353.310059 15.441443 5327 
1828.298950 246.801254 15.279767 5328 
3298.946533 874.226074 23.276957 5329 
179.528275 2237.693848 14.443534 5330 
1804.566895 2159.955566 15.136918 5331 
272.804291 2196.940918 29.797018 5332 
2165.169189 1976.260132 55.911770 5333 
1769.039429 394.081696 44.804150 5334 
2693.232422 645.201416 40.758450 5335 
2932.656982 753.162354 40.199558 5336 
1172.227173 38.309750 3.689150 5337 
2847.472900 99.467064 4.654072 5338 
3119.848145 164.633041 4.850963 5339 
603.034058 262.323090 5.067819 5340 
442.288513 294.065521 4.437689 5341 
486.593689 325.347260 4.647009 5342 
574.187195 324.587891 5.072165 5343 
587.884460 390.027985 5.254571 5344 
726.988037 530.338257 5.242492 5345 
253.577377 1658.541382 5.271573 5346 
3368.148193 1911.833130 4.939124 5347 
2991.363281 188.874878 5.908267 5348 
3286.979004 1979.120239 6.226251 5349 
3628.168701 2046.992920 6.933040 5350 
194.680695 2076.666260 6.352567 5351 
2945.061768 2141.766602 7.305602 5352 
754.260498 2241.612061 6.893210 5353 
3606.294434 2271.879883 7.085509 5354 
3395.643799 2526.701172 6.929751 5355 
1490.113281 53.605354 4.240077 5356 
3083.157227 156.326813 4.135001 5357 
2944.109375 187.860611 4.493404 5358 
927.292175 287.284210 4.622183 5359 
1039.268311 347.961609 3.955360 5360 
171.423981 2032.655518 10.309073 5361 
3359.678955 2097.613037 8.010023 5362 
3489.667236 2228.017090 7.977333 5363 
2786.520996 2290.981689 7.573594 5364 
3571.505859 2353.897217 9.216285 5365 
137.937592 2422.433838 8.764760 5366 
107.237320 2362.194580 12.119571 5367 
2944.087402 94.073105 7.870624 5368 
519.998657 481.531219 7.790442 5369 
2968.931885 2275.351074 7.758918 5370 
938.545715 2468.902344 10.760523 5371 
3661.435547 2349.285156 12.579475 5372 
3324.252441 1711.838257 9.365252 5373 
3495.965332 2055.538574 8.309581 5374 
324.246765 2188.764893 7.723723 5375 
3459.828369 2440.635986 7.696750 5376 
2915.141846 2160.900391 11.925012 5377 
3570.528809 2292.702637 12.496987 5378 
3107.394287 1882.415405 8.185992 5379 
3594.103760 2136.293945 7.888278 5380 
184.960587 2331.425293 11.047616 5381 
137.870529 2512.487549 8.321382 5382 
377.468506 2248.153076 11.556565 5383 
2767.742920 146.866867 6.250987 5384 
455.936340 524.020569 6.291567 5385 
276.372925 1670.947510 6.704770 5386 
3347.081787 1758.260620 6.396994 5387 
3490.099609 1920.764893 6.515519 5388 
1803.164307 1954.029053 6.565732 5389 
554.833435 83.826462 4.216814 5390 
3316.404541 86.812561 3.687932 5391 
3351.712646 85.831238 3.874005 5392 
830.676208 116.853294 3.839994 5393 
1340.526367 117.553505 5.170777 5394 
653.707703 212.407104 4.613737 5395 
3082.804932 246.918716 4.188343 5396 
3226.669189 2226.287842 4.672139 5397 
3469.709473 2255.101807 5.500814 5398 
657.352051 135.212677 6.966601 5399 
3243.089600 166.890030 5.977527 5400 
1407.714233 1141.749878 6.138792 5401 
3091.821289 2150.593262 6.117837 5402 
1196.898438 1911.704956 6.056723 5403 
2010.637695 2265.826172 6.947915 5404 
1696.471558 121.371292 9.292805 5405 
2902.160645 2305.105225 6.890950 5406 
1969.170044 1195.912598 14.096560 5407 
3494.997803 2206.535156 6.593101 5408 
3227.130127 1856.243652 7.188909 5409 
3090.129883 1932.155396 4.697718 5410 
3505.416992 2192.950928 6.709498 5411 
3597.054932 1948.457764 5.378907 5412 
3344.041504 2297.075195 7.912000 5413 
608.889709 2039.550171 5.065898 5414 
3592.556152 1260.712891 10.554605 5415 
3466.853516 2113.739014 6.737099 5416 
