ply
format ascii 1.0
element vertex 497
property double x
property double y
property double size
property short id
end_header
2.01669116210938e+03 1.90109289550781e+03 2.86232929229736e+01 22 
3.15351586914062e+03 8.11541198730469e+02 1.56209459304810e+01 25 
3.20255004882812e+03 8.71777343750000e+02 1.52050704956055e+01 28 
1.64574780273438e+03 2.03128210449219e+03 1.21745615005493e+01 58 
8.01823730468750e+02 8.46717590332031e+02 3.97306919097900e+00 82 
1.79040722656250e+03 9.27852050781250e+02 9.71607685089111e+00 83 
2.63634619140625e+03 1.04136401367188e+03 3.60447287559509e+00 84 
1.43001635742188e+03 9.76892700195312e+02 1.07741947174072e+01 85 
1.40556018066406e+03 1.50405432128906e+03 7.81052350997925e+00 86 
6.57263427734375e+02 1.06811999511719e+03 1.00707235336304e+01 87 
3.74505664062500e+03 8.37574584960938e+02 3.36378836631775e+00 88 
2.34374951171875e+03 1.92291976928711e+02 4.07695007324219e+00 89 
7.99634887695312e+02 1.04484118652344e+03 1.25979118347168e+01 90 
2.50555932617188e+03 1.59922705078125e+03 1.98315887451172e+01 91 
8.81872436523438e+02 1.38229907226562e+03 5.44135818481445e+01 92 
3.02182922363281e+02 1.77413757324219e+03 6.35382223129272e+00 94 
2.51599365234375e+02 1.92139916992188e+03 6.03059959411621e+00 112 
4.86662872314453e+02 2.41553320312500e+03 1.16732578277588e+01 126 
2.32668603515625e+03 8.82945739746094e+02 6.37014675140381e+00 286 
3.43265795898438e+03 2.20431713867188e+03 6.20344591140747e+00 287 
3.23092993164062e+03 2.46865649414062e+03 6.84031057357788e+00 288 
3.02887622070312e+03 2.17216088867188e+03 7.28616237640381e+00 289 
3.47517529296875e+03 2.29838500976562e+03 4.89445829391479e+00 290 
3.55345019531250e+03 2.49765063476562e+03 6.02169036865234e+00 291 
3.62075585937500e+03 2.09184838867188e+03 6.13537025451660e+00 292 
3.66085668945312e+03 1.82855541992188e+03 5.52090406417847e+00 293 
3.76959936523438e+03 1.85905053710938e+03 7.43662643432617e+00 294 
3.58334619140625e+03 1.98360192871094e+03 9.02184867858887e+00 295 
3.23940014648438e+03 1.73610742187500e+03 8.98509597778320e+00 296 
2.18488378906250e+03 1.61514599609375e+03 1.20661458969116e+01 297 
3.41294580078125e+03 2.45958105468750e+03 9.23855590820312e+00 298 
6.65915893554688e+02 7.71744384765625e+02 7.55717039108276e+00 299 
3.59945068359375e+03 2.13148754882812e+03 4.48066949844360e+00 300 
3.54629077148438e+03 2.39816040039062e+03 6.22749853134155e+00 301 
3.51786718750000e+03 2.11154174804688e+03 5.06986474990845e+00 302 
3.28169726562500e+03 2.33640209960938e+03 7.77857685089111e+00 303 
3.17818701171875e+03 2.50447143554688e+03 7.26869535446167e+00 304 
3.38170629882812e+03 2.42556445312500e+03 7.21744680404663e+00 305 
3.53234252929688e+03 2.32835961914062e+03 8.59084796905518e+00 306 
3.40026611328125e+03 2.40475341796875e+03 6.08821773529053e+00 307 
3.47683911132812e+03 2.47650366210938e+03 7.63593292236328e+00 308 
3.68119567871094e+02 1.17308647155762e+02 8.07431411743164e+00 309 
2.93790820312500e+03 2.32974853515625e+03 6.64706659317017e+00 310 
1.81944055175781e+03 1.04743237304688e+03 6.47833585739136e+00 311 
3.62026391601562e+03 2.07288110351562e+03 7.90178918838501e+00 312 
7.77152465820312e+02 7.87772338867188e+02 9.40175437927246e+00 313 
3.50836157226562e+03 2.26519946289062e+03 7.91846132278442e+00 314 
1.11392590332031e+03 5.13315795898438e+02 3.93572640419006e+00 315 
3.44908325195312e+03 2.37592529296875e+03 9.72237682342529e+00 339 
2.97738598632812e+03 2.22480444335938e+03 8.78982543945312e+00 355 
3.50273730468750e+03 2.43918579101562e+03 7.63052701950073e+00 356 
3.27461230468750e+03 1.91755493164062e+03 1.53646011352539e+01 373 
3.46820117187500e+03 2.31631884765625e+03 7.56869316101074e+00 408 
3.40182519531250e+03 2.50638183593750e+03 7.00698518753052e+00 426 
3.29983056640625e+03 1.85980712890625e+03 6.30947923660278e+00 427 
3.04149511718750e+03 2.12959790039062e+03 7.28196191787720e+00 435 
3.43211718750000e+03 1.64386767578125e+03 6.74488830566406e+00 471 
2.95219555664062e+03 2.23041699218750e+03 8.20420932769775e+00 472 
2.84680688476562e+03 1.60518469238281e+03 6.18495941162109e+00 479 
1.64135534667969e+03 5.83264526367188e+02 9.71667385101318e+00 485 
3.17562377929688e+03 1.18477172851562e+03 1.25509681701660e+01 583 
3.83784277343750e+03 1.61010986328125e+03 4.02586030960083e+00 609 
3.83989550781250e+03 1.57010766601562e+03 4.96701765060425e+00 618 
3.69600830078125e+03 1.76090710449219e+03 6.25611829757690e+00 730 
3.77656738281250e+03 2.14095971679688e+03 8.20607376098633e+00 778 
3.63951025390625e+03 2.20213183593750e+03 7.72294950485229e+00 779 
3.55667333984375e+03 2.32795776367188e+03 7.81735181808472e+00 780 
3.09752587890625e+03 2.39619506835938e+03 8.40427207946777e+00 781 
3.30808789062500e+03 1.80598828125000e+03 7.36112785339355e+00 782 
5.52791137695312e+02 2.18953125000000e+03 7.86886072158813e+00 783 
3.60309277343750e+03 2.31813452148438e+03 9.38228416442871e+00 784 
3.62864062500000e+03 2.37477856445312e+03 7.54015254974365e+00 785 
2.02864379882812e+02 2.50401367187500e+03 7.72743701934814e+00 786 
4.17644378662109e+02 2.50317041015625e+03 8.58418941497803e+00 787 
3.23877954101562e+03 2.50260986328125e+03 8.14982509613037e+00 788 
3.36027172851562e+03 2.24884057617188e+03 1.20364179611206e+01 789 
2.32031509399414e+02 2.36271215820312e+03 1.44209241867065e+01 790 
3.36168066406250e+03 2.41801562500000e+03 1.61997089385986e+01 791 
3.72109497070312e+03 2.42155395507812e+03 1.50161981582642e+01 792 
3.67538818359375e+03 2.26600146484375e+03 1.70345878601074e+01 793 
3.05647778320312e+03 9.98131530761719e+02 1.82462978363037e+01 794 
3.59388647460938e+03 1.67188537597656e+03 1.46246671676636e+01 795 
1.14267358398438e+03 1.78968676757812e+03 1.40599241256714e+01 796 
1.70145886230469e+03 2.01624450683594e+03 3.09921245574951e+01 797 
1.71236828613281e+03 2.15733911132812e+03 3.00605945587158e+01 798 
1.74676681518555e+02 1.99742529296875e+03 5.86003208160400e+00 799 
3.53759704589844e+02 2.02503479003906e+03 6.45064735412598e+00 800 
1.14924552917480e+02 2.07369262695312e+03 7.02372932434082e+00 801 
5.24866516113281e+02 2.09985522460938e+03 6.44233846664429e+00 802 
5.24054565429688e+02 2.18578881835938e+03 6.73525905609131e+00 803 
2.07904492187500e+03 1.05089988708496e+02 3.62244844436646e+00 804 
7.15691711425781e+02 2.36754809570312e+03 5.49791193008423e+00 805 
1.90885711669922e+02 1.71586584472656e+03 6.87179279327393e+00 806 
2.20967605590820e+02 2.03303002929688e+03 9.44517898559570e+00 807 
3.72674023437500e+03 2.29038134765625e+03 9.80273151397705e+00 808 
1.92993499755859e+02 2.41662231445312e+03 7.29137849807739e+00 809 
3.35072729492188e+03 1.81378442382812e+03 8.50681018829346e+00 810 
2.13922058105469e+02 2.25677929687500e+03 8.99982547760010e+00 811 
3.66532153320312e+03 2.32060937500000e+03 7.91221857070923e+00 812 
1.83934967041016e+02 2.38782861328125e+03 8.86335277557373e+00 813 
3.78691406250000e+03 2.45143579101562e+03 8.13102245330811e+00 814 
8.11478881835938e+02 2.35576416015625e+03 1.23094491958618e+01 815 
4.84616973876953e+02 2.14439013671875e+03 7.61739063262939e+00 816 
3.40271093750000e+03 2.14596997070312e+03 7.81484270095825e+00 817 
6.73624389648438e+02 2.39992309570312e+03 8.94756889343262e+00 818 
3.27857055664062e+03 2.39887646484375e+03 8.43190383911133e+00 819 
3.51620166015625e+03 2.40480395507812e+03 9.85205554962158e+00 820 
3.33758544921875e+03 2.04487683105469e+03 1.11408939361572e+01 821 
3.75121704101562e+03 2.03921386718750e+03 7.58013105392456e+00 822 
4.84811126708984e+02 2.10514233398438e+03 7.86371612548828e+00 823 
3.99924255371094e+02 2.48003222656250e+03 9.70478916168213e+00 824 
8.03318725585938e+02 2.48424682617188e+03 8.27578735351562e+00 825 
3.17171801757812e+03 2.48097680664062e+03 8.89060401916504e+00 826 
3.75170141601562e+03 2.48111767578125e+03 7.94461870193481e+00 827 
3.59919458007812e+03 1.85781958007812e+03 6.28157281875610e+00 828 
2.73961853027344e+02 1.94799707031250e+03 5.92852163314819e+00 829 
3.17990576171875e+03 2.00679553222656e+03 5.92580175399780e+00 830 
4.99174468994141e+02 2.23019165039062e+03 7.11466598510742e+00 831 
3.65869091796875e+03 2.23113159179688e+03 6.08788585662842e+00 832 
7.04107116699219e+02 2.25665820312500e+03 6.64170122146606e+00 833 
6.02858703613281e+02 2.28702758789062e+03 6.37860059738159e+00 834 
3.67588964843750e+03 2.50825976562500e+03 6.59681749343872e+00 835 
3.77010937500000e+03 2.21508959960938e+03 7.42971897125244e+00 836 
1.77855194091797e+02 2.28127148437500e+03 1.01789560317993e+01 837 
2.90003393554688e+03 2.34227001953125e+03 7.00357580184937e+00 838 
3.52222094726562e+03 2.34814501953125e+03 7.98341989517212e+00 839 
1.45122863769531e+02 2.41252978515625e+03 1.08451261520386e+01 840 
1.84680221557617e+02 2.47743237304688e+03 9.52410888671875e+00 841 
4.52574371337891e+02 1.98453808593750e+03 8.56506919860840e+00 842 
3.79725170898438e+03 2.11077319335938e+03 7.80098772048950e+00 843 
3.75240869140625e+03 2.18015478515625e+03 7.98953914642334e+00 844 
3.11592846679688e+03 2.37057690429688e+03 8.04864883422852e+00 845 
3.22073681640625e+03 2.43600390625000e+03 7.30347061157227e+00 846 
3.60173681640625e+03 2.48829125976562e+03 9.59883022308350e+00 847 
3.33835107421875e+03 2.31152807617188e+03 6.00757598876953e+00 848 
3.71614111328125e+03 1.79225061035156e+03 6.39911937713623e+00 849 
3.62935717773438e+03 1.91775292968750e+03 6.92312431335449e+00 850 
3.52882592773438e+03 2.26133032226562e+03 5.86386251449585e+00 851 
9.28604202270508e+01 1.54784924316406e+03 6.39433050155640e+00 852 
2.30850997924805e+02 1.83054016113281e+03 6.02329587936401e+00 853 
3.63608593750000e+03 2.29141796875000e+03 7.03667068481445e+00 854 
3.61672436523438e+03 2.45373608398438e+03 5.91946840286255e+00 855 
5.04164611816406e+02 6.10928710937500e+02 5.14991092681885e+00 856 
1.95537078857422e+02 1.80985791015625e+03 6.47567272186279e+00 857 
3.67506079101562e+03 1.83673742675781e+03 6.24428606033325e+00 858 
7.30586395263672e+01 2.11051708984375e+03 6.87030220031738e+00 859 
3.30136401367188e+03 3.94251831054688e+02 3.60172915458679e+00 860 
3.36204785156250e+03 1.74028332519531e+03 6.06512737274170e+00 861 
4.98206085205078e+02 2.07031884765625e+03 5.77387475967407e+00 862 
1.60394821166992e+02 1.69355432128906e+03 8.77946472167969e+00 863 
3.77077465820312e+03 2.07858129882812e+03 7.45399904251099e+00 864 
3.80082470703125e+03 2.13600000000000e+03 8.77315616607666e+00 865 
3.71750341796875e+03 2.26615039062500e+03 8.48350429534912e+00 866 
3.32241699218750e+03 2.32697143554688e+03 1.02740325927734e+01 867 
3.63475146484375e+03 2.39697460937500e+03 8.28580665588379e+00 868 
2.03763809204102e+02 2.12578710937500e+03 7.93909168243408e+00 869 
4.70142425537109e+02 2.12128491210938e+03 8.62491703033447e+00 870 
3.41371069335938e+03 2.12487988281250e+03 7.54600477218628e+00 871 
6.80993225097656e+02 2.24806054687500e+03 9.73151302337646e+00 872 
2.99433837890625e+03 2.24935156250000e+03 6.94932937622070e+00 873 
3.44312591552734e+02 2.50767797851562e+03 7.89537572860718e+00 874 
7.43555603027344e+02 2.50631103515625e+03 8.52096366882324e+00 875 
6.72532592773438e+02 2.36095800781250e+03 1.72562675476074e+01 876 
2.08233306884766e+02 2.06867504882812e+03 1.61815319061279e+01 877 
3.19028491210938e+03 1.99582678222656e+03 6.14839839935303e+00 878 
3.42978149414062e+03 2.07991528320312e+03 6.20604944229126e+00 879 
3.64856958007812e+03 2.24309008789062e+03 6.12960863113403e+00 880 
7.81248046875000e+02 2.33610302734375e+03 6.18356990814209e+00 881 
2.32777124023438e+03 2.00927673339844e+02 3.87754368782043e+00 882 
1.40919592285156e+03 8.20416442871094e+02 6.68704319000244e+00 883 
3.49676220703125e+03 2.01974645996094e+03 5.86262083053589e+00 884 
4.81893005371094e+02 2.16667260742188e+03 6.60291099548340e+00 885 
2.77383972167969e+02 1.71469445800781e+03 7.37646675109863e+00 886 
8.54107666015625e+01 1.97203247070312e+03 7.88687181472778e+00 887 
3.71820458984375e+03 2.16574853515625e+03 8.83307743072510e+00 888 
3.61037109375000e+03 2.29417358398438e+03 9.74380302429199e+00 889 
3.50087695312500e+03 2.35557836914062e+03 8.19631576538086e+00 890 
3.49563110351562e+03 2.41677050781250e+03 7.94649600982666e+00 891 
2.75890716552734e+02 2.49719165039062e+03 7.31772518157959e+00 892 
8.75946411132812e+02 2.49677832031250e+03 8.79611778259277e+00 893 
3.15665527343750e+03 2.49667529296875e+03 8.47741317749023e+00 894 
3.71477587890625e+03 1.99890795898438e+03 7.93756103515625e+00 895 
3.61206665039062e+03 2.19153930664062e+03 7.74381351470947e+00 896 
2.30808197021484e+02 2.32062280273438e+03 8.26543331146240e+00 897 
3.47320892333984e+02 2.31918286132812e+03 9.86014366149902e+00 898 
1.55474807739258e+02 2.38702197265625e+03 1.07175397872925e+01 899 
3.23661669921875e+03 2.44823486328125e+03 7.30446434020996e+00 900 
2.93229760742188e+03 2.28680346679688e+03 1.15581789016724e+01 901 
7.51978759765625e+02 2.42571459960938e+03 1.24449901580811e+01 902 
2.91190002441406e+02 1.82537866210938e+03 7.84671306610107e+00 903 
1.74025863647461e+02 2.01555566406250e+03 7.94774723052979e+00 904 
4.41485504150391e+02 2.01883361816406e+03 1.01167278289795e+01 905 
3.74339550781250e+03 2.01773303222656e+03 8.47397708892822e+00 906 
1.99630661010742e+02 2.08549511718750e+03 6.91353082656860e+00 907 
3.44530541992188e+03 2.33493139648438e+03 9.21474647521973e+00 908 
3.73466455078125e+03 2.33963037109375e+03 8.37948226928711e+00 909 
7.82388793945312e+02 2.46469262695312e+03 1.10413475036621e+01 910 
3.63333465576172e+02 1.85385681152344e+03 9.55544948577881e+00 911 
3.65992675781250e+03 1.84804821777344e+03 7.63084840774536e+00 912 
3.69621093750000e+03 1.85425793457031e+03 1.04426069259644e+01 913 
3.67622070312500e+03 1.97519311523438e+03 7.94550037384033e+00 914 
3.77952978515625e+03 2.16849316406250e+03 9.52955245971680e+00 915 
1.08159408569336e+02 2.30109204101562e+03 9.66754913330078e+00 916 
6.65838867187500e+02 2.30164526367188e+03 1.01820621490479e+01 917 
3.69615307617188e+03 2.36470068359375e+03 7.88882541656494e+00 918 
3.86845977783203e+02 2.42498217773438e+03 7.11553859710693e+00 919 
2.11884536743164e+02 2.48592285156250e+03 7.61030960083008e+00 920 
3.57771044921875e+03 2.48487670898438e+03 1.10013217926025e+01 921 
3.76763549804688e+03 2.30647705078125e+03 1.15269136428833e+01 922 
1.54530957031250e+03 3.63498962402344e+02 7.74791383743286e+00 923 
5.34420593261719e+02 2.20174975585938e+03 6.84757184982300e+00 924 
6.29279663085938e+02 2.35143408203125e+03 5.65623855590820e+00 925 
1.06570166015625e+03 7.07749694824219e+02 7.93396997451782e+00 926 
3.67001904296875e+03 2.34732177734375e+03 8.52403545379639e+00 927 
1.60614700317383e+02 2.47066992187500e+03 7.07139635086060e+00 928 
3.11686694335938e+03 2.04941064453125e+03 8.37692356109619e+00 929 
3.52237719726562e+03 2.04969824218750e+03 8.83374500274658e+00 930 
3.65094458007812e+03 2.36906958007812e+03 7.76030826568604e+00 931 
3.61094116210938e+03 2.43579614257812e+03 8.29779338836670e+00 932 
3.79608593750000e+03 2.43502075195312e+03 7.57442665100098e+00 933 
3.73992651367188e+03 1.89945617675781e+03 1.13211984634399e+01 934 
3.19841894531250e+03 2.43782934570312e+03 6.68994712829590e+00 935 
3.44311938476562e+03 2.05818920898438e+03 6.30334472656250e+00 936 
7.26940002441406e+02 2.32278295898438e+03 7.25617694854736e+00 937 
3.10536547851562e+03 3.82589599609375e+02 5.20752286911011e+00 938 
2.54045471191406e+02 1.82911804199219e+03 6.51536130905151e+00 939 
3.00845825195312e+02 1.86227832031250e+03 5.75198888778687e+00 940 
7.49710388183594e+02 2.32604492187500e+03 6.32630014419556e+00 941 
2.83716552734375e+03 2.45476391601562e+03 6.30005836486816e+00 942 
1.80405990600586e+02 1.98192175292969e+03 5.90536737442017e+00 943 
4.56893676757812e+02 2.08448559570312e+03 6.54968261718750e+00 944 
3.66962695312500e+03 2.11110058593750e+03 6.20843124389648e+00 945 
3.68736181640625e+03 2.01312719726562e+03 5.97529125213623e+00 946 
3.58260839843750e+03 2.21066333007812e+03 6.35119009017944e+00 947 
5.88436584472656e+02 2.23853564453125e+03 6.42241191864014e+00 948 
5.16583801269531e+02 2.26605371093750e+03 6.71258068084717e+00 949 
3.33229565429688e+03 2.29678735351562e+03 6.13330078125000e+00 950 
2.85033172607422e+02 2.39165161132812e+03 6.47728633880615e+00 951 
2.42692846679688e+03 1.81533618164062e+03 9.76458358764648e+00 952 
4.34185607910156e+02 1.15978808593750e+03 9.94504642486572e+00 953 
1.53742016601562e+03 9.55327148437500e+02 1.66771678924561e+01 954 
4.75983367919922e+02 9.96359313964844e+02 1.83166522979736e+01 955 
3.19957714843750e+03 1.37543823242188e+03 9.11848735809326e+00 956 
2.28681762695312e+03 1.05622387695312e+03 1.18277559280396e+01 957 
1.72664294433594e+03 1.25429443359375e+03 3.97310781478882e+00 958 
3.51820648193359e+02 1.40238476562500e+03 7.65549421310425e+00 959 
9.22276672363281e+02 1.98913574218750e+03 7.44974231719971e+00 960 
6.63078308105469e+02 2.33257714843750e+03 8.15266418457031e+00 961 
3.00396667480469e+02 2.37926513671875e+03 7.51422595977783e+00 962 
2.20751611328125e+03 1.81536279296875e+03 2.89123535156250e+01 963 
1.13650634765625e+02 1.59571142578125e+03 4.34348535537720e+00 964 
3.67594018554688e+03 7.46620849609375e+02 5.87472677230835e+00 965 
4.44849670410156e+02 2.17027905273438e+03 6.67265701293945e+00 966 
3.21316748046875e+03 6.01128479003906e+02 5.03915023803711e+00 967 
3.02624328613281e+02 1.84397045898438e+03 6.60559368133545e+00 968 
5.45782775878906e+02 2.30618969726562e+03 6.30567789077759e+00 969 
4.66415832519531e+02 2.43337670898438e+03 5.97734451293945e+00 970 
5.00469024658203e+02 2.49909863281250e+03 8.26511955261230e+00 971 
3.51336120605469e+02 2.00057202148438e+03 9.11567974090576e+00 972 
3.17477081298828e+02 2.33962402343750e+03 9.17814922332764e+00 973 
4.28929367065430e+01 1.55555590820312e+03 4.59617519378662e+00 974 
3.47840606689453e+02 2.34889233398438e+03 7.03251361846924e+00 975 
2.39307189941406e+02 2.09216870117188e+03 9.53032112121582e+00 976 
5.29770690917969e+02 2.24342773437500e+03 9.50286483764648e+00 977 
6.58158874511719e+02 2.26364624023438e+03 5.73988294601440e+00 978 
5.76696716308594e+02 2.35759252929688e+03 5.75551176071167e+00 979 
4.68097564697266e+02 2.48583886718750e+03 7.01368856430054e+00 980 
3.61201019287109e+02 2.51681933593750e+03 6.51521539688110e+00 981 
3.08866821289062e+03 5.24901428222656e+02 4.86264944076538e+00 982 
7.84448852539062e+02 2.39483251953125e+03 6.77575826644897e+00 983 
4.65738922119141e+02 2.32758007812500e+03 7.67641019821167e+00 984 
3.11078759765625e+03 1.36190686035156e+03 1.38655233383179e+01 985 
3.79830566406250e+02 1.93339562988281e+03 7.17392349243164e+00 986 
3.47935888671875e+03 7.24363830566406e+02 4.00850725173950e+00 987 
3.65341918945312e+03 1.39484570312500e+03 5.58539962768555e+00 988 
8.32113708496094e+02 2.40993847656250e+03 5.62719297409058e+00 989 
4.78613037109375e+02 2.44148144531250e+03 6.28163051605225e+00 990 
1.05636206054688e+03 1.19453771972656e+03 4.46125221252441e+00 991 
3.89558593750000e+02 2.50033642578125e+03 7.88558053970337e+00 992 
2.03894262695312e+03 1.05816307067871e+02 8.46831989288330e+00 993 
3.43858428955078e+02 2.38683422851562e+03 8.07427978515625e+00 994 
4.05154327392578e+02 2.38651538085938e+03 8.24187278747559e+00 995 
7.64096496582031e+02 2.39005053710938e+03 7.38858270645142e+00 996 
5.12327392578125e+02 2.44905688476562e+03 9.47805881500244e+00 997 
1.23436669921875e+03 1.59062585449219e+03 8.61048984527588e+00 998 
4.27334808349609e+02 2.48271337890625e+03 9.15558624267578e+00 999 
6.77639465332031e+02 2.34884594726562e+03 6.78799104690552e+00 1000 
2.33307144165039e+02 2.39290332031250e+03 5.26450920104980e+00 1001 
1.23671203613281e+02 1.51657434082031e+03 5.93149566650391e+00 1002 
1.18698707580566e+02 1.86297863769531e+03 5.88590049743652e+00 1003 
7.57619934082031e+02 2.35616821289062e+03 5.74221420288086e+00 1004 
3.59894653320312e+03 7.71471740722656e+02 5.71260070800781e+00 1005 
4.21950012207031e+02 2.06104492187500e+03 5.99363899230957e+00 1006 
3.24358007812500e+03 6.05072387695312e+02 4.79735088348389e+00 1007 
6.72930236816406e+02 2.46106347656250e+03 7.64647388458252e+00 1008 
2.51983789062500e+03 2.05588745117188e+03 1.38027572631836e+01 1009 
2.10921569824219e+02 2.31698852539062e+03 8.29815292358398e+00 1010 
3.56013110351562e+03 7.61363098144531e+02 1.81405982971191e+01 1011 
3.32405249023438e+03 6.62381896972656e+02 1.63871784210205e+01 1012 
3.38927636718750e+03 6.89660705566406e+02 1.57073249816895e+01 1013 
3.29105712890625e+02 2.04226708984375e+03 4.33248090744019e+00 1014 
1.29630889892578e+02 1.65013647460938e+03 5.00205612182617e+00 1015 
1.31124954223633e+02 2.09590356445312e+03 1.00992059707642e+01 1016 
2.81796447753906e+02 2.22669506835938e+03 1.08255128860474e+01 1017 
6.99284851074219e+02 2.29125341796875e+03 8.58761215209961e+00 1018 
2.00629455566406e+02 1.67990783691406e+03 9.18278884887695e+00 1019 
1.13155654907227e+02 2.13208984375000e+03 8.01836585998535e+00 1020 
2.00417114257812e+02 2.14857397460938e+03 7.75788879394531e+00 1021 
1.10005966186523e+02 2.27388037109375e+03 9.95648670196533e+00 1022 
3.93243835449219e+02 2.40587890625000e+03 8.49990177154541e+00 1023 
7.11609497070312e+02 2.42894433593750e+03 9.51294040679932e+00 1024 
1.67137405395508e+02 2.04877783203125e+03 1.40128679275513e+01 1025 
1.53804306030273e+02 2.30377270507812e+03 1.20782823562622e+01 1026 
1.61309448242188e+02 1.65446704101562e+03 5.18839788436890e+00 1027 
3.52259570312500e+03 6.92500427246094e+02 5.78614616394043e+00 1028 
6.88173065185547e+01 1.88954748535156e+03 5.80431461334229e+00 1029 
6.29373657226562e+02 2.25596142578125e+03 6.11565637588501e+00 1030 
7.94137939453125e+02 2.22047070312500e+03 9.89410591125488e+00 1031 
2.79696807861328e+02 2.15822802734375e+03 1.15564899444580e+01 1032 
1.26576309204102e+02 2.30980590820312e+03 6.33691120147705e+00 1033 
2.30852340698242e+02 2.05346655273438e+03 5.61436128616333e+00 1034 
4.29866363525391e+02 2.00314379882812e+03 6.08794879913330e+00 1035 
3.27179125976562e+03 6.27880249023438e+02 5.18369531631470e+00 1036 
1.16958778381348e+02 1.67527758789062e+03 5.99221706390381e+00 1037 
1.43514831542969e+02 1.67377856445312e+03 6.89808988571167e+00 1038 
3.34152612304688e+03 6.55610534667969e+02 4.57037591934204e+00 1039 
4.78906097412109e+02 2.07897631835938e+03 5.09821748733521e+00 1040 
3.45480468750000e+02 1.94547839355469e+03 7.35912704467773e+00 1041 
2.25402084350586e+02 2.07102929687500e+03 7.97044610977173e+00 1042 
1.65732116699219e+02 2.14140332031250e+03 1.09353446960449e+01 1043 
1.47252517700195e+02 2.19275561523438e+03 1.28624992370605e+01 1044 
4.83637725830078e+02 2.06099389648438e+03 7.38756895065308e+00 1045 
2.84826110839844e+02 2.18821582031250e+03 1.28067684173584e+01 1046 
3.33711914062500e+03 7.18131103515625e+02 2.23076610565186e+01 1047 
3.63966943359375e+03 1.16003540039062e+03 2.06670780181885e+01 1048 
3.40868090820312e+03 6.94821655273438e+02 4.14431715011597e+00 1049 
5.34706687927246e+01 1.84967712402344e+03 4.87265872955322e+00 1050 
2.94862640380859e+02 2.31422021484375e+03 6.39550876617432e+00 1051 
6.61138992309570e+01 1.90414001464844e+03 5.08653974533081e+00 1052 
3.54173309326172e+02 1.90691540527344e+03 4.64055681228638e+00 1053 
5.12573364257812e+02 1.99986376953125e+03 5.48120880126953e+00 1054 
3.19788391113281e+02 1.78423889160156e+03 5.79011201858521e+00 1055 
7.94822311401367e+01 2.13001049804688e+03 6.72645139694214e+00 1056 
2.64103912353516e+02 2.36905932617188e+03 6.42890310287476e+00 1057 
6.92447570800781e+02 2.46557568359375e+03 6.99220514297485e+00 1058 
2.00947219848633e+02 2.02169177246094e+03 6.03743553161621e+00 1059 
3.92039093017578e+02 2.05323657226562e+03 6.78236722946167e+00 1060 
5.04589233398438e+02 2.10091064453125e+03 7.27040052413940e+00 1061 
2.28286422729492e+02 2.22358056640625e+03 1.09732437133789e+01 1062 
3.94958862304688e+02 1.87584216308594e+03 7.39889574050903e+00 1063 
2.73792407226562e+03 3.88043609619141e+02 8.02453041076660e+00 1064 
2.72683776855469e+02 1.89074707031250e+03 9.54891490936279e+00 1065 
2.44551818847656e+02 2.01872143554688e+03 8.33546066284180e+00 1066 
7.80969314575195e+01 2.27266162109375e+03 7.44307327270508e+00 1067 
6.23403625488281e+02 2.27494677734375e+03 9.53877735137939e+00 1068 
3.09233917236328e+02 2.16960400390625e+03 1.06120977401733e+01 1069 
3.44296081542969e+02 2.14375024414062e+03 6.66249084472656e+00 1070 
3.11864532470703e+02 2.28674902343750e+03 6.71777343750000e+00 1071 
3.63383087158203e+02 2.23521215820312e+03 1.23247575759888e+01 1072 
3.03776269531250e+03 5.14425231933594e+02 7.20466709136963e+00 1073 
1.47828460693359e+02 1.98458764648438e+03 1.08422660827637e+01 1074 
3.89122436523438e+02 1.98948205566406e+03 8.87598133087158e+00 1075 
1.78587310791016e+02 1.66714184570312e+03 5.51100158691406e+00 1076 
5.62943611145020e+01 2.11269970703125e+03 5.38724231719971e+00 1077 
4.12735992431641e+02 1.94750866699219e+03 5.87791013717651e+00 1078 
1.54882324218750e+02 2.09090698242188e+03 6.88844537734985e+00 1079 
1.54795043945312e+02 1.61032458496094e+03 5.77562713623047e+00 1080 
5.74270706176758e+01 1.98423840332031e+03 5.28830528259277e+00 1081 
2.11946350097656e+02 2.18892431640625e+03 6.65744590759277e+00 1082 
3.38382812500000e+02 1.20318225097656e+03 1.24161500930786e+01 1083 
1.69107681274414e+02 1.67781372070312e+03 5.39370250701904e+00 1084 
4.42468811035156e+02 1.78512255859375e+03 7.37400341033936e+00 1085 
6.05291198730469e+02 1.97603015136719e+03 1.07180585861206e+01 1086 
2.62564306640625e+03 1.97725341796875e+03 9.56216430664062e+00 1087 
2.48598364257812e+03 6.03761108398438e+02 1.00323381423950e+01 1088 
1.74235742187500e+03 4.64866149902344e+02 9.52530288696289e+00 1089 
1.86318188476562e+03 2.16841491699219e+02 1.15306568145752e+01 1090 
1.85071032714844e+03 2.42219924926758e+02 1.19622879028320e+01 1091 
1.91043457031250e+02 2.06237329101562e+03 6.21939992904663e+00 1092 
2.59937133789062e+03 1.35417480468750e+03 1.99772605895996e+01 1093 
1.95226882934570e+02 2.35242626953125e+03 1.85769901275635e+01 1094 
2.80156518554688e+03 1.55645654296875e+03 1.71623668670654e+01 1095 
2.45194018554688e+03 1.26302014160156e+03 1.54626560211182e+01 1096 
9.14687805175781e+02 6.75864624023438e+02 6.36994075775146e+00 1097 
1.59607116699219e+02 1.78336828613281e+03 7.06218767166138e+00 1098 
5.19180541992188e+02 5.15977355957031e+02 4.17049360275269e+00 1099 
2.92407623291016e+02 1.80400842285156e+03 4.67991161346436e+00 1100 
3.84767089843750e+02 1.96061804199219e+03 6.12063789367676e+00 1101 
2.29929223632812e+03 1.59274902343750e+03 7.98443651199341e+00 1102 
6.19747192382812e+02 1.60415881347656e+03 6.53523159027100e+00 1103 
2.42060546875000e+03 1.23006640625000e+03 6.38388109207153e+00 1104 
2.52491821289062e+03 2.10669995117188e+03 2.65078315734863e+01 1105 
2.45013647460938e+03 8.45674621582031e+02 4.77773523330688e+00 1106 
1.68514526367188e+03 5.40051757812500e+02 5.05548858642578e+00 1107 
3.16844580078125e+03 1.77179528808594e+03 5.37405967712402e+00 1108 
2.11627465820312e+03 1.04013183593750e+03 1.06846199035645e+01 1109 
3.23718597412109e+02 2.36238085937500e+03 7.70215559005737e+00 1110 
2.03831909179688e+03 1.68989416503906e+03 9.42634963989258e+00 1111 
7.38529174804688e+02 1.67672998046875e+03 8.20564842224121e+00 1112 
1.55508227539062e+03 1.35221704101562e+03 2.01239681243896e+01 1113 
9.44294189453125e+02 1.15086547851562e+03 2.05882968902588e+01 1114 
3.20781787109375e+03 1.77430993652344e+03 1.04626426696777e+01 1115 
2.76608105468750e+03 9.34196716308594e+02 9.17146682739258e+00 1116 
1.68549035644531e+03 6.32796142578125e+02 9.20578289031982e+00 1117 
4.22884948730469e+02 9.85663330078125e+02 4.32253694534302e+00 1118 
1.56040917968750e+03 7.31870422363281e+01 4.31017541885376e+00 1119 
1.65382727050781e+03 8.71367797851562e+02 1.01930637359619e+01 1120 
1.42626184082031e+03 1.50427661132812e+03 4.09494495391846e+00 1121 
1.60758483886719e+03 1.46418566894531e+03 1.65484733581543e+01 1122 
1.14481555175781e+03 1.23167333984375e+03 2.14350433349609e+01 1123 
3.81379882812500e+03 7.24382202148438e+02 4.72293424606323e+00 1124 
2.63484692382812e+03 2.46816796875000e+03 4.58950614929199e+00 1125 
2.26071972656250e+03 2.41742993164062e+03 7.67190742492676e+00 1126 
2.40183056640625e+03 1.06193591308594e+03 1.28529376983643e+01 1127 
2.26467846679688e+03 4.21955810546875e+02 9.72559070587158e+00 1128 
2.55266284179688e+03 5.14362182617188e+02 8.91585254669189e+00 1129 
2.36687841796875e+03 4.50166748046875e+02 5.11111402511597e+00 1130 
4.79506195068359e+02 8.92880798339844e+02 1.10597047805786e+01 1131 
4.87498077392578e+02 1.39058361816406e+03 7.00350904464722e+00 1132 
1.83912072753906e+03 2.03918640136719e+02 4.49116754531860e+00 1133 
2.66336035156250e+03 8.26454711914062e+02 1.90719890594482e+01 1134 
8.61096130371094e+02 2.27255859375000e+03 1.65842685699463e+01 1135 
3.39018432617188e+02 2.17035546875000e+03 6.66020011901855e+00 1136 
1.15643933105469e+03 2.05935156250000e+03 4.01682281494141e+00 1137 
2.82294506835938e+03 1.09483923339844e+03 1.21064376831055e+01 1138 
2.89990551757812e+03 3.80011169433594e+02 4.32214593887329e+00 1139 
3.57724670410156e+02 9.16228637695312e+02 6.98886394500732e+00 1140 
1.83783520507812e+03 9.52948913574219e+02 6.92453527450562e+00 1141 
2.34593066406250e+03 4.67412780761719e+02 4.94805955886841e+00 1142 
5.73397331237793e+01 1.77696899414062e+03 5.88831281661987e+00 1143 
7.16479064941406e+02 1.84528405761719e+03 1.63456153869629e+01 1144 
6.34335571289062e+02 7.89999267578125e+02 4.91180181503296e+00 1145 
1.88514648437500e+03 1.76532080078125e+03 7.95689344406128e+00 1146 
3.08359863281250e+03 1.41416564941406e+03 1.36742210388184e+01 1147 
2.37813671875000e+03 1.11429809570312e+03 3.66746282577515e+00 1148 
2.53299902343750e+03 1.20009008789062e+03 9.31467628479004e+00 1149 
1.93914050292969e+03 1.55304675292969e+03 1.04671020507812e+01 1150 
9.46261291503906e+02 7.09100402832031e+02 3.73794507980347e+00 1151 
2.18031396484375e+03 8.13784729003906e+02 6.21534729003906e+00 1152 
3.08167358398438e+03 9.42746337890625e+02 6.67955923080444e+00 1153 
2.59907226562500e+03 1.19737841796875e+03 5.35520792007446e+00 1154 
1.94715185546875e+03 3.84815460205078e+02 1.45701284408569e+01 1155 
1.99313659667969e+03 4.09335296630859e+02 7.39415025711060e+00 1156 
8.17014465332031e+02 2.11001806640625e+03 9.00048351287842e+00 1157 
2.05646093750000e+03 7.03540649414062e+02 1.05404949188232e+01 1158 
1.24532287597656e+03 6.87468139648438e+02 5.52116012573242e+00 1159 
1.17490429687500e+03 1.21885778808594e+03 5.28603668212891e+01 1160 
6.87755004882812e+02 9.18732910156250e+02 7.68551588058472e+00 1161 
3.12885772705078e+02 7.68204711914062e+02 9.54093170166016e+00 1162 
1.51565808105469e+03 2.95073150634766e+02 6.25493526458740e+00 1163 
3.76646240234375e+03 1.69224609375000e+03 8.05712699890137e+00 1164 
2.96677172851562e+03 2.30517260742188e+03 1.94609889984131e+01 1165 
3.47629882812500e+03 2.10777026367188e+03 4.33979654312134e+00 1166 
3.73656738281250e+03 1.99575378417969e+03 6.15553522109985e+00 1167 
3.48317553710938e+03 6.66112731933594e+02 3.69466114044189e+00 1168 
3.80056030273438e+03 1.65510217285156e+03 5.81807613372803e+00 1169 
3.63597021484375e+03 1.84610534667969e+03 8.60052013397217e+00 1170 
3.74255639648438e+03 1.71833813476562e+03 4.32013463973999e+00 1171 
1.76897485351562e+03 3.51661560058594e+02 4.60216283798218e+00 1172 
1.03750463867188e+03 2.72131835937500e+02 5.55487966537476e+00 1173 
1.05734436035156e+03 2.65636047363281e+02 4.67995786666870e+00 1174 
2.38893627929688e+03 5.45951110839844e+02 4.71321449279785e+01 1175 
2.14040136718750e+03 4.37832824707031e+02 5.58506298065186e+00 1176 
3.57028442382812e+03 2.11695800781250e+03 4.29393911361694e+00 1177 
3.40052294921875e+03 1.72093359375000e+03 7.28117132186890e+00 1178 
3.28000341796875e+03 5.29346008300781e+02 5.43845796585083e+00 1179 
3.62464331054688e+03 1.85755908203125e+03 5.40633344650269e+00 1180 
3.79802514648438e+03 2.01723425292969e+03 5.14818859100342e+00 1181 
2.67415234375000e+03 2.06132714843750e+03 2.87972736358643e+01 1182 
3.58977221679688e+03 1.44426098632812e+03 6.07560586929321e+00 1183 
8.01604736328125e+02 4.34944610595703e+02 4.06180620193481e+00 1184 
3.54355102539062e+03 2.05431762695312e+03 5.29703855514526e+00 1185 
3.67465112304688e+03 1.86252478027344e+03 5.97216033935547e+00 1186 
3.21487109375000e+03 1.92916394042969e+03 6.86659574508667e+00 1187 
3.09617919921875e+03 2.09605029296875e+03 8.43484115600586e+00 1188 
2.38407568359375e+03 1.88910913085938e+03 1.02074642181396e+01 1189 
2.55340917968750e+03 3.58478637695312e+02 3.93095374107361e+00 1190 
1.73574536132812e+03 1.67719506835938e+03 2.67803020477295e+01 1191 
1.73444470214844e+03 1.61582861328125e+03 3.80304837226868e+00 1192 
4.17654327392578e+02 2.28668408203125e+03 7.80553102493286e+00 1193 
1.67402130126953e+02 1.55658813476562e+03 5.35857963562012e+00 1194 
2.85476757812500e+03 7.71904296875000e+02 6.90040683746338e+00 1195 
2.19865332031250e+03 7.31747436523438e+01 7.84098434448242e+00 1196 
3.15341308593750e+02 1.73592248535156e+03 3.73321413993835e+00 1197 
2.24224414062500e+03 6.88030578613281e+02 9.17293071746826e+00 1198 
1.35013574218750e+03 1.33835998535156e+03 8.40022659301758e+00 1199 
6.26421936035156e+02 2.31454858398438e+03 7.31170797348022e+00 1200 
2.81699145507812e+03 1.26748791503906e+03 1.15774555206299e+01 1201 
8.20936767578125e+02 2.44287744140625e+03 6.00014781951904e+00 1202 
2.00085778808594e+03 1.56737353515625e+03 1.05860977172852e+01 1203 
2.37723388671875e+03 1.71881665039062e+03 1.27707109451294e+01 1204 
1.52475695800781e+03 8.34150573730469e+02 4.26548290252686e+00 1205 
3.30353173828125e+03 1.61301562500000e+03 1.36385459899902e+01 1206 
1.99899511718750e+03 2.30714721679688e+03 3.99849367141724e+00 1207 
3.24515966796875e+03 2.35777465820312e+03 7.45703411102295e+00 1208 
2.05116552734375e+03 1.79504699707031e+03 1.02966623306274e+01 1209 
7.30923828125000e+02 2.37225170898438e+03 6.49271726608276e+00 1210 
