ply
format ascii 1.0
element vertex 283
property float x
property float y
property float size
property short id
end_header
419.277344 122.777374 5.296041 0 
3304.704834 251.062622 5.491581 1 
3410.567627 472.024719 5.038832 2 
3470.824951 635.475891 4.654590 3 
3449.337158 335.723419 4.340094 4 
3490.144043 624.990845 6.280890 5 
412.138367 174.272476 4.416588 6 
3476.942627 689.432373 4.499145 7 
2335.345703 105.024010 5.956336 8 
3236.603516 106.641525 7.087512 9 
3256.005127 229.947083 6.213744 10 
959.198730 262.564453 14.001463 11 
3460.695312 667.895325 5.838361 12 
436.061127 160.762985 4.871623 13 
3289.164307 316.213135 3.697032 14 
2764.519531 126.518341 12.823951 15 
2066.646240 379.918945 13.034023 16 
1585.719971 444.609222 12.876544 17 
373.357544 279.242218 9.089417 18 
1678.335449 610.441284 8.417402 19 
428.835297 1640.328735 13.762646 20 
2762.034424 185.659622 14.360768 21 
474.989716 410.093872 18.767698 23 
920.389709 211.897934 14.425770 24 
1018.100220 212.868484 21.206276 25 
431.141418 613.849182 16.447401 26 
1867.619141 619.073730 15.712201 27 
3263.498779 1892.578857 28.594120 28 
1802.111816 560.700867 15.833097 29 
2502.826172 176.500458 17.042027 30 
2860.241943 187.426895 18.824736 31 
3112.898682 1890.124023 36.794434 32 
3339.200195 1794.883667 32.740360 33 
440.504578 1953.858521 28.745918 34 
3300.596191 2039.355591 37.077721 35 
434.615417 201.166016 5.024007 36 
336.941895 264.218933 4.809312 37 
305.698273 467.793915 6.063562 38 
3288.746582 94.965126 5.121706 39 
495.023407 56.263264 5.246891 40 
433.474640 216.763489 5.060559 41 
3423.329102 472.765289 4.303286 42 
3309.822021 272.282928 5.369862 43 
3364.059082 335.399933 4.641471 44 
3376.128174 367.711243 4.316577 45 
2734.534668 237.111023 5.962581 46 
935.469666 270.641785 6.216993 47 
1433.914917 716.530518 7.224106 48 
3292.784912 301.260345 5.293768 49 
3302.133545 335.263580 4.583632 50 
335.452087 455.930725 5.695942 51 
315.228699 485.155182 5.416526 52 
3293.940186 85.273872 3.673880 53 
1922.328735 82.559631 6.144847 54 
3271.262207 239.561798 5.808567 55 
3213.122314 180.299438 8.765575 56 
2827.578125 187.659653 6.508308 57 
3268.017822 1765.859985 11.949047 58 
3143.193848 1962.828735 12.427279 59 
3263.264160 187.696609 8.862553 60 
3350.248535 378.549438 7.836512 61 
2399.712402 207.955643 10.859797 62 
3385.102051 1847.862549 12.071763 63 
3450.941406 567.903442 8.910756 64 
2071.441895 1421.229370 20.558723 65 
276.703674 1992.899292 15.930629 66 
3287.131104 1966.871216 25.290180 67 
3302.012207 1840.047607 22.085951 68 
2720.898438 212.516312 20.642088 70 
1852.567871 1126.533569 24.685383 71 
718.096313 903.675903 53.339485 72 
1037.875244 898.853271 51.530945 73 
840.106995 477.450623 41.057255 74 
3213.116211 1964.323608 39.094475 75 
1699.053955 456.174561 39.904503 76 
2577.487793 429.566986 41.081718 77 
3082.403320 694.973022 75.622063 78 
353.171906 266.912781 5.050920 79 
2788.586670 134.722672 6.083146 80 
340.632050 281.470764 5.708679 81 
2266.217041 55.048679 5.927612 82 
1467.175049 147.107208 6.428706 83 
1994.696777 712.403870 3.682513 84 
1538.433838 159.007156 11.499920 85 
3463.041992 1458.017334 11.091268 86 
1676.926758 60.575077 4.605225 87 
3680.404541 1271.981689 7.819754 88 
3423.230469 434.526520 12.069294 89 
2024.489624 235.733139 8.094441 90 
1463.015259 1066.759155 17.536356 91 
2333.349854 873.832275 51.307529 92 
3627.211426 118.649529 6.657893 93 
109.294724 961.781860 5.063368 94 
140.283386 1148.532471 7.146085 95 
2708.376465 1548.031250 5.381384 96 
3539.744629 301.440918 7.853937 97 
3638.451172 564.545349 8.131075 98 
3515.256348 192.624435 10.330332 99 
3656.598389 1209.872070 8.768549 100 
1226.161377 2239.921875 11.100506 101 
3644.544189 1056.791504 7.201377 102 
3586.429199 337.522308 12.432819 103 
3185.239258 1890.851318 24.862682 104 
1998.799683 650.188171 44.691029 105 
3266.135498 615.556580 62.339443 106 
3584.860352 347.103485 6.683028 107 
3502.502441 372.989044 6.240687 108 
2050.277832 190.120148 4.650122 109 
1950.543701 1270.947388 6.316735 110 
2336.365234 1553.773560 6.060679 111 
3354.267578 486.537872 3.610895 112 
1434.961670 2356.718506 3.819791 113 
2316.746094 1898.033447 9.577704 114 
2592.948730 656.683838 11.821944 115 
2347.688721 992.253723 22.529339 116 
2079.296143 446.878845 15.145969 117 
2921.240234 1135.508545 35.846813 118 
2857.372559 219.572525 9.851790 119 
2820.492920 231.935089 7.631683 120 
2815.870361 204.048096 19.635399 121 
1849.796875 1135.814575 96.039444 122 
2402.847900 1419.209595 65.150940 123 
675.196228 167.047318 6.269595 124 
2397.895508 962.688477 4.477726 125 
150.861588 546.277954 6.743858 126 
3568.908203 1058.966431 21.586058 127 
94.959099 694.818054 4.782995 128 
33.897652 239.313858 3.707371 129 
292.763275 338.256653 8.891454 130 
294.561920 175.974228 14.983622 131 
2882.819092 118.086784 9.528415 132 
716.351074 573.961304 9.825695 133 
2892.657227 1464.673828 18.794874 134 
3090.762451 1533.411865 5.725030 135 
3562.350342 753.382690 4.954263 136 
2138.131348 2283.609619 4.510902 137 
2532.857422 2005.615479 11.014344 138 
3556.901611 2000.596924 10.349273 139 
2676.691406 213.219543 8.048241 140 
2830.946777 447.124115 40.653015 141 
3416.825439 690.588623 4.396822 142 
544.681458 420.193359 4.672971 143 
3174.940186 807.428406 11.732200 144 
2758.332275 242.702759 12.665915 145 
3184.732178 1417.486938 17.662268 146 
46.779713 908.186340 4.760511 147 
127.754562 910.386475 5.164353 148 
2751.792969 153.795441 11.614146 149 
1758.262817 2099.027832 11.959708 150 
3648.014160 1221.053101 4.209641 151 
2258.489258 140.704102 4.985510 152 
3733.773193 1130.011719 3.921878 153 
2085.558594 514.527344 13.741746 154 
1257.177002 2250.459717 4.738477 155 
3653.074707 1184.498291 6.146518 156 
1788.027344 766.279907 13.485137 157 
1422.980591 153.726624 6.749887 158 
1946.088379 262.315308 13.664599 159 
3637.233643 1227.461792 19.779467 160 
3607.763672 1103.830322 6.176482 161 
3648.368408 1163.592651 11.965046 162 
3565.366211 985.894897 8.687211 163 
3713.132568 1326.090088 11.026135 164 
121.966805 1712.071045 10.873853 165 
343.773132 938.523071 12.714802 166 
3481.408691 769.013245 14.972771 167 
73.138763 1161.452026 5.755109 168 
542.837341 493.235565 5.615121 169 
1228.476807 1423.193115 21.013676 170 
3716.305176 1604.415771 4.020607 171 
317.818207 205.675842 4.504980 172 
625.465149 269.687622 5.090703 173 
177.112106 527.219788 4.270641 174 
3698.039062 946.750671 4.073034 175 
3601.606201 722.281372 4.961313 176 
1226.366577 353.540955 9.132956 177 
2289.124023 1167.531128 13.787584 178 
302.116760 631.673279 6.487093 179 
192.847336 902.820496 5.890808 180 
222.731003 833.636841 4.732866 181 
92.005150 1139.356445 7.453203 183 
230.691940 962.729919 11.537524 184 
1530.944458 942.732849 23.799757 185 
420.896851 295.844086 4.545736 186 
283.791748 621.166443 6.043420 187 
492.997742 146.574982 4.792790 188 
234.513763 775.832031 6.011402 189 
2911.623779 398.934723 14.619644 190 
1641.139282 2062.592773 10.491552 191 
2431.273438 626.010254 6.806678 192 
600.245544 769.238892 23.954012 193 
2785.073975 677.181091 73.329712 194 
341.817749 638.532898 5.545254 195 
235.966553 801.700378 5.536449 196 
207.127243 1238.927490 8.717887 197 
1118.653809 199.941574 7.673058 198 
370.316803 393.027527 26.542093 199 
1621.509399 1128.733765 20.323463 200 
564.676514 180.241470 14.285749 201 
3803.004639 908.695557 5.351197 202 
219.838638 814.162781 6.446373 203 
1015.477295 176.383408 9.524872 204 
3206.882324 2072.531982 5.159098 205 
155.827820 473.239227 12.897017 206 
2201.062500 1494.519043 19.742056 207 
939.248291 1445.237183 65.191933 208 
2765.763184 1409.638306 64.555466 209 
2869.680908 642.338928 13.569716 210 
1640.464111 159.499420 6.341366 211 
2935.713135 830.847351 9.993896 212 
2786.426025 2289.926025 18.419746 213 
891.356506 1598.055542 3.620165 214 
123.411942 615.827637 5.933418 215 
1390.592529 922.601685 8.508551 216 
185.284561 1034.414551 6.763690 217 
180.342194 869.941040 5.293369 218 
235.374161 389.586060 3.876194 219 
1923.545166 522.593506 7.872062 220 
1988.303467 486.152588 8.250645 221 
896.584167 2398.912598 15.320751 222 
307.781158 621.889648 4.859467 223 
105.525124 668.621094 4.948699 224 
79.935158 1179.170166 5.981100 225 
109.563927 1106.238403 5.292192 226 
136.945068 1012.163635 6.439230 227 
439.864044 274.795349 5.055493 228 
533.591187 51.035870 4.664696 229 
297.676666 616.045044 4.652034 230 
1008.822571 2488.218262 9.447501 231 
206.604706 720.046509 10.571370 232 
2045.364624 1071.142700 8.015733 233 
423.988770 339.746490 5.195738 234 
1739.451172 511.387604 4.223314 235 
185.492477 925.227722 5.355288 236 
481.246613 301.913452 6.254065 237 
248.919098 769.525330 5.012700 238 
3794.683838 1419.154175 7.723828 239 
817.032227 571.633667 19.007313 240 
2021.970703 211.701813 4.195696 241 
281.287292 656.792419 5.006203 242 
454.206207 242.219284 4.239954 243 
289.160400 636.913696 3.825559 244 
242.823837 753.141357 5.502900 245 
1888.952271 139.134659 10.602590 246 
2775.593506 1381.469360 13.100781 247 
233.437012 566.471191 9.249983 248 
2956.501221 1361.531738 22.394102 249 
318.059204 532.885986 6.480022 250 
2068.352051 2045.962891 9.802886 251 
1353.779419 1567.542114 6.239614 252 
149.431961 1128.068970 7.644251 253 
116.462868 1013.543823 8.751916 254 
468.153778 892.581848 10.220856 255 
425.402222 309.178772 5.037555 256 
2826.981934 498.505890 3.856177 257 
1650.634766 2241.995117 4.371664 258 
1757.155396 1660.290649 7.808289 259 
226.677597 508.485443 17.149088 260 
1539.325928 2451.762207 4.708302 261 
2083.262695 1322.670654 6.537199 262 
1250.249023 1952.326416 3.985399 263 
1177.532471 819.791565 15.190593 264 
1961.621460 2354.703369 4.342794 265 
213.518570 403.668915 4.873483 266 
2960.547607 2327.465088 4.334872 267 
238.445435 646.461426 8.052130 268 
1527.089966 1890.567139 12.130323 269 
3006.446533 2445.093506 14.293847 270 
397.809479 343.755920 6.568534 271 
467.836395 181.826355 5.330002 272 
253.932556 494.550262 4.814886 273 
192.172058 841.264648 5.784437 274 
100.167076 989.269592 4.986569 275 
1986.674683 1878.658569 7.314858 276 
1554.475708 832.803650 25.094419 277 
114.720100 931.616760 4.795733 278 
144.688583 905.270691 6.004293 279 
60.112041 1190.919922 6.299138 280 
309.255768 592.616089 5.275630 281 
106.813103 650.786926 5.802276 282 
2564.451660 1271.502075 9.668927 283 
248.338104 507.804718 5.689859 284 
123.377968 761.034302 4.961505 285 
