ply
format ascii 1.0
element vertex 576
property double x
property double y
property double size
property short id
end_header
2.85724682617188e+03 1.06338531494141e+02 3.97088503837585e+00 0 
2.75514086914062e+03 2.42550244140625e+03 4.44433021545410e+00 1 
2.56625097656250e+03 2.48887573242188e+03 4.09089088439941e+00 2 
2.42384545898438e+03 2.52294604492188e+03 3.69555521011353e+00 3 
2.69098730468750e+03 2.54227636718750e+03 4.70640277862549e+00 4 
2.43509204101562e+03 2.54064794921875e+03 5.11243724822998e+00 5 
2.81340380859375e+03 1.05057006835938e+02 3.90278434753418e+00 6 
2.38492602539062e+03 2.52131933593750e+03 3.63864207267761e+00 7 
2.88338818359375e+03 1.63992395019531e+03 6.15467739105225e+00 8 
2.88239672851562e+03 2.37980468750000e+03 5.42417812347412e+00 9 
5.32313903808594e+02 7.23466308593750e+02 6.78942012786865e+00 10 
2.82738671875000e+03 4.72475524902344e+02 1.13402996063232e+01 11 
2.40041113281250e+03 2.51208227539062e+03 4.81032228469849e+00 12 
2.82449755859375e+03 1.22719345092773e+02 4.14657068252563e+00 13 
2.69841381835938e+03 2.40579492187500e+03 3.85215139389038e+00 14 
2.86600463867188e+03 1.99147119140625e+03 1.14905033111572e+01 15 
2.64019384765625e+03 1.42550659179688e+03 1.02666139602661e+01 16 
2.58495605468750e+03 1.03939099121094e+03 8.41854858398438e+00 17 
2.72406274414062e+03 8.31758422851562e+01 6.58104610443115e+00 18 
2.45040576171875e+03 1.11095031738281e+03 6.37979221343994e+00 19 
1.77186523437500e+03 1.29977917480469e+03 1.39343452453613e+01 20 
2.81416723632812e+03 1.98782861328125e+03 1.23475112915039e+01 21 
2.61563427734375e+03 1.67701477050781e+02 1.47706394195557e+01 23 
2.78648315429688e+03 5.06320678710938e+02 1.22486991882324e+01 24 
2.78561669921875e+03 5.84860046386719e+02 1.74134387969971e+01 25 
2.44728100585938e+03 1.42562103271484e+02 1.25504570007324e+01 26 
2.43964404296875e+03 1.26392114257812e+03 1.26493282318115e+01 27 
1.46070166015625e+03 2.26604443359375e+03 2.05537357330322e+01 28 
2.49252368164062e+03 1.20009057617188e+03 1.07841911315918e+01 29 
2.81892236328125e+03 1.77673181152344e+03 1.40902023315430e+01 30 
1.45968554687500e+03 2.15644702148438e+03 2.56415710449219e+01 32 
1.52905603027344e+03 2.33022973632812e+03 2.44279994964600e+01 33 
1.43150280761719e+03 2.29840957641602e+02 2.03969669342041e+01 34 
1.35484484863281e+03 2.28412744140625e+03 2.66755905151367e+01 35 
2.78981762695312e+03 1.24240737915039e+02 3.48719286918640e+00 36 
2.73822509765625e+03 5.28003349304199e+01 3.79533100128174e+00 37 
2.56582836914062e+03 4.25022506713867e+01 4.15524911880493e+00 38 
2.89756079101562e+03 2.42424560546875e+03 6.96887254714966e+00 39 
2.91665356445312e+03 1.62409072875977e+02 4.19334459304810e+00 40 
2.77735229492188e+03 1.24005691528320e+02 3.72273421287537e+00 41 
2.56103515625000e+03 2.50059594726562e+03 3.86684870719910e+00 42 
2.73690722656250e+03 2.42563256835938e+03 4.45810127258301e+00 43 
2.68265502929688e+03 2.46375585937500e+03 3.61938786506653e+00 44 
2.65499414062500e+03 2.47124023437500e+03 3.70626091957092e+00 45 
2.76869458007812e+03 1.96193505859375e+03 5.18777084350586e+00 46 
2.73525439453125e+03 5.20795898437500e+02 5.51209545135498e+00 47 
2.35329296875000e+03 9.48245117187500e+02 7.29846906661987e+00 48 
2.71266357421875e+03 2.40903320312500e+03 4.86324501037598e+00 49 
2.68259497070312e+03 2.41466503906250e+03 4.39337587356567e+00 50 
2.57078833007812e+03 6.49156265258789e+01 4.35535907745361e+00 51 
2.55143774414062e+03 5.09759330749512e+01 4.52330064773560e+00 52 
2.91054565429688e+03 2.44014233398438e+03 5.19121503829956e+00 53 
2.90291064453125e+03 1.31366564941406e+03 4.57476234436035e+00 54 
2.76372338867188e+03 2.39888476562500e+03 5.31408977508545e+00 55 
2.81769213867188e+03 2.35292480468750e+03 5.75546455383301e+00 56 
2.81313354492188e+03 2.04006811523438e+03 5.91718292236328e+00 57 
1.55150048828125e+03 2.28030688476562e+03 8.75365066528320e+00 58 
2.81123437500000e+03 2.39501904296875e+03 7.59121942520142e+00 60 
2.64424829101562e+03 2.44913793945312e+03 6.46476364135742e+00 61 
2.79224316406250e+03 1.69066625976562e+03 9.21093463897705e+00 62 
1.48929492187500e+03 2.36143627929688e+03 9.29174518585205e+00 63 
2.48449047851562e+03 2.51424975585938e+03 6.49520778656006e+00 64 
1.80841699218750e+03 1.40621789550781e+03 1.64750957489014e+01 65 
1.40365075683594e+03 1.18945930480957e+02 1.01006336212158e+01 66 
1.40642041015625e+03 2.27732690429688e+03 1.83976860046387e+01 67 
1.49607409667969e+03 2.29987939453125e+03 1.64345569610596e+01 68 
2.71744897460938e+03 2.00645642089844e+03 1.96357650756836e+01 69 
2.79170947265625e+03 1.95326159667969e+03 1.71857185363770e+01 70 
2.40849511718750e+03 5.45878845214844e+02 1.65126857757568e+01 71 
2.21421704101562e+03 3.81606018066406e+02 4.13141555786133e+01 72 
2.21606103515625e+03 6.26462585449219e+02 4.09129142761230e+01 73 
2.55827661132812e+03 4.58259948730469e+02 3.38265762329102e+01 74 
1.40907202148438e+03 2.22699682617188e+03 2.86535034179688e+01 75 
2.57653588867188e+03 1.13312756347656e+03 3.34778976440430e+01 76 
2.59772924804688e+03 1.81698901367188e+03 3.37801742553711e+01 77 
5.23146484375000e+02 4.53885498046875e+02 5.03653907775879e+00 78 
2.73589599609375e+03 6.45700454711914e+01 4.21695375442505e+00 79 
2.85930395507812e+03 2.01237695312500e+03 5.13801431655884e+00 80 
2.72048339843750e+03 5.55173606872559e+01 4.91298007965088e+00 81 
2.44965893554688e+03 1.45037731933594e+03 1.41680536270142e+01 91 
2.79543994140625e+03 2.02654565429688e+03 1.59326782226562e+01 121 
1.97977014160156e+03 1.87910607910156e+03 3.97320103645325e+00 173 
2.48581372070312e+03 6.37241363525391e+01 3.77581286430359e+00 179 
1.81347119140625e+03 2.37815039062500e+03 5.76246547698975e+00 261 
2.59607690429688e+03 1.35471667480469e+03 7.46889829635620e+00 262 
1.85303576660156e+03 5.22091186523438e+02 9.70728015899658e+00 286 
5.33888732910156e+02 9.49420532226562e+02 5.72260856628418e+00 287 
5.50678222656250e+02 6.46424377441406e+02 4.64562177658081e+00 288 
7.92619201660156e+02 7.42184509277344e+02 4.99941205978394e+00 289 
4.65937072753906e+02 9.34416076660156e+02 4.61619853973389e+00 290 
3.44650604248047e+02 8.12688720703125e+02 4.20425081253052e+00 291 
4.62728881835938e+02 1.19400610351562e+03 5.10384464263916e+00 292 
5.59875488281250e+02 1.44088537597656e+03 5.07980537414551e+00 293 
4.63444946289062e+02 1.52551708984375e+03 8.11901664733887e+00 294 
5.39396362304688e+02 1.23581616210938e+03 8.13058376312256e+00 295 
9.27725280761719e+02 2.16899926757812e+03 1.24708852767944e+01 296 
1.47030529785156e+03 7.19190917968750e+02 9.70104885101318e+00 297 
4.41620727539062e+02 7.76447937011719e+02 7.38452625274658e+00 298 
2.74796948242188e+03 1.16117639160156e+03 1.03075628280640e+01 299 
4.52207031250000e+02 1.14932409667969e+03 5.51343250274658e+00 300 
3.86218536376953e+02 8.91173400878906e+02 6.01915550231934e+00 301 
5.26181091308594e+02 1.08135510253906e+03 5.67677974700928e+00 302 
5.73444641113281e+02 7.69181579589844e+02 6.48628234863281e+00 303 
5.65534790039062e+02 5.97181030273438e+02 5.33099889755249e+00 304 
4.72975585937500e+02 7.86999511718750e+02 5.34072637557983e+00 305 
4.18017517089844e+02 9.40148742675781e+02 7.55023193359375e+00 306 
4.68321960449219e+02 8.14665100097656e+02 4.94165563583374e+00 307 
3.93787078857422e+02 7.95190795898438e+02 5.67032146453857e+00 308 
3.80915527343750e+03 1.67812060546875e+03 4.08157539367676e+00 309 
7.74077087402344e+02 5.83926635742188e+02 4.03481721878052e+00 310 
2.56323559570312e+03 2.24166943359375e+03 5.80940914154053e+00 311 
4.67442230224609e+02 1.21329272460938e+03 7.71599245071411e+00 312 
2.76930590820312e+03 1.28139697265625e+03 7.72504281997681e+00 313 
4.58313232421875e+02 9.79535095214844e+02 7.20026874542236e+00 314 
3.51147167968750e+03 2.16507568359375e+03 4.36818265914917e+00 315 
3.09617950439453e+02 2.96488433837891e+02 6.17040300369263e+00 316 
3.25555541992188e+02 6.80998962402344e+02 6.21883964538574e+00 317 
2.25462493896484e+02 2.25438598632812e+02 1.10152893066406e+01 318 
3.25559844970703e+02 3.28796813964844e+02 8.06926441192627e+00 319 
4.04706512451172e+02 3.91320739746094e+02 9.41886711120605e+00 320 
1.79132949829102e+02 4.57677307128906e+02 7.65050601959229e+00 321 
1.58696228027344e+02 3.04439117431641e+02 4.20005607604980e+00 322 
4.64833618164062e+02 4.96433288574219e+02 4.96962785720825e+00 323 
3.57573272705078e+02 5.31533020019531e+02 5.72262811660767e+00 324 
1.97759735107422e+02 3.08284942626953e+02 6.27001190185547e+00 325 
3.94204864501953e+02 4.37621276855469e+02 6.60002517700195e+00 326 
5.39948120117188e+02 3.59398986816406e+02 5.19295978546143e+00 327 
7.97313049316406e+02 3.55664184570312e+02 4.86040401458740e+00 328 
4.85919860839844e+02 7.20255004882812e+02 1.26159515380859e+01 329 
1.62955947875977e+02 1.15904159545898e+02 7.90972185134888e+00 330 
2.37920181274414e+02 3.13335571289062e+02 8.05948162078857e+00 331 
7.12786437988281e+02 1.00250250244141e+03 9.87716293334961e+00 332 
4.86547882080078e+02 4.38895233154297e+02 1.31174602508545e+01 333 
2.11359176635742e+02 1.21779922485352e+02 6.94363260269165e+00 334 
3.77934478759766e+02 2.52631668090820e+02 7.44323539733887e+00 335 
2.70909332275391e+02 3.61635192871094e+02 8.96057224273682e+00 336 
2.90964538574219e+02 4.25166168212891e+02 8.22971630096436e+00 337 
3.62599212646484e+02 5.56602355957031e+02 8.38862228393555e+00 338 
4.44714508056641e+02 8.58205810546875e+02 7.31595849990845e+00 339 
7.87782409667969e+02 2.08316601562500e+03 1.24753494262695e+01 340 
4.72784790039062e+02 3.62211486816406e+02 2.61609916687012e+01 341 
2.48434478759766e+02 3.00957733154297e+02 1.69751548767090e+01 342 
1.96844192504883e+02 1.66965621948242e+02 1.57506542205811e+01 343 
3.12959197998047e+02 4.12455413818359e+02 1.63308544158936e+01 344 
8.16489990234375e+02 2.36286279296875e+03 4.85983180999756e+00 345 
1.99993835449219e+02 9.19570159912109e+01 6.27217960357666e+00 346 
3.62671081542969e+02 9.80680389404297e+01 4.42456150054932e+00 347 
5.34033447265625e+02 9.93616714477539e+01 4.70763397216797e+00 348 
4.06321380615234e+02 3.55242401123047e+02 5.43041801452637e+00 349 
5.52310668945312e+02 4.80192382812500e+02 4.67423868179321e+00 350 
5.57601257324219e+02 1.04196754455566e+02 4.44158887863159e+00 351 
2.51604553222656e+02 2.05572235107422e+02 5.24885559082031e+00 352 
9.70009384155273e+01 3.99189178466797e+02 5.50021219253540e+00 353 
3.58640747070312e+02 4.22532775878906e+02 6.09197235107422e+00 354 
7.95291259765625e+02 6.77898986816406e+02 5.99430894851685e+00 355 
3.95496917724609e+02 8.36938537597656e+02 5.90429306030273e+00 356 
4.89953346252441e+01 1.83342620849609e+02 4.81028127670288e+00 357 
3.88854492187500e+02 4.08414550781250e+02 5.01510095596313e+00 358 
5.73737121582031e+02 4.60863891601562e+02 6.37216520309448e+00 359 
3.63322387695312e+02 1.69442367553711e+02 5.23770809173584e+00 360 
4.32900390625000e+02 1.71045928955078e+02 5.02465152740479e+00 361 
5.70837768554688e+02 4.89947265625000e+02 5.35324335098267e+00 362 
1.20872726440430e+02 6.54567871093750e+01 5.79880332946777e+00 363 
2.30062728881836e+02 2.58932373046875e+02 6.72141551971436e+00 364 
2.61562713623047e+02 3.19792846679688e+02 6.56858491897583e+00 365 
3.58325164794922e+02 3.54644592285156e+02 6.71363449096680e+00 366 
2.20056396484375e+02 3.44586029052734e+02 7.94176769256592e+00 367 
1.87498443603516e+02 4.11468688964844e+02 7.52109336853027e+00 368 
1.84757324218750e+03 1.08406945800781e+03 9.72431755065918e+00 369 
2.81538848876953e+02 2.05227996826172e+02 9.73452472686768e+00 370 
3.26893829345703e+02 2.83353271484375e+02 9.55717277526855e+00 371 
8.70549987792969e+02 7.28816101074219e+02 7.21931743621826e+00 372 
7.73465026855469e+02 1.17241674804688e+03 1.08330059051514e+01 373 
1.50487274169922e+02 2.45477752685547e+02 1.26188926696777e+01 374 
4.02511657714844e+02 7.13204895019531e+02 1.36371221542358e+01 375 
3.19363800048828e+02 3.84891815185547e+02 1.29177980422974e+01 376 
8.15992004394531e+02 6.36176940917969e+02 1.45823707580566e+01 377 
3.71987487792969e+02 2.08037551879883e+02 9.48012638092041e+00 378 
1.86081649780273e+02 3.40454864501953e+02 8.79161930084229e+00 379 
8.79927673339844e+02 5.99109008789062e+02 9.04527187347412e+00 380 
3.16302795410156e+02 5.00983795166016e+02 1.32925767898560e+01 381 
4.37304138183594e+02 5.11328552246094e+02 8.30445098876953e+00 382 
3.54530548095703e+02 7.04039855957031e+02 8.51059627532959e+00 383 
2.39714904785156e+02 5.31261215209961e+01 5.46515512466431e+00 384 
5.74298583984375e+02 3.70952301025391e+02 5.76726865768433e+00 385 
2.85942016601562e+02 4.65433227539062e+02 6.04235601425171e+00 386 
3.11807006835938e+02 4.66726257324219e+02 5.85881233215332e+00 387 
2.85182403564453e+02 6.35103149414062e+02 4.58202266693115e+00 388 
4.39590240478516e+02 8.88546569824219e+02 6.32456302642822e+00 389 
2.06982543945312e+02 5.46426574707031e+02 6.10276365280151e+00 390 
3.64608795166016e+02 4.35455627441406e+02 4.76551723480225e+00 391 
3.14801220703125e+03 5.34889587402344e+02 5.29465007781982e+00 392 
8.09870849609375e+02 2.02853295898438e+03 5.53273200988770e+00 393 
5.49316894531250e+02 1.67671630859375e+02 5.88775539398193e+00 394 
6.35254974365234e+01 3.31700469970703e+02 5.58359289169312e+00 395 
9.35444107055664e+01 3.60489685058594e+02 6.29493427276611e+00 396 
3.13303070068359e+02 5.21120849609375e+02 5.60197687149048e+00 397 
7.84957458496094e+02 1.18974890136719e+03 5.61660861968994e+00 398 
8.12777954101562e+02 1.84902575683594e+03 5.92928981781006e+00 399 
3.24527709960938e+02 1.05631179809570e+02 7.28409147262573e+00 400 
4.68242980957031e+02 2.76602935791016e+02 7.46978902816772e+00 401 
3.46316894531250e+02 3.97979949951172e+02 8.74124336242676e+00 402 
4.07887908935547e+02 4.60161987304688e+02 8.26062679290771e+00 403 
4.40349243164062e+02 8.00950744628906e+02 1.02371931076050e+01 404 
3.72456695556641e+02 3.07127441406250e+02 5.62222671508789e+00 405 
2.34660644531250e+03 3.69683593750000e+02 5.00948286056519e+00 406 
4.26381042480469e+02 4.96002197265625e+02 5.41594839096069e+00 407 
4.64294036865234e+02 9.18795104980469e+02 6.22260951995850e+00 408 
7.82350891113281e+02 3.91215637207031e+02 4.70896863937378e+00 409 
5.47905761718750e+02 4.19846710205078e+02 4.62425804138184e+00 410 
1.09731971740723e+02 1.16054000854492e+02 7.20507383346558e+00 411 
1.67909240722656e+02 3.18162231445312e+02 9.59355640411377e+00 412 
3.46178527832031e+02 4.42474395751953e+02 1.05339593887329e+01 413 
3.00625061035156e+02 6.23627929687500e+02 8.70523548126221e+00 414 
4.51758758544922e+02 6.26774475097656e+02 7.92721366882324e+00 415 
4.17878875732422e+02 1.31743698120117e+02 1.24123086929321e+01 416 
2.03490081787109e+02 4.29096069335938e+02 8.21850299835205e+00 417 
5.27315002441406e+02 3.75215515136719e+02 2.43476009368896e+01 418 
1.89254058837891e+02 2.08261566162109e+02 1.55185384750366e+01 419 
4.32241363525391e+02 3.38475494384766e+02 1.49361095428467e+01 420 
1.84140533447266e+02 3.80379943847656e+02 1.58084640502930e+01 421 
1.15537536621094e+03 6.25696350097656e+02 6.36713676452637e+01 422 
1.29991467285156e+03 9.46035888671875e+02 8.93697433471680e+01 423 
7.54057006835938e+01 9.50797042846680e+01 5.94432067871094e+00 424 
2.45555282592773e+02 1.89413543701172e+02 6.92157077789307e+00 425 
4.30171081542969e+02 7.36742370605469e+02 5.36307287216187e+00 426 
7.81300048828125e+02 1.15176440429688e+03 4.77663946151733e+00 427 
5.45203857421875e+02 1.05736053466797e+02 4.61894273757935e+00 428 
1.74764755249023e+02 3.58234283447266e+02 5.81702375411987e+00 429 
4.11228271484375e+02 5.18915832519531e+02 6.34805870056152e+00 430 
5.38001220703125e+02 7.41468200683594e+02 6.87489748001099e+00 431 
7.99350158691406e+02 1.00346978759766e+03 5.63251161575317e+00 432 
4.32877746582031e+02 5.91885986328125e+01 5.53985786437988e+00 433 
4.15057464599609e+02 1.51621994018555e+02 5.29452896118164e+00 434 
8.12915039062500e+02 1.39304724121094e+03 4.51400470733643e+00 435 
4.26560485839844e+02 2.06647232055664e+02 5.96156549453735e+00 436 
6.10080223083496e+01 3.64779449462891e+02 6.19753170013428e+00 437 
3.82503845214844e+02 8.46903869628906e+02 5.80195760726929e+00 438 
4.71579650878906e+02 3.62523040771484e+02 4.67173051834106e+00 439 
7.99998779296875e+02 7.14907714843750e+02 5.00179910659790e+00 440 
3.48121612548828e+02 2.88856719970703e+02 6.01325750350952e+00 441 
7.94894714355469e+01 4.06968322753906e+02 7.84042644500732e+00 442 
2.77525207519531e+02 4.07846008300781e+02 7.96847963333130e+00 443 
3.42457855224609e+02 6.84383178710938e+02 7.25243282318115e+00 444 
3.67620819091797e+02 7.64361694335938e+02 8.29050922393799e+00 445 
1.41097265625000e+03 1.78011633300781e+03 9.73806381225586e+00 446 
1.36412628173828e+02 1.74059143066406e+02 1.31653709411621e+01 447 
1.04369201660156e+02 8.20338211059570e+01 7.79972600936890e+00 448 
3.00773132324219e+02 1.39009552001953e+02 9.18565082550049e+00 449 
4.02216857910156e+02 4.16648559570312e+02 8.80371761322021e+00 450 
2.86697235107422e+02 4.85673553466797e+02 7.44246387481689e+00 451 
3.41411956787109e+02 5.44364135742188e+02 8.52317905426025e+00 452 
1.48458786010742e+02 6.10784484863281e+02 7.11528539657593e+00 453 
3.52239501953125e+02 1.54662673950195e+02 7.38178634643555e+00 454 
3.84936706542969e+02 3.73266937255859e+02 7.78748035430908e+00 455 
1.36439721679688e+03 2.23160205078125e+03 9.50247859954834e+00 456 
9.34853286743164e+01 2.63671112060547e+02 1.00581464767456e+01 457 
4.56205474853516e+02 6.59233337402344e+02 7.91478013992310e+00 458 
3.70591308593750e+02 7.24239196777344e+02 7.61044454574585e+00 459 
4.21195220947266e+02 7.55373901367188e+02 1.39195213317871e+01 460 
1.88867599487305e+02 1.28513656616211e+02 9.57386302947998e+00 461 
3.00412078857422e+02 1.92508850097656e+02 7.61525201797485e+00 462 
4.48741821289062e+02 3.84700103759766e+02 7.52748918533325e+00 463 
4.47625915527344e+02 8.37157226562500e+02 7.36957025527954e+00 464 
2.25879028320312e+02 1.50401428222656e+02 6.90790319442749e+00 465 
3.90006439208984e+02 6.89780944824219e+02 6.54172658920288e+00 466 
7.97143554687500e+02 1.76769165039062e+03 6.91772842407227e+00 467 
2.54670800781250e+03 1.33382592773438e+03 4.80844736099243e+00 468 
8.18576599121094e+02 2.23129931640625e+03 5.34018707275391e+00 469 
5.46669799804688e+02 8.95973281860352e+01 6.74423027038574e+00 470 
8.01801818847656e+02 4.43467346191406e+02 5.83919763565063e+00 471 
8.07135437011719e+02 6.64895202636719e+02 6.37615108489990e+00 472 
3.09877709960938e+03 1.73659423828125e+03 4.84700727462769e+00 473 
3.14139501953125e+03 1.76824829101562e+02 1.04904279708862e+01 474 
1.23720410156250e+03 9.71168029785156e+02 1.82442836761475e+01 475 
4.76281829833984e+02 2.06641040039062e+03 4.40234985351562e+01 476 
3.09349877929688e+03 1.41568969726562e+03 4.36383295059204e+00 477 
3.09352246093750e+03 1.39507983398438e+03 4.24929571151733e+00 478 
1.10673352050781e+03 7.02135925292969e+02 9.30896472930908e+00 479 
1.21144128417969e+03 7.24479248046875e+02 9.46133899688721e+00 480 
3.09511865234375e+03 1.52671252441406e+03 4.50789260864258e+00 481 
3.10594482421875e+03 1.72537927246094e+03 4.01006698608398e+00 482 
7.92228881835938e+02 2.01352014160156e+03 3.96288323402405e+00 483 
2.78973876953125e+03 1.91770068359375e+03 6.48569059371948e+00 484 
1.20543408203125e+03 1.49520300292969e+03 1.17993602752686e+01 485 
2.23462768554688e+03 2.11906469726562e+03 9.56449604034424e+00 486 
3.10633618164062e+03 1.34620104980469e+03 3.72707128524780e+00 487 
3.33941577148438e+03 1.32669067382812e+02 3.73813962936401e+00 488 
5.59719421386719e+02 1.14975967407227e+02 1.03498582839966e+01 489 
2.28124584960938e+03 7.27342956542969e+02 1.24546928405762e+01 490 
1.44207678222656e+03 1.09439099121094e+03 2.18545379638672e+01 491 
2.14450781250000e+03 1.87688146972656e+03 1.78910007476807e+01 492 
2.19222412109375e+03 2.38814062500000e+03 5.05241727828979e+00 493 
2.33990576171875e+03 2.24569970703125e+03 6.74728202819824e+00 494 
8.67555236816406e+02 5.07546783447266e+02 5.18961191177368e+00 495 
2.64644409179688e+03 1.08023303222656e+03 5.05020666122437e+00 496 
2.46396118164062e+03 2.18410229492188e+03 1.02201833724976e+01 497 
1.81283007812500e+03 1.65768701171875e+03 4.88787689208984e+01 498 
1.45839599609375e+03 1.82818151855469e+03 6.14813995361328e+01 499 
1.28558349609375e+03 1.23323254394531e+03 9.20430679321289e+01 500 
2.62777832031250e+02 8.46823181152344e+02 6.96585655212402e+00 501 
2.13768554687500e+03 2.79367706298828e+02 1.01119222640991e+01 502 
2.98668457031250e+03 2.35861816406250e+03 5.40371513366699e+00 503 
2.91442114257812e+03 1.31366406250000e+03 4.15441465377808e+00 504 
1.14138757324219e+03 1.34266601562500e+03 3.66474771499634e+00 505 
2.94283886718750e+03 2.01365393066406e+03 7.84704399108887e+00 506 
2.32813403320312e+03 1.05534533691406e+03 6.85469818115234e+00 507 
1.88495690917969e+03 7.73688842773438e+02 8.69465541839600e+00 508 
2.20147534179688e+03 1.66265100097656e+03 8.35102272033691e+00 509 
1.82981115722656e+03 1.73584387207031e+03 1.53041448593140e+01 510 
2.83214038085938e+03 1.94862438964844e+03 1.59126253128052e+01 511 
1.22976104736328e+02 1.04199182128906e+03 7.67213773727417e+00 512 
2.15967626953125e+03 1.17731735229492e+02 4.55186271667480e+00 513 
3.60436621093750e+03 1.44705773925781e+03 2.39794139862061e+01 514 
2.82226025390625e+03 1.65122644042969e+03 1.54596986770630e+01 515 
2.68053662109375e+03 6.66396545410156e+02 4.03657341003418e+00 516 
2.70075756835938e+03 2.44757446289062e+03 6.73625802993774e+00 517 
2.76938916015625e+03 1.93037857055664e+02 6.34672737121582e+00 518 
2.86704638671875e+03 1.96510302734375e+03 1.26140050888062e+01 519 
2.00826525878906e+03 5.79495910644531e+02 1.01369857788086e+01 520 
1.90464135742188e+03 1.75217089843750e+03 7.77542161941528e+00 521 
2.23091015625000e+03 1.37015942382812e+03 4.06444473266602e+01 522 
8.18216247558594e+02 2.50481689453125e+03 5.58500766754150e+00 523 
5.44941040039062e+02 1.99592944335938e+03 4.85302209854126e+00 524 
2.60914135742188e+03 1.55823645019531e+03 5.94959783554077e+00 525 
4.53000427246094e+02 5.92485656738281e+02 9.95316123962402e+00 526 
2.61078881835938e+03 1.62530200195312e+03 8.76861286163330e+00 527 
1.09482922363281e+03 1.88144055175781e+03 2.60261993408203e+01 528 
2.73509252929688e+03 3.20714752197266e+02 5.94362592697144e+00 529 
4.40743377685547e+02 2.04422021484375e+03 5.45459318161011e+00 530 
2.35533349609375e+03 2.25562402343750e+03 7.49988651275635e+00 531 
5.68685424804688e+02 2.24510278320312e+03 8.72918987274170e+00 532 
1.25519177246094e+03 1.76994421386719e+03 1.36380567550659e+01 533 
2.31187881469727e+02 4.32344940185547e+02 5.95157480239868e+00 534 
7.65947204589844e+02 5.69433044433594e+02 6.99477624893188e+00 535 
1.45219335937500e+03 9.37941833496094e+02 2.24533023834229e+01 536 
2.32036669921875e+03 8.81242736816406e+02 1.61022891998291e+01 537 
2.26164575195312e+03 1.02230993652344e+03 1.97574558258057e+01 538 
2.12250024414062e+03 5.39838195800781e+02 5.88646984100342e+00 539 
1.12832250976562e+03 5.48767578125000e+02 6.18668413162231e+00 540 
3.09657373046875e+03 2.19375427246094e+02 5.47529697418213e+00 541 
1.94907434082031e+03 2.08762646484375e+03 7.43001270294189e+00 542 
1.69432104492188e+03 1.45947204589844e+03 8.79484367370605e+00 543 
2.63219287109375e+03 1.27688928222656e+03 1.35710315704346e+01 544 
1.01873156738281e+03 1.38209692382812e+03 1.69545288085938e+01 545 
1.56531848144531e+03 1.09948498535156e+03 5.24870719909668e+01 546 
2.69315502929688e+03 1.17835180664062e+03 6.05838441848755e+00 547 
2.70326318359375e+03 1.61165185546875e+03 5.16370630264282e+00 548 
2.50920458984375e+03 1.29286547851562e+03 6.85564661026001e+00 549 
1.02595397949219e+03 6.86878662109375e+02 2.15358581542969e+01 550 
2.67439501953125e+03 4.94673461914062e+02 3.91775035858154e+00 551 
2.07632763671875e+03 1.11480920410156e+03 5.24257898330688e+00 552 
2.67734228515625e+03 1.73386669921875e+03 6.23975276947021e+00 553 
2.02344885253906e+03 2.38114599609375e+03 1.04448766708374e+01 554 
2.57069189453125e+03 1.59606225585938e+03 8.28546333312988e+00 555 
3.21968554687500e+03 3.23450347900391e+02 7.97401809692383e+00 556 
3.22150463867188e+03 5.04803161621094e+02 5.66688585281372e+00 558 
2.73967773437500e+03 9.63602066040039e+01 8.12890148162842e+00 559 
3.21066577148438e+03 4.09671691894531e+02 7.21731662750244e+00 560 
6.70278625488281e+02 8.83312194824219e+02 3.73011493682861e+00 561 
2.09446337890625e+03 6.80706176757812e+01 5.35251903533936e+00 562 
1.90966809082031e+03 9.00122070312500e+02 3.73473119735718e+00 563 
3.25180444335938e+03 6.56565795898438e+02 1.33243503570557e+01 564 
1.88245239257812e+03 2.20134619140625e+03 7.64325761795044e+00 565 
8.06572753906250e+02 1.82505065917969e+03 5.24222421646118e+00 566 
7.99143615722656e+02 1.23093896484375e+03 7.01511001586914e+00 567 
1.60145666503906e+03 1.37500354003906e+03 1.34227027893066e+01 568 
1.92159814453125e+03 9.84969787597656e+02 5.64506568908691e+01 569 
3.02661669921875e+03 6.51866027832031e+02 5.80220222473145e+00 570 
3.19811352539062e+03 2.27723388671875e+03 5.36669540405273e+00 571 
8.05413696289062e+02 2.24800585937500e+03 4.93976593017578e+00 572 
2.06280664062500e+03 1.63875268554688e+03 6.81587791442871e+00 573 
1.80999499511719e+03 2.42607495117188e+03 3.69574189186096e+00 574 
3.15320703125000e+03 2.94439941406250e+02 3.39010286331177e+00 575 
1.70314038085938e+03 1.93929504394531e+03 2.01789398193359e+01 576 
3.35946166992188e+03 1.83463842773438e+03 9.16903591156006e+00 577 
1.78089245605469e+03 2.18014648437500e+03 8.06678581237793e+00 578 
2.91206640625000e+03 1.51344009399414e+02 6.05636215209961e+00 579 
5.95035522460938e+02 7.38711242675781e+02 6.59533834457397e+00 580 
3.32948089599609e+02 1.06369543457031e+03 6.02808284759521e+00 581 
4.77841552734375e+02 1.53519335937500e+03 6.40134763717651e+00 582 
2.20721972656250e+03 1.55683312988281e+03 9.38649940490723e+00 583 
1.78983288574219e+03 2.31263574218750e+03 6.16867637634277e+00 584 
1.25200976562500e+03 2.07343115234375e+03 1.41427478790283e+01 585 
3.07328417968750e+03 4.93496124267578e+02 9.38516044616699e+00 586 
2.14676489257812e+03 2.37518212890625e+03 1.73487796783447e+01 587 
1.68604809570312e+03 8.25828918457031e+02 2.01804161071777e+01 588 
2.03438061523438e+03 1.06144653320312e+03 1.81492862701416e+01 589 
2.89647021484375e+03 2.45214868164062e+03 6.13548231124878e+00 590 
2.37643188476562e+03 1.09659680175781e+03 5.18851566314697e+00 591 
2.22119799804688e+03 8.73104370117188e+02 4.09055786132812e+01 592 
1.79785925292969e+03 5.64399963378906e+02 4.86427040100098e+01 593 
2.30071997070312e+03 5.74308837890625e+02 6.37386178970337e+00 594 
7.77555541992188e+02 4.62825714111328e+02 4.06355333328247e+00 595 
1.37056176757812e+03 2.33592846679688e+03 1.02143487930298e+01 596 
2.89436523437500e+03 2.40958496093750e+03 6.31293106079102e+00 597 
8.32232666015625e+02 2.23068139648438e+03 4.53518915176392e+00 598 
2.45413378906250e+03 2.29868920898438e+03 7.00651550292969e+00 599 
1.67287145996094e+03 1.19328637695312e+03 9.67788124084473e+00 600 
2.70787036132812e+03 1.32563781738281e+03 7.87028837203979e+00 601 
5.92261169433594e+02 1.64816259765625e+03 5.24373483657837e+00 602 
5.39893737792969e+02 1.51529541015625e+03 6.16837024688721e+00 603 
1.73386462402344e+03 2.83493591308594e+02 3.83572554588318e+00 604 
3.81645507812500e+03 1.38537948608398e+02 4.29989767074585e+00 605 
8.28109680175781e+02 1.65671984863281e+03 1.02411336898804e+01 606 
5.79384399414062e+02 1.80925231933594e+03 6.34442090988159e+00 607 
3.09097119140625e+03 1.30060327148438e+03 4.49470663070679e+00 608 
5.44889526367188e+02 1.81458215332031e+03 4.08376646041870e+00 609 
1.85677648925781e+03 8.58970642089844e+02 6.11403179168701e+00 610 
5.61987976074219e+02 1.84700280761719e+03 6.72022581100464e+00 611 
4.81220397949219e+02 1.37568725585938e+03 5.82964324951172e+00 612 
5.16705627441406e+02 1.25320898437500e+03 1.10944700241089e+01 613 
6.07282592773438e+02 1.55220178222656e+03 4.86225032806396e+00 614 
5.49883239746094e+02 1.68899023437500e+03 5.76307868957520e+00 615 
5.71185241699219e+02 1.82848815917969e+03 6.04953956604004e+00 616 
3.23088183593750e+03 1.22150341796875e+03 4.17090082168579e+00 617 
5.63196411132812e+02 1.86191027832031e+03 5.49622058868408e+00 618 
4.05304016113281e+02 1.78360742187500e+03 7.06540822982788e+00 619 
4.42959808349609e+02 1.90071520996094e+03 4.61244201660156e+00 620 
4.04259826660156e+02 1.85085363769531e+03 6.19785642623901e+00 621 
3.75616943359375e+02 1.94455444335938e+03 6.10757970809937e+00 622 
3.79434204101562e+02 1.97554443359375e+03 6.98919010162354e+00 623 
8.20130126953125e+02 2.52329370117188e+03 5.15463447570801e+00 624 
4.43754730224609e+02 1.78250744628906e+03 6.60672235488892e+00 625 
3.57320831298828e+02 1.98406225585938e+03 6.34486007690430e+00 626 
1.95133880615234e+02 2.39692651367188e+03 6.67706871032715e+00 627 
3.44223486328125e+03 8.03749572753906e+02 4.76160383224487e+00 628 
7.92811645507812e+02 8.67915039062500e+02 4.64242839813232e+00 629 
2.98695709228516e+02 2.14860424804688e+03 7.50197505950928e+00 630 
3.46572631835938e+02 2.14836669921875e+03 1.06783771514893e+01 631 
5.66011901855469e+02 2.27868481445312e+03 9.19186401367188e+00 632 
2.49993453979492e+02 2.34461694335938e+03 7.79883861541748e+00 633 
5.00211486816406e+02 1.81236096191406e+03 1.34202098846436e+01 634 
3.06239379882812e+03 2.42688781738281e+02 6.91414022445679e+00 635 
4.04458648681641e+02 1.88520751953125e+03 7.45111703872681e+00 636 
3.56539642333984e+02 2.19308666992188e+03 7.77197074890137e+00 637 
3.23183044433594e+02 2.45006445312500e+03 7.48651599884033e+00 638 
1.91064147949219e+02 2.00905773925781e+03 8.52732276916504e+00 639 
3.91822692871094e+02 2.07461938476562e+03 7.72176694869995e+00 640 
4.39265594482422e+02 2.13967358398438e+03 9.84546184539795e+00 641 
4.11343261718750e+02 1.95517480468750e+03 1.34016361236572e+01 642 
1.00363159179688e+03 8.46182312011719e+02 2.68585968017578e+01 643 
1.02745996093750e+03 1.25093627929688e+03 3.64416885375977e+01 644 
5.64727233886719e+02 1.55470068359375e+03 5.23829078674316e+00 645 
8.05147583007812e+02 2.04295495605469e+03 5.09356546401978e+00 646 
3.26687774658203e+02 1.98241613769531e+03 5.86216592788696e+00 647 
3.77092864990234e+02 2.17099267578125e+03 6.26527929306030e+00 648 
3.98433288574219e+02 2.20437255859375e+03 7.06073093414307e+00 649 
5.75363830566406e+02 1.65838073730469e+03 4.08914661407471e+00 650 
3.08078491210938e+02 1.75383764648438e+03 4.64504909515381e+00 651 
2.82629669189453e+02 2.03176916503906e+03 5.58748674392700e+00 652 
1.32019848632812e+03 3.58252532958984e+02 6.43773126602173e+00 653 
3.32908020019531e+02 2.15063378906250e+03 5.36209487915039e+00 654 
3.23309204101562e+02 2.40547094726562e+03 7.03816127777100e+00 655 
4.65855926513672e+02 2.49572412109375e+03 6.38664674758911e+00 656 
2.23378494262695e+02 2.34466748046875e+03 4.70893430709839e+00 657 
4.75495239257812e+02 2.25727246093750e+03 6.16895151138306e+00 658 
4.88807312011719e+02 2.28779663085938e+03 6.41762161254883e+00 659 
3.71428833007812e+02 1.66731530761719e+03 4.17385530471802e+00 660 
3.04898925781250e+02 1.95281518554688e+03 4.35271406173706e+00 661 
1.79140335083008e+02 2.08065258789062e+03 5.15060806274414e+00 662 
3.61183013916016e+02 2.40384423828125e+03 8.60042572021484e+00 663 
3.35422363281250e+02 1.90312329101562e+03 7.70966291427612e+00 664 
4.67363677978516e+02 2.22328857421875e+03 9.41703224182129e+00 665 
3.28471679687500e+02 2.35839355468750e+03 9.84071540832520e+00 666 
3.51562133789062e+02 1.77738720703125e+03 1.33927659988403e+01 667 
3.35509552001953e+02 1.93220581054688e+03 9.34944725036621e+00 668 
4.41935516357422e+02 1.93083605957031e+03 8.07099246978760e+00 669 
1.53708282470703e+02 1.99410620117188e+03 7.88774633407593e+00 670 
3.80778839111328e+02 2.12598168945312e+03 9.20509624481201e+00 671 
2.04760345458984e+02 2.31656250000000e+03 8.79605007171631e+00 672 
3.26281707763672e+02 2.31656225585938e+03 8.09451866149902e+00 673 
3.65485913085938e+03 3.00920318603516e+02 7.35675239562988e+00 674 
5.66946594238281e+02 1.32858837890625e+03 8.17267894744873e+00 675 
3.31200134277344e+02 1.85121032714844e+03 7.50594425201416e+00 676 
2.00633331298828e+02 2.05132470703125e+03 7.21808862686157e+00 677 
3.37086822509766e+02 2.11817480468750e+03 9.30188846588135e+00 678 
4.56430297851562e+02 2.17632592773438e+03 9.85587882995605e+00 679 
5.92253540039062e+02 2.43557910156250e+03 8.80519008636475e+00 680 
2.91647399902344e+02 2.30315942382812e+03 9.06923294067383e+00 681 
1.50442382812500e+02 2.42273437500000e+03 7.85252666473389e+00 682 
5.61366577148438e+02 1.74582104492188e+03 8.02330589294434e+00 683 
4.55638427734375e+02 1.33180236816406e+03 7.21657419204712e+00 684 
4.59041229248047e+02 1.97249511718750e+03 5.82170915603638e+00 685 
3.16355102539062e+02 1.83444897460938e+03 6.71210098266602e+00 686 
3.15053070068359e+02 1.96303955078125e+03 6.71817493438721e+00 687 
3.71180389404297e+02 1.95999951171875e+03 5.71810340881348e+00 688 
3.73178588867188e+02 1.99424682617188e+03 6.58236408233643e+00 689 
3.45951196289062e+03 1.08735816955566e+02 8.39260959625244e+00 690 
3.41022998046875e+03 4.01180389404297e+02 5.18539237976074e+00 691 
3.11086181640625e+03 1.13820422363281e+03 5.28806829452515e+00 692 
7.84257385253906e+02 1.37641894531250e+03 5.07561206817627e+00 693 
3.58955993652344e+02 2.17383886718750e+03 5.56893205642700e+00 694 
1.42986267089844e+02 2.36604248046875e+03 4.27382230758667e+00 695 
3.08473339843750e+03 2.76962158203125e+02 5.70875930786133e+00 696 
3.14282470703125e+02 2.08166406250000e+03 6.92559957504272e+00 697 
4.38115814208984e+02 1.87164672851562e+03 7.91214084625244e+00 698 
4.79392547607422e+02 1.87765368652344e+03 7.55874443054199e+00 699 
4.48164886474609e+02 1.95345898437500e+03 8.82375240325928e+00 700 
4.55152832031250e+02 2.28560400390625e+03 7.31439781188965e+00 701 
9.00355911254883e+01 2.34825512695312e+03 9.81023693084717e+00 702 
4.71817230224609e+02 2.14255908203125e+03 1.28099317550659e+01 703 
4.43580932617188e+02 1.56387121582031e+03 8.76348114013672e+00 704 
2.81322265625000e+02 2.13026806640625e+03 7.54382753372192e+00 705 
4.05246185302734e+02 1.92164440917969e+03 1.34414024353027e+01 706 
3.87347167968750e+02 1.76642749023438e+03 9.75002288818359e+00 707 
3.16266448974609e+02 1.89326147460938e+03 7.46966314315796e+00 708 
2.75778503417969e+02 2.07596191406250e+03 7.96739339828491e+00 709 
3.76977844238281e+02 2.19927392578125e+03 7.74906921386719e+00 710 
3.06986083984375e+02 2.32591894531250e+03 1.03735246658325e+01 711 
4.35124572753906e+02 1.76328344726562e+03 1.15719699859619e+01 712 
4.65714630126953e+02 1.99579650878906e+03 1.42807121276855e+01 713 
4.06973815917969e+02 2.10319702148438e+03 1.53600349426270e+01 714 
7.84659729003906e+02 1.55338427734375e+03 4.89862823486328e+00 715 
3.71427520751953e+02 2.26631884765625e+03 4.80194234848022e+00 716 
3.97985198974609e+02 2.29657421875000e+03 4.77467203140259e+00 717 
5.46352294921875e+02 1.50000158691406e+03 6.24122953414917e+00 718 
3.73440185546875e+02 2.04581030273438e+03 5.51643085479736e+00 719 
9.25501708984375e+01 2.39270166015625e+03 5.87362384796143e+00 720 
3.22726342773438e+03 1.24476342773438e+03 5.63629150390625e+00 721 
4.53454895019531e+02 1.90532165527344e+03 4.81043815612793e+00 722 
3.58525756835938e+02 1.93810437011719e+03 5.35780572891235e+00 723 
7.92959594726562e+02 1.86438183593750e+03 5.46825313568115e+00 724 
4.39293579101562e+02 1.98785180664062e+03 6.47954607009888e+00 725 
8.31453979492188e+02 2.44221777343750e+03 4.34688758850098e+00 726 
1.93002685546875e+02 2.03207336425781e+03 6.62841749191284e+00 727 
3.08843383789062e+02 2.35178833007812e+03 6.51817607879639e+00 728 
3.07224609375000e+03 9.06746643066406e+02 4.56888771057129e+00 729 
5.68946594238281e+02 1.53730163574219e+03 5.29998636245728e+00 730 
7.94791320800781e+02 1.79304479980469e+03 3.86192345619202e+00 731 
3.85646057128906e+02 1.82710412597656e+03 5.29626941680908e+00 732 
3.76133575439453e+02 2.42176391601562e+03 1.04776449203491e+01 733 
4.45024871826172e+02 1.68399438476562e+03 1.07943677902222e+01 734 
3.84620544433594e+02 1.86558837890625e+03 1.00713720321655e+01 735 
1.81607986450195e+02 2.06125976562500e+03 7.37179517745972e+00 736 
3.08909790039062e+02 2.37774804687500e+03 7.20325660705566e+00 737 
3.46438323974609e+02 2.37433398437500e+03 7.61246156692505e+00 738 
2.39303125000000e+03 4.35279968261719e+02 8.41220188140869e+00 739 
4.09658843994141e+02 1.98810668945312e+03 9.92779064178467e+00 740 
2.75273681640625e+02 2.36216943359375e+03 8.13204765319824e+00 741 
1.80470626831055e+02 2.43232250976562e+03 9.31142711639404e+00 742 
4.30064544677734e+02 1.72504479980469e+03 1.33207054138184e+01 743 
5.73034423828125e+02 1.97525927734375e+03 8.87660884857178e+00 744 
5.65488098144531e+02 2.30481860351562e+03 7.64966487884521e+00 745 
1.14306420898438e+03 1.26139135742188e+03 1.41155977249146e+01 746 
4.75393798828125e+02 1.54032922363281e+03 7.48965501785278e+00 747 
4.04831207275391e+02 1.86799951171875e+03 5.77706575393677e+00 748 
4.23634765625000e+02 2.12543823242188e+03 6.59336328506470e+00 749 
3.48855346679688e+02 2.31633618164062e+03 6.68526983261108e+00 750 
1.91300399780273e+02 2.37986352539062e+03 6.23648643493652e+00 751 
8.17649047851562e+02 1.43144702148438e+03 4.46290922164917e+00 752 
7.89564025878906e+02 2.03927062988281e+03 3.68805408477783e+00 753 
5.76239440917969e+02 2.13247729492188e+03 5.65263128280640e+00 754 
2.85948681640625e+03 1.21844055175781e+02 6.82444763183594e+00 755 
3.66975000000000e+03 3.14702423095703e+02 6.00711202621460e+00 756 
1.41328750610352e+02 1.81832885742188e+03 6.12467718124390e+00 757 
2.80693756103516e+02 2.32395825195312e+03 6.36907386779785e+00 758 
6.13510681152344e+02 2.45037963867188e+03 6.04726123809814e+00 759 
2.59991064453125e+03 1.02420117187500e+03 2.29230594635010e+01 760 
7.98072753906250e+02 3.86624298095703e+02 4.71982240676880e+00 761 
3.01654687500000e+03 4.81446197509766e+02 6.88404798507690e+00 762 
8.15408630371094e+02 1.17274023437500e+03 3.95831632614136e+00 763 
8.13455810546875e+02 1.04302734375000e+03 4.42867517471313e+00 764 
2.31277075195312e+03 1.96968103027344e+03 1.53394632339478e+01 765 
8.19074829101562e+02 1.64770300292969e+03 4.14626979827881e+00 766 
8.14424011230469e+02 4.91389770507812e+02 3.86112594604492e+00 767 
8.16659179687500e+02 1.06609167480469e+03 3.96043968200684e+00 768 
3.24542358398438e+03 1.98454064941406e+03 7.32131195068359e+00 769 
2.99088403320312e+03 7.01680969238281e+02 1.18523473739624e+01 770 
2.33626391601562e+03 2.32586010742188e+03 1.62114448547363e+01 771 
2.08103588867188e+03 1.36816259765625e+03 6.23733091354370e+00 772 
2.71760717773438e+03 2.02138061523438e+03 4.46169424057007e+00 773 
2.78049951171875e+03 1.61095520019531e+03 6.80631065368652e+00 774 
3.65555395507812e+03 1.70427075195312e+03 6.70445680618286e+00 775 
2.96431176757812e+03 5.63161437988281e+02 5.44622087478638e+00 776 
2.41303881835938e+03 2.51483740234375e+03 4.65971708297729e+00 777 
