ply
format ascii 1.0
element vertex 683
property float x
property float y
property float size
property short id
end_header
443.926056 915.793030 15.879828 21 
544.372070 869.175049 20.664680 31 
1934.802979 299.486298 5.298380 58 
1937.847534 215.236649 4.660693 63 
526.435669 1006.184631 24.727962 69 
3355.851074 1836.247803 6.022131 94 
3511.858398 1827.714478 5.025954 112 
559.473083 901.362427 10.003894 119 
360.581757 897.968567 7.744632 120 
3730.650635 1644.053955 7.191764 126 
531.484741 793.202576 9.966203 132 
1180.874390 1846.228394 11.940763 133 
2418.057617 1113.541260 14.325706 134 
2579.490479 658.658386 6.514861 135 
3276.361328 2105.413086 7.712450 136 
2013.190552 2363.613281 5.330364 137 
2173.813965 1561.353149 7.384641 138 
2581.811768 1916.640625 15.664420 139 
367.489105 991.811218 9.618288 140 
631.305481 1148.632812 48.085308 141 
3406.805664 1953.726440 7.065321 147 
3319.547363 1883.724609 6.159745 148 
1262.245972 516.499390 53.650745 248 
2978.042725 2437.799805 9.308457 273 
3609.777344 1704.107056 4.191404 295 
3741.448486 378.500183 4.686057 433 
144.884399 739.872559 3.868142 435 
3621.997314 1186.613647 5.297685 479 
2920.537109 668.064026 6.153145 504 
2513.062012 931.372986 4.648824 505 
2515.138916 751.193481 9.374763 506 
2515.815918 439.448639 3.676850 507 
3481.035889 1135.811768 10.295091 508 
274.337555 823.944031 4.107388 509 
884.304138 1242.309448 15.861505 510 
380.387268 922.940430 21.261015 511 
2658.880859 668.737610 3.775063 512 
3826.927002 1666.593750 5.208436 787 
3792.310303 1815.067261 10.313267 790 
3307.645996 997.836304 16.419493 798 
3525.268555 1964.783691 5.844069 799 
3570.785889 1721.784058 5.044888 800 
3613.307373 1987.102783 5.986280 801 
3328.867432 1952.327759 7.699547 806 
3541.948730 1916.097900 8.055263 807 
3841.721436 1828.809448 4.679971 809 
3721.497803 1856.332397 7.068417 811 
3824.277344 1844.457031 6.482086 813 
3625.228027 1603.608887 5.008410 816 
3594.861816 1614.196045 6.143454 823 
3817.522705 1681.989014 7.352040 824 
3686.140381 1578.920776 5.084445 831 
3751.898438 1874.796875 7.956566 837 
3433.474121 1874.972412 6.001827 853 
3656.125000 2005.277832 5.478254 859 
3311.888184 1988.894653 8.683358 863 
3626.098633 1899.858276 6.460744 869 
3301.309082 1880.650269 6.924521 886 
3533.362305 2047.554688 6.954103 887 
3762.649170 1827.306885 6.561098 897 
3725.178223 1749.466553 6.819946 898 
3743.768555 1406.202881 7.045015 902 
3777.113037 1909.656738 7.563110 916 
3686.089844 1467.879150 7.052743 917 
3654.821777 1561.668091 5.198688 924 
3441.634766 1809.138550 5.585591 940 
3509.406250 1965.182617 5.729297 943 
3587.494141 1637.842529 5.319507 944 
3164.007080 1127.992065 19.274103 955 
3782.656250 1765.543457 4.937450 962 
3214.530273 2075.374756 5.207160 964 
3657.312256 1626.884766 5.559026 966 
3424.527344 1814.151123 6.342989 968 
3183.184326 2172.966309 5.489431 974 
3588.239014 1884.920776 8.567231 976 
3483.447021 1727.764160 5.333946 986 
3416.948730 2063.773438 5.906104 1003 
3579.934082 1664.936890 4.932382 1006 
3788.278076 1443.478027 4.908087 1008 
1310.465454 1952.852295 7.942922 1009 
3765.320312 1842.675659 6.201083 1010 
920.607849 432.213440 15.931368 1011 
498.833954 599.745911 18.159142 1012 
305.964172 678.969666 16.586861 1013 
3592.657715 1732.330444 3.668324 1014 
3276.479980 2036.662842 5.044031 1015 
3625.949951 1965.897705 9.385528 1016 
3676.918457 1818.381348 8.892717 1017 
3670.304932 1452.349854 6.124524 1018 
3284.612549 1958.110107 9.237437 1019 
3661.254150 1968.901245 8.235006 1020 
3642.811768 1897.356689 6.058410 1021 
3768.456787 1923.828735 7.241802 1022 
3770.963867 1701.238525 5.812619 1023 
3758.160645 1425.632202 5.169166 1024 
3570.733398 1952.235474 12.027720 1025 
3780.978027 1887.591431 9.990622 1026 
3267.871094 2003.872192 6.485546 1027 
1298.069824 236.886963 4.975034 1028 
3457.887207 2095.734375 5.392179 1029 
3663.810791 1496.062256 3.890157 1030 
2798.556641 2316.719482 11.332227 1031 
3627.557129 1839.017700 11.211064 1032 
3788.128662 1898.951660 6.041458 1033 
3557.683838 1901.544189 5.172108 1034 
3528.959229 1675.407837 4.566400 1035 
1576.711914 162.435455 3.742658 1036 
3307.351562 2035.712036 6.456716 1037 
3295.762939 2013.295532 7.518276 1038 
1622.272583 142.218277 3.888283 1039 
3578.682861 1623.633545 4.172416 1040 
3505.258789 1749.258667 5.559472 1041 
3573.862305 1899.885864 6.072923 1042 
3649.712158 1926.770630 8.255516 1043 
3696.711182 1921.137451 10.334682 1044 
3559.437988 1624.432739 5.442143 1045 
3650.461426 1825.030151 9.917250 1046 
1590.837036 209.187943 20.247129 1047 
1288.743042 573.551331 52.281921 1048 
1862.498779 57.436325 4.360729 1049 
3426.674805 2123.704102 4.626896 1050 
3736.695068 1784.057861 5.293639 1051 
3473.452881 2094.027344 5.083218 1052 
3467.499268 1754.713013 4.226798 1053 
3502.638916 1617.758423 4.090459 1054 
3359.051514 1818.032959 4.537457 1055 
3668.139648 1994.235229 5.461393 1056 
3784.977539 1791.600220 4.919983 1057 
3782.248047 1432.433105 4.118338 1058 
3540.727539 1935.386963 5.349389 1059 
3581.920654 1687.432739 5.413588 1060 
3585.689209 1602.768066 5.668480 1061 
3692.761230 1854.881714 7.960195 1062 
3427.728516 1731.899780 6.414875 1063 
482.687317 576.744446 7.858647 1064 
3476.174805 1820.333130 8.963350 1065 
3521.998535 1905.778564 8.043427 1066 
3779.251709 1948.511719 5.683132 1067 
3677.850098 1496.841309 6.147986 1068 
3624.275391 1809.988037 7.878803 1069 
3599.285889 1793.004517 6.149089 1070 
3713.079590 1779.660156 5.333311 1071 
3658.130859 1756.533203 10.189122 1072 
105.564499 723.615417 8.419731 1073 
3522.938965 1992.882568 10.053173 1074 
3529.406982 1705.624390 6.501007 1075 
3278.689697 1983.834961 5.471281 1076 
3663.284912 2017.610840 4.855659 1077 
3487.971680 1698.414062 4.120072 1078 
3612.060547 1949.125488 6.482478 1079 
3220.715088 2030.928711 6.425090 1080 
3551.043701 2067.576172 5.513941 1081 
3670.986328 1873.553833 5.718517 1082 
1963.865601 229.757507 12.166022 1090 
1950.321411 256.867676 12.801435 1091 
2123.751221 480.976929 7.281553 1156 
2887.712158 2435.392334 8.614814 1238 
3076.524414 2245.043945 9.516614 1260 
3517.540527 1740.884521 6.007483 1263 
3259.954590 2071.882324 6.802968 1275 
3370.163574 2401.155518 9.723077 1293 
3073.956299 2201.858643 8.978421 1294 
3245.882568 2106.204590 11.422838 1307 
3199.097900 2385.275879 10.616407 1311 
3121.636719 2206.160156 10.955744 1312 
3186.911865 2143.725098 8.874414 1313 
3482.535156 1744.631714 8.610498 1321 
3148.310547 2159.177002 8.770076 1357 
3780.000977 1309.391602 5.390519 1400 
3167.038818 2421.645020 7.445795 1421 
3203.409912 2168.877930 9.199243 1422 
3259.466553 2050.687012 6.165188 1424 
3777.249023 1358.554077 5.856791 1444 
3158.157959 2475.478027 11.880857 1460 
3239.230225 2068.995361 6.089283 1462 
3058.851562 2218.124023 6.741028 1472 
3491.317139 1764.470581 6.716219 1475 
3091.278320 2190.616699 6.154041 1487 
3248.377686 2013.009155 7.463751 1489 
3423.506592 2411.657959 9.187454 1509 
2943.394287 2401.707275 13.038379 1526 
3050.716064 2283.829346 7.139497 1527 
3239.455322 2033.811523 7.469835 1528 
3545.541748 1609.710815 6.385771 1529 
3558.468018 1757.565308 5.745072 1530 
3723.659912 2036.466797 14.347694 1531 
3443.145996 2080.726318 12.447674 1532 
3305.278809 2021.383911 13.611771 1533 
2553.125000 1656.699585 5.858897 1534 
3421.990967 2254.617188 13.664804 1535 
3722.636475 2155.081299 5.852579 1536 
3514.535400 2033.821411 6.021639 1537 
3385.706055 2286.383057 7.731940 1538 
3037.340576 2213.989746 6.476418 1539 
3708.416748 2124.530029 7.868227 1540 
3822.232666 1419.648315 3.773838 1541 
3287.249756 2272.988037 6.084074 1542 
3658.360596 2154.618896 6.638207 1543 
3439.671143 2197.647461 7.992790 1544 
3716.159180 2003.209351 4.930457 1545 
3214.671143 2424.065430 6.515904 1546 
3767.685059 2012.920898 6.501013 1547 
3090.623535 2332.546631 7.098275 1548 
3541.463135 2269.694336 6.235534 1549 
3483.970215 2285.823242 10.392666 1550 
3612.513428 1924.145020 9.774554 1551 
3358.179932 2327.014404 6.011242 1552 
3281.534424 2234.071045 6.928135 1553 
3282.088379 2375.575439 12.207010 1554 
3467.617676 2240.016846 6.582455 1555 
3660.443848 2102.190674 8.493484 1556 
3203.919189 2045.426880 6.474566 1557 
3680.910400 2215.594238 10.462624 1558 
3018.285645 2354.589111 8.763250 1559 
3764.603271 2031.436401 6.726627 1560 
3603.927490 2056.296387 5.765767 1561 
3534.532715 2017.434326 6.302113 1562 
3584.770508 1833.652588 7.225162 1563 
2770.626953 766.876160 6.069924 1564 
3623.588623 1873.365723 11.894414 1565 
1483.717407 180.466339 8.599109 1566 
3282.397461 2050.022705 6.238369 1567 
3658.213867 2270.813232 10.226285 1568 
3648.689697 2175.402588 9.297805 1569 
3371.986084 2422.491211 7.572482 1570 
3284.762939 2436.815918 7.350679 1571 
3337.593750 2291.564209 7.568212 1572 
3321.235107 2239.110352 5.875818 1573 
3276.611084 2251.903076 7.217525 1574 
3490.623535 2111.379150 6.341489 1575 
3309.581543 2271.737793 8.184984 1576 
3226.602295 2399.346680 11.707061 1577 
3540.172363 2360.372314 8.580032 1578 
3401.977539 2277.487305 6.694391 1579 
3067.657715 2264.062988 6.962480 1580 
3514.789795 2052.291992 6.452767 1581 
2981.781982 2289.179443 7.253809 1582 
3534.097412 2211.741211 7.777191 1583 
3273.968018 2020.469727 6.275789 1584 
3494.472168 2036.284790 9.917006 1585 
3527.452148 2401.959473 9.287832 1586 
3338.934814 2336.428467 8.102160 1587 
3648.985840 2223.212158 5.993586 1588 
3672.801025 2117.151855 5.317574 1589 
3097.029541 2288.274902 9.252608 1590 
3845.079102 2020.025024 4.313793 1592 
3760.487305 1991.881714 6.263128 1593 
2910.962402 2473.979004 6.056644 1603 
3535.704590 2235.835693 7.566115 1605 
3225.391113 2167.636963 6.347994 1606 
3520.901611 2196.369141 7.342466 1617 
3322.238037 2286.103760 17.353600 1629 
111.046799 646.869446 3.600465 1630 
3536.904541 2294.743896 7.580103 1631 
3455.345703 2297.873779 11.071025 1641 
3482.516602 2256.296143 8.726937 1643 
3571.771973 2315.700439 9.071123 1645 
2915.853516 2448.930664 10.902194 1647 
3605.585205 2159.688232 9.034901 1648 
3094.184570 2485.382324 6.834620 1654 
3559.583740 1679.746460 11.387442 1656 
3414.367432 997.271484 21.434610 1696 
533.795166 537.939392 4.888847 1763 
576.222534 681.550781 15.700958 1804 
1246.610718 1107.153198 23.108011 1806 
1705.977661 2229.355225 33.509487 1814 
2956.260986 1211.642944 8.091112 1851 
439.028778 978.741943 6.655483 1868 
288.845367 672.331787 3.802521 1875 
328.166229 656.884033 4.726421 1876 
1769.898315 52.790565 4.428160 1877 
1843.872925 219.640640 4.224796 1878 
1332.898804 741.185852 4.948790 1879 
292.540833 656.232483 7.169058 1880 
929.967285 1569.072998 16.992380 1881 
3212.869629 52.254410 4.000916 1882 
1455.292480 2466.922119 7.524841 1883 
395.166168 637.672180 4.913195 1884 
503.781952 594.331665 4.654794 1885 
267.173065 690.205994 4.689368 1886 
1199.384766 1455.556763 6.444242 1887 
3018.323975 2443.540771 6.782211 1997 
3043.227051 2359.726562 7.405112 1998 
3678.103760 1711.451294 7.243705 1999 
2885.026611 2512.882568 6.564044 2000 
3258.142334 2152.778076 5.520785 2001 
3345.764160 2028.618408 5.548569 2002 
2949.957275 2513.659424 7.732040 2003 
3047.077148 2424.390381 5.311261 2004 
3076.141357 2352.971191 5.046032 2005 
3224.121582 2290.565674 4.775964 2006 
325.088928 624.875793 7.061729 2007 
2907.202148 2396.061279 6.131179 2008 
689.380127 466.501770 4.227876 2009 
3817.745605 1647.863892 5.928170 2010 
2987.427734 2272.519043 6.833562 2011 
439.035614 562.597778 4.063879 2012 
2923.449951 2294.157959 10.845206 2013 
3450.226562 2446.461182 14.389820 2014 
3268.024414 2503.755127 8.730102 2015 
3824.792480 1409.119751 4.703713 2016 
3131.094482 2482.737793 5.778831 2017 
650.615356 536.326782 3.797133 2018 
2898.559570 2413.683350 5.904498 2019 
3450.586426 2111.117920 6.833019 2020 
2915.295654 2350.249512 5.761811 2021 
3105.383057 2438.781738 6.698512 2022 
3653.933594 1434.165771 4.808414 2023 
2954.557861 2447.959717 8.106897 2024 
1739.985474 1353.924683 17.542938 2025 
544.287903 1288.599609 16.683350 2026 
593.838501 779.407166 45.024452 2027 
737.914917 564.695007 32.009705 2028 
3148.981934 2400.064697 6.550308 2029 
3199.059082 2060.283936 5.058419 2030 
1904.748413 2199.155762 12.431865 2031 
436.679199 591.679199 11.151240 2032 
1400.089233 972.618896 7.919854 2033 
3763.216309 1749.072754 7.880857 2034 
3028.051514 2422.064697 7.343346 2185 
2966.269287 2389.906250 5.757306 2235 
2910.111328 1360.966919 51.440666 2384 
3048.679688 2315.899658 20.438807 2463 
2235.333740 430.185425 13.419466 2464 
3259.472412 2443.431885 13.523274 2465 
1377.542603 96.893333 7.215483 2466 
567.887207 165.460571 7.696898 2467 
3374.090088 2204.956543 8.123112 2469 
1556.826172 179.140686 13.573404 2470 
524.958801 180.406479 8.771582 2471 
3459.217773 359.833130 8.062443 2472 
391.120148 487.601746 7.649861 2473 
3590.212402 2043.722534 7.788328 2474 
3313.833252 2325.207275 8.262516 2475 
688.575867 89.519501 7.126924 2476 
913.821167 202.239319 7.533304 2477 
2623.345947 982.249268 7.118226 2478 
3289.432129 2083.260254 7.290524 2479 
1760.050903 185.283386 10.584435 2480 
504.759247 223.516434 10.252360 2481 
3443.469238 2033.628662 8.515745 2482 
1906.460205 254.282837 11.360704 2483 
961.778625 196.088043 7.682566 2484 
2059.027344 197.244522 10.882608 2485 
3459.236572 388.847839 7.296642 2486 
3171.256592 2194.891113 5.752627 2487 
1281.669678 87.711418 6.699111 2488 
610.425903 210.516724 5.669122 2489 
3207.047363 2123.685303 6.370347 2490 
3437.097900 2221.636475 5.967331 2491 
3557.153076 2299.156738 5.708398 2492 
1420.304199 57.844070 5.666837 2493 
1927.437256 89.296028 5.359339 2494 
1090.328613 118.455482 4.021481 2495 
466.138062 276.954742 4.505304 2496 
3061.468018 2329.760498 5.042072 2497 
879.721008 102.451942 6.349382 2498 
856.031311 223.948868 6.257953 2499 
3318.633301 100.484322 4.504197 2500 
3399.331543 131.732681 4.537204 2501 
531.890747 170.286255 4.075241 2502 
832.308716 272.528778 4.343273 2503 
934.738037 272.197388 5.524996 2504 
556.060303 368.734497 5.241164 2505 
2383.722900 485.908661 4.718408 2506 
2978.636963 485.145935 4.866984 2507 
2291.698486 395.880463 6.494189 2508 
3390.535889 1833.407471 5.717937 2509 
3251.539551 2492.220947 6.291320 2510 
798.364868 68.915222 3.722605 2511 
468.872772 163.275238 5.635937 2512 
630.895264 162.503754 4.017656 2513 
875.050964 256.003540 4.714532 2514 
622.354187 321.287415 4.995004 2515 
769.653687 353.058624 5.332253 2516 
575.266418 383.484039 4.899476 2517 
865.590332 416.538635 4.763311 2518 
2831.532471 417.848419 5.746096 2519 
714.138733 315.026245 6.696579 2520 
3461.929199 1783.933472 5.742581 2521 
3405.993408 1849.321533 5.823080 2522 
3386.782227 2376.469482 6.812644 2523 
3011.828369 2411.266602 7.055584 2524 
529.439636 143.441895 4.612640 2525 
698.810974 139.967331 5.121818 2526 
806.262390 141.779068 4.609173 2527 
903.866150 173.735977 4.159591 2528 
882.214294 206.868378 4.211502 2529 
2440.093750 237.121750 4.827203 2530 
415.402222 333.221558 5.592883 2531 
750.711548 334.443970 4.252604 2532 
2654.150879 332.948059 5.512631 2533 
2790.005127 396.327179 5.131504 2534 
3409.144531 397.577057 5.310413 2535 
538.875916 428.301025 5.107891 2536 
435.487000 487.617126 5.646019 2537 
3296.351562 2107.861084 4.822162 2538 
620.224792 285.593170 6.919036 2539 
3176.315918 2047.718262 6.128879 2540 
270.517914 2141.048096 7.092729 2541 
810.135742 49.223652 3.923700 2542 
865.920593 49.353348 4.001221 2543 
1552.466919 50.417587 5.589542 2544 
417.026581 185.303665 4.301235 2545 
3543.084473 1982.036621 6.084627 2546 
3629.010010 2267.157959 6.353081 2547 
2755.669678 382.787201 5.011477 2548 
362.845062 477.477936 5.383451 2549 
2934.260498 2374.666260 5.218471 2550 
778.252197 264.368347 6.858775 2551 
774.147583 295.588501 6.106384 2552 
3530.475830 742.088806 6.202619 2553 
233.578308 1989.287231 6.689504 2554 
3186.625732 2348.388428 6.134074 2555 
3187.157227 2411.679688 6.693319 2556 
1401.393433 112.478569 3.791649 2557 
723.545837 177.832901 4.744562 2558 
558.206116 324.763428 5.453646 2559 
2330.193115 643.807129 9.699322 2560 
97.329018 2454.399902 9.636047 2561 
3528.429932 2163.686768 13.046976 2562 
1281.546997 84.146660 8.484454 2563 
1834.104370 148.157623 9.232301 2564 
3332.641846 2000.814209 8.912064 2565 
3613.243408 2077.587402 8.557377 2566 
3495.333984 2130.682861 7.611881 2567 
1743.130859 329.984314 12.740420 2568 
3558.405762 2280.959473 11.432775 2569 
661.951233 2304.600098 21.270569 2570 
2194.555908 523.370972 23.096378 2571 
2485.544189 330.589294 15.302981 2572 
2407.857178 442.763672 14.611776 2573 
3403.072998 1733.101807 15.838460 2574 
3439.184570 872.920776 16.646620 2575 
2908.895020 986.231750 18.228025 2576 
1304.963745 1256.021973 18.740049 2577 
3048.805908 2155.544922 15.301091 2578 
3379.068848 2394.058350 18.659512 2579 
972.066772 961.020325 18.250681 2580 
647.239319 1098.046509 14.552435 2581 
2870.531250 2359.021973 14.492327 2582 
3054.784912 2188.527100 40.902279 2583 
2371.830566 1248.142090 30.272608 2584 
592.999084 313.662933 4.681594 2585 
882.919373 311.941284 5.366481 2586 
759.822266 239.289749 6.189476 2587 
3407.570312 2328.771484 6.067427 2588 
816.048828 278.977570 10.883205 2589 
528.746948 345.032623 10.047628 2590 
508.951996 407.367401 10.320077 2591 
3481.835449 412.684448 8.128868 2592 
3513.981689 2364.375977 11.058959 2593 
1762.306885 102.769737 11.270954 2594 
457.176361 372.910339 7.851658 2595 
483.083160 438.531097 9.371884 2596 
504.813293 150.921814 5.863076 2597 
3124.798096 2263.149902 6.220110 2598 
2980.876465 2307.513672 6.063978 2599 
893.141174 228.494827 5.643361 2600 
3362.859375 1942.763184 5.375122 2601 
574.189026 314.880554 7.837469 2602 
2767.492188 873.789612 9.000144 2603 
3611.785400 1624.900391 7.292722 2604 
3193.269287 2203.258789 7.691162 2605 
3004.215088 2252.492920 7.766218 2606 
3500.156738 2318.154297 9.326695 2607 
3131.290527 2446.155029 7.624105 2608 
1865.064697 254.375534 12.796790 2609 
2716.054688 928.706848 7.672719 2610 
3409.929688 1829.802490 7.309242 2611 
3042.289795 2325.412354 8.485906 2612 
86.785583 2385.135986 8.887120 2613 
2889.329590 2383.276855 9.626062 2614 
1165.157349 271.900879 9.758292 2615 
2377.365967 793.378845 8.102650 2616 
3334.572021 1974.645874 7.720476 2617 
3027.475586 2290.143066 7.346776 2618 
2954.360352 2419.802979 7.062925 2619 
1443.870239 193.133713 7.194801 2620 
3367.496094 2288.802979 5.393581 2621 
564.692261 403.837006 6.540324 2622 
3240.478271 2296.292480 6.208547 2623 
809.407227 59.179249 4.159256 2624 
2340.036377 179.594833 5.512208 2625 
777.834839 243.891815 4.430629 2626 
233.835114 2104.387207 5.573610 2627 
474.929962 383.823547 6.698877 2628 
3201.706055 99.688362 4.027363 2629 
889.235107 240.608521 3.894902 2630 
3316.259766 2048.217041 5.134301 2631 
1285.659790 104.502670 6.103005 2632 
2453.587402 230.054047 5.922254 2633 
880.981445 294.198181 6.045663 2634 
3514.361328 366.512238 7.082389 2635 
3459.255371 1767.631226 6.516248 2636 
113.057945 1895.923340 6.210464 2637 
3439.267090 2146.601318 6.001770 2638 
3313.455322 2303.746826 5.691626 2639 
766.447205 255.890106 3.707729 2640 
427.953430 320.690308 4.662304 2641 
382.964569 416.480286 4.652317 2642 
2289.957031 156.360123 6.213675 2643 
3531.775146 1785.743530 6.338521 2644 
3055.581787 2183.305908 6.466980 2645 
433.376892 236.542343 5.284441 2646 
721.310852 299.926727 4.079936 2647 
627.841675 331.365753 4.223206 2648 
3262.649414 2235.393555 5.642724 2649 
2083.781738 64.430992 6.006297 2650 
2231.925049 130.599792 6.033699 2651 
2505.165771 254.993134 6.434024 2652 
3059.667480 508.902802 6.670819 2653 
120.354507 1822.907959 5.665249 2654 
3588.145020 1987.259277 5.775953 2655 
3134.115967 2139.952637 6.045580 2656 
3298.013672 2206.215088 5.860370 2657 
3201.097168 2337.978760 6.292449 2658 
881.481873 185.468597 3.781754 2659 
904.152039 216.305634 4.762277 2660 
3561.273438 1917.946167 6.461797 2661 
3074.937012 2322.173096 5.978833 2662 
1388.005493 83.791161 4.829158 2663 
2437.920654 223.597656 5.608769 2664 
1851.571655 255.588135 4.820476 2665 
96.496307 1735.442749 4.495796 2666 
2113.788574 76.463646 6.108960 2667 
3454.142578 2056.855225 5.897614 2668 
3186.705811 2121.789551 6.406579 2669 
434.939514 2245.309570 6.669796 2670 
3371.583984 2318.971436 6.227326 2671 
1253.793823 115.252251 5.609189 2672 
756.744934 147.101746 4.803421 2673 
470.732147 202.067810 4.526974 2674 
832.729858 261.384277 4.129367 2675 
3372.742188 1831.504761 7.397869 2676 
983.055298 207.346558 12.839105 2677 
2025.248535 232.507004 20.821817 2678 
2004.299438 324.609528 24.313852 2679 
846.878662 258.581146 13.816850 2680 
1783.026123 291.077393 22.011074 2681 
2556.672607 297.128784 16.093351 2682 
3253.123047 975.743835 19.119671 2683 
3408.354492 2190.876221 24.273443 2684 
3566.619385 2233.414062 16.073729 2685 
2338.631104 447.572266 45.628490 2686 
1947.543335 517.281799 47.837589 2687 
1787.356079 421.650024 46.894028 2688 
2961.973877 774.232361 60.636677 2689 
3472.385498 345.762726 4.477869 2690 
3121.908447 2162.677490 6.201871 2691 
3138.778809 2224.351562 6.232546 2692 
2944.555176 2360.969238 6.182608 2693 
3425.910156 2359.786377 6.376099 2694 
536.363037 411.582336 8.374370 2695 
3384.394287 2168.293945 8.622725 2696 
3000.570312 2430.711914 7.619318 2697 
556.585449 2492.933350 10.337619 2698 
3440.400391 374.023865 7.401980 2699 
420.256958 433.302338 8.459692 2700 
3468.069336 432.234863 8.642290 2701 
3165.599854 2174.909912 7.935322 2702 
586.068115 389.886719 4.052940 2703 
386.660278 515.774597 3.813723 2704 
3290.813232 1934.248535 4.885943 2705 
3336.289062 1936.398438 6.126167 2706 
1251.720337 65.939186 4.511946 2707 
3249.836670 66.215126 3.857208 2708 
505.230896 137.965576 4.183603 2709 
521.797852 164.386612 3.831913 2710 
373.101746 501.812439 4.675068 2711 
1296.980103 161.216156 8.247272 2712 
3773.368896 2065.678223 5.482197 2713 
3738.344238 2062.684570 7.103880 2714 
3584.660156 1529.191162 4.891497 2715 
3819.574463 1950.890259 4.807235 2716 
3328.391113 2301.883301 5.029314 2717 
1286.292236 2348.165039 5.980753 2718 
1906.243286 1672.368408 7.201090 2719 
3497.124512 1688.199219 6.364098 2720 
3509.627930 1665.023315 7.585832 2721 
1255.549438 1755.695435 3.967190 2722 
3786.746826 2013.167603 6.407352 2723 
3475.161377 1678.682373 9.212491 2724 
3657.196289 1903.171509 5.176664 2725 
3606.022217 1491.597290 4.179521 2726 
145.509506 2375.519531 10.436588 2727 
3488.595947 721.406616 5.997599 2728 
2381.856689 212.942978 3.799911 2729 
2595.450195 306.686584 4.606366 2730 
2296.593018 172.129562 4.676714 2732 
3231.230713 604.930847 5.945389 2733 
2614.276611 318.614166 4.249362 2734 
78.287117 2339.768799 5.452228 2735 
3015.758545 589.301025 8.995869 2736 
3793.527100 1300.085083 5.119625 2737 
324.267609 2228.297363 5.314001 2738 
145.673920 2436.944092 8.181010 2739 
3791.211914 483.307312 9.365031 2740 
161.610901 2481.289062 10.096083 2741 
2371.678467 192.237793 6.392079 2742 
111.591484 1795.029419 7.506737 2743 
194.393509 2028.206787 4.893663 2744 
2026.788452 2252.683350 5.129311 2745 
2872.858887 1774.646362 6.578553 2746 
2458.666504 245.598160 4.024629 2747 
2737.670654 372.113403 4.579245 2748 
3343.022705 655.710205 4.697694 2749 
3107.702637 546.815674 4.707019 2750 
3127.438965 556.595215 4.941378 2751 
343.735199 2170.242676 6.592691 2752 
1400.632080 1729.926758 14.753785 2753 
2898.908203 440.649872 4.509975 2754 
2956.574707 474.084198 5.347067 2755 
3080.205078 536.248474 4.676740 2756 
1510.787231 2390.200928 7.771739 2757 
1811.963867 653.132996 12.069490 2758 
2147.266113 1006.239014 6.385974 2759 
3071.113037 545.347900 4.948601 2760 
72.028038 2354.935303 6.768275 2761 
2369.018066 218.378387 18.199860 2762 
1984.869385 2374.622803 15.184368 2763 
1675.592285 2281.961426 15.048916 2764 
2247.811279 2363.281494 7.075946 2765 
2875.270508 420.797546 4.489297 2766 
2238.041260 1116.180054 8.816104 2767 
1828.543945 1048.531128 4.006959 2768 
3816.416016 843.851135 5.839848 2769 
303.089325 332.836517 3.771044 2770 
2173.812744 786.147034 23.997290 2771 
2864.942871 813.800354 10.127288 2772 
1498.382568 2487.140625 7.188292 2773 
3790.644531 850.442200 9.784550 2774 
1247.206543 276.587830 5.929843 2775 
1654.177246 221.509659 6.563191 2776 
2899.069336 1594.615112 23.636065 2777 
2595.880127 2019.126343 9.787844 2778 
2779.669678 840.131531 14.661283 2779 
619.891052 343.968048 3.602618 2780 
2159.820068 2360.184082 7.896774 2781 
2520.170410 1043.040405 4.173905 2782 
3548.004639 706.212341 3.900589 2783 
2319.058105 1794.100098 5.063478 2784 
2100.385010 2326.474121 4.197494 2785 
2340.793945 809.472473 6.770215 2786 
2553.875000 1047.553467 8.436422 2787 
3094.511230 2127.027100 6.499516 2788 
1274.028442 2109.237305 6.842462 2789 
337.048584 606.872559 4.696452 2790 
3040.833008 772.785583 12.005322 2791 
1019.788879 1314.669922 20.992743 2792 
1389.689697 2432.892090 8.353949 2793 
1628.388428 1162.146362 7.601169 2794 
1159.835083 420.938873 8.447048 2795 
1486.921509 879.366211 6.379924 2796 
2275.784424 1845.215210 12.319827 2797 
1224.309814 1411.004761 22.562967 2798 
1133.006104 1320.042236 16.196945 2799 
1285.524780 1246.014893 16.536026 2800 
902.747253 281.154877 15.315292 2801 
3499.342285 684.870300 3.790120 2802 
1219.381836 1027.313843 12.331048 2803 
1937.251099 1050.139160 6.797743 2804 
2395.105713 65.281738 4.088802 2805 
3408.965332 502.232819 3.777131 2806 
2645.118408 1262.382568 10.964089 2807 
491.841095 2207.331787 8.975316 2808 
1515.893555 514.174316 11.335646 2809 
1107.543091 1485.831299 13.148774 2810 
208.881836 606.796631 18.937929 2811 
1961.498047 529.197388 17.809429 2812 
1179.152710 1171.574341 5.612698 2813 
222.323959 1981.167358 4.504133 2814 
349.637451 551.940186 5.840018 2815 
409.705017 631.982117 4.560299 2816 
1223.273071 598.943665 4.865752 2817 
321.839111 2513.372803 5.419959 2818 
1453.060181 1133.088745 5.457293 2819 
3349.021973 2363.909912 5.684491 2820 
1838.143311 2310.079834 3.561608 2821 
3111.104736 970.632935 8.662401 2822 
938.120483 804.830017 60.488449 2823 
2537.633789 335.902283 5.472227 2824 
3187.125244 2036.588867 4.723975 2825 
