ply
format ascii 1.0
element vertex 997
property float x
property float y
property float size
property short id
end_header
1891.950928 190.100998 12.521022 21 
1936.766357 257.410675 15.815454 31 
964.659546 1633.888306 7.658755 48 
1823.573853 266.684052 20.442408 69 
1850.124390 175.912994 18.655207 70 
1733.058472 465.006378 7.505049 87 
360.664612 1431.241699 4.561190 95 
1691.016113 1458.962158 4.029261 101 
1883.928833 255.620331 6.381231 120 
1899.594482 236.320099 16.121939 121 
1180.712280 2274.005859 5.672875 136 
2300.921143 2444.999023 4.932784 142 
1809.903931 1559.343872 5.376835 143 
1629.862305 419.971649 6.905742 144 
1848.270874 221.566635 11.877791 145 
1629.052979 734.573547 7.805285 146 
1293.635498 2368.044678 4.849405 147 
1336.531494 2308.296143 4.060505 148 
1910.709229 165.802994 10.399515 149 
828.465576 1097.039062 4.929681 150 
854.859375 413.769165 6.451347 268 
945.678833 2069.623291 6.186203 273 
1231.351196 75.299835 6.079493 345 
2866.631836 1247.793701 9.941384 474 
2251.907959 1016.166992 5.878297 485 
2158.677979 1732.446167 10.067472 506 
1774.068726 656.663025 3.844922 513 
2306.472900 1934.762817 6.188477 514 
2319.425049 1599.065796 10.499291 515 
2600.900879 1216.404419 3.934506 516 
2444.864990 1967.540283 7.698378 517 
1208.427124 2097.878906 7.803917 518 
1923.813354 137.925415 13.107739 519 
1980.267456 1771.886475 4.203558 520 
1162.360840 830.278687 5.805261 521 
1487.747925 670.465271 42.944672 522 
184.164215 1084.348022 7.689098 523 
2673.825439 1897.545410 5.841399 556 
3810.530762 2470.219727 4.568036 653 
1596.448120 2547.596436 4.487224 783 
1361.117676 885.796692 12.112197 796 
2016.904419 2326.532959 12.789832 798 
1294.095215 2462.197266 3.840403 799 
1289.221924 2313.424561 5.491088 806 
1327.326294 2476.208984 5.833082 807 
1407.544800 2454.995117 3.797333 829 
1323.593140 2376.906494 4.618546 857 
1263.135376 2299.736328 6.073183 863 
1345.448608 2535.414062 4.822059 869 
1237.455444 2463.893799 5.188281 887 
1292.951660 2450.467041 4.269034 943 
1899.426025 2215.568848 14.227673 955 
1391.244385 2385.164307 4.910727 968 
1130.274780 2209.907227 4.465700 974 
2751.241211 1139.275024 5.898500 993 
1298.584351 2531.343018 5.237249 1016 
1281.058716 2283.373291 7.228954 1019 
1305.697998 2494.772461 8.652858 1025 
1250.944458 2270.437012 4.475528 1027 
1442.211182 2444.279053 4.413401 1041 
1333.396484 2461.913574 5.896328 1066 
1411.125000 2538.460205 5.851656 1069 
1227.457275 2236.410400 4.501700 1080 
1902.328979 2468.146729 7.352775 1083 
1265.041138 2286.988037 3.711532 1084 
547.948120 1579.322266 5.283430 1085 
388.855896 1443.009521 6.479900 1086 
925.067932 835.644592 7.113572 1087 
1786.777588 814.570496 17.019432 1088 
1265.127686 1095.363892 12.326217 1089 
2595.986084 1268.922607 10.951401 1090 
2569.286621 1260.125244 11.690283 1091 
1320.753906 2498.903076 4.032454 1092 
1163.712280 2241.416504 6.730384 1221 
941.198059 2009.539062 5.879869 1238 
1077.011230 2135.759521 6.595294 1260 
1202.881958 2262.388672 5.049337 1275 
1104.639893 2135.051758 6.023609 1294 
1179.308350 2253.304443 7.488834 1307 
989.198242 2227.585205 6.849687 1311 
1150.272827 2211.854248 5.617862 1313 
1085.468994 2187.942871 4.964668 1325 
1137.187256 2185.748535 5.526830 1357 
1245.231689 1775.195435 56.472912 1381 
964.030884 2205.744141 4.812674 1421 
1133.989990 2223.102783 6.062435 1422 
1216.036987 2264.939697 4.745151 1424 
928.547424 2199.898926 7.778981 1460 
1204.481934 2248.033447 4.129377 1462 
1091.950562 2124.636719 4.410553 1472 
1113.119019 2146.406982 4.750601 1487 
1244.784912 2253.623535 5.062859 1489 
984.208191 2378.713135 6.716437 1509 
1050.000000 2119.575928 4.971706 1527 
1228.553223 2249.392822 5.034185 1528 
1207.906982 2404.164551 8.865595 1532 
1239.554443 2294.747314 8.959295 1533 
1088.025024 2381.995361 9.649012 1535 
1127.356323 2393.691650 5.597936 1544 
963.143616 2238.282715 4.601065 1546 
1084.283203 2463.517090 4.893091 1549 
1070.062866 2424.728027 6.889812 1550 
1326.769775 2524.844971 6.710941 1551 
1094.334961 2285.588379 4.760155 1553 
998.841003 2282.392578 7.421097 1554 
1101.260742 2414.109863 4.901995 1555 
1001.479431 2095.554932 5.259874 1559 
1236.324829 2514.768555 4.138068 1561 
973.304871 2341.794434 5.872912 1570 
961.539185 2285.381836 4.987534 1571 
1093.562256 2312.892334 4.857431 1573 
1082.908081 2281.389893 4.747572 1574 
1190.277832 2433.126953 5.358965 1575 
1069.182251 2305.921387 6.465714 1576 
980.507080 2245.640625 7.972746 1577 
1022.370361 2461.781494 5.915174 1578 
1071.709351 2367.864258 4.647473 1579 
1063.773438 2129.094727 4.792106 1580 
1042.092163 2072.377441 4.538748 1582 
1238.958374 2273.531738 4.413115 1584 
1243.521606 2435.691895 7.159612 1585 
996.892639 2449.633789 5.697093 1586 
1030.453613 2323.462646 5.365311 1587 
1123.463745 2536.708740 4.091462 1588 
1048.389526 2149.662842 5.844136 1590 
1079.061035 2107.766846 5.057799 1591 
967.204956 2045.108154 9.091161 1594 
915.877747 1817.604736 15.410316 1595 
1176.117432 2161.769531 19.586012 1596 
2250.751953 249.500839 5.507377 1597 
1021.318787 2083.464111 10.471322 1598 
1074.051270 2438.121582 9.716000 1599 
2270.040527 365.204285 9.154313 1600 
1079.718262 2339.210693 13.272879 1601 
1044.997437 2050.112305 13.627684 1602 
920.562439 2025.053223 4.638528 1603 
1035.935547 2469.750732 5.767004 1604 
1106.892090 2460.305420 5.258057 1605 
1137.988647 2237.426514 5.186902 1606 
959.860107 2347.554199 5.066363 1607 
970.614624 2321.867188 6.060414 1608 
1053.529907 2448.779785 5.116835 1609 
1135.316650 2483.293213 6.883132 1610 
1162.672852 2468.650146 4.855944 1611 
1403.419678 2430.384033 4.961905 1612 
1057.723999 2536.713379 4.639365 1613 
1021.808655 2263.985107 4.535008 1614 
878.441711 1961.079224 5.328811 1615 
997.481689 2388.934570 4.629269 1616 
1133.869019 2451.889893 4.404387 1617 
948.982727 2197.107666 8.105657 1618 
1131.086548 2420.664307 6.667286 1619 
1062.835938 2495.024658 4.029702 1620 
1002.964966 2466.524902 6.651731 1621 
732.533142 1589.587891 4.696641 1622 
1161.911133 2491.760010 6.844527 1623 
997.445801 2428.388428 5.602949 1624 
1048.478149 2493.835449 5.187966 1625 
669.874390 1856.783936 7.444318 1626 
2153.333740 1201.699707 10.823829 1627 
1031.375854 2356.545898 9.296314 1628 
1061.836670 2311.715088 10.902821 1629 
270.745087 1424.044312 5.771375 1630 
1069.503174 2458.862793 5.400549 1631 
559.264648 1773.427490 9.268130 1632 
1008.793457 2511.058350 4.279409 1633 
1107.497925 2511.398926 5.106147 1634 
1187.584961 2404.446289 5.611392 1635 
1490.815552 2413.000000 4.157657 1636 
935.927246 2355.618652 5.267867 1637 
1020.742859 2054.390381 6.798494 1638 
1152.203369 2478.736328 5.337579 1639 
1152.183350 2332.982666 5.304647 1640 
1061.612549 2401.762939 8.870020 1641 
1006.291687 2398.564453 5.440740 1642 
1088.830444 2424.761963 6.185984 1643 
1217.906860 2383.116943 5.065118 1644 
1056.041870 2480.858887 5.862625 1645 
1198.979370 2481.956055 5.137399 1646 
937.015686 2029.353760 8.134658 1647 
1163.291504 2510.738037 6.680190 1648 
978.127502 2275.111328 5.247291 1649 
955.260254 1982.775269 4.785465 1650 
1623.218140 2516.630615 3.553631 1651 
453.164032 1456.147949 13.062232 1652 
1010.701538 2479.602295 5.046830 1653 
919.306641 2155.210205 5.180836 1654 
1042.443848 2455.224365 4.588383 1655 
2025.073364 2406.808838 17.126575 1696 
1986.432739 928.841919 7.046964 1729 
1389.343872 1564.843994 52.277569 1760 
2157.248779 662.757019 8.418305 1773 
955.433350 1310.874268 20.205009 1777 
1935.736450 157.475327 12.405712 1802 
1053.620361 1317.818237 20.777416 1818 
1990.730469 720.056641 10.180995 1837 
1970.058594 307.219971 25.200926 1841 
1840.227417 198.393890 5.854201 1868 
1107.914307 1236.460693 8.006914 1888 
2525.758301 2273.768311 6.319132 1889 
1808.275635 2137.521973 4.614549 1890 
1775.985840 242.167984 6.363307 1891 
2905.076660 2087.737305 10.140467 1892 
1815.902710 845.192078 10.750887 1893 
2668.526367 1879.929688 3.952917 1894 
1236.046021 257.666016 17.633841 1908 
598.630371 688.432068 9.186054 1973 
943.681519 2096.242432 4.609068 1997 
999.634644 2114.010254 5.068892 1998 
1238.086792 2321.781982 3.888351 2002 
966.871948 2022.377686 4.273303 2008 
1054.031494 2071.690674 4.230236 2011 
963.225769 2396.009033 9.663644 2014 
998.783264 2028.129639 4.026277 2021 
938.175964 2054.041748 5.581156 2024 
1633.940674 1184.997559 11.470248 2025 
268.538055 2135.578613 3.440637 2035 
427.500641 1845.315674 5.751572 2036 
675.477905 1842.724243 4.475140 2037 
584.181885 2013.721802 3.853071 2038 
416.096436 2422.026611 4.057415 2039 
623.872925 2066.724121 4.034710 2040 
363.712738 2257.442627 6.354784 2041 
541.798035 1944.512329 6.741241 2042 
688.753174 1896.005249 5.009752 2043 
507.561310 2290.299561 6.171740 2044 
533.340271 2447.786865 4.485582 2045 
118.623421 2388.958008 3.764412 2046 
285.234283 2354.175781 4.281545 2047 
466.711823 2158.315918 4.484875 2048 
692.502441 1861.678589 5.152311 2049 
714.156677 1884.705078 4.721782 2050 
536.151611 2216.564209 5.126437 2051 
796.532349 1964.015381 5.148905 2052 
398.591797 2061.200928 5.233126 2053 
691.485718 1775.804077 4.950309 2054 
312.191437 2453.677979 4.194424 2055 
430.684387 2367.973633 3.764005 2056 
654.899170 2025.178223 4.683232 2057 
611.958740 2271.071777 4.803157 2058 
887.052673 1943.686157 4.321709 2059 
541.969299 1756.884399 5.948396 2060 
171.879379 2368.880859 5.320453 2061 
630.391113 1731.421875 6.188199 2062 
510.370728 2387.171631 6.727034 2063 
571.656433 2288.623535 5.243004 2064 
521.790771 2502.624023 5.785697 2065 
754.356995 2199.093506 5.198286 2066 
686.623596 2371.106689 6.131064 2067 
878.963013 2152.769043 6.473176 2068 
2374.614502 925.409607 6.802878 2069 
532.519653 2091.237305 4.259946 2070 
364.381775 2491.602539 4.700566 2071 
564.652222 2139.596191 4.069994 2072 
906.516785 1963.364746 4.971365 2073 
493.570709 2153.987549 5.611042 2074 
542.614746 2287.110352 5.119269 2075 
629.936035 2139.832520 5.102801 2076 
599.057800 2290.477539 5.505102 2077 
639.095703 1886.333862 3.518228 2078 
406.067017 2318.149658 4.059296 2079 
689.930176 2260.508301 4.540270 2080 
164.759079 2277.334229 6.108165 2081 
293.425598 2242.507812 6.212646 2082 
759.355042 2115.813721 4.977213 2083 
200.522598 2203.679443 4.785117 2084 
667.690674 1778.248169 5.113877 2085 
583.855957 1925.801636 5.811441 2086 
623.095215 1971.170410 5.647200 2087 
293.946350 2290.314941 6.724926 2088 
658.553650 1869.651367 6.231104 2089 
379.370483 2320.046387 6.527352 2090 
604.140076 2245.133301 6.269757 2091 
539.889343 2404.039795 5.648915 2092 
733.488342 2118.818115 5.109228 2093 
627.860046 2344.378662 5.534219 2094 
600.157227 2534.382568 4.646520 2095 
373.915100 1904.083374 5.315262 2096 
374.624084 2164.434570 4.562482 2097 
498.463226 1936.880859 4.621397 2098 
553.300171 2191.799805 3.801903 2099 
629.882202 2172.715820 3.814419 2100 
884.104797 2267.792236 3.931937 2101 
2472.543457 54.896351 4.550936 2102 
393.639618 2157.023926 5.188011 2103 
342.780457 2488.216553 5.106837 2104 
637.849243 2020.573364 6.229542 2105 
725.654846 2014.306641 4.599098 2106 
710.628296 2172.879395 4.912737 2107 
727.291626 2403.107666 5.178745 2108 
826.082764 2226.979004 4.444026 2109 
259.332855 2399.045898 6.895460 2110 
327.448334 1375.275635 10.397970 2111 
664.205872 2360.572510 7.299624 2112 
476.082367 1895.192871 12.197239 2113 
506.427307 1904.824951 8.266513 2114 
391.929688 2339.957520 7.627746 2115 
409.060394 2429.392090 7.809345 2116 
533.875366 1222.420776 13.143086 2117 
400.667450 2248.238525 7.701492 2118 
418.541351 2223.149658 7.755800 2119 
348.215240 2454.572266 7.655099 2120 
577.391846 2060.042480 6.765471 2121 
394.322632 2492.153320 6.668291 2122 
1505.504639 338.620758 12.394978 2123 
795.263428 1862.425415 27.708086 2124 
2318.505371 280.413208 16.938074 2125 
1287.595459 1747.843628 7.625778 2126 
438.140472 1868.002808 6.228152 2127 
277.169189 2231.694580 6.859464 2128 
453.051941 1974.922119 5.813383 2129 
456.382843 2138.014648 5.231303 2130 
356.730804 2435.311035 6.171608 2131 
704.360352 2467.075439 4.837707 2132 
917.945862 2072.035400 4.694348 2133 
668.238525 2522.584229 5.242972 2134 
349.326538 2333.477295 5.492915 2135 
433.114899 2405.034668 5.550551 2136 
643.275208 2273.502441 5.955330 2137 
753.891541 2085.200195 6.269608 2138 
693.404785 2401.211670 5.034402 2139 
345.037109 2304.334473 8.706639 2140 
574.674683 1902.321777 7.220276 2141 
737.066589 2368.762207 7.668145 2142 
801.042725 2264.216553 6.445443 2143 
314.372925 2154.365967 6.689580 2144 
387.886414 2010.567871 7.380539 2145 
410.298340 2094.734619 9.545566 2146 
430.133240 2060.871826 8.034703 2147 
475.877930 1978.587646 10.788513 2148 
477.060486 2109.761475 7.601949 2149 
532.290344 2000.633789 7.024453 2150 
376.317352 2089.936035 9.183581 2151 
313.855560 2435.427246 9.915650 2152 
479.223541 2367.785889 7.415450 2153 
779.734741 1943.725220 6.426574 2154 
731.318909 2049.135010 6.559638 2155 
1330.895264 2217.301514 7.014740 2156 
539.910400 2431.298340 6.062142 2157 
663.661133 2324.289307 6.297036 2158 
380.334259 1939.718750 8.276393 2159 
261.895630 2282.353760 8.794127 2160 
300.234894 2453.748291 4.901091 2161 
579.619995 1968.199707 4.727911 2162 
651.587463 2012.069458 4.796332 2163 
757.201660 2102.224609 3.698004 2164 
866.702515 2142.406250 5.446676 2165 
2404.927246 209.799088 3.682244 2166 
119.574936 2373.280518 6.974087 2167 
367.761597 1925.877686 6.012643 2168 
249.851349 2194.148682 6.144631 2169 
448.249573 1906.831177 5.705699 2170 
202.407288 2413.340088 6.135722 2171 
478.925354 2173.232422 6.332054 2172 
757.697571 2065.772949 5.697296 2173 
691.336060 2386.284912 5.983507 2174 
746.334473 2404.964355 6.714896 2175 
416.799255 1944.963867 5.022935 2176 
514.301086 2008.740112 4.201255 2177 
587.816711 1885.168945 3.953454 2178 
400.573761 2328.042236 4.032902 2179 
635.249329 2035.662720 5.381103 2180 
557.215637 2328.618164 4.969301 2181 
626.124756 2269.113525 5.467523 2182 
698.045532 2145.051270 4.455180 2183 
805.398071 2275.261963 3.865388 2184 
959.194031 2102.693848 4.477979 2185 
2383.573486 168.889099 3.844919 2186 
464.502716 1876.185425 4.965446 2187 
288.321350 2443.920654 4.358896 2188 
588.368225 1909.568848 5.082701 2189 
446.363922 2278.485352 4.438818 2190 
359.902527 2104.696289 5.902015 2191 
379.965881 2248.877686 5.702542 2192 
452.642059 2246.260742 4.978762 2193 
571.352356 2201.325684 5.458072 2194 
620.506531 2243.946045 5.340105 2195 
421.978302 1859.506958 5.041975 2196 
231.083939 2429.253418 4.263884 2197 
375.995178 2177.798340 5.349519 2198 
523.775574 1920.625000 4.278290 2199 
556.918945 1981.836792 4.610221 2200 
586.647766 2046.014160 5.879034 2201 
826.643799 1896.014648 4.455188 2202 
748.775635 2040.489990 4.879527 2203 
699.611389 2178.447266 3.930548 2204 
1590.868408 248.815460 3.818396 2205 
210.502335 2216.389404 7.143316 2206 
310.903168 2029.149536 5.778692 2207 
541.550049 2127.552246 5.905658 2208 
510.678345 2345.274902 4.714221 2209 
645.301636 2165.549072 4.835118 2210 
513.741760 2481.521729 5.410938 2211 
736.309204 2101.937012 6.627625 2212 
752.723816 2216.284668 5.885187 2213 
784.148926 2214.566406 6.053536 2214 
406.937866 1867.624146 4.694709 2215 
279.591522 2416.982422 4.652182 2216 
498.039795 2207.132568 5.623644 2217 
499.616638 2272.299072 5.260476 2218 
409.528748 1901.975708 6.443889 2219 
270.952057 2212.658936 6.149529 2220 
491.858490 1819.149536 5.967156 2221 
378.097412 2148.850830 6.544407 2222 
274.089966 2446.585449 5.282318 2223 
344.409607 2385.440430 5.923589 2224 
631.981689 1939.683838 6.763545 2225 
533.215576 2231.806641 5.389176 2226 
663.508911 2474.027100 5.961382 2227 
814.978394 2224.075928 4.386546 2228 
1474.549805 2498.487305 4.063358 2229 
465.730713 1911.865479 3.644465 2230 
622.112732 1744.625244 4.922496 2231 
571.659302 2228.515869 4.705653 2232 
792.210938 1947.060669 4.393008 2233 
555.622986 2430.649414 5.337362 2234 
976.388306 2060.537842 3.792794 2235 
1065.187988 2068.997314 3.749499 2236 
297.014709 2225.625488 7.271192 2237 
491.817444 1996.071045 5.078318 2238 
280.099670 2145.195068 5.338728 2239 
395.391785 1930.727905 5.116203 2240 
594.365295 1691.210938 3.716005 2241 
621.605347 2128.984131 4.728216 2242 
592.570374 2235.080322 4.210868 2243 
720.049194 2075.690674 5.945380 2244 
609.166443 2366.178467 4.561775 2245 
790.800781 2125.769287 4.233659 2246 
276.129211 2304.988525 7.938047 2247 
469.405548 1955.069214 5.022429 2248 
530.570068 1853.956299 7.452239 2249 
307.826385 2371.860352 6.617043 2250 
438.599060 2132.486084 6.373540 2251 
525.752747 1985.024414 6.514784 2252 
590.857544 1988.178101 4.934295 2253 
672.734619 2023.223267 7.308278 2254 
794.737427 2183.712402 5.489859 2255 
777.841736 2363.909668 5.712490 2256 
337.891693 2257.741455 7.770424 2257 
544.161194 1900.303101 9.688313 2258 
527.967590 2039.487549 6.473120 2259 
2406.919922 545.501343 8.352682 2260 
454.804321 1996.510986 9.098445 2261 
168.347427 2350.306885 8.465272 2262 
313.218475 2086.788086 6.862284 2263 
384.418243 1961.837158 6.849300 2264 
244.567444 2380.717529 8.318363 2265 
468.152802 2435.056885 7.284952 2266 
877.413818 1932.391968 6.851782 2267 
790.659363 2098.048340 7.079061 2268 
875.084595 2258.420654 6.270365 2269 
2416.399414 568.157166 6.144432 2270 
577.857971 2273.661621 7.237886 2271 
2725.132812 1094.182007 6.406696 2272 
714.504700 2360.896484 6.448847 2273 
830.867920 2268.237061 8.200713 2274 
382.946381 1664.938232 21.077927 2275 
430.231750 1990.525635 16.285316 2276 
239.624634 2289.882080 6.853172 2277 
499.788086 2234.640625 6.413299 2278 
769.569946 1928.790649 5.740329 2279 
678.901184 2120.040039 6.157745 2280 
859.326843 1908.635864 5.254888 2281 
548.240723 2447.695068 5.636176 2282 
845.517212 2183.549805 5.937519 2283 
751.908264 2385.149414 5.465139 2284 
781.345398 2336.713135 5.059328 2285 
341.289062 2083.054932 5.156144 2286 
297.756653 2350.857666 4.460405 2287 
477.923676 2149.844971 5.579963 2288 
549.235474 2305.676025 4.374365 2289 
488.189819 2470.090576 4.305540 2290 
599.247864 2275.814453 4.906675 2291 
705.559204 2091.071777 4.724485 2292 
256.493225 2141.436768 5.526222 2293 
399.595398 1996.613159 5.097684 2294 
510.306030 2162.639404 5.745750 2295 
713.629089 2156.999023 6.005083 2296 
728.570557 2178.081055 5.657597 2297 
757.407837 2130.251709 5.320387 2298 
406.302673 2404.997070 7.558384 2299 
215.749237 2325.594971 6.126801 2300 
564.509399 1938.994263 8.740808 2301 
401.537872 2357.587891 7.383869 2302 
562.944336 2404.555420 7.519770 2303 
800.703369 2434.947998 8.116202 2304 
447.961578 2075.800537 8.019684 2305 
393.671631 2511.603271 6.387624 2306 
874.011230 2321.008789 8.693293 2307 
2858.285156 182.386520 6.037585 2308 
411.809387 2049.607422 7.406903 2309 
376.394043 2385.030518 7.349361 2310 
197.762238 2268.617676 7.770880 2311 
437.523163 1973.448853 7.000744 2312 
493.203888 2028.902710 7.728193 2313 
655.481262 1967.353027 8.156427 2314 
414.382996 2491.614990 6.996372 2315 
2236.053711 1564.476807 6.689719 2316 
1912.556641 1776.888550 14.570013 2353 
1029.406128 2115.152100 13.410401 2463 
2431.373291 1494.707642 11.025323 2464 
954.685913 2266.802979 9.173429 2465 
2685.408447 781.674561 7.012471 2466 
2564.929199 143.019470 6.164367 2467 
1840.586304 2086.074463 6.446888 2468 
1120.956299 2349.288330 5.989851 2469 
2614.299805 939.476074 10.988715 2470 
2545.469238 114.776703 7.861649 2471 
2600.718506 2476.191406 6.831697 2472 
2256.453613 67.665855 5.673178 2473 
1241.269287 2502.326904 4.886207 2474 
1035.023682 2305.819336 5.536685 2475 
2641.951904 228.342606 5.712149 2476 
2553.605957 428.086365 6.754688 2477 
1980.201782 1811.229492 5.783885 2478 
1196.500366 2283.134521 4.634088 2479 
2623.985840 1101.777588 9.123642 2480 
2503.348877 107.156364 9.770714 2481 
1240.332275 2402.923096 6.524709 2482 
2567.950928 1224.149658 9.743608 2483 
2560.876221 461.232697 7.631101 2484 
2635.774902 1341.326172 9.351025 2485 
2573.641113 2472.133057 6.532338 2486 
1116.395386 2201.750488 3.629229 2487 
2690.135010 703.238220 6.136692 2488 
2520.866455 188.181900 5.121402 2489 
1164.418823 2225.312012 4.849065 2490 
1112.012207 2393.479980 3.519045 2491 
1063.836548 2470.365967 3.981691 2492 
2729.534424 812.464172 4.862947 2493 
2728.767334 1227.578491 5.289802 2494 
2646.815674 554.745728 3.760396 2495 
2449.546875 87.760010 3.824635 2496 
1019.952393 2124.216797 3.603961 2497 
2644.240723 380.264252 6.483995 2498 
2528.744385 385.712646 5.415148 2499 
2840.710938 2367.083252 4.434996 2500 
2816.316650 2432.516357 3.841228 2501 
2552.483154 116.594505 4.353661 2502 
2482.824707 371.439880 3.626639 2503 
2488.137207 453.206970 5.592583 2504 
2372.559326 172.299011 5.636465 2505 
2395.833740 1605.587158 5.168683 2506 
2438.358398 2079.881592 3.646892 2507 
2465.793701 1537.624268 5.355462 2508 
1376.829346 2358.169434 3.787424 2509 
925.450256 2263.205078 3.996540 2510 
2671.233154 311.529846 3.772356 2511 
2556.860596 69.912819 4.757438 2512 
2571.014893 194.800003 3.747558 2513 
2500.302979 407.301208 4.793948 2514 
2421.488281 217.499374 4.491076 2515 
2402.189697 334.038818 4.619355 2516 
2361.591797 192.665466 5.153754 2517 
2343.129639 430.447693 4.143598 2518 
2488.819092 1964.494995 3.936624 2519 
2433.204834 287.812469 6.394467 2520 
1417.580688 2409.754883 3.783827 2521 
1364.199951 2370.381348 4.716590 2522 
1005.196960 2354.095459 5.117051 2523 
964.028931 2091.053223 4.385542 2524 
2579.747070 113.534241 4.215626 2525 
2598.552979 247.019699 5.717968 2526 
2603.888672 330.295471 3.858017 2527 
2579.557373 410.928009 4.692596 2528 
2545.579102 400.563690 3.586807 2529 
2626.883057 1647.289795 3.696639 2530 
2395.108887 56.350903 4.428471 2531 
2418.166992 320.135742 4.046535 2532 
2552.624756 1822.435303 3.754151 2533 
2504.902832 1930.360352 3.962152 2534 
2561.364502 2432.296875 5.534182 2535 
2318.362549 171.157257 4.071106 2536 
2258.389160 102.285797 4.731883 2537 
1180.652710 2286.727295 3.642865 2538 
2453.384033 209.625259 6.281166 2539 
1215.110962 2206.663574 4.139397 2540 
995.510681 270.451660 4.022666 2541 
2691.007812 321.429657 3.695508 2542 
2695.161865 362.721222 3.893314 2543 
2746.541260 917.672913 4.979564 2544 
2531.968750 34.015022 3.657706 2545 
1280.544067 2473.862793 3.937378 2546 
1092.285767 2521.969482 4.305452 2547 
2514.451416 1903.072388 4.054339 2548 
2263.854980 45.015770 3.907168 2549 
987.601929 2038.480225 3.649602 2550 
2484.593994 329.688141 6.241314 2551 
2457.633301 331.519531 4.362360 2552 
2250.021240 2505.895752 4.600427 2553 
1089.751709 222.586929 4.094234 2554 
1013.352600 2218.459229 4.021549 2555 
970.548767 2219.165039 4.459948 2556 
2676.791016 802.095520 5.070442 2557 
2562.135498 271.310913 4.038307 2558 
2414.564697 166.080032 4.627272 2559 
2244.342285 1581.272217 6.493943 2560 
784.438171 198.215683 6.751233 2561 
1155.010498 2456.570068 8.074799 2562 
2692.302734 703.556824 7.530285 2563 
2671.242920 1155.602539 6.470916 2564 
1255.302002 2313.545410 6.080052 2565 
1218.750977 2522.421875 6.288667 2566 
1175.627563 2434.773682 5.038812 2567 
2486.084717 1102.371338 10.598117 2568 
1077.192749 2473.396240 7.133764 2569 
916.682800 532.723511 9.825099 2570 
2347.212402 1481.167847 19.354769 2571 
2543.750000 1690.792847 14.715282 2572 
2432.633789 1638.307617 15.063024 2573 
1447.917236 2370.729004 10.464462 2574 
2130.545898 2430.351562 13.136786 2575 
1997.708374 2024.874634 13.666800 2576 
1679.290527 860.910034 14.186903 2577 
1134.999268 2119.691895 10.770735 2578 
993.932007 2348.090332 13.340004 2579 
1881.377563 590.819336 13.367738 2580 
1756.262329 370.505859 11.683387 2581 
989.934265 1997.751221 9.372258 2582 
1111.819092 2122.085205 26.739115 2583 
1751.190063 1644.279541 20.946888 2584 
2427.875977 193.059219 3.906081 2585 
2449.183350 418.925018 3.968077 2586 
2507.160156 309.749481 5.239996 2587 
1039.723022 2367.658447 3.861017 2588 
2474.337891 360.162048 8.852210 2589 
2390.255127 148.818497 7.996598 2590 
2335.615967 144.101624 9.037596 2591 
2553.216797 2485.469971 7.976770 2592 
1023.014282 2440.347656 8.754882 2593 
2704.851318 1093.675659 10.916404 2594 
2361.206543 98.434296 6.085780 2595 
2307.258789 130.938583 8.187762 2596 
2569.611084 94.880432 5.658760 2597 
1064.950073 2168.703369 4.230167 2598 
1030.906494 2071.104736 3.528285 2599 
2528.466553 417.470642 5.417475 2600 
1298.196045 2338.025879 3.873226 2601 
2425.459473 177.889954 6.127054 2602 
2080.589600 1920.464111 7.363742 2603 
1545.049805 2526.059326 4.678286 2604 
1111.385986 2214.549561 5.568401 2605 
1069.534424 2088.659912 4.512909 2606 
1051.060669 2432.110352 6.328762 2607 
942.946472 2178.662354 4.715120 2608 
2564.695557 1191.177612 10.484321 2609 
2030.058228 1881.004761 6.424913 2610 
1379.430420 2371.843018 5.141525 2611 
1022.318359 2112.075684 5.675814 2612 
827.704712 182.998840 6.074978 2613 
976.636414 2011.396240 6.769855 2614 
2496.250977 640.921204 8.894384 2615 
2123.599854 1619.861694 7.163299 2616 
1272.855225 2315.913818 5.626033 2617 
1044.107788 2103.533203 4.557356 2618 
956.591919 2051.838379 3.788309 2619 
2589.986572 852.670532 6.907640 2620 
1063.091431 2343.243164 4.122362 2621 
2342.329590 186.540039 5.583578 2622 
1050.050293 2257.314941 4.252142 2623 
2680.111328 318.533356 4.254081 2624 
2672.836914 1564.159668 4.874649 2625 
2505.362793 325.488678 4.178163 2626 
1014.928284 242.485443 3.904619 2627 
2354.219238 113.490334 5.021201 2628 
3422.761230 2512.464355 3.873047 2629 
2514.341797 411.811646 3.728090 2630 
1223.631226 2303.211182 3.358147 2631 
2673.492188 708.327759 5.563453 2632 
2632.597900 1657.748413 5.022873 2633 
2466.283691 415.069305 5.199948 2634 
2598.247314 2518.230957 6.412832 2635 
1429.342773 2408.789551 5.042907 2636 
1143.980591 129.005905 3.827508 2637 
1163.150391 2396.590820 4.365011 2638 
1048.479126 2305.566406 4.428144 2639 
2492.152100 317.756744 3.969913 2640 
2408.543701 65.055527 4.098409 2641 
2318.374268 47.632427 3.824491 2642 
2690.152832 1523.926147 5.240239 2643 
1418.696533 2458.821045 4.182811 2644 
1115.968506 2121.909180 4.631394 2645 
2485.164062 55.957405 4.633410 2646 
2448.745850 291.171661 4.200006 2647 
2412.245850 222.604965 4.166253 2648 
1092.493164 2273.073730 3.492557 2649 
2764.932617 1350.481445 5.012962 2650 
2711.687744 1474.778931 5.217434 2651 
2613.337158 1700.989380 5.233910 2652 
2419.963623 2144.029785 5.567191 2653 
1193.818848 120.304680 3.757979 2654 
1282.122803 2505.170654 4.817244 2655 
1150.190186 2176.357422 4.369030 2656 
1113.955078 2300.273438 4.079382 2657 
1021.018738 2228.417725 4.062941 2658 
2566.010742 399.594147 3.372681 2659 
2540.978760 419.277252 4.004927 2660 
1328.511475 2490.139160 4.865866 2661 
1027.346680 2133.583252 3.453542 2662 
2702.653320 789.063293 4.257507 2663 
2638.410400 1645.044434 4.440252 2664 
2563.700928 1181.011353 4.420797 2665 
1254.805908 87.478943 3.649274 2666 
2754.391602 1376.929810 5.427964 2667 
1224.179321 2411.721436 4.026380 2668 
1165.328735 2212.660645 3.762607 2669 
933.515198 393.364136 4.231820 2670 
1041.964355 2345.313721 5.094483 2671 
2661.877930 686.906372 4.729469 2672 
2592.057129 291.911438 4.302740 2673 
2519.128418 76.647636 4.680724 2674 
2491.709473 372.793274 4.083880 2675 
1376.176636 2346.438232 4.813636 2676 
2556.038818 488.871399 10.353427 2677 
2597.834717 1320.539795 19.092024 2678 
2515.935303 1308.897949 19.341373 2679 
2498.265381 386.204590 14.060093 2680 
2526.213135 1127.302490 19.256502 2681 
2580.770752 1744.423218 13.336750 2682 
2030.345093 2285.556152 15.243961 2683 
1129.957642 2373.031494 16.190786 2684 
1110.470337 2481.080566 11.219846 2685 
2425.073242 1579.909424 38.826141 2686 
2334.063477 1272.782837 40.509811 2687 
2407.908691 1131.200806 39.177929 2688 
2180.000732 2064.182129 46.108685 2689 
2614.017334 2483.813721 4.532560 2690 
1134.651245 2167.670898 4.377335 2691 
1093.362183 2178.181396 4.002010 2692 
994.368347 2046.308228 3.728284 2693 
1018.488831 2382.340332 4.498696 2694 
2333.074219 166.103683 6.852163 2695 
1144.830200 2358.381104 5.782280 2696 
952.034851 2084.451660 5.036315 2697 
788.166443 501.076965 6.035990 2698 
2584.946045 2457.025635 6.108901 2699 
2305.645264 81.522781 7.458881 2700 
2530.854248 2476.424072 8.429223 2701 
1129.739868 2197.556152 5.028669 2702 
2357.680664 203.096786 3.272710 2703 
2230.812256 70.162361 3.715414 2704 
1298.685425 2287.196533 3.821237 2705 
1301.677979 2318.517090 4.578253 2706 
2706.998535 674.969910 3.857040 2707 
2869.768066 2308.910400 3.666641 2708 
2583.203369 92.524399 4.098036 2709 
2559.147949 107.176018 4.275540 2710 
2241.959229 59.025558 4.084319 2711 
2678.377930 1529.319458 3.651688 2732 
2662.009033 1591.261108 5.279579 2742 
2399.973389 2159.506592 3.877526 2756 
2612.571533 1651.320679 15.710196 2762 
2115.044189 1465.741821 17.283121 2771 
1607.389771 596.607300 4.790155 2826 
1850.202148 701.786987 6.187918 2827 
1433.332764 658.458862 8.970428 2828 
2061.865967 1647.649536 15.344244 2829 
1051.928223 2349.896240 3.754569 2830 
2578.947510 1760.236938 3.677394 2831 
2120.097168 105.668312 3.814501 2832 
1885.183960 685.541931 8.300098 2833 
1790.945557 575.300659 3.920986 2834 
2734.080566 917.493896 3.369255 2835 
1552.626343 682.574585 8.431856 2836 
1357.522705 2346.934814 10.165908 2837 
1993.138550 2407.518311 8.599409 2838 
1396.696655 2414.412109 8.800396 2839 
859.037903 136.910324 6.430483 2840 
116.104965 556.923462 6.411323 2841 
298.330231 652.784241 5.883238 2842 
457.412659 540.525513 3.729990 2843 
248.104568 626.239929 4.493195 2844 
325.773590 626.726013 4.434008 2845 
465.066986 516.303406 6.445199 2846 
785.193420 234.346085 5.345036 2847 
814.253723 357.719452 4.840716 2848 
435.326385 533.527283 5.362625 2849 
711.615723 561.672180 4.485625 2850 
751.882202 252.703125 5.858159 2851 
643.383240 302.761841 5.218813 2852 
468.448761 454.562103 4.032475 2853 
216.995377 649.644897 3.908053 2854 
400.758881 964.862000 3.966576 2855 
171.142548 529.700745 8.812286 2856 
132.037872 598.201050 8.820225 2857 
240.269730 498.212128 7.622881 2858 
222.596222 1089.570312 12.046611 2859 
170.139282 415.803528 9.310903 2860 
816.741577 510.044342 12.242816 2861 
659.774841 567.116150 11.824164 2862 
1910.609863 2004.955078 16.489618 2863 
370.515106 632.440552 15.685688 2864 
850.349792 620.545105 16.716152 2865 
829.780029 221.292984 17.484205 2866 
609.200562 402.867126 25.391005 2867 
690.066711 278.921021 5.985736 2868 
980.390381 308.853912 3.924477 2869 
557.545532 373.158691 4.411408 2870 
744.872253 516.035522 4.778890 2871 
2799.226807 1289.321777 3.986898 2872 
255.609070 662.897400 6.653576 2873 
1108.753174 145.321747 3.683618 2874 
624.270691 375.973724 5.381112 2875 
2634.291016 1631.595459 3.822440 2876 
138.000580 482.524292 6.147629 2877 
228.308105 673.091370 6.262470 2878 
92.891884 442.129944 4.664221 2879 
506.768433 470.659882 5.262990 2880 
2611.444580 1686.876953 3.759068 2881 
1177.322144 1027.465088 11.345034 2882 
1899.247803 2215.216309 14.371520 2883 
189.167542 635.888489 10.072506 2884 
198.276749 698.360474 6.776702 2885 
389.952240 541.281494 11.288507 2886 
301.901123 443.776520 8.234358 2887 
512.377136 441.912842 8.893336 2888 
2030.095215 1766.899780 6.852040 2889 
1930.823364 1886.815186 5.936154 2890 
1223.139282 101.120773 3.751079 2891 
643.578918 333.413940 4.733081 2892 
238.874237 695.050171 4.386487 2893 
2697.761963 1481.544434 3.658234 2894 
165.912659 594.711487 5.734703 2895 
1289.055298 2052.216553 5.803885 2896 
2475.825684 1783.935303 5.281208 2897 
2494.441650 1947.021606 3.621325 2898 
216.740692 488.827393 6.545218 2899 
395.242615 559.064087 5.259704 2900 
269.153778 613.309448 5.295256 2901 
494.086578 774.071106 5.552639 2902 
2732.266602 1404.866089 4.086857 2903 
90.303963 428.739288 6.332213 2904 
312.555878 428.860352 5.753372 2905 
87.037483 555.811646 6.393238 2906 
1151.292603 160.345474 4.463551 2907 
636.411926 386.489197 4.723964 2908 
103.410118 478.317719 4.675686 2909 
138.493423 651.817871 3.538584 2910 
2668.395508 1525.631592 4.319333 2911 
514.061890 421.982239 6.490381 2912 
350.435822 613.598022 6.355973 2913 
691.642456 323.583923 5.565617 2914 
805.778076 443.378357 3.408781 2915 
102.514915 561.562927 4.734039 2916 
302.639069 959.933289 5.256234 2917 
2682.307373 1541.685791 5.077006 2918 
2206.266357 1635.847778 3.760140 2919 
1902.403076 125.316101 6.349653 2920 
2797.922363 1273.870850 5.978559 2921 
845.389099 169.081543 4.506807 2922 
670.799744 299.417175 5.011095 2923 
163.801086 451.500305 5.066903 2924 
506.340668 507.756683 4.438125 2925 
260.796326 624.042664 4.617691 2926 
397.168793 906.360291 4.721019 2927 
151.295319 525.841553 6.622100 2928 
414.680908 368.076904 8.555248 2929 
150.007828 624.367859 10.913084 2930 
345.089508 928.393616 8.214243 2931 
1033.589233 271.342957 7.615222 2932 
2854.014893 1284.874268 21.092365 2933 
1204.126831 816.029053 55.649292 2934 
1185.655762 1001.932495 52.820751 2935 
1364.781128 1013.070435 53.924358 2936 
1117.049072 153.156082 4.845465 2937 
124.614525 487.855560 5.150137 2938 
486.247223 517.126404 5.025105 2939 
2554.833496 1836.751221 5.446168 2940 
975.678406 280.567566 3.786931 2941 
207.343796 601.828430 4.980425 2942 
640.955566 372.301971 6.269235 2943 
80.655510 609.482666 7.081955 2944 
282.722900 640.842407 6.670228 2945 
2539.905518 1867.765503 6.355463 2946 
868.942200 439.860687 5.403008 2947 
102.959518 582.366272 5.103618 2948 
2625.879395 1623.933838 4.686680 2949 
2516.622803 1878.336548 4.727313 2950 
2238.162842 2200.078613 5.620118 2951 
2329.470459 2173.004639 7.622957 2952 
285.786224 460.633545 7.999693 2953 
235.784073 525.773315 7.936849 2954 
711.633850 265.402405 8.519760 2955 
667.631348 599.783997 7.956397 2956 
524.586243 464.960968 7.927101 2957 
198.564575 449.208191 5.723331 2958 
71.946114 571.712708 6.765293 2959 
127.710724 573.377869 6.942035 2960 
109.873459 691.880737 4.593277 2961 
2633.332520 1606.949219 4.669258 2962 
717.067139 303.558533 6.608413 2963 
176.229019 499.426849 6.085498 2964 
199.599030 499.182648 6.160661 2965 
2564.062744 1817.032715 3.690543 2966 
914.865601 111.032288 6.502488 2967 
724.851624 553.291199 5.845618 2968 
510.493652 778.041992 6.314323 2969 
1062.490601 112.794159 4.323475 2970 
450.380188 529.391357 5.398045 2971 
470.774872 528.770020 4.460477 2972 
2970.980469 1603.521606 3.924634 2973 
815.635132 173.906967 4.584952 2974 
683.601196 588.270569 5.395398 2975 
704.811340 591.935242 4.557297 2976 
1007.868652 849.509888 9.078008 2977 
845.857666 439.094727 5.622838 2978 
817.155701 208.610107 5.326084 2979 
901.840332 124.822578 3.742265 2980 
938.671814 89.475464 7.534053 2981 
2631.671387 1992.425659 5.023081 2982 
662.788940 330.965118 6.729189 2983 
2655.010498 1556.197876 3.865951 2984 
625.893188 358.482697 4.654453 2985 
768.673584 499.672424 3.885530 2986 
583.819519 1682.564819 5.952780 2987 
891.328979 122.012138 3.551115 2988 
2358.666016 2285.839844 4.704203 2989 
782.533691 175.657501 4.962637 2990 
2721.031738 1758.524048 5.073874 2991 
991.404602 57.853191 6.112782 2992 
2750.745361 1687.337280 4.403355 2993 
737.950684 237.056580 7.518166 2994 
910.907227 361.376160 7.244523 2995 
910.390564 134.336746 4.349247 2996 
936.826782 111.784790 5.540572 2997 
1100.275635 200.557007 6.147553 2998 
2309.203369 366.895782 5.753697 2999 
2478.208008 1989.181519 3.746875 3000 
2350.643799 2276.426758 4.327961 3001 
2438.677002 990.300781 3.661275 3002 
1767.908325 1114.325317 5.296522 3003 
2331.183838 1523.478638 11.428924 3004 
2616.376465 1672.262207 3.677633 3005 
153.799332 2249.445801 4.925858 3006 
2377.304443 2239.797119 5.385320 3007 
2681.647949 1847.448608 4.455946 3008 
2754.168213 1673.063477 4.097946 3009 
2214.668945 210.013275 5.994068 3010 
1913.838135 2340.348389 5.202925 3011 
1354.366089 1234.481445 10.757673 3012 
1482.484863 1821.194336 17.071978 3013 
1872.288208 108.250587 8.082549 3014 
1344.236450 1959.741699 8.272566 3015 
165.117004 728.583435 8.411752 3016 
1014.759277 305.334229 4.789243 3017 
715.262878 1925.958984 3.579266 3018 
2297.701172 412.344147 10.134528 3019 
1772.343506 912.881653 6.906003 3020 
1611.485352 1775.244873 61.898720 3021 
2307.707275 245.693634 5.573884 3022 
1489.692749 240.943802 4.430497 3023 
1559.672363 542.956604 3.445298 3024 
1527.768066 909.466187 3.956066 3025 
2218.101318 2247.413330 11.918427 3026 
1808.984863 2195.489746 17.337681 3027 
2312.092041 1331.222534 6.876854 3028 
1592.124634 2332.203125 6.174584 3029 
2470.714844 1492.445190 3.852302 3030 
812.734985 324.537262 3.897662 3031 
2127.495850 117.457771 4.046136 3032 
1978.169556 776.757202 5.837392 3033 
1025.100464 529.849548 3.419179 3034 
762.358215 535.017029 5.242695 3035 
1971.693115 991.739624 10.418748 3036 
1144.242065 1496.049927 19.706017 3037 
1654.048462 2300.991211 16.302729 3038 
1584.054565 801.329346 14.985574 3039 
3335.095947 204.536682 10.510655 3040 
1868.568115 793.911377 7.203618 3041 
455.057526 708.509888 7.858115 3042 
3105.589355 1802.338745 6.322405 3043 
1613.440186 319.577911 12.903234 3044 
543.679199 370.169983 17.808104 3045 
2018.634521 485.159424 49.161655 3046 
1946.823486 1482.805786 8.108452 3047 
1061.600708 217.604462 6.656211 3048 
3057.277832 2168.936523 6.910239 3049 
471.332855 1004.412720 12.330779 3050 
1966.341797 2092.131592 9.907596 3051 
190.309540 1118.988647 12.788679 3052 
1116.797241 167.152817 4.237181 3053 
610.600220 669.047546 6.596951 3054 
1005.369324 278.781525 5.031263 3055 
559.229614 1797.887573 5.414003 3056 
501.889435 1681.439575 5.648586 3057 
1600.376465 466.841095 11.923093 3058 
763.840637 1853.563110 4.116801 3059 
310.786865 1833.307129 6.161175 3060 
268.274414 1789.812500 7.400085 3061 
1032.112305 2258.046631 10.224950 3062 
1958.683594 369.942261 5.931775 3063 
538.261780 1688.965698 4.927318 3064 
287.839966 1797.403198 5.642654 3065 
522.658203 1679.684814 6.633413 3066 
303.942261 1818.820435 6.306826 3067 
2219.579346 768.027832 5.207659 3068 
532.246704 1768.082520 4.862807 3069 
