ply
format ascii 1.0
element vertex 1838
property uchar red
property uchar green
property uchar blue
end_header
105 114 117 
165 167 168 
141 148 150 
126 122 124 
128 125 123 
159 166 169 
135 137 140 
95 109 116 
117 116 117 
114 126 128 
85 92 98 
121 132 135 
103 108 114 
129 139 142 
134 137 135 
112 120 127 
141 149 151 
137 144 146 
136 132 125 
114 127 129 
153 159 161 
91 100 96 
110 107 98 
111 108 99 
94 112 114 
96 111 115 
108 115 119 
105 111 115 
93 100 105 
101 109 112 
96 112 119 
97 115 120 
65 79 85 
132 128 112 
189 186 181 
154 162 161 
128 132 135 
123 130 132 
177 181 184 
186 214 193 
140 149 152 
186 177 161 
144 150 152 
228 225 212 
170 163 161 
187 187 186 
181 185 184 
162 171 174 
190 186 179 
149 155 156 
168 177 179 
207 208 207 
160 164 166 
181 187 185 
182 218 200 
183 182 176 
143 158 162 
171 172 170 
166 162 156 
146 152 153 
176 177 175 
167 159 131 
155 149 148 
120 132 137 
164 172 173 
128 128 125 
124 120 122 
84 84 80 
154 155 157 
143 140 134 
149 161 167 
159 147 143 
145 152 155 
134 144 149 
133 141 142 
125 142 138 
150 150 148 
72 90 100 
177 181 180 
178 163 155 
171 207 186 
146 148 151 
211 210 204 
212 212 206 
144 135 134 
182 186 184 
174 176 176 
157 163 164 
176 212 193 
167 173 177 
181 183 180 
176 211 193 
195 195 194 
141 132 125 
54 77 91 
58 85 93 
73 90 100 
50 77 89 
84 98 99 
72 92 102 
48 69 82 
66 91 95 
68 83 97 
25 59 75 
219 217 210 
190 190 188 
167 176 182 
179 184 184 
149 161 165 
136 144 147 
142 155 158 
164 167 167 
208 206 201 
192 190 186 
194 192 188 
170 171 169 
178 177 172 
179 177 176 
190 188 184 
208 211 208 
197 200 188 
160 168 169 
156 154 150 
197 194 189 
169 176 178 
180 180 177 
159 159 160 
176 182 180 
173 173 173 
187 186 183 
202 200 195 
195 194 191 
132 143 151 
169 170 169 
123 137 142 
175 176 177 
190 188 183 
156 150 154 
202 200 195 
207 206 199 
183 152 149 
134 149 151 
161 167 167 
183 183 180 
180 185 187 
192 187 184 
169 173 175 
191 183 178 
165 177 177 
130 144 149 
107 122 130 
135 139 142 
170 158 136 
166 156 138 
144 149 141 
167 162 153 
155 158 160 
137 149 155 
111 119 128 
147 156 158 
177 185 186 
151 151 146 
171 171 168 
175 173 168 
209 208 203 
132 142 148 
172 169 168 
209 206 201 
199 198 193 
193 193 189 
126 141 149 
178 166 141 
165 174 175 
173 179 181 
149 161 167 
207 209 207 
228 227 223 
223 221 215 
178 176 177 
197 196 189 
173 178 178 
199 196 191 
173 178 181 
196 201 199 
151 154 156 
186 185 180 
160 155 157 
208 207 199 
184 178 174 
203 202 197 
176 175 171 
175 173 166 
206 211 213 
233 237 240 
214 215 211 
236 236 235 
234 235 232 
183 194 198 
246 247 243 
249 250 248 
192 191 182 
245 245 242 
236 237 237 
194 193 184 
228 230 231 
192 196 196 
221 224 222 
243 244 241 
202 205 204 
203 202 195 
213 219 220 
203 204 193 
113 125 132 
153 156 158 
201 183 173 
180 175 170 
171 170 165 
113 120 125 
163 165 163 
136 142 147 
154 157 162 
148 128 130 
114 127 132 
84 101 107 
170 169 162 
158 159 157 
138 146 150 
127 144 121 
183 184 177 
119 131 136 
140 147 149 
153 166 168 
187 181 177 
164 165 165 
111 128 138 
152 145 137 
164 178 182 
147 152 153 
176 175 170 
138 116 118 
116 141 128 
98 118 130 
147 160 162 
157 157 156 
179 175 171 
142 140 136 
125 130 137 
134 113 117 
102 113 120 
135 122 117 
156 154 149 
162 165 160 
131 140 146 
167 165 164 
171 180 179 
148 149 148 
129 123 127 
168 168 169 
139 148 151 
172 170 162 
160 113 113 
131 138 142 
210 212 207 
171 172 172 
164 166 166 
101 111 120 
111 128 136 
111 110 114 
158 159 162 
113 122 115 
103 110 115 
144 151 151 
125 134 138 
163 141 141 
167 149 147 
135 136 138 
169 165 163 
138 141 137 
145 148 145 
127 127 128 
127 135 138 
153 160 155 
179 186 189 
183 184 183 
164 167 169 
132 146 154 
135 149 155 
159 145 140 
168 173 172 
141 146 149 
180 153 150 
166 170 172 
167 163 162 
183 191 191 
171 182 183 
170 180 183 
170 175 176 
183 181 177 
133 144 149 
205 202 198 
168 176 180 
165 173 175 
176 175 172 
175 184 187 
174 171 171 
202 200 193 
178 183 179 
190 191 188 
163 169 170 
147 159 164 
175 172 170 
199 187 171 
223 217 210 
223 224 224 
226 220 217 
222 213 212 
196 195 191 
171 175 173 
194 192 185 
156 165 168 
166 173 177 
161 163 168 
175 179 180 
132 128 128 
175 171 170 
131 139 139 
194 201 204 
166 174 178 
138 146 148 
185 188 186 
117 125 130 
95 111 121 
94 112 124 
97 104 117 
142 123 126 
119 132 135 
116 132 133 
177 173 164 
150 156 157 
174 171 168 
164 155 156 
158 160 158 
160 159 157 
112 122 129 
152 161 163 
110 125 129 
165 130 130 
125 114 121 
128 133 137 
115 125 132 
119 132 138 
102 118 127 
136 148 157 
139 141 143 
163 164 164 
128 129 135 
180 177 174 
145 142 146 
160 160 154 
170 168 160 
129 122 124 
149 116 116 
112 115 118 
130 139 143 
248 243 223 
192 194 187 
245 245 243 
213 213 212 
222 212 196 
238 241 237 
250 250 247 
209 193 175 
225 218 204 
230 233 233 
220 222 222 
214 200 181 
216 221 220 
229 232 229 
212 217 216 
239 239 234 
206 210 212 
229 233 231 
247 248 247 
206 212 215 
235 236 232 
210 218 217 
243 243 239 
218 206 189 
123 123 117 
119 126 128 
99 109 114 
138 137 139 
179 167 161 
137 135 135 
126 124 120 
105 130 136 
136 140 143 
148 146 141 
129 129 131 
146 144 143 
103 111 109 
131 141 141 
168 177 178 
163 161 158 
164 167 164 
127 131 132 
137 154 160 
138 147 152 
150 159 161 
138 142 146 
170 170 171 
206 204 197 
163 169 170 
167 169 169 
195 193 190 
213 208 202 
147 145 143 
137 135 126 
124 120 114 
137 137 136 
133 139 141 
109 121 127 
107 120 124 
166 167 163 
96 111 120 
164 174 177 
177 174 167 
150 149 144 
133 138 139 
115 124 127 
106 110 111 
163 166 160 
136 138 139 
107 125 130 
101 110 113 
80 95 107 
53 75 88 
131 144 145 
54 79 91 
74 96 102 
79 91 97 
81 97 105 
71 85 88 
182 179 175 
162 165 163 
142 142 139 
163 167 168 
209 210 208 
137 144 149 
173 179 181 
165 171 167 
130 132 133 
199 193 186 
187 188 187 
145 143 140 
161 161 151 
146 148 147 
137 143 144 
153 159 160 
214 209 201 
168 166 165 
153 162 159 
128 135 136 
160 154 139 
174 176 175 
172 167 160 
160 161 156 
175 181 182 
147 154 154 
148 149 150 
156 158 157 
142 153 155 
111 120 125 
131 135 136 
143 135 133 
134 130 131 
113 122 124 
136 135 120 
149 149 147 
161 161 156 
144 143 135 
118 120 120 
116 129 136 
182 184 180 
144 147 146 
172 174 173 
156 168 171 
161 167 170 
128 123 119 
112 114 118 
143 146 149 
173 177 176 
149 150 148 
157 161 163 
202 193 153 
131 132 133 
179 180 180 
156 161 162 
146 147 147 
124 123 126 
209 206 203 
126 135 139 
116 122 126 
161 161 159 
118 125 126 
94 111 119 
94 110 117 
79 95 105 
46 81 84 
47 86 83 
197 197 195 
167 179 182 
194 190 183 
185 180 178 
148 154 158 
174 175 174 
189 188 184 
174 175 175 
190 188 186 
187 186 182 
169 176 184 
182 184 186 
156 141 139 
171 178 181 
171 183 188 
197 196 178 
189 191 189 
166 175 176 
161 175 174 
118 126 132 
179 180 176 
161 168 170 
167 173 174 
145 157 160 
165 163 155 
138 150 155 
188 187 181 
194 190 183 
189 187 182 
187 186 184 
145 157 161 
203 204 200 
181 178 172 
135 141 146 
126 132 132 
179 178 177 
129 132 137 
141 146 145 
162 176 182 
178 185 186 
163 157 158 
163 162 160 
96 108 118 
175 173 170 
169 168 163 
94 98 107 
144 114 116 
133 137 140 
161 157 151 
140 142 149 
122 97 101 
176 159 158 
139 146 150 
163 169 172 
155 153 156 
163 160 161 
168 168 165 
138 144 144 
162 171 174 
163 164 165 
141 152 160 
181 179 175 
204 200 196 
168 172 168 
163 164 163 
151 149 146 
142 121 121 
157 168 172 
183 181 180 
163 168 166 
172 177 176 
188 186 182 
145 150 150 
122 130 136 
201 196 188 
211 209 205 
189 187 180 
189 195 197 
221 221 220 
206 197 184 
222 225 226 
212 218 218 
207 208 204 
204 204 197 
236 236 235 
224 233 234 
237 240 241 
174 185 188 
209 226 233 
216 218 218 
146 159 165 
227 223 221 
240 240 237 
193 197 199 
214 219 224 
241 242 245 
228 233 232 
236 239 239 
227 230 231 
202 206 205 
181 187 189 
224 223 221 
247 248 245 
219 202 204 
239 241 242 
214 206 194 
237 237 235 
117 127 133 
152 159 160 
168 166 162 
166 174 176 
165 172 177 
149 148 148 
141 143 147 
130 143 149 
160 175 179 
102 120 127 
153 149 148 
143 120 123 
143 120 123 
146 122 126 
157 155 154 
133 142 149 
165 165 166 
118 106 111 
109 126 131 
140 148 145 
114 129 134 
168 168 168 
94 106 115 
96 108 118 
98 119 130 
98 112 121 
150 164 165 
123 130 136 
146 153 156 
120 125 131 
124 136 142 
123 137 144 
142 144 145 
193 140 135 
145 146 148 
99 114 120 
153 138 139 
110 119 131 
119 127 133 
113 126 132 
135 140 141 
154 153 154 
126 130 132 
95 106 116 
175 147 144 
129 138 145 
130 141 147 
157 148 136 
117 121 127 
142 141 140 
84 100 112 
93 111 123 
123 135 140 
130 144 144 
145 150 149 
97 114 121 
136 142 149 
92 111 125 
90 109 121 
155 161 163 
104 115 124 
164 162 158 
164 174 178 
149 153 154 
136 126 124 
130 130 131 
165 159 155 
147 151 150 
99 109 120 
97 110 118 
139 148 138 
152 143 142 
163 167 166 
177 170 144 
117 132 137 
120 130 132 
189 189 189 
143 140 134 
122 126 129 
164 141 143 
157 156 154 
130 138 132 
191 185 180 
117 129 118 
153 135 137 
135 126 128 
98 117 127 
102 114 122 
170 156 152 
194 152 147 
158 163 163 
122 123 119 
124 140 144 
167 164 170 
109 121 130 
107 122 131 
174 172 174 
126 133 134 
154 164 168 
190 190 188 
172 176 177 
162 174 179 
185 183 176 
179 183 184 
149 140 140 
127 138 147 
198 202 201 
121 136 146 
172 174 172 
178 176 171 
162 166 168 
154 164 170 
170 169 165 
180 178 173 
182 177 174 
149 151 154 
160 163 165 
194 189 184 
193 193 191 
184 172 170 
148 167 171 
202 205 205 
192 195 194 
175 176 165 
222 224 223 
182 183 175 
166 169 170 
192 192 191 
158 157 153 
97 117 125 
172 180 184 
115 129 138 
166 178 183 
106 122 130 
167 165 169 
112 127 136 
199 195 193 
186 183 178 
182 179 177 
162 166 168 
135 143 148 
118 125 128 
102 116 125 
157 155 150 
124 135 112 
143 140 140 
119 130 135 
133 132 133 
137 155 153 
139 134 137 
140 136 136 
102 114 120 
130 133 131 
159 158 158 
87 101 105 
153 145 139 
161 163 167 
154 153 139 
175 181 180 
118 129 132 
100 115 123 
132 128 132 
159 150 150 
112 128 136 
125 134 138 
181 179 172 
161 158 153 
159 150 148 
124 136 143 
114 124 129 
136 137 138 
76 97 110 
147 142 140 
129 117 120 
171 168 160 
103 118 124 
156 161 162 
84 97 110 
120 122 127 
91 119 92 
141 148 151 
130 138 145 
164 164 156 
177 172 168 
123 144 121 
148 153 154 
162 156 124 
126 142 148 
126 140 147 
127 128 125 
130 134 129 
166 165 159 
130 143 148 
100 108 117 
146 149 152 
114 106 107 
145 145 146 
116 120 130 
154 152 150 
122 122 126 
99 112 119 
110 126 128 
170 123 124 
154 169 142 
91 99 107 
141 133 137 
230 228 223 
204 212 213 
203 208 199 
216 234 236 
196 193 185 
145 160 163 
238 240 239 
220 211 199 
184 196 200 
246 246 243 
215 220 221 
236 230 222 
189 200 201 
213 214 213 
163 167 168 
129 128 129 
102 107 106 
86 101 105 
177 172 162 
101 107 111 
131 114 112 
137 145 148 
191 181 142 
178 177 172 
122 137 142 
201 201 197 
169 165 158 
181 179 179 
160 162 163 
103 115 119 
130 138 135 
142 144 139 
164 163 164 
176 179 179 
184 189 188 
143 134 129 
137 145 147 
191 190 183 
172 166 161 
108 119 125 
202 200 194 
181 184 183 
94 103 103 
177 174 176 
174 176 176 
188 185 180 
177 177 173 
158 166 159 
87 105 114 
172 175 177 
129 151 159 
180 181 182 
146 142 145 
179 146 140 
75 100 113 
152 126 126 
136 136 135 
146 147 147 
125 126 132 
112 124 130 
191 188 182 
170 170 169 
205 203 195 
173 158 153 
249 249 247 
224 221 216 
159 167 169 
140 150 156 
139 129 132 
173 150 150 
117 122 124 
104 114 124 
128 128 134 
165 167 163 
136 136 138 
121 121 127 
126 128 133 
193 191 187 
137 145 147 
161 157 153 
124 132 136 
156 157 155 
165 172 168 
154 147 137 
157 155 152 
77 92 105 
125 129 131 
177 139 136 
130 123 127 
155 161 164 
133 143 146 
97 117 107 
106 116 123 
165 165 162 
153 148 151 
124 131 134 
126 131 133 
156 123 124 
102 114 124 
130 112 118 
152 159 161 
138 148 159 
167 171 170 
131 139 143 
139 132 122 
153 151 146 
171 173 171 
172 170 171 
212 213 212 
166 171 173 
178 178 175 
174 162 165 
153 152 152 
194 197 191 
171 180 183 
193 192 188 
162 164 164 
113 125 132 
179 182 183 
110 120 117 
118 112 114 
82 96 107 
86 96 105 
126 136 140 
150 161 163 
157 151 143 
145 119 124 
134 135 134 
127 145 127 
148 149 147 
142 136 139 
110 120 123 
189 188 182 
175 177 176 
135 103 107 
201 205 203 
171 176 175 
170 180 182 
147 144 131 
47 78 85 
139 149 156 
183 182 178 
226 225 220 
192 201 204 
204 190 169 
97 106 111 
94 101 107 
137 138 138 
123 132 135 
185 184 179 
179 180 180 
134 144 149 
179 176 168 
83 95 102 
92 107 114 
156 166 163 
94 112 112 
200 200 197 
139 137 129 
125 124 129 
109 115 117 
75 92 101 
90 101 107 
159 142 141 
79 84 87 
170 175 175 
129 137 137 
147 156 157 
149 142 136 
151 164 169 
188 187 184 
146 150 149 
135 131 125 
113 125 129 
100 102 105 
152 154 154 
119 114 116 
115 112 114 
128 128 126 
143 139 134 
145 142 135 
128 139 139 
152 156 154 
128 118 110 
159 169 172 
84 107 116 
37 74 77 
150 152 152 
139 152 158 
172 162 152 
181 173 158 
165 173 174 
171 180 182 
141 143 135 
113 124 126 
138 135 135 
103 113 121 
139 151 156 
173 163 151 
139 140 142 
194 195 191 
151 156 156 
154 140 135 
172 171 167 
171 181 182 
149 142 136 
100 116 123 
165 149 144 
196 191 186 
164 169 167 
182 187 187 
189 193 191 
175 182 187 
168 170 166 
137 135 129 
175 184 187 
178 184 168 
152 141 135 
154 142 136 
181 182 180 
158 160 157 
130 140 136 
187 187 180 
179 171 160 
162 168 168 
147 156 159 
131 138 139 
165 167 160 
166 172 175 
169 172 167 
138 134 128 
142 137 129 
137 141 141 
135 140 141 
198 198 195 
166 166 163 
152 147 142 
100 107 112 
153 150 146 
134 146 150 
198 205 208 
214 217 217 
133 142 144 
201 203 200 
185 181 178 
157 168 173 
186 175 159 
210 211 209 
167 160 160 
202 194 180 
193 196 194 
193 197 197 
171 177 177 
169 171 171 
173 179 182 
169 173 170 
145 160 164 
171 172 170 
181 177 180 
197 200 196 
151 157 159 
209 214 213 
215 214 208 
186 188 185 
242 241 234 
201 205 203 
204 194 179 
211 209 206 
214 216 209 
118 133 142 
170 171 169 
177 177 175 
177 184 185 
160 162 162 
141 136 139 
117 131 138 
179 174 169 
165 166 157 
156 167 173 
170 177 180 
222 224 219 
187 196 193 
173 176 168 
173 173 169 
145 157 160 
173 171 171 
170 172 171 
149 154 155 
178 184 187 
181 182 178 
125 147 141 
204 206 204 
199 200 193 
206 206 199 
170 184 191 
172 173 170 
138 144 143 
247 247 247 
206 209 208 
249 250 250 
215 218 216 
246 247 244 
233 240 240 
227 223 216 
211 214 213 
214 216 216 
249 249 244 
200 191 173 
215 218 218 
119 137 124 
121 129 136 
127 137 144 
183 176 171 
148 152 155 
129 144 117 
141 148 148 
120 129 131 
124 135 141 
112 124 132 
137 111 114 
131 136 140 
130 140 144 
117 128 134 
138 147 149 
113 135 113 
119 125 128 
180 180 176 
162 166 165 
101 110 119 
85 108 122 
110 119 124 
106 103 108 
127 135 138 
159 155 157 
173 162 157 
169 171 164 
119 128 136 
136 139 142 
107 108 115 
79 100 113 
161 169 168 
106 129 137 
132 113 115 
95 108 116 
85 100 106 
152 160 161 
59 85 88 
96 109 114 
61 90 82 
102 126 116 
105 115 119 
115 122 125 
82 105 94 
86 98 101 
114 120 125 
71 90 101 
112 127 131 
180 172 169 
141 140 138 
160 166 170 
143 142 142 
155 155 152 
145 152 154 
98 117 128 
82 104 117 
158 161 156 
120 133 138 
102 116 123 
170 173 172 
158 159 157 
117 128 135 
144 141 145 
125 137 142 
146 125 126 
128 135 137 
88 94 106 
152 121 121 
157 161 158 
121 132 137 
141 146 145 
134 130 132 
163 159 150 
127 111 115 
79 102 87 
111 126 132 
43 77 80 
153 159 160 
110 117 123 
137 142 144 
144 158 161 
150 151 148 
160 162 162 
127 131 134 
156 159 159 
147 151 153 
178 177 173 
178 182 183 
144 151 155 
185 135 128 
151 153 151 
149 155 157 
154 157 155 
156 155 153 
128 135 134 
117 127 133 
151 154 145 
148 149 146 
78 94 101 
99 118 93 
126 135 141 
107 121 122 
139 144 147 
66 90 92 
141 144 144 
159 147 150 
126 138 142 
152 161 164 
154 157 148 
151 152 149 
137 145 151 
156 155 149 
116 130 136 
118 123 129 
141 148 152 
120 129 134 
117 132 140 
148 148 149 
139 143 140 
125 135 137 
150 148 147 
168 171 160 
127 128 132 
74 96 93 
74 99 94 
100 113 116 
169 167 156 
97 112 118 
105 120 127 
91 107 117 
102 111 118 
112 119 123 
163 154 155 
96 106 113 
134 151 126 
168 163 155 
151 159 160 
177 181 177 
172 172 167 
162 165 163 
154 159 159 
105 115 122 
90 106 111 
140 139 138 
157 153 154 
157 162 161 
148 149 149 
133 136 137 
158 153 142 
180 176 161 
48 81 81 
84 97 103 
131 137 143 
126 122 123 
142 148 149 
158 163 165 
146 153 154 
152 156 154 
150 141 144 
155 162 163 
121 130 134 
154 154 148 
145 153 155 
91 113 122 
90 110 118 
128 132 132 
142 148 149 
130 145 152 
194 200 201 
174 180 180 
147 153 157 
196 196 191 
182 181 177 
188 185 180 
159 167 169 
204 208 208 
184 192 193 
163 161 153 
112 130 141 
167 172 172 
157 165 167 
155 162 150 
186 191 193 
219 222 221 
182 182 181 
124 140 144 
193 192 190 
188 184 166 
186 178 166 
215 212 206 
168 170 169 
158 156 157 
200 197 188 
160 170 172 
140 143 145 
104 112 119 
153 156 146 
35 68 78 
60 85 84 
121 138 117 
118 127 136 
103 119 124 
79 91 105 
80 103 118 
121 132 138 
158 167 171 
139 137 126 
159 160 161 
196 194 187 
87 102 110 
151 156 156 
120 131 137 
165 167 165 
167 167 163 
147 133 129 
151 163 166 
156 158 155 
83 97 107 
111 124 129 
132 130 117 
133 132 132 
108 127 97 
166 169 169 
111 116 118 
132 134 138 
59 93 84 
133 137 136 
134 145 124 
185 182 177 
155 161 164 
138 144 147 
99 110 120 
93 112 121 
141 155 162 
169 171 170 
51 73 83 
161 168 170 
136 136 133 
162 167 170 
119 125 129 
196 194 188 
130 142 117 
148 132 133 
138 142 142 
172 170 167 
137 138 139 
118 125 130 
217 216 208 
130 133 133 
159 166 166 
144 144 139 
68 80 88 
158 161 160 
120 123 128 
196 193 188 
62 82 96 
163 170 169 
168 170 172 
168 169 169 
143 154 160 
159 158 153 
204 201 197 
169 167 159 
177 174 173 
129 144 142 
235 231 221 
192 192 185 
120 133 139 
193 191 189 
181 183 182 
242 244 243 
207 212 210 
115 127 125 
158 156 149 
112 121 128 
153 159 145 
140 142 141 
131 136 130 
126 134 138 
87 110 102 
125 136 141 
100 113 118 
73 94 107 
156 162 162 
163 167 165 
116 129 133 
113 121 115 
57 82 86 
145 148 146 
179 177 167 
165 164 157 
93 103 112 
128 143 148 
176 175 153 
161 166 165 
157 164 166 
133 141 143 
167 169 166 
176 176 171 
164 164 160 
171 148 147 
153 153 147 
106 117 124 
155 160 158 
92 101 100 
125 122 109 
168 167 163 
146 150 153 
151 152 150 
159 194 177 
134 139 142 
144 145 143 
187 188 184 
167 164 157 
190 177 131 
158 154 147 
159 163 165 
122 149 148 
165 172 172 
144 179 167 
99 135 82 
134 135 133 
190 187 180 
170 205 189 
143 143 140 
204 204 198 
130 138 136 
200 202 199 
198 194 179 
112 137 137 
179 170 158 
149 175 164 
176 176 169 
151 157 158 
134 138 140 
129 137 139 
166 164 163 
150 156 158 
175 179 181 
136 136 134 
64 86 95 
98 107 115 
105 114 114 
109 112 100 
189 191 187 
106 133 145 
164 195 178 
146 138 122 
148 153 154 
152 152 151 
147 155 157 
167 170 166 
131 141 137 
170 205 191 
213 218 220 
178 199 193 
170 171 171 
153 153 151 
190 189 182 
170 171 170 
132 136 135 
108 121 126 
204 195 185 
193 204 208 
139 147 153 
196 193 186 
173 173 167 
186 176 179 
184 180 180 
172 169 163 
154 159 161 
116 131 140 
211 217 216 
181 181 180 
163 159 129 
94 105 112 
123 136 137 
144 146 143 
136 140 142 
148 153 155 
110 109 110 
134 134 137 
150 151 150 
180 178 169 
141 129 132 
148 108 116 
124 135 132 
164 163 158 
133 144 148 
68 88 95 
129 133 136 
133 135 137 
153 154 153 
144 148 148 
94 116 127 
164 162 153 
111 122 127 
110 126 127 
148 158 148 
145 151 150 
118 120 116 
152 130 132 
122 129 135 
110 115 116 
132 136 137 
116 127 132 
142 146 147 
210 200 189 
174 172 170 
125 122 131 
180 177 173 
134 137 133 
140 140 138 
123 132 116 
124 137 143 
145 149 148 
147 149 149 
103 127 122 
83 101 107 
83 105 106 
169 170 166 
149 152 152 
154 161 160 
134 148 148 
117 127 131 
123 129 134 
130 140 138 
114 128 134 
137 138 136 
121 124 123 
163 158 154 
143 148 150 
150 153 153 
128 130 130 
157 159 155 
129 135 139 
209 215 213 
241 242 241 
241 241 235 
244 245 242 
229 228 227 
204 211 209 
245 246 245 
199 194 181 
163 162 158 
127 135 136 
86 99 106 
135 141 145 
147 147 145 
139 143 143 
189 192 191 
158 157 155 
146 152 150 
193 187 175 
154 160 160 
183 190 192 
147 160 168 
196 187 173 
227 228 228 
188 185 182 
168 172 171 
173 172 169 
204 205 203 
188 186 180 
172 173 170 
127 145 153 
191 196 198 
120 137 136 
170 168 162 
162 173 171 
199 198 192 
238 185 172 
239 239 236 
159 154 118 
146 148 146 
173 174 170 
148 148 143 
153 148 143 
154 156 152 
97 113 124 
165 165 163 
146 144 145 
140 145 147 
151 164 168 
134 143 143 
177 167 156 
154 158 159 
122 127 128 
117 147 148 
93 113 121 
110 122 128 
72 97 100 
162 162 159 
146 149 149 
155 169 173 
128 134 136 
155 152 144 
148 161 162 
158 158 158 
128 134 121 
58 82 89 
167 166 166 
139 149 149 
83 104 97 
153 156 137 
190 183 174 
195 195 188 
158 163 163 
174 181 180 
157 162 161 
167 189 171 
149 155 156 
69 90 98 
111 126 125 
139 145 144 
123 141 133 
120 131 135 
86 93 97 
55 83 84 
52 77 89 
124 122 118 
159 165 165 
138 144 146 
79 96 101 
148 155 157 
161 164 164 
127 137 141 
117 127 128 
153 148 136 
178 183 184 
164 164 163 
204 200 191 
168 170 169 
169 164 159 
185 185 179 
164 161 159 
178 163 164 
124 139 145 
139 146 150 
165 169 169 
101 122 130 
127 142 147 
156 156 153 
141 150 152 
154 157 156 
153 151 147 
152 149 150 
161 165 166 
113 124 131 
138 121 126 
173 177 176 
141 147 152 
155 158 159 
124 126 110 
140 146 149 
174 174 172 
125 135 140 
151 154 154 
152 162 166 
122 132 120 
114 132 110 
161 167 160 
134 146 151 
140 148 152 
132 134 135 
119 134 136 
147 155 157 
105 116 120 
161 167 168 
146 151 151 
131 96 102 
87 99 106 
176 179 166 
138 112 115 
238 241 239 
208 201 191 
216 219 218 
231 231 221 
233 225 217 
193 190 179 
159 165 171 
133 138 136 
170 169 165 
236 202 205 
132 147 145 
163 163 161 
156 168 174 
179 181 181 
168 170 168 
169 169 167 
126 138 141 
146 145 150 
192 196 195 
220 224 223 
222 223 222 
144 145 145 
155 161 165 
105 125 103 
167 163 152 
131 137 139 
146 146 142 
148 153 153 
147 156 158 
163 164 162 
186 139 135 
151 153 151 
131 135 138 
121 127 129 
97 110 117 
163 162 160 
161 170 172 
112 122 132 
120 135 142 
151 164 163 
117 120 124 
113 129 138 
121 122 105 
138 132 121 
129 126 115 
117 123 127 
175 212 193 
157 166 167 
174 171 161 
190 194 190 
146 154 153 
145 148 150 
134 129 117 
112 112 113 
118 127 129 
126 132 132 
116 123 125 
151 152 149 
148 154 153 
135 134 121 
92 107 107 
117 129 133 
120 120 111 
38 72 78 
167 168 168 
159 162 160 
94 113 106 
138 145 134 
143 145 122 
132 134 133 
97 105 101 
120 122 124 
159 162 160 
185 192 194 
184 181 177 
169 172 173 
139 141 138 
191 183 137 
125 138 132 
113 122 127 
155 155 152 
141 143 140 
180 177 170 
157 158 156 
91 114 125 
143 140 121 
139 141 142 
165 173 173 
169 178 183 
170 173 169 
130 142 148 
162 167 168 
124 133 133 
181 185 176 
139 148 150 
102 112 111 
137 127 126 
129 138 115 
139 151 133 
156 162 149 
163 146 146 
119 130 139 
131 135 139 
153 156 153 
186 183 176 
172 170 165 
118 128 128 
144 152 151 
118 121 125 
158 155 145 
164 164 156 
174 180 184 
150 152 151 
159 155 123 
186 183 181 
237 237 235 
221 225 226 
230 230 228 
215 223 228 
183 175 123 
248 249 249 
164 159 150 
164 172 173 
128 134 135 
127 139 142 
156 158 153 
103 118 132 
144 154 156 
160 155 147 
93 101 110 
163 162 157 
130 120 116 
