ply
format ascii 1.0
element vertex 91
property double x
property double y
property char size
property char id
end_header
1.35098474121094e+03 5.61910217285156e+02 4 0 
1.61267651367188e+03 4.10073608398438e+02 4 1 
3.26343994140625e+02 1.47917187500000e+03 4 2 
2.09189770507812e+03 1.34717102050781e+02 4 3 
9.82830078125000e+02 1.06963574218750e+03 4 5 
1.28172766113281e+03 8.84541320800781e+02 4 6 
1.56202661132812e+03 7.12221984863281e+02 4 7 
1.82530847167969e+03 5.51606811523438e+02 4 8 
2.07331054687500e+03 4.01300506591797e+02 4 9 
2.30588330078125e+03 2.60546508789062e+02 4 10 
5.36873107910156e+02 1.69340515136719e+03 4 11 
8.80257507324219e+02 1.46690161132812e+03 4 13 
1.20281054687500e+03 1.25518786621094e+03 4 14 
1.50444677734375e+03 1.05756848144531e+03 4 15 
1.78728210449219e+03 8.73733093261719e+02 4 16 
2.30088159179688e+03 5.43327880859375e+02 4 17 
2.53327416992188e+03 3.93581787109375e+02 4 18 
2.75152929687500e+03 2.53201995849609e+02 4 19 
7.64169616699219e+02 1.92506445312500e+03 4 20 
1.11349523925781e+03 1.68157775878906e+03 4 21 
1.43940490722656e+03 1.45462414550781e+03 4 22 
1.74482141113281e+03 1.24348278808594e+03 4 23 
2.02922399902344e+03 1.04681567382812e+03 4 24 
2.29494091796875e+03 8.64088378906250e+02 4 25 
2.54324121093750e+03 6.93685607910156e+02 4 26 
2.77458764648438e+03 5.33605102539062e+02 4 27 
2.99135253906250e+03 3.84885406494141e+02 4 28 
3.19414648437500e+03 2.44631607055664e+02 4 29 
1.01243530273438e+03 2.17541137695312e+03 4 30 
1.36604003906250e+03 1.91361669921875e+03 4 31 
1.69567712402344e+03 1.66944250488281e+03 4 32 
2.00267175292969e+03 1.44251892089844e+03 4 33 
2.28834863281250e+03 1.23226147460938e+03 4 34 
2.55383227539062e+03 1.03634484863281e+03 4 35 
2.80093823242188e+03 8.53355407714844e+02 4 36 
3.03098583984375e+03 6.83349792480469e+02 4 37 
3.24520239257812e+03 5.25252075195312e+02 4 38 
3.44558300781250e+03 3.76711608886719e+02 4 39 
3.71106054687500e+03 5.17215209960938e+02 4 40 
3.51442651367188e+03 6.74852722167969e+02 4 41 
3.30325659179688e+03 8.43145812988281e+02 4 42 
3.07592382812500e+03 1.02427258300781e+03 4 43 
2.83070239257812e+03 1.21953588867188e+03 4 44 
2.56635571289062e+03 1.43002685546875e+03 4 45 
2.28075732421875e+03 1.65644921875000e+03 4 46 
1.97257995605469e+03 1.90090197753906e+03 4 47 
1.64058239746094e+03 2.16389208984375e+03 4 48 
1.28260656738281e+03 2.44657006835938e+03 4 49 
3.99116308593750e+03 6.66261291503906e+02 4 50 
3.79871484375000e+03 8.33946594238281e+02 4 51 
3.59210327148438e+03 1.01337817382812e+03 4 52 
3.36847875976562e+03 1.20681323242188e+03 4 53 
3.12667578125000e+03 1.41533190917969e+03 4 54 
2.86457202148438e+03 1.64115844726562e+03 4 55 
2.58044458007812e+03 1.88570104980469e+03 4 56 
2.27262963867188e+03 2.14979101562500e+03 4 57 
1.93874328613281e+03 2.43416455078125e+03 4 58 
1.57798754882812e+03 2.73985180664062e+03 4 59 
4.28685693359375e+03 8.24770690917969e+02 4 60 
4.09993359375000e+03 1.00320257568359e+03 4 61 
3.89859301757812e+03 1.19469067382812e+03 4 62 
3.68026098632812e+03 1.40115393066406e+03 4 63 
3.44304248046875e+03 1.62491418457031e+03 4 64 
3.18472412109375e+03 1.86755090332031e+03 4 65 
2.90327661132812e+03 2.13074780273438e+03 4 66 
2.59669433593750e+03 2.41695800781250e+03 4 67 
2.26347412109375e+03 2.72531274414062e+03 4 68 
4.59935791015625e+03 9.93115112304688e+02 4 69 
1.90121484375000e+03 3.05750561523438e+03 4 70 
4.22355322265625e+03 1.38743664550781e+03 4 71 
4.01139038085938e+03 1.60863073730469e+03 4 72 
3.78053588867188e+03 1.84899414062500e+03 4 73 
3.52736596679688e+03 2.10998999023438e+03 4 74 
3.25078588867188e+03 2.39412084960938e+03 4 75 
2.94737719726562e+03 2.70334399414062e+03 4 76 
4.75622460937500e+03 1.37408032226562e+03 4 77 
4.56828027343750e+03 1.59260412597656e+03 4 78 
4.36360009765625e+03 1.83001049804688e+03 4 80 
4.13983154296875e+03 2.08844116210938e+03 4 81 
3.89397924804688e+03 2.36977880859375e+03 4 82 
3.62396240234375e+03 2.67587011718750e+03 4 83 
3.32634765625000e+03 3.01058203125000e+03 4 84 
2.99906250000000e+03 3.37627880859375e+03 4 85 
2.95603686523438e+03 1.20546600341797e+02 4 86 
2.05256176757812e+03 7.02840881347656e+02 4 87 
1.85928466796875e+03 2.67920501708984e+02 4 88 
1.07358215332031e+03 7.24056823730469e+02 4 89 
7.79042602539062e+02 8.97408813476562e+02 4 90 
4.65303100585938e+02 1.08258093261719e+03 4 91 
1.31536499023438e+02 1.28009582519531e+03 4 93 
4.92920019531250e+03 1.17154003906250e+03 4 94 
