ply
format ascii 1.0
element vertex 96
property double x
property double y
property char size
property char id
end_header
1.83758605957031e+03 1.79168212890625e+03 4 0 
1.83830200195312e+03 1.43977526855469e+03 4 1 
2.19295336914062e+03 3.20664160156250e+03 4 2 
1.84192114257812e+03 7.45488891601562e+02 4 3 
1.84471752929688e+03 4.04971008300781e+02 4 4 
2.18973632812500e+03 2.49858471679688e+03 4 5 
2.18855541992188e+03 2.14388378906250e+03 4 6 
2.18750244140625e+03 1.79033264160156e+03 4 7 
2.18710888671875e+03 1.43837524414062e+03 4 8 
2.18705590820312e+03 1.08950329589844e+03 4 9 
2.18743481445312e+03 7.44479614257812e+02 4 10 
2.54432568359375e+03 3.20419653320312e+03 4 11 
2.18888452148438e+03 6.79470977783203e+01 4 12 
2.54271240234375e+03 2.85114746093750e+03 4 13 
2.54115820312500e+03 2.49693847656250e+03 4 14 
2.53945239257812e+03 2.14226489257812e+03 4 15 
2.53785156250000e+03 1.78891186523438e+03 4 16 
2.53460278320312e+03 1.08896398925781e+03 4 17 
2.53309228515625e+03 7.44310180664062e+02 4 18 
2.53189331054688e+03 4.03999298095703e+02 4 19 
2.89472192382812e+03 3.20040942382812e+03 4 20 
2.89315600585938e+03 2.84799804687500e+03 4 21 
2.89158178710938e+03 2.49428662109375e+03 4 22 
2.88926879882812e+03 2.14028222656250e+03 4 23 
2.88688330078125e+03 1.78759716796875e+03 4 24 
2.88414208984375e+03 1.43682873535156e+03 4 25 
2.88115600585938e+03 1.08880639648438e+03 4 26 
2.87809472656250e+03 7.44444885253906e+02 4 27 
2.87490527343750e+03 4.04564392089844e+02 4 28 
2.87127612304688e+03 6.88665008544922e+01 4 29 
3.24306518554688e+03 3.19533422851562e+03 4 30 
3.24159667968750e+03 2.84355590820312e+03 4 31 
3.23974902343750e+03 2.49083007812500e+03 4 32 
3.23722265625000e+03 2.13788867187500e+03 4 33 
3.23386669921875e+03 1.78618737792969e+03 4 34 
3.23025439453125e+03 1.43631494140625e+03 4 35 
3.22602709960938e+03 1.08907666015625e+03 4 36 
3.22136181640625e+03 7.45427307128906e+02 4 37 
3.21628637695312e+03 4.06337493896484e+02 4 38 
3.21092578125000e+03 7.10093002319336e+01 4 39 
3.54826000976562e+03 7.41092987060547e+01 4 40 
3.55530688476562e+03 4.08814910888672e+02 4 41 
3.56211401367188e+03 7.47196777343750e+02 4 42 
3.56826757812500e+03 1.08973315429688e+03 4 43 
3.57378906250000e+03 1.43585815429688e+03 4 44 
3.57826562500000e+03 1.78448388671875e+03 4 45 
3.58197070312500e+03 2.13498388671875e+03 4 46 
3.58490429687500e+03 2.48655957031250e+03 4 47 
3.58715771484375e+03 2.83808203125000e+03 4 48 
3.58902270507812e+03 3.18928686523438e+03 4 49 
3.88281274414062e+03 7.81017990112305e+01 4 50 
3.89135107421875e+03 4.12058898925781e+02 4 51 
3.89958764648438e+03 7.49304382324219e+02 4 52 
3.90689501953125e+03 1.09091979980469e+03 4 53 
3.91377758789062e+03 1.43550817871094e+03 4 54 
3.91913378906250e+03 1.78284277343750e+03 4 55 
3.92315234375000e+03 2.13175805664062e+03 4 56 
3.92653271484375e+03 2.48172851562500e+03 4 57 
3.92919116210938e+03 2.83200048828125e+03 4 58 
3.93153710937500e+03 3.18208081054688e+03 4 59 
4.21445458984375e+03 8.23555984497070e+01 4 60 
4.22425244140625e+03 4.15616790771484e+02 4 61 
4.23382617187500e+03 7.51917175292969e+02 4 62 
4.24250097656250e+03 1.09195214843750e+03 4 63 
4.25035644531250e+03 1.43507836914062e+03 4 64 
4.25659716796875e+03 1.78094250488281e+03 4 65 
4.26131933593750e+03 2.12816113281250e+03 4 66 
4.26469921875000e+03 2.47656542968750e+03 4 67 
4.26805322265625e+03 2.82548388671875e+03 4 68 
4.54355273437500e+03 8.69786987304688e+01 4 69 
4.27093896484375e+03 3.17426660156250e+03 4 70 
4.56486767578125e+03 7.54533874511719e+02 4 71 
4.57470458984375e+03 1.09324548339844e+03 4 72 
4.58332421875000e+03 1.43498645019531e+03 4 73 
4.59035986328125e+03 1.77906201171875e+03 4 74 
4.59594287109375e+03 2.12464501953125e+03 4 75 
4.60017578125000e+03 2.47160058593750e+03 4 76 
4.88144970703125e+03 4.22576293945312e+02 4 77 
4.89293408203125e+03 7.56801391601562e+02 4 78 
4.60709960937500e+03 3.16651318359375e+03 4 79 
4.90335693359375e+03 1.09435095214844e+03 4 80 
4.91279980468750e+03 1.43455700683594e+03 4 81 
4.92073535156250e+03 1.77724145507812e+03 4 82 
4.92749902343750e+03 2.12101318359375e+03 4 83 
4.93269433593750e+03 2.46637963867188e+03 4 84 
4.93709814453125e+03 2.81266699218750e+03 4 85 
2.53046020507812e+03 6.77822036743164e+01 4 86 
2.53619116210938e+03 1.43744909667969e+03 4 87 
1.83974340820312e+03 1.09048156738281e+03 4 88 
1.83786254882812e+03 2.14510083007812e+03 4 89 
1.83862414550781e+03 2.49965600585938e+03 4 90 
1.84005468750000e+03 2.85435571289062e+03 4 91 
4.94084960937500e+03 3.15910839843750e+03 4 92 
1.84157971191406e+03 3.20795483398438e+03 4 93 
4.86978320312500e+03 9.12068023681641e+01 4 94 
1.84754614257812e+03 6.90886001586914e+01 4 95 
