ply
format ascii 1.0
element vertex 96
property double x
property double y
property char size
property char id
end_header
4.24179394531250e+03 1.27449609375000e+03 4 0 
4.34227441406250e+03 1.58207714843750e+03 4 1 
3.59791479492188e+03 3.02617187500000e+02 4 2 
4.57375146484375e+03 2.30272778320312e+03 4 3 
4.70784326171875e+03 2.72731420898438e+03 4 4 
3.71790771484375e+03 7.43082519531250e+02 4 5 
3.78623388671875e+03 9.96571105957031e+02 4 6 
3.86054492187500e+03 1.27649121093750e+03 4 7 
3.94189208984375e+03 1.58677844238281e+03 4 8 
4.03120263671875e+03 1.93115112304688e+03 4 9 
4.12926708984375e+03 2.31456103515625e+03 4 10 
3.27507104492188e+03 2.99516113281250e+02 4 11 
4.35952001953125e+03 3.22287841796875e+03 4 12 
3.31814648437500e+03 5.10564392089844e+02 4 13 
3.36490893554688e+03 7.42221496582031e+02 4 14 
3.41651757812500e+03 9.97082275390625e+02 4 15 
3.47270068359375e+03 1.27876940917969e+03 4 16 
3.60176513671875e+03 1.93902075195312e+03 4 17 
3.67614379882812e+03 2.32492016601562e+03 4 18 
3.75840771484375e+03 2.75623168945312e+03 4 19 
2.94900073242188e+03 2.97312896728516e+02 4 20 
2.97723608398438e+03 5.09410003662109e+02 4 21 
3.00805615234375e+03 7.41984008789062e+02 4 22 
3.04170971679688e+03 9.98660095214844e+02 4 23 
3.07918212890625e+03 1.28158325195312e+03 4 24 
3.11979687500000e+03 1.59575769042969e+03 4 25 
3.16501538085938e+03 1.94490332031250e+03 4 26 
3.21507421875000e+03 2.33310717773438e+03 4 27 
3.26997705078125e+03 2.76834692382812e+03 4 28 
3.33146997070312e+03 3.25733471679688e+03 4 29 
2.62028491210938e+03 2.96105987548828e+02 4 30 
2.63329223632812e+03 5.09242706298828e+02 4 31 
2.64781005859375e+03 7.42702575683594e+02 4 32 
2.66371484375000e+03 1.00005242919922e+03 4 33 
2.68125610351562e+03 1.28477355957031e+03 4 34 
2.70073754882812e+03 1.59964282226562e+03 4 35 
2.72231030273438e+03 1.94948937988281e+03 4 36 
2.74678955078125e+03 2.34079345703125e+03 4 37 
2.77318139648438e+03 2.77887768554688e+03 4 38 
2.80333837890625e+03 3.27140551757812e+03 4 39 
2.26867919921875e+03 3.28346289062500e+03 4 40 
2.27078271484375e+03 2.78768774414062e+03 4 41 
2.27276318359375e+03 2.34728613281250e+03 4 42 
2.27527099609375e+03 1.95416979980469e+03 4 43 
2.27783447265625e+03 1.60268103027344e+03 4 44 
2.28021679687500e+03 1.28715258789062e+03 4 45 
2.28276000976562e+03 1.00222100830078e+03 4 46 
2.28521264648438e+03 7.44378417968750e+02 4 47 
2.28755053710938e+03 5.10109191894531e+02 4 48 
2.28956689453125e+03 2.95956085205078e+02 4 49 
1.73106030273438e+03 3.29180615234375e+03 4 50 
1.76599206542969e+03 2.79427636718750e+03 4 51 
1.79727795410156e+03 2.35260913085938e+03 4 52 
1.82628344726562e+03 1.95832470703125e+03 4 53 
1.85282531738281e+03 1.60532800292969e+03 4 54 
1.87789721679688e+03 1.28878698730469e+03 4 55 
1.90068286132812e+03 1.00448077392578e+03 4 56 
1.92142553710938e+03 7.46502502441406e+02 4 57 
1.94050964355469e+03 5.11553588867188e+02 4 58 
1.95782519531250e+03 2.96711395263672e+02 4 59 
1.19214306640625e+03 3.29827685546875e+03 4 60 
1.26010656738281e+03 2.79925073242188e+03 4 61 
1.32120007324219e+03 2.35650561523438e+03 4 62 
1.37694006347656e+03 1.96111962890625e+03 4 63 
1.42779602050781e+03 1.60763159179688e+03 4 64 
1.47473974609375e+03 1.29080163574219e+03 4 65 
1.51792126464844e+03 1.00583312988281e+03 4 66 
1.55726501464844e+03 7.48493713378906e+02 4 67 
1.59296765136719e+03 5.13523986816406e+02 4 68 
6.53574829101562e+02 3.30366528320312e+03 4 69 
1.62562731933594e+03 2.98388214111328e+02 4 70 
8.46006225585938e+02 2.35924755859375e+03 4 71 
9.28675476074219e+02 1.96351940917969e+03 4 72 
1.00350152587891e+03 1.61001672363281e+03 4 73 
1.07214477539062e+03 1.29284814453125e+03 4 74 
1.13517700195312e+03 1.00761791992188e+03 4 75 
1.19259460449219e+03 7.49907897949219e+02 4 76 
2.52013107299805e+02 2.80586425781250e+03 4 77 
3.73000000000000e+02 2.36157788085938e+03 4 78 
1.29320446777344e+03 3.00720611572266e+02 4 79 
4.82352996826172e+02 1.96588159179688e+03 4 80 
5.80719726562500e+02 1.61237780761719e+03 4 81 
6.71274597167969e+02 1.29502465820312e+03 4 82 
7.53312072753906e+02 1.00959008789062e+03 4 83 
8.29336914062500e+02 7.51061706542969e+02 4 84 
8.97824096679688e+02 5.16698486328125e+02 4 85 
3.85089501953125e+03 3.24047021484375e+03 4 86 
3.53430078125000e+03 1.59157543945312e+03 4 87 
4.45233203125000e+03 1.92296813964844e+03 4 88 
4.14973486328125e+03 9.96902099609375e+02 4 89 
4.06539160156250e+03 7.44995483398438e+02 4 90 
3.98787646484375e+03 5.15331909179688e+02 4 91 
9.61273315429688e+02 3.03147888183594e+02 4 92 
3.91701684570312e+03 3.05950500488281e+02 4 93 
1.14636398315430e+02 3.30920312500000e+03 4 94 
4.85868310546875e+03 3.20441552734375e+03 4 95 
