ply
format ascii 1.0
element vertex 90
property double x
property double y
property char size
property char id
end_header
3.64474731445312e+03 2.50251928710938e+03 4 0 
3.50618774414062e+03 2.72337768554688e+03 4 1 
4.01807470703125e+03 1.53216076660156e+03 4 2 
3.20792138671875e+03 3.19518090820312e+03 4 3 
3.77450048828125e+03 1.90988720703125e+03 4 5 
3.64315161132812e+03 2.11266918945312e+03 4 6 
3.50472265625000e+03 2.32508740234375e+03 4 7 
3.35893530273438e+03 2.54743920898438e+03 4 8 
3.20573071289062e+03 2.78037890625000e+03 4 9 
3.04500903320312e+03 3.02391088867188e+03 4 10 
3.89583447265625e+03 1.34356225585938e+03 4 11 
3.77126074218750e+03 1.52781616210938e+03 4 13 
3.64009765625000e+03 1.72128210449219e+03 4 14 
3.50223291015625e+03 1.92456237792969e+03 4 15 
3.35694921875000e+03 2.13775976562500e+03 4 16 
3.04226269531250e+03 2.59642407226562e+03 4 17 
2.87358642578125e+03 2.84235156250000e+03 4 18 
2.69689135742188e+03 3.09981030273438e+03 4 19 
3.76732861328125e+03 1.14668005371094e+03 4 20 
3.63657885742188e+03 1.33007214355469e+03 4 21 
3.49891870117188e+03 1.52340954589844e+03 4 22 
3.35353662109375e+03 1.72672119140625e+03 4 23 
3.20092041015625e+03 1.94049377441406e+03 4 24 
3.03979907226562e+03 2.16528027343750e+03 4 25 
2.87057080078125e+03 2.40161328125000e+03 4 26 
2.69343408203125e+03 2.65009667968750e+03 4 27 
2.50680078125000e+03 2.91035498046875e+03 4 28 
2.31114526367188e+03 3.18409863281250e+03 4 29 
3.63252563476562e+03 9.40681518554688e+02 4 30 
3.49487890625000e+03 1.12314575195312e+03 4 31 
3.35028271484375e+03 1.31583154296875e+03 4 32 
3.19753906250000e+03 1.51871435546875e+03 4 33 
3.03656689453125e+03 1.73265844726562e+03 4 34 
2.86736669921875e+03 1.95790295410156e+03 4 35 
2.68960571289062e+03 2.19575488281250e+03 4 36 
2.50232250976562e+03 2.44584399414062e+03 4 37 
2.30518066406250e+03 2.70861132812500e+03 4 38 
2.09794750976562e+03 2.98559912109375e+03 4 39 
1.87154956054688e+03 2.77370043945312e+03 4 40 
2.09109106445312e+03 2.49398486328125e+03 4 41 
2.29986669921875e+03 2.22906640625000e+03 4 42 
2.49814501953125e+03 1.97741479492188e+03 4 43 
2.68602465820312e+03 1.73923254394531e+03 4 44 
2.86400659179688e+03 1.51383044433594e+03 4 45 
3.03326977539062e+03 1.30026281738281e+03 4 46 
3.19374096679688e+03 1.09803161621094e+03 4 47 
3.34604028320312e+03 9.06900817871094e+02 4 48 
3.49081616210938e+03 7.25737609863281e+02 4 49 
1.63150793457031e+03 2.54772729492188e+03 4 50 
1.86444519042969e+03 2.26572534179688e+03 4 51 
2.08580541992188e+03 1.99911169433594e+03 4 52 
2.29566503906250e+03 1.74685229492188e+03 4 53 
2.49483715820312e+03 1.50837255859375e+03 4 54 
2.68313110351562e+03 1.28315869140625e+03 4 55 
2.86088989257812e+03 1.07086804199219e+03 4 56 
3.02958740234375e+03 8.69991088867188e+02 4 57 
3.18990014648438e+03 6.80337524414062e+02 4 58 
3.34228686523438e+03 5.01052886962891e+02 4 59 
1.37658044433594e+03 2.30667504882812e+03 4 60 
1.62438403320312e+03 2.02268652343750e+03 4 61 
1.85918750000000e+03 1.75510644531250e+03 4 62 
2.08228540039062e+03 1.50265075683594e+03 4 63 
2.29310083007812e+03 1.26441186523438e+03 4 64 
2.49235791015625e+03 1.04035156250000e+03 4 65 
2.68018603515625e+03 8.29546203613281e+02 4 66 
2.85757275390625e+03 6.30814208984375e+02 4 67 
3.02604809570312e+03 4.43304290771484e+02 4 68 
1.10641259765625e+03 2.04955957031250e+03 4 69 
3.18632324218750e+03 2.66280090332031e+02 4 70 
1.62039672851562e+03 1.49653735351562e+03 4 71 
1.85701074218750e+03 1.24409484863281e+03 4 72 
2.08045703125000e+03 1.00713842773438e+03 4 73 
2.29158325195312e+03 7.84804687500000e+02 4 74 
2.49025097656250e+03 5.76102294921875e+02 4 75 
2.67766162109375e+03 3.79959411621094e+02 4 76 
1.10202307128906e+03 1.49025097656250e+03 4 77 
1.36806335449219e+03 1.22267651367188e+03 4 78 
1.61951501464844e+03 9.71639770507812e+02 4 80 
1.85642834472656e+03 7.36167419433594e+02 4 81 
2.08025146484375e+03 5.16269226074219e+02 4 82 
2.29062915039062e+03 3.10281097412109e+02 4 83 
2.48906372070312e+03 1.17239402770996e+02 4 84 
2.51196020507812e+03 3.37032006835938e+03 4 86 
3.20357885742188e+03 2.36172241210938e+03 4 87 
3.36062451171875e+03 2.95422680664062e+03 4 88 
3.77648632812500e+03 2.29132983398438e+03 4 89 
3.90167114257812e+03 2.08941650390625e+03 4 90 
4.02112988281250e+03 1.89652416992188e+03 4 91 
4.13478417968750e+03 1.71224328613281e+03 4 93 
8.20325195312500e+02 1.77556079101562e+03 4 94 
