ply
format ascii 1.0
element vertex 84
property double x
property double y
property char size
property char id
end_header
4.51837841796875e+03 1.59722985839844e+03 4 0 
4.52933496093750e+03 1.92593566894531e+03 4 1 
4.23204248046875e+03 2.62593505859375e+02 4 2 
4.54777880859375e+03 2.58874658203125e+03 4 3 
4.55533593750000e+03 2.92178784179688e+03 4 4 
4.25939794921875e+03 9.17452209472656e+02 4 5 
4.27204882812500e+03 1.25137646484375e+03 4 6 
4.28328857421875e+03 1.58856176757812e+03 4 7 
4.29321972656250e+03 1.92876855468750e+03 4 8 
4.30217285156250e+03 2.27042089843750e+03 4 9 
4.31012402343750e+03 2.61390258789062e+03 4 10 
3.98285205078125e+03 2.07850494384766e+02 4 11 
4.32612841796875e+03 3.30322119140625e+03 4 12 
3.99574291992188e+03 5.43523925781250e+02 4 13 
4.00805761718750e+03 8.84267089843750e+02 4 14 
4.02008959960938e+03 1.22990148925781e+03 4 15 
4.03079150390625e+03 1.57895349121094e+03 4 16 
4.04821801757812e+03 2.28525659179688e+03 4 17 
4.05632324218750e+03 2.64080834960938e+03 4 18 
4.06424340820312e+03 2.99685913085938e+03 4 19 
3.71575561523438e+03 1.49835205078125e+02 4 20 
3.72726538085938e+03 4.96714691162109e+02 4 21 
3.73857250976562e+03 8.49117004394531e+02 4 22 
3.74904638671875e+03 1.20699621582031e+03 4 23 
3.75921997070312e+03 1.56873022460938e+03 4 24 
3.76811083984375e+03 1.93363378906250e+03 4 25 
3.77637939453125e+03 2.30101293945312e+03 4 26 
3.78501391601562e+03 2.66971459960938e+03 4 27 
3.79245581054688e+03 3.03892919921875e+03 4 28 
3.42914428710938e+03 8.83005981445312e+01 4 30 
3.43873950195312e+03 4.46882812500000e+02 4 31 
3.44878833007812e+03 8.11918029785156e+02 4 32 
3.45822827148438e+03 1.18255895996094e+03 4 33 
3.46693969726562e+03 1.55769067382812e+03 4 34 
3.47577929687500e+03 1.93633288574219e+03 4 35 
3.48432373046875e+03 2.31781396484375e+03 4 36 
3.49217260742188e+03 2.70065869140625e+03 4 37 
3.49927734375000e+03 3.08366259765625e+03 4 38 
3.18263208007812e+03 3.13109545898438e+03 4 41 
3.17585449218750e+03 2.73310791015625e+03 4 42 
3.16851123046875e+03 2.33546875000000e+03 4 43 
3.16073852539062e+03 1.93925878906250e+03 4 44 
3.15258471679688e+03 1.54582714843750e+03 4 45 
3.14479638671875e+03 1.15676953125000e+03 4 46 
3.13654125976562e+03 7.72406005859375e+02 4 47 
3.12846826171875e+03 3.94500305175781e+02 4 48 
2.84064404296875e+03 3.18116162109375e+03 4 51 
2.83402880859375e+03 2.76772631835938e+03 4 52 
2.82702734375000e+03 2.35428393554688e+03 4 53 
2.82057397460938e+03 1.94214648437500e+03 4 54 
2.81387915039062e+03 1.53315405273438e+03 4 55 
2.80700683593750e+03 1.12913537597656e+03 4 56 
2.80056323242188e+03 7.30743591308594e+02 4 57 
2.79471142578125e+03 3.39032806396484e+02 4 58 
2.47070581054688e+03 3.23412475585938e+03 4 61 
2.46411669921875e+03 2.80430761718750e+03 4 62 
2.45831811523438e+03 2.37390942382812e+03 4 63 
2.45288818359375e+03 1.94538342285156e+03 4 64 
2.44789453125000e+03 1.52000256347656e+03 4 65 
2.44298730468750e+03 1.09969482421875e+03 4 66 
2.43841577148438e+03 6.86416992187500e+02 4 67 
2.43488989257812e+03 2.80224304199219e+02 4 68 
2.06427514648438e+03 2.84247387695312e+03 4 71 
2.05899023437500e+03 2.39484912109375e+03 4 72 
2.05482104492188e+03 1.94841772460938e+03 4 73 
2.05195849609375e+03 1.50566845703125e+03 4 74 
2.04972094726562e+03 1.06875634765625e+03 4 75 
2.04820898437500e+03 6.38992309570312e+02 4 76 
1.63735314941406e+03 3.34924462890625e+03 4 77 
1.63166027832031e+03 2.88264111328125e+03 4 78 
1.62746875000000e+03 2.41611279296875e+03 4 80 
1.62478027343750e+03 1.95135437011719e+03 4 81 
1.62419616699219e+03 1.49012048339844e+03 4 82 
1.62520275878906e+03 1.03622656250000e+03 4 83 
1.62758605957031e+03 5.89592590332031e+02 4 84 
1.63075378417969e+03 1.52105392456055e+02 4 85 
4.07272998046875e+03 3.35447729492188e+03 4 86 
4.03988989257812e+03 1.93095178222656e+03 4 87 
4.53902441406250e+03 2.25658471679688e+03 4 88 
4.50638623046875e+03 1.27130590820312e+03 4 89 
4.49325732421875e+03 9.48407409667969e+02 4 90 
4.47949707031250e+03 6.28922790527344e+02 4 91 
4.46538427734375e+03 3.13961486816406e+02 4 93 
4.56300732421875e+03 3.25526171875000e+03 4 95 
