ply
format ascii 1.0
element vertex 1846
property uchar red
property uchar green
property uchar blue
end_header
144 135 134 
182 181 177 
187 187 186 
143 158 162 
171 207 186 
160 164 166 
186 214 193 
154 162 161 
138 146 150 
176 180 176 
129 139 142 
179 185 182 
140 149 152 
186 177 161 
228 225 213 
195 195 194 
178 163 155 
171 172 170 
176 212 193 
146 148 151 
168 177 179 
166 162 156 
133 141 142 
150 150 148 
135 131 124 
156 167 170 
106 110 111 
91 100 96 
125 142 138 
121 132 135 
153 159 161 
137 144 146 
176 177 175 
164 172 173 
117 116 117 
105 114 117 
167 159 131 
99 109 114 
72 90 100 
155 149 148 
134 137 135 
103 111 109 
135 137 140 
157 157 152 
145 152 155 
177 181 184 
174 176 176 
166 167 167 
182 186 184 
177 181 180 
181 185 184 
182 218 200 
167 173 177 
108 115 119 
54 77 91 
48 69 82 
84 98 99 
72 92 102 
50 77 89 
66 91 95 
68 83 97 
25 59 75 
134 144 149 
146 147 149 
95 109 116 
114 127 129 
143 140 134 
149 161 167 
124 120 122 
154 155 157 
112 120 127 
159 166 169 
165 167 168 
141 148 150 
120 132 137 
128 128 125 
159 147 143 
85 92 98 
162 171 174 
190 186 179 
149 155 156 
212 212 206 
176 211 193 
146 152 153 
226 223 210 
157 163 164 
211 210 204 
157 154 142 
128 132 135 
207 208 207 
123 130 132 
181 183 180 
181 179 174 
156 167 171 
114 126 128 
65 79 85 
94 112 114 
105 111 115 
111 108 99 
101 109 112 
141 132 125 
58 76 87 
96 111 115 
118 122 125 
97 115 120 
110 107 98 
179 175 171 
95 111 121 
110 125 129 
153 156 158 
152 160 164 
103 110 115 
144 151 151 
144 149 141 
129 123 127 
168 168 169 
180 177 174 
160 159 157 
169 165 163 
111 119 128 
138 141 137 
111 128 138 
152 145 137 
140 117 119 
102 113 120 
111 110 114 
107 122 130 
150 156 157 
176 183 181 
113 122 115 
142 140 136 
147 152 153 
172 170 162 
128 133 137 
157 142 142 
162 165 162 
116 132 133 
170 169 162 
148 149 148 
167 149 147 
135 136 138 
167 162 153 
112 122 129 
171 170 165 
170 175 176 
183 181 177 
171 175 173 
173 178 181 
176 175 172 
179 186 189 
132 142 148 
172 169 168 
126 132 132 
190 191 188 
178 177 172 
175 171 170 
185 184 181 
194 201 204 
199 187 171 
226 220 217 
228 227 223 
195 194 191 
183 191 191 
179 184 184 
123 137 142 
151 151 146 
168 173 172 
166 173 177 
170 171 169 
161 167 167 
156 154 150 
223 221 215 
171 182 183 
153 160 155 
136 144 147 
183 175 166 
209 208 203 
141 146 149 
202 200 195 
207 206 199 
167 172 173 
180 185 187 
190 188 184 
131 139 139 
208 211 208 
222 213 212 
198 194 189 
170 180 183 
169 170 169 
205 202 198 
171 171 168 
183 184 183 
151 154 156 
186 185 180 
174 171 171 
202 200 193 
178 183 179 
208 206 201 
161 163 168 
180 153 150 
175 179 180 
178 166 141 
165 174 175 
160 168 169 
207 209 207 
219 217 210 
167 176 182 
159 159 160 
149 161 165 
142 155 158 
194 192 185 
175 184 187 
175 176 177 
208 207 199 
190 188 183 
192 190 186 
187 193 195 
192 187 184 
187 186 183 
158 163 163 
127 144 121 
136 148 157 
164 155 156 
155 158 160 
139 148 151 
138 142 145 
138 146 148 
117 125 130 
175 174 169 
94 112 124 
112 115 118 
130 139 143 
138 146 150 
119 132 138 
183 184 177 
119 131 136 
139 141 143 
162 162 161 
128 129 135 
158 160 158 
136 142 147 
154 157 162 
165 130 130 
116 141 128 
129 122 124 
119 132 135 
111 128 136 
165 177 177 
131 140 146 
157 157 156 
153 166 168 
211 221 223 
228 230 231 
214 215 211 
245 245 242 
245 245 243 
203 204 193 
248 243 223 
249 250 248 
202 205 204 
231 234 234 
216 221 220 
226 229 227 
239 239 234 
206 210 212 
225 218 204 
229 232 229 
210 218 217 
214 200 181 
206 212 215 
248 245 237 
243 243 239 
202 200 195 
191 183 178 
175 173 166 
133 144 149 
196 195 191 
196 201 199 
173 173 173 
156 165 168 
156 150 154 
203 202 197 
134 149 151 
178 185 186 
147 159 164 
179 177 176 
132 128 128 
175 172 170 
186 186 181 
149 161 167 
223 224 224 
139 141 138 
197 196 189 
199 196 191 
180 180 177 
175 173 168 
167 180 181 
185 189 190 
160 155 157 
183 178 168 
193 193 189 
183 152 149 
166 170 172 
176 175 171 
126 141 149 
166 174 178 
197 200 188 
223 217 210 
173 178 178 
127 135 138 
152 160 161 
164 167 169 
184 178 174 
164 167 167 
199 198 193 
194 192 188 
183 183 180 
167 163 162 
164 178 182 
156 156 151 
170 168 160 
160 113 113 
164 166 166 
84 101 107 
98 110 119 
156 154 149 
147 160 162 
115 125 132 
177 173 164 
135 139 142 
170 158 136 
166 156 138 
140 147 149 
167 140 141 
139 140 144 
145 142 146 
137 149 155 
185 188 186 
142 123 126 
148 128 130 
124 113 120 
114 127 132 
161 161 158 
113 125 132 
158 159 162 
102 118 127 
125 134 138 
145 146 148 
187 181 177 
125 130 137 
145 148 145 
127 127 128 
131 138 142 
107 116 127 
171 172 172 
190 190 188 
203 202 195 
233 237 240 
213 213 212 
236 237 237 
250 250 247 
192 191 182 
206 213 212 
206 211 213 
238 241 237 
221 224 222 
206 212 214 
243 244 241 
213 219 220 
183 181 179 
222 212 196 
192 194 187 
204 211 215 
194 193 184 
146 149 149 
137 143 144 
128 135 136 
138 142 146 
209 210 208 
126 135 139 
137 154 160 
143 147 146 
148 149 150 
156 161 162 
179 176 172 
206 204 197 
179 180 180 
195 193 190 
172 167 160 
168 166 165 
137 144 149 
130 132 133 
147 154 154 
202 193 153 
111 120 125 
131 141 141 
130 138 135 
168 177 178 
137 135 126 
148 146 141 
146 144 143 
137 137 136 
126 124 120 
163 166 160 
123 123 117 
136 138 139 
132 136 138 
170 172 168 
147 145 143 
145 148 144 
143 146 149 
149 149 147 
172 174 173 
164 174 177 
177 174 167 
179 167 161 
105 130 136 
134 140 142 
129 129 131 
164 167 164 
138 137 139 
137 135 135 
112 114 118 
107 117 123 
133 137 137 
107 120 124 
128 123 119 
116 129 136 
115 124 127 
113 122 124 
153 159 160 
150 152 150 
168 170 172 
174 176 175 
138 147 152 
142 153 155 
147 152 155 
146 147 147 
157 161 163 
124 123 126 
160 154 139 
161 161 151 
173 179 181 
161 161 159 
150 159 161 
162 165 163 
131 132 133 
81 97 105 
71 85 88 
94 110 117 
53 75 88 
47 86 83 
46 81 84 
143 135 133 
144 143 135 
150 149 144 
133 139 141 
109 121 127 
141 149 151 
136 135 120 
161 161 156 
109 124 132 
163 161 158 
161 167 170 
175 181 182 
129 134 135 
213 208 202 
144 147 146 
136 140 143 
124 120 114 
118 120 120 
201 196 189 
145 143 140 
153 162 159 
170 170 171 
214 209 201 
116 122 126 
187 188 187 
209 206 203 
167 169 169 
142 142 139 
163 167 168 
165 171 167 
102 115 117 
119 131 132 
94 111 119 
54 79 91 
74 96 102 
79 95 105 
131 144 145 
118 125 126 
87 92 101 
107 125 130 
101 110 113 
80 95 107 
79 91 97 
125 134 138 
154 164 168 
118 126 133 
143 140 140 
147 142 140 
129 117 120 
171 168 160 
114 106 107 
84 97 110 
116 125 130 
130 138 145 
137 124 119 
150 164 165 
170 163 166 
146 153 156 
162 156 124 
163 169 172 
112 128 136 
164 141 143 
157 156 154 
102 120 127 
138 139 139 
94 98 107 
95 106 116 
145 145 146 
140 136 136 
157 148 136 
129 110 115 
140 142 149 
132 136 136 
152 159 160 
168 166 162 
118 129 132 
189 189 189 
132 128 132 
126 142 148 
90 109 121 
161 158 153 
159 150 148 
104 115 124 
164 162 158 
151 161 163 
124 135 112 
125 139 144 
103 118 124 
146 122 126 
120 122 127 
110 126 128 
170 156 152 
170 123 124 
194 152 147 
100 115 123 
124 136 142 
107 118 122 
155 149 150 
99 114 120 
141 143 147 
109 121 130 
107 122 131 
174 172 174 
200 204 203 
166 169 170 
168 168 165 
162 171 174 
163 164 165 
129 132 137 
141 152 160 
189 195 197 
192 195 194 
167 179 182 
168 172 168 
182 183 175 
194 190 183 
192 192 191 
190 190 188 
170 169 165 
185 185 179 
149 140 140 
187 186 182 
182 191 194 
181 178 172 
118 126 132 
112 127 136 
183 181 180 
163 168 166 
182 184 186 
167 173 174 
148 167 171 
211 209 205 
189 187 180 
173 179 181 
181 179 175 
204 200 196 
172 174 172 
163 167 169 
179 183 184 
173 176 177 
135 141 146 
160 163 165 
172 177 176 
188 186 182 
145 150 150 
96 108 118 
188 189 189 
178 176 171 
219 219 217 
172 176 177 
165 173 175 
154 164 170 
161 175 174 
147 148 152 
186 183 178 
221 221 220 
197 196 178 
174 175 174 
207 206 202 
187 186 184 
151 149 146 
127 138 147 
166 178 183 
179 178 177 
122 130 136 
142 151 158 
98 112 121 
176 159 158 
148 153 154 
143 140 134 
123 137 144 
181 179 172 
153 138 139 
110 119 131 
191 185 180 
135 143 148 
118 125 128 
135 140 141 
117 129 118 
130 134 129 
136 137 138 
119 130 135 
133 132 133 
146 149 152 
157 155 154 
129 138 145 
154 169 142 
141 133 137 
93 111 123 
117 127 133 
123 135 140 
153 145 139 
152 143 142 
163 167 166 
130 144 150 
113 126 132 
162 167 166 
149 153 154 
143 120 123 
153 135 137 
169 168 163 
139 134 137 
147 151 150 
122 122 126 
140 148 145 
161 157 151 
91 99 107 
123 130 133 
122 123 119 
166 174 176 
142 144 145 
122 126 129 
193 140 135 
204 212 213 
212 218 218 
207 208 204 
230 228 223 
227 230 231 
215 221 223 
219 202 204 
239 241 242 
190 196 197 
206 197 184 
222 225 226 
214 206 194 
226 227 226 
189 200 201 
215 220 221 
236 230 222 
213 214 213 
246 246 243 
202 201 196 
222 224 223 
165 163 155 
148 154 158 
162 174 179 
166 175 176 
145 157 161 
189 188 184 
174 176 176 
132 146 154 
149 151 154 
131 120 118 
138 144 144 
157 168 172 
194 189 184 
161 168 170 
163 157 158 
184 172 170 
197 197 195 
214 212 205 
181 186 186 
175 173 170 
171 183 188 
163 164 163 
194 190 183 
158 157 153 
97 117 125 
190 188 186 
172 170 168 
176 174 172 
201 196 188 
175 176 165 
189 187 182 
185 180 178 
180 178 173 
182 177 174 
115 129 138 
199 195 193 
179 180 176 
121 136 146 
162 176 182 
156 141 139 
162 166 168 
141 147 151 
114 124 129 
144 114 116 
133 137 140 
133 142 149 
102 114 120 
165 165 166 
139 148 138 
168 168 168 
94 106 115 
96 108 118 
99 119 130 
84 100 112 
141 148 151 
130 140 146 
164 164 156 
161 163 167 
130 144 144 
120 130 132 
136 142 149 
159 150 150 
155 161 163 
119 127 133 
160 175 179 
157 155 150 
143 120 123 
76 97 110 
153 152 147 
154 153 154 
130 143 148 
100 108 117 
148 163 164 
137 155 153 
165 159 155 
130 141 147 
117 121 127 
142 141 140 
159 158 158 
154 153 139 
123 144 121 
139 146 150 
175 181 180 
124 140 144 
145 150 149 
97 114 121 
167 164 170 
149 148 148 
130 143 149 
180 175 170 
130 138 132 
155 153 156 
124 136 143 
102 116 125 
98 113 121 
162 157 150 
164 174 178 
85 103 103 
127 128 125 
153 149 148 
135 126 128 
116 120 130 
154 152 150 
99 112 119 
91 119 92 
171 178 181 
215 219 218 
245 244 243 
187 196 200 
146 159 165 
237 237 235 
247 248 245 
243 245 244 
228 233 232 
216 234 236 
227 223 221 
220 211 199 
206 210 207 
202 206 205 
148 171 175 
240 240 237 
224 233 234 
237 240 241 
234 235 232 
236 239 239 
203 208 199 
216 218 218 
193 197 199 
204 204 197 
196 193 185 
185 193 194 
174 185 188 
145 160 163 
181 179 179 
181 184 183 
191 190 183 
172 166 161 
160 162 163 
102 107 106 
103 115 119 
163 167 168 
164 163 164 
172 169 163 
137 145 147 
108 119 125 
169 165 158 
177 172 162 
129 138 139 
36 66 80 
101 107 111 
128 125 123 
142 144 139 
123 127 129 
129 128 129 
201 201 197 
176 179 179 
122 137 142 
191 181 142 
137 145 148 
178 177 172 
184 189 188 
143 134 129 
94 103 103 
131 114 112 
92 106 112 
104 114 124 
126 131 133 
177 139 136 
152 126 126 
118 112 114 
189 188 182 
165 167 163 
112 124 130 
193 191 187 
175 177 176 
156 123 124 
161 157 153 
102 114 124 
146 142 145 
106 116 123 
177 172 168 
127 145 127 
142 136 139 
131 141 145 
170 172 169 
193 192 188 
159 145 140 
142 145 144 
161 149 152 
87 105 114 
179 182 183 
177 174 176 
182 179 177 
212 213 212 
194 195 193 
178 178 175 
158 166 159 
128 138 146 
151 162 166 
170 170 169 
169 178 181 
113 125 132 
167 171 170 
126 128 133 
157 151 143 
145 119 124 
86 96 105 
133 143 146 
111 117 121 
152 159 161 
154 147 137 
124 131 134 
133 138 140 
153 151 146 
117 122 124 
136 136 138 
179 146 140 
126 135 134 
155 161 164 
124 132 136 
120 136 141 
97 117 107 
129 119 123 
176 173 165 
153 148 151 
241 243 242 
208 212 213 
183 189 191 
249 249 247 
162 164 164 
172 170 171 
174 162 165 
180 181 182 
177 177 173 
171 173 171 
137 145 146 
203 200 195 
212 212 211 
188 185 180 
110 120 117 
223 222 222 
203 197 185 
171 180 183 
191 188 182 
203 202 197 
172 175 177 
129 151 159 
119 128 132 
146 147 147 
165 165 162 
150 161 163 
134 135 134 
130 123 127 
118 106 111 
136 136 135 
148 149 147 
159 167 169 
140 150 156 
139 129 132 
173 150 150 
147 149 151 
116 131 142 
157 155 152 
131 139 143 
128 128 134 
135 103 107 
125 129 131 
121 121 127 
175 147 144 
112 131 120 
194 197 191 
220 215 211 
186 188 184 
170 180 182 
161 165 164 
47 78 85 
147 144 131 
121 127 128 
156 155 156 
160 163 160 
139 149 156 
185 184 179 
136 146 149 
159 164 165 
212 208 199 
179 176 168 
223 223 219 
165 173 178 
129 136 139 
201 184 174 
83 95 102 
97 106 111 
140 147 150 
145 164 157 
123 132 135 
183 182 178 
159 162 162 
226 225 220 
191 191 188 
145 147 145 
196 199 200 
204 190 169 
135 140 141 
198 198 195 
75 92 101 
115 112 114 
135 139 139 
128 139 139 
170 175 175 
188 187 184 
146 150 149 
147 156 157 
139 137 129 
125 124 129 
113 125 129 
90 101 107 
151 164 169 
152 147 142 
159 142 141 
79 84 87 
37 74 77 
214 217 217 
158 160 157 
149 142 136 
133 142 144 
181 182 180 
196 191 186 
166 172 175 
160 164 164 
198 205 208 
163 169 170 
182 187 187 
178 184 168 
175 182 187 
157 170 175 
139 151 156 
131 138 139 
159 157 151 
171 180 182 
187 187 180 
141 143 135 
153 162 165 
173 163 151 
134 146 150 
172 171 167 
172 162 152 
201 203 200 
168 170 166 
157 168 173 
178 182 178 
181 173 158 
162 168 168 
169 172 175 
186 175 159 
179 171 160 
152 141 135 
154 142 136 
165 149 144 
103 113 121 
128 118 110 
169 172 167 
138 134 128 
137 141 141 
129 137 137 
119 114 116 
143 139 134 
100 107 112 
100 102 105 
108 110 110 
128 128 126 
146 149 142 
152 156 154 
166 166 163 
135 131 125 
142 137 129 
145 142 135 
194 195 191 
100 116 123 
189 193 191 
154 140 135 
185 181 178 
165 167 160 
164 169 167 
175 184 187 
153 150 146 
165 173 174 
113 124 126 
138 135 135 
171 181 182 
210 211 209 
167 160 160 
169 173 170 
173 173 169 
157 165 167 
171 172 170 
170 172 171 
197 200 196 
170 177 180 
215 212 206 
206 206 199 
183 185 183 
173 176 168 
145 157 160 
165 166 157 
170 184 191 
193 196 194 
169 171 171 
170 171 169 
155 162 150 
181 177 180 
202 194 180 
222 224 219 
209 212 212 
215 214 208 
186 188 185 
204 208 208 
246 247 244 
206 209 208 
138 144 143 
249 249 244 
214 216 216 
200 191 173 
211 214 213 
145 147 149 
146 125 126 
112 124 130 
160 169 171 
147 154 155 
35 68 78 
48 81 81 
102 126 116 
134 145 124 
162 166 165 
102 114 124 
110 117 123 
105 120 127 
177 133 129 
80 103 118 
93 112 121 
121 132 138 
139 137 126 
155 155 152 
145 152 154 
160 162 162 
163 154 155 
125 134 137 
148 157 140 
177 181 177 
120 133 138 
178 177 173 
162 165 163 
158 159 157 
154 159 159 
149 155 157 
117 132 140 
183 176 171 
121 135 146 
148 152 155 
156 158 155 
137 111 114 
152 160 161 
127 111 115 
138 147 149 
74 96 93 
74 99 94 
111 116 118 
132 134 138 
139 144 147 
66 90 92 
159 147 150 
79 91 105 
176 183 184 
160 166 170 
137 145 151 
151 159 160 
151 152 149 
156 159 159 
152 155 133 
173 162 157 
169 171 164 
120 131 137 
119 128 136 
127 137 144 
122 130 132 
141 148 148 
147 157 159 
111 124 129 
121 130 133 
131 136 140 
163 159 150 
130 140 144 
117 128 134 
86 98 101 
111 126 132 
131 137 143 
102 119 129 
101 110 119 
126 138 142 
150 151 148 
96 106 113 
127 131 134 
172 172 167 
116 130 136 
118 123 129 
165 167 165 
167 167 163 
147 133 129 
155 154 154 
129 144 117 
125 135 137 
106 129 137 
133 132 132 
124 133 137 
43 77 80 
148 156 158 
110 119 124 
154 157 148 
103 114 119 
98 117 128 
148 148 149 
157 161 158 
128 135 134 
161 169 168 
132 130 117 
85 100 106 
128 130 121 
126 135 141 
77 105 99 
121 138 117 
141 144 144 
89 104 111 
99 110 120 
85 108 122 
91 107 117 
131 130 134 
158 167 171 
147 154 158 
146 153 154 
159 160 161 
196 194 187 
120 129 134 
128 135 137 
151 163 166 
138 151 130 
157 162 161 
121 132 137 
160 170 172 
134 130 132 
151 154 145 
127 128 132 
78 94 101 
108 127 97 
60 85 84 
166 169 169 
185 182 177 
155 161 164 
149 150 139 
118 127 136 
138 144 147 
103 119 124 
97 112 118 
127 135 138 
158 163 165 
154 154 148 
91 113 122 
90 110 118 
82 104 117 
145 153 155 
147 151 153 
185 135 128 
105 115 122 
118 133 142 
132 140 139 
112 130 141 
117 131 138 
124 140 144 
97 119 118 
181 182 178 
125 147 141 
151 157 159 
196 196 191 
199 200 193 
187 196 193 
177 184 185 
160 162 162 
183 182 180 
156 167 173 
149 154 155 
147 153 157 
188 184 166 
182 181 177 
210 205 197 
188 185 180 
171 177 177 
167 172 172 
173 171 171 
178 184 187 
204 206 204 
179 174 169 
145 151 155 
193 192 190 
177 177 175 
209 214 213 
186 191 193 
168 169 168 
184 192 193 
163 161 153 
130 145 152 
141 136 139 
173 179 182 
145 160 164 
194 200 201 
174 180 180 
186 178 166 
168 170 169 
204 194 179 
242 241 234 
247 247 247 
249 250 250 
243 244 243 
243 244 244 
177 183 184 
214 216 209 
182 186 190 
215 218 216 
227 223 216 
128 132 132 
87 102 110 
178 182 183 
170 173 172 
157 153 154 
66 89 101 
148 149 149 
141 146 145 
120 129 131 
124 135 141 
112 124 132 
132 113 115 
133 136 137 
96 109 114 
61 90 82 
99 118 93 
79 100 104 
100 113 116 
169 167 156 
153 159 160 
114 120 125 
71 90 101 
112 127 131 
102 111 118 
141 140 138 
112 119 123 
144 158 161 
169 171 170 
168 163 155 
155 162 163 
141 148 152 
142 148 149 
125 137 142 
169 172 172 
155 161 159 
140 139 138 
107 108 115 
80 104 109 
156 155 153 
146 144 142 
150 148 147 
86 100 108 
168 171 160 
153 156 146 
148 149 146 
79 102 87 
107 121 122 
158 153 142 
180 176 161 
139 146 147 
105 115 119 
115 122 125 
82 105 94 
84 97 103 
119 125 128 
180 180 176 
137 142 144 
126 122 123 
142 148 149 
152 156 154 
150 141 144 
156 155 149 
118 125 130 
117 128 135 
144 151 155 
136 136 133 
51 73 83 
162 167 170 
161 168 170 
172 170 167 
166 168 166 
130 133 133 
173 175 174 
130 142 117 
162 170 168 
148 132 133 
196 194 188 
217 216 208 
119 125 129 
137 138 139 
158 161 160 
157 158 158 
162 168 163 
143 154 160 
196 201 199 
168 169 169 
144 144 139 
177 174 173 
166 161 150 
120 123 128 
196 193 188 
68 80 88 
122 128 130 
168 170 172 
152 160 161 
159 158 153 
235 231 221 
242 244 243 
101 110 115 
181 177 176 
135 139 139 
131 136 130 
115 131 136 
164 164 160 
179 177 167 
158 156 149 
112 121 128 
153 153 147 
155 160 158 
176 176 171 
145 148 146 
107 120 128 
116 129 133 
125 136 141 
165 164 157 
163 167 165 
128 143 148 
139 147 146 
185 186 187 
187 189 189 
181 183 182 
184 182 182 
161 166 165 
133 141 143 
157 164 166 
167 169 166 
184 182 177 
185 181 171 
192 192 185 
115 127 125 
87 110 102 
128 140 124 
140 142 141 
105 116 119 
93 103 112 
92 101 100 
136 136 134 
168 167 163 
89 96 100 
166 164 163 
129 137 139 
64 86 95 
125 122 109 
204 204 198 
170 205 189 
144 179 167 
159 163 165 
164 195 178 
146 150 153 
175 179 181 
187 188 184 
190 187 180 
134 139 142 
158 154 147 
151 152 150 
176 176 169 
159 194 177 
170 171 171 
130 138 136 
99 135 82 
148 153 154 
152 152 151 
167 170 166 
170 205 191 
190 177 131 
189 191 187 
200 202 199 
112 137 137 
122 149 148 
165 172 172 
132 140 143 
167 164 157 
134 138 140 
198 194 179 
151 157 158 
106 133 145 
147 155 157 
131 141 137 
179 170 158 
149 175 164 
134 135 133 
98 107 115 
204 195 185 
120 137 136 
178 199 193 
188 186 180 
196 187 173 
203 200 187 
190 189 182 
173 173 167 
186 176 179 
108 121 126 
168 172 171 
204 205 203 
132 136 135 
139 147 153 
172 169 163 
127 135 136 
159 154 118 
83 105 106 
183 190 192 
170 171 170 
170 168 162 
116 131 140 
199 198 192 
213 218 220 
165 172 175 
154 159 161 
163 159 129 
118 120 116 
124 135 132 
163 158 154 
106 119 127 
133 144 148 
74 100 92 
133 135 137 
155 149 143 
155 152 144 
116 127 132 
134 134 137 
123 129 134 
144 148 148 
164 162 153 
173 174 170 
128 130 135 
148 108 116 
153 148 143 
110 122 128 
97 113 124 
157 159 155 
175 182 183 
153 153 151 
146 152 150 
193 187 175 
162 173 171 
191 196 198 
193 204 208 
184 180 180 
173 172 169 
227 228 228 
231 232 231 
238 185 172 
204 211 209 
248 248 243 
242 235 173 
153 149 139 
111 122 127 
103 127 122 
144 148 144 
135 141 145 
93 113 121 
161 163 161 
114 128 134 
134 137 133 
140 140 138 
155 169 173 
124 137 143 
150 153 153 
82 109 101 
153 154 153 
210 200 189 
86 99 106 
151 153 151 
161 163 164 
146 149 149 
129 133 136 
128 134 136 
142 146 147 
147 149 149 
148 161 162 
158 158 158 
163 162 158 
166 173 175 
122 127 128 
150 151 150 
145 151 150 
116 129 138 
165 165 163 
143 148 150 
140 145 147 
123 132 116 
128 130 130 
129 135 139 
130 140 138 
94 116 127 
83 101 107 
117 147 148 
148 158 148 
174 172 170 
180 178 169 
123 136 137 
144 146 143 
151 164 168 
154 158 159 
145 149 148 
149 149 146 
152 130 132 
122 129 135 
110 115 116 
180 177 173 
162 162 159 
136 140 142 
148 153 155 
134 143 143 
177 167 156 
147 147 145 
139 143 143 
146 148 146 
169 170 166 
158 157 155 
94 105 112 
141 129 132 
137 138 136 
154 156 152 
146 144 145 
132 136 137 
154 161 160 
134 148 148 
241 241 235 
245 245 242 
229 228 227 
239 239 236 
209 215 213 
199 194 181 
202 189 173 
144 144 143 
159 165 165 
114 115 116 
128 134 121 
138 144 146 
58 82 89 
124 122 118 
167 189 171 
69 90 98 
148 155 157 
161 164 164 
153 156 137 
79 96 101 
120 131 135 
83 104 97 
178 183 184 
159 159 148 
189 188 186 
139 145 144 
167 166 166 
157 162 161 
160 192 180 
158 163 163 
111 126 125 
123 141 133 
152 161 161 
195 195 188 
117 127 128 
153 148 136 
127 137 141 
139 149 149 
151 157 157 
86 93 97 
52 77 89 
159 165 171 
179 184 182 
179 181 181 
164 164 163 
192 196 195 
168 170 169 
158 171 173 
148 157 160 
130 155 178 
170 169 165 
163 163 161 
165 169 169 
144 153 160 
169 169 167 
193 190 179 
185 185 179 
204 200 191 
126 138 141 
132 147 145 
111 124 132 
117 120 124 
113 129 138 
125 135 140 
124 139 145 
146 146 142 
236 202 205 
156 168 174 
133 138 136 
168 170 168 
146 145 150 
169 164 159 
208 201 191 
120 135 142 
151 164 163 
152 162 166 
145 152 152 
142 124 129 
131 96 102 
127 142 147 
164 161 159 
155 158 159 
132 134 135 
161 170 172 
139 146 150 
147 155 157 
138 121 126 
91 111 102 
161 167 168 
146 151 151 
151 153 151 
131 135 138 
161 165 166 
148 153 153 
173 177 176 
87 99 106 
138 112 115 
156 156 153 
178 163 164 
174 174 172 
153 151 147 
160 165 165 
113 124 131 
152 149 150 
163 164 162 
186 139 135 
161 167 160 
155 164 168 
141 150 152 
117 122 127 
105 116 120 
122 132 120 
114 132 110 
141 147 152 
176 179 166 
140 146 149 
167 163 152 
140 145 144 
154 157 156 
101 122 130 
175 176 172 
171 121 134 
145 152 154 
163 162 158 
155 161 165 
105 125 103 
124 126 110 
163 162 160 
220 224 223 
238 233 180 
216 219 218 
233 225 217 
106 112 112 
159 162 160 
138 132 121 
107 119 124 
175 212 193 
148 154 153 
190 194 190 
135 134 121 
146 154 153 
151 152 149 
126 132 132 
167 168 168 
145 172 159 
94 113 106 
157 166 167 
120 120 111 
117 123 127 
117 129 133 
118 127 129 
145 148 150 
92 107 107 
174 171 161 
121 122 105 
116 123 125 
188 193 191 
129 126 115 
38 72 78 
96 110 113 
118 128 128 
129 138 115 
120 122 124 
119 130 139 
97 105 101 
132 134 133 
131 135 139 
144 154 156 
138 145 134 
106 114 120 
137 127 126 
164 172 173 
144 152 151 
113 122 127 
221 225 226 
230 230 228 
215 223 228 
186 183 176 
143 140 121 
139 148 150 
104 116 125 
139 151 133 
156 162 149 
165 173 173 
163 162 157 
91 114 125 
166 172 172 
128 134 135 
93 101 110 
170 173 169 
150 152 151 
159 155 123 
174 180 184 
203 204 203 
191 183 137 
186 183 181 
156 158 153 
130 142 148 
185 192 194 
139 141 138 
169 172 173 
195 193 187 
157 158 156 
102 112 111 
160 155 147 
125 138 132 
143 145 122 
118 121 125 
159 162 160 
135 135 136 
153 156 153 
118 124 125 
164 159 150 
158 155 145 
240 241 241 
248 249 249 
