ply
format ascii 1.0
element vertex 1663
property uchar red
property uchar green
property uchar blue
end_header
50 73 86 
65 87 85 
62 85 97 
103 104 106 
60 75 88 
91 107 95 
64 90 87 
63 80 95 
113 123 125 
109 110 113 
68 84 90 
85 100 107 
135 115 113 
97 101 92 
93 101 108 
62 78 90 
93 100 106 
116 100 100 
94 103 112 
108 118 126 
63 84 95 
102 125 126 
98 117 97 
96 107 111 
32 69 76 
73 86 101 
41 67 82 
91 118 94 
122 83 103 
38 65 81 
56 75 79 
53 74 91 
32 63 74 
77 95 104 
56 73 84 
57 67 81 
89 92 101 
133 140 142 
110 118 122 
140 144 141 
62 81 93 
108 115 119 
72 86 94 
105 115 116 
86 94 99 
86 102 109 
137 128 107 
70 89 101 
77 89 98 
124 124 122 
99 106 91 
47 66 77 
94 103 110 
101 105 106 
77 100 87 
93 99 108 
93 100 109 
175 169 161 
67 82 93 
80 91 95 
98 113 123 
93 98 100 
93 111 113 
105 109 96 
105 124 99 
106 114 119 
140 137 134 
103 116 123 
142 121 113 
106 124 93 
69 89 97 
63 85 106 
131 130 128 
44 67 81 
96 112 119 
76 85 93 
93 100 105 
86 104 113 
58 76 87 
52 64 78 
54 73 78 
47 64 79 
69 85 97 
67 87 101 
109 119 128 
119 108 111 
109 107 98 
98 105 102 
47 76 80 
123 127 106 
112 109 100 
100 109 112 
84 90 101 
168 161 155 
61 80 82 
58 79 92 
109 116 122 
142 132 126 
64 80 91 
91 102 109 
90 97 103 
102 118 89 
65 79 89 
128 105 104 
118 117 101 
125 123 120 
146 145 140 
141 117 110 
49 71 81 
97 87 95 
61 77 84 
124 126 127 
138 139 143 
137 139 143 
144 140 137 
94 111 119 
89 102 101 
106 130 124 
125 130 132 
133 140 141 
52 74 81 
94 107 116 
57 79 91 
101 125 122 
83 94 100 
55 73 85 
95 114 122 
91 106 113 
79 91 100 
96 105 111 
125 123 122 
124 122 122 
61 82 95 
128 137 139 
128 134 135 
73 92 104 
78 103 94 
78 96 103 
138 136 133 
85 98 108 
93 114 119 
51 72 85 
96 104 90 
50 68 82 
108 122 130 
137 140 119 
150 146 138 
102 103 107 
85 101 111 
69 92 105 
58 77 82 
169 122 119 
58 75 87 
62 74 84 
105 111 103 
96 111 115 
78 90 96 
70 87 99 
96 113 117 
101 118 124 
105 117 103 
103 111 111 
55 67 81 
93 102 94 
71 67 78 
55 78 89 
120 125 127 
130 128 129 
110 111 114 
50 72 89 
108 113 99 
134 131 123 
82 94 100 
69 86 96 
102 113 116 
63 82 91 
130 106 103 
91 104 115 
69 84 96 
106 114 119 
108 121 131 
116 121 125 
114 120 124 
131 140 143 
65 80 88 
93 109 114 
62 75 84 
60 74 83 
65 88 98 
111 116 120 
40 70 78 
58 81 90 
33 65 76 
61 92 89 
36 61 75 
50 77 83 
250 250 247 
250 250 248 
242 243 236 
207 201 185 
218 218 213 
192 192 182 
182 188 191 
178 184 184 
222 226 225 
205 192 174 
204 196 182 
183 173 160 
245 236 199 
188 196 198 
190 199 202 
78 106 128 
200 194 193 
214 207 202 
127 137 142 
215 212 207 
132 149 155 
163 157 139 
229 222 211 
195 198 190 
193 191 191 
162 175 178 
150 150 144 
90 114 136 
201 197 192 
211 208 203 
165 144 137 
183 189 190 
191 187 178 
177 173 164 
205 211 213 
245 244 239 
246 246 244 
248 247 245 
249 249 246 
109 130 146 
226 217 202 
187 187 183 
228 230 229 
121 128 130 
202 210 210 
196 185 170 
213 211 207 
194 203 205 
166 159 145 
168 166 160 
237 232 224 
161 152 140 
249 249 249 
221 221 220 
187 190 187 
215 215 208 
143 136 120 
246 246 244 
142 158 164 
170 182 184 
192 199 200 
205 204 198 
244 243 240 
215 211 200 
202 194 184 
197 200 198 
211 209 202 
182 183 177 
233 224 158 
223 220 209 
197 189 177 
205 201 191 
197 196 191 
172 182 185 
219 217 209 
182 172 161 
209 207 200 
187 164 145 
187 198 199 
220 217 210 
175 172 168 
224 229 230 
184 185 183 
92 117 136 
231 233 235 
153 150 143 
190 195 195 
207 208 205 
194 191 186 
220 224 222 
197 196 191 
155 151 144 
234 235 233 
170 167 155 
158 171 174 
182 177 164 
199 195 184 
244 245 244 
191 190 183 
201 201 196 
197 199 192 
108 111 101 
237 231 223 
246 246 243 
184 172 164 
140 142 141 
202 206 206 
221 208 191 
234 230 222 
240 242 237 
199 200 196 
219 213 201 
186 191 187 
210 217 217 
231 234 234 
212 207 196 
194 190 179 
230 229 227 
210 208 199 
172 181 183 
148 148 144 
204 201 185 
225 221 218 
205 202 193 
201 202 200 
186 181 170 
176 167 150 
198 201 199 
186 186 183 
202 208 208 
176 173 168 
212 213 210 
218 218 215 
149 140 139 
242 242 236 
93 118 137 
109 138 118 
185 188 186 
241 241 236 
225 230 230 
137 139 135 
155 170 175 
154 167 171 
247 247 244 
188 190 190 
190 189 183 
177 178 172 
242 244 244 
229 231 231 
182 183 182 
123 127 123 
211 204 190 
150 163 146 
168 156 147 
211 208 199 
237 231 172 
206 200 187 
227 229 231 
186 194 194 
191 187 180 
202 200 191 
223 219 215 
236 236 235 
208 210 205 
91 118 139 
192 189 181 
206 212 214 
243 237 232 
201 213 216 
195 188 175 
182 173 167 
227 222 212 
146 138 122 
209 214 214 
209 212 213 
213 219 220 
131 134 132 
154 151 143 
243 244 240 
204 211 214 
240 243 243 
236 239 235 
212 206 191 
206 199 182 
182 154 145 
223 221 214 
218 216 214 
241 244 242 
129 140 146 
205 209 206 
208 203 198 
211 217 218 
230 225 216 
221 223 224 
214 207 197 
234 230 226 
179 184 186 
148 161 166 
196 194 188 
210 213 210 
251 250 248 
216 216 214 
223 217 207 
245 245 241 
192 194 187 
208 205 196 
213 206 194 
208 213 214 
154 161 160 
178 185 187 
169 178 182 
214 220 222 
206 211 212 
205 205 202 
188 208 212 
175 183 183 
183 185 184 
180 172 156 
174 165 151 
198 200 202 
177 165 155 
150 148 145 
213 205 203 
208 200 198 
219 216 210 
204 204 194 
169 153 155 
209 203 194 
147 159 164 
205 199 190 
210 212 209 
172 180 180 
166 155 142 
194 192 185 
170 147 132 
141 157 161 
180 178 168 
171 172 166 
204 193 176 
210 210 197 
234 235 234 
216 216 211 
204 198 186 
232 229 221 
144 108 112 
199 196 189 
194 197 199 
192 188 182 
202 199 190 
169 162 150 
210 207 198 
194 192 184 
197 194 185 
126 132 134 
127 131 133 
193 192 184 
174 174 167 
230 228 225 
243 243 238 
204 205 202 
154 168 173 
228 230 231 
203 202 196 
212 217 218 
216 225 224 
224 226 224 
245 246 245 
209 205 193 
207 194 176 
196 191 180 
195 193 184 
191 213 217 
201 191 181 
218 221 219 
183 184 178 
215 215 212 
233 221 155 
194 191 185 
200 212 215 
187 184 182 
209 204 196 
88 110 126 
162 157 153 
213 213 212 
214 217 219 
227 220 208 
210 217 216 
182 164 154 
201 209 211 
161 142 130 
171 168 160 
170 173 175 
73 89 97 
83 96 103 
86 99 106 
80 91 101 
44 71 74 
129 125 117 
101 112 116 
89 102 111 
63 79 88 
57 79 91 
123 126 110 
124 125 108 
114 124 127 
105 120 125 
117 121 125 
80 88 94 
82 98 105 
99 108 110 
46 68 82 
77 89 98 
69 80 90 
92 108 116 
78 91 98 
54 71 82 
101 115 122 
43 70 73 
122 125 128 
53 76 89 
123 139 147 
48 73 98 
34 70 78 
73 90 96 
57 80 95 
116 130 144 
61 69 84 
53 73 85 
41 72 75 
121 121 124 
153 144 125 
105 123 93 
66 82 93 
58 75 87 
86 99 104 
97 101 108 
58 72 85 
69 83 94 
112 121 129 
114 108 110 
71 84 88 
75 87 95 
132 98 100 
138 137 134 
108 118 120 
70 84 90 
87 100 109 
133 135 139 
75 94 111 
99 109 112 
89 102 108 
109 120 127 
107 117 120 
79 94 103 
96 108 113 
39 64 76 
44 66 77 
95 111 118 
55 77 93 
62 88 108 
46 66 81 
53 77 88 
51 77 92 
65 81 91 
74 94 100 
46 81 76 
108 111 118 
99 105 112 
76 89 93 
141 142 142 
79 91 98 
76 88 96 
69 84 94 
67 84 95 
59 78 90 
90 77 87 
55 72 87 
75 88 94 
110 118 122 
55 72 84 
116 122 126 
134 130 127 
107 101 102 
79 97 108 
118 125 126 
100 117 125 
93 106 114 
80 89 99 
90 105 114 
34 66 73 
88 104 117 
91 98 104 
92 107 115 
100 106 99 
102 112 119 
134 146 147 
79 101 112 
43 72 75 
84 96 105 
47 69 82 
87 92 101 
87 100 111 
108 116 123 
69 81 91 
62 80 92 
52 71 80 
116 123 125 
125 133 135 
82 94 103 
101 115 119 
75 88 98 
107 105 94 
66 84 96 
72 98 87 
113 113 114 
88 104 113 
75 86 96 
83 103 112 
66 76 85 
47 74 79 
105 99 100 
101 114 119 
104 111 107 
64 79 90 
113 115 117 
79 96 103 
72 88 96 
71 81 89 
79 95 103 
52 66 77 
178 169 159 
64 77 89 
56 78 92 
59 77 88 
51 70 81 
101 115 122 
104 113 96 
97 114 124 
109 113 116 
116 123 125 
95 108 112 
143 128 117 
60 77 92 
86 100 107 
116 127 133 
84 88 94 
137 141 144 
49 67 80 
58 73 82 
67 79 89 
73 80 91 
69 82 89 
126 131 135 
97 108 116 
68 79 86 
92 109 122 
83 100 107 
246 247 244 
226 227 226 
243 246 244 
243 244 241 
198 200 196 
219 211 198 
209 213 214 
189 192 187 
158 155 147 
213 215 213 
183 192 193 
229 229 225 
229 231 230 
246 247 243 
200 192 178 
208 205 186 
218 223 227 
192 196 196 
203 192 182 
222 223 220 
162 164 161 
196 193 188 
194 188 181 
176 191 194 
210 210 206 
173 163 156 
208 203 199 
203 199 189 
204 205 200 
169 178 183 
204 207 208 
215 212 209 
165 167 165 
199 195 186 
191 192 188 
205 188 173 
163 156 144 
198 207 207 
195 186 175 
237 238 237 
158 175 180 
241 241 237 
178 174 162 
162 156 141 
170 160 154 
209 205 198 
250 249 245 
202 202 197 
211 204 196 
162 174 176 
182 165 156 
172 157 145 
86 118 88 
247 248 245 
204 205 200 
160 171 172 
240 240 234 
205 212 212 
215 222 220 
188 195 196 
230 228 223 
170 178 182 
206 196 181 
218 218 211 
199 191 179 
139 134 128 
227 233 232 
204 206 204 
144 144 142 
204 195 185 
228 229 224 
134 137 134 
216 207 193 
171 183 187 
201 203 199 
208 202 197 
177 175 172 
133 153 164 
190 193 196 
149 160 163 
203 208 207 
212 211 202 
235 232 225 
192 199 198 
213 206 193 
215 215 213 
174 180 182 
233 234 231 
177 184 186 
213 217 217 
152 148 136 
245 244 239 
244 245 239 
190 187 173 
223 217 204 
163 159 147 
211 212 209 
200 204 195 
156 154 146 
184 184 176 
213 218 223 
243 242 241 
198 190 174 
250 250 245 
202 188 171 
152 143 134 
154 146 137 
237 239 235 
177 171 161 
222 213 201 
214 200 181 
161 132 131 
140 137 128 
153 153 149 
123 128 127 
164 171 174 
150 150 146 
213 211 203 
230 232 232 
171 184 188 
185 192 190 
223 222 219 
181 192 193 
218 215 207 
224 226 227 
198 196 188 
238 237 230 
209 213 212 
200 202 197 
180 188 191 
141 139 136 
182 188 184 
243 245 244 
245 244 240 
252 252 252 
200 201 200 
218 218 212 
147 171 174 
231 232 230 
159 165 165 
169 164 152 
195 185 171 
127 135 138 
227 230 230 
211 207 199 
147 148 142 
206 203 194 
228 229 227 
194 198 199 
133 154 163 
223 216 211 
192 185 168 
213 216 215 
150 166 165 
157 152 140 
226 218 209 
236 230 224 
233 226 218 
174 185 188 
205 209 206 
232 227 223 
224 224 224 
189 186 178 
216 216 213 
139 154 159 
164 161 145 
213 212 208 
210 212 210 
173 171 160 
215 214 213 
137 138 134 
213 211 204 
244 246 245 
195 201 202 
190 196 197 
219 225 226 
248 248 248 
146 145 140 
206 213 215 
189 198 201 
184 195 198 
192 205 208 
175 186 190 
201 200 191 
164 163 153 
224 233 234 
186 191 191 
188 183 174 
208 206 200 
220 202 205 
184 182 174 
222 223 222 
158 161 163 
184 183 177 
206 197 184 
135 149 157 
186 184 176 
195 201 200 
182 189 189 
184 194 196 
217 219 217 
212 218 218 
213 209 199 
236 236 234 
149 172 177 
191 191 188 
161 156 143 
217 218 210 
190 183 173 
215 221 223 
162 161 150 
180 170 163 
189 174 166 
135 151 160 
184 182 177 
191 192 187 
198 195 190 
193 190 184 
231 232 232 
176 180 181 
210 207 201 
116 138 118 
220 220 214 
200 192 182 
87 118 140 
134 130 125 
216 234 237 
145 145 142 
185 194 196 
187 196 194 
202 190 173 
230 223 225 
176 184 185 
213 219 222 
219 220 218 
205 209 207 
176 182 183 
195 193 185 
155 165 170 
163 176 177 
245 248 245 
196 203 198 
183 181 175 
202 209 204 
171 175 169 
238 233 225 
217 214 198 
240 241 242 
172 172 167 
173 184 187 
187 190 184 
151 159 162 
179 185 188 
170 155 145 
246 244 237 
191 195 196 
172 168 155 
221 228 226 
184 188 188 
220 222 220 
206 209 208 
194 183 168 
172 180 158 
209 211 209 
81 111 134 
169 180 186 
190 186 170 
146 155 158 
184 185 180 
155 172 175 
216 209 197 
218 219 217 
197 194 186 
154 163 168 
92 113 129 
203 209 210 
175 173 165 
162 164 163 
83 104 121 
218 221 221 
163 170 173 
187 183 174 
209 203 194 
197 195 189 
188 186 179 
160 174 179 
162 157 146 
110 117 121 
81 87 93 
65 83 92 
145 141 135 
75 95 102 
70 82 91 
94 107 112 
61 79 93 
144 142 140 
78 95 100 
71 84 95 
90 97 105 
90 100 106 
85 105 110 
43 64 77 
116 119 121 
64 82 95 
82 92 88 
57 76 82 
102 116 124 
101 125 90 
78 93 104 
101 116 118 
85 100 105 
163 158 154 
102 110 112 
111 114 119 
123 133 122 
89 92 95 
83 97 101 
68 82 84 
129 103 101 
114 119 122 
98 100 106 
73 85 93 
98 104 112 
221 221 214 
114 119 118 
186 188 186 
163 177 178 
248 248 248 
214 216 216 
193 196 195 
245 245 245 
192 199 200 
197 211 212 
183 187 187 
223 225 223 
201 202 197 
201 198 194 
240 239 235 
241 243 241 
237 238 235 
241 243 242 
115 117 119 
145 144 137 
174 183 185 
252 252 252 
207 207 203 
231 219 155 
158 172 175 
169 181 182 
226 219 210 
164 175 177 
181 196 199 
199 195 187 
154 146 132 
251 251 251 
146 148 144 
181 173 162 
240 242 241 
150 166 171 
199 192 182 
196 244 241 
146 161 163 
210 198 179 
234 236 235 
191 200 202 
170 184 187 
97 111 102 
53 73 85 
119 127 132 
104 110 112 
58 77 89 
183 181 179 
155 168 172 
204 190 169 
202 188 173 
150 146 138 
215 216 210 
87 95 101 
57 86 104 
106 111 115 
100 109 114 
87 108 113 
67 85 94 
54 74 87 
65 85 93 
85 84 93 
76 91 101 
110 115 117 
64 81 88 
68 90 100 
57 76 87 
69 90 107 
55 73 86 
72 88 99 
98 112 114 
75 91 102 
84 100 105 
121 125 123 
76 95 88 
117 122 109 
90 96 95 
87 94 94 
55 75 89 
72 88 97 
42 76 83 
40 69 83 
107 109 109 
91 98 95 
67 80 91 
65 84 94 
90 101 106 
87 93 103 
95 116 89 
59 81 87 
81 95 107 
61 78 90 
48 74 87 
110 106 112 
146 151 150 
104 114 118 
116 129 137 
83 111 110 
73 93 105 
89 93 90 
97 110 93 
104 110 112 
69 84 90 
40 68 77 
89 104 113 
127 135 138 
76 93 103 
57 78 93 
56 77 89 
106 96 99 
109 117 121 
62 84 98 
67 83 95 
69 91 107 
38 73 76 
49 77 93 
34 69 76 
92 106 116 
79 91 102 
79 97 108 
76 95 100 
117 132 135 
55 82 80 
69 97 87 
78 99 106 
59 83 89 
59 80 90 
90 105 112 
99 110 118 
65 88 104 
89 103 107 
66 84 100 
116 114 116 
102 114 116 
94 108 111 
43 69 84 
76 92 99 
87 91 93 
132 130 116 
87 104 111 
84 107 116 
51 76 91 
79 90 98 
82 96 96 
80 92 98 
82 94 102 
56 81 77 
100 109 115 
104 111 116 
101 109 114 
100 110 117 
71 93 103 
79 90 90 
62 88 102 
100 116 117 
59 80 92 
92 104 112 
75 91 101 
108 110 112 
65 92 82 
124 123 123 
75 91 101 
119 115 119 
57 78 93 
57 85 103 
73 96 107 
47 66 79 
54 95 77 
101 111 118 
71 83 88 
89 98 95 
59 80 91 
74 95 97 
72 87 88 
64 82 92 
52 76 87 
67 90 105 
107 119 122 
80 85 88 
98 104 109 
85 97 107 
55 73 87 
60 80 79 
89 99 107 
92 107 114 
89 97 97 
83 92 95 
104 109 114 
68 86 97 
51 75 88 
59 81 96 
99 109 116 
73 91 95 
53 78 90 
41 66 80 
76 92 89 
46 75 78 
61 88 88 
116 116 123 
60 77 89 
30 65 74 
56 82 87 
107 120 99 
226 228 229 
230 232 230 
181 181 173 
187 193 190 
176 171 164 
230 232 230 
210 213 213 
181 191 195 
206 204 195 
128 134 133 
96 126 88 
204 202 198 
198 196 189 
151 159 161 
188 194 195 
158 151 134 
240 240 234 
177 183 184 
184 190 189 
184 191 190 
143 157 159 
221 225 225 
174 190 197 
203 206 206 
213 217 218 
188 199 201 
183 178 163 
180 171 155 
205 205 201 
204 210 210 
150 151 146 
186 177 168 
173 169 159 
184 176 167 
188 177 166 
199 194 182 
226 227 225 
228 229 225 
208 206 197 
140 149 150 
197 205 207 
157 166 162 
146 148 132 
163 158 146 
204 201 192 
234 235 233 
158 158 154 
218 216 213 
164 172 177 
116 128 129 
196 195 189 
210 202 188 
172 175 173 
187 219 202 
194 196 193 
174 172 167 
133 131 126 
139 141 141 
213 217 219 
227 228 228 
64 92 93 
139 151 157 
158 164 165 
232 227 219 
164 168 164 
95 116 108 
109 125 109 
189 199 202 
192 187 174 
203 208 207 
218 215 204 
182 181 173 
179 179 172 
169 169 155 
67 106 84 
195 196 190 
198 191 179 
213 208 195 
178 153 148 
202 204 205 
250 251 252 
185 195 199 
208 206 199 
207 211 211 
200 191 173 
169 163 150 
159 144 122 
100 125 91 
206 206 205 
152 166 173 
209 212 211 
208 199 188 
212 213 211 
195 199 200 
186 191 192 
193 189 173 
201 199 191 
229 234 235 
221 225 225 
125 133 135 
241 245 244 
203 195 183 
212 211 206 
200 198 191 
203 201 194 
183 182 176 
179 180 175 
219 220 222 
217 219 218 
145 154 156 
182 174 159 
183 178 166 
243 245 244 
191 198 183 
210 208 199 
95 112 102 
197 195 188 
145 159 164 
245 245 246 
129 136 125 
247 248 245 
126 133 135 
190 197 197 
210 207 201 
213 206 192 
140 145 143 
215 217 217 
159 166 170 
155 161 165 
206 204 196 
159 172 180 
218 210 197 
217 223 224 
151 161 166 
214 215 209 
248 248 245 
232 230 224 
229 230 230 
208 211 210 
192 183 172 
175 174 168 
187 178 158 
202 192 175 
187 183 168 
210 207 200 
188 193 194 
195 188 173 
200 204 204 
235 236 233 
206 211 212 
171 168 149 
210 207 197 
203 201 192 
84 114 88 
166 160 152 
169 174 175 
243 243 238 
208 213 214 
144 147 147 
211 204 191 
140 160 166 
246 247 244 
174 177 112 
178 172 161 
156 155 148 
218 220 210 
224 228 228 
214 215 212 
228 231 233 
243 246 246 
184 186 183 
207 202 189 
205 200 187 
191 196 193 
195 194 183 
122 129 131 
143 142 133 
158 153 142 
175 179 169 
102 130 93 
136 139 134 
181 177 177 
205 202 149 
208 210 206 
211 211 203 
138 156 165 
135 143 139 
158 164 165 
162 163 154 
181 193 199 
169 162 152 
244 245 243 
170 172 170 
227 227 223 
187 189 182 
186 182 172 
243 245 243 
183 171 157 
196 200 199 
189 179 169 
212 216 216 
137 135 122 
123 138 110 
84 98 109 
41 76 78 
99 113 117 
77 89 98 
72 89 97 
159 142 140 
216 218 209 
167 166 151 
241 243 242 
172 187 189 
207 200 184 
182 181 176 
177 185 186 
176 173 159 
174 185 178 
103 130 150 
84 99 105 
67 97 87 
70 94 100 
94 109 113 
57 77 90 
50 83 75 
79 94 102 
60 83 96 
69 86 96 
72 88 98 
81 97 104 
64 83 92 
88 100 106 
206 193 176 
205 203 198 
205 203 196 
166 159 145 
172 170 158 
243 245 244 
235 238 236 
209 208 202 
192 200 203 
89 115 135 
244 245 240 
216 213 204 
196 196 187 
236 240 240 
164 180 187 
94 114 92 
98 115 101 
65 91 106 
76 88 93 
74 85 94 
87 106 114 
62 81 91 
97 112 117 
154 158 139 
99 119 116 
80 101 92 
70 90 115 
101 109 115 
71 82 91 
92 101 110 
93 102 109 
31 64 75 
67 83 92 
69 84 91 
80 90 93 
42 70 79 
115 109 100 
123 121 101 
97 112 114 
135 142 142 
62 79 90 
75 78 88 
92 103 110 
78 94 103 
62 86 107 
54 76 85 
39 68 77 
147 137 124 
82 92 99 
36 73 73 
55 80 77 
39 68 75 
69 83 91 
55 83 84 
106 113 116 
77 93 102 
84 96 103 
67 87 98 
108 120 100 
55 75 87 
103 108 97 
44 72 78 
124 112 112 
104 106 110 
80 109 115 
83 98 105 
124 133 106 
70 89 100 
119 132 134 
119 104 96 
121 126 132 
106 111 95 
46 73 76 
117 129 131 
91 102 102 
72 85 96 
51 68 80 
54 76 84 
94 109 114 
133 134 113 
104 116 117 
119 121 120 
37 65 75 
111 122 98 
60 81 84 
42 70 83 
88 108 108 
45 71 84 
94 91 92 
207 195 180 
88 103 93 
121 119 113 
54 76 82 
59 71 79 
62 81 94 
94 106 114 
59 76 79 
74 90 99 
125 126 105 
79 91 93 
60 83 95 
182 208 194 
146 144 126 
226 228 226 
177 177 172 
86 114 140 
230 233 232 
219 219 215 
194 187 173 
187 193 191 
160 172 176 
189 189 186 
240 241 235 
186 183 173 
193 193 178 
136 141 139 
141 139 121 
153 149 138 
134 143 145 
230 229 226 
140 140 136 
169 164 152 
236 233 224 
97 126 108 
163 166 164 
194 193 190 
183 189 192 
221 222 218 
151 151 149 
165 198 190 
179 174 161 
177 171 154 
180 164 147 
246 245 242 
171 162 147 
200 207 207 
221 219 207 
164 171 177 
180 186 188 
239 240 235 
242 242 236 
214 223 224 
177 165 145 
237 239 234 
168 168 163 
231 232 232 
186 182 166 
188 188 184 
231 232 229 
209 215 213 
125 144 157 
204 198 187 
213 216 214 
209 213 214 
240 239 236 
239 239 237 
162 155 137 
180 180 176 
110 176 174 
222 225 225 
193 194 196 
234 235 233 
183 182 174 
166 224 239 
241 243 243 
183 177 159 
214 204 187 
244 243 239 
238 185 173 
245 234 180 
68 83 95 
67 83 94 
144 129 129 
41 69 85 
97 103 107 
77 94 99 
55 76 90 
77 106 93 
52 77 89 
55 78 94 
65 84 97 
64 85 97 
49 78 75 
127 128 129 
42 72 80 
48 70 80 
43 72 89 
36 69 74 
80 106 93 
99 114 121 
83 93 97 
105 111 113 
61 89 88 
65 93 91 
56 76 85 
53 73 88 
233 231 230 
149 140 130 
195 192 182 
177 164 153 
176 185 188 
207 210 209 
164 162 148 
170 163 155 
151 147 140 
183 192 193 
234 236 235 
110 119 126 
206 206 203 
206 209 208 
235 236 236 
53 93 92 
78 93 104 
34 68 77 
72 93 103 
143 132 126 
157 156 98 
67 83 93 
141 139 135 
70 90 100 
108 119 96 
133 129 118 
160 155 147 
77 104 84 
88 122 136 
72 95 105 
69 86 96 
93 100 93 
89 105 114 
72 83 89 
157 154 148 
214 226 222 
202 204 204 
174 161 153 
239 241 240 
193 190 181 
198 191 178 
185 176 159 
196 193 181 
173 178 178 
189 184 171 
205 197 185 
208 199 187 
197 189 183 
168 168 164 
183 174 162 
176 162 138 
219 218 210 
252 253 249 
197 191 183 
206 197 188 
